####
#
# OBJ File Generated by Meshlab
#
####
# Object assembly_child.obj
#
# Vertices: 325
# Faces: 646
#
####
mtllib ./assembly_child.obj.mtl

vn 0.5773503 -0.5773503 -0.5773503
v 0.0175000 -0.0175000 0.0000000
vn 0.5773503 0.5773503 -0.5773503
v 0.0175000 0.0175000 0.0000000
vn 0.5773503 0.5773503 0.5773503
v 0.0175000 0.0175000 0.0900000
vn 0.5773503 -0.5773503 0.5773503
v 0.0175000 -0.0175000 0.0900000
vn -0.5773503 0.5773503 -0.5773503
v -0.0175000 0.0175000 0.0000000
vn -0.5773503 0.5773503 0.5773503
v -0.0175000 0.0175000 0.0900000
vn -0.5773503 -0.5773504 -0.5773503
v -0.0175000 -0.0175000 0.0000000
vn -0.5773503 -0.5773503 0.5773503
v -0.0175000 -0.0175000 0.0900000
vn 0.7071067 0.0000000 -0.7071068
v 0.0175000 -0.0105000 0.0000000
vn 0.7071068 0.0000000 -0.7071068
v 0.0175000 -0.0035000 0.0000000
vn 0.7071068 0.0000000 -0.7071068
v 0.0175000 0.0035000 0.0000000
vn 0.7071068 0.0000000 -0.7071068
v 0.0175000 0.0105000 0.0000000
vn 0.7071068 0.7071068 0.0000000
v 0.0175000 0.0175000 0.0818182
vn 0.7071068 0.7071067 0.0000000
v 0.0175000 0.0175000 0.0736364
vn 0.7071068 0.7071068 0.0000000
v 0.0175000 0.0175000 0.0654545
vn 0.7071068 0.7071068 0.0000000
v 0.0175000 0.0175000 0.0572727
vn 0.7071068 0.7071068 0.0000000
v 0.0175000 0.0175000 0.0490909
vn 0.7071068 0.7071068 0.0000000
v 0.0175000 0.0175000 0.0409091
vn 0.7071068 0.7071067 0.0000000
v 0.0175000 0.0175000 0.0327273
vn 0.7071068 0.7071068 0.0000000
v 0.0175000 0.0175000 0.0245455
vn 0.7071068 0.7071068 0.0000000
v 0.0175000 0.0175000 0.0163636
vn 0.7071068 0.7071068 0.0000000
v 0.0175000 0.0175000 0.0081818
vn 0.7071068 0.0000000 0.7071068
v 0.0175000 -0.0105000 0.0900000
vn 0.7071068 0.0000000 0.7071068
v 0.0175000 -0.0035000 0.0900000
vn 0.7071068 0.0000000 0.7071068
v 0.0175000 0.0035000 0.0900000
vn 0.7071068 0.0000000 0.7071068
v 0.0175000 0.0105000 0.0900000
vn 0.7071068 -0.7071068 0.0000000
v 0.0175000 -0.0175000 0.0818182
vn 0.7071068 -0.7071068 0.0000000
v 0.0175000 -0.0175000 0.0736364
vn 0.7071068 -0.7071068 0.0000000
v 0.0175000 -0.0175000 0.0654545
vn 0.7071068 -0.7071067 0.0000000
v 0.0175000 -0.0175000 0.0572727
vn 0.7071068 -0.7071068 0.0000000
v 0.0175000 -0.0175000 0.0490909
vn 0.7071068 -0.7071068 0.0000000
v 0.0175000 -0.0175000 0.0409091
vn 0.7071067 -0.7071068 0.0000000
v 0.0175000 -0.0175000 0.0327273
vn 0.7071068 -0.7071068 0.0000000
v 0.0175000 -0.0175000 0.0245455
vn 0.7071068 -0.7071068 0.0000000
v 0.0175000 -0.0175000 0.0163636
vn 0.7071068 -0.7071068 0.0000000
v 0.0175000 -0.0175000 0.0081818
vn 0.0000000 0.7071067 -0.7071068
v 0.0105000 0.0175000 0.0000000
vn 0.0000000 0.7071067 -0.7071068
v 0.0035000 0.0175000 0.0000000
vn 0.0000000 0.7071068 -0.7071068
v -0.0035000 0.0175000 0.0000000
vn 0.0000000 0.7071068 -0.7071068
v -0.0105000 0.0175000 0.0000000
vn -0.7071068 0.7071067 0.0000000
v -0.0175000 0.0175000 0.0818182
vn -0.7071068 0.7071067 0.0000000
v -0.0175000 0.0175000 0.0736364
vn -0.7071068 0.7071068 0.0000000
v -0.0175000 0.0175000 0.0654545
vn -0.7071068 0.7071068 0.0000000
v -0.0175000 0.0175000 0.0572727
vn -0.7071068 0.7071068 0.0000000
v -0.0175000 0.0175000 0.0490909
vn -0.7071068 0.7071068 0.0000000
v -0.0175000 0.0175000 0.0409091
vn -0.7071068 0.7071068 0.0000000
v -0.0175000 0.0175000 0.0327273
vn -0.7071068 0.7071068 0.0000000
v -0.0175000 0.0175000 0.0245455
vn -0.7071068 0.7071068 0.0000000
v -0.0175000 0.0175000 0.0163636
vn -0.7071068 0.7071068 0.0000000
v -0.0175000 0.0175000 0.0081818
vn 0.0000000 0.7071068 0.7071068
v 0.0105000 0.0175000 0.0900000
vn 0.0000000 0.7071068 0.7071068
v 0.0035000 0.0175000 0.0900000
vn 0.0000000 0.7071068 0.7071068
v -0.0035000 0.0175000 0.0900000
vn 0.0000000 0.7071068 0.7071068
v -0.0105000 0.0175000 0.0900000
vn -0.7071068 0.0000000 -0.7071068
v -0.0175000 0.0105000 0.0000000
vn -0.7071068 0.0000000 -0.7071068
v -0.0175000 0.0035000 0.0000000
vn -0.7071068 0.0000000 -0.7071068
v -0.0175000 -0.0035000 0.0000000
vn -0.7071068 0.0000000 -0.7071068
v -0.0175000 -0.0105000 0.0000000
vn -0.7071068 -0.7071068 0.0000000
v -0.0175000 -0.0175000 0.0818182
vn -0.7071068 -0.7071068 0.0000000
v -0.0175000 -0.0175000 0.0736364
vn -0.7071068 -0.7071068 0.0000000
v -0.0175000 -0.0175000 0.0654545
vn -0.7071067 -0.7071068 0.0000000
v -0.0175000 -0.0175000 0.0572727
vn -0.7071068 -0.7071068 0.0000000
v -0.0175000 -0.0175000 0.0490909
vn -0.7071068 -0.7071068 0.0000000
v -0.0175000 -0.0175000 0.0409091
vn -0.7071068 -0.7071068 0.0000000
v -0.0175000 -0.0175000 0.0327273
vn -0.7071068 -0.7071068 0.0000000
v -0.0175000 -0.0175000 0.0245455
vn -0.7071068 -0.7071068 0.0000000
v -0.0175000 -0.0175000 0.0163636
vn -0.7071068 -0.7071067 0.0000000
v -0.0175000 -0.0175000 0.0081818
vn -0.7071068 0.0000000 0.7071068
v -0.0175000 0.0105000 0.0900000
vn -0.7071068 0.0000000 0.7071068
v -0.0175000 0.0035000 0.0900000
vn -0.7071068 0.0000000 0.7071068
v -0.0175000 -0.0035000 0.0900000
vn -0.7071068 0.0000000 0.7071068
v -0.0175000 -0.0105000 0.0900000
vn 0.0000000 -0.7071068 -0.7071068
v -0.0105000 -0.0175000 0.0000000
vn 0.0000000 -0.7071068 -0.7071068
v -0.0035000 -0.0175000 0.0000000
vn 0.0000000 -0.7071068 -0.7071068
v 0.0035000 -0.0175000 0.0000000
vn 0.0000000 -0.7071068 -0.7071068
v 0.0105000 -0.0175000 0.0000000
vn 0.0000000 -0.7071068 0.7071068
v -0.0105000 -0.0175000 0.0900000
vn 0.0000000 -0.7071068 0.7071068
v -0.0035000 -0.0175000 0.0900000
vn 0.0000000 -0.7071068 0.7071068
v 0.0035000 -0.0175000 0.0900000
vn 0.0000000 -0.7071068 0.7071068
v 0.0105000 -0.0175000 0.0900000
vn 1.0000000 0.0000000 0.0000000
v 0.0175000 0.0001737 0.0053767
vn 1.0000000 0.0000000 0.0000000
v 0.0175000 0.0001604 0.0846421
vn 1.0000000 0.0000000 0.0000000
v 0.0175000 0.0104385 0.0286545
vn 1.0000000 0.0000000 0.0000000
v 0.0175000 -0.0100524 0.0450175
vn 1.0000000 0.0000000 0.0000000
v 0.0175000 0.0104297 0.0613789
vn 1.0000000 0.0000000 0.0000000
v 0.0175000 -0.0093937 0.0687615
vn 1.0000000 0.0000000 0.0000000
v 0.0175000 -0.0093819 0.0212749
vn 1.0000000 0.0000000 0.0000000
v 0.0175000 0.0104950 0.0450135
vn 1.0000000 0.0000000 0.0000000
v 0.0175000 0.0100451 0.0117508
vn 1.0000000 0.0000000 0.0000000
v 0.0175000 0.0100362 0.0782701
vn 1.0000000 0.0000000 0.0000000
v 0.0175000 0.0102602 0.0204417
vn 1.0000000 0.0000000 0.0000000
v 0.0175000 0.0035174 0.0246269
vn 1.0000000 0.0000000 0.0000000
v 0.0175000 0.0033626 0.0326506
vn 1.0000000 0.0000000 0.0000000
v 0.0175000 -0.0033154 0.0278453
vn 1.0000000 0.0000000 0.0000000
v 0.0175000 -0.0045054 0.0369560
vn 1.0000000 0.0000000 0.0000000
v 0.0175000 0.0025874 0.0165760
vn 1.0000000 0.0000000 0.0000000
v 0.0175000 0.0102514 0.0695880
vn 1.0000000 0.0000000 0.0000000
v 0.0175000 0.0035020 0.0654265
vn 1.0000000 0.0000000 0.0000000
v 0.0175000 0.0033495 0.0574011
vn 1.0000000 0.0000000 0.0000000
v 0.0175000 -0.0033299 0.0622081
vn 1.0000000 0.0000000 0.0000000
v 0.0175000 -0.0045142 0.0530920
vn 1.0000000 0.0000000 0.0000000
v 0.0175000 0.0034940 0.0491135
vn 1.0000000 0.0000000 0.0000000
v 0.0175000 0.0025699 0.0734676
vn 1.0000000 0.0000000 0.0000000
v 0.0175000 -0.0100375 0.0779842
vn 1.0000000 0.0000000 0.0000000
v 0.0175000 -0.0100248 0.0120394
vn 1.0000000 0.0000000 0.0000000
v 0.0175000 0.0034969 0.0409317
vn 1.0000000 0.0000000 0.0000000
v 0.0175000 0.0104632 0.0532107
vn 1.0000000 0.0000000 0.0000000
v 0.0175000 0.0104682 0.0368169
vn 1.0000000 0.0000000 0.0000000
v 0.0175000 0.0066715 0.0053898
vn 1.0000000 0.0000000 0.0000000
v 0.0175000 -0.0064653 0.0056171
vn 1.0000000 0.0000000 0.0000000
v 0.0175000 0.0066633 0.0846241
vn 1.0000000 0.0000000 0.0000000
v 0.0175000 -0.0064765 0.0843992
vn 1.0000000 0.0000000 0.0000000
v 0.0175000 -0.0043144 0.0164915
vn 1.0000000 0.0000000 0.0000000
v 0.0175000 -0.0043323 0.0735518
vn 1.0000000 0.0000000 0.0000000
v 0.0175000 -0.0107044 0.0300814
vn 1.0000000 0.0000000 0.0000000
v 0.0175000 -0.0107122 0.0599491
vn 1.0000000 0.0000000 0.0000000
v 0.0175000 -0.0120467 0.0371372
vn 1.0000000 0.0000000 0.0000000
v 0.0175000 -0.0024053 0.0450237
vn 1.0000000 0.0000000 0.0000000
v 0.0175000 -0.0120508 0.0528877
vn 1.0000000 0.0000000 0.0000000
v 0.0175000 -0.0021899 0.0213806
vn 1.0000000 0.0000000 0.0000000
v 0.0175000 -0.0022059 0.0686694
vn 1.0000000 0.0000000 0.0000000
v 0.0175000 0.0033767 0.0799818
vn 1.0000000 0.0000000 0.0000000
v 0.0175000 0.0033929 0.0100472
vn 1.0000000 0.0000000 0.0000000
v 0.0175000 -0.0024706 0.0789929
vn 1.0000000 0.0000000 0.0000000
v 0.0175000 -0.0024532 0.0110389
vn 1.0000000 0.0000000 0.0000000
v 0.0175000 0.0124437 0.0050690
vn 1.0000000 0.0000000 0.0000000
v 0.0175000 0.0124403 0.0849382
vn 1.0000000 0.0000000 0.0000000
v 0.0175000 -0.0124029 0.0051705
vn 1.0000000 0.0000000 0.0000000
v 0.0175000 -0.0124084 0.0848380
vn 0.0000000 1.0000000 0.0000000
v 0.0001490 0.0175000 0.0053681
vn 0.0000000 1.0000000 0.0000000
v 0.0001617 0.0175000 0.0846141
vn 0.0000000 1.0000000 0.0000000
v 0.0104517 0.0175000 0.0287201
vn 0.0000000 1.0000000 0.0000000
v 0.0105543 0.0175000 0.0449840
vn 0.0000000 1.0000000 0.0000000
v 0.0104590 0.0175000 0.0612483
vn 0.0000000 1.0000000 0.0000000
v -0.0098551 0.0175000 0.0530469
vn 0.0000000 1.0000000 0.0000000
v -0.0098574 0.0175000 0.0369216
vn 0.0000000 1.0000000 0.0000000
v -0.0097117 0.0175000 0.0686612
vn 0.0000000 1.0000000 0.0000000
v -0.0097189 0.0175000 0.0213083
vn 0.0000000 1.0000000 0.0000000
v 0.0100223 0.0175000 0.0117533
vn 0.0000000 1.0000000 0.0000000
v 0.0100303 0.0175000 0.0782276
vn 0.0000000 1.0000000 0.0000000
v 0.0102218 0.0175000 0.0204886
vn 0.0000000 1.0000000 0.0000000
v 0.0033505 0.0175000 0.0249086
vn 0.0000000 1.0000000 0.0000000
v 0.0036025 0.0175000 0.0328870
vn 0.0000000 1.0000000 0.0000000
v -0.0041528 0.0175000 0.0290721
vn 0.0000000 1.0000000 0.0000000
v 0.0102287 0.0175000 0.0694846
vn 0.0000000 1.0000000 0.0000000
v 0.0033606 0.0175000 0.0650443
vn 0.0000000 1.0000000 0.0000000
v 0.0036120 0.0175000 0.0570639
vn 0.0000000 1.0000000 0.0000000
v -0.0041458 0.0175000 0.0608834
vn 0.0000000 1.0000000 0.0000000
v 0.0024972 0.0175000 0.0733076
vn 0.0000000 1.0000000 0.0000000
v 0.0024829 0.0175000 0.0166532
vn 0.0000000 1.0000000 0.0000000
v -0.0100962 0.0175000 0.0779378
vn 0.0000000 1.0000000 0.0000000
v -0.0101073 0.0175000 0.0120407
vn 0.0000000 1.0000000 0.0000000
v 0.0105380 0.0175000 0.0368534
vn 0.0000000 1.0000000 0.0000000
v 0.0036695 0.0175000 0.0409371
vn 0.0000000 1.0000000 0.0000000
v 0.0036750 0.0175000 0.0490179
vn 0.0000000 1.0000000 0.0000000
v -0.0040804 0.0175000 0.0449781
vn 0.0000000 1.0000000 0.0000000
v 0.0105461 0.0175000 0.0531159
vn 0.0000000 1.0000000 0.0000000
v -0.0064967 0.0175000 0.0056112
vn 0.0000000 1.0000000 0.0000000
v 0.0066569 0.0175000 0.0053847
vn 0.0000000 1.0000000 0.0000000
v -0.0064862 0.0175000 0.0843735
vn 0.0000000 1.0000000 0.0000000
v 0.0066647 0.0175000 0.0846022
vn 0.0000000 1.0000000 0.0000000
v -0.0044688 0.0175000 0.0734056
vn 0.0000000 1.0000000 0.0000000
v -0.0044829 0.0175000 0.0165560
vn 0.0000000 1.0000000 0.0000000
v -0.0117443 0.0175000 0.0610663
vn 0.0000000 1.0000000 0.0000000
v -0.0117474 0.0175000 0.0289108
vn 0.0000000 1.0000000 0.0000000
v -0.0021649 0.0175000 0.0530027
vn 0.0000000 1.0000000 0.0000000
v -0.0021704 0.0175000 0.0369510
vn 0.0000000 1.0000000 0.0000000
v -0.0117641 0.0175000 0.0449886
vn 0.0000000 1.0000000 0.0000000
v -0.0024936 0.0175000 0.0682581
vn 0.0000000 1.0000000 0.0000000
v -0.0025042 0.0175000 0.0216986
vn 0.0000000 1.0000000 0.0000000
v 0.0033485 0.0175000 0.0100532
vn 0.0000000 1.0000000 0.0000000
v 0.0033634 0.0175000 0.0799199
vn 0.0000000 1.0000000 0.0000000
v -0.0025259 0.0175000 0.0110530
vn 0.0000000 1.0000000 0.0000000
v -0.0025103 0.0175000 0.0789177
vn 0.0000000 1.0000000 0.0000000
v 0.0124369 0.0175000 0.0050673
vn 0.0000000 1.0000000 0.0000000
v 0.0124401 0.0175000 0.0849261
vn 0.0000000 1.0000000 0.0000000
v -0.0124197 0.0175000 0.0848241
vn 0.0000000 1.0000000 0.0000000
v -0.0124247 0.0175000 0.0051679
vn -1.0000000 0.0000000 0.0000000
v -0.0175000 0.0001490 0.0053662
vn -1.0000000 0.0000000 0.0000000
v -0.0175000 -0.0001715 0.0846258
vn -1.0000000 0.0000000 0.0000000
v -0.0175000 0.0104694 0.0285935
vn -1.0000000 0.0000000 0.0000000
v -0.0175000 0.0106069 0.0443451
vn -1.0000000 0.0000000 0.0000000
v -0.0175000 -0.0104504 0.0615303
vn -1.0000000 0.0000000 0.0000000
v -0.0175000 -0.0094299 0.0364886
vn -1.0000000 0.0000000 0.0000000
v -0.0175000 0.0092968 0.0688577
vn -1.0000000 0.0000000 0.0000000
v -0.0175000 -0.0096973 0.0212476
vn -1.0000000 0.0000000 0.0000000
v -0.0175000 0.0100226 0.0117472
vn -1.0000000 0.0000000 0.0000000
v -0.0175000 -0.0100422 0.0782572
vn -1.0000000 0.0000000 0.0000000
v -0.0175000 0.0102254 0.0204520
vn -1.0000000 0.0000000 0.0000000
v -0.0175000 0.0033753 0.0247758
vn -1.0000000 0.0000000 0.0000000
v -0.0175000 0.0037064 0.0324592
vn -1.0000000 0.0000000 0.0000000
v -0.0175000 -0.0040285 0.0287878
vn -1.0000000 0.0000000 0.0000000
v -0.0175000 -0.0102622 0.0696148
vn -1.0000000 0.0000000 0.0000000
v -0.0175000 -0.0035693 0.0656056
vn -1.0000000 0.0000000 0.0000000
v -0.0175000 -0.0035258 0.0580710
vn -1.0000000 0.0000000 0.0000000
v -0.0175000 0.0030485 0.0627174
vn -1.0000000 0.0000000 0.0000000
v -0.0175000 0.0034561 0.0551272
vn -1.0000000 0.0000000 0.0000000
v -0.0175000 -0.0033468 0.0503519
vn -1.0000000 0.0000000 0.0000000
v -0.0175000 -0.0025964 0.0734862
vn -1.0000000 0.0000000 0.0000000
v -0.0175000 0.0024879 0.0166184
vn -1.0000000 0.0000000 0.0000000
v -0.0175000 0.0100150 0.0779854
vn -1.0000000 0.0000000 0.0000000
v -0.0175000 -0.0101046 0.0120296
vn -1.0000000 0.0000000 0.0000000
v -0.0175000 0.0105994 0.0364986
vn -1.0000000 0.0000000 0.0000000
v -0.0175000 0.0039376 0.0399043
vn -1.0000000 0.0000000 0.0000000
v -0.0175000 -0.0102128 0.0454954
vn -1.0000000 0.0000000 0.0000000
v -0.0175000 -0.0104260 0.0536142
vn -1.0000000 0.0000000 0.0000000
v -0.0175000 -0.0064963 0.0056082
vn -1.0000000 0.0000000 0.0000000
v -0.0175000 0.0066569 0.0053830
vn -1.0000000 0.0000000 0.0000000
v -0.0175000 -0.0066694 0.0846115
vn -1.0000000 0.0000000 0.0000000
v -0.0175000 0.0064651 0.0843890
vn -1.0000000 0.0000000 0.0000000
v -0.0175000 -0.0044760 0.0165236
vn -1.0000000 0.0000000 0.0000000
v -0.0175000 0.0042918 0.0735751
vn -1.0000000 0.0000000 0.0000000
v -0.0175000 0.0102393 0.0602595
vn -1.0000000 0.0000000 0.0000000
v -0.0175000 -0.0116435 0.0287641
vn -1.0000000 0.0000000 0.0000000
v -0.0175000 0.0105064 0.0522410
vn -1.0000000 0.0000000 0.0000000
v -0.0175000 -0.0017889 0.0360588
vn -1.0000000 0.0000000 0.0000000
v -0.0175000 -0.0028881 0.0426137
vn -1.0000000 0.0000000 0.0000000
v -0.0175000 0.0021166 0.0688105
vn -1.0000000 0.0000000 0.0000000
v -0.0175000 0.0037043 0.0474204
vn -1.0000000 0.0000000 0.0000000
v -0.0175000 -0.0024743 0.0216008
vn -1.0000000 0.0000000 0.0000000
v -0.0175000 -0.0033915 0.0799667
vn -1.0000000 0.0000000 0.0000000
v -0.0175000 0.0033493 0.0100446
vn -1.0000000 0.0000000 0.0000000
v -0.0175000 0.0024495 0.0789855
vn -1.0000000 0.0000000 0.0000000
v -0.0175000 -0.0025240 0.0110403
vn -1.0000000 0.0000000 0.0000000
v -0.0175000 -0.0124425 0.0849321
vn -1.0000000 0.0000000 0.0000000
v -0.0175000 0.0124370 0.0050660
vn -1.0000000 0.0000000 0.0000000
v -0.0175000 -0.0124243 0.0051656
vn -1.0000000 0.0000000 0.0000000
v -0.0175000 0.0124017 0.0848347
vn 0.0000000 -1.0000000 0.0000000
v 0.0001737 -0.0175000 0.0053767
vn 0.0000000 -1.0000000 0.0000000
v 0.0001604 -0.0175000 0.0846421
vn 0.0000000 -1.0000000 0.0000000
v 0.0104385 -0.0175000 0.0286545
vn 0.0000000 -1.0000000 0.0000000
v -0.0100524 -0.0175000 0.0450175
vn 0.0000000 -1.0000000 0.0000000
v 0.0104297 -0.0175000 0.0613789
vn 0.0000000 -1.0000000 0.0000000
v -0.0093937 -0.0175000 0.0687615
vn 0.0000000 -1.0000000 0.0000000
v -0.0093819 -0.0175000 0.0212749
vn 0.0000000 -1.0000000 0.0000000
v 0.0104950 -0.0175000 0.0450135
vn 0.0000000 -1.0000000 0.0000000
v 0.0100451 -0.0175000 0.0117508
vn 0.0000000 -1.0000000 0.0000000
v 0.0100362 -0.0175000 0.0782701
vn 0.0000000 -1.0000000 0.0000000
v 0.0102602 -0.0175000 0.0204417
vn 0.0000000 -1.0000000 0.0000000
v 0.0035174 -0.0175000 0.0246269
vn 0.0000000 -1.0000000 0.0000000
v 0.0033626 -0.0175000 0.0326506
vn 0.0000000 -1.0000000 0.0000000
v -0.0033154 -0.0175000 0.0278453
vn 0.0000000 -1.0000000 0.0000000
v -0.0045054 -0.0175000 0.0369560
vn 0.0000000 -1.0000000 0.0000000
v 0.0025874 -0.0175000 0.0165760
vn 0.0000000 -1.0000000 0.0000000
v 0.0102514 -0.0175000 0.0695880
vn 0.0000000 -1.0000000 0.0000000
v 0.0035020 -0.0175000 0.0654265
vn 0.0000000 -1.0000000 0.0000000
v 0.0033495 -0.0175000 0.0574011
vn 0.0000000 -1.0000000 0.0000000
v -0.0033299 -0.0175000 0.0622081
vn 0.0000000 -1.0000000 0.0000000
v -0.0045142 -0.0175000 0.0530920
vn 0.0000000 -1.0000000 0.0000000
v 0.0034940 -0.0175000 0.0491135
vn 0.0000000 -1.0000000 0.0000000
v 0.0025699 -0.0175000 0.0734676
vn 0.0000000 -1.0000000 0.0000000
v -0.0100375 -0.0175000 0.0779842
vn 0.0000000 -1.0000000 0.0000000
v -0.0100248 -0.0175000 0.0120394
vn 0.0000000 -1.0000000 0.0000000
v 0.0034969 -0.0175000 0.0409317
vn 0.0000000 -1.0000000 0.0000000
v 0.0104632 -0.0175000 0.0532107
vn 0.0000000 -1.0000000 0.0000000
v 0.0104682 -0.0175000 0.0368169
vn 0.0000000 -1.0000000 0.0000000
v 0.0066715 -0.0175000 0.0053898
vn 0.0000000 -1.0000000 0.0000000
v -0.0064653 -0.0175000 0.0056171
vn 0.0000000 -1.0000000 0.0000000
v 0.0066633 -0.0175000 0.0846241
vn 0.0000000 -1.0000000 0.0000000
v -0.0064765 -0.0175000 0.0843992
vn 0.0000000 -1.0000000 0.0000000
v -0.0043144 -0.0175000 0.0164915
vn 0.0000000 -1.0000000 0.0000000
v -0.0043323 -0.0175000 0.0735518
vn 0.0000000 -1.0000000 0.0000000
v -0.0107044 -0.0175000 0.0300814
vn 0.0000000 -1.0000000 0.0000000
v -0.0107122 -0.0175000 0.0599491
vn 0.0000000 -1.0000000 0.0000000
v -0.0120467 -0.0175000 0.0371372
vn 0.0000000 -1.0000000 0.0000000
v -0.0024053 -0.0175000 0.0450237
vn 0.0000000 -1.0000000 0.0000000
v -0.0120508 -0.0175000 0.0528877
vn 0.0000000 -1.0000000 0.0000000
v -0.0021899 -0.0175000 0.0213806
vn 0.0000000 -1.0000000 0.0000000
v -0.0022059 -0.0175000 0.0686694
vn 0.0000000 -1.0000000 0.0000000
v 0.0033767 -0.0175000 0.0799818
vn 0.0000000 -1.0000000 0.0000000
v 0.0033929 -0.0175000 0.0100472
vn 0.0000000 -1.0000000 0.0000000
v -0.0024706 -0.0175000 0.0789929
vn 0.0000000 -1.0000000 0.0000000
v -0.0024532 -0.0175000 0.0110389
vn 0.0000000 -1.0000000 0.0000000
v 0.0124437 -0.0175000 0.0050690
vn 0.0000000 -1.0000000 0.0000000
v 0.0124403 -0.0175000 0.0849382
vn 0.0000000 -1.0000000 0.0000000
v -0.0124029 -0.0175000 0.0051705
vn 0.0000000 -1.0000000 0.0000000
v -0.0124084 -0.0175000 0.0848380
vn 0.0000000 0.0000000 1.0000000
v 0.0129174 0.0000593 0.0900000
vn 0.0000000 0.0000000 1.0000000
v -0.0119812 0.0000067 0.0900000
vn 0.0000000 0.0000000 1.0000000
v 0.0004645 -0.0116917 0.0900000
vn 0.0000000 0.0000000 1.0000000
v 0.0004408 0.0117697 0.0900000
vn 0.0000000 0.0000000 1.0000000
v -0.0121169 -0.0068203 0.0900000
vn 0.0000000 0.0000000 1.0000000
v -0.0064720 -0.0034153 0.0900000
vn 0.0000000 0.0000000 1.0000000
v -0.0064897 0.0034821 0.0900000
vn 0.0000000 0.0000000 1.0000000
v -0.0001639 0.0000735 0.0900000
vn 0.0000000 0.0000000 1.0000000
v 0.0070770 -0.0119518 0.0900000
vn 0.0000000 0.0000000 1.0000000
v -0.0066653 0.0108880 0.0900000
vn 0.0000000 0.0000000 1.0000000
v 0.0112526 0.0064591 0.0900000
vn 0.0000000 0.0000000 1.0000000
v -0.0121467 0.0068341 0.0900000
vn 0.0000000 0.0000000 1.0000000
v -0.0066496 -0.0108500 0.0900000
vn 0.0000000 0.0000000 1.0000000
v 0.0112697 -0.0063508 0.0900000
vn 0.0000000 0.0000000 1.0000000
v 0.0070607 0.0120354 0.0900000
vn 0.0000000 0.0000000 1.0000000
v 0.0040192 -0.0060229 0.0900000
vn 0.0000000 0.0000000 1.0000000
v 0.0040001 0.0061644 0.0900000
vn 0.0000000 0.0000000 1.0000000
v 0.0072059 0.0000765 0.0900000
vn 0.0000000 0.0000000 1.0000000
v -0.0128543 0.0126429 0.0900000
vn 0.0000000 0.0000000 1.0000000
v 0.0127549 0.0127978 0.0900000
vn 0.0000000 0.0000000 1.0000000
v -0.0128428 -0.0126342 0.0900000
vn 0.0000000 0.0000000 1.0000000
v 0.0127646 -0.0127543 0.0900000
vn 0.0000000 0.0000000 1.0000000
v -0.0017453 -0.0063799 0.0900000
vn 0.0000000 0.0000000 1.0000000
v -0.0017648 0.0064806 0.0900000
vn 0.0000000 0.0000000 -1.0000000
v -0.0129174 -0.0000593 0.0000000
vn 0.0000000 0.0000000 -1.0000000
v 0.0119812 -0.0000067 0.0000000
vn 0.0000000 0.0000000 -1.0000000
v -0.0004645 0.0116917 0.0000000
vn 0.0000000 0.0000000 -1.0000000
v -0.0004408 -0.0117697 0.0000000
vn 0.0000000 0.0000000 -1.0000000
v 0.0121169 0.0068203 0.0000000
vn 0.0000000 0.0000000 -1.0000000
v 0.0064720 0.0034153 0.0000000
vn 0.0000000 0.0000000 -1.0000000
v 0.0064897 -0.0034821 0.0000000
vn 0.0000000 0.0000000 -1.0000000
v 0.0001639 -0.0000735 0.0000000
vn 0.0000000 0.0000000 -1.0000000
v -0.0070770 0.0119518 0.0000000
vn 0.0000000 0.0000000 -1.0000000
v -0.0112526 -0.0064591 0.0000000
vn 0.0000000 0.0000000 -1.0000000
v 0.0066653 -0.0108880 0.0000000
vn 0.0000000 0.0000000 -1.0000000
v 0.0121467 -0.0068341 0.0000000
vn 0.0000000 0.0000000 -1.0000000
v 0.0066496 0.0108500 0.0000000
vn 0.0000000 0.0000000 -1.0000000
v -0.0070607 -0.0120354 0.0000000
vn 0.0000000 0.0000000 -1.0000000
v -0.0112697 0.0063508 0.0000000
vn 0.0000000 0.0000000 -1.0000000
v -0.0040192 0.0060229 0.0000000
vn 0.0000000 0.0000000 -1.0000000
v -0.0040001 -0.0061644 0.0000000
vn 0.0000000 0.0000000 -1.0000000
v -0.0072059 -0.0000765 0.0000000
vn 0.0000000 0.0000000 -1.0000000
v 0.0128428 0.0126342 0.0000000
vn 0.0000000 0.0000000 -1.0000000
v -0.0127646 0.0127543 0.0000000
vn 0.0000000 0.0000000 -1.0000000
v 0.0128543 -0.0126429 0.0000000
vn 0.0000000 0.0000000 -1.0000000
v -0.0127549 -0.0127978 0.0000000
vn 0.0000000 0.0000000 -1.0000000
v 0.0017453 0.0063799 0.0000000
vn 0.0000000 0.0000000 -1.0000000
v 0.0017648 -0.0064806 0.0000000
# 325 vertices, 0 vertices normals


usemtl material_0
vt 0.0009766 0.9990234
vt 0.0009766 0.9468021
vt 0.0531979 0.9990234
f 94/1/94 95/2/95 115/3/115
vt 0.0545790 0.9976424
vt 0.0023576 0.9454210
vt 0.0545790 0.9454210
f 115/4/115 95/5/95 117/6/117
vt 0.1087535 0.9990234
vt 0.0565321 0.9990234
vt 0.0565321 0.9468021
f 101/7/101 100/8/100 116/9/116
vt 0.1101345 0.9976424
vt 0.0579132 0.9454210
vt 0.1101345 0.9454210
f 101/10/101 84/11/84 118/12/118
vt 0.1120877 0.9468021
vt 0.1643090 0.9990234
vt 0.1120877 0.9990234
f 101/13/101 116/14/116 119/15/119
vt 0.1656901 0.9976424
vt 0.1134687 0.9454210
vt 0.1656901 0.9454210
f 84/16/84 101/17/101 119/18/119
vt 0.1676432 0.9468021
vt 0.2198646 0.9990234
vt 0.1676432 0.9990234
f 94/19/94 87/20/87 120/21/120
vt 0.2212457 0.9976424
vt 0.1690243 0.9454210
vt 0.2212457 0.9454210
f 87/22/87 94/23/94 115/24/115
vt 0.2231988 0.9468021
vt 0.2754202 0.9990234
vt 0.2231988 0.9990234
f 84/25/84 95/26/95 118/27/118
vt 0.2768012 0.9976424
vt 0.2245799 0.9454210
vt 0.2768012 0.9454210
f 95/28/95 84/29/84 117/30/117
vt 0.2787544 0.9468021
vt 0.3309757 0.9990234
vt 0.2787544 0.9990234
f 100/31/100 86/32/86 116/33/116
vt 0.3323568 0.9976424
vt 0.2801354 0.9454210
vt 0.3323568 0.9454210
f 86/34/86 100/35/100 121/36/121
vt 0.3343099 0.9990234
vt 0.3343099 0.9468021
vt 0.3865313 0.9990234
f 88/37/88 102/38/102 106/39/106
vt 0.3356910 0.9454210
vt 0.3879123 0.9454210
vt 0.3879123 0.9976424
f 89/40/89 91/41/91 96/42/96
vt 0.3898655 0.9990234
vt 0.3898655 0.9468021
vt 0.4420868 0.9990234
f 97/43/97 90/44/90 103/45/103
vt 0.4434679 0.9454210
vt 0.4434679 0.9976424
vt 0.3912465 0.9454210
f 123/46/123 96/47/96 125/48/125
vt 0.4454210 0.9468021
vt 0.4976424 0.9990234
vt 0.4454210 0.9990234
f 89/49/89 21/50/21 91/51/91
vt 0.4990234 0.9976424
vt 0.4468021 0.9454210
vt 0.4990234 0.9454210
f 28/52/28 86/53/86 104/54/104
vt 0.5531979 0.9990234
vt 0.5009766 0.9990234
vt 0.5009766 0.9468021
f 91/55/91 92/56/92 96/57/96
vt 0.5545790 0.9454210
vt 0.5545790 0.9976424
vt 0.5023576 0.9454210
f 98/58/98 97/59/97 103/60/103
vt 0.6087535 0.9990234
vt 0.5565321 0.9990234
vt 0.5565321 0.9468021
f 103/61/103 122/62/122 124/63/124
vt 0.6101346 0.9976424
vt 0.5579132 0.9454210
vt 0.6101346 0.9454210
f 87/64/87 35/65/35 105/66/105
vt 0.6120877 0.9990234
vt 0.6120877 0.9468021
vt 0.6643090 0.9990234
f 22/67/22 21/68/21 89/69/89
vt 0.6134687 0.9454210
vt 0.6656901 0.9454210
vt 0.6656901 0.9976424
f 14/70/14 13/71/13 90/72/90
vt 0.6676432 0.9468021
vt 0.7198646 0.9990234
vt 0.6676432 0.9990234
f 85/73/85 97/74/97 98/75/98
vt 0.7212457 0.9454210
vt 0.7212457 0.9976424
vt 0.6690243 0.9454210
f 102/76/102 88/77/88 107/78/107
vt 0.7231988 0.9990234
vt 0.7231988 0.9468021
vt 0.7754201 0.9990234
f 85/79/85 15/80/15 97/81/97
vt 0.7245798 0.9454210
vt 0.7768012 0.9454210
vt 0.7768012 0.9976424
f 96/82/96 113/83/113 125/84/125
vt 0.7787544 0.9990234
vt 0.7787544 0.9468021
vt 0.8309757 0.9990234
f 27/85/27 28/86/28 104/87/104
vt 0.8323568 0.9976424
vt 0.7801354 0.9454210
vt 0.8323568 0.9454210
f 14/88/14 90/89/90 97/90/97
vt 0.8865312 0.9990234
vt 0.8343099 0.9990234
vt 0.8343099 0.9468021
f 35/91/35 36/92/36 105/93/105
vt 0.8356909 0.9454210
vt 0.8879123 0.9454210
vt 0.8879123 0.9976424
f 28/94/28 29/95/29 86/96/86
vt 0.8898655 0.9990234
vt 0.8898655 0.9468021
vt 0.9420868 0.9990234
f 34/97/34 35/98/35 87/99/87
vt 0.9434679 0.9454210
vt 0.9434679 0.9976424
vt 0.8912465 0.9454210
f 21/100/21 20/101/20 91/102/91
vt 0.9976423 0.9990234
vt 0.9454210 0.9990234
vt 0.9454210 0.9468021
f 20/103/20 83/104/83 91/105/91
vt 0.9990234 0.9454210
vt 0.9990234 0.9976424
vt 0.9468020 0.9454210
f 114/106/114 103/107/103 124/108/124
vt 0.0009766 0.8912465
vt 0.0531979 0.9434679
vt 0.0009766 0.9434679
f 91/109/91 83/110/83 92/111/92
vt 0.0545790 0.9420868
vt 0.0023576 0.8898654
vt 0.0545790 0.8898654
f 17/112/17 16/113/16 107/114/107
vt 0.1087535 0.9434679
vt 0.0565321 0.9434679
vt 0.0565321 0.8912465
f 88/115/88 106/116/106 108/117/108
vt 0.1101345 0.9420868
vt 0.0579132 0.8898654
vt 0.1101345 0.8898654
f 99/118/99 102/119/102 107/120/107
vt 0.1643090 0.9434679
vt 0.1120877 0.9434679
vt 0.1120877 0.8912465
f 99/121/99 98/122/98 100/123/100
vt 0.1656901 0.8898654
vt 0.1656901 0.9420868
vt 0.1134687 0.8898654
f 85/124/85 99/125/99 107/126/107
vt 0.2198646 0.9434679
vt 0.1676432 0.9434679
vt 0.1676432 0.8912465
f 88/127/88 17/128/17 107/129/107
vt 0.2212457 0.9420868
vt 0.1690243 0.8898654
vt 0.2212457 0.8898654
f 16/130/16 85/131/85 107/132/107
vt 0.2231988 0.9434679
vt 0.2231988 0.8912465
vt 0.2754202 0.9434679
f 92/133/92 93/134/93 94/135/94
vt 0.2245799 0.8898654
vt 0.2768012 0.8898654
vt 0.2768012 0.9420868
f 15/136/15 14/137/14 97/138/97
vt 0.3309757 0.9434679
vt 0.2787544 0.9434679
vt 0.2787544 0.8912465
f 93/139/93 83/140/83 108/141/108
vt 0.2801354 0.8898654
vt 0.3323568 0.8898654
vt 0.3323568 0.9420868
f 85/142/85 98/143/98 99/144/99
vt 0.3343099 0.8912465
vt 0.3865313 0.9434679
vt 0.3343099 0.9434679
f 106/145/106 93/146/93 108/147/108
vt 0.3879123 0.9420868
vt 0.3356910 0.8898654
vt 0.3879123 0.8898654
f 20/148/20 19/149/19 83/150/83
vt 0.3898655 0.9434679
vt 0.3898655 0.8912465
vt 0.4420868 0.9434679
f 31/151/31 32/152/32 84/153/84
vt 0.4434679 0.9420868
vt 0.3912465 0.8898654
vt 0.4434679 0.8898654
f 16/154/16 15/155/15 85/156/85
vt 0.4454210 0.8912465
vt 0.4976424 0.9434679
vt 0.4454210 0.9434679
f 18/157/18 17/158/17 88/159/88
vt 0.4990234 0.8898654
vt 0.4990234 0.9420868
vt 0.4468021 0.8898654
f 18/160/18 88/161/88 108/162/108
vt 0.5531979 0.9434679
vt 0.5009766 0.9434679
vt 0.5009766 0.8912465
f 83/163/83 19/164/19 108/165/108
vt 0.5545790 0.8898654
vt 0.5545790 0.9420868
vt 0.5023576 0.8898654
f 92/166/92 83/167/83 93/168/93
vt 0.5565321 0.9434679
vt 0.5565321 0.8912465
vt 0.6087535 0.9434679
f 99/169/99 100/170/100 101/171/101
vt 0.5579132 0.8898654
vt 0.6101346 0.8898654
vt 0.6101346 0.9420868
f 94/172/94 93/173/93 95/174/95
vt 0.6120877 0.8912465
vt 0.6643090 0.9434679
vt 0.6120877 0.9434679
f 19/175/19 18/176/18 108/177/108
vt 0.6656901 0.9420868
vt 0.6134687 0.8898654
vt 0.6656901 0.8898654
f 99/178/99 101/179/101 102/180/102
vt 0.6676432 0.8912465
vt 0.7198646 0.9434679
vt 0.6676432 0.9434679
f 95/181/95 93/182/93 106/183/106
vt 0.7212457 0.9420868
vt 0.6690243 0.8898654
vt 0.7212457 0.8898654
f 102/184/102 101/185/101 118/186/118
vt 0.7231988 0.9434679
vt 0.7231988 0.8912465
vt 0.7754201 0.9434679
f 34/187/34 87/188/87 115/189/115
vt 0.7245798 0.8898654
vt 0.7768012 0.8898654
vt 0.7768012 0.9420868
f 86/190/86 29/191/29 116/192/116
vt 0.7787544 0.8912465
vt 0.8309757 0.9434679
vt 0.7787544 0.9434679
f 11/193/11 12/194/12 109/195/109
vt 0.8323568 0.9420868
vt 0.7801354 0.8898654
vt 0.8323568 0.8898654
f 26/196/26 25/197/25 111/198/111
vt 0.8343099 0.8912465
vt 0.8865312 0.9434679
vt 0.8343099 0.9434679
f 10/199/10 11/200/11 81/201/81
vt 0.8879123 0.9420868
vt 0.8356909 0.8898654
vt 0.8879123 0.8898654
f 25/202/25 24/203/24 82/204/82
vt 0.8898655 0.8912465
vt 0.9420868 0.9434679
vt 0.8898655 0.9434679
f 96/205/96 92/206/92 120/207/120
vt 0.9434679 0.9420868
vt 0.8912465 0.8898654
vt 0.9434679 0.8898654
f 9/208/9 10/209/10 110/210/110
vt 0.9454210 0.8912465
vt 0.9976423 0.9434679
vt 0.9454210 0.9434679
f 24/211/24 23/212/23 112/213/112
vt 0.9990234 0.9420868
vt 0.9468020 0.8898654
vt 0.9990234 0.8898654
f 95/214/95 106/215/106 118/216/118
vt 0.0009766 0.8356910
vt 0.0531979 0.8879123
vt 0.0009766 0.8879123
f 104/217/104 86/218/86 114/219/114
vt 0.0545790 0.8865313
vt 0.0023576 0.8343099
vt 0.0545790 0.8343099
f 87/220/87 105/221/105 113/222/113
vt 0.0565321 0.8356910
vt 0.1087535 0.8879123
vt 0.0565321 0.8879123
f 84/223/84 32/224/32 117/225/117
vt 0.1101345 0.8865313
vt 0.0579132 0.8343099
vt 0.1101345 0.8343099
f 31/226/31 84/227/84 119/228/119
vt 0.6101346 0.1690242
vt 0.6101346 0.2198646
vt 0.5847144 0.1944444
f 113/229/113 96/230/96 120/231/120
vt 0.1120877 0.8356910
vt 0.1643090 0.8879123
vt 0.1120877 0.8879123
f 106/232/106 102/233/102 118/234/118
vt 0.1656901 0.8865313
vt 0.1134687 0.8343099
vt 0.1656901 0.8343099
f 98/235/98 103/236/103 121/237/121
vt 0.6087535 0.1676432
vt 0.5833334 0.1930634
vt 0.5579132 0.1676432
f 81/238/81 11/239/11 109/240/109
vt 0.6375078 0.1944445
vt 0.6120877 0.2198646
vt 0.6120877 0.1690243
f 25/241/25 82/242/82 111/243/111
vt 0.1676432 0.8879123
vt 0.1676432 0.8356910
vt 0.2198646 0.8879123
f 10/244/10 81/245/81 110/246/110
vt 0.1690243 0.8343099
vt 0.2212457 0.8343099
vt 0.2212457 0.8865313
f 82/247/82 24/248/24 112/249/112
vt 0.2231988 0.8356910
vt 0.2754202 0.8879123
vt 0.2231988 0.8879123
f 13/250/13 3/251/3 127/252/127
vt 0.2768012 0.8865313
vt 0.2245799 0.8343099
vt 0.2768012 0.8343099
f 2/253/2 22/254/22 126/255/126
vt 0.2787544 0.8356910
vt 0.3309757 0.8879123
vt 0.2787544 0.8879123
f 36/256/36 1/257/1 128/258/128
vt 0.3323568 0.8865313
vt 0.2801354 0.8343099
vt 0.3323568 0.8343099
f 4/259/4 27/260/27 129/261/129
vt 0.3343099 0.8879123
vt 0.3343099 0.8356910
vt 0.3865313 0.8879123
f 33/262/33 34/263/34 115/264/115
vt 0.3879123 0.8865313
vt 0.3356910 0.8343099
vt 0.3879123 0.8343099
f 33/265/33 115/266/115 117/267/117
vt 0.4420868 0.8879123
vt 0.3898655 0.8879123
vt 0.3898655 0.8356910
f 29/268/29 30/269/30 116/270/116
vt 0.6643090 0.2212456
vt 0.6134687 0.2212456
vt 0.6388889 0.1958255
f 103/271/103 114/272/114 121/273/121
vt 0.4434679 0.8865313
vt 0.3912465 0.8343099
vt 0.4434679 0.8343099
f 116/274/116 30/275/30 119/276/119
vt 0.4454210 0.8356910
vt 0.4976424 0.8879123
vt 0.4454210 0.8879123
f 32/277/32 33/278/33 117/279/117
vt 0.4990234 0.8865313
vt 0.4468021 0.8343099
vt 0.4990234 0.8343099
f 30/280/30 31/281/31 119/282/119
vt 0.6402699 0.1944444
vt 0.6656901 0.1690242
vt 0.6656901 0.2198646
f 114/283/114 86/284/86 121/285/121
vt 0.6643090 0.1676432
vt 0.6388889 0.1930634
vt 0.6134687 0.1676432
f 87/286/87 113/287/113 120/288/120
vt 0.6930634 0.1944445
vt 0.6676432 0.2198646
vt 0.6676432 0.1690243
f 12/289/12 2/290/2 126/291/126
vt 0.6690243 0.2212456
vt 0.6944445 0.1958255
vt 0.7198646 0.2212456
f 3/292/3 26/293/26 127/294/127
vt 0.5531979 0.8879123
vt 0.5009766 0.8879123
vt 0.5009766 0.8356910
f 1/295/1 9/296/9 128/297/128
vt 0.5545790 0.8343099
vt 0.5545790 0.8865313
vt 0.5023576 0.8343099
f 23/298/23 4/299/4 129/300/129
vt 0.5565321 0.8356910
vt 0.6087535 0.8879123
vt 0.5565321 0.8879123
f 103/301/103 90/302/90 122/303/122
vt 0.6101346 0.8865313
vt 0.5579132 0.8343099
vt 0.6101346 0.8343099
f 90/304/90 13/305/13 127/306/127
vt 0.6120877 0.8356910
vt 0.6643090 0.8879123
vt 0.6120877 0.8879123
f 22/307/22 89/308/89 126/309/126
vt 0.6656901 0.8865313
vt 0.6134687 0.8343099
vt 0.6656901 0.8343099
f 105/310/105 36/311/36 128/312/128
vt 0.6676432 0.8356910
vt 0.7198646 0.8879123
vt 0.6676432 0.8879123
f 27/313/27 104/314/104 129/315/129
vt 0.7212457 0.8865313
vt 0.6690243 0.8343099
vt 0.7212457 0.8343099
f 89/316/89 96/317/96 123/318/123
vt 0.7231988 0.8356910
vt 0.7754201 0.8879123
vt 0.7231988 0.8879123
f 110/319/110 105/320/105 128/321/128
vt 0.7768012 0.8865313
vt 0.7245798 0.8343099
vt 0.7768012 0.8343099
f 111/322/111 90/323/90 127/324/127
vt 0.7787544 0.8356910
vt 0.8309757 0.8879123
vt 0.7787544 0.8879123
f 89/325/89 109/326/109 126/327/126
vt 0.8323568 0.8343099
vt 0.8323568 0.8865313
vt 0.7801354 0.8343099
f 113/328/113 105/329/105 125/330/125
vt 0.8343099 0.8356910
vt 0.8865312 0.8879123
vt 0.8343099 0.8879123
f 104/331/104 112/332/112 129/333/129
vt 0.8356909 0.8343099
vt 0.8879123 0.8343099
vt 0.8879123 0.8865313
f 104/334/104 114/335/114 124/336/124
vt 0.8898655 0.8356910
vt 0.9420868 0.8879123
vt 0.8898655 0.8879123
f 92/337/92 94/338/94 120/339/120
vt 0.8912465 0.8343099
vt 0.9434679 0.8343099
vt 0.9434679 0.8865313
f 105/340/105 110/341/110 125/342/125
vt 0.9454210 0.8356910
vt 0.9976423 0.8879123
vt 0.9454210 0.8879123
f 100/343/100 98/344/98 121/345/121
vt 0.9990234 0.8865313
vt 0.9468020 0.8343099
vt 0.9990234 0.8343099
f 90/346/90 111/347/111 122/348/122
vt 0.0009766 0.7801354
vt 0.0531979 0.8323568
vt 0.0009766 0.8323568
f 109/349/109 89/350/89 123/351/123
vt 0.0545790 0.7787543
vt 0.0545790 0.8309757
vt 0.0023576 0.7787543
f 112/352/112 104/353/104 124/354/124
vt 0.7212457 0.1690242
vt 0.7212457 0.2198646
vt 0.6958255 0.1944444
f 109/355/109 12/356/12 126/357/126
vt 0.6690243 0.1676432
vt 0.7198646 0.1676432
vt 0.6944445 0.1930634
f 26/358/26 111/359/111 127/360/127
vt 0.7231988 0.2198646
vt 0.7231988 0.1690243
vt 0.7486189 0.1944445
f 9/361/9 110/362/110 128/363/128
vt 0.7754201 0.2212456
vt 0.7245798 0.2212456
vt 0.7500000 0.1958255
f 112/364/112 23/365/23 129/366/129
vt 0.7768012 0.1690242
vt 0.7768012 0.2198646
vt 0.7513810 0.1944444
f 111/367/111 82/368/82 122/369/122
vt 0.7245798 0.1676432
vt 0.7754201 0.1676432
vt 0.7500000 0.1930634
f 81/370/81 109/371/109 123/372/123
vt 0.1087535 0.8323568
vt 0.0565321 0.8323568
vt 0.0565321 0.7801354
f 110/373/110 81/374/81 125/375/125
vt 0.1101345 0.7787543
vt 0.1101345 0.8309757
vt 0.0579132 0.7787543
f 82/376/82 112/377/112 124/378/124
vt 0.8041745 0.1944445
vt 0.7787544 0.2198646
vt 0.7787544 0.1690243
f 122/379/122 82/380/82 124/381/124
vt 0.7801354 0.2212456
vt 0.8055556 0.1958255
vt 0.8309757 0.2212456
f 81/382/81 123/383/123 125/384/125
vt 0.1120877 0.7801354
vt 0.1643090 0.8323568
vt 0.1120877 0.8323568
f 136/385/136 144/386/144 165/387/165
vt 0.1656901 0.8309757
vt 0.1134687 0.7787543
vt 0.1656901 0.7787543
f 144/388/144 136/389/136 167/390/167
vt 0.1676432 0.7801354
vt 0.2198646 0.8323568
vt 0.1676432 0.8323568
f 148/391/148 137/392/137 169/393/169
vt 0.2212457 0.8309757
vt 0.1690243 0.7787543
vt 0.2212457 0.7787543
f 137/394/137 148/395/148 164/396/164
vt 0.2231988 0.7801354
vt 0.2754202 0.8323568
vt 0.2231988 0.8323568
f 148/397/148 135/398/135 164/399/164
vt 0.2768012 0.8309757
vt 0.2245799 0.7787543
vt 0.2768012 0.7787543
f 135/400/135 148/401/148 166/402/166
vt 0.2787544 0.7801354
vt 0.3309757 0.8323568
vt 0.2787544 0.8323568
f 144/403/144 138/404/138 165/405/165
vt 0.3323568 0.8309757
vt 0.2801354 0.7787543
vt 0.3323568 0.7787543
f 138/406/138 144/407/144 170/408/170
vt 0.3343099 0.7801354
vt 0.3865313 0.8323568
vt 0.3343099 0.8323568
f 156/409/156 135/410/135 166/411/166
vt 0.3879123 0.8309757
vt 0.3356910 0.7787543
vt 0.3879123 0.7787543
f 135/412/135 156/413/156 168/414/168
vt 0.3898655 0.7801354
vt 0.4420868 0.8323568
vt 0.3898655 0.8323568
f 136/415/136 156/416/156 167/417/167
vt 0.4434679 0.8309757
vt 0.3912465 0.7787543
vt 0.4434679 0.7787543
f 156/418/156 136/419/136 168/420/168
vt 0.4976424 0.8323568
vt 0.4454210 0.8323568
vt 0.4454210 0.7801354
f 140/421/140 145/422/145 149/423/149
vt 0.4990234 0.7787543
vt 0.4990234 0.8309757
vt 0.4468021 0.7787543
f 141/424/141 139/425/139 150/426/150
vt 0.5009766 0.8323568
vt 0.5009766 0.7801354
vt 0.5531979 0.8323568
f 172/427/172 149/428/149 174/429/174
vt 0.5545790 0.8309757
vt 0.5023576 0.7787543
vt 0.5545790 0.7787543
f 140/430/140 14/431/14 145/432/145
vt 0.5565321 0.8323568
vt 0.5565321 0.7801354
vt 0.6087535 0.8323568
f 49/433/49 138/434/138 152/435/152
vt 0.6101346 0.7787543
vt 0.6101346 0.8309757
vt 0.5579132 0.7787543
f 133/436/133 154/437/154 155/438/155
vt 0.6643090 0.8323568
vt 0.6120877 0.8323568
vt 0.6120877 0.7801354
f 145/439/145 146/440/146 149/441/149
vt 0.6656901 0.7787543
vt 0.6656901 0.8309757
vt 0.6134687 0.7787543
f 142/442/142 141/443/141 150/444/150
vt 0.7198646 0.8323568
vt 0.6676432 0.8323568
vt 0.6676432 0.7801354
f 150/445/150 171/446/171 173/447/173
vt 0.6690243 0.7787543
vt 0.7212457 0.7787543
vt 0.7212457 0.8309757
f 137/448/137 42/449/42 151/450/151
vt 0.7231988 0.8323568
vt 0.7231988 0.7801354
vt 0.7754201 0.8323568
f 13/451/13 14/452/14 140/453/140
vt 0.7245798 0.7787543
vt 0.7768012 0.7787543
vt 0.7768012 0.8309757
f 21/454/21 22/455/22 139/456/139
vt 0.7787544 0.7801354
vt 0.8309757 0.8323568
vt 0.7787544 0.8323568
f 132/457/132 141/458/141 142/459/142
vt 0.8323568 0.8309757
vt 0.7801354 0.7787543
vt 0.8323568 0.7787543
f 155/460/155 147/461/147 157/462/157
vt 0.8343099 0.7801354
vt 0.8865312 0.8323568
vt 0.8343099 0.8323568
f 133/463/133 153/464/153 154/465/154
vt 0.8879123 0.7787543
vt 0.8879123 0.8309757
vt 0.8356909 0.7787543
f 132/466/132 20/467/20 141/468/141
vt 0.9420868 0.8323568
vt 0.8898655 0.8323568
vt 0.8898655 0.7801354
f 149/469/149 162/470/162 174/471/174
vt 0.9434679 0.7787543
vt 0.9434679 0.8309757
vt 0.8912465 0.7787543
f 50/472/50 49/473/49 152/474/152
vt 0.9454210 0.7801354
vt 0.9976423 0.8323568
vt 0.9454210 0.8323568
f 18/475/18 19/476/19 153/477/153
vt 0.9468020 0.7787543
vt 0.9990234 0.7787543
vt 0.9990234 0.8309757
f 133/478/133 155/479/155 157/480/157
vt 0.0009766 0.7245799
vt 0.0531979 0.7768012
vt 0.0009766 0.7768012
f 21/481/21 139/482/139 141/483/141
vt 0.0023576 0.7231988
vt 0.0545790 0.7231988
vt 0.0545790 0.7754202
f 42/484/42 41/485/41 151/486/151
vt 0.0565321 0.7768012
vt 0.0565321 0.7245799
vt 0.1087535 0.7768012
f 43/487/43 42/488/42 137/489/137
vt 0.0579132 0.7231988
vt 0.1101345 0.7231988
vt 0.1101345 0.7754202
f 49/490/49 48/491/48 138/492/138
vt 0.1643090 0.7768012
vt 0.1120877 0.7768012
vt 0.1120877 0.7245799
f 14/493/14 15/494/15 145/495/145
vt 0.1134687 0.7231988
vt 0.1656901 0.7231988
vt 0.1656901 0.7754202
f 15/496/15 134/497/134 145/498/145
vt 0.1676432 0.7768012
vt 0.1676432 0.7245799
vt 0.2198646 0.7768012
f 163/499/163 150/500/150 173/501/173
vt 0.1690243 0.7231988
vt 0.2212457 0.7231988
vt 0.2212457 0.7754202
f 133/502/133 18/503/18 153/504/153
vt 0.2231988 0.7245799
vt 0.2754202 0.7768012
vt 0.2231988 0.7768012
f 145/505/145 134/506/134 146/507/146
vt 0.2768012 0.7231988
vt 0.2768012 0.7754202
vt 0.2245799 0.7231988
f 19/508/19 132/509/132 153/510/153
vt 0.3309757 0.7768012
vt 0.2787544 0.7768012
vt 0.2787544 0.7245799
f 155/511/155 154/512/154 156/513/156
vt 0.3323568 0.7231988
vt 0.3323568 0.7754202
vt 0.2801354 0.7231988
f 20/514/20 21/515/21 141/516/141
vt 0.3865313 0.7768012
vt 0.3343099 0.7768012
vt 0.3343099 0.7245799
f 143/517/143 142/518/142 144/519/144
vt 0.3879123 0.7231988
vt 0.3879123 0.7754202
vt 0.3356910 0.7231988
f 17/520/17 133/521/133 157/522/157
vt 0.3898655 0.7768012
vt 0.3898655 0.7245799
vt 0.4420868 0.7768012
f 146/523/146 147/524/147 148/525/148
vt 0.4434679 0.7754202
vt 0.3912465 0.7231988
vt 0.4434679 0.7231988
f 16/526/16 17/527/17 157/528/157
vt 0.4454210 0.7768012
vt 0.4454210 0.7245799
vt 0.4976424 0.7768012
f 19/529/19 20/530/20 132/531/132
vt 0.4990234 0.7754202
vt 0.4468021 0.7231988
vt 0.4990234 0.7231988
f 17/532/17 18/533/18 133/534/133
vt 0.5009766 0.7768012
vt 0.5009766 0.7245799
vt 0.5531979 0.7768012
f 45/535/45 44/536/44 135/537/135
vt 0.5023576 0.7231988
vt 0.5545790 0.7231988
vt 0.5545790 0.7754202
f 15/538/15 16/539/16 134/540/134
vt 0.6087535 0.7768012
vt 0.5565321 0.7768012
vt 0.5565321 0.7245799
f 47/541/47 46/542/46 136/543/136
vt 0.5579132 0.7231988
vt 0.6101346 0.7231988
vt 0.6101346 0.7754202
f 134/544/134 16/545/16 157/546/157
vt 0.6120877 0.7768012
vt 0.6120877 0.7245799
vt 0.6643090 0.7768012
f 153/547/153 143/548/143 154/549/154
vt 0.6656901 0.7754202
vt 0.6134687 0.7231988
vt 0.6656901 0.7231988
f 132/550/132 142/551/142 143/552/143
vt 0.7198646 0.7768012
vt 0.6676432 0.7768012
vt 0.6676432 0.7245799
f 132/553/132 143/554/143 153/555/153
vt 0.7212457 0.7754202
vt 0.6690243 0.7231988
vt 0.7212457 0.7231988
f 146/556/146 134/557/134 147/558/147
vt 0.7231988 0.7768012
vt 0.7231988 0.7245799
vt 0.7754201 0.7768012
f 147/559/147 134/560/134 157/561/157
vt 0.7768012 0.7754202
vt 0.7245798 0.7231988
vt 0.7768012 0.7231988
f 156/562/156 154/563/154 167/564/167
vt 0.7787544 0.7245799
vt 0.8309757 0.7768012
vt 0.7787544 0.7768012
f 43/565/43 137/566/137 164/567/164
vt 0.8323568 0.7754202
vt 0.7801354 0.7231988
vt 0.8323568 0.7231988
f 138/568/138 48/569/48 165/570/165
vt 0.8343099 0.7245799
vt 0.8865312 0.7768012
vt 0.8343099 0.7768012
f 155/571/155 156/572/156 166/573/166
vt 0.8879123 0.7754202
vt 0.8356909 0.7231988
vt 0.8879123 0.7231988
f 52/574/52 51/575/51 161/576/161
vt 0.8898655 0.7245799
vt 0.9420868 0.7768012
vt 0.8898655 0.7768012
f 37/577/37 38/578/38 159/579/159
vt 0.9434679 0.7754202
vt 0.8912465 0.7231988
vt 0.9434679 0.7231988
f 38/580/38 39/581/39 130/582/130
vt 0.9454210 0.7245799
vt 0.9976423 0.7768012
vt 0.9454210 0.7768012
f 53/583/53 52/584/52 131/585/131
vt 0.9990234 0.7754202
vt 0.9468020 0.7231988
vt 0.9990234 0.7231988
f 149/586/149 146/587/146 169/588/169
vt 0.0009766 0.6690243
vt 0.0531979 0.7212456
vt 0.0009766 0.7212456
f 54/589/54 53/590/53 160/591/160
vt 0.0545790 0.7198646
vt 0.0023576 0.6676432
vt 0.0545790 0.6676432
f 39/592/39 40/593/40 158/594/158
vt 0.0565321 0.6690243
vt 0.1087535 0.7212456
vt 0.0565321 0.7212456
f 152/595/152 138/596/138 163/597/163
vt 0.1101345 0.7198646
vt 0.0579132 0.6676432
vt 0.1101345 0.6676432
f 135/598/135 44/599/44 164/600/164
vt 0.1120877 0.6690243
vt 0.1643090 0.7212456
vt 0.1120877 0.7212456
f 47/601/47 136/602/136 165/603/165
vt 0.1656901 0.7198646
vt 0.1134687 0.6676432
vt 0.1656901 0.6676432
f 137/604/137 151/605/151 162/606/162
vt 0.1676432 0.6690243
vt 0.2198646 0.7212456
vt 0.1676432 0.7212456
f 148/607/148 147/608/147 166/609/166
vt 0.2212457 0.7198646
vt 0.1690243 0.6676432
vt 0.2212457 0.6676432
f 45/610/45 135/611/135 168/612/168
vt 0.2231988 0.6690243
vt 0.2754202 0.7212456
vt 0.2231988 0.7212456
f 136/613/136 46/614/46 168/615/168
vt 0.2768012 0.7198646
vt 0.2245799 0.6676432
vt 0.2768012 0.6676432
f 143/616/143 144/617/144 167/618/167
vt 0.8069366 0.1944444
vt 0.8323568 0.1690242
vt 0.8323568 0.2198646
f 162/619/162 149/620/149 169/621/169
vt 0.2787544 0.6690243
vt 0.3309757 0.7212456
vt 0.2787544 0.7212456
f 142/622/142 150/623/150 170/624/170
vt 0.8055556 0.1930634
vt 0.7801354 0.1676432
vt 0.8309757 0.1676432
f 38/625/38 130/626/130 159/627/159
vt 0.8343099 0.1690243
vt 0.8597300 0.1944445
vt 0.8343099 0.2198646
f 131/628/131 52/629/52 161/630/161
vt 0.3323568 0.6676432
vt 0.3323568 0.7198646
vt 0.2801354 0.6676432
f 53/631/53 131/632/131 160/633/160
vt 0.3865313 0.7212456
vt 0.3343099 0.7212456
vt 0.3343099 0.6690243
f 130/634/130 39/635/39 158/636/158
vt 0.3879123 0.7198646
vt 0.3356910 0.6676432
vt 0.3879123 0.6676432
f 147/637/147 155/638/155 166/639/166
vt 0.3898655 0.6690243
vt 0.4420868 0.7212456
vt 0.3898655 0.7212456
f 22/640/22 2/641/2 175/642/175
vt 0.4434679 0.7198646
vt 0.3912465 0.6676432
vt 0.4434679 0.6676432
f 3/643/3 13/644/13 176/645/176
vt 0.4454210 0.6690243
vt 0.4976424 0.7212456
vt 0.4454210 0.7212456
f 41/646/41 6/647/6 177/648/177
vt 0.4990234 0.7198646
vt 0.4468021 0.6676432
vt 0.4990234 0.6676432
f 5/649/5 50/650/50 178/651/178
vt 0.5009766 0.6690243
vt 0.5531979 0.7212456
vt 0.5009766 0.7212456
f 44/652/44 43/653/43 164/654/164
vt 0.5545790 0.7198646
vt 0.5023576 0.6676432
vt 0.5545790 0.6676432
f 48/655/48 47/656/47 165/657/165
vt 0.8356909 0.2212456
vt 0.8611111 0.1958255
vt 0.8865312 0.2212456
f 150/658/150 163/659/163 170/660/170
vt 0.5565321 0.6690243
vt 0.6087535 0.7212456
vt 0.5565321 0.7212456
f 154/661/154 143/662/143 167/663/167
vt 0.6101346 0.7198646
vt 0.5579132 0.6676432
vt 0.6101346 0.6676432
f 46/664/46 45/665/45 168/666/168
vt 0.6120877 0.7212456
vt 0.6120877 0.6690243
vt 0.6643090 0.7212456
f 163/667/163 138/668/138 170/669/170
vt 0.6134687 0.6676432
vt 0.6656901 0.6676432
vt 0.6656901 0.7198646
f 137/670/137 162/671/162 169/672/169
vt 0.8879123 0.2198646
vt 0.8624921 0.1944444
vt 0.8879123 0.1690242
f 2/673/2 37/674/37 175/675/175
vt 0.8611111 0.1930634
vt 0.8356909 0.1676432
vt 0.8865312 0.1676432
f 51/676/51 3/677/3 176/678/176
vt 0.7198646 0.7212456
vt 0.6676432 0.7212456
vt 0.6676432 0.6690243
f 6/679/6 54/680/54 177/681/177
vt 0.7212457 0.6676432
vt 0.7212457 0.7198646
vt 0.6690243 0.6676432
f 40/682/40 5/683/5 178/684/178
vt 0.7231988 0.6690243
vt 0.7754201 0.7212456
vt 0.7231988 0.7212456
f 150/685/150 139/686/139 171/687/171
vt 0.7768012 0.7198646
vt 0.7245798 0.6676432
vt 0.7768012 0.6676432
f 13/688/13 140/689/140 176/690/176
vt 0.7787544 0.6690243
vt 0.8309757 0.7212456
vt 0.7787544 0.7212456
f 139/691/139 22/692/22 175/693/175
vt 0.8323568 0.7198646
vt 0.7801354 0.6676432
vt 0.8323568 0.6676432
f 151/694/151 41/695/41 177/696/177
vt 0.8343099 0.6690243
vt 0.8865312 0.7212456
vt 0.8343099 0.7212456
f 50/697/50 152/698/152 178/699/178
vt 0.8879123 0.7198646
vt 0.8356909 0.6676432
vt 0.8879123 0.6676432
f 140/700/140 149/701/149 172/702/172
vt 0.8898655 0.6690243
vt 0.9420868 0.7212456
vt 0.8898655 0.7212456
f 160/703/160 151/704/151 177/705/177
vt 0.9434679 0.7198646
vt 0.8912465 0.6676432
vt 0.9434679 0.6676432
f 140/706/140 161/707/161 176/708/176
vt 0.9454210 0.6690243
vt 0.9976423 0.7212456
vt 0.9454210 0.7212456
f 159/709/159 139/710/139 175/711/175
vt 0.9990234 0.6676432
vt 0.9990234 0.7198646
vt 0.9468020 0.6676432
f 162/712/162 151/713/151 174/714/174
vt 0.0009766 0.6134688
vt 0.0531979 0.6656901
vt 0.0009766 0.6656901
f 152/715/152 158/716/158 178/717/178
vt 0.0545790 0.6643090
vt 0.0023576 0.6120876
vt 0.0545790 0.6120876
f 146/718/146 148/719/148 169/720/169
vt 0.1087535 0.6656901
vt 0.0565321 0.6656901
vt 0.0565321 0.6134688
f 152/721/152 163/722/163 173/723/173
vt 0.0579132 0.6120876
vt 0.1101345 0.6120876
vt 0.1101345 0.6643090
f 151/724/151 160/725/160 174/726/174
vt 0.1120877 0.6134688
vt 0.1643090 0.6656901
vt 0.1120877 0.6656901
f 144/727/144 142/728/142 170/729/170
vt 0.1656901 0.6643090
vt 0.1134687 0.6120876
vt 0.1656901 0.6120876
f 139/730/139 159/731/159 171/732/171
vt 0.1676432 0.6134688
vt 0.2198646 0.6656901
vt 0.1676432 0.6656901
f 161/733/161 140/734/140 172/735/172
vt 0.2212457 0.6120876
vt 0.2212457 0.6643090
vt 0.1690243 0.6120876
f 158/736/158 152/737/152 173/738/173
vt 0.8898655 0.2198646
vt 0.8898655 0.1690243
vt 0.9152856 0.1944445
f 161/739/161 51/740/51 176/741/176
vt 0.9420868 0.2212456
vt 0.8912465 0.2212456
vt 0.9166667 0.1958255
f 37/742/37 159/743/159 175/744/175
vt 0.9434679 0.1690242
vt 0.9434679 0.2198646
vt 0.9180477 0.1944444
f 54/745/54 160/746/160 177/747/177
vt 0.8912465 0.1676432
vt 0.9420868 0.1676432
vt 0.9166667 0.1930634
f 158/748/158 40/749/40 178/750/178
vt 0.9454210 0.2198646
vt 0.9454210 0.1690243
vt 0.9708411 0.1944445
f 159/751/159 130/752/130 171/753/171
vt 0.9976423 0.2212456
vt 0.9468020 0.2212456
vt 0.9722222 0.1958255
f 131/754/131 161/755/161 172/756/172
vt 0.2754202 0.6656901
vt 0.2231988 0.6656901
vt 0.2231988 0.6134688
f 160/757/160 131/758/131 174/759/174
vt 0.2768012 0.6120876
vt 0.2768012 0.6643090
vt 0.2245799 0.6120876
f 130/760/130 158/761/158 173/762/173
vt 0.9736032 0.1944444
vt 0.9990234 0.1690242
vt 0.9990234 0.2198646
f 171/763/171 130/764/130 173/765/173
vt 0.9976423 0.1676432
vt 0.9722222 0.1930634
vt 0.9468020 0.1676432
f 131/766/131 172/767/172 174/768/174
vt 0.3309757 0.6656901
vt 0.2787544 0.6656901
vt 0.2787544 0.6134688
f 197/769/197 196/770/196 213/771/213
vt 0.3323568 0.6643090
vt 0.2801354 0.6120876
vt 0.3323568 0.6120876
f 197/772/197 213/773/213 215/774/215
vt 0.3343099 0.6134688
vt 0.3865313 0.6656901
vt 0.3343099 0.6656901
f 184/775/184 192/776/192 214/777/214
vt 0.3879123 0.6643090
vt 0.3356910 0.6120876
vt 0.3879123 0.6120876
f 192/778/192 184/779/184 216/780/216
vt 0.3898655 0.6134688
vt 0.4420868 0.6656901
vt 0.3898655 0.6656901
f 185/781/185 196/782/196 218/783/218
vt 0.4434679 0.6643090
vt 0.3912465 0.6120876
vt 0.4434679 0.6120876
f 196/784/196 185/785/185 213/786/213
vt 0.4454210 0.6134688
vt 0.4976424 0.6656901
vt 0.4454210 0.6656901
f 192/787/192 186/788/186 214/789/214
vt 0.4990234 0.6643090
vt 0.4468021 0.6120876
vt 0.4990234 0.6120876
f 186/790/186 192/791/192 220/792/220
vt 0.5531979 0.6656901
vt 0.5009766 0.6656901
vt 0.5009766 0.6134688
f 217/793/217 198/794/198 219/795/219
vt 0.5545790 0.6120876
vt 0.5545790 0.6643090
vt 0.5023576 0.6120876
f 193/796/193 188/797/188 199/798/199
vt 0.5565321 0.6656901
vt 0.5565321 0.6134688
vt 0.6087535 0.6656901
f 204/799/204 217/800/217 219/801/219
vt 0.6101346 0.6120876
vt 0.6101346 0.6643090
vt 0.5579132 0.6120876
f 189/802/189 187/803/187 200/804/200
vt 0.6120877 0.6134688
vt 0.6643090 0.6656901
vt 0.6120877 0.6656901
f 60/805/60 188/806/188 193/807/193
vt 0.6656901 0.6643090
vt 0.6134687 0.6120876
vt 0.6656901 0.6120876
f 42/808/42 185/809/185 201/810/201
vt 0.6676432 0.6656901
vt 0.6676432 0.6134688
vt 0.7198646 0.6656901
f 67/811/67 186/812/186 202/813/202
vt 0.6690243 0.6120876
vt 0.7212457 0.6120876
vt 0.7212457 0.6643090
f 199/814/199 221/815/221 223/816/223
vt 0.7231988 0.6656901
vt 0.7231988 0.6134688
vt 0.7754201 0.6656901
f 190/817/190 189/818/189 200/819/200
vt 0.7245798 0.6120876
vt 0.7768012 0.6120876
vt 0.7768012 0.6643090
f 200/820/200 222/821/222 224/822/224
vt 0.7787544 0.6656901
vt 0.7787544 0.6134688
vt 0.8309757 0.6656901
f 194/823/194 193/824/193 199/825/199
vt 0.7801354 0.6120876
vt 0.8323568 0.6120876
vt 0.8323568 0.6643090
f 49/826/49 50/827/50 187/828/187
vt 0.8865312 0.6656901
vt 0.8343099 0.6656901
vt 0.8343099 0.6134688
f 60/829/60 59/830/59 188/831/188
vt 0.8879123 0.6643090
vt 0.8356909 0.6120876
vt 0.8879123 0.6120876
f 181/832/181 189/833/189 190/834/190
vt 0.9420868 0.6656901
vt 0.8898655 0.6656901
vt 0.8898655 0.6134688
f 182/835/182 203/836/203 204/837/204
vt 0.9434679 0.6120876
vt 0.9434679 0.6643090
vt 0.8912465 0.6120876
f 181/838/181 48/839/48 189/840/189
vt 0.9454210 0.6656901
vt 0.9454210 0.6134688
vt 0.9976423 0.6656901
f 41/841/41 42/842/42 201/843/201
vt 0.9990234 0.6120876
vt 0.9990234 0.6643090
vt 0.9468020 0.6120876
f 68/844/68 67/845/67 202/846/202
vt 0.0531979 0.6101345
vt 0.0009766 0.6101345
vt 0.0009766 0.5579132
f 46/847/46 47/848/47 203/849/203
vt 0.0545790 0.6087535
vt 0.0023576 0.5565321
vt 0.0545790 0.5565321
f 49/850/49 187/851/187 189/852/189
vt 0.1087535 0.6101345
vt 0.0565321 0.6101345
vt 0.0565321 0.5579132
f 42/853/42 43/854/43 185/855/185
vt 0.0579132 0.5565321
vt 0.1101345 0.5565321
vt 0.1101345 0.6087535
f 67/856/67 66/857/66 186/858/186
vt 0.1120877 0.6101345
vt 0.1120877 0.5579132
vt 0.1643090 0.6101345
f 212/859/212 199/860/199 223/861/223
vt 0.1134687 0.5565321
vt 0.1656901 0.5565321
vt 0.1656901 0.6087535
f 61/862/61 60/863/60 193/864/193
vt 0.1676432 0.6101345
vt 0.1676432 0.5579132
vt 0.2198646 0.6101345
f 183/865/183 61/866/61 193/867/193
vt 0.2212457 0.5565321
vt 0.2212457 0.6087535
vt 0.1690243 0.5565321
f 211/868/211 200/869/200 224/870/224
vt 0.2231988 0.6101345
vt 0.2231988 0.5579132
vt 0.2754202 0.6101345
f 182/871/182 46/872/46 203/873/203
vt 0.2768012 0.6087535
vt 0.2245799 0.5565321
vt 0.2768012 0.5565321
f 183/874/183 193/875/193 194/876/194
vt 0.2787544 0.5579132
vt 0.3309757 0.6101345
vt 0.2787544 0.6101345
f 47/877/47 181/878/181 203/879/203
vt 0.2801354 0.5565321
vt 0.3323568 0.5565321
vt 0.3323568 0.6087535
f 215/880/215 182/881/182 219/882/219
vt 0.3865313 0.6101345
vt 0.3343099 0.6101345
vt 0.3343099 0.5579132
f 48/883/48 49/884/49 189/885/189
vt 0.3879123 0.6087535
vt 0.3356910 0.5565321
vt 0.3879123 0.5565321
f 198/886/198 205/887/205 206/888/206
vt 0.4420868 0.6101345
vt 0.3898655 0.6101345
vt 0.3898655 0.5579132
f 191/889/191 190/890/190 192/891/192
vt 0.3912465 0.5565321
vt 0.4434679 0.5565321
vt 0.4434679 0.6087535
f 195/892/195 194/893/194 196/894/196
vt 0.4976424 0.6101345
vt 0.4454210 0.6101345
vt 0.4454210 0.5579132
f 195/895/195 198/896/198 206/897/206
vt 0.4468021 0.5565321
vt 0.4990234 0.5565321
vt 0.4990234 0.6087535
f 64/898/64 63/899/63 205/900/205
vt 0.5009766 0.5579132
vt 0.5531979 0.6101345
vt 0.5009766 0.6101345
f 184/901/184 64/902/64 205/903/205
vt 0.5545790 0.6087535
vt 0.5023576 0.5565321
vt 0.5545790 0.5565321
f 47/904/47 48/905/48 181/906/181
vt 0.6087535 0.6101345
vt 0.5565321 0.6101345
vt 0.5565321 0.5579132
f 45/907/45 46/908/46 182/909/182
vt 0.5579132 0.5565321
vt 0.6101346 0.5565321
vt 0.6101346 0.6087535
f 62/910/62 61/911/61 183/912/183
vt 0.6120877 0.6101345
vt 0.6120877 0.5579132
vt 0.6643090 0.6101345
f 65/913/65 64/914/64 184/915/184
vt 0.6656901 0.5565321
vt 0.6656901 0.6087535
vt 0.6134687 0.5565321
f 205/916/205 63/917/63 206/918/206
vt 0.6676432 0.6101345
vt 0.6676432 0.5579132
vt 0.7198646 0.6101345
f 183/919/183 195/920/195 206/921/206
vt 0.7212457 0.6087535
vt 0.6690243 0.5565321
vt 0.7212457 0.5565321
f 203/922/203 191/923/191 204/924/204
vt 0.7231988 0.5579132
vt 0.7754201 0.6101345
vt 0.7231988 0.6101345
f 62/925/62 183/926/183 206/927/206
vt 0.7768012 0.6087535
vt 0.7245798 0.5565321
vt 0.7768012 0.5565321
f 181/928/181 190/929/190 191/930/191
vt 0.8309757 0.6101345
vt 0.7787544 0.6101345
vt 0.7787544 0.5579132
f 63/931/63 62/932/62 206/933/206
vt 0.8323568 0.6087535
vt 0.7801354 0.5565321
vt 0.8323568 0.5565321
f 195/934/195 196/935/196 197/936/197
vt 0.8343099 0.6101345
vt 0.8343099 0.5579132
vt 0.8865312 0.6101345
f 195/937/195 197/938/197 198/939/198
vt 0.8879123 0.6087535
vt 0.8356909 0.5565321
vt 0.8879123 0.5565321
f 183/940/183 194/941/194 195/942/195
vt 0.8898655 0.6101345
vt 0.8898655 0.5579132
vt 0.9420868 0.6101345
f 181/943/181 191/944/191 203/945/203
vt 0.9434679 0.5565321
vt 0.9434679 0.6087535
vt 0.8912465 0.5565321
f 197/946/197 215/947/215 219/948/219
vt 0.9454210 0.6101345
vt 0.9454210 0.5579132
vt 0.9976423 0.6101345
f 185/949/185 43/950/43 213/951/213
vt 0.9990234 0.6087535
vt 0.9468020 0.5565321
vt 0.9990234 0.5565321
f 186/952/186 66/953/66 214/954/214
vt 0.0009766 0.5023576
vt 0.0531979 0.5545790
vt 0.0009766 0.5545790
f 72/955/72 71/956/71 209/957/209
vt 0.0545790 0.5531980
vt 0.0023576 0.5009766
vt 0.0545790 0.5009766
f 55/958/55 56/959/56 208/960/208
vt 0.0565321 0.5023576
vt 0.1087535 0.5545790
vt 0.0565321 0.5545790
f 56/961/56 57/962/57 179/963/179
vt 0.1101345 0.5531980
vt 0.0579132 0.5009766
vt 0.1101345 0.5009766
f 71/964/71 70/965/70 180/966/180
vt 0.1120877 0.5023576
vt 0.1643090 0.5545790
vt 0.1120877 0.5545790
f 57/967/57 58/968/58 207/969/207
vt 0.1656901 0.5531980
vt 0.1134687 0.5009766
vt 0.1656901 0.5009766
f 70/970/70 69/971/69 210/972/210
vt 0.1676432 0.5023576
vt 0.2198646 0.5545790
vt 0.1676432 0.5545790
f 202/973/202 186/974/186 211/975/211
vt 0.2212457 0.5531980
vt 0.1690243 0.5009766
vt 0.2212457 0.5009766
f 65/976/65 184/977/184 214/978/214
vt 0.2231988 0.5023576
vt 0.2754202 0.5545790
vt 0.2231988 0.5545790
f 45/979/45 182/980/182 215/981/215
vt 0.2768012 0.5531980
vt 0.2245799 0.5009766
vt 0.2768012 0.5009766
f 201/982/201 185/983/185 212/984/212
vt 0.2787544 0.5023576
vt 0.3309757 0.5545790
vt 0.2787544 0.5545790
f 191/985/191 192/986/192 216/987/216
vt 0.3323568 0.5531980
vt 0.2801354 0.5009766
vt 0.3323568 0.5009766
f 194/988/194 199/989/199 218/990/218
vt 0.3343099 0.5023576
vt 0.3865313 0.5545790
vt 0.3343099 0.5545790
f 190/991/190 200/992/200 220/993/220
vt 0.0263967 0.1388890
vt 0.0009766 0.1643091
vt 0.0009766 0.1134688
f 56/994/56 179/995/179 208/996/208
vt 0.0277778 0.1402700
vt 0.0531979 0.1656901
vt 0.0023576 0.1656901
f 71/997/71 180/998/180 209/999/209
vt 0.3356910 0.5009766
vt 0.3879123 0.5009766
vt 0.3879123 0.5531980
f 179/1000/179 57/1001/57 207/1002/207
vt 0.4420868 0.5545790
vt 0.3898655 0.5545790
vt 0.3898655 0.5023576
f 180/1003/180 70/1004/70 210/1005/210
vt 0.4434679 0.5531980
vt 0.3912465 0.5009766
vt 0.4434679 0.5009766
f 184/1006/184 205/1007/205 217/1008/217
vt 0.4454210 0.5023576
vt 0.4976424 0.5545790
vt 0.4454210 0.5545790
f 50/1009/50 5/1010/5 226/1011/226
vt 0.4990234 0.5531980
vt 0.4468021 0.5009766
vt 0.4990234 0.5009766
f 59/1012/59 8/1013/8 225/1014/225
vt 0.5009766 0.5023576
vt 0.5531979 0.5545790
vt 0.5009766 0.5545790
f 6/1015/6 41/1016/41 228/1017/228
vt 0.5545790 0.5531980
vt 0.5023576 0.5009766
vt 0.5545790 0.5009766
f 7/1018/7 68/1019/68 227/1020/227
vt 0.0545790 0.1134687
vt 0.0545790 0.1643091
vt 0.0291588 0.1388889
f 199/1021/199 212/1022/212 218/1023/218
vt 0.6087535 0.5545790
vt 0.5565321 0.5545790
vt 0.5565321 0.5023576
f 43/1024/43 44/1025/44 213/1026/213
vt 0.6101346 0.5009766
vt 0.6101346 0.5531980
vt 0.5579132 0.5009766
f 213/1027/213 44/1028/44 215/1029/215
vt 0.6120877 0.5023576
vt 0.6643090 0.5545790
vt 0.6120877 0.5545790
f 66/1030/66 65/1031/65 214/1032/214
vt 0.0531979 0.1120877
vt 0.0277778 0.1375079
vt 0.0023576 0.1120877
f 200/1033/200 211/1034/211 220/1035/220
vt 0.6134687 0.5009766
vt 0.6656901 0.5009766
vt 0.6656901 0.5531980
f 44/1036/44 45/1037/45 215/1038/215
vt 0.6676432 0.5023576
vt 0.7198646 0.5545790
vt 0.6676432 0.5545790
f 204/1039/204 191/1040/191 216/1041/216
vt 0.7212457 0.5009766
vt 0.7212457 0.5531980
vt 0.6690243 0.5009766
f 211/1042/211 186/1043/186 220/1044/220
vt 0.7231988 0.5023576
vt 0.7754201 0.5545790
vt 0.7231988 0.5545790
f 198/1045/198 197/1046/197 219/1047/219
vt 0.7768012 0.5009766
vt 0.7768012 0.5531980
vt 0.7245798 0.5009766
f 216/1048/216 184/1049/184 217/1050/217
vt 0.0819523 0.1388890
vt 0.0565321 0.1643091
vt 0.0565321 0.1134688
f 212/1051/212 185/1052/185 218/1053/218
vt 0.7787544 0.5023576
vt 0.8309757 0.5545790
vt 0.7787544 0.5545790
f 199/1054/199 188/1055/188 221/1056/221
vt 0.0579132 0.1656901
vt 0.0833333 0.1402700
vt 0.1087535 0.1656901
f 5/1057/5 55/1058/55 226/1059/226
vt 0.1101345 0.1643091
vt 0.0847144 0.1388889
vt 0.1101345 0.1134687
f 8/1060/8 72/1061/72 225/1062/225
vt 0.8323568 0.5009766
vt 0.8323568 0.5531980
vt 0.7801354 0.5009766
f 58/1063/58 7/1064/7 227/1065/227
vt 0.8343099 0.5545790
vt 0.8343099 0.5023576
vt 0.8865312 0.5545790
f 69/1066/69 6/1067/6 228/1068/228
vt 0.8879123 0.5531980
vt 0.8356909 0.5009766
vt 0.8879123 0.5009766
f 200/1069/200 187/1070/187 222/1071/222
vt 0.8898655 0.5023576
vt 0.9420868 0.5545790
vt 0.8898655 0.5545790
f 188/1072/188 59/1073/59 225/1074/225
vt 0.9434679 0.5531980
vt 0.8912465 0.5009766
vt 0.9434679 0.5009766
f 187/1075/187 50/1076/50 226/1077/226
vt 0.9454210 0.5023576
vt 0.9976423 0.5545790
vt 0.9454210 0.5545790
f 41/1078/41 201/1079/201 228/1080/228
vt 0.9990234 0.5531980
vt 0.9468020 0.5009766
vt 0.9990234 0.5009766
f 68/1081/68 202/1082/202 227/1083/227
vt 0.0009766 0.4468021
vt 0.0531979 0.4990234
vt 0.0009766 0.4990234
f 182/1084/182 204/1085/204 219/1086/219
vt 0.0545790 0.4976424
vt 0.0023576 0.4454210
vt 0.0545790 0.4454210
f 209/1087/209 188/1088/188 225/1089/225
vt 0.0565321 0.4468021
vt 0.1087535 0.4990234
vt 0.0565321 0.4990234
f 208/1090/208 187/1091/187 226/1092/226
vt 0.0579132 0.4454210
vt 0.1101345 0.4454210
vt 0.1101345 0.4976424
f 204/1093/204 216/1094/216 217/1095/217
vt 0.1120877 0.4468021
vt 0.1643090 0.4990234
vt 0.1120877 0.4990234
f 201/1096/201 210/1097/210 228/1098/228
vt 0.1656901 0.4976424
vt 0.1134687 0.4454210
vt 0.1656901 0.4454210
f 202/1099/202 207/1100/207 227/1101/227
vt 0.1676432 0.4468021
vt 0.2198646 0.4990234
vt 0.1676432 0.4990234
f 205/1102/205 198/1103/198 217/1104/217
vt 0.2212457 0.4976424
vt 0.1690243 0.4454210
vt 0.2212457 0.4454210
f 196/1105/196 194/1106/194 218/1107/218
vt 0.2754202 0.4990234
vt 0.2231988 0.4990234
vt 0.2231988 0.4468021
f 202/1108/202 211/1109/211 224/1110/224
vt 0.2768012 0.4976424
vt 0.2245799 0.4454210
vt 0.2768012 0.4454210
f 192/1111/192 190/1112/190 220/1113/220
vt 0.3309757 0.4990234
vt 0.2787544 0.4990234
vt 0.2787544 0.4468021
f 201/1114/201 212/1115/212 223/1116/223
vt 0.3323568 0.4976424
vt 0.2801354 0.4454210
vt 0.3323568 0.4454210
f 188/1117/188 209/1118/209 221/1119/221
vt 0.3343099 0.4468021
vt 0.3865313 0.4990234
vt 0.3343099 0.4990234
f 187/1120/187 208/1121/208 222/1122/222
vt 0.3879123 0.4454210
vt 0.3879123 0.4976424
vt 0.3356910 0.4454210
f 210/1123/210 201/1124/201 223/1125/223
vt 0.3898655 0.4990234
vt 0.3898655 0.4468021
vt 0.4420868 0.4990234
f 207/1126/207 202/1127/202 224/1128/224
vt 0.0579132 0.1120877
vt 0.1087535 0.1120877
vt 0.0833333 0.1375079
f 72/1129/72 209/1130/209 225/1131/225
vt 0.1120877 0.1643091
vt 0.1120877 0.1134688
vt 0.1375078 0.1388890
f 55/1132/55 208/1133/208 226/1134/226
vt 0.1643090 0.1656901
vt 0.1134687 0.1656901
vt 0.1388889 0.1402700
f 207/1135/207 58/1136/58 227/1137/227
vt 0.1656901 0.1134687
vt 0.1656901 0.1643091
vt 0.1402700 0.1388889
f 210/1138/210 69/1139/69 228/1140/228
vt 0.1134687 0.1120877
vt 0.1643090 0.1120877
vt 0.1388889 0.1375079
f 209/1141/209 180/1142/180 221/1143/221
vt 0.1676432 0.1643091
vt 0.1676432 0.1134688
vt 0.1930634 0.1388890
f 208/1144/208 179/1145/179 222/1146/222
vt 0.4434679 0.4454210
vt 0.4434679 0.4976424
vt 0.3912465 0.4454210
f 180/1147/180 210/1148/210 223/1149/223
vt 0.4454210 0.4990234
vt 0.4454210 0.4468021
vt 0.4976424 0.4990234
f 179/1150/179 207/1151/207 224/1152/224
vt 0.1944444 0.1402700
vt 0.2198646 0.1656901
vt 0.1690243 0.1656901
f 221/1153/221 180/1154/180 223/1155/223
vt 0.1958255 0.1388889
vt 0.2212457 0.1134687
vt 0.2212457 0.1643091
f 222/1156/222 179/1157/179 224/1158/224
vt 0.4990234 0.4454210
vt 0.4990234 0.4976424
vt 0.4468021 0.4454210
f 242/1159/242 243/1160/243 263/1161/263
vt 0.5009766 0.4468021
vt 0.5531979 0.4990234
vt 0.5009766 0.4990234
f 263/1162/263 243/1163/243 265/1164/265
vt 0.5023576 0.4454210
vt 0.5545790 0.4454210
vt 0.5545790 0.4976424
f 249/1165/249 248/1166/248 264/1167/264
vt 0.5565321 0.4468021
vt 0.6087535 0.4990234
vt 0.5565321 0.4990234
f 249/1168/249 232/1169/232 266/1170/266
vt 0.6101346 0.4976424
vt 0.5579132 0.4454210
vt 0.6101346 0.4454210
f 249/1171/249 264/1172/264 267/1173/267
vt 0.6120877 0.4468021
vt 0.6643090 0.4990234
vt 0.6120877 0.4990234
f 232/1174/232 249/1175/249 267/1176/267
vt 0.6656901 0.4976424
vt 0.6134687 0.4454210
vt 0.6656901 0.4454210
f 242/1177/242 235/1178/235 268/1179/268
vt 0.6676432 0.4468021
vt 0.7198646 0.4990234
vt 0.6676432 0.4990234
f 235/1180/235 242/1181/242 263/1182/263
vt 0.7212457 0.4976424
vt 0.6690243 0.4454210
vt 0.7212457 0.4454210
f 232/1183/232 243/1184/243 266/1185/266
vt 0.7231988 0.4468021
vt 0.7754201 0.4990234
vt 0.7231988 0.4990234
f 243/1186/243 232/1187/232 265/1188/265
vt 0.7768012 0.4976424
vt 0.7245798 0.4454210
vt 0.7768012 0.4454210
f 248/1189/248 234/1190/234 264/1191/264
vt 0.7787544 0.4468021
vt 0.8309757 0.4990234
vt 0.7787544 0.4990234
f 234/1192/234 248/1193/248 269/1194/269
vt 0.8323568 0.4454210
vt 0.8323568 0.4976424
vt 0.7801354 0.4454210
f 236/1195/236 250/1196/250 254/1197/254
vt 0.8865312 0.4990234
vt 0.8343099 0.4990234
vt 0.8343099 0.4468021
f 237/1198/237 239/1199/239 244/1200/244
vt 0.8879123 0.4454210
vt 0.8879123 0.4976424
vt 0.8356909 0.4454210
f 245/1201/245 238/1202/238 251/1203/251
vt 0.8898655 0.4990234
vt 0.8898655 0.4468021
vt 0.9420868 0.4990234
f 271/1204/271 244/1205/244 273/1206/273
vt 0.9434679 0.4976424
vt 0.8912465 0.4454210
vt 0.9434679 0.4454210
f 237/1207/237 35/1208/35 239/1209/239
vt 0.9454210 0.4468021
vt 0.9976423 0.4990234
vt 0.9454210 0.4990234
f 60/1210/60 234/1211/234 252/1212/252
vt 0.9468020 0.4454210
vt 0.9990234 0.4454210
vt 0.9990234 0.4976424
f 239/1213/239 240/1214/240 244/1215/244
vt 0.0009766 0.4434679
vt 0.0009766 0.3912465
vt 0.0531979 0.4434679
f 246/1216/246 245/1217/245 251/1218/251
vt 0.0023576 0.3898654
vt 0.0545790 0.3898654
vt 0.0545790 0.4420868
f 251/1219/251 270/1220/270 272/1221/272
vt 0.0565321 0.3912465
vt 0.1087535 0.4434679
vt 0.0565321 0.4434679
f 235/1222/235 67/1223/67 253/1224/253
vt 0.1101345 0.3898654
vt 0.1101345 0.4420868
vt 0.0579132 0.3898654
f 36/1225/36 35/1226/35 237/1227/237
vt 0.1643090 0.4434679
vt 0.1120877 0.4434679
vt 0.1120877 0.3912465
f 28/1228/28 27/1229/27 238/1230/238
vt 0.1656901 0.4420868
vt 0.1134687 0.3898654
vt 0.1656901 0.3898654
f 233/1231/233 245/1232/245 246/1233/246
vt 0.1676432 0.4434679
vt 0.1676432 0.3912465
vt 0.2198646 0.4434679
f 250/1234/250 236/1235/236 255/1236/255
vt 0.2212457 0.3898654
vt 0.2212457 0.4420868
vt 0.1690243 0.3898654
f 233/1237/233 29/1238/29 245/1239/245
vt 0.2754202 0.4434679
vt 0.2231988 0.4434679
vt 0.2231988 0.3912465
f 244/1240/244 261/1241/261 273/1242/273
vt 0.2768012 0.3898654
vt 0.2768012 0.4420868
vt 0.2245799 0.3898654
f 59/1243/59 60/1244/60 252/1245/252
vt 0.2787544 0.3912465
vt 0.3309757 0.4434679
vt 0.2787544 0.4434679
f 28/1246/28 238/1247/238 245/1248/245
vt 0.2801354 0.3898654
vt 0.3323568 0.3898654
vt 0.3323568 0.4420868
f 67/1249/67 68/1250/68 253/1251/253
vt 0.3865313 0.4434679
vt 0.3343099 0.4434679
vt 0.3343099 0.3912465
f 60/1252/60 61/1253/61 234/1254/234
vt 0.3879123 0.3898654
vt 0.3879123 0.4420868
vt 0.3356910 0.3898654
f 66/1255/66 67/1256/67 235/1257/235
vt 0.3898655 0.4434679
vt 0.3898655 0.3912465
vt 0.4420868 0.4434679
f 35/1258/35 34/1259/34 239/1260/239
vt 0.3912465 0.3898654
vt 0.4434679 0.3898654
vt 0.4434679 0.4420868
f 34/1261/34 231/1262/231 239/1263/239
vt 0.4454210 0.4434679
vt 0.4454210 0.3912465
vt 0.4976424 0.4434679
f 262/1264/262 251/1265/251 272/1266/272
vt 0.4990234 0.4420868
vt 0.4468021 0.3898654
vt 0.4990234 0.3898654
f 239/1267/239 231/1268/231 240/1269/240
vt 0.5009766 0.3912465
vt 0.5531979 0.4434679
vt 0.5009766 0.4434679
f 31/1270/31 30/1271/30 255/1272/255
vt 0.5023576 0.3898654
vt 0.5545790 0.3898654
vt 0.5545790 0.4420868
f 236/1273/236 254/1274/254 256/1275/256
vt 0.5565321 0.3912465
vt 0.6087535 0.4434679
vt 0.5565321 0.4434679
f 247/1276/247 250/1277/250 255/1278/255
vt 0.5579132 0.3898654
vt 0.6101346 0.3898654
vt 0.6101346 0.4420868
f 247/1279/247 246/1280/246 248/1281/248
vt 0.6120877 0.4434679
vt 0.6120877 0.3912465
vt 0.6643090 0.4434679
f 233/1282/233 247/1283/247 255/1284/255
vt 0.6134687 0.3898654
vt 0.6656901 0.3898654
vt 0.6656901 0.4420868
f 236/1285/236 31/1286/31 255/1287/255
vt 0.6676432 0.3912465
vt 0.7198646 0.4434679
vt 0.6676432 0.4434679
f 30/1288/30 233/1289/233 255/1290/255
vt 0.7212457 0.3898654
vt 0.7212457 0.4420868
vt 0.6690243 0.3898654
f 240/1291/240 241/1292/241 242/1293/242
vt 0.7754201 0.4434679
vt 0.7231988 0.4434679
vt 0.7231988 0.3912465
f 29/1294/29 28/1295/28 245/1296/245
vt 0.7245798 0.3898654
vt 0.7768012 0.3898654
vt 0.7768012 0.4420868
f 241/1297/241 231/1298/231 256/1299/256
vt 0.8309757 0.4434679
vt 0.7787544 0.4434679
vt 0.7787544 0.3912465
f 233/1300/233 246/1301/246 247/1302/247
vt 0.8323568 0.4420868
vt 0.7801354 0.3898654
vt 0.8323568 0.3898654
f 254/1303/254 241/1304/241 256/1305/256
vt 0.8343099 0.3912465
vt 0.8865312 0.4434679
vt 0.8343099 0.4434679
f 34/1306/34 33/1307/33 231/1308/231
vt 0.8879123 0.3898654
vt 0.8879123 0.4420868
vt 0.8356909 0.3898654
f 63/1309/63 64/1310/64 232/1311/232
vt 0.8898655 0.3912465
vt 0.9420868 0.4434679
vt 0.8898655 0.4434679
f 30/1312/30 29/1313/29 233/1314/233
vt 0.9434679 0.4420868
vt 0.8912465 0.3898654
vt 0.9434679 0.3898654
f 32/1315/32 31/1316/31 236/1317/236
vt 0.9454210 0.4434679
vt 0.9454210 0.3912465
vt 0.9976423 0.4434679
f 32/1318/32 236/1319/236 256/1320/256
vt 0.9468020 0.3898654
vt 0.9990234 0.3898654
vt 0.9990234 0.4420868
f 231/1321/231 33/1322/33 256/1323/256
vt 0.0009766 0.3879123
vt 0.0009766 0.3356910
vt 0.0531979 0.3879123
f 240/1324/240 231/1325/231 241/1326/241
vt 0.0545790 0.3343099
vt 0.0545790 0.3865313
vt 0.0023576 0.3343099
f 247/1327/247 248/1328/248 249/1329/249
vt 0.1087535 0.3879123
vt 0.0565321 0.3879123
vt 0.0565321 0.3356910
f 242/1330/242 241/1331/241 243/1332/243
vt 0.1101345 0.3865313
vt 0.0579132 0.3343099
vt 0.1101345 0.3343099
f 33/1333/33 32/1334/32 256/1335/256
vt 0.1120877 0.3356910
vt 0.1643090 0.3879123
vt 0.1120877 0.3879123
f 247/1336/247 249/1337/249 250/1338/250
vt 0.1656901 0.3865313
vt 0.1134687 0.3343099
vt 0.1656901 0.3343099
f 243/1339/243 241/1340/241 254/1341/254
vt 0.1676432 0.3356910
vt 0.2198646 0.3879123
vt 0.1676432 0.3879123
f 250/1342/250 249/1343/249 266/1344/266
vt 0.2212457 0.3343099
vt 0.2212457 0.3865313
vt 0.1690243 0.3343099
f 66/1345/66 235/1346/235 263/1347/263
vt 0.2754202 0.3879123
vt 0.2231988 0.3879123
vt 0.2231988 0.3356910
f 234/1348/234 61/1349/61 264/1350/264
vt 0.2768012 0.3865313
vt 0.2245799 0.3343099
vt 0.2768012 0.3343099
f 80/1351/80 79/1352/79 259/1353/259
vt 0.2787544 0.3356910
vt 0.3309757 0.3879123
vt 0.2787544 0.3879123
f 75/1354/75 76/1355/76 257/1356/257
vt 0.3323568 0.3865313
vt 0.2801354 0.3343099
vt 0.3323568 0.3343099
f 74/1357/74 75/1358/75 229/1359/229
vt 0.3343099 0.3356910
vt 0.3865313 0.3879123
vt 0.3343099 0.3879123
f 79/1360/79 78/1361/78 230/1362/230
vt 0.3879123 0.3865313
vt 0.3356910 0.3343099
vt 0.3879123 0.3343099
f 244/1363/244 240/1364/240 268/1365/268
vt 0.3898655 0.3356910
vt 0.4420868 0.3879123
vt 0.3898655 0.3879123
f 73/1366/73 74/1367/74 258/1368/258
vt 0.4434679 0.3865313
vt 0.3912465 0.3343099
vt 0.4434679 0.3343099
f 78/1369/78 77/1370/77 260/1371/260
vt 0.4454210 0.3356910
vt 0.4976424 0.3879123
vt 0.4454210 0.3879123
f 243/1372/243 254/1373/254 266/1374/266
vt 0.4990234 0.3865313
vt 0.4468021 0.3343099
vt 0.4990234 0.3343099
f 252/1375/252 234/1376/234 262/1377/262
vt 0.5009766 0.3356910
vt 0.5531979 0.3879123
vt 0.5009766 0.3879123
f 235/1378/235 253/1379/253 261/1380/261
vt 0.5545790 0.3865313
vt 0.5023576 0.3343099
vt 0.5545790 0.3343099
f 232/1381/232 64/1382/64 265/1383/265
vt 0.5565321 0.3356910
vt 0.6087535 0.3879123
vt 0.5565321 0.3879123
f 63/1384/63 232/1385/232 267/1386/267
vt 0.1690243 0.1120877
vt 0.2198646 0.1120877
vt 0.1944444 0.1375079
f 261/1387/261 244/1388/244 268/1389/268
vt 0.6101346 0.3865313
vt 0.5579132 0.3343099
vt 0.6101346 0.3343099
f 254/1390/254 250/1391/250 266/1392/266
vt 0.6120877 0.3356910
vt 0.6643090 0.3879123
vt 0.6120877 0.3879123
f 246/1393/246 251/1394/251 269/1395/269
vt 0.2231988 0.1134688
vt 0.2486189 0.1388890
vt 0.2231988 0.1643091
f 229/1396/229 75/1397/75 257/1398/257
vt 0.2500000 0.1402700
vt 0.2754202 0.1656901
vt 0.2245799 0.1656901
f 79/1399/79 230/1400/230 259/1401/259
vt 0.6656901 0.3343099
vt 0.6656901 0.3865313
vt 0.6134687 0.3343099
f 74/1402/74 229/1403/229 258/1404/258
vt 0.7198646 0.3879123
vt 0.6676432 0.3879123
vt 0.6676432 0.3356910
f 230/1405/230 78/1406/78 260/1407/260
vt 0.7212457 0.3865313
vt 0.6690243 0.3343099
vt 0.7212457 0.3343099
f 1/1408/1 36/1409/36 274/1410/274
vt 0.7231988 0.3356910
vt 0.7754201 0.3879123
vt 0.7231988 0.3879123
f 27/1411/27 4/1412/4 275/1413/275
vt 0.7768012 0.3865313
vt 0.7245798 0.3343099
vt 0.7768012 0.3343099
f 68/1414/68 7/1415/7 276/1416/276
vt 0.7787544 0.3356910
vt 0.8309757 0.3879123
vt 0.7787544 0.3879123
f 8/1417/8 59/1418/59 277/1419/277
vt 0.8323568 0.3343099
vt 0.8323568 0.3865313
vt 0.7801354 0.3343099
f 65/1420/65 66/1421/66 263/1422/263
vt 0.8343099 0.3356910
vt 0.8865312 0.3879123
vt 0.8343099 0.3879123
f 65/1423/65 263/1424/263 265/1425/265
vt 0.8356909 0.3343099
vt 0.8879123 0.3343099
vt 0.8879123 0.3865313
f 61/1426/61 62/1427/62 264/1428/264
vt 0.2768012 0.1134687
vt 0.2768012 0.1643091
vt 0.2513811 0.1388889
f 251/1429/251 262/1430/262 269/1431/269
vt 0.8898655 0.3356910
vt 0.9420868 0.3879123
vt 0.8898655 0.3879123
f 264/1432/264 62/1433/62 267/1434/267
vt 0.9434679 0.3865313
vt 0.8912465 0.3343099
vt 0.9434679 0.3343099
f 64/1435/64 65/1436/65 265/1437/265
vt 0.9454210 0.3356910
vt 0.9976423 0.3879123
vt 0.9454210 0.3879123
f 62/1438/62 63/1439/63 267/1440/267
vt 0.2500000 0.1375079
vt 0.2245799 0.1120877
vt 0.2754202 0.1120877
f 262/1441/262 234/1442/234 269/1443/269
vt 0.2787544 0.1134688
vt 0.3041745 0.1388890
vt 0.2787544 0.1643091
f 235/1444/235 261/1445/261 268/1446/268
vt 0.3055556 0.1402700
vt 0.3309757 0.1656901
vt 0.2801354 0.1656901
f 76/1447/76 1/1448/1 274/1449/274
vt 0.3323568 0.1643091
vt 0.3069366 0.1388889
vt 0.3323568 0.1134687
f 4/1450/4 80/1451/80 275/1452/275
vt 0.9468020 0.3343099
vt 0.9990234 0.3343099
vt 0.9990234 0.3865313
f 7/1453/7 73/1454/73 276/1455/276
vt 0.0009766 0.3323568
vt 0.0009766 0.2801354
vt 0.0531979 0.3323568
f 77/1456/77 8/1457/8 277/1458/277
vt 0.0545790 0.3309757
vt 0.0023576 0.2787543
vt 0.0545790 0.2787543
f 251/1459/251 238/1460/238 270/1461/270
vt 0.0565321 0.2801354
vt 0.1087535 0.3323568
vt 0.0565321 0.3323568
f 238/1462/238 27/1463/27 275/1464/275
vt 0.1101345 0.3309757
vt 0.0579132 0.2787543
vt 0.1101345 0.2787543
f 36/1465/36 237/1466/237 274/1467/274
vt 0.1120877 0.2801354
vt 0.1643090 0.3323568
vt 0.1120877 0.3323568
f 253/1468/253 68/1469/68 276/1470/276
vt 0.1656901 0.3309757
vt 0.1134687 0.2787543
vt 0.1656901 0.2787543
f 59/1471/59 252/1472/252 277/1473/277
vt 0.1676432 0.2801354
vt 0.2198646 0.3323568
vt 0.1676432 0.3323568
f 237/1474/237 244/1475/244 271/1476/271
vt 0.2212457 0.3309757
vt 0.1690243 0.2787543
vt 0.2212457 0.2787543
f 258/1477/258 253/1478/253 276/1479/276
vt 0.2231988 0.2801354
vt 0.2754202 0.3323568
vt 0.2231988 0.3323568
f 259/1480/259 238/1481/238 275/1482/275
vt 0.2768012 0.3309757
vt 0.2245799 0.2787543
vt 0.2768012 0.2787543
f 237/1483/237 257/1484/257 274/1485/274
vt 0.2787544 0.3323568
vt 0.2787544 0.2801354
vt 0.3309757 0.3323568
f 261/1486/261 253/1487/253 273/1488/273
vt 0.3323568 0.3309757
vt 0.2801354 0.2787543
vt 0.3323568 0.2787543
f 252/1489/252 260/1490/260 277/1491/277
vt 0.3865313 0.3323568
vt 0.3343099 0.3323568
vt 0.3343099 0.2801354
f 252/1492/252 262/1493/262 272/1494/272
vt 0.3879123 0.3309757
vt 0.3356910 0.2787543
vt 0.3879123 0.2787543
f 240/1495/240 242/1496/242 268/1497/268
vt 0.4420868 0.3323568
vt 0.3898655 0.3323568
vt 0.3898655 0.2801354
f 253/1498/253 258/1499/258 273/1500/273
vt 0.4434679 0.3309757
vt 0.3912465 0.2787543
vt 0.4434679 0.2787543
f 248/1501/248 246/1502/246 269/1503/269
vt 0.4454210 0.2801354
vt 0.4976424 0.3323568
vt 0.4454210 0.3323568
f 238/1504/238 259/1505/259 270/1506/270
vt 0.4990234 0.3309757
vt 0.4468021 0.2787543
vt 0.4990234 0.2787543
f 257/1507/257 237/1508/237 271/1509/271
vt 0.5009766 0.3323568
vt 0.5009766 0.2801354
vt 0.5531979 0.3323568
f 260/1510/260 252/1511/252 272/1512/272
vt 0.2801354 0.1120877
vt 0.3309757 0.1120877
vt 0.3055556 0.1375079
f 257/1513/257 76/1514/76 274/1515/274
vt 0.3343099 0.1643091
vt 0.3343099 0.1134688
vt 0.3597301 0.1388890
f 80/1516/80 259/1517/259 275/1518/275
vt 0.3865313 0.1656901
vt 0.3356910 0.1656901
vt 0.3611111 0.1402700
f 73/1519/73 258/1520/258 276/1521/276
vt 0.3879123 0.1134687
vt 0.3879123 0.1643091
vt 0.3624922 0.1388889
f 260/1522/260 77/1523/77 277/1524/277
vt 0.3356910 0.1120877
vt 0.3865313 0.1120877
vt 0.3611111 0.1375079
f 259/1525/259 230/1526/230 270/1527/270
vt 0.3898655 0.1643091
vt 0.3898655 0.1134688
vt 0.4152856 0.1388890
f 229/1528/229 257/1529/257 271/1530/271
vt 0.5023576 0.2787543
vt 0.5545790 0.2787543
vt 0.5545790 0.3309757
f 258/1531/258 229/1532/229 273/1533/273
vt 0.5565321 0.3323568
vt 0.5565321 0.2801354
vt 0.6087535 0.3323568
f 230/1534/230 260/1535/260 272/1536/272
vt 0.4166667 0.1402700
vt 0.4420868 0.1656901
vt 0.3912465 0.1656901
f 270/1537/270 230/1538/230 272/1539/272
vt 0.4434679 0.1643091
vt 0.4180477 0.1388889
vt 0.4434679 0.1134687
f 229/1540/229 271/1541/271 273/1542/273
vt 0.6101346 0.3309757
vt 0.5579132 0.2787543
vt 0.6101346 0.2787543
f 291/1543/291 295/1544/295 293/1545/293
vt 0.6120877 0.3323568
vt 0.6120877 0.2801354
vt 0.6643090 0.3323568
f 278/1546/278 295/1547/295 291/1548/291
vt 0.6656901 0.2787543
vt 0.6656901 0.3309757
vt 0.6134687 0.2787543
f 282/1549/282 290/1550/290 283/1551/283
vt 0.6676432 0.3323568
vt 0.6676432 0.2801354
vt 0.7198646 0.3323568
f 294/1552/294 295/1553/295 288/1554/288
vt 0.6690243 0.2787543
vt 0.7212457 0.2787543
vt 0.7212457 0.3309757
f 287/1555/287 289/1556/289 284/1557/284
vt 0.7231988 0.2801354
vt 0.7754201 0.3323568
vt 0.7231988 0.3323568
f 291/1558/291 293/1559/293 286/1560/286
vt 0.7768012 0.2787543
vt 0.7768012 0.3309757
vt 0.7245798 0.2787543
f 292/1561/292 294/1562/294 288/1563/288
vt 0.4420868 0.1120877
vt 0.4166667 0.1375079
vt 0.3912465 0.1120877
f 290/1564/290 300/1565/300 283/1566/283
vt 0.4454210 0.1134688
vt 0.4708412 0.1388890
vt 0.4454210 0.1643091
f 284/1567/284 301/1568/301 287/1569/287
vt 0.7787544 0.2801354
vt 0.8309757 0.3323568
vt 0.7787544 0.3323568
f 288/1570/288 295/1571/295 278/1572/278
vt 0.7801354 0.2787543
vt 0.8323568 0.2787543
vt 0.8323568 0.3309757
f 72/1573/72 282/1574/282 71/1575/71
vt 0.8343099 0.2801354
vt 0.8865312 0.3323568
vt 0.8343099 0.3323568
f 26/1576/26 288/1577/288 25/1578/25
vt 0.8879123 0.3309757
vt 0.8356909 0.2787543
vt 0.8879123 0.2787543
f 54/1579/54 287/1580/287 53/1581/53
vt 0.9420868 0.3323568
vt 0.8898655 0.3323568
vt 0.8898655 0.2801354
f 80/1582/80 286/1583/286 79/1584/79
vt 0.8912465 0.2787543
vt 0.9434679 0.2787543
vt 0.9434679 0.3309757
f 282/1585/282 283/1586/283 279/1587/279
vt 0.9976423 0.3323568
vt 0.9454210 0.3323568
vt 0.9454210 0.2801354
f 71/1588/71 279/1589/279 70/1590/70
vt 0.9990234 0.2787543
vt 0.9990234 0.3309757
vt 0.9468020 0.2787543
f 71/1591/71 282/1592/282 279/1593/279
vt 0.0009766 0.2768012
vt 0.0009766 0.2245799
vt 0.0531979 0.2768012
f 79/1594/79 280/1595/280 78/1596/78
vt 0.0545790 0.2754202
vt 0.0023576 0.2231988
vt 0.0545790 0.2231988
f 283/1597/283 284/1598/284 279/1599/279
vt 0.4468021 0.1656901
vt 0.4722222 0.1402700
vt 0.4976424 0.1656901
f 25/1600/25 278/1601/278 24/1602/24
vt 0.1087535 0.2768012
vt 0.0565321 0.2768012
vt 0.0565321 0.2245799
f 53/1603/53 281/1604/281 52/1605/52
vt 0.1101345 0.2754202
vt 0.0579132 0.2231988
vt 0.1101345 0.2231988
f 53/1606/53 287/1607/287 281/1608/281
vt 0.1120877 0.2768012
vt 0.1120877 0.2245799
vt 0.1643090 0.2768012
f 79/1609/79 286/1610/286 280/1611/280
vt 0.4990234 0.1134687
vt 0.4990234 0.1643091
vt 0.4736033 0.1388889
f 25/1612/25 288/1613/288 278/1614/278
vt 0.1656901 0.2754202
vt 0.1134687 0.2231988
vt 0.1656901 0.2231988
f 283/1615/283 285/1616/285 284/1617/284
vt 0.2198646 0.2768012
vt 0.1676432 0.2768012
vt 0.1676432 0.2245799
f 70/1618/70 289/1619/289 69/1620/69
vt 0.2212457 0.2231988
vt 0.2212457 0.2754202
vt 0.1690243 0.2231988
f 78/1621/78 290/1622/290 77/1623/77
vt 0.2231988 0.2768012
vt 0.2231988 0.2245799
vt 0.2754202 0.2768012
f 24/1624/24 291/1625/291 23/1626/23
vt 0.2245799 0.2231988
vt 0.2768012 0.2231988
vt 0.2768012 0.2754202
f 52/1627/52 292/1628/292 51/1629/51
vt 0.2787544 0.2768012
vt 0.2787544 0.2245799
vt 0.3309757 0.2768012
f 284/1630/284 289/1631/289 279/1632/279
vt 0.3323568 0.2754202
vt 0.2801354 0.2231988
vt 0.3323568 0.2231988
f 279/1633/279 289/1634/289 70/1635/70
vt 0.3343099 0.2768012
vt 0.3343099 0.2245799
vt 0.3865313 0.2768012
f 280/1636/280 290/1637/290 78/1638/78
vt 0.4722222 0.1375079
vt 0.4468021 0.1120877
vt 0.4976424 0.1120877
f 278/1639/278 291/1640/291 24/1641/24
vt 0.3879123 0.2754202
vt 0.3356910 0.2231988
vt 0.3879123 0.2231988
f 281/1642/281 292/1643/292 52/1644/52
vt 0.3898655 0.2768012
vt 0.3898655 0.2245799
vt 0.4420868 0.2768012
f 286/1645/286 293/1646/293 280/1647/280
vt 0.5009766 0.1134688
vt 0.5263967 0.1388890
vt 0.5009766 0.1643091
f 3/1648/3 297/1649/297 26/1650/26
vt 0.5023576 0.1656901
vt 0.5277778 0.1402700
vt 0.5531979 0.1656901
f 4/1651/4 299/1652/299 80/1653/80
vt 0.5545790 0.1643091
vt 0.5291588 0.1388889
vt 0.5545790 0.1134687
f 6/1654/6 296/1655/296 54/1656/54
vt 0.5531979 0.1120877
vt 0.5277778 0.1375079
vt 0.5023576 0.1120877
f 8/1657/8 298/1658/298 72/1659/72
vt 0.5565321 0.1134688
vt 0.5819523 0.1388890
vt 0.5565321 0.1643091
f 23/1660/23 299/1661/299 4/1662/4
vt 0.5579132 0.1656901
vt 0.5833334 0.1402700
vt 0.6087535 0.1656901
f 77/1663/77 298/1664/298 8/1665/8
vt 0.6101346 0.1643091
vt 0.5847144 0.1388889
vt 0.6101346 0.1134687
f 51/1666/51 297/1667/297 3/1668/3
vt 0.6087535 0.1120877
vt 0.5833334 0.1375079
vt 0.5579132 0.1120877
f 69/1669/69 296/1670/296 6/1671/6
vt 0.3912465 0.2231988
vt 0.4434679 0.2231988
vt 0.4434679 0.2754202
f 293/1672/293 295/1673/295 285/1674/285
vt 0.6120877 0.1134688
vt 0.6375078 0.1388890
vt 0.6120877 0.1643091
f 287/1675/287 301/1676/301 281/1677/281
vt 0.4454210 0.2245799
vt 0.4976424 0.2768012
vt 0.4454210 0.2768012
f 281/1678/281 294/1679/294 292/1680/292
vt 0.6134687 0.1656901
vt 0.6388889 0.1402700
vt 0.6643090 0.1656901
f 285/1681/285 301/1682/301 284/1683/284
vt 0.6656901 0.1643091
vt 0.6402699 0.1388889
vt 0.6656901 0.1134687
f 283/1684/283 300/1685/300 285/1686/285
vt 0.4468021 0.2231988
vt 0.4990234 0.2231988
vt 0.4990234 0.2754202
f 280/1687/280 300/1688/300 290/1689/290
vt 0.5531979 0.2768012
vt 0.5009766 0.2768012
vt 0.5009766 0.2245799
f 294/1690/294 301/1691/301 285/1692/285
vt 0.5023576 0.2231988
vt 0.5545790 0.2231988
vt 0.5545790 0.2754202
f 285/1693/285 300/1694/300 293/1695/293
vt 0.6643090 0.1120877
vt 0.6388889 0.1375079
vt 0.6134687 0.1120877
f 289/1696/289 296/1697/296 69/1698/69
vt 0.6676432 0.1134688
vt 0.6930634 0.1388890
vt 0.6676432 0.1643091
f 292/1699/292 297/1700/297 51/1701/51
vt 0.6690243 0.1656901
vt 0.6944445 0.1402700
vt 0.7198646 0.1656901
f 290/1702/290 298/1703/298 77/1704/77
vt 0.7212457 0.1643091
vt 0.6958255 0.1388889
vt 0.7212457 0.1134687
f 291/1705/291 299/1706/299 23/1707/23
vt 0.7198646 0.1120877
vt 0.6944445 0.1375079
vt 0.6690243 0.1120877
f 72/1708/72 298/1709/298 282/1710/282
vt 0.7231988 0.1134688
vt 0.7486189 0.1388890
vt 0.7231988 0.1643091
f 54/1711/54 296/1712/296 287/1713/287
vt 0.7245798 0.1656901
vt 0.7500000 0.1402700
vt 0.7754201 0.1656901
f 80/1714/80 299/1715/299 286/1716/286
vt 0.7768012 0.1643091
vt 0.7513810 0.1388889
vt 0.7768012 0.1134687
f 26/1717/26 297/1718/297 288/1719/288
vt 0.7754201 0.1120877
vt 0.7500000 0.1375079
vt 0.7245798 0.1120877
f 287/1720/287 296/1721/296 289/1722/289
vt 0.7787544 0.1134688
vt 0.8041745 0.1388890
vt 0.7787544 0.1643091
f 282/1723/282 298/1724/298 290/1725/290
vt 0.7801354 0.1656901
vt 0.8055556 0.1402700
vt 0.8309757 0.1656901
f 288/1726/288 297/1727/297 292/1728/292
vt 0.8323568 0.1643091
vt 0.8069366 0.1388889
vt 0.8323568 0.1134687
f 286/1729/286 299/1730/299 291/1731/291
vt 0.6087535 0.2768012
vt 0.5565321 0.2768012
vt 0.5565321 0.2245799
f 285/1732/285 295/1733/295 294/1734/294
vt 0.8309757 0.1120877
vt 0.8055556 0.1375079
vt 0.7801354 0.1120877
f 293/1735/293 300/1736/300 280/1737/280
vt 0.8343099 0.1134688
vt 0.8597300 0.1388890
vt 0.8343099 0.1643091
f 281/1738/281 301/1739/301 294/1740/294
vt 0.5579132 0.2231988
vt 0.6101346 0.2231988
vt 0.6101346 0.2754202
f 316/1741/316 317/1742/317 319/1743/319
vt 0.6120877 0.2768012
vt 0.6120877 0.2245799
vt 0.6643090 0.2768012
f 302/1744/302 316/1745/316 319/1746/319
vt 0.6656901 0.2231988
vt 0.6656901 0.2754202
vt 0.6134687 0.2231988
f 306/1747/306 307/1748/307 314/1749/314
vt 0.6676432 0.2768012
vt 0.6676432 0.2245799
vt 0.7198646 0.2768012
f 318/1750/318 311/1751/311 319/1752/319
vt 0.7212457 0.2754202
vt 0.6690243 0.2231988
vt 0.7212457 0.2231988
f 312/1753/312 308/1754/308 313/1755/313
vt 0.7754201 0.2768012
vt 0.7231988 0.2768012
vt 0.7231988 0.2245799
f 316/1756/316 310/1757/310 317/1758/317
vt 0.7768012 0.2231988
vt 0.7768012 0.2754202
vt 0.7245798 0.2231988
f 315/1759/315 311/1760/311 318/1761/318
vt 0.8865312 0.1656901
vt 0.8356909 0.1656901
vt 0.8611111 0.1402700
f 314/1762/314 307/1763/307 324/1764/324
vt 0.8879123 0.1134687
vt 0.8879123 0.1643091
vt 0.8624921 0.1388889
f 308/1765/308 312/1766/312 325/1767/325
vt 0.8309757 0.2768012
vt 0.7787544 0.2768012
vt 0.7787544 0.2245799
f 311/1768/311 302/1769/302 319/1770/319
vt 0.8323568 0.2754202
vt 0.7801354 0.2231988
vt 0.8323568 0.2231988
f 12/1771/12 11/1772/11 306/1773/306
vt 0.8865312 0.2768012
vt 0.8343099 0.2768012
vt 0.8343099 0.2245799
f 76/1774/76 75/1775/75 312/1776/312
vt 0.8879123 0.2754202
vt 0.8356909 0.2231988
vt 0.8879123 0.2231988
f 40/1777/40 39/1778/39 310/1779/310
vt 0.9420868 0.2768012
vt 0.8898655 0.2768012
vt 0.8898655 0.2245799
f 58/1780/58 57/1781/57 311/1782/311
vt 0.9434679 0.2754202
vt 0.8912465 0.2231988
vt 0.9434679 0.2231988
f 306/1783/306 303/1784/303 307/1785/307
vt 0.9454210 0.2245799
vt 0.9976423 0.2768012
vt 0.9454210 0.2768012
f 11/1786/11 10/1787/10 303/1788/303
vt 0.9990234 0.2231988
vt 0.9990234 0.2754202
vt 0.9468020 0.2231988
f 11/1789/11 303/1790/303 306/1791/306
vt 0.8865312 0.1120877
vt 0.8611111 0.1375079
vt 0.8356909 0.1120877
f 57/1792/57 302/1793/302 311/1794/311
vt 0.0009766 0.2212456
vt 0.0009766 0.1690243
vt 0.0531979 0.2212456
f 39/1795/39 38/1796/38 304/1797/304
vt 0.0023576 0.1676432
vt 0.0545790 0.1676432
vt 0.0545790 0.2198646
f 307/1798/307 303/1799/303 308/1800/308
vt 0.0565321 0.2212456
vt 0.0565321 0.1690243
vt 0.1087535 0.2212456
f 39/1801/39 304/1802/304 310/1803/310
vt 0.8898655 0.1643091
vt 0.8898655 0.1134688
vt 0.9152856 0.1388890
f 57/1804/57 56/1805/56 302/1806/302
vt 0.1101345 0.2198646
vt 0.0579132 0.1676432
vt 0.1101345 0.1676432
f 75/1807/75 74/1808/74 305/1809/305
vt 0.1643090 0.2212456
vt 0.1120877 0.2212456
vt 0.1120877 0.1690243
f 75/1810/75 305/1811/305 312/1812/312
vt 0.1134687 0.1676432
vt 0.1656901 0.1676432
vt 0.1656901 0.2198646
f 307/1813/307 308/1814/308 309/1815/309
vt 0.1676432 0.1690243
vt 0.2198646 0.2212456
vt 0.1676432 0.2212456
f 10/1816/10 9/1817/9 313/1818/313
vt 0.2212457 0.1676432
vt 0.2212457 0.2198646
vt 0.1690243 0.1676432
f 38/1819/38 37/1820/37 314/1821/314
vt 0.2231988 0.2212456
vt 0.2231988 0.1690243
vt 0.2754202 0.2212456
f 56/1822/56 55/1823/55 316/1824/316
vt 0.2768012 0.2198646
vt 0.2245799 0.1676432
vt 0.2768012 0.1676432
f 74/1825/74 73/1826/73 315/1827/315
vt 0.2787544 0.2212456
vt 0.2787544 0.1690243
vt 0.3309757 0.2212456
f 308/1828/308 303/1829/303 313/1830/313
vt 0.2801354 0.1676432
vt 0.3323568 0.1676432
vt 0.3323568 0.2198646
f 303/1831/303 10/1832/10 313/1833/313
vt 0.3343099 0.2212456
vt 0.3343099 0.1690243
vt 0.3865313 0.2212456
f 304/1834/304 38/1835/38 314/1836/314
vt 0.9166667 0.1402700
vt 0.9420868 0.1656901
vt 0.8912465 0.1656901
f 302/1837/302 56/1838/56 316/1839/316
vt 0.3356910 0.1676432
vt 0.3879123 0.1676432
vt 0.3879123 0.2198646
f 305/1840/305 74/1841/74 315/1842/315
vt 0.3898655 0.2212456
vt 0.3898655 0.1690243
vt 0.4420868 0.2212456
f 310/1843/310 304/1844/304 317/1845/317
vt 0.9434679 0.1134687
vt 0.9434679 0.1643091
vt 0.9180477 0.1388889
f 1/1846/1 76/1847/76 322/1848/322
vt 0.8912465 0.1120877
vt 0.9420868 0.1120877
vt 0.9166667 0.1375079
f 2/1849/2 12/1850/12 320/1851/320
vt 0.9454210 0.1643091
vt 0.9454210 0.1134688
vt 0.9708411 0.1388890
f 5/1852/5 40/1853/40 321/1854/321
vt 0.9976423 0.1656901
vt 0.9468020 0.1656901
vt 0.9722222 0.1402700
f 7/1855/7 58/1856/58 323/1857/323
vt 0.9990234 0.1134687
vt 0.9990234 0.1643091
vt 0.9736032 0.1388889
f 9/1858/9 1/1859/1 322/1860/322
vt 0.9468020 0.1120877
vt 0.9976423 0.1120877
vt 0.9722222 0.1375079
f 73/1861/73 7/1862/7 323/1863/323
vt 0.0009766 0.1087535
vt 0.0009766 0.0579132
vt 0.0263967 0.0833334
f 37/1864/37 2/1865/2 320/1866/320
vt 0.0531979 0.1101345
vt 0.0023576 0.1101345
vt 0.0277778 0.0847144
f 55/1867/55 5/1868/5 321/1869/321
vt 0.4434679 0.2198646
vt 0.3912465 0.1676432
vt 0.4434679 0.1676432
f 317/1870/317 309/1871/309 319/1872/319
vt 0.0545790 0.0579131
vt 0.0545790 0.1087535
vt 0.0291588 0.0833333
f 312/1873/312 305/1874/305 325/1875/325
vt 0.4976424 0.2212456
vt 0.4454210 0.2212456
vt 0.4454210 0.1690243
f 305/1876/305 315/1877/315 318/1878/318
vt 0.0023576 0.0565321
vt 0.0531979 0.0565321
vt 0.0277778 0.0819523
f 309/1879/309 308/1880/308 325/1881/325
vt 0.0565321 0.1087535
vt 0.0565321 0.0579132
vt 0.0819523 0.0833334
f 307/1882/307 309/1883/309 324/1884/324
vt 0.4990234 0.2198646
vt 0.4468021 0.1676432
vt 0.4990234 0.1676432
f 304/1885/304 314/1886/314 324/1887/324
vt 0.5009766 0.1690243
vt 0.5531979 0.2212456
vt 0.5009766 0.2212456
f 318/1888/318 309/1889/309 325/1890/325
vt 0.5545790 0.2198646
vt 0.5023576 0.1676432
vt 0.5545790 0.1676432
f 309/1891/309 317/1892/317 324/1893/324
vt 0.1087535 0.1101345
vt 0.0579132 0.1101345
vt 0.0833333 0.0847144
f 314/1894/314 37/1895/37 320/1896/320
vt 0.1101345 0.0579131
vt 0.1101345 0.1087535
vt 0.0847144 0.0833333
f 316/1897/316 55/1898/55 321/1899/321
vt 0.0579132 0.0565321
vt 0.1087535 0.0565321
vt 0.0833333 0.0819523
f 313/1900/313 9/1901/9 322/1902/322
vt 0.1120877 0.1087535
vt 0.1120877 0.0579132
vt 0.1375078 0.0833334
f 315/1903/315 73/1904/73 323/1905/323
vt 0.1643090 0.1101345
vt 0.1134687 0.1101345
vt 0.1388889 0.0847144
f 12/1906/12 306/1907/306 320/1908/320
vt 0.1656901 0.0579131
vt 0.1656901 0.1087535
vt 0.1402700 0.0833333
f 58/1909/58 311/1910/311 323/1911/323
vt 0.1134687 0.0565321
vt 0.1643090 0.0565321
vt 0.1388889 0.0819523
f 76/1912/76 312/1913/312 322/1914/322
vt 0.1676432 0.1087535
vt 0.1676432 0.0579132
vt 0.1930634 0.0833334
f 40/1915/40 310/1916/310 321/1917/321
vt 0.2198646 0.1101345
vt 0.1690243 0.1101345
vt 0.1944444 0.0847144
f 306/1918/306 314/1919/314 320/1920/320
vt 0.2212457 0.0579131
vt 0.2212457 0.1087535
vt 0.1958255 0.0833333
f 310/1921/310 316/1922/316 321/1923/321
vt 0.1690243 0.0565321
vt 0.2198646 0.0565321
vt 0.1944444 0.0819523
f 312/1924/312 313/1925/313 322/1926/322
vt 0.2231988 0.1087535
vt 0.2231988 0.0579132
vt 0.2486189 0.0833334
f 311/1927/311 315/1928/315 323/1929/323
vt 0.5565321 0.1690243
vt 0.6087535 0.2212456
vt 0.5565321 0.2212456
f 309/1930/309 318/1931/318 319/1932/319
vt 0.2754202 0.1101345
vt 0.2245799 0.1101345
vt 0.2500000 0.0847144
f 317/1933/317 304/1934/304 324/1935/324
vt 0.2768012 0.0579131
vt 0.2768012 0.1087535
vt 0.2513811 0.0833333
f 305/1936/305 318/1937/318 325/1938/325
# 646 faces, 1938 coords texture

# End of File
