# deformed COACD convex decomposition
o coacd_part_0000
v 0.05062900903 0.01514241899 0.00162530749
v 0.05062925409 0.01514242227 -0.001626360026
v 0.05061404043 0.01514148885 0.002582603512
v 0.05694441892 0.01443330587 0.002581758201
v 0.05542104907 0.01460643174 -5.875482821e-07
v 0.05061441443 0.01514151324 -0.002583646272
v 0.05694526233 0.014433238 -0.002582943068
v -0.04988988848 0.0151256886 0.002603198223
v 0.05993314075 0.01378784903 0.002581442713
v 0.05784900719 0.0142820248 -5.937209252e-07
v -0.04988996812 0.01512568089 -0.002603696024
v 0.05993318315 0.01378785287 -0.002582629267
v -0.04990484628 0.01512660559 0.001638703276
v -0.05621293892 0.01441695366 0.002606839052
v 0.06041630819 0.01153553004 0.002581416283
v 0.0601865506 0.01266544313 -5.94052991e-07
v -0.056212682 0.01441697557 -0.00260719073
v -0.04990489451 0.01512660264 -0.001639203408
v 0.06041635328 0.01153553695 -0.002582603596
v -0.05469080461 0.01459014196 -1.908770256e-07
v -0.05711599661 0.01426593536 -1.761821213e-07
v -0.05919762558 0.01377206526 0.002607372686
v 0.05872302965 0.0102442197 -1.132488641e-06
v 0.05796169792 0.009743056962 0.00258171768
v -0.05919761767 0.01377206135 -0.00260771333
v 0.057962622 0.009743520047 -0.002582905255
v -0.0594509429 0.01265018517 -1.678247628e-07
v -0.0596805712 0.01152077816 0.00260778761
v 0.05665912342 0.008972227266 -1.144037228e-06
v 0.05530263798 0.008292865705 0.002581922256
v -0.05968056156 0.01152078786 -0.002608118692
v 0.05530496117 0.008293821301 -0.002583115806
v -0.05798944086 0.0102308122 -6.982558436e-07
v -0.05722949533 0.009730458373 0.002607491287
v 0.05251150329 0.007211530386 0.002581968376
v 0.0544873762 0.007932157883 -1.125664487e-06
v -0.05722923207 0.009730369143 -0.00260780727
v 0.05251047253 0.007211395721 -0.002583318187
v -0.05592810994 0.008960139098 -1.189333059e-06
v -0.05457524829 0.008282391267 0.002607554684
v -0.05178736419 0.007202074837 0.002608367767
v -0.05457396774 0.008281948914 -0.002607797252
v -0.05178715281 0.007202038045 -0.0026088058
v -0.05375994595 0.007921460454 -1.190778095e-06
f 1 2 6
f 24 29 26
f 23 24 26
f 22 27 28
f 22 25 27
f 21 25 22
f 19 23 26
f 17 20 18
f 17 25 21
f 15 24 23
f 15 19 16
f 15 23 19
f 14 21 22
f 14 17 21
f 14 20 17
f 13 20 14
f 13 18 20
f 12 16 19
f 24 30 29
f 25 31 27
f 26 29 32
f 28 31 33
f 42 43 44
f 41 44 43
f 40 42 44
f 40 44 41
f 39 42 40
f 37 42 39
f 35 43 38
f 35 41 43
f 11 17 18
f 35 38 36
f 34 37 39
f 33 37 34
f 32 36 38
f 31 37 33
f 30 36 32
f 30 35 36
f 29 30 32
f 28 33 34
f 34 39 40
f 9 12 10
f 27 31 28
f 9 15 16
f 3 41 35
f 3 40 41
f 3 34 40
f 3 28 34
f 3 22 28
f 3 8 14
f 2 7 6
f 2 5 7
f 1 5 2
f 1 4 5
f 1 3 4
f 1 8 3
f 1 13 8
f 1 18 13
f 1 11 18
f 1 6 11
f 9 16 12
f 3 35 30
f 3 30 24
f 3 14 22
f 6 17 11
f 8 13 14
f 7 10 12
f 3 24 15
f 6 25 17
f 6 31 25
f 6 37 31
f 6 42 37
f 6 38 43
f 6 32 38
f 6 43 42
f 6 19 26
f 3 15 9
f 6 26 32
f 4 9 10
f 4 10 7
f 3 9 4
f 6 7 12
f 6 12 19
f 4 7 5
o coacd_part_0001
v 0.01102425938 0.03670314345 -0.002593364362
v 0.02114334733 0.03675426713 -0.002590561892
v 0.01102478013 0.03670920753 0.002592427828
v 0.01104362419 0.05129228543 -0.002595955182
v 0.02114489158 0.03675743213 0.002589617542
v 0.02116054279 0.04805590439 -0.002591236392
v 0.01104361689 0.05129261309 0.002595060907
v 0.01104313716 0.0513192488 -0.0002886663484
v 0.01808772363 0.05833440858 -0.002592683483
v 0.02116043915 0.04805600631 0.002590557192
v 0.02060130706 0.05460092545 -0.00259266809
v 0.0205455 0.05550977892 6.633599599e-07
v 0.02116061069 0.04807937946 -0.0008140736053
v 0.01808772322 0.05833441383 0.002591971652
v 0.0110431313 0.05131928388 0.0002877944713
v 0.01918391914 0.05798947485 -3.553882595e-07
v 0.02027372679 0.05762319592 -0.002592529467
v 0.02116058485 0.04807942671 0.0008133960881
v 0.02060129657 0.05460101177 0.00259196019
v 0.020273724 0.05762320102 0.002591819503
f 53 58 60
f 50 55 56
f 50 56 57
f 48 52 53
f 51 58 59
f 52 59 58
f 52 58 53
f 53 60 61
f 60 64 61
f 54 56 63
f 55 61 56
f 56 62 57
f 56 61 64
f 56 64 63
f 58 64 60
f 47 58 51
f 54 62 56
f 47 64 58
f 45 47 51
f 47 54 63
f 45 46 49
f 45 49 47
f 47 63 64
f 45 59 52
f 45 52 48
f 45 48 53
f 45 53 61
f 45 51 59
f 45 55 50
f 45 50 46
f 46 50 57
f 46 57 62
f 46 62 54
f 46 54 49
f 47 49 54
f 45 61 55
o coacd_part_0002
v -0.04988571231 0.01512568748 -0.002603694633
v -0.04990524621 0.01512550692 -0.001639167892
v -0.04906989369 0.01790351904 -0.002601642906
v 0.05061016124 0.01514151688 -0.002583646823
v -0.04990519798 0.01512550986 0.001638667792
v -0.04906980512 0.01790352941 0.00260107037
v 0.04979469772 0.01791902324 -0.002583827898
v 0.05062960568 0.01514132671 -0.001626324167
v -0.04988563423 0.01512569807 0.002603196766
v 0.04979442506 0.01791892307 0.002582848545
v 0.05062936059 0.01514132344 0.001625271612
v 0.05060977898 0.01514148987 0.002582604076
f 67 74 71
f 68 71 72
f 69 73 70
f 70 73 76
f 74 76 75
f 71 74 75
f 71 75 72
f 67 70 74
f 70 76 74
f 66 70 67
f 65 68 72
f 65 69 66
f 65 73 69
f 65 76 73
f 65 75 76
f 65 72 75
f 65 71 68
f 65 67 71
f 65 66 67
f 66 69 70
o coacd_part_0003
v 0.0404277219 0.04615456619 0.002585170938
v 0.04213468983 0.04462078077 0.002585120475
v 0.0412886797 0.0453954993 -5.350042796e-07
v 0.0404277254 0.04615456733 -0.002586241318
v 0.03845161326 0.04532774617 -1.043685226e-06
v 0.03763357949 0.04492069319 0.002585518396
v 0.04213469214 0.04462078665 -0.002586189848
v 0.04120953775 0.04173923953 0.002585414182
v 0.04152669201 0.04259025934 -1.043186569e-06
v 0.03763360636 0.04492070778 -0.002586589996
v 0.03629807844 0.04416322059 -1.040469423e-06
v 0.0350189259 0.04332079172 0.002585918704
v 0.04120958772 0.04173935104 -0.002586481906
v 0.03991539222 0.03901626818 0.002585573825
v 0.04060931826 0.04035938809 -1.024189552e-06
v 0.03501891145 0.04332078892 -0.002586996778
v 0.03427029138 0.04276957024 -1.047421239e-06
v 0.03262053949 0.04137645614 0.002580113264
v 0.03262082292 0.04137157402 0.002586687514
v 0.03991550633 0.03901647104 -0.002586633008
v 0.03858834054 0.03697443907 0.002585470116
v 0.03946808369 0.03825113758 -1.544227446e-06
v 0.03262063764 0.04137149579 -0.002587784539
v 0.03262035356 0.04137637752 -0.002581210315
v 0.03262617601 0.03684976936 0.002586645257
v 0.03858836424 0.03697450502 -0.002586502507
v 0.03860261414 0.03697497599 0.001909098323
v 0.03860260704 0.03697498361 -0.001910619394
v 0.03262747134 0.03685058099 -0.002587689226
f 90 98 96
f 90 97 98
f 90 96 91
f 89 91 96
f 88 94 95
f 87 92 88
f 88 92 93
f 92 99 100
f 86 92 87
f 84 91 89
f 88 93 94
f 92 100 93
f 94 105 101
f 94 100 99
f 94 99 105
f 84 90 91
f 94 101 95
f 96 98 102
f 97 103 98
f 97 105 102
f 97 102 104
f 97 104 103
f 98 103 104
f 98 104 102
f 93 100 94
f 84 89 85
f 97 101 105
f 82 87 88
f 77 78 79
f 77 79 80
f 77 80 81
f 77 81 82
f 77 82 88
f 77 88 95
f 77 101 97
f 77 97 90
f 77 90 84
f 77 84 78
f 78 83 79
f 78 84 85
f 77 95 101
f 79 83 80
f 78 85 83
f 82 86 87
f 81 86 82
f 80 86 81
f 80 92 86
f 80 99 92
f 83 85 89
f 80 102 105
f 80 96 102
f 80 89 96
f 80 83 89
f 80 105 99
o coacd_part_0004
v 0.004631466667 -0.006454166667 -0.0025006
v 0.0048932 -0.0059226 -0.001399966667
v 0.007308933333 -0.003427033333 -0.0025006
v 0.05238798448 -0.0065651287 -0.002582768959
v 0.0048931 -0.0059227 0.001373233333
v 0.0073566 -0.0034224 0.0024994
v 0.05268792465 -0.003736976956 -0.002582894692
v 0.05269257282 -0.003736976745 -0.002575819265
v 0.05253384287 -0.005480097049 -8.358090299e-07
v 0.05239937634 -0.006565214608 -0.001608205283
v 0.004666233333 -0.006484566667 0.0024994
v 0.05268774726 -0.003737146765 0.002581216401
v 0.05269238339 -0.003737144825 0.002574140911
v 0.05239948673 -0.006565234964 0.001606537478
v 0.05238809417 -0.006565187169 0.002581101046
f 108 118 113
f 108 113 112
f 109 112 113
f 109 113 114
f 109 114 115
f 110 116 111
f 113 118 114
f 111 120 117
f 114 119 115
f 114 118 120
f 114 120 119
f 111 116 120
f 117 120 118
f 108 117 118
f 107 111 108
f 108 111 117
f 106 108 112
f 106 112 109
f 106 109 115
f 106 115 119
f 106 107 108
f 106 120 116
f 106 116 110
f 106 110 107
f 107 110 111
f 106 119 120
o coacd_part_0005
v -0.0111112693 -0.00556607714 -0.002565395344
v -0.004802733333 -0.0058469 -0.0025006
v -0.01124816745 -0.00562431372 0.002589523591
v -0.0108591578 0.003519010994 -0.002526000082
v -0.004964933333 -0.005273833333 -0.0013973
v -0.0066313 0.003441633333 -0.0025006
v -0.0047753 -0.005822033333 0.0024994
v -0.01059585416 0.003212681993 0.002529570766
v -0.004966 -0.0052727 0.0002601333333
v -0.006673933333 0.0034893 0.0024994
v -0.004963833333 -0.005275 0.001375366667
f 129 130 131
f 127 131 130
f 126 130 129
f 125 126 129
f 124 130 126
f 124 128 130
f 123 130 128
f 123 127 130
f 122 126 125
f 121 124 126
f 121 128 124
f 121 123 128
f 121 127 123
f 121 131 127
f 121 129 131
f 121 125 129
f 121 122 125
f 121 126 122
o coacd_part_0006
v -0.05214297207 0.003750141892 -0.002612101379
v -0.05214843566 0.003749033573 -0.002562541653
v -0.0517846396 0.007201713708 -0.002608804143
v -0.0066313 0.003441633333 -0.0025006
v -0.05214981123 0.003748663368 0.002561922922
v -0.05202966319 0.005407379726 -2.507629119e-07
v -0.0517848378 0.007201747436 0.002608366111
v -0.0029787 0.006735766667 -0.0022251
v -0.006673933333 0.0034893 0.0024994
v -0.05214434054 0.003749763311 0.002611482161
v -0.0029787 0.006735766667 0.002217633333
f 134 142 139
f 135 139 142
f 135 142 140
f 138 140 142
f 136 138 137
f 138 141 140
f 134 138 142
f 136 141 138
f 134 137 138
f 132 141 136
f 133 136 137
f 132 136 133
f 133 137 134
f 132 140 141
f 132 135 140
f 132 139 135
f 132 134 139
f 132 133 134
o coacd_part_0007
v -0.02029323084 0.03674551014 -0.002596754618
v -0.01013870928 0.03670222189 -0.002597071937
v -0.02029493634 0.03674247022 0.002595715759
v -0.02030862508 0.04810955584 -0.002597667297
v -0.01014039885 0.03669971024 0.002595915753
v -0.01015576381 0.05133562131 -0.002603938549
v -0.02030875901 0.04810970707 0.002596488089
v -0.02030921938 0.04812989739 -0.001051149906
v -0.01982713883 0.05563794068 -0.002599282795
v -0.01015555258 0.05133576665 0.00260266973
v -0.01738316923 0.05832559387 -0.002599875575
v -0.01015552136 0.05135950761 -0.0005757896611
v -0.01982797335 0.05563615219 0.002597943131
v -0.02030923033 0.04812995009 0.001049981821
v -0.01956616662 0.05761518499 -0.002599564335
v -0.01015544125 0.05135956658 0.0005745255558
v -0.01738322247 0.05832558386 0.002598532635
v -0.01847811181 0.0579808798 5.32415425e-05
v -0.01956672875 0.05761488822 0.002598131147
f 145 155 149
f 146 150 151
f 149 155 156
f 150 156 155
f 150 155 151
f 151 155 161
f 151 161 157
f 153 159 158
f 153 157 160
f 153 160 159
f 145 161 155
f 153 158 154
f 157 161 160
f 159 160 161
f 152 158 159
f 145 159 161
f 148 153 154
f 145 147 152
f 145 152 159
f 143 144 147
f 143 147 145
f 143 145 149
f 143 149 156
f 143 150 146
f 143 146 151
f 143 151 157
f 143 156 150
f 143 153 148
f 143 148 144
f 144 148 154
f 144 154 158
f 144 158 152
f 144 152 147
f 143 157 153
o coacd_part_0008
v -0.01013870996 0.03670246407 -0.002597072001
v 0.000465485223 0.03668725517 -0.002595889759
v -0.01014039953 0.03669995259 0.002595915819
v -0.01015576398 0.05133535858 -0.002603938331
v 0.0004630440648 0.03668867468 0.002594790682
v 0.0004587131375 0.05255399596 -0.002602663721
v -0.01015555274 0.05133550382 0.002602669538
v -0.01015552136 0.05135950761 -0.0005757896611
v -0.007822345774 0.05864520181 1.730715792e-06
v -0.008060713369 0.05779995146 -0.002610540504
v 0.0004585281376 0.05255330705 0.002601426689
v -0.004865353484 0.06082088706 -0.002613586727
v 0.0004583883617 0.05260681916 -0.0001762905888
v -0.008059347851 0.05780421131 0.002610670506
v -0.01015544125 0.05135956658 0.0005745255558
v -0.007138527166 0.06057937923 0.002613922039
v -0.00713911201 0.0605789578 -0.002613671872
v 0.0004583772564 0.05260678197 0.0001750037688
v -0.00486595849 0.06082119234 0.002613881101
v -0.006003644105 0.06071149073 5.230436376e-05
f 170 175 177
f 165 169 170
f 165 170 171
f 167 173 174
f 168 175 170
f 168 170 176
f 169 176 170
f 170 177 178
f 177 181 178
f 172 179 180
f 173 178 181
f 173 181 180
f 173 180 179
f 173 179 174
f 177 180 181
f 164 175 168
f 170 178 171
f 164 177 175
f 162 178 173
f 164 172 180
f 164 180 177
f 162 163 166
f 162 166 164
f 162 164 168
f 162 176 169
f 162 169 165
f 162 165 171
f 162 171 178
f 162 168 176
f 162 173 167
f 162 167 163
f 163 167 174
f 163 174 179
f 163 179 172
f 163 172 166
f 164 166 172
o coacd_part_0009
v 0.01289643914 -0.05085448748 -0.002585218641
v 0.01430665211 -0.05354377189 -0.002584584843
v 0.01385740348 -0.0527575362 -1.755208698e-06
v 0.01289627145 -0.05085405214 0.002583751081
v 0.01281737228 -0.02713939706 -0.002586964516
v 0.01602829094 -0.05604224268 -0.002584234669
v 0.01512509528 -0.05482220938 -1.284790752e-06
v 0.01430648788 -0.05354343258 0.0025830639
v 0.01281418852 -0.02713597448 0.002585299253
v 0.02054451227 -0.0272203393 -0.002585692126
v 0.01806562958 -0.05829097037 -0.002583900795
v 0.01660631929 -0.05674357863 -1.292895279e-06
v 0.01602822267 -0.05604212093 0.002582695287
v 0.02054190068 -0.02721772886 0.002584036927
v 0.02061474638 -0.04825026694 -0.002584281417
v 0.01806563025 -0.05829096366 0.00258235757
v 0.02024870706 -0.05758137051 -0.002583863216
v 0.01916081713 -0.05794610752 -5.434560232e-05
v 0.02061477462 -0.04825021856 0.00258265917
v 0.02061475151 -0.048262392 -0.001640065145
v 0.02058904654 -0.05303856605 -1.286815862e-06
v 0.02057602573 -0.05456017868 -0.002584168697
v 0.02024870627 -0.05758136832 0.002582317
v 0.02052011732 -0.05546730465 -1.288053669e-06
v 0.02057602542 -0.05456008412 0.002582618788
v 0.02061475664 -0.04826235469 0.001638442869
f 192 198 199
f 192 197 193
f 191 201 196
f 191 207 201
f 191 195 200
f 187 194 188
f 188 194 189
f 192 199 197
f 191 200 207
f 193 197 194
f 201 207 202
f 196 202 203
f 197 199 204
f 198 205 204
f 198 204 199
f 204 205 206
f 200 206 202
f 200 202 207
f 202 206 203
f 203 206 205
f 187 193 194
f 196 201 202
f 187 192 193
f 198 203 205
f 186 190 195
f 186 195 191
f 182 183 184
f 182 184 185
f 182 185 190
f 182 190 186
f 182 186 191
f 182 191 196
f 182 203 198
f 182 198 192
f 182 192 187
f 182 187 183
f 182 196 203
f 183 188 189
f 185 195 190
f 183 187 188
f 185 206 200
f 185 204 206
f 185 197 204
f 185 200 195
f 185 189 194
f 184 189 185
f 183 189 184
f 185 194 197
o coacd_part_0010
v 0.003646166667 0.006735766667 -0.002225166667
v 0.007289433333 0.003478633333 -0.0025006
v 0.003745733333 0.0069946 0.0024994
v 0.05250795971 0.007211069147 -0.002583318447
v 0.007309 0.003464633333 0.0024994
v 0.05286837005 0.003759659196 -0.002583066393
v 0.05250898928 0.007211202951 0.002581968644
v 0.05275351906 0.005416527771 -6.555804829e-07
v 0.0528738236 0.003758549247 -0.002534028752
v 0.05286817056 0.003759767228 0.002581714741
v 0.0528736182 0.003758656415 0.002532677831
f 210 212 217
f 215 218 216
f 214 218 215
f 214 217 218
f 211 216 213
f 211 215 216
f 211 214 215
f 210 217 214
f 209 217 212
f 208 211 213
f 209 216 218
f 209 213 216
f 208 213 209
f 208 214 211
f 208 210 214
f 208 212 210
f 208 209 212
f 209 218 217
o coacd_part_0011
v 0.000465485223 0.03668725517 -0.002595889759
v 0.01102327021 0.03670338285 -0.002593364686
v 0.0004630440648 0.03668867468 0.002594790682
v 0.0004587131375 0.05255399596 -0.002602663721
v 0.01102379053 0.0367094469 0.002592428145
v 0.01104262828 0.05129222144 -0.002595955864
v 0.0004585281376 0.05255330705 0.002601426689
v 0.0004583883617 0.05260681916 -0.0001762905888
v 0.005552345471 0.06084654249 -0.002600721538
v 0.01104262089 0.05129254954 0.002595061533
v 0.007834355538 0.06060355092 -0.002600350595
v 0.008542250108 0.05858622574 -6.298945193e-07
v 0.01104252907 0.05131937886 -0.0002886858054
v 0.005552355781 0.06084654976 0.002599434663
v 0.0004583772564 0.05260678197 0.0001750037688
v 0.006693385183 0.06073644478 5.333814728e-05
v 0.01104252319 0.05131941394 0.0002878138857
v 0.007834352584 0.06060354166 0.002599075219
f 222 226 227
f 224 229 230
f 224 230 231
f 225 232 233
f 226 233 232
f 226 232 227
f 228 230 236
f 227 234 229
f 232 236 234
f 229 234 236
f 229 236 230
f 230 235 231
f 221 232 225
f 227 232 234
f 221 236 232
f 228 235 230
f 221 223 228
f 219 220 223
f 219 223 221
f 219 221 225
f 219 225 233
f 219 233 226
f 219 226 222
f 219 222 227
f 221 228 236
f 219 229 224
f 219 224 220
f 220 224 231
f 220 231 235
f 220 235 228
f 220 228 223
f 219 227 229
o coacd_part_0012
v -0.04976174301 0.03500959161 -0.002596092281
v -0.04976174632 0.03500959717 0.002595301444
v -0.04909469056 0.03594703384 -3.95965935e-07
v -0.04841044621 0.03687097159 -0.002596023473
v -0.04824424942 0.03236121931 -0.002596466519
v -0.0487340608 0.03313170959 -3.939575959e-07
v -0.04841045136 0.03687097517 0.00259523013
v -0.04824431378 0.03236131063 0.002595677865
v -0.0463237145 0.03647809692 -9.146832423e-07
v -0.04544292647 0.03625080206 -0.002596346664
v -0.04475070152 0.02680505692 -0.002598146555
v -0.04477157092 0.02680492001 -0.0009700391085
v -0.04477159598 0.02680495428 0.0009693286442
v -0.04544306494 0.03625085437 0.002595549222
v -0.04475072815 0.02680514754 0.002597433242
v -0.04400290957 0.03579746739 -1.426469235e-06
v -0.04259163551 0.03524668245 -0.002596523183
v -0.03981239968 0.02680276102 -0.00259774563
v -0.04259206066 0.03524688074 0.002595706585
v -0.03981173875 0.02679958917 0.002597085108
v -0.041775348 0.03487861817 -1.437106112e-06
v -0.03992538731 0.03388964565 -0.002589437124
v -0.03992560469 0.0338842212 -0.002596551047
v -0.03992547949 0.03388966267 0.002588596407
v -0.03992569485 0.0338842356 0.002595710363
f 247 251 249
f 247 256 251
f 247 254 256
f 245 250 246
f 246 250 252
f 247 249 248
f 244 249 251
f 243 250 245
f 246 252 253
f 250 255 252
f 253 257 258
f 253 255 257
f 253 258 259
f 254 259 258
f 254 258 260
f 254 260 261
f 242 249 244
f 255 260 257
f 255 261 260
f 257 260 258
f 252 255 253
f 254 261 256
f 242 248 249
f 241 247 248
f 237 238 239
f 241 248 242
f 237 240 246
f 237 246 253
f 237 253 259
f 237 259 254
f 237 254 247
f 237 247 241
f 237 241 242
f 237 242 238
f 237 239 240
f 238 242 244
f 238 243 239
f 240 243 245
f 239 243 240
f 238 250 243
f 240 245 246
f 238 261 255
f 238 256 261
f 238 251 256
f 238 244 251
f 238 255 250
o coacd_part_0013
v -0.02099777663 -0.04779212356 -8.761365958e-05
v -0.02099776814 -0.04779211917 8.59358058e-05
v -0.02099744856 -0.04776088361 -0.002592686667
v -0.0195484992 -0.05757159987 -0.002596491435
v -0.02099732881 -0.04776074284 0.002591022701
v -0.01954914897 -0.05757123515 0.00259512604
v -0.02068833864 0.003716911025 -0.002594497637
v -0.01737265386 -0.05828049094 -0.002596561022
v -0.01846235638 -0.05793751105 -7.301080599e-07
v -0.02067678476 0.003714587161 0.002593061725
v -0.01737264917 -0.05828045177 0.00259502469
v -0.01086001181 0.003519094244 -0.002526042357
v -0.01533772497 -0.05603472037 -0.002595100555
v -0.01591309759 -0.05673268423 -7.934694072e-07
v -0.01059585416 0.003212681993 0.002529570766
v -0.0153373951 -0.05603429561 0.002593480267
v -0.01165761096 -0.05097638952 -0.00259205257
v -0.01443366303 -0.0548139783 -8.030569709e-07
v -0.01165759618 -0.05097637795 0.002590517314
v -0.01165853134 -0.05098699843 -0.001700890386
v -0.01165849737 -0.05098701219 0.001699353487
f 273 280 282
f 268 271 276
f 268 276 273
f 269 272 270
f 269 274 275
f 272 275 277
f 273 276 280
f 273 282 281
f 277 279 280
f 274 279 277
f 274 277 275
f 274 278 279
f 278 281 279
f 279 281 282
f 279 282 280
f 267 270 272
f 273 281 278
f 266 276 271
f 269 275 272
f 266 277 280
f 262 263 266
f 262 266 271
f 262 271 268
f 262 264 265
f 262 265 267
f 262 267 263
f 263 267 266
f 264 268 273
f 262 268 264
f 264 278 274
f 264 274 269
f 266 280 276
f 264 269 265
f 265 269 270
f 265 270 267
f 266 267 272
f 266 272 277
f 264 273 278
o coacd_part_0014
v 0.05287361512 0.003758698909 0.002532677831
v 0.0558165242 0.00326149483 0.002581239209
v 0.05494996416 0.003441422793 -6.877692009e-07
v 0.05287382052 0.003758591741 -0.002534028752
v 0.05286710484 0.00375976728 0.002581714863
v 0.05871079761 0.002401188365 0.002580941438
v 0.05728032482 0.00287978639 -7.079799372e-07
v 0.05581830553 0.003261130767 -0.002582641348
v 0.05286730478 0.003759659607 -0.002583066512
v 0.007047066667 0.003338533333 0.0022169
v 0.06146731026 0.001161360718 0.002580630843
v 0.05955438809 0.002068889772 -7.164090164e-07
v 0.05871171969 0.002400924634 -0.00258236967
v 0.007047533333 0.003337566667 -0.002225533333
v 0.0073566 -0.0034224 0.0024994
v 0.06146535095 -0.001128784692 0.002580614804
v 0.06148184249 1.635758131e-05 5.281894707e-05
v 0.06146734871 0.001161360386 -0.002582065659
v 0.007308933333 -0.003427033333 -0.0025006
v 0.05268942163 -0.003736874993 0.002581216222
v 0.05868336026 -0.002378645238 0.002580915424
v 0.05953217637 -0.002044590551 -2.102581453e-07
v 0.06146540492 -0.001128771129 -0.002582055203
v 0.05268960341 -0.003736705697 -0.002582894537
v 0.05483763576 -0.003437766494 -2.705778747e-07
v 0.05574258173 -0.003251238211 0.002581138201
v 0.05722520608 -0.002865171172 -2.200543649e-07
v 0.0586842806 -0.002378359893 -0.002582364221
v 0.05574460053 -0.003250771547 -0.002582631944
f 297 306 302
f 297 301 306
f 294 300 295
f 293 300 294
f 293 299 300
f 290 296 291
f 292 301 297
f 292 296 301
f 290 306 301
f 298 303 304
f 293 298 299
f 298 304 305
f 306 311 307
f 299 305 300
f 302 306 307
f 302 307 308
f 303 309 310
f 303 310 304
f 303 308 309
f 304 310 305
f 290 311 306
f 307 311 308
f 308 311 309
f 309 311 310
f 298 305 299
f 290 310 311
f 290 301 296
f 290 300 305
f 290 305 310
f 283 285 286
f 283 286 291
f 283 291 296
f 283 296 292
f 283 292 287
f 283 287 284
f 284 288 289
f 284 289 290
f 284 290 285
f 284 287 292
f 284 292 297
f 284 297 302
f 283 284 285
f 284 308 303
f 284 302 308
f 289 295 290
f 288 295 289
f 288 294 295
f 288 293 294
f 290 295 300
f 285 290 286
f 284 293 288
f 284 298 293
f 284 303 298
f 286 290 291
o coacd_part_0015
v -0.03970629645 0.04613219827 0.002593721664
v -0.03970625871 0.04613216762 -0.002594664993
v -0.04056693607 0.04537375026 -4.710288661e-07
v -0.04141311579 0.04459889454 0.00259374218
v -0.03691484292 0.04489964882 0.002594095935
v -0.03773231792 0.04530644673 -4.690747624e-07
v -0.04141308336 0.044598849 -0.00259468575
v -0.03691401681 0.04489914378 -0.002595038569
v -0.04080516896 0.04256859557 -4.680922268e-07
v -0.04048776116 0.04171838744 0.002594126669
v -0.03558061415 0.04414300875 -4.704613051e-07
v -0.03430360732 0.04330210549 0.002594416332
v -0.04048721504 0.04171726924 -0.002595071642
v -0.03430232823 0.04330116461 -0.002595350069
v -0.03988760782 0.04033747309 -4.662513265e-07
v -0.03919422623 0.03899567609 0.00259450218
v -0.03191045258 0.04136219261 0.002594668037
v -0.03191078886 0.04136268005 0.00258449809
v -0.03355572877 0.04275157679 -4.872025896e-07
v -0.03919278844 0.03899328293 -0.002595452112
v -0.03191059974 0.0413625443 -0.002585515559
v -0.03191025993 0.04136205426 -0.002595685461
v -0.03874462713 0.03822618075 -4.576095359e-07
v -0.03786369363 0.036947951 0.002595010771
v -0.03192353609 0.03684059427 0.00259522589
v -0.03786407868 0.03694847122 -0.002595878905
v -0.03191499796 0.03683346077 -0.002596089883
v -0.03787834024 0.03694901241 -0.00191712691
v -0.03787775402 0.03694814792 0.001916259788
f 326 331 327
f 325 332 333
f 325 330 332
f 324 331 326
f 323 329 330
f 323 328 329
f 322 323 325
f 321 326 327
f 327 331 334
f 321 324 326
f 323 330 325
f 327 334 335
f 331 337 334
f 328 338 333
f 328 333 332
f 328 332 329
f 329 332 330
f 334 339 340
f 334 340 335
f 334 337 339
f 335 340 339
f 335 339 337
f 335 337 338
f 335 338 336
f 320 324 321
f 328 336 338
f 319 322 325
f 312 313 314
f 316 323 322
f 312 314 315
f 318 324 320
f 312 321 327
f 312 327 335
f 312 335 336
f 312 336 328
f 312 328 323
f 312 323 316
f 312 316 317
f 312 317 313
f 313 318 314
f 313 317 319
f 312 315 321
f 313 325 333
f 313 319 325
f 316 322 319
f 315 320 321
f 315 318 320
f 314 318 315
f 316 319 317
f 313 331 324
f 313 337 331
f 313 338 337
f 313 333 338
f 313 324 318
o coacd_part_0016
v -0.03129537372 -0.03634042263 0.00259151149
v -0.03128770459 -0.0417501316 0.002590767252
v -0.0312875873 -0.03633157602 -0.002593311058
v -0.03753506416 -0.03646627588 0.002591719218
v -0.03128798276 -0.04176451721 0.00151870675
v -0.03687370402 -0.04486894199 0.002590581931
v -0.03128763508 -0.0417499285 -0.002592633265
v -0.03753575078 -0.03646724866 -0.002593510461
v -0.03870079108 -0.03820335218 -9.121684656e-07
v -0.03914922349 -0.03897119424 0.002591011905
v -0.03128798902 -0.04176444391 -0.001520560405
v -0.03966196235 -0.04610019948 0.002590256956
v -0.03769028036 -0.04527538571 -9.054945831e-07
v -0.03687303727 -0.04486853227 -0.002592395182
v -0.03914785372 -0.03896889283 -0.002592847562
v -0.03984215989 -0.04031152481 -9.090005789e-07
v -0.04044200956 -0.04169084344 0.002590637242
v -0.04136536159 -0.0445682856 0.002590290442
v -0.0405217409 -0.04534218994 5.283245233e-05
v -0.03966193687 -0.04610017755 -0.002592071437
v -0.04044151502 -0.04168982022 -0.002592457867
v -0.04075888152 -0.04254043605 -9.066202632e-07
v -0.04136533027 -0.04456823554 -0.002592107027
f 352 358 359
f 346 352 353
f 346 353 354
f 347 351 354
f 348 355 349
f 349 355 350
f 350 355 356
f 350 356 357
f 352 359 360
f 357 362 358
f 353 360 354
f 355 361 356
f 356 361 357
f 357 361 362
f 358 363 359
f 358 362 363
f 359 363 360
f 361 363 362
f 345 354 351
f 352 360 353
f 345 346 354
f 341 342 345
f 344 348 349
f 344 349 350
f 341 345 351
f 341 351 347
f 341 347 343
f 341 343 348
f 341 344 350
f 341 350 357
f 341 357 358
f 341 358 352
f 341 348 344
f 341 346 342
f 342 346 345
f 343 347 354
f 343 354 360
f 343 360 363
f 343 363 361
f 343 361 355
f 343 355 348
f 341 352 346
o coacd_part_0017
v -0.02031138959 0.0433565355 0.002596235822
v -0.02029592569 0.03674100814 0.002595715584
v -0.02030908203 0.04335596265 -0.002597340093
v -0.02906979782 0.04340661537 0.002594895281
v -0.02029422008 0.03674404792 -0.002596754417
v -0.03192353599 0.03684033301 0.002595225916
v -0.02906989079 0.04340676169 -0.002595793772
v -0.02907103765 0.04340676907 0.002566440695
v -0.03191037764 0.04136203251 0.002594669796
v -0.03191499747 0.03683319927 -0.002596089908
v -0.03191018485 0.04136189401 -0.002595687223
v -0.02907113206 0.04340691648 -0.002567339204
v -0.0304964661 0.04241037598 -4.779694007e-07
f 367 371 372
f 369 372 374
f 369 374 373
f 370 374 375
f 374 376 375
f 371 376 372
f 372 376 374
f 366 373 374
f 371 375 376
f 366 368 373
f 366 374 370
f 365 369 373
f 364 369 365
f 364 372 369
f 364 367 372
f 364 371 367
f 364 375 371
f 364 370 375
f 364 366 370
f 364 368 366
f 364 365 368
f 365 373 368
o coacd_part_0018
v -0.0522141029 0.003708346129 0.002532766488
v -0.05221274298 0.003708712122 -0.00253340214
v -0.05421561965 0.003432357119 -1.072526485e-06
v -0.05221385538 0.003706948347 0.002611625664
v -0.05221252708 0.003707313776 -0.00261226275
v -0.05508445218 0.003252807867 -0.002618142958
v -0.05508241964 0.003252994311 0.002616757771
v -0.0520234137 -0.003707299792 0.002611049927
v -0.0520234659 -0.003707420388 -0.002613002732
v -0.0579624362 0.002394574939 -0.002623275746
v -0.05654016109 0.002870944826 -1.238256155e-06
v -0.05796286847 0.002394073938 0.00262181603
v -0.05409981773 -0.003423469098 -7.060614665e-07
v -0.05202344272 -0.003708756142 0.002532187157
v -0.05500819243 -0.00323699612 0.002616964202
v -0.05202349264 -0.003708870776 -0.002534142897
v -0.05500824432 -0.003237231926 -0.002617998804
v -0.06071326916 0.001157303648 -0.002627671223
v -0.05880535484 0.002061792283 -1.436029084e-06
v -0.06071375194 0.001156975739 0.002625290212
v -0.05793669375 -0.002365343275 0.002621565406
v -0.05648433445 -0.002850641524 -5.018641208e-07
v -0.05793586449 -0.002365997903 -0.002622505727
v -0.06072293857 1.81639848e-05 -0.002627608673
v -0.06072350899 1.562878501e-05 0.002626170876
v -0.06071145057 -0.001118497297 0.002626605421
v -0.05878344074 -0.002031607367 -2.972833036e-07
v -0.06071064942 -0.001119595498 -0.00262662316
f 389 392 390
f 388 395 396
f 386 395 388
f 386 394 395
f 384 389 390
f 385 389 393
f 385 392 389
f 384 391 389
f 389 391 393
f 383 387 388
f 386 388 387
f 391 397 398
f 394 401 396
f 391 398 393
f 393 398 399
f 394 400 401
f 394 396 395
f 397 399 398
f 397 402 403
f 397 403 399
f 399 403 404
f 400 404 402
f 400 402 401
f 382 387 383
f 402 404 403
f 382 386 387
f 379 383 380
f 381 394 386
f 377 378 379
f 377 379 380
f 377 380 384
f 377 384 390
f 377 390 392
f 381 386 382
f 377 385 381
f 377 381 378
f 378 381 379
f 379 381 382
f 379 382 383
f 377 392 385
f 380 388 396
f 380 383 388
f 381 400 394
f 381 404 400
f 381 393 399
f 381 385 393
f 381 399 404
f 380 397 391
f 380 402 397
f 380 401 402
f 380 396 401
f 380 391 384
o coacd_part_0019
v 0.04653791322 -0.01719184609 0.002581127665
v 0.0465655531 -0.02475931342 0.002580754262
v 0.04653284636 -0.01718989039 -0.002582886344
v 0.0003499547449 -0.01674375893 0.002587389159
v 0.04656927274 -0.02476349764 0.002474662594
v 0.04504228715 -0.02741172564 0.002580763658
v 0.04505174847 -0.02741203433 0.002002575499
v 0.0457514104 -0.02623990298 -8.517694205e-07
v 0.04656551435 -0.02475943036 -0.002582467317
v 0.0003582364617 -0.01674440982 -0.002589057977
v 0.00035641755 -0.02707103734 0.002587324509
v 0.04656924558 -0.02476362435 -0.002476374775
v 0.04505147815 -0.02741161529 -0.002004305024
v 0.04504197224 -0.02741125912 -0.002582497974
v 0.0003575830659 -0.02707323477 -0.002589027481
f 409 412 416
f 408 414 419
f 408 419 415
f 413 417 418
f 410 415 419
f 412 413 416
f 410 418 417
f 410 417 411
f 411 417 412
f 412 417 413
f 407 419 414
f 410 419 418
f 407 418 419
f 405 410 406
f 406 412 409
f 407 413 418
f 405 409 416
f 405 416 413
f 405 413 407
f 405 407 414
f 405 406 409
f 405 408 415
f 405 415 410
f 406 410 411
f 406 411 412
f 405 414 408
o coacd_part_0020
v 0.04044655422 -0.02740608671 0.002581311574
v 0.0405527209 -0.03389690042 0.002581050377
v 0.04044157883 -0.02740230139 -0.002583025782
v 0.02054384426 -0.02721774905 0.002584036624
v 0.0384979352 -0.03689547728 0.0025812194
v 0.03851022119 -0.03689608485 0.001957984579
v 0.04055292567 -0.03389707266 -0.00258271226
v 0.02054645542 -0.02722035901 -0.002585691819
v 0.0205998413 -0.03668075575 0.00258345427
v 0.03851024231 -0.03689615744 -0.001959574064
v 0.03849804828 -0.03689570714 -0.00258280882
v 0.02060291509 -0.0366834085 -0.002585065521
f 422 431 427
f 426 429 430
f 424 429 425
f 424 430 429
f 424 431 430
f 424 428 431
f 423 431 428
f 423 427 431
f 422 426 430
f 422 430 431
f 421 425 429
f 421 424 425
f 420 424 421
f 420 428 424
f 420 423 428
f 420 427 423
f 420 422 427
f 420 426 422
f 420 421 426
f 421 429 426
o coacd_part_0021
v -0.03109575404 0.003748489075 0.002597323143
v -0.03109205824 -0.00631884576 0.002596669889
v -0.03110697889 0.003752114153 -0.002598725301
v -0.05214857908 0.003749762965 0.00261148539
v -0.0310975169 -0.006315234534 -0.002598298301
v -0.0516748853 -0.006359780667 0.002607844767
v -0.0521471886 0.003750136539 -0.00261210464
v -0.05221209301 0.00370862332 0.002532766725
v -0.05221184708 0.003706208148 0.002611622397
v -0.05167508268 -0.006359802012 -0.002609620772
v -0.05202137459 -0.003706612495 0.0026110461
v -0.0516893806 -0.006359574054 0.001335123153
v -0.05221052549 0.00370657363 -0.002612258987
v -0.05221073309 0.003708989314 -0.002533401902
v -0.05168950481 -0.006359568986 -0.001336905303
v -0.05202143132 -0.003706732516 -0.002612999552
v -0.0520213533 -0.003709043186 0.002532186883
v -0.05202140322 -0.003709157821 -0.00253414317
f 435 439 440
f 437 442 443
f 438 444 445
f 439 445 444
f 439 444 447
f 439 447 449
f 443 448 449
f 439 448 442
f 439 442 440
f 442 448 443
f 443 449 446
f 446 449 447
f 435 445 439
f 439 449 448
f 435 438 445
f 441 446 447
f 434 447 444
f 432 433 436
f 432 436 434
f 432 434 438
f 432 438 435
f 432 435 440
f 432 440 442
f 432 442 437
f 434 444 438
f 433 437 443
f 433 443 446
f 433 446 441
f 433 441 436
f 434 436 441
f 434 441 447
f 432 437 433
o coacd_part_0022
v 0.05080684664 -0.006562596987 0.002581281134
v 0.05075740587 -0.01451908119 0.00258082279
v 0.05080391343 -0.0065623881 -0.002582935907
v 0.004666233333 -0.006484566667 0.0024994
v 0.04983462543 -0.01719665503 0.002580733036
v 0.0498474989 -0.01719765084 0.00154918658
v 0.05075737511 -0.01452033469 0.002520176591
v 0.05075717953 -0.01451903059 -0.002582557236
v 0.004631466667 -0.006454166667 -0.0025006
v 0.0048931 -0.0059227 0.001373233333
v 0.0003338 -0.007470433333 0.0013741
v 0.000827 -0.007720066667 0.0024994
v 0.0003503588413 -0.01674270794 0.002587389083
v 0.04984728312 -0.01719753979 -0.001551012875
v 0.05019012334 -0.0161992453 -8.86448794e-07
v 0.05075715515 -0.01452028528 -0.002521910936
v 0.04983429116 -0.01719649627 -0.002582569501
v 0.0008184333333 -0.007713933333 -0.0025006
v 0.0003338 -0.007470433333 -0.001398666667
v 0.0048932 -0.0059226 -0.001399966667
v 0.0003586399904 -0.01674336389 -0.002589057907
f 454 470 466
f 454 466 463
f 454 463 455
f 455 463 464
f 455 464 456
f 456 464 465
f 457 465 463
f 457 463 466
f 459 469 468
f 458 468 469
f 459 468 460
f 460 468 467
f 460 467 470
f 460 470 462
f 454 462 470
f 463 465 464
f 458 467 468
f 460 462 461
f 453 460 461
f 452 467 458
f 453 459 460
f 450 456 465
f 450 465 457
f 450 457 452
f 450 452 458
f 450 458 469
f 450 469 459
f 450 459 453
f 450 451 456
f 450 461 462
f 450 462 454
f 450 454 451
f 451 454 455
f 451 455 456
f 452 457 466
f 452 466 470
f 452 470 467
f 450 453 461
o coacd_part_0023
v 0.03860206889 0.03697416775 0.00190908186
v 0.03860207181 0.03697419441 -0.001910619391
v 0.03858518368 0.03697353209 0.002585470339
v 0.04065945524 0.03392077976 0.002558010467
v 0.03858520684 0.03697359711 -0.002586502727
v 0.04065857416 0.03392017585 -0.002558979935
v 0.04065910658 0.03392027569 0.002584788798
v -0.0378618829 0.03694706005 0.002595011112
v 0.04065823149 0.03391967365 -0.002585758306
v -0.0378622626 0.03694757486 -0.002595879176
v 0.04053406342 0.02681503063 0.002584638437
v -0.03787519029 0.03694436759 0.001916243832
v -0.03991841034 0.03388998821 0.002588596313
v -0.03991789273 0.03388648041 0.002595709797
v 0.04054077542 0.02682158312 -0.002585527049
v -0.03991779857 0.03388646285 -0.002596550509
v -0.03991831816 0.03388997119 -0.002589437219
v -0.03787577652 0.03694523208 -0.001917110812
v -0.03980384012 0.02679955864 0.002597084596
v -0.03980451958 0.02680274832 -0.002597745165
f 483 489 484
f 475 485 490
f 475 490 486
f 475 486 480
f 478 482 483
f 478 483 484
f 480 486 487
f 482 487 483
f 481 489 490
f 481 490 485
f 482 488 487
f 483 487 486
f 483 486 490
f 483 490 489
f 475 476 479
f 480 487 488
f 474 479 476
f 475 479 485
f 474 481 485
f 471 472 475
f 471 475 480
f 471 480 488
f 471 488 482
f 471 482 478
f 471 478 473
f 471 473 474
f 471 474 476
f 474 485 479
f 472 476 475
f 473 477 474
f 473 478 484
f 473 484 489
f 473 489 481
f 473 481 477
f 474 477 481
f 471 476 472
o coacd_part_0024
v 0.0003484782739 -0.05258502613 -1.482214269e-05
v 0.000348479236 -0.05258503358 1.35277987e-05
v 0.0003486690081 -0.0525283226 -0.002587913286
v 0.002104446407 -0.05257862665 -0.002587301105
v 0.002103238561 -0.05257870378 -0.002525027489
v 0.0003487238264 -0.05252909571 0.002586552375
v 0.002103309461 -0.05258005746 0.002523745284
v 0.00210460244 -0.05257990914 0.002586018552
v 0.0003531096476 -0.02707323112 -0.002589028273
v 0.009451260134 -0.05242539495 -0.002585959182
v 0.0003519419655 -0.02707103223 0.002587325199
v 0.009451404744 -0.05242418363 0.00258452565
v 0.01281737228 -0.02713939706 -0.002586964516
v 0.0128964396 -0.05085324185 -0.002585218771
v 0.01289652606 -0.05085610905 -0.002531072158
v 0.009468748225 -0.05242428039 -0.001578744294
v 0.01281418852 -0.02713597448 0.002585299253
v 0.009468802831 -0.05242389357 0.001577311565
v 0.01289635914 -0.05085568649 0.002529603747
v 0.01289627204 -0.05085280455 0.002583751171
f 496 502 510
f 496 510 507
f 496 507 501
f 499 501 507
f 499 507 503
f 500 504 505
f 500 505 506
f 503 510 509
f 502 509 510
f 503 507 510
f 503 509 505
f 503 505 504
f 505 509 508
f 505 508 506
f 494 497 495
f 502 508 509
f 494 498 497
f 496 498 502
f 494 508 502
f 494 502 498
f 491 492 496
f 491 496 501
f 491 501 499
f 491 499 493
f 491 494 495
f 491 495 497
f 491 497 492
f 491 493 494
f 492 498 496
f 493 499 503
f 493 503 504
f 493 504 500
f 493 500 494
f 494 500 506
f 492 497 498
f 494 506 508
o coacd_part_0025
v 0.0405486537 0.02682159288 -0.002585525705
v 0.04547339947 0.02682430691 -0.002584686768
v 0.0405419575 0.026815056 0.00258463706
v 0.04066462562 0.03392196299 -0.00258580076
v 0.04549413587 0.02682409751 -0.0009652810258
v 0.04896832403 0.03238332597 -0.002584732317
v 0.045473261 0.02682433412 0.00258382934
v 0.04066548989 0.03392255814 0.002584831385
v 0.04066446259 0.03392332314 -0.00255897986
v 0.04331417205 0.035271439 -0.002585151376
v 0.04549409695 0.0268241104 0.000964417262
v 0.04945884318 0.03315439769 -4.679030428e-07
v 0.05048630635 0.03503340578 -0.002584435362
v 0.0489678003 0.03238262416 0.002583804562
v 0.04331183545 0.03527031158 0.002584242044
v 0.04066534367 0.03392392706 0.002558010541
v 0.04249854393 0.03490361452 -4.615576804e-07
v 0.04472507676 0.03582181273 -4.63182116e-07
v 0.04616671304 0.03627558434 -0.002584799844
v 0.05048627254 0.03503336534 0.002583509758
v 0.04913514569 0.03689598557 -0.002584471138
v 0.04981974465 0.03597142503 5.312896384e-05
v 0.04616567323 0.03627518381 0.00258387985
v 0.04704725484 0.03650280741 -4.641646388e-07
v 0.04913511119 0.03689595733 0.002583547541
f 521 522 524
f 520 528 529
f 520 525 528
f 520 527 525
f 518 525 526
f 519 526 527
f 517 521 524
f 522 523 530
f 519 527 520
f 522 530 524
f 530 532 535
f 523 532 530
f 533 535 534
f 525 533 528
f 525 527 526
f 528 533 529
f 529 533 534
f 529 534 531
f 531 534 535
f 531 535 532
f 516 523 522
f 523 531 532
f 515 522 521
f 511 514 520
f 514 519 520
f 515 516 522
f 511 512 515
f 511 515 521
f 511 521 517
f 511 517 513
f 511 518 526
f 511 526 519
f 511 519 514
f 511 520 529
f 511 529 531
f 511 513 518
f 511 523 516
f 511 516 512
f 512 516 515
f 513 517 524
f 513 524 530
f 513 530 535
f 513 535 533
f 513 533 525
f 511 531 523
f 513 525 518
o coacd_part_0026
v -0.05282557251 0.02591259647 -2.386980809e-07
v -0.05191503635 0.02587348292 0.002599314196
v -0.05191496326 0.0258734965 -0.002599789605
v -0.05495526666 0.02586256187 -0.002599630818
v -0.05495526963 0.0258625583 0.002599152852
v -0.04890087366 0.02548157908 0.002599226149
v -0.05040126564 0.02572773347 -2.406895491e-07
v -0.04890093155 0.02548164107 -0.002599692582
v -0.05589064128 0.02376125952 -0.002599794518
v -0.05543354749 0.02481620671 5.368234375e-05
v -0.05589064259 0.02376125083 0.002599314956
v -0.04602555094 0.02471098568 0.002598506304
v -0.04602547984 0.02471281532 0.002521162643
v -0.04801025559 0.02528720524 -2.590333736e-07
v -0.04602554144 0.02471272995 -0.002521759959
v -0.04602561434 0.0247109009 -0.00259910328
v -0.0538639835 0.02149444923 -0.002600065793
v -0.05450201815 0.02214421765 -2.381069913e-07
v -0.05386399647 0.02149442067 0.002599585862
v -0.04600762871 0.01789680191 0.002600746126
v -0.04600685266 0.0178971143 -0.00260122567
v -0.05155304397 0.0195147873 -0.002600515076
v -0.05274172078 0.02046578927 -2.428844478e-07
v -0.05155334202 0.01951494046 0.002600031336
v -0.04907385393 0.01790458781 0.002601069238
v -0.04907394325 0.01790457736 -0.00260164177
v -0.05081383669 0.01898340502 -2.630905564e-07
v -0.04907708242 0.01790407009 0.002495180838
v -0.04907717913 0.01790406402 -0.002495753836
f 552 554 553
f 548 550 549
f 547 550 548
f 547 551 550
f 547 556 551
f 544 552 553
f 546 553 554
f 544 553 546
f 543 550 551
f 552 557 558
f 547 555 556
f 552 558 554
f 561 564 562
f 555 560 563
f 555 563 564
f 555 564 561
f 555 561 556
f 557 561 562
f 557 562 559
f 557 559 558
f 559 562 560
f 560 562 563
f 562 564 563
f 543 549 550
f 554 558 559
f 541 549 543
f 544 546 545
f 541 547 548
f 536 537 538
f 536 539 540
f 536 540 537
f 537 540 546
f 537 546 554
f 537 554 559
f 537 559 560
f 537 560 555
f 537 555 547
f 537 547 541
f 537 541 542
f 537 542 538
f 536 538 539
f 538 543 551
f 541 543 542
f 540 545 546
f 541 548 549
f 538 542 543
f 539 544 545
f 539 545 540
f 538 552 544
f 538 557 552
f 538 561 557
f 538 556 561
f 538 551 556
f 538 544 539
o coacd_part_0027
v 0.0498472846 -0.01719827509 0.001549186564
v 0.04984706881 -0.01719816405 -0.001551012892
v 0.04983536475 -0.01719826726 0.002580723609
v 0.05448565082 -0.02150014629 0.002580167769
v 0.04983503199 -0.01719810898 -0.002582560141
v 0.05448547288 -0.02150000806 -0.002581972831
v 0.04654245017 -0.01719270654 0.002581127081
v 0.05651286089 -0.0237662608 0.002579856789
v 0.05512352164 -0.02215010193 -4.015731314e-07
v 0.04653737908 -0.01719075535 -0.002582885887
v 0.05651285144 -0.02376626062 -0.002581663033
v 0.04657008787 -0.02475912953 0.002580753786
v 0.05557805231 -0.02586458032 0.00257985918
v 0.05605579733 -0.02481979765 5.262255189e-05
v 0.04657005306 -0.02475924854 -0.002582466813
v 0.05557804105 -0.02586457248 -0.002581666529
v 0.04657024023 -0.02476180081 0.002474618571
v 0.04953256861 -0.02548392117 0.002580415252
v 0.05254233699 -0.02587532334 0.0025801616
v 0.05345096603 -0.02591447789 -9.024599852e-07
v 0.04657006833 -0.024760125 -0.002569321329
v 0.0495317225 -0.02548373279 -0.002582229165
v 0.05254203195 -0.0258752707 -0.002581970675
v 0.0465702132 -0.02476192779 -0.002476330745
v 0.04864581221 -0.02528985706 -8.900799878e-07
v 0.0510304549 -0.02572966497 -9.012812354e-07
f 577 583 584
f 577 580 578
f 576 581 582
f 575 578 580
f 571 588 581
f 572 577 578
f 572 575 573
f 571 581 576
f 577 584 580
f 572 578 575
f 579 586 585
f 582 589 586
f 581 588 589
f 581 589 582
f 582 586 590
f 582 590 583
f 583 587 584
f 583 590 587
f 585 586 588
f 586 587 590
f 586 589 588
f 571 585 588
f 580 584 587
f 571 579 585
f 570 573 575
f 565 570 566
f 571 574 579
f 565 566 569
f 565 569 574
f 565 574 571
f 565 571 567
f 565 567 568
f 565 568 570
f 566 570 569
f 567 571 576
f 567 582 583
f 567 576 582
f 567 577 572
f 567 572 568
f 568 572 573
f 568 573 570
f 569 570 575
f 569 575 580
f 569 580 587
f 569 587 586
f 569 586 579
f 569 579 574
f 567 583 577
o coacd_part_0028
v 0.002103470633 -0.05257959959 -0.002525033198
v 0.002103542362 -0.05258095424 0.002523752515
v 0.002104530645 -0.05257942975 -0.002587300898
v 0.002592522664 -0.05456224094 -6.304810554e-07
v 0.002104686552 -0.05258071267 0.002586018361
v 0.00945202308 -0.05242621002 -0.002585958838
v 0.002863745496 -0.05541103972 -0.002586499863
v 0.002862814954 -0.0554080245 0.002585229826
v 0.00945216811 -0.05242499935 0.002584525301
v 0.009468707651 -0.05242509879 -0.001578743703
v 0.009426639862 -0.05374128952 -6.907514823e-07
v 0.0093356787 -0.05466381895 -0.002586115413
v 0.004021561661 -0.05819392541 -0.002586107734
v 0.003396476605 -0.05682281569 -6.444756142e-07
v 0.004020983811 -0.05819246449 0.002584817522
v 0.009468762305 -0.05242471147 0.001577311005
v 0.009335971237 -0.05466107483 0.002584764244
v 0.009105731842 -0.05617388689 -6.706483724e-07
v 0.00877529783 -0.0576695254 -0.002585988934
v 0.005543366051 -0.06080788257 -0.002585783327
v 0.004440786463 -0.05899775109 -6.495314123e-07
v 0.005543354131 -0.06080780699 0.002584489282
v 0.008775536293 -0.05766822513 0.002584683906
v 0.008530999501 -0.05854809281 -6.578246509e-07
v 0.007823381962 -0.06056582631 -0.002585713535
v 0.00668437885 -0.06069765199 -5.42651959e-05
v 0.007823380753 -0.06056577116 0.002584415741
f 601 607 602
f 602 608 609
f 602 607 608
f 600 606 601
f 597 603 604
f 599 601 606
f 598 604 605
f 597 604 598
f 603 610 611
f 599 607 601
f 603 611 605
f 615 617 616
f 605 611 612
f 607 613 608
f 608 613 609
f 609 614 615
f 609 613 614
f 610 612 611
f 610 616 612
f 612 616 617
f 613 617 614
f 614 617 615
f 603 605 604
f 596 601 602
f 610 615 616
f 595 607 599
f 591 592 595
f 591 595 599
f 591 606 600
f 591 600 596
f 596 600 601
f 591 596 593
f 591 593 594
f 591 594 592
f 592 594 595
f 593 596 602
f 593 602 609
f 591 599 606
f 593 615 610
f 593 609 615
f 595 613 607
f 595 612 617
f 595 605 612
f 595 598 605
f 595 617 613
f 594 597 598
f 593 597 594
f 593 603 597
f 593 610 603
f 594 598 595
o coacd_part_0029
v -0.02311731408 -0.04782156768 0.001445196128
v -0.02311745569 -0.04782164087 -0.001446819146
v -0.02314154911 -0.04782171208 0.002590779775
v -0.02384882456 -0.04876310649 -8.042156097e-07
v -0.02314184337 -0.04782195004 -0.002592404556
v -0.02445624199 -0.04944651125 0.002590651623
v -0.03049692958 -0.04783854325 0.002590450419
v -0.02445662443 -0.04944698172 -0.002592266491
v -0.030496844 -0.04783853341 -0.002592103121
v -0.02666571343 -0.05153694703 0.00259047015
v -0.0255258937 -0.05052814453 -8.113304785e-07
v -0.03054289546 -0.04783890789 0.0002949229925
v -0.0308104235 -0.04915337394 0.002590396954
v -0.02666577332 -0.05153703671 -0.002592094517
v -0.03081040283 -0.04915347089 -0.002592033971
v -0.03054289524 -0.04783891859 -0.000298596097
v -0.02737788785 -0.05210292722 -8.102514832e-07
v -0.0291292343 -0.05331494281 0.00259026214
v -0.0309440986 -0.0500522346 -1.32165161e-06
v -0.03111716509 -0.05216876931 0.002590208523
v -0.02912922991 -0.05331494784 -0.002591888437
v -0.03111715741 -0.05216877722 -0.002591838263
v -0.03012872719 -0.05275133487 -8.140464131e-07
f 623 628 625
f 629 633 632
f 624 629 630
f 625 628 631
f 626 632 633
f 627 634 631
f 627 631 628
f 627 635 634
f 629 632 630
f 635 637 640
f 630 636 637
f 631 634 638
f 632 639 636
f 634 635 638
f 635 640 638
f 636 639 637
f 637 639 640
f 638 640 639
f 623 627 628
f 630 632 636
f 622 632 626
f 622 639 632
f 622 638 639
f 618 619 622
f 618 622 626
f 618 626 633
f 618 633 629
f 618 624 620
f 618 620 621
f 618 621 619
f 619 621 622
f 620 623 621
f 618 629 624
f 620 630 637
f 620 637 635
f 620 635 627
f 620 627 623
f 621 623 625
f 621 625 622
f 622 625 631
f 622 631 638
f 620 624 630
o coacd_part_0030
v -0.00879169806 -0.05243095027 -0.001979122801
v -0.008791787957 -0.05243075634 0.001977666094
v -0.008782366617 -0.05243113664 -0.002590492525
v -0.008623735822 -0.05488526986 -0.002589958039
v -0.008719870696 -0.05400605625 -6.999620648e-07
v -0.008782464658 -0.05243090487 0.002589018399
v -0.008623734924 -0.05488514972 0.002588484656
v -0.00142850699 -0.05258683788 -0.002588532489
v -0.008063041674 -0.05776710134 -0.002589596614
v -0.008389454979 -0.0563345118 -7.371941439e-07
v -0.00142857415 -0.05258702056 0.002587092115
v -0.008063003727 -0.05776716887 0.002588122864
v -0.0014273188 -0.0525869206 -0.002517081892
v -0.002181949826 -0.05539611163 -0.002589252105
v -0.007141006145 -0.06054884228 -0.00258935731
v -0.007824412278 -0.05861165938 -7.359519462e-07
v -0.001427383642 -0.05258709913 0.002515641543
v -0.002182040923 -0.05539624895 0.002587782892
v -0.007140996092 -0.06054884348 0.00258788362
v -0.001912959848 -0.0545537343 -7.298189997e-07
v -0.002715459119 -0.05680898392 -7.353433009e-07
v -0.003339690078 -0.05817674947 -0.002589373801
v -0.004860943486 -0.06079065719 -0.00258922703
v -0.006002054416 -0.06068048847 5.296085148e-05
v -0.003339800103 -0.05817692827 0.002587900689
v -0.004860962564 -0.0607906741 0.002587753536
v -0.003758954195 -0.05898143962 -7.361666671e-07
f 654 660 658
f 653 657 660
f 653 660 654
f 652 656 659
f 648 653 654
f 649 652 650
f 649 656 652
f 649 655 656
f 654 658 661
f 651 658 657
f 654 661 662
f 665 666 667
f 655 664 659
f 655 659 656
f 657 658 660
f 658 665 661
f 659 664 666
f 661 665 662
f 662 665 667
f 662 667 663
f 647 650 652
f 663 666 664
f 663 667 666
f 655 663 664
f 646 658 651
f 641 651 657
f 646 666 665
f 646 665 658
f 641 642 646
f 641 646 651
f 641 657 653
f 641 653 648
f 641 648 643
f 641 643 644
f 641 645 642
f 642 645 647
f 642 647 646
f 643 648 654
f 641 644 645
f 643 662 663
f 643 654 662
f 646 652 659
f 646 647 652
f 644 647 645
f 644 650 647
f 646 659 666
f 643 649 644
f 643 655 649
f 643 663 655
f 644 649 650
o coacd_part_0031
v 0.05239952349 -0.006564938179 0.001606537477
v 0.0523994131 -0.006564917823 -0.001608205284
v 0.05238867904 -0.006565184676 0.002581100695
v 0.0578010783 -0.00975530334 0.00258040584
v 0.05649448646 -0.008985676971 -8.542964894e-07
v 0.05238857089 -0.006565126394 -0.002582768616
v 0.05780104685 -0.009755291324 -0.002582126884
v 0.05080777974 -0.00656259941 0.002581281029
v 0.06025002974 -0.01154666593 0.002580096514
v 0.05855902537 -0.01025745218 -8.598293105e-07
v 0.05080484786 -0.006562390818 -0.002582935801
v 0.06025002619 -0.01154666704 -0.002581821107
v 0.05075833534 -0.01451916776 0.002580822733
v 0.05977173304 -0.01379241216 0.002580089417
v 0.06002142048 -0.01267106834 5.266687535e-05
v 0.05075810899 -0.01451911717 -0.002582557181
v 0.05977173674 -0.01379240389 -0.002581815932
v 0.05075829816 -0.01452038778 0.00252018298
v 0.05284232196 -0.01467201946 -8.67450206e-07
v 0.05375939292 -0.01467814419 0.002580645438
v 0.05679634965 -0.01443429493 0.002580395673
v 0.05769572622 -0.01428380436 -8.638900711e-07
v 0.05075807818 -0.01452033837 -0.002521917327
v 0.05375910324 -0.01467809913 -0.002582386872
v 0.0567962951 -0.01443427537 -0.002582124657
v 0.05528154655 -0.01460676807 -8.659139617e-07
f 681 684 682
f 675 683 690
f 675 690 685
f 675 685 680
f 676 681 682
f 676 679 677
f 679 682 684
f 680 685 686
f 680 686 687
f 681 688 689
f 675 678 683
f 683 691 686
f 683 686 690
f 684 689 692
f 685 690 686
f 686 691 687
f 687 691 693
f 687 693 688
f 688 692 689
f 688 693 692
f 691 692 693
f 681 689 684
f 674 677 679
f 676 682 679
f 673 691 683
f 668 673 678
f 668 678 675
f 668 675 670
f 668 670 671
f 668 671 672
f 668 672 669
f 669 672 674
f 669 674 673
f 670 675 680
f 670 680 687
f 670 687 688
f 668 669 673
f 670 681 676
f 670 676 671
f 671 676 677
f 671 677 674
f 673 683 678
f 671 674 672
f 673 674 679
f 673 679 684
f 673 684 692
f 673 692 691
f 670 688 681
o coacd_part_0032
v -0.04968469683 -0.03498397363 -0.002594352037
v -0.04833521632 -0.03684341638 -0.002594262968
v -0.04901875823 -0.03592017716 5.293111913e-05
v -0.04968469408 -0.03498397299 0.00259264213
v -0.04865771259 -0.03310741192 -8.537568105e-07
v -0.04816765756 -0.03233671591 -0.002594723061
v -0.04833523162 -0.03684341938 0.002592551576
v -0.04537333405 -0.03622437955 -0.002594559459
v -0.04625202446 -0.03645129313 -8.552579843e-07
v -0.04816768346 -0.03233676145 0.002593015478
v -0.04727717579 -0.03109012624 -8.487470894e-07
v -0.04630790393 -0.02990802152 -0.002595204651
v -0.04537346685 -0.03622442112 0.002592846166
v -0.04252740998 -0.03522196508 -0.002594665908
v -0.04393606994 -0.03577216257 -8.667826571e-07
v -0.04630792101 -0.02990805152 0.002593510374
v -0.04568420204 -0.02922335937 -8.362977823e-07
v -0.04412849827 -0.02773051572 -0.002596219995
v -0.04252760962 -0.03522205379 0.002592943508
v -0.04141375982 -0.03465520894 -0.00259452077
v -0.04171656993 -0.03485697916 -8.653043745e-07
v -0.04412839948 -0.02773039968 0.002594580969
v -0.04132222086 -0.027729345 -0.002596100491
v -0.04141385024 -0.03465524956 0.002592789344
v -0.04141642139 -0.03469654036 -0.000422778856
v -0.04141641143 -0.03469653606 0.0004210460815
v -0.04132151359 -0.02772963246 0.002594366802
f 707 712 708
f 706 708 712
f 705 710 711
f 705 709 710
f 701 706 702
f 703 709 704
f 701 708 706
f 701 707 708
f 707 713 714
f 704 709 705
f 707 714 712
f 712 714 717
f 710 715 711
f 711 715 720
f 711 720 716
f 713 718 714
f 713 716 720
f 713 720 717
f 713 717 719
f 713 719 718
f 714 719 717
f 700 702 706
f 709 715 710
f 699 704 705
f 714 718 719
f 698 703 699
f 694 695 696
f 694 696 697
f 694 697 698
f 694 698 699
f 694 699 705
f 694 705 711
f 694 711 716
f 694 716 713
f 694 713 707
f 694 707 701
f 694 701 695
f 699 703 704
f 695 701 702
f 695 702 700
f 696 700 697
f 697 700 706
f 697 706 712
f 697 712 717
f 697 717 720
f 697 720 715
f 697 715 709
f 697 709 703
f 697 703 698
f 695 700 696
o coacd_part_0033
v -0.05001814241 -0.006358805142 0.002606730446
v -0.0499758387 -0.01451004193 0.002602092924
v -0.05002286825 -0.006358631358 -0.002608458782
v -0.05167527222 -0.006359717821 0.002607838972
v -0.04997583086 -0.01451494135 0.002577133794
v -0.05302764263 -0.01465990055 0.002604442872
v -0.04997613678 -0.01451316665 -0.002604191748
v -0.05167546818 -0.006359739099 -0.002609615021
v -0.051689392 -0.006359482094 0.00133512315
v -0.0570620494 -0.009740776045 0.002606263183
v -0.04997613067 -0.01451479537 -0.002579234787
v -0.05211181052 -0.01465406952 -9.933681821e-07
v -0.05605996698 -0.0144162631 0.002605556319
v -0.054547045 -0.01458870587 -9.485344992e-07
v -0.05302759446 -0.01465992062 -0.002606377174
v -0.05706185255 -0.009740664032 -0.002608037038
v -0.05168951621 -0.006359477027 -0.001336905307
v -0.05781990257 -0.01024229689 -3.844619138e-07
v -0.05950857858 -0.01153020995 0.002606648042
v -0.05903089961 -0.01377451147 0.002606190087
v -0.05695793329 -0.01426598911 -9.210690481e-07
v -0.05605970819 -0.01441631845 -0.002607394749
v -0.05950856898 -0.01153020129 -0.002608448126
v -0.0592804173 -0.01265426056 -5.505501621e-05
v -0.05903087829 -0.01377452428 -0.002608008521
f 730 738 739
f 730 736 738
f 729 736 730
f 726 734 735
f 728 736 737
f 727 731 735
f 726 735 732
f 731 732 735
f 729 737 736
f 733 740 741
f 739 743 744
f 733 742 734
f 734 742 735
f 736 743 738
f 738 743 739
f 739 744 740
f 740 744 745
f 740 745 741
f 741 745 742
f 726 733 734
f 733 741 742
f 743 745 744
f 725 732 731
f 724 729 730
f 725 726 732
f 721 722 725
f 721 725 731
f 721 731 727
f 721 727 723
f 721 728 737
f 721 737 729
f 721 729 724
f 721 724 730
f 721 730 739
f 721 723 728
f 721 740 733
f 721 733 726
f 721 726 722
f 722 726 725
f 723 727 735
f 723 735 742
f 723 742 745
f 723 745 743
f 723 743 736
f 721 739 740
f 723 736 728
o coacd_part_0034
v 0.04505161075 -0.02741226496 0.002002575496
v 0.04505134043 -0.02741184592 -0.002004305027
v 0.04504443925 -0.02741200633 0.002580750216
v 0.04799620204 -0.03110725143 -3.975949149e-07
v 0.04504412636 -0.0274115408 -0.00258248452
v 0.04702700428 -0.0299256909 0.002580500164
v 0.04044753265 -0.02740702265 0.00258131141
v 0.04702733989 -0.02992605414 -0.002582307838
v 0.04888551669 -0.03235299235 0.002580270936
v 0.04888587604 -0.03235349462 -0.002582055127
v 0.04044255877 -0.02740323848 -0.002583025625
v 0.04055329858 -0.03389626393 0.002581044954
v 0.05040275294 -0.03499911299 0.002579971097
v 0.04937622745 -0.03312366338 -3.842417399e-07
v 0.05040277502 -0.03499914612 -0.002581749629
v 0.0405535034 -0.03389643619 -0.002582706853
v 0.04055314091 -0.03389774491 0.002538086518
v 0.04323832456 -0.03523330132 0.00258060242
v 0.04905394057 -0.03685796856 0.002579982865
v 0.0497369178 -0.03593480854 5.263728482e-05
v 0.04905396032 -0.03685798166 -0.002581755443
v 0.0405533437 -0.03389791491 -0.002539748293
v 0.04323991966 -0.03523410248 -0.002582322791
v 0.0424243013 -0.03486651944 -8.504968461e-07
v 0.0446490835 -0.03578458958 -8.725897589e-07
v 0.04608802472 -0.03623776613 0.002580295549
v 0.04696773721 -0.03646488097 -8.831973681e-07
v 0.04608859893 -0.03623799044 -0.002582058735
f 760 765 766
f 758 765 760
f 758 764 765
f 758 760 759
f 757 762 763
f 752 762 757
f 754 759 755
f 754 758 759
f 752 767 762
f 761 768 767
f 755 759 760
f 762 767 769
f 768 773 770
f 763 768 770
f 763 770 771
f 763 769 768
f 764 766 765
f 771 773 772
f 764 771 772
f 764 772 766
f 766 772 773
f 767 768 769
f 770 773 771
f 752 761 767
f 762 769 763
f 752 756 761
f 747 749 750
f 750 768 761
f 750 761 756
f 746 747 750
f 746 750 756
f 746 756 752
f 746 752 748
f 746 748 749
f 746 749 747
f 748 752 757
f 748 757 763
f 748 763 771
f 748 771 764
f 748 751 749
f 748 758 754
f 750 773 768
f 748 764 758
f 750 760 766
f 750 755 760
f 750 753 755
f 750 766 773
f 749 754 755
f 749 751 754
f 749 753 750
f 748 754 751
f 749 755 753
o coacd_part_0035
v 0.03851098099 -0.03689720471 0.001957984588
v 0.03851100212 -0.0368972773 -0.001959574055
v 0.038497688 -0.03689637527 0.002581219535
v 0.03985222871 -0.03898095804 0.002581023732
v 0.03940318572 -0.03821227555 -7.838453297e-07
v 0.03985276898 -0.03898186022 -0.002582578206
v 0.03849780234 -0.03689660666 -0.002582808946
v 0.03257920322 -0.03678725479 0.002581818925
v 0.04114692145 -0.04170384436 0.002580795137
v 0.04054662874 -0.04032335283 -7.810329272e-07
v 0.04114716759 -0.04170433787 -0.002582346135
v 0.03257914683 -0.03678643679 -0.002583441825
v 0.03256853717 -0.04133904202 0.002581522024
v 0.04207179532 -0.04458256872 0.002580486396
v 0.04146416552 -0.04255370343 -7.777122951e-07
v 0.04207181149 -0.04458258679 -0.002582038168
v 0.03256877834 -0.04133918607 -0.002583168973
v 0.03422025819 -0.04273442804 -7.966233963e-07
v 0.03496659357 -0.04328475702 0.002581146063
v 0.04036807512 -0.04611449275 0.002580500952
v 0.04122724215 -0.04535654195 -7.765846145e-07
v 0.04036809631 -0.04611450813 -0.00258205417
v 0.03496776108 -0.04328558084 -0.002582714106
v 0.03624467255 -0.04412595997 -7.848572613e-07
v 0.03757735965 -0.04488193916 0.002580824924
v 0.03839444918 -0.04528861246 -7.799631462e-07
v 0.03757788258 -0.04488225103 -0.002582380306
f 787 793 794
f 781 785 790
f 782 787 788
f 782 788 784
f 782 784 783
f 784 788 789
f 786 791 792
f 786 790 791
f 787 789 788
f 787 794 789
f 798 800 799
f 790 796 791
f 791 796 792
f 792 796 797
f 792 797 798
f 793 795 794
f 793 798 799
f 793 799 795
f 795 799 800
f 796 800 797
f 797 800 798
f 779 785 780
f 789 794 795
f 779 790 785
f 781 790 786
f 779 800 796
f 779 796 790
f 774 775 780
f 774 780 785
f 774 785 781
f 774 781 776
f 774 776 777
f 774 777 778
f 775 778 779
f 775 779 780
f 776 781 786
f 776 786 792
f 774 778 775
f 776 798 793
f 779 795 800
f 776 792 798
f 779 784 789
f 779 783 784
f 777 779 778
f 779 789 795
f 777 782 783
f 776 782 777
f 776 787 782
f 776 793 787
f 777 783 779
o coacd_part_0036
v -0.04141625224 -0.03469644995 -0.0004227788566
v -0.04141624228 -0.03469644564 0.0004210460809
v -0.04141374877 -0.03465424061 -0.00259452091
v -0.03753573968 -0.03646724846 -0.002593510461
v -0.04141383944 -0.03465428155 0.002592789482
v -0.03753505309 -0.03646627571 0.002591719217
v -0.04126920146 -0.01753111539 -0.00259971888
v -0.0312875873 -0.03633157602 -0.002593311058
v -0.04126432085 -0.01753267847 0.002597817602
v -0.03129537372 -0.03634042263 0.00259151149
v -0.03115451133 -0.0174744576 -0.002596747289
v -0.03114977939 -0.01747682824 0.002594859139
f 804 808 810
f 808 812 810
f 808 811 812
f 807 812 811
f 807 809 812
f 805 812 809
f 805 810 812
f 805 806 810
f 804 810 806
f 803 808 804
f 801 807 803
f 803 807 811
f 802 806 805
f 801 806 802
f 801 804 806
f 801 803 804
f 801 809 807
f 801 805 809
f 801 802 805
f 803 811 808
o coacd_part_0037
v -0.03109205824 -0.00631884576 0.002596669889
v -0.03114976535 -0.01747498492 0.00259485947
v -0.0310975169 -0.006315234534 -0.002598298301
v -0.05001814241 -0.006358805142 0.002606730446
v -0.03115449801 -0.01747261534 -0.002596747592
v -0.0489878337 -0.0175475798 0.002599649279
v -0.05002286825 -0.006358631358 -0.002608458782
v -0.04997583905 -0.01450971371 0.002602093151
v -0.04898787772 -0.01754761519 -0.002601328513
v -0.04997606442 -0.01451418124 0.002577133744
v -0.04899467819 -0.01754801503 0.002135133886
v -0.04997613718 -0.01451286028 -0.002604191998
v -0.04899469303 -0.01754805884 -0.002136815335
v -0.04997636423 -0.01451403525 -0.002579234837
v -0.04946431881 -0.01618009563 -9.408852002e-07
f 816 824 826
f 816 826 822
f 825 827 826
f 818 820 822
f 818 822 823
f 822 827 823
f 821 826 824
f 822 826 827
f 823 827 825
f 816 819 824
f 821 825 826
f 815 824 819
f 816 822 820
f 815 817 821
f 815 821 824
f 813 817 815
f 813 815 819
f 813 819 816
f 813 816 820
f 813 814 817
f 813 818 814
f 814 818 823
f 814 823 825
f 814 825 821
f 814 821 817
f 813 820 818
o coacd_part_0038
v -0.01165770286 -0.05098719012 -0.001700890383
v -0.01165766888 -0.05098720388 0.00169935349
v -0.01165761105 -0.05097714479 -0.002592052602
v -0.008781792393 -0.05243032865 -0.002590492599
v -0.008791743564 -0.05243016749 -0.001979123623
v -0.0116575962 -0.05097713339 0.002590517346
v -0.008791833482 -0.05242997353 0.001977666907
v -0.00878189042 -0.05243009665 0.002589018471
v -0.01111207996 -0.005566169343 -0.002565431223
v -0.001429300332 -0.05258601549 -0.002588532606
v -0.01124879124 -0.005624328233 0.002589523759
v -0.001429367581 -0.05258619762 0.002587092229
v -0.004802733333 -0.0058469 -0.0025006
v 0.0003474917364 -0.05252789626 -0.002587913723
v 0.0003472717425 -0.05258503243 -1.486571011e-05
v -0.001427187534 -0.0525864237 -0.002517084788
v -0.0047753 -0.005822033333 0.0024994
v -0.001427252372 -0.05258660223 0.002515644444
v 0.000347272638 -0.05258503958 1.357131834e-05
v 0.0003475464105 -0.05252866834 0.002586552745
v -0.004964933333 -0.005273833333 -0.0013973
v 0.0003338 -0.007470433333 -0.001398666667
v 0.0008235666667 -0.0074544 -0.002225133333
v -0.004963833333 -0.005275 0.001375366667
v 0.000827 -0.007720066667 0.0024994
v 0.0003338 -0.007470433333 0.0013741
f 840 849 850
f 836 844 851
f 836 851 848
f 836 848 840
f 837 841 842
f 837 842 843
f 839 845 846
f 839 846 847
f 840 848 849
f 841 850 849
f 842 845 843
f 841 853 852
f 841 852 847
f 841 847 846
f 841 846 842
f 842 846 845
f 833 844 838
f 844 852 853
f 844 853 851
f 848 851 853
f 848 853 849
f 841 849 853
f 833 852 844
f 836 838 844
f 833 839 847
f 828 829 833
f 828 833 838
f 828 838 836
f 833 847 852
f 828 830 831
f 828 831 832
f 828 832 834
f 828 834 829
f 829 834 835
f 829 835 833
f 830 836 840
f 828 836 830
f 830 850 841
f 830 841 837
f 830 837 831
f 831 837 843
f 831 843 845
f 831 845 839
f 831 839 835
f 831 835 834
f 831 834 832
f 833 835 839
f 830 840 850
o coacd_part_0039
v -0.03128742014 -0.0417648698 -0.001520560386
v -0.03128741388 -0.04176494311 0.001518706768
v -0.03128662747 -0.04174890941 -0.00259263334
v -0.03054288818 -0.04783888012 -0.000298593824
v -0.03128669904 -0.04174911425 0.00259076738
v -0.0305428884 -0.04783886943 0.0002949207208
v -0.03049665898 -0.04783853321 -0.002592103128
v -0.03110596074 0.003752111592 -0.002598724884
v -0.03049674454 -0.047838543 0.002590450427
v -0.03109473592 0.003748487318 0.002597322693
v -0.02314267216 -0.04782195275 -0.002592404516
v -0.0206892688 0.003716915851 -0.002594498
v -0.02314237825 -0.04782171463 0.002590779723
v -0.02067771538 0.003714591111 0.0025930621
v -0.0209983702 -0.04775788135 -0.002592686202
v -0.02099972815 -0.04779121767 -8.759707392e-05
v -0.02311745569 -0.04782164087 -0.001446819146
v -0.02311731408 -0.04782156768 0.001445196128
v -0.02099971965 -0.04779121328 8.591928119e-05
v -0.02099824966 -0.04775774107 0.002591022334
f 861 867 865
f 861 863 867
f 858 862 866
f 858 873 867
f 858 866 873
f 864 868 869
f 858 867 863
f 864 869 870
f 866 871 872
f 865 873 872
f 865 872 869
f 865 869 868
f 866 872 873
f 869 872 871
f 869 871 870
f 858 859 862
f 865 867 873
f 857 862 859
f 854 863 861
f 857 871 866
f 857 866 862
f 854 855 858
f 854 858 863
f 854 856 857
f 854 857 859
f 854 859 855
f 855 859 858
f 854 861 856
f 856 861 865
f 856 865 868
f 856 868 864
f 856 864 860
f 857 860 864
f 857 864 870
f 857 870 871
f 856 860 857
o coacd_part_0040
v 0.02977608502 0.04342536031 0.002587956847
v 0.03261989487 0.04137121409 0.00258668774
v 0.03261979171 0.04137583968 0.002580106679
v 0.03120725431 0.04242609078 -4.999340187e-07
v 0.02977620202 0.04342563782 -0.002588850623
v 0.02116005901 0.04337137641 0.00259022003
v 0.03262524941 0.03684949701 0.002586645456
v 0.03261960581 0.04137576099 -0.002581203729
v 0.03261970924 0.04137113559 -0.002587784778
v 0.02115916735 0.04336972361 -0.002591098618
v 0.02114488715 0.0367559651 0.002589617391
v 0.03262654493 0.03685030872 -0.002587689411
v 0.02114334141 0.03675279988 -0.002590561744
f 877 881 878
f 878 881 882
f 878 882 885
f 878 885 886
f 879 886 884
f 879 883 886
f 880 884 886
f 880 886 885
f 876 881 877
f 878 886 883
f 875 881 876
f 874 884 880
f 875 885 882
f 875 880 885
f 874 880 875
f 874 879 884
f 874 883 879
f 874 878 883
f 874 877 878
f 874 876 877
f 874 875 876
f 875 882 881
o coacd_part_0041
v 0.02115916735 0.04336972361 -0.002591098618
v 0.0211605425 0.04805780438 -0.002591236417
v 0.02325436328 0.0433772665 -0.002590462596
v 0.02116005901 0.04337137641 0.00259022003
v 0.02116031995 0.04807950386 -0.0008140663609
v 0.02325896843 0.04712435724 -0.002590379144
v 0.02325530833 0.04337817657 0.002589581203
v 0.02116043749 0.04805790643 0.002590557335
v 0.02166937117 0.0478628858 -3.413364694e-07
v 0.02116029412 0.04807955111 0.0008133888466
v 0.02325882024 0.04712436786 0.002589675859
f 890 893 897
f 890 897 894
f 891 895 892
f 889 897 893
f 892 895 897
f 894 897 896
f 895 896 897
f 891 896 895
f 889 892 897
f 887 889 893
f 887 891 888
f 887 888 892
f 887 892 889
f 887 893 890
f 888 891 892
f 887 894 896
f 887 896 891
f 887 890 894
o coacd_part_0042
v -0.03114799827 0.05220525396 -0.002595227232
v -0.03114799683 0.05220526646 0.002594090968
v -0.03015933471 0.05278893946 -5.437933624e-05
v -0.02915885963 0.05335394521 -0.002595276093
v -0.03084210755 0.04918714393 -0.002595562658
v -0.0309755288 0.0500863251 -4.854468074e-08
v -0.02915886226 0.05335395753 0.002594130202
v -0.03084214727 0.04918743151 0.002594443379
v -0.02740507123 0.05214025218 -5.717042644e-07
v -0.02669225293 0.05157400803 -0.002595665895
v -0.03013904501 0.0462391164 -0.002595750887
v -0.03053965726 0.04770235141 4.876547339e-07
v -0.02669243005 0.05157420303 0.002594512618
v -0.03013905805 0.04623938512 0.002594711978
v -0.0255510527 0.05056387879 -5.836377099e-07
v -0.02448021714 0.04948049247 -0.002596110564
v -0.02907031818 0.0434067627 -0.002595793733
v -0.0290712275 0.04340684977 -0.002567339206
v -0.02985429344 0.04537997214 5.157954082e-07
v -0.02448085638 0.04948121833 0.002594923559
v -0.02907113308 0.04340670236 0.002566440693
v -0.02907022477 0.04340661583 0.002594895227
v -0.02387209355 0.04879698332 -5.948775264e-07
v -0.02255580451 0.04711142436 -0.002588716682
v -0.02255587066 0.04710665568 -0.002596849664
v -0.02255029176 0.04336151334 -0.002596862868
v -0.02255614982 0.04711154326 0.002595672861
v -0.02255255315 0.04336327971 0.002595854316
f 906 910 907
f 907 912 913
f 911 918 919
f 907 910 912
f 908 911 909
f 908 914 915
f 908 915 916
f 908 916 911
f 910 917 912
f 911 916 918
f 912 917 913
f 914 923 925
f 913 921 922
f 913 917 920
f 905 909 911
f 914 925 919
f 914 919 918
f 914 918 915
f 915 918 916
f 917 924 920
f 920 924 921
f 921 925 923
f 921 923 922
f 913 920 921
f 904 910 906
f 921 924 925
f 902 908 909
f 902 909 905
f 898 900 901
f 898 901 907
f 898 907 913
f 898 913 922
f 898 922 923
f 898 923 914
f 898 914 908
f 898 908 902
f 898 902 903
f 898 903 899
f 899 904 900
f 898 899 900
f 899 905 911
f 899 911 919
f 899 919 925
f 899 925 924
f 899 924 917
f 899 917 910
f 899 910 904
f 900 904 901
f 901 906 907
f 901 904 906
f 899 903 905
f 902 905 903
o coacd_part_0043
v 0.02325457105 0.04337726711 -0.002590462532
v 0.02977590593 0.04342563708 -0.002588850713
v 0.02325551607 0.04337817732 0.002589581141
v 0.02325902862 0.04712449558 -0.002590375432
v 0.03056357985 0.04539597189 -4.609950634e-07
v 0.02977578892 0.0434253598 0.002587956955
v 0.03084772896 0.04625426686 -0.002589147153
v 0.02325888031 0.04712450621 0.002589672157
v 0.02457814285 0.04881148052 -3.884342633e-07
v 0.02518622194 0.04949558843 -0.002589566513
v 0.03084806444 0.04625513406 0.002588199882
v 0.03155129557 0.04920344109 -0.002589013262
v 0.03124877671 0.04771789142 -4.585785867e-07
v 0.02518649655 0.04949589 0.002588737848
v 0.02625762683 0.05057915685 -4.215123408e-07
v 0.02739975579 0.05158974849 -0.002589147612
v 0.03155140015 0.04920379645 0.002588109871
v 0.03185737222 0.0522226973 -0.002588720201
v 0.03168483763 0.05010271759 -4.502265871e-07
v 0.02740002018 0.05158998238 0.002588270915
v 0.02811276513 0.05215661659 -4.361963813e-07
v 0.02986750584 0.05337112284 -0.002588793979
v 0.03185738183 0.05222270905 0.002587826402
v 0.03086824514 0.05280628276 -5.412567896e-05
v 0.02986752217 0.0533711366 0.002587907726
f 937 944 942
f 937 943 944
f 936 938 942
f 932 938 936
f 935 939 940
f 934 939 935
f 933 939 934
f 937 942 938
f 935 940 941
f 939 945 940
f 943 947 949
f 941 945 946
f 941 946 947
f 942 944 948
f 943 949 948
f 943 948 944
f 945 950 946
f 946 950 947
f 947 950 949
f 948 949 950
f 932 937 938
f 940 945 941
f 930 936 931
f 928 936 942
f 929 934 935
f 926 927 931
f 926 931 928
f 926 928 933
f 926 933 929
f 926 929 935
f 930 932 936
f 926 941 947
f 926 947 943
f 926 943 937
f 926 937 932
f 926 935 941
f 927 930 931
f 927 932 930
f 928 931 936
f 928 942 948
f 928 948 950
f 928 950 945
f 928 945 939
f 928 939 933
f 929 933 934
f 926 932 927
o coacd_part_0044
v -0.02255006282 0.04336198165 -0.002596862924
v -0.02255564109 0.04710609915 -0.002596849711
v -0.02030908246 0.04335643238 -0.002597340134
v -0.022552324 0.04336374793 0.002595854357
v -0.02255573694 0.04711145575 -0.002588716682
v -0.02030962014 0.04811093063 -0.002597667047
v -0.02031138978 0.04335700528 0.002596235854
v -0.02255601631 0.0471114423 0.002595675306
v -0.0209647152 0.04785086468 -5.796095524e-07
v -0.02030951487 0.0481297716 -0.001051149904
v -0.02030975303 0.04811108189 0.002596487841
v -0.02030952581 0.04812982429 0.001049981823
f 954 957 961
f 954 961 958
f 955 959 960
f 953 961 957
f 955 958 959
f 959 962 960
f 958 962 959
f 955 960 956
f 953 962 961
f 958 961 962
f 953 956 960
f 952 955 956
f 951 955 952
f 951 958 955
f 951 954 958
f 951 957 954
f 951 953 957
f 951 956 953
f 951 952 956
f 953 960 962
o coacd_part_0045
v -0.04584598198 -0.01754245852 0.002599070187
v -0.04587767438 -0.02468875063 0.002596245447
v -0.04584693186 -0.01754189892 -0.002600817877
v -0.04898925553 -0.01754813052 0.002599640482
v -0.04587748289 -0.02468947727 0.00257693343
v -0.04880668263 -0.02546221366 0.002597051067
v -0.04587773437 -0.02468883441 -0.002597877562
v -0.0489892988 -0.01754816608 -0.00260131971
v -0.04899459698 -0.01754825156 0.002135133903
v -0.05144667248 -0.01950254573 0.002598036063
v -0.04587754231 -0.02468956032 -0.002578565611
v -0.04792079804 -0.02526895877 -1.371908626e-06
v -0.05181388886 -0.02585375436 0.002597225991
v -0.05030398483 -0.02570838427 -1.898721747e-06
v -0.04880639232 -0.02546213527 -0.002598813694
v -0.05144685806 -0.0195026353 -0.002599789521
v -0.04899461182 -0.01754829537 -0.002136815317
v -0.05263399175 -0.02045255323 -8.739839438e-07
v -0.05375596246 -0.02148040233 0.002597549753
v -0.05484820122 -0.02584331003 0.002597100352
v -0.05272128374 -0.02589284619 -1.893847577e-06
v -0.05181381202 -0.02585374207 -0.002598982602
v -0.05375595005 -0.02148035876 -0.00259930492
v -0.05439344376 -0.02212969784 -8.768769305e-07
v -0.05578210332 -0.02374540791 0.002597288504
v -0.05532502715 -0.0247984965 -5.477220102e-05
v -0.05484819736 -0.02584331063 -0.002598855563
v -0.05578210256 -0.02374539769 -0.002599043228
f 975 983 984
f 975 982 983
f 973 974 977
f 972 978 980
f 968 977 974
f 971 979 978
f 970 978 979
f 969 973 977
f 975 984 976
f 971 978 972
f 976 984 977
f 982 987 988
f 980 985 981
f 981 985 986
f 981 986 987
f 968 976 977
f 982 988 989
f 982 989 983
f 983 989 984
f 985 990 986
f 986 990 987
f 987 990 988
f 988 990 989
f 978 985 980
f 968 975 976
f 972 980 981
f 967 968 974
f 967 974 973
f 963 964 967
f 963 967 973
f 963 973 969
f 963 969 965
f 963 965 970
f 963 970 979
f 963 979 971
f 963 966 972
f 963 972 981
f 963 981 987
f 963 987 982
f 963 971 966
f 963 975 968
f 966 971 972
f 963 982 975
f 965 985 978
f 965 990 985
f 965 989 990
f 965 984 989
f 965 978 970
f 965 969 977
f 964 968 967
f 963 968 964
f 965 977 984
o coacd_part_0046
v 0.05355334771 0.0259328799 -9.441936719e-07
v 0.05264229415 0.02589383502 -0.002583573669
v 0.05264207908 0.02589381399 0.002582696077
v 0.05568510583 0.02588303137 0.00258238102
v 0.0556851155 0.02588303352 -0.00258325935
v 0.04962588712 0.02550152884 -0.002583882023
v 0.05112827661 0.02574783391 -9.514957612e-07
v 0.04962553058 0.02550148031 0.002583006957
v 0.05662179244 0.02378099394 0.002582356549
v 0.05616349529 0.02483645188 -5.400749222e-05
v 0.05662180259 0.02378099096 -0.002583235842
v 0.04669816498 0.02471584756 -0.002584399593
v 0.04669805676 0.02471704404 -0.002572769336
v 0.04873565157 0.02530687167 -1.444265418e-06
v 0.0466978431 0.0247170547 0.00257191857
v 0.04669794946 0.02471585836 0.002583548791
v 0.05459263317 0.02151254533 0.002582652635
v 0.05523076828 0.02216266903 -4.422998896e-07
v 0.05459280039 0.0215126523 -0.002583533217
v 0.04668191754 0.01791176828 -0.002584249998
v 0.04667616104 0.01791116919 0.002583285273
v 0.05228022496 0.01953135161 0.002582858048
v 0.05346945048 0.02048329838 -4.476781198e-07
v 0.05228072922 0.0195316437 -0.002583747365
v 0.04979904441 0.01792008291 -0.002583827671
v 0.04979877288 0.01791998253 0.002582848415
v 0.051539838 0.01899969959 -4.648646004e-07
v 0.0498022036 0.01791971499 -0.00247864202
v 0.04980194979 0.01791962394 0.002477662313
f 998 1005 1006
f 1007 1012 1013
f 999 1001 1000
f 999 1007 1008
f 999 1008 1001
f 1001 1008 1009
f 1002 1010 1011
f 1002 1011 1006
f 1002 1006 1005
f 1002 1005 1003
f 1003 1005 1004
f 1007 1013 1009
f 1017 1019 1018
f 1009 1013 1014
f 1010 1015 1018
f 1010 1018 1019
f 1010 1019 1016
f 1010 1016 1011
f 1012 1016 1017
f 1012 1017 1014
f 1012 1014 1013
f 1014 1017 1015
f 1015 1017 1018
f 1016 1019 1017
f 998 1004 1005
f 1007 1009 1008
f 996 1004 998
f 991 992 993
f 996 1002 1003
f 991 993 994
f 991 994 995
f 991 995 992
f 992 995 1001
f 992 1001 1009
f 992 1009 1014
f 992 1014 1015
f 996 1003 1004
f 992 1010 1002
f 992 1002 996
f 992 996 997
f 992 997 993
f 992 1015 1010
f 993 998 1006
f 993 997 998
f 995 1000 1001
f 994 1000 995
f 994 999 1000
f 993 999 994
f 996 998 997
f 993 1012 1007
f 993 1016 1012
f 993 1011 1016
f 993 1006 1011
f 993 1007 999
o coacd_part_0047
v 0.03257920322 -0.03678725479 0.002581818925
v 0.03256853824 -0.04133832654 0.002581522076
v 0.03257914683 -0.03678643679 -0.002583441825
v 0.02059906933 -0.03668168065 0.002583454331
v 0.02987595345 -0.04377002832 0.002089427975
v 0.03256877915 -0.04133847037 -0.002583169024
v 0.02986653291 -0.04376977626 0.002581870766
v 0.02060214389 -0.03668433467 -0.002585065574
v 0.02061555705 -0.0437185147 0.002583010455
v 0.02987599346 -0.0437701324 -0.00209102617
v 0.02986660934 -0.0437699653 -0.002583468415
v 0.02061729031 -0.04372026395 -0.002584594482
f 1022 1030 1031
f 1024 1030 1029
f 1024 1031 1030
f 1024 1028 1031
f 1024 1026 1028
f 1023 1031 1028
f 1025 1029 1030
f 1022 1031 1027
f 1022 1025 1030
f 1023 1027 1031
f 1021 1029 1025
f 1021 1026 1024
f 1020 1025 1022
f 1020 1022 1027
f 1020 1027 1023
f 1020 1021 1025
f 1020 1028 1026
f 1020 1026 1021
f 1021 1024 1029
f 1020 1023 1028
o coacd_part_0048
v -0.04126475679 -0.01753182929 0.002597818042
v -0.04126963699 -0.01753026516 -0.00259971935
v -0.04584500914 -0.01754263184 0.002599069787
v -0.04132193961 -0.0277287427 0.002594367126
v -0.04584596149 -0.01754207131 -0.002600817635
v -0.04132264727 -0.0277284556 -0.002596100805
v -0.04587711373 -0.0246894383 0.002596249904
v -0.04412756309 -0.0277295073 0.002594581256
v -0.04587717393 -0.02468952205 -0.00259788203
v -0.04412766193 -0.02772962325 -0.002596220281
v -0.04503085738 -0.02621823834 -8.225428134e-07
f 1034 1036 1040
f 1040 1041 1042
f 1039 1042 1041
f 1038 1042 1039
f 1038 1040 1042
f 1035 1039 1041
f 1034 1040 1038
f 1033 1040 1036
f 1035 1041 1037
f 1033 1037 1041
f 1033 1041 1040
f 1032 1036 1034
f 1032 1034 1038
f 1032 1038 1039
f 1032 1033 1036
f 1032 1039 1035
f 1032 1035 1037
f 1032 1037 1033
o coacd_part_0049
v 0.04549418492 0.02682396317 0.0009644172617
v 0.04549422383 0.02682395028 -0.000965281026
v 0.04546689296 0.02682383381 0.002583840008
v 0.04669692482 0.02471680329 0.002571912382
v 0.04583194905 0.02625864983 -4.328713492e-07
v 0.0466971385 0.02471679243 -0.002572763131
v 0.04546703485 0.02682381337 -0.002584697514
v 0.04669697004 0.02471576204 0.00258354897
v -0.04475077476 0.02680446957 0.00259743964
v 0.04669718546 0.02471575124 -0.002584399764
v -0.04475074773 0.02680437914 -0.002598152904
v 0.04667517311 0.01791038001 0.002583285373
v -0.04477104399 0.02680587815 0.000969328618
v -0.0460254348 0.02471280228 0.002521162642
v -0.04602553963 0.02471068022 0.002598506351
v 0.04668092981 0.01791097971 -0.002584250115
v -0.04602560304 0.02471059549 -0.002599103323
v -0.0460254964 0.02471271691 -0.00252175996
v -0.04477101893 0.02680584387 -0.0009700391348
v -0.04600761758 0.01789601508 0.002600746447
v -0.04600684179 0.01789632755 -0.00260122599
f 1051 1056 1057
f 1049 1052 1058
f 1049 1058 1063
f 1049 1063 1059
f 1049 1059 1053
f 1051 1055 1056
f 1048 1052 1049
f 1053 1059 1060
f 1055 1060 1056
f 1054 1062 1063
f 1054 1063 1058
f 1055 1061 1060
f 1056 1060 1059
f 1056 1059 1063
f 1056 1063 1062
f 1056 1062 1057
f 1046 1048 1047
f 1053 1060 1061
f 1046 1052 1048
f 1044 1047 1048
f 1046 1054 1058
f 1043 1044 1049
f 1043 1049 1053
f 1043 1053 1061
f 1043 1061 1055
f 1046 1058 1052
f 1043 1051 1045
f 1043 1045 1046
f 1043 1046 1047
f 1043 1055 1051
f 1044 1048 1049
f 1045 1050 1046
f 1045 1051 1057
f 1045 1057 1062
f 1045 1062 1054
f 1045 1054 1050
f 1046 1050 1054
f 1043 1047 1044
o coacd_part_0050
v 0.02061486599 -0.04826234327 -0.001640065145
v 0.02164132986 -0.04782540491 -8.123216019e-07
v 0.02061487112 -0.04826230596 0.001638442869
v 0.02061499741 -0.04825070337 -0.002584281343
v 0.02322732688 -0.04708843933 -0.002583918723
v 0.02322744562 -0.04708843884 0.002582290548
v 0.02061502586 -0.04825065525 0.00258265909
v 0.02061637432 -0.04372070957 -0.002584594598
v 0.02322468513 -0.04372841809 -0.002584229679
v 0.02322329715 -0.04372769902 0.002582624226
v 0.02061464131 -0.04371896041 0.002583010577
f 1067 1071 1072
f 1067 1072 1068
f 1068 1072 1073
f 1068 1073 1069
f 1071 1073 1072
f 1069 1074 1070
f 1071 1074 1073
f 1069 1073 1074
f 1066 1069 1070
f 1064 1065 1066
f 1065 1069 1066
f 1064 1066 1070
f 1064 1070 1074
f 1064 1074 1071
f 1065 1068 1069
f 1064 1067 1068
f 1064 1068 1065
f 1064 1071 1067
o coacd_part_0051
v 0.02322716782 -0.04708859597 -0.002583914777
v 0.02515413691 -0.04945628491 -0.002583459327
v 0.02454582257 -0.04877276596 -1.840927658e-06
v 0.02322728658 -0.04708859551 0.002582286601
v 0.02322468473 -0.04372797104 -0.002584229709
v 0.0273645308 -0.05154833006 -0.002583124666
v 0.0262237217 -0.05053891155 -1.326773691e-06
v 0.02515403791 -0.04945618323 0.002581781653
v 0.02322329651 -0.04372725166 0.002582624258
v 0.02986653306 -0.04376996507 -0.002583468421
v 0.02982893572 -0.05332746638 -0.002582784219
v 0.02807690989 -0.05211485517 -1.332064239e-06
v 0.02736436719 -0.0515481903 0.002581468839
v 0.02986645658 -0.04376977599 0.002581870772
v 0.02987597187 -0.04377007937 -0.00209102617
v 0.03080702462 -0.04621682041 -0.002583300772
v 0.02982892637 -0.05332745912 0.002581133514
v 0.03181701417 -0.05218079576 -0.002582767987
v 0.03082826879 -0.05276362689 -8.242799951e-07
v 0.02987593186 -0.04376997529 0.002089427975
v 0.03080677446 -0.04621623856 0.002581699113
v 0.03052252043 -0.04535820862 -8.015669285e-07
v 0.03120777478 -0.0476795042 -8.117419466e-07
v 0.03151023975 -0.04916338918 -0.002583078626
v 0.031817006 -0.05218078945 0.00258112214
v 0.03164369023 -0.05006259866 -8.198662743e-07
v 0.03151017197 -0.0491632074 0.002581440278
f 1080 1085 1086
f 1086 1091 1087
f 1080 1086 1087
f 1080 1087 1081
f 1081 1087 1082
f 1084 1089 1090
f 1085 1091 1086
f 1085 1092 1093
f 1085 1093 1091
f 1088 1095 1094
f 1090 1096 1095
f 1089 1096 1090
f 1090 1097 1098
f 1079 1089 1084
f 1090 1095 1097
f 1091 1093 1099
f 1092 1100 1099
f 1092 1099 1093
f 1092 1098 1100
f 1094 1095 1096
f 1095 1101 1097
f 1097 1101 1098
f 1089 1094 1096
f 1079 1094 1089
f 1078 1095 1088
f 1079 1083 1088
f 1098 1101 1100
f 1075 1076 1077
f 1075 1077 1078
f 1075 1078 1083
f 1075 1083 1079
f 1075 1079 1084
f 1075 1084 1090
f 1075 1090 1098
f 1075 1098 1092
f 1075 1092 1085
f 1079 1088 1094
f 1075 1085 1080
f 1076 1080 1081
f 1076 1081 1082
f 1076 1082 1077
f 1077 1082 1078
f 1078 1082 1087
f 1078 1087 1091
f 1078 1091 1099
f 1078 1099 1101
f 1078 1101 1095
f 1078 1088 1083
f 1075 1080 1076
f 1099 1100 1101
