ISO-10303-21;
HEADER;
FILE_DESCRIPTION (( 'STEP AP214' ),
    '1' );
FILE_NAME ('supportor.STEP',
    '2026-07-27T11:28:52',
    ( '' ),
    ( '' ),
    'SwSTEP 2.0',
    'SolidWorks 2025',
    '' );
FILE_SCHEMA (( 'AUTOMOTIVE_DESIGN' ));
ENDSEC;

DATA;
#1 = DIRECTION ( 'NONE',  ( 0.000000000000000000, 0.000000000000000000, 1.000000000000000000 ) ) ;
#2 = MECHANICAL_DESIGN_GEOMETRIC_PRESENTATION_REPRESENTATION (  '', ( #283 ), #335 ) ;
#3 = DIRECTION ( 'NONE',  ( 1.000000000000000000, 0.000000000000000000, -0.000000000000000000 ) ) ;
#4 = CIRCLE ( 'NONE', #332, 3.000000000000002665 ) ;
#5 = ADVANCED_FACE ( 'NONE', ( #54 ), #17, .T. ) ;
#6 = FACE_OUTER_BOUND ( 'NONE', #293, .T. ) ;
#7 = DIRECTION ( 'NONE',  ( -0.000000000000000000, -0.000000000000000000, -1.000000000000000000 ) ) ;
#8 = CARTESIAN_POINT ( 'NONE',  ( 0.000000000000000000, 0.000000000000000000, 310.0000000000000000 ) ) ;
#9 = EDGE_CURVE ( 'NONE', #314, #241, #242, .T. ) ;
#10 = PRODUCT_CONTEXT ( 'NONE', #358, 'mechanical' ) ;
#11 = ORIENTED_EDGE ( 'NONE', *, *, #237, .T. ) ;
#12 = CARTESIAN_POINT ( 'NONE',  ( -12.50000000000000000, 0.000000000000000000, 310.0000000000000000 ) ) ;
#13 = ORIENTED_EDGE ( 'NONE', *, *, #190, .F. ) ;
#14 = AXIS2_PLACEMENT_3D ( 'NONE', #290, #43, #101 ) ;
#15 = VERTEX_POINT ( 'NONE', #240 ) ;
#16 = AXIS2_PLACEMENT_3D ( 'NONE', #130, #341, #77 ) ;
#17 = CYLINDRICAL_SURFACE ( 'NONE', #22, 5.000000000000000000 ) ;
#18 = CARTESIAN_POINT ( 'NONE',  ( -50.00000000000000000, 0.000000000000000000, 10.00000000000000000 ) ) ;
#19 = AXIS2_PLACEMENT_3D ( 'NONE', #35, #210, #138 ) ;
#20 = ORIENTED_EDGE ( 'NONE', *, *, #331, .T. ) ;
#21 =( NAMED_UNIT ( * ) SI_UNIT ( $, .STERADIAN. ) SOLID_ANGLE_UNIT ( ) );
#22 = AXIS2_PLACEMENT_3D ( 'NONE', #110, #29, #248 ) ;
#23 = CARTESIAN_POINT ( 'NONE',  ( 0.000000000000000000, 0.000000000000000000, 0.000000000000000000 ) ) ;
#24 = CARTESIAN_POINT ( 'NONE',  ( 0.000000000000000000, 0.000000000000000000, 10.00000000000000000 ) ) ;
#25 = EDGE_CURVE ( 'NONE', #180, #15, #214, .T. ) ;
#26 = EDGE_CURVE ( 'NONE', #180, #47, #289, .T. ) ;
#27 = ORIENTED_EDGE ( 'NONE', *, *, #59, .T. ) ;
#28 = CIRCLE ( 'NONE', #347, 50.00000000000000000 ) ;
#29 = DIRECTION ( 'NONE',  ( -0.000000000000000000, -0.000000000000000000, -1.000000000000000000 ) ) ;
#30 = CYLINDRICAL_SURFACE ( 'NONE', #162, 12.50000000000000000 ) ;
#31 = CARTESIAN_POINT ( 'NONE',  ( -33.99999999999999289, -1.181053340162258199E-14, 10.00000000000000000 ) ) ;
#32 = CYLINDRICAL_SURFACE ( 'NONE', #196, 12.50000000000000000 ) ;
#33 = FACE_OUTER_BOUND ( 'NONE', #149, .T. ) ;
#34 = EDGE_CURVE ( 'NONE', #267, #241, #52, .T. ) ;
#35 = CARTESIAN_POINT ( 'NONE',  ( 0.000000000000000000, 0.000000000000000000, 310.0000000000000000 ) ) ;
#36 = VECTOR ( 'NONE', #265, 1000.000000000000000 ) ;
#37 = PRESENTATION_STYLE_ASSIGNMENT (( #223 ) ) ;
#38 = AXIS2_PLACEMENT_3D ( 'NONE', #232, #111, #343 ) ;
#39 = DIRECTION ( 'NONE',  ( 1.000000000000000000, 0.000000000000000000, 0.000000000000000000 ) ) ;
#40 = DIRECTION ( 'NONE',  ( 1.000000000000000000, 0.000000000000000000, 0.000000000000000000 ) ) ;
#41 = ORIENTED_EDGE ( 'NONE', *, *, #25, .T. ) ;
#42 = CARTESIAN_POINT ( 'NONE',  ( -37.00000000000000000, -1.181053340162258199E-14, 0.000000000000000000 ) ) ;
#43 = DIRECTION ( 'NONE',  ( 0.000000000000000000, 0.000000000000000000, 1.000000000000000000 ) ) ;
#44 = ORIENTED_EDGE ( 'NONE', *, *, #353, .T. ) ;
#45 = ORIENTED_EDGE ( 'NONE', *, *, #50, .F. ) ;
#46 = VERTEX_POINT ( 'NONE', #323 ) ;
#47 = VERTEX_POINT ( 'NONE', #79 ) ;
#48 = CARTESIAN_POINT ( 'NONE',  ( 0.000000000000000000, 0.000000000000000000, 10.00000000000000000 ) ) ;
#49 = ORIENTED_EDGE ( 'NONE', *, *, #218, .T. ) ;
#50 = EDGE_CURVE ( 'NONE', #150, #288, #294, .T. ) ;
#51 =( LENGTH_UNIT ( ) NAMED_UNIT ( * ) SI_UNIT ( .MILLI., .METRE. ) );
#52 = CIRCLE ( 'NONE', #198, 50.00000000000000000 ) ;
#53 =( NAMED_UNIT ( * ) PLANE_ANGLE_UNIT ( ) SI_UNIT ( $, .RADIAN. ) );
#54 = FACE_OUTER_BOUND ( 'NONE', #207, .T. ) ;
#55 = AXIS2_PLACEMENT_3D ( 'NONE', #282, #1, #70 ) ;
#56 = AXIS2_PLACEMENT_3D ( 'NONE', #24, #298, #270 ) ;
#57 = DIRECTION ( 'NONE',  ( 1.000000000000000000, 0.000000000000000000, 0.000000000000000000 ) ) ;
#58 = DIRECTION ( 'NONE',  ( 0.000000000000000000, 0.000000000000000000, 1.000000000000000000 ) ) ;
#59 = EDGE_CURVE ( 'NONE', #84, #314, #253, .T. ) ;
#60 = EDGE_CURVE ( 'NONE', #47, #269, #350, .T. ) ;
#61 = FACE_OUTER_BOUND ( 'NONE', #348, .T. ) ;
#62 = CARTESIAN_POINT ( 'NONE',  ( -5.000000000000000000, 0.000000000000000000, 330.0000000000000000 ) ) ;
#63 = CYLINDRICAL_SURFACE ( 'NONE', #56, 50.00000000000000000 ) ;
#64 = CARTESIAN_POINT ( 'NONE',  ( 0.000000000000000000, 0.000000000000000000, 0.000000000000000000 ) ) ;
#65 = CIRCLE ( 'NONE', #301, 5.000000000000000000 ) ;
#66 = ORIENTED_EDGE ( 'NONE', *, *, #125, .F. ) ;
#67 = CARTESIAN_POINT ( 'NONE',  ( 0.000000000000000000, 0.000000000000000000, 330.0000000000000000 ) ) ;
#68 = DIRECTION ( 'NONE',  ( 0.000000000000000000, 0.000000000000000000, 1.000000000000000000 ) ) ;
#69 = ORIENTED_EDGE ( 'NONE', *, *, #102, .F. ) ;
#70 = DIRECTION ( 'NONE',  ( 1.000000000000000000, 0.000000000000000000, 0.000000000000000000 ) ) ;
#71 = ORIENTED_EDGE ( 'NONE', *, *, #25, .F. ) ;
#72 = VECTOR ( 'NONE', #123, 1000.000000000000000 ) ;
#73 = AXIS2_PLACEMENT_3D ( 'NONE', #95, #224, #336 ) ;
#74 = EDGE_LOOP ( 'NONE', ( #264, #299 ) ) ;
#75 = ADVANCED_FACE ( 'NONE', ( #171 ), #32, .T. ) ;
#76 = ORIENTED_EDGE ( 'NONE', *, *, #92, .T. ) ;
#77 = DIRECTION ( 'NONE',  ( 1.000000000000000000, 0.000000000000000000, 0.000000000000000000 ) ) ;
#78 = ORIENTED_EDGE ( 'NONE', *, *, #316, .F. ) ;
#79 = CARTESIAN_POINT ( 'NONE',  ( -33.99999999999999289, -1.181053340162258199E-14, 0.000000000000000000 ) ) ;
#80 = DIRECTION ( 'NONE',  ( 0.000000000000000000, 0.000000000000000000, 1.000000000000000000 ) ) ;
#81 = ORIENTED_EDGE ( 'NONE', *, *, #315, .F. ) ;
#82 = ADVANCED_FACE ( 'NONE', ( #6 ), #340, .T. ) ;
#83 = DIRECTION ( 'NONE',  ( -0.000000000000000000, -0.000000000000000000, -1.000000000000000000 ) ) ;
#84 = VERTEX_POINT ( 'NONE', #178 ) ;
#85 = AXIS2_PLACEMENT_3D ( 'NONE', #259, #7, #96 ) ;
#86 = AXIS2_PLACEMENT_3D ( 'NONE', #229, #144, #359 ) ;
#87 = AXIS2_PLACEMENT_3D ( 'NONE', #208, #119, #97 ) ;
#88 = FACE_BOUND ( 'NONE', #275, .T. ) ;
#89 = VECTOR ( 'NONE', #129, 1000.000000000000000 ) ;
#90 = DIRECTION ( 'NONE',  ( 0.000000000000000000, 0.000000000000000000, 1.000000000000000000 ) ) ;
#91 = ADVANCED_FACE ( 'NONE', ( #313, #98 ), #206, .T. ) ;
#92 = EDGE_CURVE ( 'NONE', #187, #288, #113, .T. ) ;
#93 = DIRECTION ( 'NONE',  ( 0.000000000000000000, 0.000000000000000000, 1.000000000000000000 ) ) ;
#94 = CARTESIAN_POINT ( 'NONE',  ( 12.50000000000000000, 1.530808498934191521E-15, 10.00000000000000000 ) ) ;
#95 = CARTESIAN_POINT ( 'NONE',  ( -37.00000000000000000, -1.181053340162258199E-14, -19.99999999999999645 ) ) ;
#96 = DIRECTION ( 'NONE',  ( -1.000000000000000000, 0.000000000000000000, 0.000000000000000000 ) ) ;
#97 = DIRECTION ( 'NONE',  ( 1.000000000000000000, 0.000000000000000000, -0.000000000000000000 ) ) ;
#98 = FACE_OUTER_BOUND ( 'NONE', #107, .T. ) ;
#99 = CARTESIAN_POINT ( 'NONE',  ( 12.50000000000000000, 1.530808498934191521E-15, 310.0000000000000000 ) ) ;
#100 = ORIENTED_EDGE ( 'NONE', *, *, #160, .T. ) ;
#101 = DIRECTION ( 'NONE',  ( 1.000000000000000000, 0.000000000000000000, 0.000000000000000000 ) ) ;
#102 = EDGE_CURVE ( 'NONE', #174, #177, #139, .T. ) ;
#103 = UNCERTAINTY_MEASURE_WITH_UNIT (LENGTH_MEASURE( 1.000000000000000082E-05 ), #51, 'distance_accuracy_value', 'NONE');
#104 = AXIS2_PLACEMENT_3D ( 'NONE', #175, #140, #286 ) ;
#105 = EDGE_LOOP ( 'NONE', ( #183, #41, #345, #156 ) ) ;
#106 = ORIENTED_EDGE ( 'NONE', *, *, #34, .F. ) ;
#107 = EDGE_LOOP ( 'NONE', ( #133, #209 ) ) ;
#108 = VECTOR ( 'NONE', #83, 1000.000000000000000 ) ;
#109 = ORIENTED_EDGE ( 'NONE', *, *, #353, .F. ) ;
#110 = CARTESIAN_POINT ( 'NONE',  ( 0.000000000000000000, 0.000000000000000000, 330.0000000000000000 ) ) ;
#111 = DIRECTION ( 'NONE',  ( 0.000000000000000000, 0.000000000000000000, 1.000000000000000000 ) ) ;
#112 = ORIENTED_EDGE ( 'NONE', *, *, #26, .T. ) ;
#113 = CIRCLE ( 'NONE', #14, 12.50000000000000000 ) ;
#114 = DIRECTION ( 'NONE',  ( 0.000000000000000000, 0.000000000000000000, 1.000000000000000000 ) ) ;
#115 = CYLINDRICAL_SURFACE ( 'NONE', #86, 50.00000000000000000 ) ;
#116 = CYLINDRICAL_SURFACE ( 'NONE', #211, 3.000000000000002665 ) ;
#117 = VECTOR ( 'NONE', #217, 1000.000000000000000 ) ;
#118 = DIRECTION ( 'NONE',  ( -1.000000000000000000, 0.000000000000000000, 0.000000000000000000 ) ) ;
#119 = DIRECTION ( 'NONE',  ( 0.000000000000000000, 0.000000000000000000, 1.000000000000000000 ) ) ;
#120 = CARTESIAN_POINT ( 'NONE',  ( -37.00000000000000000, -1.181053340162258199E-14, -19.99999999999999645 ) ) ;
#121 = ORIENTED_EDGE ( 'NONE', *, *, #160, .F. ) ;
#122 = FILL_AREA_STYLE_COLOUR ( '', #276 ) ;
#123 = DIRECTION ( 'NONE',  ( -0.000000000000000000, -0.000000000000000000, -1.000000000000000000 ) ) ;
#124 = PRODUCT_DEFINITION ( 'ๆ', '', #195, #324 ) ;
#125 = EDGE_CURVE ( 'NONE', #288, #187, #225, .T. ) ;
#126 = ORIENTED_EDGE ( 'NONE', *, *, #9, .T. ) ;
#127 = PRESENTATION_LAYER_ASSIGNMENT (  '', '', ( #283 ) ) ;
#128 = EDGE_LOOP ( 'NONE', ( #81, #106 ) ) ;
#129 = DIRECTION ( 'NONE',  ( -0.000000000000000000, -0.000000000000000000, -1.000000000000000000 ) ) ;
#130 = CARTESIAN_POINT ( 'NONE',  ( 0.000000000000000000, 0.000000000000000000, 0.000000000000000000 ) ) ;
#131 = ORIENTED_EDGE ( 'NONE', *, *, #102, .T. ) ;
#132 = ORIENTED_EDGE ( 'NONE', *, *, #125, .T. ) ;
#133 = ORIENTED_EDGE ( 'NONE', *, *, #202, .T. ) ;
#134 = CARTESIAN_POINT ( 'NONE',  ( 0.000000000000000000, 0.000000000000000000, 330.0000000000000000 ) ) ;
#135 = ADVANCED_FACE ( 'NONE', ( #230 ), #143, .T. ) ;
#136 = AXIS2_PLACEMENT_3D ( 'NONE', #311, #68, #327 ) ;
#137 = CYLINDRICAL_SURFACE ( 'NONE', #73, 3.000000000000002665 ) ;
#138 = DIRECTION ( 'NONE',  ( 1.000000000000000000, 0.000000000000000000, -0.000000000000000000 ) ) ;
#139 = CIRCLE ( 'NONE', #244, 5.000000000000000000 ) ;
#140 = DIRECTION ( 'NONE',  ( 0.000000000000000000, 0.000000000000000000, 1.000000000000000000 ) ) ;
#141 = VECTOR ( 'NONE', #263, 1000.000000000000000 ) ;
#142 = PLANE ( 'NONE',  #193 ) ;
#143 = CYLINDRICAL_SURFACE ( 'NONE', #85, 5.000000000000000000 ) ;
#144 = DIRECTION ( 'NONE',  ( -0.000000000000000000, -0.000000000000000000, -1.000000000000000000 ) ) ;
#145 = DIRECTION ( 'NONE',  ( 1.000000000000000000, 0.000000000000000000, 0.000000000000000000 ) ) ;
#146 = DIRECTION ( 'NONE',  ( 0.000000000000000000, 0.000000000000000000, 1.000000000000000000 ) ) ;
#147 = ORIENTED_EDGE ( 'NONE', *, *, #92, .F. ) ;
#148 = EDGE_CURVE ( 'NONE', #174, #46, #346, .T. ) ;
#149 = EDGE_LOOP ( 'NONE', ( #109, #236, #126, #297 ) ) ;
#150 = VERTEX_POINT ( 'NONE', #12 ) ;
#151 = CARTESIAN_POINT ( 'NONE',  ( -50.00000000000000000, 0.000000000000000000, 10.00000000000000000 ) ) ;
#152 = PRODUCT_DEFINITION_SHAPE ( 'NONE', 'NONE',  #124 ) ;
#153 = ORIENTED_EDGE ( 'NONE', *, *, #191, .T. ) ;
#154 = DIRECTION ( 'NONE',  ( 1.000000000000000000, 0.000000000000000000, 0.000000000000000000 ) ) ;
#155 = EDGE_LOOP ( 'NONE', ( #49, #27 ) ) ;
#156 = ORIENTED_EDGE ( 'NONE', *, *, #60, .F. ) ;
#157 = VECTOR ( 'NONE', #326, 1000.000000000000000 ) ;
#158 = ORIENTED_EDGE ( 'NONE', *, *, #344, .T. ) ;
#159 = APPLICATION_PROTOCOL_DEFINITION ( 'draft international standard', 'automotive_design', 1998, #358 ) ;
#160 = EDGE_CURVE ( 'NONE', #356, #187, #168, .T. ) ;
#161 = CIRCLE ( 'NONE', #318, 3.000000000000002665 ) ;
#162 = AXIS2_PLACEMENT_3D ( 'NONE', #169, #173, #118 ) ;
#163 = DIRECTION ( 'NONE',  ( 0.000000000000000000, 0.000000000000000000, 1.000000000000000000 ) ) ;
#164 = FACE_OUTER_BOUND ( 'NONE', #128, .T. ) ;
#165 = FACE_OUTER_BOUND ( 'NONE', #105, .T. ) ;
#166 = DIRECTION ( 'NONE',  ( 0.000000000000000000, 0.000000000000000000, 1.000000000000000000 ) ) ;
#167 = CARTESIAN_POINT ( 'NONE',  ( 50.00000000000000000, 6.123233995736766085E-15, 0.000000000000000000 ) ) ;
#168 = LINE ( 'NONE', #204, #72 ) ;
#169 = CARTESIAN_POINT ( 'NONE',  ( 0.000000000000000000, 0.000000000000000000, 310.0000000000000000 ) ) ;
#170 = ADVANCED_FACE ( 'NONE', ( #235 ), #116, .F. ) ;
#171 = FACE_OUTER_BOUND ( 'NONE', #184, .T. ) ;
#172 = AXIS2_PLACEMENT_3D ( 'NONE', #305, #58, #308 ) ;
#173 = DIRECTION ( 'NONE',  ( -0.000000000000000000, -0.000000000000000000, -1.000000000000000000 ) ) ;
#174 = VERTEX_POINT ( 'NONE', #62 ) ;
#175 = CARTESIAN_POINT ( 'NONE',  ( -37.00000000000000000, -1.181053340162258199E-14, 10.00000000000000000 ) ) ;
#176 = LINE ( 'NONE', #185, #117 ) ;
#177 = VERTEX_POINT ( 'NONE', #231 ) ;
#178 = CARTESIAN_POINT ( 'NONE',  ( 50.00000000000000000, 6.123233995736766085E-15, 10.00000000000000000 ) ) ;
#179 = CLOSED_SHELL ( 'NONE', ( #292, #135, #245, #252, #302, #279, #227, #75, #91, #5, #82, #170 ) ) ;
#180 = VERTEX_POINT ( 'NONE', #337 ) ;
#181 = CIRCLE ( 'NONE', #300, 12.50000000000000000 ) ;
#182 = APPLICATION_CONTEXT ( 'automotive_design' ) ;
#183 = ORIENTED_EDGE ( 'NONE', *, *, #26, .F. ) ;
#184 = EDGE_LOOP ( 'NONE', ( #121, #215, #271, #132 ) ) ;
#185 = CARTESIAN_POINT ( 'NONE',  ( 50.00000000000000000, 6.123233995736766085E-15, 10.00000000000000000 ) ) ;
#186 = UNCERTAINTY_MEASURE_WITH_UNIT (LENGTH_MEASURE( 1.000000000000000082E-05 ), #200, 'distance_accuracy_value', 'NONE');
#187 = VERTEX_POINT ( 'NONE', #94 ) ;
#188 = CARTESIAN_POINT ( 'NONE',  ( -40.00000000000000000, -1.144313936187837497E-14, -19.99999999999999645 ) ) ;
#189 = DIRECTION ( 'NONE',  ( 0.000000000000000000, 0.000000000000000000, 1.000000000000000000 ) ) ;
#190 = EDGE_CURVE ( 'NONE', #269, #15, #255, .T. ) ;
#191 = EDGE_CURVE ( 'NONE', #47, #180, #161, .T. ) ;
#192 = ADVANCED_BREP_SHAPE_REPRESENTATION ( 'supportor', ( #197, #136 ), #296 ) ;
#193 = AXIS2_PLACEMENT_3D ( 'NONE', #64, #250, #3 ) ;
#194 = CIRCLE ( 'NONE', #16, 50.00000000000000000 ) ;
#195 = PRODUCT_DEFINITION_FORMATION_WITH_SPECIFIED_SOURCE ( 'ไป', '', #328, .NOT_KNOWN. ) ;
#196 = AXIS2_PLACEMENT_3D ( 'NONE', #339, #280, #307 ) ;
#197 = MANIFOLD_SOLID_BREP ( '\X2\52079664\X0\-\X2\62c94f38\X0\1', #179 ) ;
#198 = AXIS2_PLACEMENT_3D ( 'NONE', #23, #278, #246 ) ;
#199 = FACE_OUTER_BOUND ( 'NONE', #212, .T. ) ;
#200 =( LENGTH_UNIT ( ) NAMED_UNIT ( * ) SI_UNIT ( .MILLI., .METRE. ) );
#201 = CARTESIAN_POINT ( 'NONE',  ( -5.000000000000000000, 0.000000000000000000, 330.0000000000000000 ) ) ;
#202 = EDGE_CURVE ( 'NONE', #150, #356, #181, .T. ) ;
#203 = CARTESIAN_POINT ( 'NONE',  ( -50.00000000000000000, 0.000000000000000000, 0.000000000000000000 ) ) ;
#204 = CARTESIAN_POINT ( 'NONE',  ( 12.50000000000000000, 1.530808498934191521E-15, 310.0000000000000000 ) ) ;
#205 = DIRECTION ( 'NONE',  ( 1.000000000000000000, 0.000000000000000000, 0.000000000000000000 ) ) ;
#206 = PLANE ( 'NONE',  #19 ) ;
#207 = EDGE_LOOP ( 'NONE', ( #310, #69, #268, #11 ) ) ;
#208 = CARTESIAN_POINT ( 'NONE',  ( 0.000000000000000000, 0.000000000000000000, 330.0000000000000000 ) ) ;
#209 = ORIENTED_EDGE ( 'NONE', *, *, #316, .T. ) ;
#210 = DIRECTION ( 'NONE',  ( 0.000000000000000000, 0.000000000000000000, 1.000000000000000000 ) ) ;
#211 = AXIS2_PLACEMENT_3D ( 'NONE', #120, #228, #145 ) ;
#212 = EDGE_LOOP ( 'NONE', ( #78, #100, #76, #45 ) ) ;
#213 = EDGE_LOOP ( 'NONE', ( #153, #112 ) ) ;
#214 = LINE ( 'NONE', #188, #274 ) ;
#215 = ORIENTED_EDGE ( 'NONE', *, *, #202, .F. ) ;
#216 = CARTESIAN_POINT ( 'NONE',  ( -33.99999999999999289, -1.181053340162258199E-14, -19.99999999999999645 ) ) ;
#217 = DIRECTION ( 'NONE',  ( -0.000000000000000000, -0.000000000000000000, -1.000000000000000000 ) ) ;
#218 = EDGE_CURVE ( 'NONE', #314, #84, #28, .T. ) ;
#219 = ORIENTED_EDGE ( 'NONE', *, *, #148, .F. ) ;
#220 = DIRECTION ( 'NONE',  ( -0.000000000000000000, -0.000000000000000000, 1.000000000000000000 ) ) ;
#221 = CIRCLE ( 'NONE', #38, 12.50000000000000000 ) ;
#222 = FACE_BOUND ( 'NONE', #213, .T. ) ;
#223 = SURFACE_STYLE_USAGE ( .BOTH. , #357 ) ;
#224 = DIRECTION ( 'NONE',  ( -0.000000000000000000, -0.000000000000000000, 1.000000000000000000 ) ) ;
#225 = CIRCLE ( 'NONE', #55, 12.50000000000000000 ) ;
#226 = PRODUCT_RELATED_PRODUCT_CATEGORY ( 'part', '', ( #328 ) ) ;
#227 = ADVANCED_FACE ( 'NONE', ( #222, #164 ), #142, .F. ) ;
#228 = DIRECTION ( 'NONE',  ( -0.000000000000000000, -0.000000000000000000, 1.000000000000000000 ) ) ;
#229 = CARTESIAN_POINT ( 'NONE',  ( 0.000000000000000000, 0.000000000000000000, 10.00000000000000000 ) ) ;
#230 = FACE_OUTER_BOUND ( 'NONE', #273, .T. ) ;
#231 = CARTESIAN_POINT ( 'NONE',  ( 5.000000000000000000, 6.123233995736766282E-16, 330.0000000000000000 ) ) ;
#232 = CARTESIAN_POINT ( 'NONE',  ( 0.000000000000000000, 0.000000000000000000, 310.0000000000000000 ) ) ;
#233 = FILL_AREA_STYLE ('',( #122 ) ) ;
#234 = VERTEX_POINT ( 'NONE', #306 ) ;
#235 = FACE_OUTER_BOUND ( 'NONE', #291, .T. ) ;
#236 = ORIENTED_EDGE ( 'NONE', *, *, #218, .F. ) ;
#237 = EDGE_CURVE ( 'NONE', #46, #234, #65, .T. ) ;
#238 = CIRCLE ( 'NONE', #277, 5.000000000000000000 ) ;
#239 = ORIENTED_EDGE ( 'NONE', *, *, #354, .F. ) ;
#240 = CARTESIAN_POINT ( 'NONE',  ( -40.00000000000000000, -1.144313936187837497E-14, 10.00000000000000000 ) ) ;
#241 = VERTEX_POINT ( 'NONE', #203 ) ;
#242 = LINE ( 'NONE', #151, #89 ) ;
#243 = DIRECTION ( 'NONE',  ( 1.000000000000000000, 0.000000000000000000, 0.000000000000000000 ) ) ;
#244 = AXIS2_PLACEMENT_3D ( 'NONE', #67, #166, #39 ) ;
#245 = ADVANCED_FACE ( 'NONE', ( #199 ), #30, .T. ) ;
#246 = DIRECTION ( 'NONE',  ( 1.000000000000000000, 0.000000000000000000, 0.000000000000000000 ) ) ;
#247 = APPLICATION_PROTOCOL_DEFINITION ( 'draft international standard', 'automotive_design', 1998, #182 ) ;
#248 = DIRECTION ( 'NONE',  ( -1.000000000000000000, 0.000000000000000000, 0.000000000000000000 ) ) ;
#249 = FACE_OUTER_BOUND ( 'NONE', #155, .T. ) ;
#250 = DIRECTION ( 'NONE',  ( 0.000000000000000000, 0.000000000000000000, 1.000000000000000000 ) ) ;
#251 = EDGE_CURVE ( 'NONE', #15, #269, #4, .T. ) ;
#252 = ADVANCED_FACE ( 'NONE', ( #61 ), #115, .T. ) ;
#253 = CIRCLE ( 'NONE', #303, 50.00000000000000000 ) ;
#254 =( NAMED_UNIT ( * ) SI_UNIT ( $, .STERADIAN. ) SOLID_ANGLE_UNIT ( ) );
#255 = CIRCLE ( 'NONE', #104, 3.000000000000002665 ) ;
#256 = AXIS2_PLACEMENT_3D ( 'NONE', #134, #80, #243 ) ;
#257 = DIRECTION ( 'NONE',  ( 0.000000000000000000, 0.000000000000000000, 1.000000000000000000 ) ) ;
#258 = CARTESIAN_POINT ( 'NONE',  ( 0.000000000000000000, 0.000000000000000000, 310.0000000000000000 ) ) ;
#259 = CARTESIAN_POINT ( 'NONE',  ( 0.000000000000000000, 0.000000000000000000, 330.0000000000000000 ) ) ;
#260 =( NAMED_UNIT ( * ) PLANE_ANGLE_UNIT ( ) SI_UNIT ( $, .RADIAN. ) );
#261 = AXIS2_PLACEMENT_3D ( 'NONE', #355, #163, #330 ) ;
#262 = DIRECTION ( 'NONE',  ( 1.000000000000000000, 0.000000000000000000, 0.000000000000000000 ) ) ;
#263 = DIRECTION ( 'NONE',  ( -0.000000000000000000, -0.000000000000000000, -1.000000000000000000 ) ) ;
#264 = ORIENTED_EDGE ( 'NONE', *, *, #237, .F. ) ;
#265 = DIRECTION ( 'NONE',  ( -0.000000000000000000, -0.000000000000000000, -1.000000000000000000 ) ) ;
#266 = ORIENTED_EDGE ( 'NONE', *, *, #9, .F. ) ;
#267 = VERTEX_POINT ( 'NONE', #167 ) ;
#268 = ORIENTED_EDGE ( 'NONE', *, *, #148, .T. ) ;
#269 = VERTEX_POINT ( 'NONE', #31 ) ;
#270 = DIRECTION ( 'NONE',  ( -1.000000000000000000, 0.000000000000000000, 0.000000000000000000 ) ) ;
#271 = ORIENTED_EDGE ( 'NONE', *, *, #50, .T. ) ;
#272 = CARTESIAN_POINT ( 'NONE',  ( 0.000000000000000000, 0.000000000000000000, 310.0000000000000000 ) ) ;
#273 = EDGE_LOOP ( 'NONE', ( #239, #158, #20, #219 ) ) ;
#274 = VECTOR ( 'NONE', #220, 1000.000000000000000 ) ;
#275 = EDGE_LOOP ( 'NONE', ( #13, #285 ) ) ;
#276 = COLOUR_RGB ( '',0.7921568627450980005, 0.8196078431372548767, 0.9333333333333333481 ) ;
#277 = AXIS2_PLACEMENT_3D ( 'NONE', #272, #146, #295 ) ;
#278 = DIRECTION ( 'NONE',  ( 0.000000000000000000, 0.000000000000000000, 1.000000000000000000 ) ) ;
#279 = ADVANCED_FACE ( 'NONE', ( #88, #338, #249 ), #334, .T. ) ;
#280 = DIRECTION ( 'NONE',  ( -0.000000000000000000, -0.000000000000000000, -1.000000000000000000 ) ) ;
#281 = CARTESIAN_POINT ( 'NONE',  ( -12.50000000000000000, 0.000000000000000000, 10.00000000000000000 ) ) ;
#282 = CARTESIAN_POINT ( 'NONE',  ( 0.000000000000000000, 0.000000000000000000, 10.00000000000000000 ) ) ;
#283 = STYLED_ITEM ( 'NONE', ( #37 ), #197 ) ;
#284 = CARTESIAN_POINT ( 'NONE',  ( -37.00000000000000000, -1.181053340162258199E-14, 10.00000000000000000 ) ) ;
#285 = ORIENTED_EDGE ( 'NONE', *, *, #251, .F. ) ;
#286 = DIRECTION ( 'NONE',  ( 1.000000000000000000, 0.000000000000000000, 0.000000000000000000 ) ) ;
#287 = CARTESIAN_POINT ( 'NONE',  ( 5.000000000000000000, 6.123233995736766282E-16, 330.0000000000000000 ) ) ;
#288 = VERTEX_POINT ( 'NONE', #281 ) ;
#289 = CIRCLE ( 'NONE', #261, 3.000000000000002665 ) ;
#290 = CARTESIAN_POINT ( 'NONE',  ( 0.000000000000000000, 0.000000000000000000, 10.00000000000000000 ) ) ;
#291 = EDGE_LOOP ( 'NONE', ( #71, #320, #312, #329 ) ) ;
#292 = ADVANCED_FACE ( 'NONE', ( #165 ), #137, .F. ) ;
#293 = EDGE_LOOP ( 'NONE', ( #131, #325 ) ) ;
#294 = LINE ( 'NONE', #352, #108 ) ;
#295 = DIRECTION ( 'NONE',  ( 1.000000000000000000, 0.000000000000000000, 0.000000000000000000 ) ) ;
#296 =( GEOMETRIC_REPRESENTATION_CONTEXT ( 3 ) GLOBAL_UNCERTAINTY_ASSIGNED_CONTEXT ( ( #103 ) ) GLOBAL_UNIT_ASSIGNED_CONTEXT ( ( #51, #53, #21 ) ) REPRESENTATION_CONTEXT ( 'NONE', 'WORKASPACE' ) );
#297 = ORIENTED_EDGE ( 'NONE', *, *, #315, .T. ) ;
#298 = DIRECTION ( 'NONE',  ( -0.000000000000000000, -0.000000000000000000, -1.000000000000000000 ) ) ;
#299 = ORIENTED_EDGE ( 'NONE', *, *, #331, .F. ) ;
#300 = AXIS2_PLACEMENT_3D ( 'NONE', #8, #114, #205 ) ;
#301 = AXIS2_PLACEMENT_3D ( 'NONE', #258, #333, #57 ) ;
#302 = ADVANCED_FACE ( 'NONE', ( #33 ), #63, .T. ) ;
#303 = AXIS2_PLACEMENT_3D ( 'NONE', #48, #189, #154 ) ;
#304 = CARTESIAN_POINT ( 'NONE',  ( 0.000000000000000000, 0.000000000000000000, 10.00000000000000000 ) ) ;
#305 = CARTESIAN_POINT ( 'NONE',  ( 0.000000000000000000, 0.000000000000000000, 10.00000000000000000 ) ) ;
#306 = CARTESIAN_POINT ( 'NONE',  ( 5.000000000000000000, 6.123233995736766282E-16, 310.0000000000000000 ) ) ;
#307 = DIRECTION ( 'NONE',  ( -1.000000000000000000, 0.000000000000000000, 0.000000000000000000 ) ) ;
#308 = DIRECTION ( 'NONE',  ( 1.000000000000000000, 0.000000000000000000, -0.000000000000000000 ) ) ;
#309 = DIRECTION ( 'NONE',  ( 1.000000000000000000, 0.000000000000000000, 0.000000000000000000 ) ) ;
#310 = ORIENTED_EDGE ( 'NONE', *, *, #344, .F. ) ;
#311 = CARTESIAN_POINT ( 'NONE',  ( 0.000000000000000000, 0.000000000000000000, 0.000000000000000000 ) ) ;
#312 = ORIENTED_EDGE ( 'NONE', *, *, #60, .T. ) ;
#313 = FACE_BOUND ( 'NONE', #74, .T. ) ;
#314 = VERTEX_POINT ( 'NONE', #18 ) ;
#315 = EDGE_CURVE ( 'NONE', #241, #267, #194, .T. ) ;
#316 = EDGE_CURVE ( 'NONE', #356, #150, #221, .T. ) ;
#317 = EDGE_LOOP ( 'NONE', ( #66, #147 ) ) ;
#318 = AXIS2_PLACEMENT_3D ( 'NONE', #42, #257, #262 ) ;
#319 = CIRCLE ( 'NONE', #256, 5.000000000000000000 ) ;
#320 = ORIENTED_EDGE ( 'NONE', *, *, #191, .F. ) ;
#321 = SHAPE_DEFINITION_REPRESENTATION ( #152, #192 ) ;
#322 = ORIENTED_EDGE ( 'NONE', *, *, #59, .F. ) ;
#323 = CARTESIAN_POINT ( 'NONE',  ( -5.000000000000000000, 0.000000000000000000, 310.0000000000000000 ) ) ;
#324 = PRODUCT_DEFINITION_CONTEXT ( 'detailed design', #182, 'design' ) ;
#325 = ORIENTED_EDGE ( 'NONE', *, *, #354, .T. ) ;
#326 = DIRECTION ( 'NONE',  ( -0.000000000000000000, -0.000000000000000000, 1.000000000000000000 ) ) ;
#327 = DIRECTION ( 'NONE',  ( 1.000000000000000000, 0.000000000000000000, 0.000000000000000000 ) ) ;
#328 = PRODUCT ( 'supportor', 'supportor', '', ( #10 ) ) ;
#329 = ORIENTED_EDGE ( 'NONE', *, *, #190, .T. ) ;
#330 = DIRECTION ( 'NONE',  ( 1.000000000000000000, 0.000000000000000000, 0.000000000000000000 ) ) ;
#331 = EDGE_CURVE ( 'NONE', #234, #46, #238, .T. ) ;
#332 = AXIS2_PLACEMENT_3D ( 'NONE', #284, #93, #40 ) ;
#333 = DIRECTION ( 'NONE',  ( 0.000000000000000000, 0.000000000000000000, 1.000000000000000000 ) ) ;
#334 = PLANE ( 'NONE',  #172 ) ;
#335 =( GEOMETRIC_REPRESENTATION_CONTEXT ( 3 ) GLOBAL_UNCERTAINTY_ASSIGNED_CONTEXT ( ( #186 ) ) GLOBAL_UNIT_ASSIGNED_CONTEXT ( ( #200, #260, #254 ) ) REPRESENTATION_CONTEXT ( 'NONE', 'WORKASPACE' ) );
#336 = DIRECTION ( 'NONE',  ( 1.000000000000000000, 0.000000000000000000, 0.000000000000000000 ) ) ;
#337 = CARTESIAN_POINT ( 'NONE',  ( -40.00000000000000000, -1.144313936187837497E-14, 0.000000000000000000 ) ) ;
#338 = FACE_BOUND ( 'NONE', #317, .T. ) ;
#339 = CARTESIAN_POINT ( 'NONE',  ( 0.000000000000000000, 0.000000000000000000, 310.0000000000000000 ) ) ;
#340 = PLANE ( 'NONE',  #87 ) ;
#341 = DIRECTION ( 'NONE',  ( 0.000000000000000000, 0.000000000000000000, 1.000000000000000000 ) ) ;
#342 = SURFACE_STYLE_FILL_AREA ( #233 ) ;
#343 = DIRECTION ( 'NONE',  ( 1.000000000000000000, 0.000000000000000000, 0.000000000000000000 ) ) ;
#344 = EDGE_CURVE ( 'NONE', #177, #234, #351, .T. ) ;
#345 = ORIENTED_EDGE ( 'NONE', *, *, #251, .T. ) ;
#346 = LINE ( 'NONE', #201, #36 ) ;
#347 = AXIS2_PLACEMENT_3D ( 'NONE', #304, #90, #309 ) ;
#348 = EDGE_LOOP ( 'NONE', ( #322, #44, #349, #266 ) ) ;
#349 = ORIENTED_EDGE ( 'NONE', *, *, #34, .T. ) ;
#350 = LINE ( 'NONE', #216, #157 ) ;
#351 = LINE ( 'NONE', #287, #141 ) ;
#352 = CARTESIAN_POINT ( 'NONE',  ( -12.50000000000000000, 0.000000000000000000, 310.0000000000000000 ) ) ;
#353 = EDGE_CURVE ( 'NONE', #84, #267, #176, .T. ) ;
#354 = EDGE_CURVE ( 'NONE', #177, #174, #319, .T. ) ;
#355 = CARTESIAN_POINT ( 'NONE',  ( -37.00000000000000000, -1.181053340162258199E-14, 0.000000000000000000 ) ) ;
#356 = VERTEX_POINT ( 'NONE', #99 ) ;
#357 = SURFACE_SIDE_STYLE ('',( #342 ) ) ;
#358 = APPLICATION_CONTEXT ( 'automotive_design' ) ;
#359 = DIRECTION ( 'NONE',  ( -1.000000000000000000, 0.000000000000000000, 0.000000000000000000 ) ) ;
ENDSEC;
END-ISO-10303-21;
