####
#
# OBJ File Generated by Meshlab
#
####
# Object clipper_v3.obj
#
# Vertices: 160
# Faces: 318
#
####
mtllib ./clipper_v3.obj.mtl

vn -0.5773492 -0.5773485 -0.5773532
v -0.0210000 -0.3000000 0.0000000
vn 0.5773559 -0.5773559 -0.5773389
v 0.0210000 -0.3000000 0.0000000
vn -0.5773485 -0.5773485 0.5773538
v -0.0210000 -0.3000000 0.0100000
vn 0.5773419 -0.5773412 0.5773678
v 0.0210000 -0.3000000 0.0100000
vn 0.0307799 -0.7245754 -0.6885079
v 0.0008488 -0.0199820 -0.0300000
vn 0.0291554 -0.6863333 -0.7267026
v 0.0008488 -0.0199820 0.0000000
vn -0.0921168 -0.7193550 -0.6885077
v -0.0025404 -0.0198380 -0.0300000
vn -0.0872549 -0.6813880 -0.7267027
v -0.0025404 -0.0198380 0.0000000
vn 0.1527909 -0.7089514 -0.6885077
v 0.0042136 -0.0195511 -0.0300000
vn 0.1447268 -0.6715336 -0.7267027
v 0.0042136 -0.0195511 0.0000000
vn -0.2123636 -0.6934398 -0.6885077
v -0.0058565 -0.0191233 -0.0300000
vn -0.2011553 -0.6568408 -0.7267026
v -0.0058565 -0.0191233 0.0000000
vn 0.2704064 -0.6729318 -0.6885079
v 0.0074571 -0.0185578 -0.0300000
vn 0.2561347 -0.6374154 -0.7267026
v 0.0074571 -0.0185578 0.0000000
vn -0.3265014 -0.6475756 -0.6885076
v -0.0090041 -0.0178585 -0.0300000
vn -0.3092689 -0.6133970 -0.7267029
v -0.0090041 -0.0178585 0.0000000
vn 0.3802418 -0.6175539 -0.6885080
v 0.0104861 -0.0170306 -0.0300000
vn 0.3601734 -0.5849606 -0.7267024
v 0.0104861 -0.0170306 0.0000000
vn 0.0291564 0.6863325 -0.7267032
v -0.0007215 -0.0169847 -0.0300000
vn 0.0291564 0.6863326 0.7267032
v -0.0007215 -0.0169847 0.0100000
vn -0.0872555 0.6813880 -0.7267027
v 0.0021593 -0.0168623 -0.0300000
vn -0.0872555 0.6813880 0.7267028
v 0.0021593 -0.0168623 0.0100000
vn 0.1447278 0.6715341 -0.7267021
v -0.0035815 -0.0166184 -0.0300000
vn 0.1447278 0.6715341 0.7267020
v -0.0035815 -0.0166184 0.0100000
vn -0.2011557 0.6568407 -0.7267026
v 0.0049780 -0.0162548 -0.0300000
vn -0.2011557 0.6568407 0.7267026
v 0.0049780 -0.0162548 0.0100000
vn -0.4312442 -0.5830820 -0.6885084
v -0.0118927 -0.0160799 -0.0300000
vn -0.4084844 -0.5523085 -0.7267020
v -0.0118927 -0.0160799 0.0000000
vn 0.2561345 0.6374151 -0.7267030
v -0.0063386 -0.0157741 -0.0300000
vn 0.2561345 0.6374151 0.7267030
v -0.0063386 -0.0157741 0.0100000
vn -0.3092692 0.6133967 -0.7267029
v 0.0076535 -0.0151797 -0.0300000
vn -0.3092692 0.6133967 0.7267029
v 0.0076535 -0.0151797 0.0100000
vn 0.4791397 -0.5444103 -0.6885075
v 0.0132135 -0.0150134 -0.0300000
vn 0.4538509 -0.5156766 -0.7267029
v 0.0132135 -0.0150134 0.0000000
vn 0.3601739 0.5849605 -0.7267022
v -0.0089132 -0.0144760 -0.0300000
vn 0.3601739 0.5849604 0.7267022
v -0.0089132 -0.0144760 0.0100000
vn -0.5235834 -0.5018150 -0.6885071
v -0.0144391 -0.0138388 -0.0300000
vn -0.4959483 -0.4753289 -0.7267033
v -0.0144391 -0.0138388 0.0000000
vn -0.4084857 0.5523070 -0.7267025
v 0.0101088 -0.0136679 -0.0300000
vn -0.4084857 0.5523069 0.7267026
v 0.0101088 -0.0136679 0.0100000
vn 0.4538518 0.5156749 -0.7267035
v -0.0112315 -0.0127614 -0.0300000
vn 0.4538518 0.5156749 0.7267035
v -0.0112315 -0.0127614 0.0100000
vn 0.5642550 -0.4556029 -0.6885074
v 0.0155607 -0.0125644 -0.0300000
vn 0.5344735 -0.4315561 -0.7267031
v 0.0155607 -0.0125644 0.0000000
vn -0.4959490 0.4753302 -0.7267020
v 0.0122733 -0.0117629 -0.0300000
vn -0.4959490 0.4753302 0.7267020
v 0.0122733 -0.0117629 0.0100000
vn -0.6008590 -0.4061097 -0.6885082
v -0.0165702 -0.0111995 -0.0300000
vn -0.5691469 -0.3846761 -0.7267022
v -0.0165702 -0.0111995 0.0000000
vn 0.5344743 0.4315574 -0.7267018
v -0.0132266 -0.0106797 -0.0300000
vn 0.5344743 0.4315574 0.7267018
v -0.0132266 -0.0106797 0.0100000
vn 0.6331354 -0.3536893 -0.6885082
v 0.0174603 -0.0097539 -0.0300000
vn 0.5997199 -0.3350223 -0.7267023
v 0.0174603 -0.0097539 0.0000000
vn -0.5691455 0.3846757 -0.7267035
v 0.0140847 -0.0095196 -0.0300000
vn -0.5691454 0.3846757 0.7267036
v 0.0140847 -0.0095196 0.0100000
vn 0.5997182 0.3350234 -0.7267032
v -0.0148412 -0.0082908 -0.0300000
vn 0.5997182 0.3350235 0.7267032
v -0.0148412 -0.0082908 0.0100000
vn -0.6608499 -0.2987224 -0.6885073
v -0.0182246 -0.0082380 -0.0300000
vn -0.6259701 -0.2829558 -0.7267032
v -0.0182246 -0.0082380 0.0000000
vn -0.6259711 0.2829553 -0.7267025
v 0.0154909 -0.0070023 -0.0300000
vn -0.6259711 0.2829553 0.7267024
v 0.0154909 -0.0070023 0.0100000
vn 0.6838018 -0.2416030 -0.6885079
v 0.0188575 -0.0066628 -0.0300000
vn 0.6477118 -0.2288516 -0.7267025
v 0.0188575 -0.0066628 0.0000000
vn 0.6477119 0.2288507 -0.7267026
v -0.0160289 -0.0056634 -0.0300000
vn 0.6477119 0.2288506 0.7267026
v -0.0160289 -0.0056634 0.0100000
vn -0.7018278 -0.1827410 -0.6885082
v -0.0193547 -0.0050395 -0.0300000
vn -0.6647869 -0.1730963 -0.7267023
v -0.0193547 -0.0050395 0.0000000
vn -0.6647864 0.1730966 -0.7267026
v 0.0164515 -0.0042836 -0.0300000
vn -0.6647864 0.1730967 0.7267026
v 0.0164515 -0.0042836 0.0100000
vn 0.7147973 -0.1225648 -0.6885076
v 0.0197123 -0.0033800 -0.0300000
vn 0.6770707 -0.1160959 -0.7267028
v 0.0197123 -0.0033800 0.0000000
vn 0.6770711 0.1160955 -0.7267026
v -0.0167555 -0.0028730 -0.0300000
vn 0.6770712 0.1160955 0.7267025
v -0.0167555 -0.0028730 0.0100000
vn -0.7168236 -0.0763675 -0.6930599
v -0.0199280 -0.0016961 -0.0300000
vn -0.6848529 -0.0588168 -0.7263037
v -0.0199280 -0.0016961 0.0000000
vn -0.6847201 0.0586143 -0.7264453
v 0.0169388 -0.0014417 -0.0300000
vn -0.6882955 0.0733281 0.7217149
v 0.0169388 -0.0014417 0.0100000
vn -0.7164427 -0.0000001 -0.6976460
v -0.0200000 0.0000000 -0.0300000
vn 0.6869521 0.0000002 -0.7267027
v -0.0170000 0.0000000 -0.0300000
vn 0.7252290 -0.0000001 -0.6885077
v 0.0200000 0.0000000 -0.0300000
vn 0.6869522 -0.0000001 -0.7267026
v 0.0200000 0.0000000 0.0000000
vn 0.6869521 0.0000002 0.7267027
v -0.0170000 0.0000000 0.0100000
vn -0.6972811 0.0000002 0.7167978
v 0.0170000 0.0000000 0.0100000
vn -0.6847201 -0.0586143 -0.7264454
v 0.0169388 0.0014417 -0.0300000
vn -0.6882955 -0.0733279 0.7217149
v 0.0169388 0.0014417 0.0100000
vn -0.7168236 0.0763674 -0.6930599
v -0.0199280 0.0016961 -0.0300000
vn -0.6848528 0.0588167 -0.7263039
v -0.0199280 0.0016961 0.0000000
vn 0.6770711 -0.1160954 -0.7267026
v -0.0167555 0.0028730 -0.0300000
vn 0.6770710 -0.1160954 0.7267026
v -0.0167555 0.0028730 0.0100000
vn 0.7147974 0.1225647 -0.6885076
v 0.0197123 0.0033800 -0.0300000
vn 0.6770707 0.1160958 -0.7267029
v 0.0197123 0.0033800 0.0000000
vn -0.6647864 -0.1730967 -0.7267026
v 0.0164515 0.0042836 -0.0300000
vn -0.6647864 -0.1730966 0.7267026
v 0.0164515 0.0042836 0.0100000
vn -0.7018278 0.1827415 -0.6885080
v -0.0193547 0.0050396 -0.0300000
vn -0.6647866 0.1730968 -0.7267024
v -0.0193547 0.0050396 0.0000000
vn 0.6477119 -0.2288506 -0.7267026
v -0.0160289 0.0056634 -0.0300000
vn 0.6477119 -0.2288507 0.7267026
v -0.0160289 0.0056634 0.0100000
vn 0.6838018 0.2416030 -0.6885079
v 0.0188575 0.0066628 -0.0300000
vn 0.6477118 0.2288516 -0.7267025
v 0.0188575 0.0066628 0.0000000
vn -0.6259705 -0.2829560 -0.7267027
v 0.0154909 0.0070023 -0.0300000
vn -0.6259705 -0.2829560 0.7267027
v 0.0154909 0.0070023 0.0100000
vn -0.6608498 0.2987221 -0.6885076
v -0.0182246 0.0082380 -0.0300000
vn -0.6259706 0.2829557 -0.7267028
v -0.0182246 0.0082380 0.0000000
vn 0.5997182 -0.3350235 -0.7267032
v -0.0148412 0.0082908 -0.0300000
vn 0.5997181 -0.3350234 0.7267032
v -0.0148412 0.0082908 0.0100000
vn -0.5691471 -0.3846752 -0.7267025
v 0.0140847 0.0095196 -0.0300000
vn -0.5691471 -0.3846752 0.7267025
v 0.0140847 0.0095196 0.0100000
vn 0.6331356 0.3536893 -0.6885081
v 0.0174603 0.0097539 -0.0300000
vn 0.5997198 0.3350222 -0.7267023
v 0.0174603 0.0097539 0.0000000
vn 0.5344732 -0.4315580 -0.7267022
v -0.0132266 0.0106797 -0.0300000
vn 0.5344732 -0.4315581 0.7267022
v -0.0132266 0.0106797 0.0100000
vn -0.6008596 0.4061092 -0.6885079
v -0.0165702 0.0111995 -0.0300000
vn -0.5691471 0.3846754 -0.7267025
v -0.0165702 0.0111995 0.0000000
vn -0.4959487 -0.4753286 -0.7267032
v 0.0122733 0.0117630 -0.0300000
vn -0.4959487 -0.4753287 0.7267032
v 0.0122733 0.0117630 0.0100000
vn 0.5642548 0.4556034 -0.6885071
v 0.0155607 0.0125644 -0.0300000
vn 0.5344731 0.4315564 -0.7267033
v 0.0155607 0.0125644 0.0000000
vn 0.4538526 -0.5156755 -0.7267026
v -0.0112315 0.0127614 -0.0300000
vn 0.4538526 -0.5156755 0.7267026
v -0.0112315 0.0127614 0.0100000
vn -0.4084833 -0.5523086 -0.7267026
v 0.0101088 0.0136680 -0.0300000
vn -0.4084833 -0.5523086 0.7267026
v 0.0101088 0.0136680 0.0100000
vn -0.5235835 0.5018150 -0.6885072
v -0.0144391 0.0138388 -0.0300000
vn -0.4959483 0.4753289 -0.7267033
v -0.0144391 0.0138388 0.0000000
vn 0.3601740 -0.5849593 -0.7267030
v -0.0089132 0.0144760 -0.0300000
vn 0.3601740 -0.5849594 0.7267030
v -0.0089132 0.0144760 0.0100000
vn 0.4791392 0.5444105 -0.6885077
v 0.0132135 0.0150135 -0.0300000
vn 0.4538507 0.5156770 -0.7267027
v 0.0132135 0.0150135 0.0000000
vn -0.3092673 -0.6133980 -0.7267026
v 0.0076535 0.0151797 -0.0300000
vn -0.3092673 -0.6133980 0.7267027
v 0.0076535 0.0151797 0.0100000
vn 0.2561348 -0.6374156 -0.7267025
v -0.0063386 0.0157741 -0.0300000
vn 0.2561348 -0.6374156 0.7267025
v -0.0063386 0.0157741 0.0100000
vn -0.4312439 0.5830827 -0.6885081
v -0.0118927 0.0160799 -0.0300000
vn -0.4084837 0.5523087 -0.7267023
v -0.0118927 0.0160799 0.0000000
vn -0.2011568 -0.6568413 -0.7267017
v 0.0049780 0.0162548 -0.0300000
vn -0.2011568 -0.6568413 0.7267017
v 0.0049780 0.0162548 0.0100000
vn 0.1447266 -0.6715334 -0.7267030
v -0.0035815 0.0166184 -0.0300000
vn 0.1447266 -0.6715333 0.7267029
v -0.0035815 0.0166184 0.0100000
vn -0.0872563 -0.6813869 -0.7267037
v 0.0021593 0.0168623 -0.0300000
vn -0.0872563 -0.6813870 0.7267036
v 0.0021593 0.0168623 0.0100000
vn 0.0291556 -0.6863335 -0.7267023
v -0.0007215 0.0169847 -0.0300000
vn 0.0291556 -0.6863336 0.7267023
v -0.0007215 0.0169847 0.0100000
vn 0.3802423 0.6175534 -0.6885083
v 0.0104861 0.0170306 -0.0300000
vn 0.3601741 0.5849604 -0.7267022
v 0.0104861 0.0170306 0.0000000
vn -0.3265013 0.6475752 -0.6885080
v -0.0090041 0.0178585 -0.0300000
vn -0.3092691 0.6133974 -0.7267024
v -0.0090041 0.0178585 0.0000000
vn 0.2704072 0.6729318 -0.6885076
v 0.0074571 0.0185578 -0.0300000
vn 0.2561353 0.6374149 -0.7267028
v 0.0074571 0.0185578 0.0000000
vn -0.2123645 0.6934398 -0.6885076
v -0.0058565 0.0191233 -0.0300000
vn -0.2011559 0.6568404 -0.7267029
v -0.0058565 0.0191233 0.0000000
vn 0.1527902 0.7089518 -0.6885074
v 0.0042136 0.0195511 -0.0300000
vn 0.1447260 0.6715335 -0.7267030
v 0.0042136 0.0195511 0.0000000
vn -0.0924901 0.7190120 -0.6888160
v -0.0025404 0.0198380 -0.0300000
vn -0.0948445 0.6830348 -0.7242016
v -0.0025404 0.0198380 0.0000000
vn 0.0311821 0.7242525 -0.6888294
v 0.0008488 0.0199820 -0.0300000
vn 0.0515726 0.6928436 -0.7192413
v 0.0008488 0.0199820 0.0000000
vn -0.5773494 0.5773494 -0.5773519
v -0.0210000 0.0200000 0.0000000
vn -0.0106052 0.9998519 -0.0135534
v 0.0000000 0.0200000 0.0000000
vn 0.0000000 0.0000000 0.0000000
v 0.0000000 0.0200000 0.0000000
vn 0.5773571 0.5773563 -0.5773374
v 0.0210000 0.0200000 0.0000000
vn -0.5773509 0.5773502 0.5773497
v -0.0210000 0.0200000 0.0100000
vn 0.5773517 0.5773517 0.5773473
v 0.0210000 0.0200000 0.0100000
# 160 vertices, 0 vertices normals


usemtl material_0
f 3//3 159//159 1//1
f 159//159 155//155 1//1
f 2//2 3//3 1//1
f 58//58 48//48 1//1
f 48//48 38//38 1//1
f 38//38 28//28 1//1
f 28//28 16//16 1//1
f 16//16 12//12 1//1
f 12//12 8//8 1//1
f 8//8 2//2 1//1
f 155//155 74//74 1//1
f 74//74 66//66 1//1
f 66//66 58//58 1//1
f 158//158 4//4 2//2
f 4//4 3//3 2//2
f 8//8 6//6 2//2
f 6//6 10//10 2//2
f 10//10 14//14 2//2
f 14//14 18//18 2//2
f 18//18 34//34 2//2
f 34//34 44//44 2//2
f 44//44 52//52 2//2
f 52//52 62//62 2//2
f 62//62 70//70 2//2
f 70//70 80//80 2//2
f 80//80 158//158 2//2
f 22//22 20//20 3//3
f 4//4 22//22 3//3
f 20//20 24//24 3//3
f 24//24 30//30 3//3
f 30//30 36//36 3//3
f 36//36 42//42 3//3
f 42//42 50//50 3//3
f 50//50 56//56 3//3
f 56//56 64//64 3//3
f 64//64 72//72 3//3
f 72//72 159//159 3//3
f 158//158 160//160 4//4
f 46//46 40//40 4//4
f 76//76 68//68 4//4
f 160//160 76//76 4//4
f 40//40 32//32 4//4
f 32//32 26//26 4//4
f 26//26 22//22 4//4
f 68//68 60//60 4//4
f 60//60 54//54 4//4
f 54//54 46//46 4//4
f 19//19 9//9 5//5
f 23//23 19//19 5//5
f 7//7 23//23 5//5
f 8//8 7//7 5//5
f 6//6 8//8 5//5
f 9//9 6//6 5//5
f 9//9 10//10 6//6
f 11//11 23//23 7//7
f 12//12 11//11 7//7
f 8//8 12//12 7//7
f 19//19 21//21 9//9
f 21//21 25//25 9//9
f 25//25 13//13 9//9
f 13//13 10//10 9//9
f 13//13 14//14 10//10
f 29//29 23//23 11//11
f 35//35 29//29 11//11
f 15//15 35//35 11//11
f 16//16 15//15 11//11
f 12//12 16//16 11//11
f 25//25 31//31 13//13
f 31//31 17//17 13//13
f 17//17 14//14 13//13
f 17//17 18//18 14//14
f 27//27 35//35 15//15
f 28//28 27//27 15//15
f 16//16 28//28 15//15
f 31//31 39//39 17//17
f 39//39 33//33 17//17
f 33//33 18//18 17//17
f 33//33 34//34 18//18
f 23//23 24//24 19//19
f 24//24 20//20 19//19
f 20//20 21//21 19//19
f 22//22 21//21 20//20
f 22//22 25//25 21//21
f 26//26 25//25 22//22
f 29//29 30//30 23//23
f 30//30 24//24 23//23
f 26//26 31//31 25//25
f 32//32 31//31 26//26
f 49//49 41//41 27//27
f 41//41 35//35 27//27
f 37//37 49//49 27//27
f 38//38 37//37 27//27
f 28//28 38//38 27//27
f 35//35 36//36 29//29
f 36//36 30//30 29//29
f 32//32 39//39 31//31
f 40//40 39//39 32//32
f 39//39 43//43 33//33
f 43//43 34//34 33//33
f 43//43 44//44 34//34
f 41//41 42//42 35//35
f 42//42 36//36 35//35
f 47//47 49//49 37//37
f 48//48 47//47 37//37
f 38//38 48//48 37//37
f 40//40 45//45 39//39
f 45//45 43//43 39//39
f 46//46 45//45 40//40
f 49//49 50//50 41//41
f 50//50 42//42 41//41
f 45//45 51//51 43//43
f 51//51 44//44 43//43
f 51//51 52//52 44//44
f 46//46 53//53 45//45
f 53//53 51//51 45//45
f 54//54 53//53 46//46
f 57//57 55//55 47//47
f 55//55 49//49 47//47
f 58//58 57//57 47//47
f 48//48 58//58 47//47
f 55//55 56//56 49//49
f 56//56 50//50 49//49
f 53//53 59//59 51//51
f 59//59 61//61 51//51
f 61//61 52//52 51//51
f 61//61 62//62 52//52
f 54//54 59//59 53//53
f 60//60 59//59 54//54
f 63//63 64//64 55//55
f 64//64 56//56 55//55
f 57//57 63//63 55//55
f 65//65 63//63 57//57
f 66//66 65//65 57//57
f 58//58 66//66 57//57
f 60//60 67//67 59//59
f 67//67 61//61 59//59
f 68//68 67//67 60//60
f 67//67 69//69 61//61
f 69//69 62//62 61//61
f 69//69 70//70 62//62
f 71//71 72//72 63//63
f 72//72 64//64 63//63
f 65//65 71//71 63//63
f 73//73 78//78 65//65
f 78//78 71//71 65//65
f 74//74 73//73 65//65
f 66//66 74//74 65//65
f 68//68 75//75 67//67
f 79//79 69//69 67//67
f 75//75 79//79 67//67
f 76//76 75//75 68//68
f 79//79 70//70 69//69
f 79//79 80//80 70//70
f 78//78 81//81 71//71
f 81//81 72//72 71//71
f 81//81 159//159 72//72
f 77//77 78//78 73//73
f 74//74 77//77 73//73
f 155//155 86//86 74//74
f 86//86 77//77 74//74
f 76//76 82//82 75//75
f 82//82 83//83 75//75
f 83//83 79//79 75//75
f 160//160 82//82 76//76
f 85//85 78//78 77//77
f 86//86 85//85 77//77
f 87//87 88//88 78//78
f 88//88 81//81 78//78
f 85//85 87//87 78//78
f 83//83 89//89 79//79
f 89//89 80//80 79//79
f 90//90 158//158 80//80
f 89//89 90//90 80//80
f 88//88 159//159 81//81
f 84//84 83//83 82//82
f 160//160 84//84 82//82
f 84//84 91//91 83//83
f 91//91 89//89 83//83
f 92//92 91//91 84//84
f 160//160 92//92 84//84
f 93//93 87//87 85//85
f 86//86 94//94 85//85
f 94//94 93//93 85//85
f 155//155 94//94 86//86
f 95//95 96//96 87//87
f 96//96 88//88 87//87
f 93//93 95//95 87//87
f 96//96 159//159 88//88
f 91//91 97//97 89//89
f 97//97 90//90 89//89
f 98//98 158//158 90//90
f 97//97 98//98 90//90
f 92//92 99//99 91//91
f 99//99 97//97 91//91
f 100//100 99//99 92//92
f 160//160 100//100 92//92
f 101//101 95//95 93//93
f 94//94 102//102 93//93
f 102//102 101//101 93//93
f 155//155 102//102 94//94
f 103//103 104//104 95//95
f 104//104 96//96 95//95
f 101//101 103//103 95//95
f 104//104 159//159 96//96
f 99//99 107//107 97//97
f 107//107 98//98 97//97
f 108//108 158//158 98//98
f 107//107 108//108 98//98
f 100//100 105//105 99//99
f 105//105 107//107 99//99
f 106//106 105//105 100//100
f 160//160 106//106 100//100
f 109//109 103//103 101//101
f 111//111 109//109 101//101
f 102//102 112//112 101//101
f 112//112 111//111 101//101
f 155//155 112//112 102//102
f 109//109 110//110 103//103
f 110//110 104//104 103//103
f 110//110 159//159 104//104
f 106//106 113//113 105//105
f 115//115 107//107 105//105
f 113//113 115//115 105//105
f 114//114 113//113 106//106
f 160//160 114//114 106//106
f 115//115 108//108 107//107
f 116//116 158//158 108//108
f 115//115 116//116 108//108
f 117//117 118//118 109//109
f 118//118 110//110 109//109
f 121//121 117//117 109//109
f 111//111 121//121 109//109
f 118//118 159//159 110//110
f 112//112 122//122 111//111
f 122//122 121//121 111//111
f 155//155 122//122 112//112
f 114//114 119//119 113//113
f 125//125 115//115 113//113
f 119//119 125//125 113//113
f 120//120 119//119 114//114
f 160//160 120//120 114//114
f 125//125 116//116 115//115
f 126//126 158//158 116//116
f 125//125 126//126 116//116
f 123//123 124//124 117//117
f 124//124 118//118 117//117
f 131//131 123//123 117//117
f 121//121 131//131 117//117
f 124//124 159//159 118//118
f 120//120 127//127 119//119
f 141//141 125//125 119//119
f 127//127 141//141 119//119
f 128//128 127//127 120//120
f 160//160 128//128 120//120
f 122//122 132//132 121//121
f 132//132 131//131 121//121
f 155//155 132//132 122//122
f 129//129 130//130 123//123
f 130//130 124//124 123//123
f 143//143 129//129 123//123
f 131//131 143//143 123//123
f 130//130 159//159 124//124
f 141//141 126//126 125//125
f 142//142 158//158 126//126
f 141//141 142//142 126//126
f 128//128 133//133 127//127
f 145//145 141//141 127//127
f 133//133 145//145 127//127
f 134//134 133//133 128//128
f 160//160 134//134 128//128
f 135//135 136//136 129//129
f 136//136 130//130 129//129
f 147//147 135//135 129//129
f 143//143 147//147 129//129
f 136//136 159//159 130//130
f 132//132 144//144 131//131
f 144//144 143//143 131//131
f 155//155 144//144 132//132
f 134//134 137//137 133//133
f 137//137 153//153 133//133
f 149//149 145//145 133//133
f 153//153 149//149 133//133
f 138//138 137//137 134//134
f 160//160 138//138 134//134
f 139//139 140//140 135//135
f 140//140 136//136 135//135
f 147//147 139//139 135//135
f 140//140 159//159 136//136
f 138//138 139//139 137//137
f 139//139 151//151 137//137
f 151//151 153//153 137//137
f 140//140 139//139 138//138
f 160//160 140//140 138//138
f 147//147 151//151 139//139
f 160//160 159//159 140//140
f 145//145 142//142 141//141
f 146//146 158//158 142//142
f 145//145 146//146 142//142
f 144//144 148//148 143//143
f 148//148 147//147 143//143
f 155//155 148//148 144//144
f 149//149 146//146 145//145
f 150//150 158//158 146//146
f 149//149 150//150 146//146
f 148//148 152//152 147//147
f 152//152 151//151 147//147
f 155//155 152//152 148//148
f 153//153 150//150 149//149
f 154//154 158//158 150//150
f 153//153 154//154 150//150
f 152//152 156//156 151//151
f 156//156 153//153 151//151
f 155//155 156//156 152//152
f 156//156 154//154 153//153
f 156//156 158//158 154//154
f 159//159 156//156 155//155
f 159//159 160//160 156//156
f 160//160 158//158 156//156
# 318 faces, 0 coords texture

# End of File
