# https://github.com/mikedh/trimesh

o geometry_0
v 0.00143468 -0.30000000 0.00000095 0.54509804 0.71372549 0.60000000
v 0.02100000 -0.30000000 0.00000095 0.54509804 0.71372549 0.60000000
v 0.00143468 -0.30000000 0.01000000 0.54509804 0.71372549 0.60000000
v 0.00143468 -0.01861650 -0.00001867 0.54509804 0.71372549 0.60000000
v 0.00421550 -0.01955542 -0.00001867 0.54509804 0.71372549 0.60000000
v 0.02100000 -0.30000000 0.01000000 0.54509804 0.71372549 0.60000000
v 0.00745787 -0.01855782 -0.00001867 0.54509804 0.71372549 0.60000000
v 0.01048766 -0.01703206 -0.00001867 0.54509804 0.71372549 0.60000000
v 0.01321294 -0.01503685 -0.00001867 0.54509804 0.71372549 0.60000000
v 0.01555902 -0.01257217 -0.00001867 0.54509804 0.71372549 0.60000000
v 0.01745886 -0.00975541 -0.00001867 0.54509804 0.71372549 0.60000000
v 0.01885693 -0.00667457 -0.00001867 0.54509804 0.71372549 0.60000000
v 0.01971109 -0.00338834 -0.00001867 0.54509804 0.71372549 0.60000000
v 0.01997730 -0.00024881 -0.00001867 0.54509804 0.71372549 0.60000000
v 0.02100000 -0.00024881 0.00000095 0.54509804 0.71372549 0.60000000
v 0.00143468 -0.01691470 0.01000000 0.54509804 0.71372549 0.60000000
v 0.00143468 -0.01691470 -0.00001867 0.54509804 0.71372549 0.60000000
v 0.02100000 -0.00024881 0.01000000 0.54509804 0.71372549 0.60000000
v 0.01698390 -0.00024881 -0.00001867 0.54509804 0.71372549 0.60000000
v 0.01698773 -0.00024881 0.01000000 0.54509804 0.71372549 0.60000000
f 1 2 6
f 1 6 3
f 1 3 16
f 1 16 17
f 1 17 4
f 1 4 5
f 1 5 2
f 2 5 7
f 2 7 8
f 2 8 9
f 2 9 10
f 2 10 11
f 2 11 12
f 2 12 13
f 2 13 14
f 2 14 15
f 2 15 18
f 2 18 6
f 3 6 18
f 3 18 20
f 3 20 16
f 4 17 19
f 4 19 14
f 4 14 13
f 4 13 12
f 4 12 11
f 4 11 10
f 4 10 9
f 4 9 8
f 4 8 7
f 4 7 5
f 14 19 20
f 14 20 18
f 14 18 15
f 16 20 19
f 16 19 17

o geometry_1
v 0.01693810 0.00001142 -0.03000000 0.54117647 0.42352941 0.64313725
v 0.01199532 0.01200765 -0.03000000 0.54117647 0.42352941 0.64313725
v 0.01999825 0.00001142 -0.03000000 0.54117647 0.42352941 0.64313725
v 0.01698432 0.00001142 -0.00001964 0.54117647 0.42352941 0.64313725
v 0.01199532 0.01200765 -0.00001964 0.54117647 0.42352941 0.64313725
v 0.01593763 0.01200765 -0.03000000 0.54117647 0.42352941 0.64313725
v 0.01971229 0.00338037 -0.03000000 0.54117647 0.42352941 0.64313725
v 0.01999825 0.00001142 -0.00001964 0.54117647 0.42352941 0.64313725
v 0.01593763 0.01200765 -0.00001964 0.54117647 0.42352941 0.64313725
v 0.01745987 0.00975307 -0.03000000 0.54117647 0.42352941 0.64313725
v 0.01885676 0.00666242 -0.03000000 0.54117647 0.42352941 0.64313725
v 0.01971229 0.00338037 -0.00001964 0.54117647 0.42352941 0.64313725
v 0.01745987 0.00975307 -0.00001964 0.54117647 0.42352941 0.64313725
v 0.01885676 0.00666242 -0.00001964 0.54117647 0.42352941 0.64313725
f 21 22 26
f 21 26 30
f 21 30 31
f 21 31 27
f 21 27 23
f 21 23 28
f 21 28 24
f 21 24 25
f 21 25 22
f 22 25 29
f 22 29 26
f 23 27 32
f 23 32 28
f 24 28 32
f 24 32 34
f 24 34 33
f 24 33 29
f 24 29 25
f 26 29 33
f 26 33 30
f 27 31 34
f 27 34 32
f 30 33 34
f 30 34 31

o geometry_2
v -0.01443861 0.01383754 -0.00001867 0.43529412 0.89019608 0.96078431
v -0.01189242 0.01607895 -0.00001867 0.43529412 0.89019608 0.96078431
v -0.01402621 0.01276359 -0.00001867 0.43529412 0.89019608 0.96078431
v -0.02100000 0.01276359 0.00000095 0.43529412 0.89019608 0.96078431
v -0.02100000 0.02000000 0.00000095 0.43529412 0.89019608 0.96078431
v -0.00900771 0.01785706 -0.00001867 0.43529412 0.89019608 0.96078431
v -0.01261668 0.01276359 -0.00001867 0.43529412 0.89019608 0.96078431
v -0.02100000 0.01276359 0.01000000 0.43529412 0.89019608 0.96078431
v -0.02100000 0.02000000 0.01000000 0.43529412 0.89019608 0.96078431
v -0.00003965 0.02000000 0.00001959 0.43529412 0.89019608 0.96078431
v -0.00003965 0.01999716 -0.00001867 0.43529412 0.89019608 0.96078431
v -0.00254275 0.01983706 -0.00001867 0.43529412 0.89019608 0.96078431
v -0.00586037 0.01912228 -0.00001867 0.43529412 0.89019608 0.96078431
v -0.01122767 0.01276359 -0.00001082 0.43529412 0.89019608 0.96078431
v -0.00003965 0.01695525 -0.00001867 0.43529412 0.89019608 0.96078431
v -0.01123177 0.01276359 0.01000000 0.43529412 0.89019608 0.96078431
v -0.00003965 0.02000000 0.01000000 0.43529412 0.89019608 0.96078431
v -0.00003965 0.01695525 0.01000000 0.43529412 0.89019608 0.96078431
f 35 36 40
f 35 40 47
f 35 47 46
f 35 46 45
f 35 45 49
f 35 49 41
f 35 41 37
f 35 37 38
f 35 38 39
f 35 39 36
f 36 39 40
f 37 41 48
f 37 48 50
f 37 50 42
f 37 42 38
f 38 42 43
f 38 43 39
f 39 43 51
f 39 51 44
f 39 44 45
f 39 45 46
f 39 46 47
f 39 47 40
f 41 49 48
f 42 50 52
f 42 52 51
f 42 51 43
f 44 51 52
f 44 52 49
f 44 49 45
f 48 49 52
f 48 52 50

o geometry_3
v -0.01999927 0.00001730 -0.03000000 0.38039216 0.78823529 0.52549020
v -0.01699799 0.00001730 -0.03000000 0.38039216 0.78823529 0.52549020
v -0.01999927 0.00001730 -0.02969186 0.38039216 0.78823529 0.52549020
v -0.01992730 0.00169715 -0.03000000 0.38039216 0.78823529 0.52549020
v -0.01191994 0.01204156 -0.03000000 0.38039216 0.78823529 0.52549020
v -0.01699799 0.00001730 -0.00001964 0.38039216 0.78823529 0.52549020
v -0.01992730 0.00001730 -0.00001964 0.38039216 0.78823529 0.52549020
v -0.01992730 0.00169558 -0.00001964 0.38039216 0.78823529 0.52549020
v -0.01935393 0.00504114 -0.03000000 0.38039216 0.78823529 0.52549020
v -0.01935472 0.00503800 -0.00001964 0.38039216 0.78823529 0.52549020
v -0.01191994 0.01605593 -0.03000000 0.38039216 0.78823529 0.52549020
v -0.01191994 0.01204156 -0.00001964 0.38039216 0.78823529 0.52549020
v -0.01822460 0.00823757 -0.03000000 0.38039216 0.78823529 0.52549020
v -0.01822460 0.00823442 -0.00001964 0.38039216 0.78823529 0.52549020
v -0.01443959 0.01383759 -0.03000000 0.38039216 0.78823529 0.52549020
v -0.01191994 0.01605593 -0.00032191 0.38039216 0.78823529 0.52549020
v -0.01191994 0.01605435 -0.00001964 0.38039216 0.78823529 0.52549020
v -0.01657014 0.01119849 -0.03000000 0.38039216 0.78823529 0.52549020
v -0.01657093 0.01119693 -0.00001964 0.38039216 0.78823529 0.52549020
v -0.01444117 0.01383601 -0.00001964 0.38039216 0.78823529 0.52549020
f 53 54 58
f 53 58 59
f 53 59 55
f 53 55 56
f 53 56 61
f 53 61 65
f 53 65 70
f 53 70 67
f 53 67 63
f 53 63 57
f 53 57 54
f 54 57 64
f 54 64 58
f 55 59 60
f 55 60 56
f 56 60 62
f 56 62 61
f 57 63 68
f 57 68 69
f 57 69 64
f 58 64 69
f 58 69 72
f 58 72 71
f 58 71 66
f 58 66 62
f 58 62 60
f 58 60 59
f 61 62 65
f 62 66 65
f 63 67 68
f 65 66 71
f 65 71 70
f 67 70 72
f 67 72 68
f 68 72 69
f 70 71 72

o geometry_4
v 0.00003075 0.01999911 -0.00001964 0.56470588 0.92549020 0.07058824
v 0.00003075 0.01695222 -0.00001964 0.56470588 0.92549020 0.07058824
v 0.00003075 0.01999911 -0.00116416 0.56470588 0.92549020 0.07058824
v -0.00000201 0.01999989 -0.00001964 0.56470588 0.92549020 0.07058824
v -0.01191994 0.01204385 -0.00001964 0.56470588 0.92549020 0.07058824
v 0.00003075 0.01695222 -0.03000000 0.56470588 0.92549020 0.07058824
v 0.00003075 0.01994693 -0.03000000 0.56470588 0.92549020 0.07058824
v -0.00254047 0.01983788 -0.03000000 0.56470588 0.92549020 0.07058824
v -0.00254281 0.01983711 -0.00001964 0.56470588 0.92549020 0.07058824
v -0.01191994 0.01204385 -0.03000000 0.56470588 0.92549020 0.07058824
v -0.01191994 0.01605575 -0.00001964 0.56470588 0.92549020 0.07058824
v -0.00585686 0.01912290 -0.03000000 0.56470588 0.92549020 0.07058824
v -0.00585920 0.01912211 -0.00001964 0.56470588 0.92549020 0.07058824
v -0.01191994 0.01605575 -0.03000000 0.56470588 0.92549020 0.07058824
v -0.01189421 0.01607834 -0.00001964 0.56470588 0.92549020 0.07058824
v -0.00900363 0.01785803 -0.03000000 0.56470588 0.92549020 0.07058824
v -0.00900597 0.01785725 -0.00001964 0.56470588 0.92549020 0.07058824
v -0.01189187 0.01607989 -0.03000000 0.56470588 0.92549020 0.07058824
f 73 74 78
f 73 78 79
f 73 79 75
f 73 75 76
f 73 76 81
f 73 81 85
f 73 85 89
f 73 89 87
f 73 87 83
f 73 83 77
f 73 77 74
f 74 77 82
f 74 82 78
f 75 79 76
f 76 79 80
f 76 80 81
f 77 83 86
f 77 86 82
f 78 82 86
f 78 86 90
f 78 90 88
f 78 88 84
f 78 84 80
f 78 80 79
f 80 84 85
f 80 85 81
f 83 87 86
f 84 88 89
f 84 89 85
f 86 87 90
f 87 89 90
f 88 90 89

o geometry_5
v 0.01204086 -0.01196748 -0.00001964 0.08627451 0.01960784 0.83137255
v 0.00003075 -0.01695224 -0.00001964 0.08627451 0.01960784 0.83137255
v 0.01204086 -0.01588139 -0.00001964 0.08627451 0.01960784 0.83137255
v 0.01204086 -0.01196748 -0.03000000 0.08627451 0.01960784 0.83137255
v 0.00003075 -0.01994670 -0.00001964 0.08627451 0.01960784 0.83137255
v 0.00003075 -0.01695224 -0.03000000 0.08627451 0.01960784 0.83137255
v 0.01048551 -0.01702991 -0.00001964 0.08627451 0.01960784 0.83137255
v 0.01204086 -0.01588139 -0.03000000 0.08627451 0.01960784 0.83137255
v 0.00084898 -0.01998200 -0.00001964 0.08627451 0.01960784 0.83137255
v 0.00003075 -0.01994670 -0.03000000 0.08627451 0.01960784 0.83137255
v 0.00745595 -0.01855734 -0.00001964 0.08627451 0.01960784 0.83137255
v 0.01048551 -0.01702991 -0.03000000 0.08627451 0.01960784 0.83137255
v 0.00421477 -0.01955052 -0.00001964 0.08627451 0.01960784 0.83137255
v 0.00084898 -0.01998200 -0.03000000 0.08627451 0.01960784 0.83137255
v 0.00745595 -0.01855734 -0.03000000 0.08627451 0.01960784 0.83137255
v 0.00421477 -0.01955052 -0.03000000 0.08627451 0.01960784 0.83137255
f 91 92 95
f 91 95 99
f 91 99 103
f 91 103 101
f 91 101 97
f 91 97 93
f 91 93 98
f 91 98 94
f 91 94 96
f 91 96 92
f 92 96 100
f 92 100 95
f 93 97 102
f 93 102 98
f 94 98 102
f 94 102 105
f 94 105 106
f 94 106 104
f 94 104 100
f 94 100 96
f 95 100 104
f 95 104 99
f 97 101 105
f 97 105 102
f 99 104 106
f 99 106 103
f 101 103 106
f 101 106 105

o geometry_6
v -0.01053063 -0.30000000 0.00000095 0.77647059 0.86666667 0.97647059
v -0.00253931 -0.01984716 -0.00001867 0.77647059 0.86666667 0.97647059
v 0.00084789 -0.01998749 -0.00001867 0.77647059 0.86666667 0.97647059
v 0.00143468 -0.30000000 0.00000095 0.77647059 0.86666667 0.97647059
v -0.01053063 -0.30000000 0.01000000 0.77647059 0.86666667 0.97647059
v -0.01053063 -0.01692831 -0.00001867 0.77647059 0.86666667 0.97647059
v -0.00900100 -0.01788256 -0.00001867 0.77647059 0.86666667 0.97647059
v -0.00585390 -0.01914551 -0.00001867 0.77647059 0.86666667 0.97647059
v 0.00143468 -0.01861227 -0.00001867 0.77647059 0.86666667 0.97647059
v 0.00143468 -0.30000000 0.01000000 0.77647059 0.86666667 0.97647059
v -0.01053063 -0.01327976 0.01000000 0.77647059 0.86666667 0.97647059
v -0.01053063 -0.01327976 -0.00001867 0.77647059 0.86666667 0.97647059
v 0.00143468 -0.01690025 -0.00001867 0.77647059 0.86666667 0.97647059
v 0.00143468 -0.01690025 0.01000000 0.77647059 0.86666667 0.97647059
f 107 108 109
f 107 109 110
f 107 110 116
f 107 116 111
f 107 111 117
f 107 117 118
f 107 118 112
f 107 112 113
f 107 113 114
f 107 114 108
f 108 114 113
f 108 113 112
f 108 112 118
f 108 118 119
f 108 119 115
f 108 115 109
f 109 115 110
f 110 115 119
f 110 119 120
f 110 120 116
f 111 116 120
f 111 120 117
f 117 120 119
f 117 119 118

o geometry_7
v -0.02100000 -0.30000000 0.00000095 0.79607843 0.45882353 0.78039216
v -0.01656876 -0.01122248 -0.00001867 0.79607843 0.45882353 0.78039216
v -0.01443820 -0.01386320 -0.00001867 0.79607843 0.45882353 0.78039216
v -0.01189157 -0.01609314 -0.00001867 0.79607843 0.45882353 0.78039216
v -0.01053063 -0.01694404 -0.00001867 0.79607843 0.45882353 0.78039216
v -0.01053063 -0.30000000 0.00000095 0.79607843 0.45882353 0.78039216
v -0.02100000 -0.30000000 0.01000000 0.79607843 0.45882353 0.78039216
v -0.02100000 -0.00024881 0.00000095 0.79607843 0.45882353 0.78039216
v -0.01992703 -0.00171588 -0.00001867 0.79607843 0.45882353 0.78039216
v -0.01935314 -0.00506080 -0.00001867 0.79607843 0.45882353 0.78039216
v -0.01822279 -0.00825900 -0.00001867 0.79607843 0.45882353 0.78039216
v -0.01053063 -0.01330571 -0.00001867 0.79607843 0.45882353 0.78039216
v -0.01053063 -0.30000000 0.01000000 0.79607843 0.45882353 0.78039216
v -0.02100000 -0.00024881 0.01000000 0.79607843 0.45882353 0.78039216
v -0.01992703 -0.00024881 -0.00001867 0.79607843 0.45882353 0.78039216
v -0.01053063 -0.01330571 0.01000000 0.79607843 0.45882353 0.78039216
v -0.01697868 -0.00024881 -0.00001867 0.79607843 0.45882353 0.78039216
v -0.01697868 -0.00024881 0.01000000 0.79607843 0.45882353 0.78039216
f 121 122 123
f 121 123 124
f 121 124 125
f 121 125 126
f 121 126 133
f 121 133 127
f 121 127 134
f 121 134 128
f 121 128 135
f 121 135 129
f 121 129 130
f 121 130 131
f 121 131 122
f 122 131 130
f 122 130 129
f 122 129 135
f 122 135 137
f 122 137 132
f 122 132 125
f 122 125 124
f 122 124 123
f 125 132 136
f 125 136 133
f 125 133 126
f 127 133 136
f 127 136 138
f 127 138 134
f 128 134 138
f 128 138 137
f 128 137 135
f 132 137 138
f 132 138 136

o geometry_8
v 0.00003075 -0.01695271 -0.00001964 0.11764706 0.63921569 0.14117647
v 0.00003075 -0.01994724 -0.00001964 0.11764706 0.63921569 0.14117647
v 0.00003075 -0.01695271 -0.03000000 0.11764706 0.63921569 0.14117647
v -0.01192068 -0.01204231 -0.00001964 0.11764706 0.63921569 0.14117647
v -0.00253829 -0.01983737 -0.00001964 0.11764706 0.63921569 0.14117647
v -0.00254063 -0.01983737 -0.03000000 0.11764706 0.63921569 0.14117647
v 0.00003075 -0.01994724 -0.03000000 0.11764706 0.63921569 0.14117647
v -0.01192068 -0.01204231 -0.03000000 0.11764706 0.63921569 0.14117647
v -0.01192068 -0.01605436 -0.00001964 0.11764706 0.63921569 0.14117647
v -0.00585488 -0.01912316 -0.00001964 0.11764706 0.63921569 0.14117647
v -0.00585722 -0.01912316 -0.03000000 0.11764706 0.63921569 0.14117647
v -0.01192068 -0.01605514 -0.03000000 0.11764706 0.63921569 0.14117647
v -0.01192068 -0.01605514 -0.02966839 0.11764706 0.63921569 0.14117647
v -0.01189260 -0.01607989 -0.03000000 0.11764706 0.63921569 0.14117647
v -0.01189026 -0.01608067 -0.00001964 0.11764706 0.63921569 0.14117647
v -0.00900184 -0.01785881 -0.00001964 0.11764706 0.63921569 0.14117647
v -0.00900301 -0.01785804 -0.03000000 0.11764706 0.63921569 0.14117647
f 139 140 145
f 139 145 141
f 139 141 146
f 139 146 142
f 139 142 147
f 139 147 153
f 139 153 154
f 139 154 148
f 139 148 143
f 139 143 140
f 140 143 144
f 140 144 145
f 141 145 144
f 141 144 149
f 141 149 155
f 141 155 152
f 141 152 150
f 141 150 146
f 142 146 150
f 142 150 151
f 142 151 147
f 143 148 149
f 143 149 144
f 147 151 152
f 147 152 153
f 148 154 149
f 149 154 155
f 150 152 151
f 152 155 154
f 152 154 153

o geometry_9
v -0.01123428 0.01276161 0.01000000 0.94117647 0.52156863 0.41176471
v -0.02099904 0.01276161 0.01000000 0.94117647 0.52156863 0.41176471
v -0.01123237 0.01276033 0.01000000 0.94117647 0.52156863 0.41176471
v -0.01122950 0.01276161 -0.00001082 0.94117647 0.52156863 0.41176471
v -0.02099904 0.01276161 0.00000095 0.94117647 0.52156863 0.41176471
v -0.02099904 -0.00024881 0.01000000 0.94117647 0.52156863 0.41176471
v -0.01697837 -0.00024881 0.01000000 0.94117647 0.52156863 0.41176471
v -0.01123237 0.01276033 -0.00001867 0.94117647 0.52156863 0.41176471
v -0.01261914 0.01276161 -0.00001867 0.94117647 0.52156863 0.41176471
v -0.01697837 -0.00024881 -0.00001867 0.94117647 0.52156863 0.41176471
v -0.01402790 0.01276161 -0.00001867 0.94117647 0.52156863 0.41176471
v -0.01657095 0.01119629 -0.00001867 0.94117647 0.52156863 0.41176471
v -0.01822455 0.00823503 -0.00001867 0.94117647 0.52156863 0.41176471
v -0.01935501 0.00503815 -0.00001867 0.94117647 0.52156863 0.41176471
v -0.01992788 0.00169607 -0.00001867 0.94117647 0.52156863 0.41176471
v -0.02099904 -0.00024881 0.00000095 0.94117647 0.52156863 0.41176471
v -0.01992693 -0.00024881 -0.00001867 0.94117647 0.52156863 0.41176471
f 156 157 161
f 156 161 162
f 156 162 158
f 156 158 159
f 156 159 164
f 156 164 166
f 156 166 160
f 156 160 157
f 157 160 171
f 157 171 161
f 158 162 159
f 159 163 164
f 159 162 165
f 159 165 163
f 160 166 167
f 160 167 168
f 160 168 169
f 160 169 170
f 160 170 171
f 161 171 172
f 161 172 165
f 161 165 162
f 163 165 172
f 163 172 170
f 163 170 169
f 163 169 168
f 163 168 167
f 163 167 166
f 163 166 164
f 170 172 171

o geometry_10
v 0.01204086 -0.01588069 -0.03000000 0.26274510 0.77254902 0.45490196
v 0.01204086 -0.01196677 -0.03000000 0.26274510 0.77254902 0.45490196
v 0.01321416 -0.01501266 -0.03000000 0.26274510 0.77254902 0.45490196
v 0.01204086 -0.01588069 -0.00001964 0.26274510 0.77254902 0.45490196
v 0.01693819 0.00001142 -0.03000000 0.26274510 0.77254902 0.45490196
v 0.01204086 -0.01196677 -0.00001964 0.26274510 0.77254902 0.45490196
v 0.01556077 -0.01256413 -0.03000000 0.26274510 0.77254902 0.45490196
v 0.01321416 -0.01501266 -0.00001964 0.26274510 0.77254902 0.45490196
v 0.01999844 0.00001142 -0.03000000 0.26274510 0.77254902 0.45490196
v 0.01698416 0.00001142 -0.00001964 0.26274510 0.77254902 0.45490196
v 0.01746018 -0.00975314 -0.03000000 0.26274510 0.77254902 0.45490196
v 0.01556077 -0.01256413 -0.00001964 0.26274510 0.77254902 0.45490196
v 0.02000000 -0.00000103 -0.03000000 0.26274510 0.77254902 0.45490196
v 0.01999844 0.00001142 -0.00001964 0.26274510 0.77254902 0.45490196
v 0.01885708 -0.00666370 -0.03000000 0.26274510 0.77254902 0.45490196
v 0.01746018 -0.00975314 -0.00001964 0.26274510 0.77254902 0.45490196
v 0.01971174 -0.00338137 -0.03000000 0.26274510 0.77254902 0.45490196
v 0.02000000 -0.00000103 -0.00001964 0.26274510 0.77254902 0.45490196
v 0.01885708 -0.00666370 -0.00001964 0.26274510 0.77254902 0.45490196
v 0.01971174 -0.00338137 -0.00001964 0.26274510 0.77254902 0.45490196
f 173 174 177
f 173 177 181
f 173 181 185
f 173 185 189
f 173 189 187
f 173 187 183
f 173 183 179
f 173 179 175
f 173 175 180
f 173 180 176
f 173 176 178
f 173 178 174
f 174 178 177
f 175 179 184
f 175 184 180
f 176 180 184
f 176 184 188
f 176 188 191
f 176 191 192
f 176 192 190
f 176 190 186
f 176 186 182
f 176 182 178
f 177 178 182
f 177 182 186
f 177 186 181
f 179 183 188
f 179 188 184
f 181 186 190
f 181 190 185
f 183 187 191
f 183 191 188
f 185 190 192
f 185 192 189
f 187 189 192
f 187 192 191

o geometry_11
v -0.01192068 -0.01605528 -0.03000000 0.56470588 0.01568627 0.61568627
v -0.01192068 -0.01204185 -0.03000000 0.56470588 0.01568627 0.61568627
v -0.01192068 -0.01605528 -0.02966839 0.56470588 0.01568627 0.61568627
v -0.01443795 -0.01384010 -0.00001964 0.56470588 0.01568627 0.61568627
v -0.01443953 -0.01383854 -0.03000000 0.56470588 0.01568627 0.61568627
v -0.01699793 0.00001730 -0.03000000 0.56470588 0.01568627 0.61568627
v -0.01192068 -0.01204185 -0.00001964 0.56470588 0.01568627 0.61568627
v -0.01192068 -0.01605371 -0.00001964 0.56470588 0.01568627 0.61568627
v -0.01656850 -0.01120015 -0.00001964 0.56470588 0.01568627 0.61568627
v -0.01657008 -0.01119858 -0.03000000 0.56470588 0.01568627 0.61568627
v -0.01999921 0.00001730 -0.03000000 0.56470588 0.01568627 0.61568627
v -0.01699793 0.00001730 -0.00001964 0.56470588 0.01568627 0.61568627
v -0.01822296 -0.00823925 -0.00001964 0.56470588 0.01568627 0.61568627
v -0.01822454 -0.00823768 -0.03000000 0.56470588 0.01568627 0.61568627
v -0.02000000 -0.00000001 -0.03000000 0.56470588 0.01568627 0.61568627
v -0.01999921 0.00001730 -0.02969186 0.56470588 0.01568627 0.61568627
v -0.01992724 0.00001730 -0.00001964 0.56470588 0.01568627 0.61568627
v -0.01935388 -0.00504235 -0.00001964 0.56470588 0.01568627 0.61568627
v -0.01935467 -0.00504078 -0.03000000 0.56470588 0.01568627 0.61568627
v -0.01992724 -0.00169757 -0.03000000 0.56470588 0.01568627 0.61568627
v -0.01992724 -0.00169914 -0.00001964 0.56470588 0.01568627 0.61568627
f 193 194 199
f 193 199 200
f 193 200 195
f 193 195 196
f 193 196 197
f 193 197 202
f 193 202 206
f 193 206 211
f 193 211 212
f 193 212 207
f 193 207 203
f 193 203 198
f 193 198 194
f 194 198 204
f 194 204 199
f 195 200 196
f 196 200 199
f 196 199 204
f 196 204 209
f 196 209 213
f 196 213 210
f 196 210 205
f 196 205 201
f 196 201 202
f 196 202 197
f 198 203 208
f 198 208 209
f 198 209 204
f 201 205 206
f 201 206 202
f 203 207 208
f 205 210 206
f 206 210 211
f 207 212 213
f 207 213 209
f 207 209 208
f 210 213 211
f 211 213 212

o geometry_12
v 0.01593700 0.01200765 -0.00001964 0.61176471 0.61568627 0.94117647
v 0.01556021 0.01256461 -0.00001964 0.61176471 0.61568627 0.94117647
v 0.01199469 0.01200765 -0.00001964 0.61176471 0.61568627 0.94117647
v 0.01593700 0.01200765 -0.03000000 0.61176471 0.61568627 0.94117647
v 0.01556021 0.01256461 -0.03000000 0.61176471 0.61568627 0.94117647
v 0.01321226 0.01501387 -0.00001964 0.61176471 0.61568627 0.94117647
v 0.00003075 0.01695230 -0.00001964 0.61176471 0.61568627 0.94117647
v 0.01199469 0.01200765 -0.03000000 0.61176471 0.61568627 0.94117647
v 0.01321226 0.01501387 -0.03000000 0.61176471 0.61568627 0.94117647
v 0.01048597 0.01703053 -0.00001964 0.61176471 0.61568627 0.94117647
v 0.00003075 0.01695230 -0.03000000 0.61176471 0.61568627 0.94117647
v 0.00003075 0.01999921 -0.00001964 0.61176471 0.61568627 0.94117647
v 0.01048597 0.01703053 -0.03000000 0.61176471 0.61568627 0.94117647
v 0.00745761 0.01855750 -0.00001964 0.61176471 0.61568627 0.94117647
v 0.00003075 0.01994679 -0.03000000 0.61176471 0.61568627 0.94117647
v 0.00084973 0.01998199 -0.00001964 0.61176471 0.61568627 0.94117647
v 0.00003075 0.01999921 -0.00116416 0.61176471 0.61568627 0.94117647
v 0.00745761 0.01855750 -0.03000000 0.61176471 0.61568627 0.94117647
v 0.00421439 0.01955097 -0.00001964 0.61176471 0.61568627 0.94117647
v 0.00084973 0.01998199 -0.03000000 0.61176471 0.61568627 0.94117647
v 0.00421439 0.01955097 -0.03000000 0.61176471 0.61568627 0.94117647
f 214 215 219
f 214 219 223
f 214 223 227
f 214 227 232
f 214 232 229
f 214 229 225
f 214 225 220
f 214 220 216
f 214 216 221
f 214 221 217
f 214 217 218
f 214 218 215
f 215 218 222
f 215 222 219
f 216 220 224
f 216 224 221
f 217 221 224
f 217 224 228
f 217 228 233
f 217 233 234
f 217 234 231
f 217 231 226
f 217 226 222
f 217 222 218
f 219 222 226
f 219 226 223
f 220 225 230
f 220 230 228
f 220 228 224
f 223 226 231
f 223 231 227
f 225 229 233
f 225 233 230
f 227 231 234
f 227 234 232
f 228 230 233
f 229 232 234
f 229 234 233

o geometry_13
v -0.00003965 0.01695573 -0.00001867 0.67843137 0.35686275 0.43529412
v -0.00003965 0.01695573 0.01000000 0.67843137 0.35686275 0.43529412
v -0.00003965 0.01999686 -0.00001867 0.67843137 0.35686275 0.43529412
v 0.01202067 0.01198446 -0.00001867 0.67843137 0.35686275 0.43529412
v -0.00003965 0.02000000 0.01000000 0.67843137 0.35686275 0.43529412
v 0.01202067 0.01198446 0.01000000 0.67843137 0.35686275 0.43529412
v -0.00003965 0.02000000 0.00001959 0.67843137 0.35686275 0.43529412
v -0.00000052 0.01999922 -0.00001867 0.67843137 0.35686275 0.43529412
v 0.01595221 0.01198446 -0.00001867 0.67843137 0.35686275 0.43529412
v 0.02100000 0.02000000 0.01000000 0.67843137 0.35686275 0.43529412
v 0.02100000 0.01198446 0.01000000 0.67843137 0.35686275 0.43529412
v 0.00000154 0.02000000 0.00000095 0.67843137 0.35686275 0.43529412
v 0.02100000 0.02000000 0.00000095 0.67843137 0.35686275 0.43529412
v 0.00085004 0.01998196 -0.00001867 0.67843137 0.35686275 0.43529412
v 0.01555885 0.01256507 -0.00001867 0.67843137 0.35686275 0.43529412
v 0.02100000 0.01198446 0.00000095 0.67843137 0.35686275 0.43529412
v 0.01321310 0.01501383 -0.00001867 0.67843137 0.35686275 0.43529412
v 0.01048429 0.01703027 -0.00001867 0.67843137 0.35686275 0.43529412
v 0.00745892 0.01855711 -0.00001867 0.67843137 0.35686275 0.43529412
v 0.00421523 0.01955042 -0.00001867 0.67843137 0.35686275 0.43529412
f 235 236 239
f 235 239 241
f 235 241 237
f 235 237 242
f 235 242 248
f 235 248 254
f 235 254 253
f 235 253 252
f 235 252 251
f 235 251 249
f 235 249 243
f 235 243 238
f 235 238 240
f 235 240 236
f 236 240 245
f 236 245 244
f 236 244 239
f 237 241 242
f 238 243 250
f 238 250 245
f 238 245 240
f 239 244 247
f 239 247 246
f 239 246 241
f 241 246 242
f 242 246 247
f 242 247 248
f 243 249 247
f 243 247 250
f 244 245 250
f 244 250 247
f 247 249 251
f 247 251 252
f 247 252 253
f 247 253 254
f 247 254 248

o geometry_14
v 0.02099912 0.01198446 0.01000000 0.69411765 0.05882353 0.66666667
v 0.02099912 0.01198446 0.00000095 0.69411765 0.05882353 0.66666667
v 0.01202255 0.01198446 0.01000000 0.69411765 0.05882353 0.66666667
v 0.02099912 -0.00024881 0.01000000 0.69411765 0.05882353 0.66666667
v 0.02099912 -0.00024881 0.00000095 0.69411765 0.05882353 0.66666667
v 0.01999987 0.00000026 -0.00001867 0.69411765 0.05882353 0.66666667
v 0.01971161 0.00338070 -0.00001867 0.69411765 0.05882353 0.66666667
v 0.01885736 0.00666174 -0.00001867 0.69411765 0.05882353 0.66666667
v 0.01745999 0.00975359 -0.00001867 0.69411765 0.05882353 0.66666667
v 0.01595276 0.01198446 -0.00001867 0.69411765 0.05882353 0.66666667
v 0.01202255 0.01198446 -0.00001867 0.69411765 0.05882353 0.66666667
v 0.01698453 -0.00024881 -0.00001867 0.69411765 0.05882353 0.66666667
v 0.01698893 -0.00024881 0.01000000 0.69411765 0.05882353 0.66666667
v 0.01997878 -0.00024881 -0.00001867 0.69411765 0.05882353 0.66666667
f 255 256 264
f 255 264 265
f 255 265 257
f 255 257 267
f 255 267 258
f 255 258 259
f 255 259 256
f 256 259 260
f 256 260 261
f 256 261 262
f 256 262 263
f 256 263 264
f 257 265 266
f 257 266 267
f 258 267 266
f 258 266 268
f 258 268 259
f 259 268 260
f 260 268 266
f 260 266 265
f 260 265 264
f 260 264 263
f 260 263 262
f 260 262 261

