# https://github.com/mikedh/trimesh

o geometry_0
v -0.02752894 0.01000000 0.07000000 0.54509804 0.71372549 0.60000000
v -0.04759804 0.01000000 0.07000000 0.54509804 0.71372549 0.60000000
v -0.02752894 -0.01000000 0.07000000 0.54509804 0.71372549 0.60000000
v -0.02752894 0.01000000 0.04999534 0.54509804 0.71372549 0.60000000
v -0.04759804 -0.01000000 0.07000000 0.54509804 0.71372549 0.60000000
v -0.04759804 0.01000000 0.01179218 0.54509804 0.71372549 0.60000000
v -0.02752894 -0.01000000 0.04999534 0.54509804 0.71372549 0.60000000
v -0.02760163 0.01000000 0.01179218 0.54509804 0.71372549 0.60000000
v -0.04759804 -0.01000000 0.01179218 0.54509804 0.71372549 0.60000000
v -0.02760163 -0.01000000 0.01179218 0.54509804 0.71372549 0.60000000
f 1 2 5
f 1 5 3
f 1 3 7
f 1 7 4
f 1 4 8
f 1 8 6
f 1 6 2
f 2 6 9
f 2 9 5
f 3 5 9
f 3 9 10
f 3 10 7
f 4 7 10
f 4 10 8
f 6 8 10
f 6 10 9

o geometry_1
v 0.02758358 0.01000000 0.06999804 0.54117647 0.42352941 0.64313725
v 0.02758358 -0.01000000 0.06999804 0.54117647 0.42352941 0.64313725
v 0.02758358 0.01000000 0.05000392 0.54117647 0.42352941 0.64313725
v -0.02752354 0.01000000 0.06999804 0.54117647 0.42352941 0.64313725
v 0.02758358 -0.01000000 0.05733751 0.54117647 0.42352941 0.64313725
v -0.02752354 -0.01000000 0.06999804 0.54117647 0.42352941 0.64313725
v 0.02758358 0.00000392 0.05000196 0.54117647 0.42352941 0.64313725
v 0.00000304 0.01000000 0.05000196 0.54117647 0.42352941 0.64313725
v -0.02752354 0.01000000 0.05000196 0.54117647 0.42352941 0.64313725
v 0.02758358 -0.00999413 0.05000196 0.54117647 0.42352941 0.64313725
v 0.00000304 -0.01000000 0.05000196 0.54117647 0.42352941 0.64313725
v -0.02752354 -0.01000000 0.05000196 0.54117647 0.42352941 0.64313725
f 11 12 15
f 11 15 20
f 11 20 17
f 11 17 13
f 11 13 18
f 11 18 19
f 11 19 14
f 11 14 16
f 11 16 12
f 12 16 22
f 12 22 21
f 12 21 15
f 13 17 18
f 14 19 22
f 14 22 16
f 15 21 20
f 17 20 21
f 17 21 22
f 17 22 19
f 17 19 18

o geometry_2
v 0.04760000 0.01000000 0.07000000 0.43529412 0.89019608 0.96078431
v 0.02758897 0.01000000 0.07000000 0.43529412 0.89019608 0.96078431
v 0.04760000 -0.01000000 0.07000000 0.43529412 0.89019608 0.96078431
v 0.04760000 0.01000000 0.01179218 0.43529412 0.89019608 0.96078431
v 0.02758897 -0.01000000 0.07000000 0.43529412 0.89019608 0.96078431
v 0.02758897 0.01000000 0.05000103 0.43529412 0.89019608 0.96078431
v 0.04760000 -0.01000000 0.01179218 0.43529412 0.89019608 0.96078431
v 0.02760072 0.01000000 0.01179218 0.43529412 0.89019608 0.96078431
v 0.02758897 -0.01000000 0.05733399 0.43529412 0.89019608 0.96078431
v 0.02758897 0.00000392 0.04999534 0.43529412 0.89019608 0.96078431
v 0.02760072 -0.01000000 0.01179218 0.43529412 0.89019608 0.96078431
v 0.02758897 -0.00999413 0.04999534 0.43529412 0.89019608 0.96078431
f 23 24 27
f 23 27 25
f 23 25 29
f 23 29 26
f 23 26 30
f 23 30 28
f 23 28 24
f 24 28 32
f 24 32 34
f 24 34 31
f 24 31 27
f 25 27 31
f 25 31 33
f 25 33 29
f 26 29 33
f 26 33 30
f 28 30 32
f 30 33 34
f 30 34 32
f 31 34 33

o geometry_3
v 0.10000000 0.01005394 0.00999958 0.38039216 0.78823529 0.52549020
v 0.04759201 0.00999881 0.01179218 0.38039216 0.78823529 0.52549020
v 0.10000000 -0.01005961 0.00999958 0.38039216 0.78823529 0.52549020
v 0.10000000 0.01005394 0.00000000 0.38039216 0.78823529 0.52549020
v -0.10000000 0.01005394 0.00999958 0.38039216 0.78823529 0.52549020
v 0.04759201 -0.00999858 0.01179218 0.38039216 0.78823529 0.52549020
v -0.04759201 0.00999881 0.01179218 0.38039216 0.78823529 0.52549020
v 0.10000000 -0.01005961 0.00000000 0.38039216 0.78823529 0.52549020
v -0.10000000 -0.01005961 0.00999958 0.38039216 0.78823529 0.52549020
v -0.10000000 0.01005394 0.00000000 0.38039216 0.78823529 0.52549020
v -0.04759201 -0.00999858 0.01179218 0.38039216 0.78823529 0.52549020
v -0.10000000 -0.01005961 0.00000000 0.38039216 0.78823529 0.52549020
f 35 36 40
f 35 40 37
f 35 37 42
f 35 42 38
f 35 38 44
f 35 44 39
f 35 39 41
f 35 41 36
f 36 41 45
f 36 45 40
f 37 40 45
f 37 45 43
f 37 43 46
f 37 46 42
f 38 42 46
f 38 46 44
f 39 44 46
f 39 46 43
f 39 43 45
f 39 45 41

o geometry_4
v 0.10000000 0.07499789 0.01000000 0.56470588 0.92549020 0.07058824
v 0.10000000 0.05340495 0.01000000 0.56470588 0.92549020 0.07058824
v 0.10000000 0.07499789 0.00000098 0.56470588 0.92549020 0.07058824
v 0.07282844 0.07499789 0.01000000 0.56470588 0.92549020 0.07058824
v 0.10000000 0.05340495 0.00000098 0.56470588 0.92549020 0.07058824
v 0.08224380 0.05340495 0.01000000 0.56470588 0.92549020 0.07058824
v 0.07282844 0.07499789 0.00000098 0.56470588 0.92549020 0.07058824
v 0.07282844 0.06448362 0.01000000 0.56470588 0.92549020 0.07058824
v 0.08224380 0.05340495 0.00000098 0.56470588 0.92549020 0.07058824
v 0.07282844 0.06448362 0.00000098 0.56470588 0.92549020 0.07058824
f 47 48 51
f 47 51 49
f 47 49 53
f 47 53 50
f 47 50 54
f 47 54 52
f 47 52 48
f 48 52 55
f 48 55 51
f 49 51 55
f 49 55 56
f 49 56 53
f 50 53 56
f 50 56 54
f 52 54 56
f 52 56 55

o geometry_5
v -0.08228554 -0.05233068 0.01000000 0.08627451 0.01960784 0.83137255
v -0.07728716 -0.06235391 0.01000000 0.08627451 0.01960784 0.83137255
v -0.08228554 -0.05233068 0.00000098 0.08627451 0.01960784 0.83137255
v -0.10000000 -0.05233068 0.01000000 0.08627451 0.01960784 0.83137255
v -0.07728716 -0.06235391 0.00000098 0.08627451 0.01960784 0.83137255
v -0.07728716 -0.07499778 0.01000000 0.08627451 0.01960784 0.83137255
v -0.10000000 -0.05233068 0.00000098 0.08627451 0.01960784 0.83137255
v -0.10000000 -0.07499778 0.01000000 0.08627451 0.01960784 0.83137255
v -0.07728716 -0.07499778 0.00000098 0.08627451 0.01960784 0.83137255
v -0.10000000 -0.07499778 0.00000098 0.08627451 0.01960784 0.83137255
f 57 58 61
f 57 61 59
f 57 59 63
f 57 63 60
f 57 60 64
f 57 64 62
f 57 62 58
f 58 62 65
f 58 65 61
f 59 61 65
f 59 65 66
f 59 66 63
f 60 63 66
f 60 66 64
f 62 64 66
f 62 66 65

o geometry_6
v 0.05739742 0.05340495 0.01000000 0.77647059 0.86666667 0.97647059
v 0.05739742 0.05340495 0.00000098 0.77647059 0.86666667 0.97647059
v 0.05238096 0.05340495 0.01000000 0.77647059 0.86666667 0.97647059
v 0.06043172 0.04410756 0.01000000 0.77647059 0.86666667 0.97647059
v 0.05238096 0.05340495 0.00000098 0.77647059 0.86666667 0.97647059
v 0.06043172 0.04410756 0.00003034 0.77647059 0.86666667 0.97647059
v 0.06043172 0.04410332 0.00000098 0.77647059 0.86666667 0.97647059
v 0.05238096 0.01005394 0.01000000 0.77647059 0.86666667 0.97647059
v 0.06043172 0.01005394 0.01000000 0.77647059 0.86666667 0.97647059
v 0.05238096 0.01005394 0.00000098 0.77647059 0.86666667 0.97647059
v 0.06043172 0.01005394 0.00000098 0.77647059 0.86666667 0.97647059
f 67 68 71
f 67 71 69
f 67 69 74
f 67 74 75
f 67 75 70
f 67 70 72
f 67 72 68
f 68 72 73
f 68 73 77
f 68 77 76
f 68 76 71
f 69 71 76
f 69 76 74
f 70 75 77
f 70 77 73
f 70 73 72
f 74 76 77
f 74 77 75

o geometry_7
v 0.05238096 0.05340495 0.00000098 0.79607843 0.45882353 0.78039216
v 0.05238096 0.05340495 0.01000000 0.79607843 0.45882353 0.78039216
v 0.05238096 0.06271639 0.00000098 0.79607843 0.45882353 0.78039216
v 0.05739787 0.05340495 0.00000098 0.79607843 0.45882353 0.78039216
v 0.05238096 0.06271639 0.01000000 0.79607843 0.45882353 0.78039216
v 0.05739787 0.05340495 0.01000000 0.79607843 0.45882353 0.78039216
v 0.06281517 0.06271639 0.00000098 0.79607843 0.45882353 0.78039216
v 0.06281517 0.06271639 0.01000000 0.79607843 0.45882353 0.78039216
f 78 79 82
f 78 82 80
f 78 80 84
f 78 84 81
f 78 81 83
f 78 83 79
f 79 83 85
f 79 85 82
f 80 82 85
f 80 85 84
f 81 84 85
f 81 85 83

o geometry_8
v 0.07282844 0.07500000 0.01000000 0.11764706 0.63921569 0.14117647
v 0.07282844 0.06448588 0.01000000 0.11764706 0.63921569 0.14117647
v 0.07282844 0.07500000 0.00000098 0.11764706 0.63921569 0.14117647
v 0.05238096 0.07500000 0.01000000 0.11764706 0.63921569 0.14117647
v 0.06281486 0.06271729 0.01000000 0.11764706 0.63921569 0.14117647
v 0.07282844 0.06448588 0.00000098 0.11764706 0.63921569 0.14117647
v 0.05238096 0.07500000 0.00000098 0.11764706 0.63921569 0.14117647
v 0.05238096 0.06271729 0.01000000 0.11764706 0.63921569 0.14117647
v 0.06281486 0.06271729 0.00000098 0.11764706 0.63921569 0.14117647
v 0.05238096 0.06271729 0.00000098 0.11764706 0.63921569 0.14117647
f 86 87 91
f 86 91 88
f 86 88 92
f 86 92 89
f 86 89 93
f 86 93 90
f 86 90 87
f 87 90 94
f 87 94 91
f 88 91 94
f 88 94 95
f 88 95 92
f 89 92 95
f 89 95 93
f 90 93 95
f 90 95 94

o geometry_9
v 0.07056375 0.01005728 0.00000098 0.94117647 0.52156863 0.41176471
v 0.07056375 0.01005728 0.01000000 0.94117647 0.52156863 0.41176471
v 0.07056375 0.03992471 0.00000098 0.94117647 0.52156863 0.41176471
v 0.10000000 0.01005728 0.00000098 0.94117647 0.52156863 0.41176471
v 0.10000000 0.01005728 0.01000000 0.94117647 0.52156863 0.41176471
v 0.07056375 0.03992471 0.01000000 0.94117647 0.52156863 0.41176471
v 0.07928079 0.04421107 0.00000098 0.94117647 0.52156863 0.41176471
v 0.10000000 0.04421107 0.00000098 0.94117647 0.52156863 0.41176471
v 0.10000000 0.04421107 0.01000000 0.94117647 0.52156863 0.41176471
v 0.07928079 0.04421107 0.01000000 0.94117647 0.52156863 0.41176471
f 96 97 101
f 96 101 98
f 96 98 102
f 96 102 103
f 96 103 99
f 96 99 100
f 96 100 97
f 97 100 104
f 97 104 105
f 97 105 101
f 98 101 105
f 98 105 102
f 99 103 104
f 99 104 100
f 102 105 104
f 102 104 103

o geometry_10
v 0.07928262 0.04421197 0.00000098 0.26274510 0.77254902 0.45490196
v 0.07928059 0.04421197 0.00061472 0.26274510 0.77254902 0.45490196
v 0.08224369 0.05340495 0.00000098 0.26274510 0.77254902 0.45490196
v 0.09999797 0.04421197 0.00000098 0.26274510 0.77254902 0.45490196
v 0.07928059 0.04421197 0.00938528 0.26274510 0.77254902 0.45490196
v 0.08224369 0.05340495 0.01000000 0.26274510 0.77254902 0.45490196
v 0.09999797 0.05340495 0.00000098 0.26274510 0.77254902 0.45490196
v 0.09999797 0.04421197 0.01000000 0.26274510 0.77254902 0.45490196
v 0.07928262 0.04421197 0.01000000 0.26274510 0.77254902 0.45490196
v 0.09999797 0.05340495 0.01000000 0.26274510 0.77254902 0.45490196
f 106 107 108
f 106 108 112
f 106 112 109
f 106 109 113
f 106 113 114
f 106 114 110
f 106 110 107
f 107 110 111
f 107 111 108
f 108 111 115
f 108 115 112
f 109 112 115
f 109 115 113
f 110 114 111
f 111 114 113
f 111 113 115

o geometry_11
v 0.06043251 0.01005727 0.00000098 0.56470588 0.01568627 0.61568627
v 0.07056087 0.01005727 0.00000098 0.56470588 0.01568627 0.61568627
v 0.06043251 0.01005727 0.01000000 0.56470588 0.01568627 0.61568627
v 0.06043251 0.04410142 0.00000098 0.56470588 0.01568627 0.61568627
v 0.07056087 0.01005727 0.01000000 0.56470588 0.01568627 0.61568627
v 0.07056087 0.03992758 0.00000098 0.56470588 0.01568627 0.61568627
v 0.06043251 0.04411142 0.01000000 0.56470588 0.01568627 0.61568627
v 0.06043251 0.04411142 0.00003034 0.56470588 0.01568627 0.61568627
v 0.06043648 0.04410475 0.00000098 0.56470588 0.01568627 0.61568627
v 0.07056087 0.03992758 0.01000000 0.56470588 0.01568627 0.61568627
f 116 117 120
f 116 120 118
f 116 118 122
f 116 122 123
f 116 123 119
f 116 119 124
f 116 124 121
f 116 121 117
f 117 121 125
f 117 125 120
f 118 120 125
f 118 125 122
f 119 123 124
f 121 124 123
f 121 123 122
f 121 122 125

o geometry_12
v 0.06986749 -0.03990698 0.00000098 0.61176471 0.61568627 0.94117647
v 0.08209629 -0.05020718 0.00000098 0.61176471 0.61568627 0.94117647
v 0.06986749 -0.03990698 0.01000000 0.61176471 0.61568627 0.94117647
v 0.06986749 -0.01005961 0.00000098 0.61176471 0.61568627 0.94117647
v 0.10000000 -0.05020718 0.00000098 0.61176471 0.61568627 0.94117647
v 0.08209629 -0.05020718 0.01000000 0.61176471 0.61568627 0.94117647
v 0.06986749 -0.01005961 0.01000000 0.61176471 0.61568627 0.94117647
v 0.10000000 -0.01005961 0.00000098 0.61176471 0.61568627 0.94117647
v 0.10000000 -0.05020718 0.01000000 0.61176471 0.61568627 0.94117647
v 0.10000000 -0.01005961 0.01000000 0.61176471 0.61568627 0.94117647
f 126 127 131
f 126 131 128
f 126 128 132
f 126 132 129
f 126 129 133
f 126 133 130
f 126 130 127
f 127 130 134
f 127 134 131
f 128 131 134
f 128 134 135
f 128 135 132
f 129 132 135
f 129 135 133
f 130 133 135
f 130 135 134

o geometry_13
v -0.10000000 0.01005394 0.00502032 0.67843137 0.35686275 0.43529412
v -0.06970788 0.01005394 0.00502032 0.67843137 0.35686275 0.43529412
v -0.10000000 0.01005394 0.00999951 0.67843137 0.35686275 0.43529412
v -0.10000000 0.05020501 0.00502032 0.67843137 0.35686275 0.43529412
v -0.06970788 0.01005394 0.00999951 0.67843137 0.35686275 0.43529412
v -0.06970788 0.03987248 0.00502032 0.67843137 0.35686275 0.43529412
v -0.10000000 0.05020501 0.00999951 0.67843137 0.35686275 0.43529412
v -0.08210052 0.05020501 0.00502032 0.67843137 0.35686275 0.43529412
v -0.06970788 0.03987248 0.00999951 0.67843137 0.35686275 0.43529412
v -0.08210052 0.05020501 0.00999951 0.67843137 0.35686275 0.43529412
f 136 137 140
f 136 140 138
f 136 138 142
f 136 142 139
f 136 139 143
f 136 143 141
f 136 141 137
f 137 141 144
f 137 144 140
f 138 140 144
f 138 144 145
f 138 145 142
f 139 142 145
f 139 145 143
f 141 143 145
f 141 145 144

o geometry_14
v -0.10000000 -0.05233068 0.00000098 0.69411765 0.05882353 0.66666667
v -0.08228554 -0.05233068 0.00000098 0.69411765 0.05882353 0.66666667
v -0.10000000 -0.05233068 0.01000000 0.69411765 0.05882353 0.66666667
v -0.10000000 -0.01005961 0.00000098 0.69411765 0.05882353 0.66666667
v -0.08228554 -0.05233068 0.01000000 0.69411765 0.05882353 0.66666667
v -0.07728716 -0.04238357 0.00000098 0.69411765 0.05882353 0.66666667
v -0.10000000 -0.01005961 0.01000000 0.69411765 0.05882353 0.66666667
v -0.07728716 -0.01005961 0.00000098 0.69411765 0.05882353 0.66666667
v -0.07728716 -0.04238357 0.01000000 0.69411765 0.05882353 0.66666667
v -0.07728716 -0.01005961 0.01000000 0.69411765 0.05882353 0.66666667
f 146 147 150
f 146 150 148
f 146 148 152
f 146 152 149
f 146 149 153
f 146 153 151
f 146 151 147
f 147 151 154
f 147 154 150
f 148 150 154
f 148 154 155
f 148 155 152
f 149 152 155
f 149 155 153
f 151 153 155
f 151 155 154

o geometry_15
v 0.05238096 0.04412693 0.00501982 0.67058824 0.20784314 0.12549020
v 0.05238096 0.01005727 0.00501982 0.67058824 0.20784314 0.12549020
v 0.05238096 0.04412693 0.00000049 0.67058824 0.20784314 0.12549020
v -0.06041406 0.04412693 0.00501982 0.67058824 0.20784314 0.12549020
v 0.05238096 0.01005727 0.00000049 0.67058824 0.20784314 0.12549020
v -0.06986749 0.01005727 0.00501982 0.67058824 0.20784314 0.12549020
v -0.06041406 0.04412693 0.00000049 0.67058824 0.20784314 0.12549020
v -0.06986749 0.03986781 0.00501982 0.67058824 0.20784314 0.12549020
v -0.06986749 0.01005727 0.00000049 0.67058824 0.20784314 0.12549020
v -0.06986749 0.03986781 0.00000049 0.67058824 0.20784314 0.12549020
f 156 157 160
f 156 160 158
f 156 158 162
f 156 162 159
f 156 159 163
f 156 163 161
f 156 161 157
f 157 161 164
f 157 164 160
f 158 160 164
f 158 164 165
f 158 165 162
f 159 162 165
f 159 165 163
f 161 163 165
f 161 165 164

o geometry_16
v 0.06986749 -0.01005961 0.01000000 0.31372549 0.36078431 0.56862745
v 0.06986749 -0.03990698 0.01000000 0.31372549 0.36078431 0.56862745
v 0.06986749 -0.01005961 0.00000098 0.31372549 0.36078431 0.56862745
v -0.05238096 -0.01005961 0.01000000 0.31372549 0.36078431 0.56862745
v 0.06986749 -0.03990698 0.00000098 0.31372549 0.36078431 0.56862745
v 0.05754213 -0.05020718 0.01000000 0.31372549 0.36078431 0.56862745
v -0.05238096 -0.01005961 0.00000098 0.31372549 0.36078431 0.56862745
v -0.05238096 -0.05020718 0.01000000 0.31372549 0.36078431 0.56862745
v 0.05754213 -0.05020718 0.00000098 0.31372549 0.36078431 0.56862745
v -0.05238096 -0.05020718 0.00000098 0.31372549 0.36078431 0.56862745
f 166 167 170
f 166 170 168
f 166 168 172
f 166 172 169
f 166 169 173
f 166 173 171
f 166 171 167
f 167 171 174
f 167 174 170
f 168 170 174
f 168 174 175
f 168 175 172
f 169 172 175
f 169 175 173
f 171 173 175
f 171 175 174

o geometry_17
v 0.05238096 0.05020501 0.00999951 0.43529412 0.98823529 0.10196078
v 0.05238096 0.01005394 0.00999951 0.43529412 0.98823529 0.10196078
v 0.05238096 0.05020501 0.00502032 0.43529412 0.98823529 0.10196078
v -0.05753936 0.05020501 0.00999951 0.43529412 0.98823529 0.10196078
v 0.05238096 0.01005394 0.00502032 0.43529412 0.98823529 0.10196078
v -0.06970493 0.01005394 0.00999951 0.43529412 0.98823529 0.10196078
v -0.05753936 0.05020501 0.00502032 0.43529412 0.98823529 0.10196078
v -0.06970493 0.03987248 0.00999951 0.43529412 0.98823529 0.10196078
v -0.06970493 0.01005394 0.00502032 0.43529412 0.98823529 0.10196078
v -0.06970493 0.03987248 0.00502032 0.43529412 0.98823529 0.10196078
f 176 177 180
f 176 180 178
f 176 178 182
f 176 182 179
f 176 179 183
f 176 183 181
f 176 181 177
f 177 181 184
f 177 184 180
f 178 180 184
f 178 184 185
f 178 185 182
f 179 182 185
f 179 185 183
f 181 183 185
f 181 185 184

o geometry_18
v 0.07943480 -0.07499757 0.00000098 0.20784314 0.16078431 0.65098039
v 0.10000000 -0.07499757 0.00000098 0.20784314 0.16078431 0.65098039
v 0.07943480 -0.07499757 0.01000000 0.20784314 0.16078431 0.65098039
v 0.07943480 -0.06031021 0.00000098 0.20784314 0.16078431 0.65098039
v 0.10000000 -0.07499757 0.01000000 0.20784314 0.16078431 0.65098039
v 0.10000000 -0.05020719 0.00000098 0.20784314 0.16078431 0.65098039
v 0.07943480 -0.06031021 0.01000000 0.20784314 0.16078431 0.65098039
v 0.08209604 -0.05020719 0.00000098 0.20784314 0.16078431 0.65098039
v 0.10000000 -0.05020719 0.01000000 0.20784314 0.16078431 0.65098039
v 0.08209604 -0.05020719 0.01000000 0.20784314 0.16078431 0.65098039
f 186 187 190
f 186 190 188
f 186 188 192
f 186 192 189
f 186 189 193
f 186 193 191
f 186 191 187
f 187 191 194
f 187 194 190
f 188 190 194
f 188 194 195
f 188 195 192
f 189 192 195
f 189 195 193
f 191 193 195
f 191 195 194

o geometry_19
v 0.07943480 -0.06031133 0.01000000 0.25098039 0.46274510 0.24313725
v 0.07943480 -0.06031133 0.00000098 0.25098039 0.46274510 0.24313725
v 0.06986749 -0.06486101 0.01000000 0.25098039 0.46274510 0.24313725
v 0.07943480 -0.07500000 0.01000000 0.25098039 0.46274510 0.24313725
v 0.06986749 -0.06486101 0.00000098 0.25098039 0.46274510 0.24313725
v 0.07943480 -0.07500000 0.00000098 0.25098039 0.46274510 0.24313725
v 0.06986749 -0.07500000 0.01000000 0.25098039 0.46274510 0.24313725
v 0.06986749 -0.07500000 0.00000098 0.25098039 0.46274510 0.24313725
f 196 197 200
f 196 200 198
f 196 198 202
f 196 202 199
f 196 199 201
f 196 201 197
f 197 201 203
f 197 203 200
f 198 200 203
f 198 203 202
f 199 202 203
f 199 203 201

o geometry_20
v 0.05238096 0.05979909 0.00999951 0.15686275 0.10980392 0.65490196
v 0.05238096 0.05020502 0.00999951 0.15686275 0.10980392 0.65490196
v 0.05238096 0.05979909 0.00502032 0.15686275 0.10980392 0.65490196
v -0.05977174 0.05979909 0.00999951 0.15686275 0.10980392 0.65490196
v 0.05238096 0.05020502 0.00502032 0.15686275 0.10980392 0.65490196
v -0.05753220 0.05020502 0.00999951 0.15686275 0.10980392 0.65490196
v -0.05977174 0.05979909 0.00502032 0.15686275 0.10980392 0.65490196
v -0.05753220 0.05020502 0.00502032 0.15686275 0.10980392 0.65490196
f 204 205 208
f 204 208 206
f 204 206 210
f 204 210 207
f 204 207 209
f 204 209 205
f 205 209 211
f 205 211 208
f 206 208 211
f 206 211 210
f 207 210 211
f 207 211 209

o geometry_21
v 0.05238096 0.07500000 0.00501982 0.13725490 0.19607843 0.36862745
v 0.05238096 0.05799329 0.00501982 0.13725490 0.19607843 0.36862745
v 0.05238096 0.07500000 0.00000049 0.13725490 0.19607843 0.36862745
v -0.04989562 0.07500000 0.00501982 0.13725490 0.19607843 0.36862745
v 0.05238096 0.05799329 0.00000049 0.13725490 0.19607843 0.36862745
v -0.05865500 0.05799329 0.00501982 0.13725490 0.19607843 0.36862745
v -0.06986749 0.07500000 0.00000049 0.13725490 0.19607843 0.36862745
v -0.06986749 0.07500000 0.00501540 0.13725490 0.19607843 0.36862745
v -0.06986749 0.06806246 0.00501982 0.13725490 0.19607843 0.36862745
v -0.05865500 0.05799329 0.00000049 0.13725490 0.19607843 0.36862745
v -0.06980766 0.06482095 0.00501982 0.13725490 0.19607843 0.36862745
v -0.06986749 0.06482095 0.00501884 0.13725490 0.19607843 0.36862745
v -0.06986749 0.06482095 0.00000049 0.13725490 0.19607843 0.36862745
v -0.06986749 0.06490586 0.00501982 0.13725490 0.19607843 0.36862745
f 212 213 216
f 212 216 214
f 212 214 218
f 212 218 219
f 212 219 215
f 212 215 220
f 212 220 225
f 212 225 222
f 212 222 217
f 212 217 213
f 213 217 221
f 213 221 216
f 214 216 221
f 214 221 224
f 214 224 218
f 215 219 220
f 217 222 223
f 217 223 224
f 217 224 221
f 218 224 223
f 218 223 225
f 218 225 220
f 218 220 219
f 222 225 223

o geometry_22
v 0.05236992 0.05799163 0.00501982 0.81960784 0.09411765 0.83529412
v 0.05236992 0.04412829 0.00501982 0.81960784 0.09411765 0.83529412
v 0.05236992 0.05799163 0.00000049 0.81960784 0.09411765 0.83529412
v -0.05865437 0.05799163 0.00501982 0.81960784 0.09411765 0.83529412
v 0.05236992 0.04412829 0.00000049 0.81960784 0.09411765 0.83529412
v -0.06041000 0.04412829 0.00501982 0.81960784 0.09411765 0.83529412
v -0.04310766 0.05799163 0.00000049 0.81960784 0.09411765 0.83529412
v -0.05865437 0.05799163 0.00000344 0.81960784 0.09411765 0.83529412
v -0.06041000 0.04412829 0.00000049 0.81960784 0.09411765 0.83529412
v -0.05785936 0.05602375 0.00000049 0.81960784 0.09411765 0.83529412
f 226 227 230
f 226 230 228
f 226 228 232
f 226 232 233
f 226 233 229
f 226 229 231
f 226 231 227
f 227 231 234
f 227 234 230
f 228 230 234
f 228 234 235
f 228 235 232
f 229 233 234
f 229 234 231
f 232 235 233
f 233 235 234

o geometry_23
v 0.05238096 0.07499851 0.00999951 0.09411765 0.97254902 0.46666667
v 0.05238096 0.05980152 0.00999951 0.09411765 0.97254902 0.46666667
v 0.05238096 0.07499851 0.00502032 0.09411765 0.97254902 0.46666667
v -0.06980323 0.07499851 0.00999951 0.09411765 0.97254902 0.46666667
v 0.05238096 0.05980152 0.00502032 0.09411765 0.97254902 0.46666667
v -0.05976872 0.05980152 0.00999951 0.09411765 0.97254902 0.46666667
v -0.06980323 0.07499851 0.00502032 0.09411765 0.97254902 0.46666667
v -0.06980323 0.06482007 0.00999951 0.09411765 0.97254902 0.46666667
v -0.05976872 0.05980152 0.00502032 0.09411765 0.97254902 0.46666667
v -0.06980323 0.06482007 0.00502032 0.09411765 0.97254902 0.46666667
f 236 237 240
f 236 240 238
f 236 238 242
f 236 242 239
f 236 239 243
f 236 243 241
f 236 241 237
f 237 241 244
f 237 244 240
f 238 240 244
f 238 244 245
f 238 245 242
f 239 242 245
f 239 245 243
f 241 243 245
f 241 245 244

o geometry_24
v -0.08224093 0.05345858 0.00501049 0.97647059 0.60392157 0.73725490
v -0.07767332 0.04264008 0.00501982 0.97647059 0.60392157 0.73725490
v -0.08224093 0.05345858 0.00000049 0.97647059 0.60392157 0.73725490
v -0.08441765 0.05345858 0.00501982 0.97647059 0.60392157 0.73725490
v -0.08226497 0.05289732 0.00501982 0.97647059 0.60392157 0.73725490
v -0.07767332 0.04264008 0.00000541 0.97647059 0.60392157 0.73725490
v -0.10000000 0.04264008 0.00501982 0.97647059 0.60392157 0.73725490
v -0.07920314 0.04410676 0.00000049 0.97647059 0.60392157 0.73725490
v -0.10000000 0.05345858 0.00000049 0.97647059 0.60392157 0.73725490
v -0.08947918 0.05345858 0.00501982 0.97647059 0.60392157 0.73725490
v -0.07946103 0.04264008 0.00000049 0.97647059 0.60392157 0.73725490
v -0.10000000 0.04995549 0.00501982 0.97647059 0.60392157 0.73725490
v -0.10000000 0.04264008 0.00000049 0.97647059 0.60392157 0.73725490
v -0.10000000 0.05345858 0.00501688 0.97647059 0.60392157 0.73725490
f 246 247 251
f 246 251 248
f 246 248 254
f 246 254 259
f 246 259 255
f 246 255 249
f 246 249 250
f 246 250 247
f 247 250 249
f 247 249 255
f 247 255 257
f 247 257 252
f 247 252 258
f 247 258 256
f 247 256 251
f 248 251 253
f 248 253 256
f 248 256 258
f 248 258 254
f 251 256 253
f 252 257 259
f 252 259 254
f 252 254 258
f 255 259 257

o geometry_25
v 0.06024653 -0.06037012 0.01000000 0.03529412 0.28235294 0.11764706
v 0.06986749 -0.06486148 0.01000000 0.03529412 0.28235294 0.11764706
v 0.06024653 -0.06037012 0.00000098 0.03529412 0.28235294 0.11764706
v -0.05238096 -0.06037012 0.01000000 0.03529412 0.28235294 0.11764706
v 0.06986749 -0.07500000 0.01000000 0.03529412 0.28235294 0.11764706
v 0.06986749 -0.06486148 0.00000098 0.03529412 0.28235294 0.11764706
v -0.05238096 -0.06037012 0.00000098 0.03529412 0.28235294 0.11764706
v -0.05238096 -0.07500000 0.01000000 0.03529412 0.28235294 0.11764706
v 0.06986749 -0.07500000 0.00000098 0.03529412 0.28235294 0.11764706
v -0.05238096 -0.07500000 0.00000098 0.03529412 0.28235294 0.11764706
f 260 261 265
f 260 265 262
f 260 262 266
f 260 266 263
f 260 263 267
f 260 267 264
f 260 264 261
f 261 264 268
f 261 268 265
f 262 265 268
f 262 268 269
f 262 269 266
f 263 266 269
f 263 269 267
f 264 267 269
f 264 269 268

o geometry_26
v -0.07728381 -0.07500000 0.00000098 0.29411765 0.11764706 0.31764706
v -0.06565470 -0.07500000 0.00000098 0.29411765 0.11764706 0.31764706
v -0.07728381 -0.07500000 0.01000000 0.29411765 0.11764706 0.31764706
v -0.07728381 -0.06235216 0.00000098 0.29411765 0.11764706 0.31764706
v -0.06565470 -0.07500000 0.01000000 0.29411765 0.11764706 0.31764706
v -0.06565470 -0.06415103 0.00000098 0.29411765 0.11764706 0.31764706
v -0.07728381 -0.06235216 0.01000000 0.29411765 0.11764706 0.31764706
v -0.06565470 -0.06607372 0.01000000 0.29411765 0.11764706 0.31764706
v -0.06565470 -0.06415103 0.00999510 0.29411765 0.11764706 0.31764706
v -0.06565583 -0.06415103 0.01000000 0.29411765 0.11764706 0.31764706
f 270 271 274
f 270 274 272
f 270 272 276
f 270 276 273
f 270 273 275
f 270 275 271
f 271 275 278
f 271 278 277
f 271 277 274
f 272 274 277
f 272 277 279
f 272 279 276
f 273 276 278
f 273 278 275
f 276 279 278
f 277 278 279

o geometry_27
v -0.07986962 0.05979909 0.00999951 0.41176471 0.06274510 0.69019608
v -0.08210042 0.05020502 0.00999951 0.41176471 0.06274510 0.69019608
v -0.07986962 0.05979909 0.00502032 0.41176471 0.06274510 0.69019608
v -0.10000000 0.05979909 0.00999951 0.41176471 0.06274510 0.69019608
v -0.08210042 0.05020502 0.00502032 0.41176471 0.06274510 0.69019608
v -0.10000000 0.05020502 0.00999951 0.41176471 0.06274510 0.69019608
v -0.10000000 0.05979909 0.00502032 0.41176471 0.06274510 0.69019608
v -0.10000000 0.05020502 0.00502032 0.41176471 0.06274510 0.69019608
f 280 281 284
f 280 284 282
f 280 282 286
f 280 286 283
f 280 283 285
f 280 285 281
f 281 285 287
f 281 287 284
f 282 284 287
f 282 287 286
f 283 286 287
f 283 287 285

o geometry_28
v -0.06466706 -0.04097261 0.00000098 0.56470588 0.26274510 0.52156863
v -0.06466706 -0.04097261 0.01000000 0.56470588 0.26274510 0.52156863
v -0.06466706 -0.01005961 0.00000098 0.56470588 0.26274510 0.52156863
v -0.05735505 -0.05233068 0.00000098 0.56470588 0.26274510 0.52156863
v -0.06466706 -0.01005961 0.01000000 0.56470588 0.26274510 0.52156863
v -0.05735505 -0.05233068 0.01000000 0.56470588 0.26274510 0.52156863
v -0.05238096 -0.01005961 0.00000098 0.56470588 0.26274510 0.52156863
v -0.05238096 -0.05233068 0.00000098 0.56470588 0.26274510 0.52156863
v -0.05238096 -0.01005961 0.01000000 0.56470588 0.26274510 0.52156863
v -0.05238096 -0.05233068 0.01000000 0.56470588 0.26274510 0.52156863
f 288 289 292
f 288 292 290
f 288 290 294
f 288 294 295
f 288 295 291
f 288 291 293
f 288 293 289
f 289 293 297
f 289 297 296
f 289 296 292
f 290 292 296
f 290 296 294
f 291 295 297
f 291 297 293
f 294 296 297
f 294 297 295

o geometry_29
v -0.07728493 -0.04238430 0.00000098 0.09019608 0.57254902 0.92549020
v -0.06466829 -0.04097627 0.00000098 0.09019608 0.57254902 0.92549020
v -0.07728493 -0.04238430 0.01000000 0.09019608 0.57254902 0.92549020
v -0.07728493 -0.01005961 0.00000098 0.09019608 0.57254902 0.92549020
v -0.06466829 -0.04097627 0.01000000 0.09019608 0.57254902 0.92549020
v -0.06466829 -0.01005961 0.00000098 0.09019608 0.57254902 0.92549020
v -0.07728493 -0.01005961 0.01000000 0.09019608 0.57254902 0.92549020
v -0.06466829 -0.01005961 0.01000000 0.09019608 0.57254902 0.92549020
f 298 299 302
f 298 302 300
f 298 300 304
f 298 304 301
f 298 301 303
f 298 303 299
f 299 303 305
f 299 305 302
f 300 302 305
f 300 305 304
f 301 304 305
f 301 305 303

o geometry_30
v -0.10000000 0.01005394 0.00000049 0.31764706 0.66666667 0.12941176
v -0.10000000 0.01005394 0.00501982 0.31764706 0.66666667 0.12941176
v -0.10000000 0.04264008 0.00000049 0.31764706 0.66666667 0.12941176
v -0.06986749 0.01005394 0.00000049 0.31764706 0.66666667 0.12941176
v -0.06986749 0.01005394 0.00501982 0.31764706 0.66666667 0.12941176
v -0.10000000 0.04264008 0.00501982 0.31764706 0.66666667 0.12941176
v -0.07945940 0.04264008 0.00000049 0.31764706 0.66666667 0.12941176
v -0.06986749 0.03986822 0.00000049 0.31764706 0.66666667 0.12941176
v -0.06986749 0.03986822 0.00501982 0.31764706 0.66666667 0.12941176
v -0.07767493 0.04264008 0.00501982 0.31764706 0.66666667 0.12941176
v -0.07767493 0.04264008 0.00000541 0.31764706 0.66666667 0.12941176
v -0.07767493 0.04263690 0.00000049 0.31764706 0.66666667 0.12941176
f 306 307 311
f 306 311 308
f 306 308 312
f 306 312 317
f 306 317 313
f 306 313 309
f 306 309 310
f 306 310 307
f 307 310 314
f 307 314 315
f 307 315 311
f 308 311 315
f 308 315 316
f 308 316 312
f 309 313 314
f 309 314 310
f 312 316 317
f 313 317 316
f 313 316 315
f 313 315 314

o geometry_31
v -0.06986749 0.07500000 0.00501540 0.71372549 0.28627451 0.18039216
v -0.06986749 0.06806353 0.00501982 0.71372549 0.28627451 0.18039216
v -0.06986749 0.07500000 0.00000049 0.71372549 0.28627451 0.18039216
v -0.07602908 0.07500000 0.00501982 0.71372549 0.28627451 0.18039216
v -0.06986749 0.06490624 0.00501982 0.71372549 0.28627451 0.18039216
v -0.06986749 0.06482090 0.00000049 0.71372549 0.28627451 0.18039216
v -0.10000000 0.07500000 0.00000049 0.71372549 0.28627451 0.18039216
v -0.10000000 0.07500000 0.00501982 0.71372549 0.28627451 0.18039216
v -0.06986749 0.06482090 0.00501884 0.71372549 0.28627451 0.18039216
v -0.07764248 0.06205795 0.00501982 0.71372549 0.28627451 0.18039216
v -0.07797283 0.06179290 0.00000049 0.71372549 0.28627451 0.18039216
v -0.10000000 0.06179290 0.00000049 0.71372549 0.28627451 0.18039216
v -0.10000000 0.07236375 0.00501982 0.71372549 0.28627451 0.18039216
v -0.07797283 0.06179290 0.00501196 0.71372549 0.28627451 0.18039216
v -0.07840346 0.06179290 0.00501982 0.71372549 0.28627451 0.18039216
v -0.10000000 0.06179290 0.00500950 0.71372549 0.28627451 0.18039216
v -0.09411567 0.06179290 0.00501982 0.71372549 0.28627451 0.18039216
f 318 319 322
f 318 322 326
f 318 326 323
f 318 323 320
f 318 320 324
f 318 324 325
f 318 325 321
f 318 321 319
f 319 321 325
f 319 325 330
f 319 330 334
f 319 334 332
f 319 332 327
f 319 327 322
f 320 323 328
f 320 328 329
f 320 329 324
f 322 327 326
f 323 326 331
f 323 331 328
f 324 329 333
f 324 333 330
f 324 330 325
f 326 327 331
f 327 332 331
f 328 331 332
f 328 332 334
f 328 334 333
f 328 333 329
f 330 333 334

o geometry_32
v -0.07797269 0.06179162 0.00501196 0.58431373 0.01960784 0.82745098
v -0.07797269 0.06179162 0.00000049 0.58431373 0.01960784 0.82745098
v -0.07840396 0.06179162 0.00501982 0.58431373 0.01960784 0.82745098
v -0.07847081 0.06138867 0.00501982 0.58431373 0.01960784 0.82745098
v -0.08221858 0.05395288 0.00501982 0.58431373 0.01960784 0.82745098
v -0.08224014 0.05345858 0.00501049 0.58431373 0.01960784 0.82745098
v -0.08224014 0.05345858 0.00000049 0.58431373 0.01960784 0.82745098
v -0.10000000 0.06179162 0.00000049 0.58431373 0.01960784 0.82745098
v -0.09411527 0.06179162 0.00501982 0.58431373 0.01960784 0.82745098
v -0.08441808 0.05345858 0.00501982 0.58431373 0.01960784 0.82745098
v -0.10000000 0.05345858 0.00000049 0.58431373 0.01960784 0.82745098
v -0.10000000 0.06179162 0.00500950 0.58431373 0.01960784 0.82745098
v -0.10000000 0.05345858 0.00501688 0.58431373 0.01960784 0.82745098
v -0.08947907 0.05345858 0.00501982 0.58431373 0.01960784 0.82745098
f 335 336 342
f 335 342 346
f 335 346 343
f 335 343 337
f 335 337 338
f 335 338 339
f 335 339 340
f 335 340 341
f 335 341 336
f 336 341 345
f 336 345 342
f 337 343 348
f 337 348 344
f 337 344 339
f 337 339 338
f 339 344 340
f 340 344 348
f 340 348 347
f 340 347 345
f 340 345 341
f 342 345 347
f 342 347 346
f 343 346 347
f 343 347 348

o geometry_33
v 0.05753598 -0.05020718 0.01000000 0.00392157 0.67450980 0.26666667
v 0.06023705 -0.06036869 0.01000000 0.00392157 0.67450980 0.26666667
v 0.06024808 -0.06036869 0.00850626 0.00392157 0.67450980 0.26666667
v 0.05753598 -0.05020718 0.00000098 0.00392157 0.67450980 0.26666667
v -0.05238096 -0.05020718 0.01000000 0.00392157 0.67450980 0.26666667
v -0.05238096 -0.06036869 0.01000000 0.00392157 0.67450980 0.26666667
v 0.06024808 -0.06036869 0.00149373 0.00392157 0.67450980 0.26666667
v 0.06023705 -0.06036869 0.00000098 0.00392157 0.67450980 0.26666667
v -0.05238096 -0.05020718 0.00000098 0.00392157 0.67450980 0.26666667
v -0.05238096 -0.06036869 0.00000098 0.00392157 0.67450980 0.26666667
f 349 350 351
f 349 351 355
f 349 355 352
f 349 352 357
f 349 357 353
f 349 353 354
f 349 354 350
f 350 354 358
f 350 358 356
f 350 356 355
f 350 355 351
f 352 355 356
f 352 356 358
f 352 358 357
f 353 357 358
f 353 358 354

o geometry_34
v -0.06980323 0.07499851 0.00999951 0.73333333 0.96078431 0.24705882
v -0.06980323 0.06482007 0.00999951 0.73333333 0.96078431 0.24705882
v -0.06980323 0.07499851 0.00502032 0.73333333 0.96078431 0.24705882
v -0.10000000 0.07499851 0.00999951 0.73333333 0.96078431 0.24705882
v -0.06980323 0.06482007 0.00502032 0.73333333 0.96078431 0.24705882
v -0.07986783 0.05980152 0.00999951 0.73333333 0.96078431 0.24705882
v -0.10000000 0.07499851 0.00502032 0.73333333 0.96078431 0.24705882
v -0.10000000 0.05980152 0.00999951 0.73333333 0.96078431 0.24705882
v -0.07986783 0.05980152 0.00502032 0.73333333 0.96078431 0.24705882
v -0.10000000 0.05980152 0.00502032 0.73333333 0.96078431 0.24705882
f 359 360 363
f 359 363 361
f 359 361 365
f 359 365 362
f 359 362 366
f 359 366 364
f 359 364 360
f 360 364 367
f 360 367 363
f 361 363 367
f 361 367 368
f 361 368 365
f 362 365 368
f 362 368 366
f 364 366 368
f 364 368 367

o geometry_35
v -0.06565470 -0.07499778 0.00000098 0.57254902 0.58823529 0.56862745
v -0.05238096 -0.07499778 0.00000098 0.57254902 0.58823529 0.56862745
v -0.06565470 -0.07499778 0.01000000 0.57254902 0.58823529 0.56862745
v -0.06565470 -0.06414908 0.00000098 0.57254902 0.58823529 0.56862745
v -0.05238096 -0.07499778 0.01000000 0.57254902 0.58823529 0.56862745
v -0.05238096 -0.05233068 0.00000098 0.57254902 0.58823529 0.56862745
v -0.06565470 -0.06607296 0.01000000 0.57254902 0.58823529 0.56862745
v -0.06565470 -0.06414908 0.00999510 0.57254902 0.58823529 0.56862745
v -0.05735601 -0.05233068 0.00000098 0.57254902 0.58823529 0.56862745
v -0.05238096 -0.05233068 0.01000000 0.57254902 0.58823529 0.56862745
v -0.05735601 -0.05233068 0.01000000 0.57254902 0.58823529 0.56862745
f 369 370 373
f 369 373 371
f 369 371 375
f 369 375 376
f 369 376 372
f 369 372 377
f 369 377 374
f 369 374 370
f 370 374 378
f 370 378 373
f 371 373 378
f 371 378 379
f 371 379 375
f 372 376 379
f 372 379 377
f 374 377 379
f 374 379 378
f 375 379 376

