# https://github.com/mikedh/trimesh

o geometry_0
v -0.02460298 0.03409916 0.04033000 0.54509804 0.71372549 0.60000000
v -0.02460298 0.03469716 0.04031010 0.54509804 0.71372549 0.60000000
v -0.03449943 0.03409916 0.04033000 0.54509804 0.71372549 0.60000000
v -0.02460298 0.02569806 0.04033000 0.54509804 0.71372549 0.60000000
v -0.03449943 0.03469716 0.04031010 0.54509804 0.71372549 0.60000000
v -0.02460298 0.03516163 0.04004742 0.54509804 0.71372549 0.60000000
v -0.03505595 0.03469716 0.04005538 0.54509804 0.71372549 0.60000000
v -0.03506435 0.03409916 0.04006334 0.54509804 0.71372549 0.60000000
v -0.03449943 -0.02397698 0.04033000 0.54509804 0.71372549 0.60000000
v -0.02460298 0.02539616 0.04031806 0.54509804 0.71372549 0.60000000
v -0.02550075 -0.02397698 0.04033000 0.54509804 0.71372549 0.60000000
v -0.02487284 -0.02397698 0.04003150 0.54509804 0.71372549 0.60000000
v -0.02481298 -0.02397698 0.03990413 0.54509804 0.71372549 0.60000000
v -0.02463343 -0.02397698 0.03949817 0.54509804 0.71372549 0.60000000
v -0.02463238 -0.02397698 0.03948225 0.54509804 0.71372549 0.60000000
v -0.03496459 0.03510938 0.03996384 0.54509804 0.71372549 0.60000000
v -0.03449943 0.03516163 0.04004742 0.54509804 0.71372549 0.60000000
v -0.02460298 0.03533000 0.03949817 0.54509804 0.71372549 0.60000000
v -0.03531215 0.03469716 0.03949817 0.54509804 0.71372549 0.60000000
v -0.03532895 0.03409916 0.03949817 0.54509804 0.71372549 0.60000000
v -0.03527750 -0.02397698 0.03960961 0.54509804 0.71372549 0.60000000
v -0.03506435 -0.02397698 0.04006334 0.54509804 0.71372549 0.60000000
v -0.02460298 0.02509425 0.04027826 0.54509804 0.71372549 0.60000000
v -0.02462083 -0.02397698 0.03889719 0.54509804 0.71372549 0.60000000
v -0.03449943 0.03533000 0.03949817 0.54509804 0.71372549 0.60000000
v -0.03504649 0.03516163 0.03949817 0.54509804 0.71372549 0.60000000
v -0.02460298 0.03533000 0.00050183 0.54509804 0.71372549 0.60000000
v -0.03531215 0.03469716 0.00050183 0.54509804 0.71372549 0.60000000
v -0.03532895 0.03409916 0.00050183 0.54509804 0.71372549 0.60000000
v -0.03532895 -0.02397698 0.03949817 0.54509804 0.71372549 0.60000000
v -0.02460298 0.02474009 0.04016682 0.54509804 0.71372549 0.60000000
v -0.02462083 -0.02397698 0.00110281 0.54509804 0.71372549 0.60000000
v -0.02460298 0.02422337 0.03892505 0.54509804 0.71372549 0.60000000
v -0.02460298 0.02423498 0.03949817 0.54509804 0.71372549 0.60000000
v -0.02460298 0.02424079 0.03952205 0.54509804 0.71372549 0.60000000
v -0.02460298 0.02453108 0.04004742 0.54509804 0.71372549 0.60000000
v -0.03449943 0.03533000 0.00050183 0.54509804 0.71372549 0.60000000
v -0.03504649 0.03516163 0.00050183 0.54509804 0.71372549 0.60000000
v -0.02460298 0.03516163 -0.00004742 0.54509804 0.71372549 0.60000000
v -0.03496459 0.03510938 0.00003616 0.54509804 0.71372549 0.60000000
v -0.03505595 0.03469716 -0.00005538 0.54509804 0.71372549 0.60000000
v -0.03506435 0.03409916 -0.00006334 0.54509804 0.71372549 0.60000000
v -0.03532895 -0.02397698 0.00050183 0.54509804 0.71372549 0.60000000
v -0.02463343 -0.02397698 0.00050183 0.54509804 0.71372549 0.60000000
v -0.02460298 0.02569806 -0.00033000 0.54509804 0.71372549 0.60000000
v -0.02460298 0.02509425 -0.00027826 0.54509804 0.71372549 0.60000000
v -0.02460298 0.02453108 -0.00004742 0.54509804 0.71372549 0.60000000
v -0.02460298 0.02423498 0.00050183 0.54509804 0.71372549 0.60000000
v -0.02460298 0.02422337 0.00110281 0.54509804 0.71372549 0.60000000
v -0.03449943 0.03516163 -0.00004742 0.54509804 0.71372549 0.60000000
v -0.02460298 0.03469716 -0.00031010 0.54509804 0.71372549 0.60000000
v -0.03449943 0.03469716 -0.00031010 0.54509804 0.71372549 0.60000000
v -0.03449943 0.03409916 -0.00033000 0.54509804 0.71372549 0.60000000
v -0.03506435 -0.02397698 -0.00006334 0.54509804 0.71372549 0.60000000
v -0.02463448 -0.02397698 0.00049387 0.54509804 0.71372549 0.60000000
v -0.02460298 0.03409916 -0.00033000 0.54509804 0.71372549 0.60000000
v -0.02487284 -0.02397698 -0.00003150 0.54509804 0.71372549 0.60000000
v -0.02550075 -0.02397698 -0.00033000 0.54509804 0.71372549 0.60000000
v -0.03449943 -0.02397698 -0.00033000 0.54509804 0.71372549 0.60000000
f 1 2 5
f 1 5 3
f 1 3 9
f 1 9 11
f 1 11 4
f 1 4 10
f 1 10 23
f 1 23 31
f 1 31 36
f 1 36 35
f 1 35 34
f 1 34 33
f 1 33 49
f 1 49 48
f 1 48 47
f 1 47 46
f 1 46 45
f 1 45 56
f 1 56 51
f 1 51 39
f 1 39 27
f 1 27 18
f 1 18 6
f 1 6 2
f 2 6 17
f 2 17 5
f 3 5 7
f 3 7 8
f 3 8 22
f 3 22 9
f 4 11 12
f 4 12 13
f 4 13 14
f 4 14 15
f 4 15 10
f 5 16 7
f 5 17 16
f 6 18 25
f 6 25 17
f 7 19 20
f 7 20 8
f 7 16 19
f 8 20 21
f 8 21 22
f 9 22 21
f 9 21 30
f 9 30 43
f 9 43 54
f 9 54 59
f 9 59 58
f 9 58 57
f 9 57 55
f 9 55 44
f 9 44 32
f 9 32 24
f 9 24 15
f 9 15 14
f 9 14 13
f 9 13 12
f 9 12 11
f 10 15 24
f 10 24 23
f 16 17 25
f 16 25 26
f 16 26 19
f 18 27 37
f 18 37 25
f 19 26 38
f 19 38 28
f 19 28 29
f 19 29 20
f 20 29 43
f 20 43 30
f 20 30 21
f 23 24 31
f 24 32 49
f 24 49 33
f 24 33 34
f 24 34 35
f 24 35 36
f 24 36 31
f 25 37 38
f 25 38 26
f 27 39 50
f 27 50 37
f 28 38 40
f 28 40 41
f 28 41 29
f 29 41 42
f 29 42 54
f 29 54 43
f 32 44 45
f 32 45 46
f 32 46 47
f 32 47 48
f 32 48 49
f 37 50 40
f 37 40 38
f 39 51 52
f 39 52 50
f 40 50 52
f 40 52 41
f 41 52 53
f 41 53 42
f 42 53 59
f 42 59 54
f 44 55 45
f 45 55 57
f 45 57 58
f 45 58 59
f 45 59 53
f 45 53 56
f 51 56 53
f 51 53 52

o geometry_1
v 0.01649727 -0.03611921 0.04033000 0.54117647 0.42352941 0.64313725
v 0.01709768 -0.03611921 0.04032204 0.54117647 0.42352941 0.64313725
v -0.01649727 -0.03611921 0.04033000 0.54117647 0.42352941 0.64313725
v 0.01649727 -0.08409685 0.04033000 0.54117647 0.42352941 0.64313725
v 0.01761431 -0.03611921 0.04005538 0.54117647 0.42352941 0.64313725
v 0.01709768 -0.08409685 0.04032204 0.54117647 0.42352941 0.64313725
v -0.01709768 -0.03611921 0.04032204 0.54117647 0.42352941 0.64313725
v -0.01649727 -0.08409685 0.04033000 0.54117647 0.42352941 0.64313725
v 0.01649727 -0.08469898 0.04031010 0.54117647 0.42352941 0.64313725
v 0.01709768 -0.08469898 0.04030612 0.54117647 0.42352941 0.64313725
v 0.01783074 -0.03611921 0.03949817 0.54117647 0.42352941 0.64313725
v 0.01761431 -0.08409685 0.04005538 0.54117647 0.42352941 0.64313725
v 0.01760384 -0.08469898 0.04005140 0.54117647 0.42352941 0.64313725
v -0.01711513 -0.03611921 0.04031408 0.54117647 0.42352941 0.64313725
v -0.01709768 -0.08409685 0.04032204 0.54117647 0.42352941 0.64313725
v -0.01709768 -0.08469898 0.04030612 0.54117647 0.42352941 0.64313725
v -0.01649727 -0.08469898 0.04031010 0.54117647 0.42352941 0.64313725
v 0.01709768 -0.08516141 0.04004742 0.54117647 0.42352941 0.64313725
v 0.01753053 -0.08510843 0.03996384 0.54117647 0.42352941 0.64313725
v 0.01783074 -0.03611921 0.00050183 0.54117647 0.42352941 0.64313725
v 0.01782724 -0.08409685 0.03949817 0.54117647 0.42352941 0.64313725
v 0.01780979 -0.08469898 0.03949817 0.54117647 0.42352941 0.64313725
v -0.01761431 -0.03611921 0.04005538 0.54117647 0.42352941 0.64313725
v -0.01761431 -0.08409685 0.04005538 0.54117647 0.42352941 0.64313725
v -0.01760384 -0.08469898 0.04005140 0.54117647 0.42352941 0.64313725
v -0.01753053 -0.08510843 0.03996384 0.54117647 0.42352941 0.64313725
v -0.01709768 -0.08516141 0.04004742 0.54117647 0.42352941 0.64313725
v 0.01709768 -0.08532519 0.03949817 0.54117647 0.42352941 0.64313725
v 0.01759686 -0.08516141 0.03949817 0.54117647 0.42352941 0.64313725
v 0.01762129 -0.03611921 -0.00003946 0.54117647 0.42352941 0.64313725
v 0.01782724 -0.08409685 0.00050183 0.54117647 0.42352941 0.64313725
v 0.01761431 -0.08409685 -0.00005538 0.54117647 0.42352941 0.64313725
v 0.01780979 -0.08469898 0.00050183 0.54117647 0.42352941 0.64313725
v -0.01762129 -0.03611921 0.04003946 0.54117647 0.42352941 0.64313725
v -0.01782724 -0.08409685 0.03949817 0.54117647 0.42352941 0.64313725
v -0.01783074 -0.03611921 0.03949817 0.54117647 0.42352941 0.64313725
v -0.01780979 -0.08469898 0.03949817 0.54117647 0.42352941 0.64313725
v -0.01759686 -0.08516141 0.03949817 0.54117647 0.42352941 0.64313725
v -0.01709768 -0.08532519 0.03949817 0.54117647 0.42352941 0.64313725
v 0.01709768 -0.08532519 0.00050183 0.54117647 0.42352941 0.64313725
v 0.01759686 -0.08516141 0.00050183 0.54117647 0.42352941 0.64313725
v 0.01761431 -0.03611921 -0.00005538 0.54117647 0.42352941 0.64313725
v 0.01760384 -0.08469898 -0.00005140 0.54117647 0.42352941 0.64313725
v 0.01709768 -0.08409685 -0.00032204 0.54117647 0.42352941 0.64313725
v 0.01711513 -0.03611921 -0.00031408 0.54117647 0.42352941 0.64313725
v 0.01753053 -0.08510843 0.00003616 0.54117647 0.42352941 0.64313725
v -0.01782724 -0.08409685 0.00050183 0.54117647 0.42352941 0.64313725
v -0.01783074 -0.03611921 0.00050183 0.54117647 0.42352941 0.64313725
v -0.01780979 -0.08469898 0.00050183 0.54117647 0.42352941 0.64313725
v -0.01759686 -0.08516141 0.00050183 0.54117647 0.42352941 0.64313725
v -0.01709768 -0.08532519 0.00050183 0.54117647 0.42352941 0.64313725
v 0.01709768 -0.08516141 -0.00004742 0.54117647 0.42352941 0.64313725
v 0.01709768 -0.08469898 -0.00030612 0.54117647 0.42352941 0.64313725
v 0.01649727 -0.08409685 -0.00033000 0.54117647 0.42352941 0.64313725
v 0.01709768 -0.03611921 -0.00032204 0.54117647 0.42352941 0.64313725
v -0.01761431 -0.08409685 -0.00005538 0.54117647 0.42352941 0.64313725
v -0.01760384 -0.08469898 -0.00005140 0.54117647 0.42352941 0.64313725
v -0.01761431 -0.03611921 -0.00005538 0.54117647 0.42352941 0.64313725
v -0.01753053 -0.08510843 0.00003616 0.54117647 0.42352941 0.64313725
v -0.01709768 -0.08516141 -0.00004742 0.54117647 0.42352941 0.64313725
v 0.01649727 -0.08469898 -0.00031010 0.54117647 0.42352941 0.64313725
v 0.01649727 -0.03611921 -0.00033000 0.54117647 0.42352941 0.64313725
v -0.01649727 -0.08409685 -0.00033000 0.54117647 0.42352941 0.64313725
v -0.01709768 -0.08409685 -0.00032204 0.54117647 0.42352941 0.64313725
v -0.01709768 -0.08469898 -0.00030612 0.54117647 0.42352941 0.64313725
v -0.01709768 -0.03611921 -0.00032204 0.54117647 0.42352941 0.64313725
v -0.01649727 -0.08469898 -0.00031010 0.54117647 0.42352941 0.64313725
v -0.01649727 -0.03611921 -0.00033000 0.54117647 0.42352941 0.64313725
f 60 61 64
f 60 64 70
f 60 70 79
f 60 79 89
f 60 89 101
f 60 101 104
f 60 104 114
f 60 114 121
f 60 121 127
f 60 127 125
f 60 125 117
f 60 117 107
f 60 107 95
f 60 95 93
f 60 93 82
f 60 82 73
f 60 73 66
f 60 66 62
f 60 62 67
f 60 67 63
f 60 63 65
f 60 65 61
f 61 65 71
f 61 71 64
f 62 66 74
f 62 74 67
f 63 67 76
f 63 76 68
f 63 68 69
f 63 69 65
f 64 71 70
f 65 69 72
f 65 72 71
f 66 73 74
f 67 74 75
f 67 75 76
f 68 76 86
f 68 86 77
f 68 77 69
f 69 77 78
f 69 78 72
f 70 71 80
f 70 80 90
f 70 90 79
f 71 72 80
f 72 78 81
f 72 81 80
f 73 82 83
f 73 83 74
f 74 83 84
f 74 84 75
f 75 84 85
f 75 85 86
f 75 86 76
f 77 86 98
f 77 98 87
f 77 87 78
f 78 87 88
f 78 88 81
f 79 90 91
f 79 91 89
f 80 81 92
f 80 92 90
f 81 88 100
f 81 100 92
f 82 93 83
f 83 94 84
f 83 93 95
f 83 95 94
f 84 96 85
f 84 94 96
f 85 97 98
f 85 98 86
f 85 96 97
f 87 98 110
f 87 110 99
f 87 99 100
f 87 100 88
f 89 91 101
f 90 92 102
f 90 102 91
f 91 102 103
f 91 103 104
f 91 104 101
f 92 105 102
f 92 100 105
f 94 106 108
f 94 108 96
f 94 95 107
f 94 107 106
f 96 108 109
f 96 109 97
f 97 109 110
f 97 110 98
f 99 111 105
f 99 105 100
f 99 110 119
f 99 119 111
f 102 105 112
f 102 112 103
f 103 112 113
f 103 113 121
f 103 121 114
f 103 114 104
f 105 111 112
f 106 115 116
f 106 116 108
f 106 107 115
f 107 117 115
f 108 116 118
f 108 118 109
f 109 118 110
f 110 118 119
f 111 119 126
f 111 126 120
f 111 120 112
f 112 120 113
f 113 120 126
f 113 126 122
f 113 122 127
f 113 127 121
f 115 123 116
f 115 117 125
f 115 125 123
f 116 124 118
f 116 123 124
f 118 124 119
f 119 124 126
f 122 126 124
f 122 124 123
f 122 123 125
f 122 125 127

o geometry_2
v 0.03532840 -0.02398278 0.03949817 0.43529412 0.89019608 0.96078431
v 0.03511664 -0.02398278 0.03995190 0.43529412 0.89019608 0.96078431
v 0.03532840 -0.03429997 0.03949817 0.43529412 0.89019608 0.96078431
v 0.03532840 -0.02398278 0.00050183 0.43529412 0.89019608 0.96078431
v 0.03506370 -0.02398278 0.04006334 0.43529412 0.89019608 0.96078431
v 0.03506370 -0.03429997 0.04006334 0.43529412 0.89019608 0.96078431
v 0.03501076 -0.03489993 0.04000762 0.43529412 0.89019608 0.96078431
v 0.03522252 -0.03489993 0.03949817 0.43529412 0.89019608 0.96078431
v 0.03532840 -0.03429997 0.00050183 0.43529412 0.89019608 0.96078431
v 0.03527706 -0.02398278 0.00039039 0.43529412 0.89019608 0.96078431
v 0.03449902 -0.02398278 0.04033000 0.43529412 0.89019608 0.96078431
v 0.03449902 -0.03429997 0.04033000 0.43529412 0.89019608 0.96078431
v 0.03449902 -0.03489993 0.04022254 0.43529412 0.89019608 0.96078431
v 0.03490488 -0.03524325 0.03990413 0.43529412 0.89019608 0.96078431
v 0.03495622 -0.03526435 0.03949817 0.43529412 0.89019608 0.96078431
v 0.03522252 -0.03489993 0.00050183 0.43529412 0.89019608 0.96078431
v 0.03501076 -0.03489993 -0.00000762 0.43529412 0.89019608 0.96078431
v 0.03506370 -0.03429997 -0.00006334 0.43529412 0.89019608 0.96078431
v 0.03506370 -0.02398278 -0.00006334 0.43529412 0.89019608 0.96078431
v 0.02550099 -0.02398278 0.04033000 0.43529412 0.89019608 0.96078431
v 0.01894137 -0.03429997 0.04033000 0.43529412 0.89019608 0.96078431
v 0.01894137 -0.03489993 0.04022254 0.43529412 0.89019608 0.96078431
v 0.01894137 -0.03524102 0.03997577 0.43529412 0.89019608 0.96078431
v 0.03449902 -0.03526435 0.03995588 0.43529412 0.89019608 0.96078431
v 0.03449902 -0.03532991 0.03949817 0.43529412 0.89019608 0.96078431
v 0.03495622 -0.03526435 0.00050183 0.43529412 0.89019608 0.96078431
v 0.03490488 -0.03524325 0.00009587 0.43529412 0.89019608 0.96078431
v 0.03449902 -0.03489993 -0.00022254 0.43529412 0.89019608 0.96078431
v 0.03449902 -0.03429997 -0.00033000 0.43529412 0.89019608 0.96078431
v 0.03495462 -0.02398278 -0.00011508 0.43529412 0.89019608 0.96078431
v 0.02487374 -0.02398278 0.04003150 0.43529412 0.89019608 0.96078431
v 0.01894137 -0.02467052 0.03949817 0.43529412 0.89019608 0.96078431
v 0.01894137 -0.02482385 0.04000762 0.43529412 0.89019608 0.96078431
v 0.01894137 -0.02483607 0.04004742 0.43529412 0.89019608 0.96078431
v 0.01894137 -0.02526826 0.04029418 0.43529412 0.89019608 0.96078431
v 0.01894137 -0.02530048 0.04031010 0.43529412 0.89019608 0.96078431
v 0.01894137 -0.02590045 0.04033000 0.43529412 0.89019608 0.96078431
v 0.01894137 -0.03526658 0.03995588 0.43529412 0.89019608 0.96078431
v 0.01894137 -0.03533324 0.03949817 0.43529412 0.89019608 0.96078431
v 0.03449902 -0.03532991 0.00050183 0.43529412 0.89019608 0.96078431
v 0.03449902 -0.03526435 0.00004412 0.43529412 0.89019608 0.96078431
v 0.01894137 -0.03526658 0.00004412 0.43529412 0.89019608 0.96078431
v 0.01894137 -0.03489993 -0.00022254 0.43529412 0.89019608 0.96078431
v 0.03449902 -0.02398278 -0.00033000 0.43529412 0.89019608 0.96078431
v 0.01894137 -0.03429997 -0.00033000 0.43529412 0.89019608 0.96078431
v 0.02463472 -0.02398278 0.03950613 0.43529412 0.89019608 0.96078431
v 0.02463311 -0.02398278 0.03949817 0.43529412 0.89019608 0.96078431
v 0.02462188 -0.02398278 0.03889719 0.43529412 0.89019608 0.96078431
v 0.01894137 -0.02467052 0.00050183 0.43529412 0.89019608 0.96078431
v 0.01894137 -0.03533324 0.00050183 0.43529412 0.89019608 0.96078431
v 0.02550099 -0.02398278 -0.00033000 0.43529412 0.89019608 0.96078431
v 0.01894137 -0.02590045 -0.00033000 0.43529412 0.89019608 0.96078431
v 0.02462188 -0.02398278 0.00110281 0.43529412 0.89019608 0.96078431
v 0.02463311 -0.02398278 0.00050183 0.43529412 0.89019608 0.96078431
v 0.02481278 -0.02398278 0.00009587 0.43529412 0.89019608 0.96078431
v 0.02487374 -0.02398278 -0.00003150 0.43529412 0.89019608 0.96078431
v 0.01894137 -0.02483607 -0.00004742 0.43529412 0.89019608 0.96078431
v 0.01894137 -0.02530048 -0.00031010 0.43529412 0.89019608 0.96078431
f 128 129 130
f 128 130 136
f 128 136 131
f 128 131 137
f 128 137 146
f 128 146 157
f 128 157 171
f 128 171 178
f 128 178 183
f 128 183 182
f 128 182 181
f 128 181 180
f 128 180 175
f 128 175 174
f 128 174 173
f 128 173 158
f 128 158 147
f 128 147 138
f 128 138 132
f 128 132 129
f 129 132 133
f 129 133 130
f 130 133 134
f 130 134 135
f 130 135 143
f 130 143 136
f 131 136 137
f 132 138 139
f 132 139 133
f 133 139 134
f 134 139 140
f 134 140 141
f 134 141 135
f 135 141 142
f 135 142 153
f 135 153 143
f 136 143 144
f 136 144 145
f 136 145 137
f 137 145 146
f 138 147 164
f 138 164 148
f 138 148 139
f 139 148 149
f 139 149 140
f 140 149 150
f 140 150 151
f 140 151 141
f 141 152 142
f 141 151 152
f 142 152 167
f 142 167 153
f 143 153 154
f 143 154 144
f 144 155 156
f 144 156 145
f 144 154 155
f 145 157 146
f 145 156 157
f 147 158 159
f 147 159 160
f 147 160 161
f 147 161 162
f 147 162 163
f 147 163 164
f 148 164 163
f 148 163 162
f 148 162 161
f 148 161 160
f 148 160 159
f 148 159 176
f 148 176 184
f 148 184 185
f 148 185 179
f 148 179 172
f 148 172 170
f 148 170 169
f 148 169 177
f 148 177 166
f 148 166 165
f 148 165 150
f 148 150 149
f 150 165 151
f 151 165 166
f 151 166 152
f 152 166 177
f 152 177 167
f 153 167 154
f 154 167 168
f 154 168 155
f 155 168 169
f 155 169 170
f 155 170 172
f 155 172 156
f 156 171 157
f 156 172 179
f 156 179 178
f 156 178 171
f 158 173 159
f 159 173 174
f 159 174 175
f 159 175 180
f 159 180 176
f 167 177 168
f 168 177 169
f 176 180 181
f 176 181 182
f 176 182 183
f 176 183 178
f 176 178 184
f 178 179 185
f 178 185 184

o geometry_3
v 0.03449958 0.02420161 0.04033000 0.38039216 0.78823529 0.52549020
v 0.03506473 0.02420161 0.04006334 0.38039216 0.78823529 0.52549020
v 0.02550017 0.02420161 0.04033000 0.38039216 0.78823529 0.52549020
v 0.03449958 -0.02398278 0.04033000 0.38039216 0.78823529 0.52549020
v 0.03519789 0.02420161 0.03978076 0.38039216 0.78823529 0.52549020
v 0.03506473 -0.02398278 0.04006334 0.38039216 0.78823529 0.52549020
v 0.02488469 0.02420161 0.04008324 0.38039216 0.78823529 0.52549020
v 0.02550017 -0.02398278 0.04033000 0.38039216 0.78823529 0.52549020
v 0.03533000 0.02420161 0.03949817 0.38039216 0.78823529 0.52549020
v 0.03533000 -0.02398278 0.03949817 0.38039216 0.78823529 0.52549020
v 0.02475992 0.02420161 0.03982453 0.38039216 0.78823529 0.52549020
v 0.02487316 -0.02398278 0.04003150 0.38039216 0.78823529 0.52549020
v 0.02493502 -0.02349698 0.04006334 0.38039216 0.78823529 0.52549020
v 0.03533000 0.02420161 0.00050183 0.38039216 0.78823529 0.52549020
v 0.03533000 -0.02398278 0.00050183 0.38039216 0.78823529 0.52549020
v 0.02462152 0.02420161 0.03949817 0.38039216 0.78823529 0.52549020
v 0.02463410 -0.02398278 0.03950613 0.38039216 0.78823529 0.52549020
v 0.03506473 0.02420161 -0.00006334 0.38039216 0.78823529 0.52549020
v 0.03506473 -0.02398278 -0.00006334 0.38039216 0.78823529 0.52549020
v 0.02461837 0.02420161 0.03889719 0.38039216 0.78823529 0.52549020
v 0.02462152 -0.02398278 0.03889719 0.38039216 0.78823529 0.52549020
v 0.02463305 -0.02398278 0.03949817 0.38039216 0.78823529 0.52549020
v 0.03449958 0.02420161 -0.00033000 0.38039216 0.78823529 0.52549020
v 0.03449958 -0.02398278 -0.00033000 0.38039216 0.78823529 0.52549020
v 0.02461837 0.02420161 0.00110281 0.38039216 0.78823529 0.52549020
v 0.02462152 -0.02398278 0.00110281 0.38039216 0.78823529 0.52549020
v 0.02550017 0.02420161 -0.00033000 0.38039216 0.78823529 0.52549020
v 0.02550017 -0.02398278 -0.00033000 0.38039216 0.78823529 0.52549020
v 0.02462152 0.02420161 0.00050183 0.38039216 0.78823529 0.52549020
v 0.02463305 -0.02398278 0.00050183 0.38039216 0.78823529 0.52549020
v 0.02514578 0.02420161 -0.00020264 0.38039216 0.78823529 0.52549020
v 0.02487316 -0.02398278 -0.00003150 0.38039216 0.78823529 0.52549020
v 0.02493502 -0.02349698 -0.00006334 0.38039216 0.78823529 0.52549020
v 0.02488469 0.02420161 -0.00008324 0.38039216 0.78823529 0.52549020
v 0.02481340 -0.02398278 0.00009587 0.38039216 0.78823529 0.52549020
f 186 187 190
f 186 190 194
f 186 194 199
f 186 199 203
f 186 203 208
f 186 208 212
f 186 212 216
f 186 216 219
f 186 219 214
f 186 214 210
f 186 210 205
f 186 205 201
f 186 201 196
f 186 196 192
f 186 192 188
f 186 188 193
f 186 193 189
f 186 189 191
f 186 191 187
f 187 191 190
f 188 192 193
f 189 193 197
f 189 197 202
f 189 202 207
f 189 207 206
f 189 206 211
f 189 211 215
f 189 215 220
f 189 220 217
f 189 217 213
f 189 213 209
f 189 209 204
f 189 204 200
f 189 200 195
f 189 195 191
f 190 191 195
f 190 195 194
f 192 196 197
f 192 197 198
f 192 198 193
f 193 198 197
f 194 195 200
f 194 200 199
f 196 201 202
f 196 202 197
f 199 200 204
f 199 204 203
f 201 205 206
f 201 206 207
f 201 207 202
f 203 204 209
f 203 209 208
f 205 210 211
f 205 211 206
f 208 209 213
f 208 213 212
f 210 214 211
f 211 214 215
f 212 213 216
f 213 217 218
f 213 218 219
f 213 219 216
f 214 219 220
f 214 220 215
f 217 220 219
f 217 219 218

o geometry_4
v -0.02460298 0.02570050 -0.00033000 0.56470588 0.92549020 0.07058824
v -0.02460298 0.02510029 -0.00027826 0.56470588 0.92549020 0.07058824
v -0.02460298 0.03409909 -0.00033000 0.56470588 0.92549020 0.07058824
v 0.02549761 0.02420161 -0.00033000 0.56470588 0.92549020 0.07058824
v -0.02460298 0.02453385 -0.00004742 0.56470588 0.92549020 0.07058824
v -0.02460298 0.03469929 -0.00031010 0.56470588 0.92549020 0.07058824
v 0.03449695 0.03409909 -0.00033000 0.56470588 0.92549020 0.07058824
v 0.03449695 0.02420161 -0.00033000 0.56470588 0.92549020 0.07058824
v 0.02513975 0.02420161 -0.00020264 0.56470588 0.92549020 0.07058824
v -0.02460298 0.02422884 0.00110281 0.56470588 0.92549020 0.07058824
v -0.02460298 0.02423755 0.00050183 0.56470588 0.92549020 0.07058824
v -0.02460298 0.03516443 -0.00004742 0.56470588 0.92549020 0.07058824
v 0.03449695 0.03469929 -0.00031010 0.56470588 0.92549020 0.07058824
v 0.03505427 0.03469929 -0.00005538 0.56470588 0.92549020 0.07058824
v 0.03506014 0.03409909 -0.00006334 0.56470588 0.92549020 0.07058824
v 0.03506014 0.02420161 -0.00006334 0.56470588 0.92549020 0.07058824
v 0.02488162 0.02420161 -0.00008324 0.56470588 0.92549020 0.07058824
v -0.02460298 0.02422884 0.03889719 0.56470588 0.92549020 0.07058824
v 0.02461763 0.02420161 0.00050183 0.56470588 0.92549020 0.07058824
v -0.02460298 0.03533000 0.00050183 0.56470588 0.92549020 0.07058824
v 0.03449695 0.03516443 -0.00004742 0.56470588 0.92549020 0.07058824
v 0.03496041 0.03510996 0.00003616 0.56470588 0.92549020 0.07058824
v 0.03531240 0.03469929 0.00050183 0.56470588 0.92549020 0.07058824
v 0.03533000 0.03409909 0.00050183 0.56470588 0.92549020 0.07058824
v 0.03533000 0.02420161 0.00050183 0.56470588 0.92549020 0.07058824
v -0.02460298 0.02423755 0.03949817 0.56470588 0.92549020 0.07058824
v 0.02461763 0.02420161 0.03949817 0.56470588 0.92549020 0.07058824
v 0.02475842 0.02420161 0.03982453 0.56470588 0.92549020 0.07058824
v 0.02488162 0.02420161 0.04008324 0.56470588 0.92549020 0.07058824
v 0.02549761 0.02420161 0.04033000 0.56470588 0.92549020 0.07058824
v -0.02460298 0.03533000 0.03949817 0.56470588 0.92549020 0.07058824
v 0.03449695 0.03533000 0.00050183 0.56470588 0.92549020 0.07058824
v 0.03504254 0.03516443 0.00050183 0.56470588 0.92549020 0.07058824
v 0.03531240 0.03469929 0.03949817 0.56470588 0.92549020 0.07058824
v 0.03533000 0.03409909 0.03949817 0.56470588 0.92549020 0.07058824
v 0.03533000 0.02420161 0.03949817 0.56470588 0.92549020 0.07058824
v -0.02460298 0.02424627 0.03952205 0.56470588 0.92549020 0.07058824
v -0.02460298 0.02570050 0.04033000 0.56470588 0.92549020 0.07058824
v -0.02460298 0.02539767 0.04031806 0.56470588 0.92549020 0.07058824
v -0.02460298 0.02510029 0.04027826 0.56470588 0.92549020 0.07058824
v -0.02460298 0.02474299 0.04016682 0.56470588 0.92549020 0.07058824
v -0.02460298 0.02453385 0.04004742 0.56470588 0.92549020 0.07058824
v 0.03449695 0.02420161 0.04033000 0.56470588 0.92549020 0.07058824
v -0.02460298 0.03516443 0.04004742 0.56470588 0.92549020 0.07058824
v 0.03449695 0.03533000 0.03949817 0.56470588 0.92549020 0.07058824
v 0.03504254 0.03516443 0.03949817 0.56470588 0.92549020 0.07058824
v 0.03496041 0.03510996 0.03996384 0.56470588 0.92549020 0.07058824
v 0.03505427 0.03469929 0.04005538 0.56470588 0.92549020 0.07058824
v 0.03506014 0.03409909 0.04006334 0.56470588 0.92549020 0.07058824
v 0.03506014 0.02420161 0.04006334 0.56470588 0.92549020 0.07058824
v -0.02460298 0.03409909 0.04033000 0.56470588 0.92549020 0.07058824
v 0.03449695 0.03409909 0.04033000 0.56470588 0.92549020 0.07058824
v -0.02460298 0.03469929 0.04031010 0.56470588 0.92549020 0.07058824
v 0.03449695 0.03516443 0.04004742 0.56470588 0.92549020 0.07058824
v 0.03449695 0.03469929 0.04031010 0.56470588 0.92549020 0.07058824
f 221 222 225
f 221 225 231
f 221 231 230
f 221 230 238
f 221 238 246
f 221 246 257
f 221 257 262
f 221 262 261
f 221 261 260
f 221 260 259
f 221 259 258
f 221 258 271
f 221 271 273
f 221 273 264
f 221 264 251
f 221 251 240
f 221 240 232
f 221 232 226
f 221 226 223
f 221 223 227
f 221 227 228
f 221 228 224
f 221 224 222
f 222 224 225
f 223 226 233
f 223 233 227
f 224 228 236
f 224 236 245
f 224 245 256
f 224 256 270
f 224 270 263
f 224 263 250
f 224 250 249
f 224 249 248
f 224 248 247
f 224 247 239
f 224 239 237
f 224 237 229
f 224 229 230
f 224 230 231
f 224 231 225
f 226 232 241
f 226 241 233
f 227 233 234
f 227 234 235
f 227 235 236
f 227 236 228
f 229 237 230
f 230 237 239
f 230 239 247
f 230 247 238
f 232 240 252
f 232 252 241
f 233 241 242
f 233 242 234
f 234 243 244
f 234 244 235
f 234 242 243
f 235 244 245
f 235 245 236
f 238 247 248
f 238 248 249
f 238 249 250
f 238 250 246
f 240 251 265
f 240 265 252
f 241 252 242
f 242 252 253
f 242 253 243
f 243 254 255
f 243 255 244
f 243 253 266
f 243 266 254
f 244 255 256
f 244 256 245
f 246 250 257
f 250 258 259
f 250 259 260
f 250 260 261
f 250 261 262
f 250 262 257
f 250 263 272
f 250 272 271
f 250 271 258
f 251 264 274
f 251 274 265
f 252 265 266
f 252 266 253
f 254 266 267
f 254 267 268
f 254 268 255
f 255 268 269
f 255 269 270
f 255 270 256
f 263 270 269
f 263 269 272
f 264 273 275
f 264 275 274
f 265 274 267
f 265 267 266
f 267 274 275
f 267 275 268
f 268 275 272
f 268 272 269
f 271 272 275
f 271 275 273

o geometry_5
v -0.03449595 -0.03429922 -0.00033000 0.08627451 0.01960784 0.83137255
v -0.03449595 -0.03489915 -0.00022254 0.08627451 0.01960784 0.83137255
v -0.03501126 -0.03489915 -0.00000762 0.08627451 0.01960784 0.83137255
v -0.03506438 -0.03429922 -0.00006334 0.08627451 0.01960784 0.83137255
v -0.03449595 -0.02398278 -0.00033000 0.08627451 0.01960784 0.83137255
v -0.01649758 -0.03611920 -0.00033000 0.08627451 0.01960784 0.83137255
v -0.01709788 -0.03611920 -0.00032204 0.08627451 0.01960784 0.83137255
v -0.03449595 -0.03526386 0.00004412 0.08627451 0.01960784 0.83137255
v -0.03490501 -0.03524247 0.00009587 0.08627451 0.01960784 0.83137255
v -0.03521844 -0.03489915 0.00050183 0.08627451 0.01960784 0.83137255
v -0.03533000 -0.03429922 0.00050183 0.08627451 0.01960784 0.83137255
v -0.03506438 -0.02398278 -0.00006334 0.08627451 0.01960784 0.83137255
v -0.02549677 -0.02398278 -0.00033000 0.08627451 0.01960784 0.83137255
v 0.01649767 -0.03611920 -0.00033000 0.08627451 0.01960784 0.83137255
v -0.01761318 -0.03611920 -0.00005538 0.08627451 0.01960784 0.83137255
v -0.03449595 -0.03532920 0.00050183 0.08627451 0.01960784 0.83137255
v -0.03495282 -0.03526386 0.00050183 0.08627451 0.01960784 0.83137255
v -0.03521844 -0.03489915 0.03949817 0.08627451 0.01960784 0.83137255
v -0.03533000 -0.02398278 0.00050183 0.08627451 0.01960784 0.83137255
v -0.03533000 -0.03429922 0.03949817 0.08627451 0.01960784 0.83137255
v -0.02486991 -0.02398278 -0.00003150 0.08627451 0.01960784 0.83137255
v 0.01894137 -0.02467062 0.00050183 0.08627451 0.01960784 0.83137255
v 0.01894137 -0.02483575 -0.00004742 0.08627451 0.01960784 0.83137255
v 0.01894137 -0.02530025 -0.00031010 0.08627451 0.01960784 0.83137255
v 0.01894137 -0.02590018 -0.00033000 0.08627451 0.01960784 0.83137255
v 0.01894137 -0.03429922 -0.00033000 0.08627451 0.01960784 0.83137255
v 0.01709797 -0.03611920 -0.00032204 0.08627451 0.01960784 0.83137255
v -0.01782037 -0.03611920 0.00048591 0.08627451 0.01960784 0.83137255
v -0.03449595 -0.03532920 0.03949817 0.08627451 0.01960784 0.83137255
v -0.01782568 -0.03611920 0.00050183 0.08627451 0.01960784 0.83137255
v -0.03495282 -0.03526386 0.03949817 0.08627451 0.01960784 0.83137255
v -0.03501126 -0.03489915 0.04000762 0.08627451 0.01960784 0.83137255
v -0.03490501 -0.03524247 0.03990413 0.08627451 0.01960784 0.83137255
v -0.03533000 -0.02398278 0.03949817 0.08627451 0.01960784 0.83137255
v -0.03506438 -0.03429922 0.04006334 0.08627451 0.01960784 0.83137255
v -0.02463085 -0.02398278 0.00049387 0.08627451 0.01960784 0.83137255
v 0.01894137 -0.02467062 0.03949817 0.08627451 0.01960784 0.83137255
v -0.02462023 -0.02398278 0.00102719 0.08627451 0.01960784 0.83137255
v 0.01894137 -0.03489915 -0.00022254 0.08627451 0.01960784 0.83137255
v 0.01711390 -0.03611920 -0.00031408 0.08627451 0.01960784 0.83137255
v -0.03449595 -0.03526386 0.03995588 0.08627451 0.01960784 0.83137255
v -0.01782568 -0.03611920 0.03949817 0.08627451 0.01960784 0.83137255
v -0.01761318 -0.03611920 0.04005538 0.08627451 0.01960784 0.83137255
v -0.01711382 -0.03611920 0.04031408 0.08627451 0.01960784 0.83137255
v -0.01709788 -0.03611920 0.04032204 0.08627451 0.01960784 0.83137255
v -0.03449595 -0.03489915 0.04022254 0.08627451 0.01960784 0.83137255
v -0.03449595 -0.03429922 0.04033000 0.08627451 0.01960784 0.83137255
v -0.03506438 -0.02398278 0.04006334 0.08627451 0.01960784 0.83137255
v 0.01894137 -0.02483575 0.04004742 0.08627451 0.01960784 0.83137255
v -0.02462023 -0.02398278 0.03889719 0.08627451 0.01960784 0.83137255
v -0.02463085 -0.02398278 0.03949817 0.08627451 0.01960784 0.83137255
v -0.02481147 -0.02398278 0.03990413 0.08627451 0.01960784 0.83137255
v -0.02486991 -0.02398278 0.04003150 0.08627451 0.01960784 0.83137255
v -0.02549677 -0.02398278 0.04033000 0.08627451 0.01960784 0.83137255
v 0.01894137 -0.03526623 0.00004412 0.08627451 0.01960784 0.83137255
v 0.01761327 -0.03611920 -0.00005538 0.08627451 0.01960784 0.83137255
v -0.01649758 -0.03611920 0.04033000 0.08627451 0.01960784 0.83137255
v -0.03449595 -0.02398278 0.04033000 0.08627451 0.01960784 0.83137255
v 0.01894137 -0.02526818 0.04029418 0.08627451 0.01960784 0.83137255
v 0.01894137 -0.02590018 0.04033000 0.08627451 0.01960784 0.83137255
v 0.01894137 -0.02530025 0.04031010 0.08627451 0.01960784 0.83137255
v 0.01894137 -0.03527099 0.00007596 0.08627451 0.01960784 0.83137255
v 0.01782576 -0.03611920 0.00050183 0.08627451 0.01960784 0.83137255
v 0.01649767 -0.03611920 0.04033000 0.08627451 0.01960784 0.83137255
v 0.01894137 -0.03429922 0.04033000 0.08627451 0.01960784 0.83137255
v 0.01894137 -0.03533276 0.00050183 0.08627451 0.01960784 0.83137255
v 0.01782576 -0.03611920 0.03949817 0.08627451 0.01960784 0.83137255
v 0.01709797 -0.03611920 0.04032204 0.08627451 0.01960784 0.83137255
v 0.01894137 -0.03489915 0.04022254 0.08627451 0.01960784 0.83137255
v 0.01894137 -0.03533276 0.03949817 0.08627451 0.01960784 0.83137255
v 0.01894137 -0.03526623 0.03995588 0.08627451 0.01960784 0.83137255
v 0.01782045 -0.03611920 0.03951409 0.08627451 0.01960784 0.83137255
v 0.01761327 -0.03611920 0.04005538 0.08627451 0.01960784 0.83137255
v 0.01894137 -0.03524129 0.03997577 0.08627451 0.01960784 0.83137255
f 276 277 278
f 276 278 279
f 276 279 287
f 276 287 280
f 276 280 288
f 276 288 300
f 276 300 301
f 276 301 289
f 276 289 281
f 276 281 282
f 276 282 277
f 277 283 284
f 277 284 278
f 277 282 283
f 278 285 286
f 278 286 279
f 278 284 285
f 279 286 294
f 279 294 287
f 280 287 294
f 280 294 309
f 280 309 323
f 280 323 333
f 280 333 329
f 280 329 328
f 280 328 327
f 280 327 326
f 280 326 325
f 280 325 313
f 280 313 311
f 280 311 296
f 280 296 288
f 281 289 302
f 281 302 315
f 281 315 331
f 281 331 338
f 281 338 342
f 281 342 347
f 281 347 348
f 281 348 343
f 281 343 339
f 281 339 332
f 281 332 320
f 281 320 319
f 281 319 318
f 281 318 317
f 281 317 305
f 281 305 303
f 281 303 290
f 281 290 282
f 282 290 291
f 282 291 283
f 283 291 284
f 284 291 292
f 284 292 285
f 285 292 306
f 285 306 293
f 285 293 295
f 285 295 286
f 286 295 309
f 286 309 294
f 288 296 297
f 288 297 298
f 288 298 299
f 288 299 300
f 289 301 302
f 290 303 291
f 291 304 306
f 291 306 292
f 291 303 305
f 291 305 317
f 291 317 304
f 293 307 295
f 293 306 308
f 293 308 307
f 295 307 310
f 295 310 323
f 295 323 309
f 296 311 297
f 297 312 324
f 297 324 334
f 297 334 336
f 297 336 335
f 297 335 340
f 297 340 344
f 297 344 349
f 297 349 346
f 297 346 345
f 297 345 341
f 297 341 337
f 297 337 330
f 297 330 314
f 297 314 301
f 297 301 300
f 297 300 299
f 297 299 298
f 297 311 313
f 297 313 325
f 297 325 312
f 301 314 302
f 302 314 315
f 304 316 308
f 304 308 306
f 304 317 318
f 304 318 319
f 304 319 320
f 304 320 316
f 307 308 321
f 307 321 322
f 307 322 310
f 308 316 321
f 310 322 333
f 310 333 323
f 312 325 326
f 312 326 327
f 312 327 328
f 312 328 329
f 312 329 324
f 314 330 331
f 314 331 315
f 316 320 321
f 320 332 322
f 320 322 321
f 322 332 339
f 322 339 340
f 322 340 335
f 322 335 329
f 322 329 333
f 324 329 334
f 329 335 336
f 329 336 334
f 330 337 338
f 330 338 331
f 337 341 338
f 338 341 345
f 338 345 342
f 339 343 340
f 340 343 344
f 342 345 346
f 342 346 347
f 343 348 344
f 344 348 349
f 346 349 348
f 346 348 347

