# deformed COACD convex decomposition
o coacd_part_0000
v 0.08574921851 0.02534370386 0.002263987656
v 0.08575114689 0.02534359409 -0.002267807401
v 0.08572446375 0.02534296224 0.003598805154
v 0.09677059301 0.02411004551 0.003600879355
v 0.09412857429 0.02440933551 -1.901105493e-06
v 0.08572739003 0.02534297551 -0.003602551343
v 0.09677679922 0.02410954065 -0.00360472886
v -0.08459751977 0.02523913142 0.003760041999
v 0.101896231 0.02300417521 0.003602346962
v 0.09831327779 0.02384876091 -1.942741991e-06
v -0.08459810234 0.02523907398 -0.003754327685
v 0.101896539 0.02300420842 -0.003606239762
v -0.08462218969 0.02523978723 0.00236967286
v -0.09558546933 0.02400231815 0.003793546008
v 0.1027252502 0.01917239753 0.003602161803
v 0.1023294312 0.02109416386 -1.956888732e-06
v -0.09558410414 0.02400236403 -0.003787527189
v -0.08462253529 0.02523975641 -0.002363973364
v 0.1027255762 0.01917243153 -0.003606079794
v -0.09295361167 0.02430202539 2.877737994e-06
v -0.09711732477 0.02374284644 3.015521424e-06
v -0.100681171 0.02290053614 0.003801329568
v 0.09987945911 0.01700226399 -2.73853321e-06
v 0.09859752166 0.01615395205 0.003600493714
v -0.1006811497 0.02290048047 -0.00379515714
v 0.09860421227 0.01615724756 -0.003604430352
v -0.1011139205 0.02099342567 3.12032091e-06
v -0.1015089479 0.01907441466 0.003804235578
v 0.09643620498 0.01486901963 -2.753255342e-06
v 0.09415692903 0.01372085403 0.003598101556
v -0.1015089014 0.01907450996 -0.003797928057
v 0.09417383338 0.01372764351 -0.003602138055
v -0.09867887004 0.01691357094 2.465588734e-06
v -0.0974067801 0.01607127168 0.0037980936
v 0.08966741193 0.01195357254 0.003594417978
v 0.09286557241 0.01314005204 -2.547552584e-06
v -0.09740527708 0.01607088369 -0.00379158172
v 0.0896601244 0.01195243991 -0.00359788244
v -0.09525414951 0.01478987041 1.941157518e-06
v -0.09300127804 0.01365336251 0.003794617133
v -0.08853535523 0.01189304804 0.00379513681
v -0.09299263078 0.01365051648 -0.003787106226
v -0.08853399816 0.01189304432 -0.003788894624
v -0.09170837917 0.01307033905 1.922267649e-06
f 1 2 6
f 24 29 26
f 23 24 26
f 22 27 28
f 22 25 27
f 21 25 22
f 19 23 26
f 17 20 18
f 17 25 21
f 15 24 23
f 15 19 16
f 15 23 19
f 14 21 22
f 14 17 21
f 14 20 17
f 13 20 14
f 13 18 20
f 12 16 19
f 24 30 29
f 25 31 27
f 26 29 32
f 28 31 33
f 42 43 44
f 41 44 43
f 40 42 44
f 40 44 41
f 39 42 40
f 37 42 39
f 35 43 38
f 35 41 43
f 11 17 18
f 35 38 36
f 34 37 39
f 33 37 34
f 32 36 38
f 31 37 33
f 30 36 32
f 30 35 36
f 29 30 32
f 28 33 34
f 34 39 40
f 9 12 10
f 27 31 28
f 9 15 16
f 3 41 35
f 3 40 41
f 3 34 40
f 3 28 34
f 3 22 28
f 3 8 14
f 2 7 6
f 2 5 7
f 1 5 2
f 1 4 5
f 1 3 4
f 1 8 3
f 1 13 8
f 1 18 13
f 1 11 18
f 1 6 11
f 9 16 12
f 3 35 30
f 3 30 24
f 3 14 22
f 6 17 11
f 8 13 14
f 7 10 12
f 3 24 15
f 6 25 17
f 6 31 25
f 6 37 31
f 6 42 37
f 6 38 43
f 6 32 38
f 6 43 42
f 6 19 26
f 3 15 9
f 6 26 32
f 4 9 10
f 4 10 7
f 3 9 4
f 6 7 12
f 6 12 19
f 4 7 5
o coacd_part_0001
v 0.01820780891 0.06088279917 -0.003642449887
v 0.03531168872 0.06132121233 -0.003633197719
v 0.01821046611 0.06093136128 0.003646876676
v 0.01841174416 0.08638273527 -0.003694263237
v 0.03532222549 0.0613464522 0.003636115965
v 0.03552012154 0.0807568246 -0.003660936555
v 0.01841160458 0.08638515843 0.003699698838
v 0.01840834246 0.08642652359 -0.0004085155398
v 0.03030731387 0.09818035215 -0.003683175806
v 0.03551954953 0.08075751178 0.003666361179
v 0.03454997836 0.09187095561 -0.003679109696
v 0.03445294518 0.09340259069 4.585890733e-06
v 0.03551915509 0.08079431579 -0.001148777121
v 0.03030731422 0.0981803912 0.003689467715
v 0.01840827979 0.08642678368 0.0004141096828
v 0.03215693235 0.09759615934 3.143862712e-06
v 0.03399671695 0.09697859805 -0.003682032042
v 0.03551901361 0.08079463659 0.00115422148
v 0.03454991604 0.09187153839 0.003685384669
v 0.03399670004 0.09697863242 0.003688313817
f 53 58 60
f 50 55 56
f 50 56 57
f 48 52 53
f 51 58 59
f 52 59 58
f 52 58 53
f 53 60 61
f 60 64 61
f 54 56 63
f 55 61 56
f 56 62 57
f 56 61 64
f 56 64 63
f 58 64 60
f 47 58 51
f 54 62 56
f 47 64 58
f 45 47 51
f 47 54 63
f 45 46 49
f 45 49 47
f 47 63 64
f 45 59 52
f 45 52 48
f 45 48 53
f 45 53 61
f 45 51 59
f 45 55 50
f 45 50 46
f 46 50 57
f 46 57 62
f 46 62 54
f 46 54 49
f 47 49 54
f 45 61 55
o coacd_part_0002
v -0.08459071318 0.02523909725 -0.003754310866
v -0.08462314805 0.02523786801 -0.002363924919
v -0.08316763425 0.03002658307 -0.003741221263
v 0.0857200168 0.02534297901 -0.003602548445
v -0.08462280251 0.02523789884 0.002369624981
v -0.08316694213 0.03002661769 0.003745592923
v 0.08429886097 0.03012937707 -0.003605128805
v 0.08575175912 0.02534170631 -0.002267756831
v -0.08459014098 0.02523917225 0.00376002317
v 0.08429679458 0.03012859096 0.003602525187
v 0.08574983053 0.02534181629 0.002263936672
v 0.08571702858 0.02534294861 0.003598802699
f 67 74 71
f 68 71 72
f 69 73 70
f 70 73 76
f 74 76 75
f 71 74 75
f 71 75 72
f 67 70 74
f 70 76 74
f 66 70 67
f 65 68 72
f 65 69 66
f 65 73 69
f 65 76 73
f 65 75 76
f 65 72 75
f 65 71 68
f 65 67 71
f 65 66 67
f 66 69 70
o coacd_part_0003
v 0.06871601085 0.07807858825 0.00363626702
v 0.07158963544 0.07551024979 0.003635852157
v 0.07016462609 0.07680632285 5.59744125e-07
v 0.06871603774 0.07807859716 -0.00363514235
v 0.06532435166 0.0766504308 -1.486453849e-07
v 0.06392989664 0.07595855247 0.003634967025
v 0.0715896521 0.07551029492 -0.003634735914
v 0.07004992038 0.07071201296 0.003634121502
v 0.07057792398 0.07213709734 -1.704699459e-07
v 0.06393011075 0.07595866715 -0.003633832228
v 0.06160855067 0.07463538845 -1.274467957e-07
v 0.0593982801 0.07318147827 0.003634092463
v 0.07005029011 0.07071285074 -0.003633016724
v 0.06792140685 0.0662234795 0.003631257954
v 0.06907117157 0.06845719478 -1.677320176e-07
v 0.05939820671 0.07318145803 -0.003632911452
v 0.05806248418 0.07219186547 -1.106005421e-07
v 0.05512779547 0.06971878344 0.00362502308
v 0.05512823228 0.06971057046 0.00363425393
v 0.06792224 0.06622498026 -0.003630216841
v 0.06585213869 0.06302115322 0.003626667967
v 0.06723925153 0.06504906374 -9.584164324e-07
v 0.05512703127 0.06970994571 -0.003632976912
v 0.05512659049 0.06971815604 -0.003623746136
v 0.05514165451 0.062110392 0.00362742801
v 0.06585231595 0.06302163497 -0.003625821941
v 0.06587857051 0.06302874096 0.002677504439
v 0.0658785808 0.06302890406 -0.002677350218
v 0.05515028044 0.06211535484 -0.003626452516
f 90 98 96
f 90 97 98
f 90 96 91
f 89 91 96
f 88 94 95
f 87 92 88
f 88 92 93
f 92 99 100
f 86 92 87
f 84 91 89
f 88 93 94
f 92 100 93
f 94 105 101
f 94 100 99
f 94 99 105
f 84 90 91
f 94 101 95
f 96 98 102
f 97 103 98
f 97 105 102
f 97 102 104
f 97 104 103
f 98 103 104
f 98 104 102
f 93 100 94
f 84 89 85
f 97 101 105
f 82 87 88
f 77 78 79
f 77 79 80
f 77 80 81
f 77 81 82
f 77 82 88
f 77 88 95
f 77 101 97
f 77 97 90
f 77 90 84
f 77 84 78
f 78 83 79
f 78 84 85
f 77 95 101
f 79 83 80
f 78 85 83
f 82 86 87
f 81 86 82
f 80 86 81
f 80 92 86
f 80 99 92
f 83 85 89
f 80 102 105
f 80 96 102
f 80 89 96
f 80 83 89
f 80 105 99
o coacd_part_0004
v 0.004631466667 -0.006454166667 -0.0025006
v 0.0048932 -0.0059226 -0.001399966667
v 0.007308933333 -0.003427033333 -0.0025006
v 0.08842991047 -0.01124469599 -0.003591262298
v 0.0048931 -0.0059227 0.001373233333
v 0.0073566 -0.0034224 0.0024994
v 0.0889710908 -0.006472082621 -0.003592243869
v 0.08897916183 -0.006472109142 -0.003582409451
v 0.08868583283 -0.009410468532 -1.054026438e-06
v 0.08844774412 -0.01124363398 -0.002236003141
v 0.004666233333 -0.006484566667 0.0024994
v 0.08896996976 -0.006472878489 0.003590109553
v 0.08897795372 -0.006472903768 0.003580275167
v 0.08844856269 -0.01124367259 0.002233901804
v 0.08843076071 -0.01124489641 0.003589158043
f 108 118 113
f 108 113 112
f 109 112 113
f 109 113 114
f 109 114 115
f 110 116 111
f 113 118 114
f 111 120 117
f 114 119 115
f 114 118 120
f 114 120 119
f 111 116 120
f 117 120 118
f 108 117 118
f 107 111 108
f 108 111 117
f 106 108 112
f 106 112 109
f 106 109 115
f 106 115 119
f 106 107 108
f 106 120 116
f 106 116 110
f 106 110 107
f 107 110 111
f 106 119 120
o coacd_part_0005
v -0.01444536789 -0.007221661823 -0.003213064674
v -0.004802733333 -0.0058469 -0.0025006
v -0.01567308819 -0.007740965324 0.003488085247
v -0.01214428287 0.003848384597 -0.00277829403
v -0.004964933333 -0.005273833333 -0.0013973
v -0.0066313 0.003441633333 -0.0025006
v -0.0047753 -0.005822033333 0.0024994
v -0.01198474974 0.003612542886 0.002827824959
v -0.004966 -0.0052727 0.0002601333333
v -0.006673933333 0.0034893 0.0024994
v -0.004963833333 -0.005275 0.001375366667
f 129 130 131
f 127 131 130
f 126 130 129
f 125 126 129
f 124 130 126
f 124 128 130
f 123 130 128
f 123 127 130
f 122 126 125
f 121 124 126
f 121 128 124
f 121 123 128
f 121 127 123
f 121 131 127
f 121 129 131
f 121 125 129
f 121 122 125
f 121 126 122
o coacd_part_0006
v -0.08911452626 0.006060814476 -0.003810306208
v -0.08912783776 0.006051647642 -0.003738132489
v -0.08852933976 0.01189251281 -0.003788879162
v -0.0066313 0.003441633333 -0.0025006
v -0.08913771253 0.006048355146 0.003742885409
v -0.08911375687 0.008474394491 2.791825277e-06
v -0.08853060349 0.01189249779 0.003795120193
v -0.0029787 0.006735766667 -0.0022251
v -0.006673933333 0.0034893 0.0024994
v -0.08912435076 0.006057458783 0.003815055699
v -0.0029787 0.006735766667 0.002217633333
f 134 142 139
f 135 139 142
f 135 142 140
f 138 140 142
f 136 138 137
f 138 141 140
f 134 138 142
f 136 141 138
f 134 137 138
f 132 141 136
f 133 136 137
f 132 136 133
f 133 137 134
f 132 140 141
f 132 135 140
f 132 139 135
f 132 134 139
f 132 133 134
o coacd_part_0007
v -0.03410495011 0.06124755646 -0.003684228303
v -0.01697673028 0.06086866699 -0.003673209858
v -0.03410986859 0.06122878613 0.003685204593
v -0.03429969212 0.0807630341 -0.003716489222
v -0.01698949757 0.06084714387 0.003673641864
v -0.01716807394 0.08645027964 -0.003761879822
v -0.03430038419 0.08076413317 0.003719383211
v -0.03430010867 0.0807958341 -0.001503407698
v -0.03345638107 0.0935486549 -0.003743084387
v -0.01716662641 0.08645122472 0.003761708938
v -0.02933497178 0.09808560026 -0.00374857627
v -0.01716513807 0.08648876542 -0.0008325729938
v -0.0334602162 0.09353869102 0.003745052836
v -0.0343001078 0.08079622551 0.00150637432
v -0.03301317778 0.09688768844 -0.003747064889
v -0.01716462912 0.08648917712 0.0008324260626
v -0.02933533667 0.09808559891 0.00375084558
v -0.03118005299 0.09750282463 7.942672339e-05
v -0.03301554267 0.0968863407 0.003749956031
f 145 155 149
f 146 150 151
f 149 155 156
f 150 156 155
f 150 155 151
f 151 155 161
f 151 161 157
f 153 159 158
f 153 157 160
f 153 160 159
f 145 161 155
f 153 158 154
f 157 161 160
f 159 160 161
f 152 158 159
f 145 159 161
f 148 153 154
f 145 147 152
f 145 152 159
f 143 144 147
f 143 147 145
f 143 145 149
f 143 149 156
f 143 150 146
f 143 146 151
f 143 151 157
f 143 156 150
f 143 153 148
f 143 148 144
f 144 148 154
f 144 154 158
f 144 158 152
f 144 152 147
f 143 157 153
o coacd_part_0008
v -0.01697673656 0.06086909269 -0.00367321098
v 0.0006489690732 0.06073583566 -0.003657708431
v -0.01698950384 0.06084757087 0.003673643072
v -0.01716807414 0.08644982622 -0.003761877498
v 0.0006286062952 0.06074072539 0.003658672047
v 0.0006049210867 0.08934881687 -0.003744821377
v -0.01716662645 0.08645077022 0.003761706872
v -0.01716513807 0.08648876542 -0.0008325729938
v -0.0131715149 0.09903517994 8.831413035e-06
v -0.01358079284 0.0975957853 -0.003812290199
v 0.0006032589059 0.08934404997 0.003745309459
v -0.008228864348 0.1027326375 -0.00383590993
v 0.0006009228725 0.08956475046 -0.0002521920969
v -0.01357070868 0.0976273835 0.003823687788
v -0.01716462912 0.08648917712 0.0008324260626
v -0.01201034066 0.1023248344 0.003849382728
v -0.01201464232 0.1023215458 -0.003836803661
v 0.000600820013 0.08956448548 0.0002522516646
v -0.008233402065 0.1027350587 0.003848901273
v -0.01012381243 0.1025462634 7.214250333e-05
f 170 175 177
f 165 169 170
f 165 170 171
f 167 173 174
f 168 175 170
f 168 170 176
f 169 176 170
f 170 177 178
f 177 181 178
f 172 179 180
f 173 178 181
f 173 181 180
f 173 180 179
f 173 179 174
f 177 180 181
f 164 175 168
f 170 178 171
f 164 177 175
f 162 178 173
f 164 172 180
f 164 180 177
f 162 163 166
f 162 166 164
f 162 164 168
f 162 176 169
f 162 169 165
f 162 165 171
f 162 171 178
f 162 168 176
f 162 173 167
f 162 167 163
f 163 167 174
f 163 174 179
f 163 179 172
f 163 172 166
f 164 166 172
o coacd_part_0009
v 0.02146961335 -0.08570780961 -0.003619496545
v 0.02383437584 -0.09019331525 -0.003619505057
v 0.02308605304 -0.08888565526 -6.189065151e-06
v 0.02146830982 -0.08570459423 0.003609762182
v 0.02075574913 -0.04423998786 -0.00356583539
v 0.02672742294 -0.09438514177 -0.003620445091
v 0.02521263758 -0.09233854409 -5.432006863e-06
v 0.02383310073 -0.09019076474 0.003610075937
v 0.02072650784 -0.04419387964 0.003557923874
v 0.03374227606 -0.04493039769 -0.003572033456
v 0.03014794029 -0.09816076342 -0.003621754247
v 0.02769893334 -0.09555896326 -5.391858249e-06
v 0.02672691004 -0.09438424724 0.003611148376
v 0.0337218555 -0.04490300062 0.00356496834
v 0.03444351891 -0.0811707443 -0.003611344522
v 0.03014794583 -0.09816071672 0.003612484942
v 0.03381693642 -0.09696655712 -0.003621391923
v 0.03198807268 -0.0975789486 -7.9811303e-05
v 0.03444362015 -0.08117033478 0.003602624107
v 0.03444302763 -0.08118982625 -0.002293417415
v 0.0343884775 -0.08929522415 -5.274865333e-06
v 0.03436775677 -0.09187146835 -0.003619741904
v 0.03381692305 -0.09696654749 0.003612143878
v 0.03427082727 -0.09339660304 -5.326404786e-06
v 0.03436772894 -0.09187083793 0.003610523084
v 0.03444301969 -0.08118952205 0.002284692948
f 192 198 199
f 192 197 193
f 191 201 196
f 191 207 201
f 191 195 200
f 187 194 188
f 188 194 189
f 192 199 197
f 191 200 207
f 193 197 194
f 201 207 202
f 196 202 203
f 197 199 204
f 198 205 204
f 198 204 199
f 204 205 206
f 200 206 202
f 200 202 207
f 202 206 203
f 203 206 205
f 187 193 194
f 196 201 202
f 187 192 193
f 198 203 205
f 186 190 195
f 186 195 191
f 182 183 184
f 182 184 185
f 182 185 190
f 182 190 186
f 182 186 191
f 182 191 196
f 182 203 198
f 182 198 192
f 182 192 187
f 182 187 183
f 182 196 203
f 183 188 189
f 185 195 190
f 183 187 188
f 185 206 200
f 185 204 206
f 185 197 204
f 185 200 195
f 185 189 194
f 184 189 185
f 183 189 184
f 185 194 197
o coacd_part_0010
v 0.003646166667 0.006735766667 -0.002225166667
v 0.007289433333 0.003478633333 -0.0025006
v 0.003745733333 0.0069946 0.0024994
v 0.08965546428 0.01195189002 -0.003597879941
v 0.007309 0.003464633333 0.0024994
v 0.09025531825 0.006123054844 -0.003595840597
v 0.08966274333 0.01195302191 0.003594415603
v 0.09024324855 0.008525450099 -1.639283427e-06
v 0.09026855845 0.006113735942 -0.00352757874
v 0.09025381065 0.00612403734 0.003592055022
v 0.09026701014 0.006114699615 0.003523799439
f 210 212 217
f 215 218 216
f 214 218 215
f 214 217 218
f 211 216 213
f 211 215 216
f 211 214 215
f 210 217 214
f 209 217 212
f 208 211 213
f 209 216 218
f 209 213 216
f 208 213 209
f 208 214 211
f 208 210 214
f 208 212 210
f 208 209 212
f 209 218 217
o coacd_part_0011
v 0.0006489690732 0.06073583566 -0.003657708431
v 0.01820615912 0.06088319977 -0.003642452213
v 0.0006286062952 0.06074072539 0.003658672047
v 0.0006049210867 0.08934881687 -0.003744821377
v 0.01820881192 0.06093175767 0.003646878701
v 0.01841004885 0.08638262823 -0.003694268125
v 0.0006032589059 0.08934404997 0.003745309459
v 0.0006009228725 0.08956475046 -0.0002521920969
v 0.009083932528 0.10292117 -0.003742113426
v 0.01840990848 0.08638505457 0.003699703128
v 0.01292359544 0.1025041385 -0.003739401256
v 0.01412765068 0.09905465843 8.412827844e-07
v 0.01840730742 0.08642675039 -0.0004085461565
v 0.009084004421 0.1029212174 0.003743415189
v 0.000600820013 0.08956448548 0.0002522516646
v 0.0110034773 0.1027305674 7.887463559e-05
v 0.01840724457 0.08642701047 0.0004141398959
v 0.01292355199 0.1025040751 0.003740866992
f 222 226 227
f 224 229 230
f 224 230 231
f 225 232 233
f 226 233 232
f 226 232 227
f 228 230 236
f 227 234 229
f 232 236 234
f 229 234 236
f 229 236 230
f 230 235 231
f 221 232 225
f 227 232 234
f 221 236 232
f 228 235 230
f 221 223 228
f 219 220 223
f 219 223 221
f 219 221 225
f 219 225 233
f 219 233 226
f 219 226 222
f 219 222 227
f 221 228 236
f 219 229 224
f 219 224 220
f 220 224 231
f 220 231 235
f 220 235 228
f 220 228 223
f 219 227 229
o coacd_part_0012
v -0.08456068141 0.05941693563 -0.003715534108
v -0.08456071295 0.0594169837 0.003719515894
v -0.08343312223 0.06100560562 1.992703129e-06
v -0.08227894139 0.06257271322 -0.003715080137
v -0.08196473205 0.05488997283 -0.003714134469
v -0.08279505669 0.05620111045 1.999796242e-06
v -0.08227898708 0.06257274479 0.003719066301
v -0.08196533339 0.05489081223 0.003718114303
v -0.07878843762 0.06191555184 1.256814379e-06
v -0.07731002449 0.06153764063 -0.003713319579
v -0.07585375874 0.04521480266 -0.003716867156
v -0.07588683834 0.04521426019 -0.001385224927
v -0.07588700081 0.04521446569 0.001389795949
v -0.07731126182 0.06153810935 0.003717310854
v -0.07585393275 0.04521533815 0.003721426641
v -0.0749260994 0.06079141221 5.300493936e-07
v -0.07256684375 0.05987662201 -0.00371058038
v -0.06742495023 0.04516589464 -0.003705085931
v -0.07257057336 0.05987838643 0.003714584881
v -0.06741979197 0.04514446346 0.003709101962
v -0.07126468544 0.05929662173 4.776336307e-07
v -0.06826202309 0.05770802301 -0.003694835416
v -0.06826213972 0.05769862793 -0.00370500006
v -0.06826259923 0.05770819136 0.003698609923
v -0.06826270541 0.05769878257 0.003708775125
f 247 251 249
f 247 256 251
f 247 254 256
f 245 250 246
f 246 250 252
f 247 249 248
f 244 249 251
f 243 250 245
f 246 252 253
f 250 255 252
f 253 257 258
f 253 255 257
f 253 258 259
f 254 259 258
f 254 258 260
f 254 260 261
f 242 249 244
f 255 260 257
f 255 261 260
f 257 260 258
f 252 255 253
f 254 261 256
f 242 248 249
f 241 247 248
f 237 238 239
f 241 248 242
f 237 240 246
f 237 246 253
f 237 253 259
f 237 259 254
f 237 254 247
f 237 247 241
f 237 241 242
f 237 242 238
f 237 239 240
f 238 242 244
f 238 243 239
f 240 243 245
f 239 243 240
f 238 250 243
f 240 245 246
f 238 261 255
f 238 256 261
f 238 251 256
f 238 244 251
f 238 255 250
o coacd_part_0013
v -0.03536188168 -0.08032507861 -0.0001272686469
v -0.03536182777 -0.08032504776 0.0001188572148
v -0.03536297568 -0.08027595401 -0.003681381602
v -0.03288471329 -0.09687644098 -0.003724354058
v -0.0353622175 -0.08027497893 0.003673063517
v -0.03288774338 -0.09687453428 0.003720769706
v -0.03243182808 0.005726304523 -0.003579665233
v -0.02925881801 -0.09805895885 -0.003723920047
v -0.03106354984 -0.09748891392 -2.445736604e-06
v -0.03232022183 0.005698960662 0.003573584953
v -0.0292586514 -0.09805869631 0.003717872798
v -0.01214742934 0.003849141346 -0.002778757751
v -0.02585572548 -0.09430435198 -0.00370823102
v -0.02681970007 -0.09546946372 -3.405807904e-06
v -0.01198474974 0.003612542886 0.002827824959
v -0.02585271688 -0.09430076165 0.003700867965
v -0.01969928425 -0.08591606217 -0.003677271689
v -0.02434537523 -0.09226851368 -3.566812682e-06
v -0.01969908185 -0.08591615081 0.003671252934
v -0.01969987957 -0.08593286588 -0.002414539937
v -0.01969963955 -0.08593307259 0.00240851347
f 273 280 282
f 268 271 276
f 268 276 273
f 269 272 270
f 269 274 275
f 272 275 277
f 273 276 280
f 273 282 281
f 277 279 280
f 274 279 277
f 274 277 275
f 274 278 279
f 278 281 279
f 279 281 282
f 279 282 280
f 267 270 272
f 273 281 278
f 266 276 271
f 269 275 272
f 266 277 280
f 262 263 266
f 262 266 271
f 262 271 268
f 262 264 265
f 262 265 267
f 262 267 263
f 263 267 266
f 264 268 273
f 262 268 264
f 264 278 274
f 264 274 269
f 266 280 276
f 264 269 265
f 265 269 270
f 265 270 267
f 266 267 272
f 266 272 277
f 264 273 278
o coacd_part_0014
v 0.09026700951 0.006114761412 0.003523799445
v 0.09492357001 0.005325448714 0.00359384107
v 0.09358003107 0.005605173016 -1.882515761e-06
v 0.09026855782 0.006113797739 -0.003527578734
v 0.09025183459 0.006124038413 0.003592054122
v 0.09969296416 0.003906668542 0.003595372514
v 0.09735703293 0.004688201826 -1.932864657e-06
v 0.09493785285 0.005322437232 -0.003597735197
v 0.09025334539 0.006123056225 -0.003595839632
v 0.007047066667 0.003338533333 0.0022169
v 0.1042780054 0.001845901856 0.003596805678
v 0.1011035197 0.003348646226 -1.91885127e-06
v 0.09970018675 0.003904555193 -0.003599171661
v 0.007047533333 0.003337566667 -0.002225533333
v 0.0073566 -0.0034224 0.0024994
v 0.1042646897 -0.001977583789 0.003596680962
v 0.1042960445 -6.540640482e-05 7.292300829e-05
v 0.1042783037 0.001845889571 -0.003600580179
v 0.007308933333 -0.003427033333 -0.0025006
v 0.08897286022 -0.006472433647 0.003590111186
v 0.09950310298 -0.004108090705 0.003595181598
v 0.1009480626 -0.003538150745 -1.118119814e-06
v 0.1042650811 -0.001977502964 -0.003600418984
v 0.08897401283 -0.006471637745 -0.003592245501
v 0.09279419505 -0.005938749318 -7.042042791e-07
v 0.0944090744 -0.005612758341 0.003593108942
v 0.0969709155 -0.004945410912 -9.99443469e-07
v 0.09950979506 -0.004106081556 -0.003598856115
v 0.09442326099 -0.005609680772 -0.003596479245
f 297 306 302
f 297 301 306
f 294 300 295
f 293 300 294
f 293 299 300
f 290 296 291
f 292 301 297
f 292 296 301
f 290 306 301
f 298 303 304
f 293 298 299
f 298 304 305
f 306 311 307
f 299 305 300
f 302 306 307
f 302 307 308
f 303 309 310
f 303 310 304
f 303 308 309
f 304 310 305
f 290 311 306
f 307 311 308
f 308 311 309
f 309 311 310
f 298 305 299
f 290 310 311
f 290 301 296
f 290 300 305
f 290 305 310
f 283 285 286
f 283 286 291
f 283 291 296
f 283 296 292
f 283 292 287
f 283 287 284
f 284 288 289
f 284 289 290
f 284 290 285
f 284 287 292
f 284 292 297
f 284 297 302
f 283 284 285
f 284 308 303
f 284 302 308
f 289 295 290
f 288 295 289
f 288 294 295
f 288 293 294
f 290 295 300
f 285 290 286
f 284 293 288
f 284 298 293
f 284 303 298
f 286 290 291
o coacd_part_0015
v -0.06762498785 0.07790658173 0.003709230319
v -0.06762472583 0.07790636524 -0.003705670704
v -0.06907068114 0.07663697711 1.785587884e-06
v -0.07049367395 0.07534233959 0.003709307584
v -0.06285986534 0.07579710076 0.003707784736
v -0.06424742251 0.07648547809 1.79562459e-06
v -0.07049344798 0.0753420177 -0.003705744298
v -0.06285407527 0.07579355928 -0.003704241482
v -0.06948303621 0.07197185632 1.798188739e-06
v -0.06895691038 0.07055387596 0.003707879145
v -0.06054676613 0.07447950699 1.79482309e-06
v -0.05835098002 0.07303560661 0.003705927054
v -0.06895301281 0.07054587413 -0.003704323056
v -0.05834204314 0.07302902067 -0.003702441971
v -0.06797558617 0.06829122015 1.769304888e-06
v -0.06683225139 0.06606947692 0.003706285726
v -0.05410776973 0.06959681375 0.003703749257
v -0.05410834506 0.06959764167 0.003689235765
v -0.05701962605 0.07205041539 1.866982478e-06
v -0.06682189536 0.06605228996 -0.00370273407
v -0.05410710005 0.0695966894 -0.003685084704
v -0.05410650017 0.06959584334 -0.003699598262
v -0.06613480832 0.06486856025 1.538136607e-06
v -0.06473643805 0.06282557866 0.00370462627
v -0.05417149496 0.06203413388 0.003698346128
v -0.06473913589 0.06282947538 -0.003701928664
v -0.05411602454 0.06198424795 -0.003695498216
v -0.06476566255 0.0628369995 -0.002733171524
v -0.06476150923 0.06283064683 0.002735828755
f 326 331 327
f 325 332 333
f 325 330 332
f 324 331 326
f 323 329 330
f 323 328 329
f 322 323 325
f 321 326 327
f 327 331 334
f 321 324 326
f 323 330 325
f 327 334 335
f 331 337 334
f 328 338 333
f 328 333 332
f 328 332 329
f 329 332 330
f 334 339 340
f 334 340 335
f 334 337 339
f 335 340 339
f 335 339 337
f 335 337 338
f 335 338 336
f 320 324 321
f 328 336 338
f 319 322 325
f 312 313 314
f 316 323 322
f 312 314 315
f 318 324 320
f 312 321 327
f 312 327 335
f 312 335 336
f 312 336 328
f 312 328 323
f 312 323 316
f 312 316 317
f 312 317 313
f 313 318 314
f 313 317 319
f 312 315 321
f 313 325 333
f 313 319 325
f 316 322 319
f 315 320 321
f 315 318 320
f 314 318 315
f 316 319 317
f 313 331 324
f 313 337 331
f 313 338 337
f 313 333 338
f 313 324 318
o coacd_part_0016
v -0.05287453171 -0.06130915161 0.00366677279
v -0.05285863488 -0.0703909899 0.003671499563
v -0.05281808578 -0.06124787078 -0.003673986284
v -0.06398632496 -0.06224119333 0.003676013019
v -0.05285872002 -0.07041297794 0.002151491625
v -0.06256677565 -0.07587127864 0.003677724766
v -0.05285790756 -0.07038955757 -0.003678290968
v -0.06399102216 -0.0622482254 -0.003685264694
v -0.06582403403 -0.06499832914 -4.307371091e-06
v -0.06651588318 -0.06618944205 0.003676733206
v -0.05285857195 -0.07041249158 -0.002158194902
v -0.06731083281 -0.07797221364 0.003679404313
v -0.06394868949 -0.07655717632 -4.008363777e-06
v -0.06256183925 -0.07586826955 -0.003685795204
v -0.06650577698 -0.06617256453 -0.003684807825
v -0.06765533889 -0.06840198221 -4.052480265e-06
v -0.06863274704 -0.07065324464 0.003678084827
v -0.07016170516 -0.07542118106 0.003679606723
v -0.06874900251 -0.07670873152 7.254809695e-05
v -0.0673106381 -0.07797205113 -0.003687472781
v -0.06862911225 -0.07064573786 -0.003686158423
v -0.0691566118 -0.07206612298 -4.020017491e-06
v -0.07016147722 -0.07542082084 -0.003687676326
f 352 358 359
f 346 352 353
f 346 353 354
f 347 351 354
f 348 355 349
f 349 355 350
f 350 355 356
f 350 356 357
f 352 359 360
f 357 362 358
f 353 360 354
f 355 361 356
f 356 361 357
f 357 361 362
f 358 363 359
f 358 362 363
f 359 363 360
f 361 363 362
f 345 354 351
f 352 360 353
f 345 346 354
f 341 342 345
f 344 348 349
f 344 349 350
f 341 345 351
f 341 351 347
f 341 347 343
f 341 343 348
f 341 344 350
f 341 350 357
f 341 357 358
f 341 358 352
f 341 348 344
f 341 346 342
f 342 346 345
f 343 347 354
f 343 354 360
f 343 360 363
f 343 363 361
f 343 361 355
f 343 355 348
f 341 352 346
o coacd_part_0017
v -0.03427539682 0.07262980308 0.003705837567
v -0.03411151263 0.06122629884 0.003685200814
v -0.03426412876 0.07262644325 -0.003703921916
v -0.04926400283 0.07303674567 0.003705798949
v -0.0341065936 0.06124506876 -0.003684224766
v -0.05417149226 0.06203369202 0.003698345819
v -0.04926469385 0.07303783791 -0.003701946363
v -0.04926611674 0.07303697631 0.003665201804
v -0.05410763641 0.06959653949 0.003703751603
v -0.05411601931 0.06198380465 -0.003695497983
v -0.05410636591 0.06959556805 -0.003699600586
v -0.04926681719 0.07303807545 -0.003661348928
v -0.05169597574 0.07135608533 2.0046704e-06
f 367 371 372
f 369 372 374
f 369 374 373
f 370 374 375
f 374 376 375
f 371 376 372
f 372 376 374
f 366 373 374
f 371 375 376
f 366 368 373
f 366 374 370
f 365 369 373
f 364 369 365
f 364 372 369
f 364 367 372
f 364 371 367
f 364 375 371
f 364 370 375
f 364 366 370
f 364 368 366
f 364 365 368
f 365 373 368
o coacd_part_0018
v -0.08923520872 0.0059882382 0.003700255438
v -0.08922544628 0.00599149324 -0.003695658343
v -0.09236835735 0.00554735892 -7.129093218e-07
v -0.08923392692 0.005986178953 0.003816152627
v -0.08922439764 0.00598943683 -0.003811569346
v -0.09369920718 0.005268261658 -0.003859372249
v -0.09368431089 0.005269556858 0.003856819396
v -0.08789297379 -0.006345511127 0.00381113453
v -0.08789340058 -0.006345871546 -0.003819486863
v -0.0983743463 0.003866292697 -0.003900163834
v -0.09608194178 0.004637502829 -2.440463322e-06
v -0.09837729449 0.003862844404 0.003896647874
v -0.0915539784 -0.005841423161 -1.714589353e-06
v -0.08789275881 -0.00634801603 0.00369520317
v -0.09316775716 -0.005513310093 0.003858122321
v -0.08789317078 -0.006348343924 -0.00370358012
v -0.09316804138 -0.005514741708 -0.003858218474
v -0.1029018044 0.001825803957 -0.003936931675
v -0.0997724721 0.003310690902 -4.272023297e-06
v -0.1029056112 0.001823485248 0.003925088117
v -0.09819628523 -0.004017681456 0.003894476428
v -0.0956919806 -0.004851344918 1.062461279e-07
v -0.09819030368 -0.004022040886 -0.00389361527
v -0.1029103253 -5.232291676e-05 -0.003936148522
v -0.1029149663 -7.26730891e-05 0.003932595375
v -0.1028878471 -0.001912027183 0.003934433507
v -0.09961832544 -0.003456118664 1.850696541e-06
v -0.1028818604 -0.001918901086 -0.003926022461
f 389 392 390
f 388 395 396
f 386 395 388
f 386 394 395
f 384 389 390
f 385 389 393
f 385 392 389
f 384 391 389
f 389 391 393
f 383 387 388
f 386 388 387
f 391 397 398
f 394 401 396
f 391 398 393
f 393 398 399
f 394 400 401
f 394 396 395
f 397 399 398
f 397 402 403
f 397 403 399
f 399 403 404
f 400 404 402
f 400 402 401
f 382 387 383
f 402 404 403
f 382 386 387
f 379 383 380
f 381 394 386
f 377 378 379
f 377 379 380
f 377 380 384
f 377 384 390
f 377 390 392
f 381 386 382
f 377 385 381
f 377 381 378
f 378 381 379
f 379 381 382
f 379 382 383
f 377 392 385
f 380 388 396
f 380 383 388
f 381 400 394
f 381 404 400
f 381 393 399
f 381 385 393
f 381 399 404
f 380 397 391
f 380 402 397
f 380 401 402
f 380 396 401
f 380 391 384
o coacd_part_0019
v 0.07815239442 -0.02911527713 0.003585172801
v 0.07838615803 -0.04201950404 0.003587864387
v 0.07811514848 -0.02909971761 -0.003587150985
v 0.0003674432842 -0.02487474918 0.003499832657
v 0.07839235389 -0.04202667309 0.003440345173
v 0.075810265 -0.04655563913 0.003588215922
v 0.07582521835 -0.04655592212 0.002784227275
v 0.07700458427 -0.04455041107 -1.756382796e-06
v 0.07838597913 -0.04202013811 -0.003591280259
v 0.000453472993 -0.02488950178 -0.003505056666
v 0.000431264116 -0.04361309492 0.003561728517
v 0.0783922548 -0.04202738194 -0.003443755406
v 0.07582332077 -0.04655299877 -0.002788046704
v 0.07580806476 -0.04655236298 -0.003592068219
v 0.0004404743755 -0.04362623309 -0.003568685821
f 409 412 416
f 408 414 419
f 408 419 415
f 413 417 418
f 410 415 419
f 412 413 416
f 410 418 417
f 410 417 411
f 411 417 412
f 412 417 413
f 407 419 414
f 410 419 418
f 407 418 419
f 405 410 406
f 406 412 409
f 407 413 418
f 405 409 416
f 405 416 413
f 405 413 407
f 405 407 414
f 405 406 409
f 405 408 415
f 405 415 410
f 406 410 411
f 406 411 412
f 405 414 408
o coacd_part_0020
v 0.06803617206 -0.04648887613 0.003584496666
v 0.06882086919 -0.05796420411 0.003588586231
v 0.06800168377 -0.04645964611 -0.003588964011
v 0.03372515771 -0.04490317378 0.003564969998
v 0.06534183989 -0.06295948091 0.00359026479
v 0.06536422854 -0.06296583055 0.002722351771
v 0.06882244454 -0.05796532264 -0.003594360725
v 0.03374557371 -0.04493056572 -0.003572034916
v 0.03423083637 -0.06128325754 0.003585220478
v 0.06536446642 -0.06296633729 -0.002729190076
v 0.06534282562 -0.06296123888 -0.00359711859
v 0.03425325848 -0.06130948563 -0.003593049525
f 422 431 427
f 426 429 430
f 424 429 425
f 424 430 429
f 424 431 430
f 424 428 431
f 423 431 428
f 423 427 431
f 422 426 430
f 422 430 431
f 421 425 429
f 421 424 425
f 420 424 421
f 420 428 424
f 420 423 428
f 420 427 423
f 420 422 427
f 420 426 422
f 420 421 426
f 421 429 426
o coacd_part_0021
v -0.05112896056 0.006012349339 0.00365906329
v -0.05111020702 -0.01045484976 0.003655733532
v -0.0512139776 0.006045249544 -0.003663677215
v -0.08913230983 0.006057452942 0.003815086336
v -0.05115453637 -0.01042190917 -0.003661531073
v -0.08726639934 -0.01082784298 0.00378825217
v -0.08912232948 0.006060778146 -0.003810335169
v -0.08923205863 0.00598868234 0.003700257706
v -0.08923061846 0.005984927795 0.003816126238
v -0.08726777427 -0.01082779727 -0.003794938607
v -0.08788944507 -0.006344399825 0.003811103867
v -0.08728968045 -0.01082591377 0.001935437336
v -0.08922113599 0.005988187109 -0.00381153852
v -0.0892222962 0.005991937381 -0.003695656075
v -0.0872905347 -0.01082582731 -0.001942167762
v -0.08788990302 -0.006344755112 -0.003819461551
v -0.08788907472 -0.006348525817 0.00369520068
v -0.08788948669 -0.00634885371 -0.00370358261
f 435 439 440
f 437 442 443
f 438 444 445
f 439 445 444
f 439 444 447
f 439 447 449
f 443 448 449
f 439 448 442
f 439 442 440
f 442 448 443
f 443 449 446
f 446 449 447
f 435 445 439
f 439 449 448
f 435 438 445
f 441 446 447
f 434 447 444
f 432 433 436
f 432 436 434
f 432 434 438
f 432 438 435
f 432 435 440
f 432 440 442
f 432 442 437
f 434 444 438
f 433 437 443
f 433 443 446
f 433 446 441
f 433 441 436
f 434 436 441
f 434 441 447
f 432 437 433
o coacd_part_0022
v 0.08568869428 -0.01122374067 0.003587722051
v 0.08536258723 -0.02461070867 0.003588192613
v 0.0856671899 -0.01122472031 -0.003589809898
v 0.004666233333 -0.006484566667 0.0024994
v 0.0837875476 -0.02916584335 0.003588217889
v 0.08380750607 -0.02916672576 0.002154209696
v 0.08536252287 -0.02461277718 0.003503834702
v 0.08536081544 -0.02461045338 -0.003590035404
v 0.004631466667 -0.006454166667 -0.0025006
v 0.0048931 -0.0059227 0.001373233333
v 0.0003338 -0.007470433333 0.0013741
v 0.000827 -0.007720066667 0.0024994
v 0.0003680477122 -0.02487282255 0.003499824537
v 0.08380588876 -0.02916582014 -0.002155587985
v 0.08438902826 -0.02746700146 -7.067595296e-07
v 0.08536080013 -0.02461252883 -0.003505677882
v 0.08378502699 -0.02916458048 -0.003589670374
v 0.0008184333333 -0.007713933333 -0.0025006
v 0.0003338 -0.007470433333 -0.001398666667
v 0.0048932 -0.0059226 -0.001399966667
v 0.000454071524 -0.0248876239 -0.003505049706
f 454 470 466
f 454 466 463
f 454 463 455
f 455 463 464
f 455 464 456
f 456 464 465
f 457 465 463
f 457 463 466
f 459 469 468
f 458 468 469
f 459 468 460
f 460 468 467
f 460 467 470
f 460 470 462
f 454 462 470
f 463 465 464
f 458 467 468
f 460 462 461
f 453 460 461
f 452 467 458
f 453 459 460
f 450 456 465
f 450 465 457
f 450 457 452
f 450 452 458
f 450 458 469
f 450 469 459
f 450 459 453
f 450 451 456
f 450 461 462
f 450 462 454
f 450 454 451
f 451 454 455
f 451 455 456
f 452 457 466
f 452 466 470
f 452 470 467
f 450 453 461
o coacd_part_0023
v 0.06587771414 0.06302746297 0.002677481104
v 0.06587773932 0.06302765471 -0.002677350252
v 0.06584674411 0.06301959328 0.003626664859
v 0.06940346199 0.05790671964 0.003582910414
v 0.0658469173 0.06302006809 -0.003625818988
v 0.06939716895 0.05790241107 -0.003581655792
v 0.06940275828 0.05790584826 0.003620406806
v -0.06473341461 0.06282413532 0.003704624697
v 0.0693965099 0.05790155406 -0.003619153515
v -0.06473607539 0.06282799421 -0.003701927449
v 0.06848945568 0.04525397131 0.003609784511
v -0.06475745263 0.06282462632 0.002735805255
v -0.06825087012 0.05770946929 0.003698608571
v -0.06824978622 0.05770271954 0.003708761621
v 0.06853643996 0.04529872599 -0.003609815977
v -0.06824919795 0.05770254616 -0.003704987542
v -0.06825029397 0.05770930094 -0.003694836767
v -0.06476160601 0.06283097909 -0.002733149265
v -0.06740616584 0.04514413432 0.003709084885
v -0.0674114513 0.04516569652 -0.003705069371
f 483 489 484
f 475 485 490
f 475 490 486
f 475 486 480
f 478 482 483
f 478 483 484
f 480 486 487
f 482 487 483
f 481 489 490
f 481 490 485
f 482 488 487
f 483 487 486
f 483 486 490
f 483 490 489
f 475 476 479
f 480 487 488
f 474 479 476
f 475 479 485
f 474 481 485
f 471 472 475
f 471 475 480
f 471 480 488
f 471 488 482
f 471 482 478
f 471 478 473
f 471 473 474
f 471 474 476
f 474 485 479
f 472 476 475
f 473 477 474
f 473 478 484
f 473 484 489
f 473 489 481
f 473 481 477
f 474 477 481
f 471 476 472
o coacd_part_0024
v 0.0004067326321 -0.08968695941 -2.238591397e-05
v 0.0004067411835 -0.08968701265 1.744007827e-05
v 0.0004094841939 -0.08945397957 -0.003641347349
v 0.003359348468 -0.08953240188 -0.003636248109
v 0.003357548192 -0.08953296184 -0.003548776947
v 0.0004100263391 -0.08945947939 0.003635786502
v 0.003358901696 -0.08954249398 0.00354373807
v 0.003360766686 -0.08954155424 0.003631200078
v 0.0004332748827 -0.04362622449 -0.00356869278
v 0.01562935803 -0.08845985784 -0.00362740108
v 0.0004240401935 -0.04361306803 0.003561734514
v 0.01563037269 -0.08845119558 0.003618653738
v 0.02075574913 -0.04423998786 -0.00356583539
v 0.02146961057 -0.08570566973 -0.003619494885
v 0.02146970006 -0.08571047548 -0.003543714296
v 0.01565897893 -0.08845323237 -0.002214801491
v 0.02072650784 -0.04419387964 0.003557923874
v 0.01565937093 -0.08845041153 0.002206064646
v 0.02146840378 -0.08570735379 0.00353397363
v 0.02146830708 -0.08570243996 0.003609760516
f 496 502 510
f 496 510 507
f 496 507 501
f 499 501 507
f 499 507 503
f 500 504 505
f 500 505 506
f 503 510 509
f 502 509 510
f 503 507 510
f 503 509 505
f 503 505 504
f 505 509 508
f 505 508 506
f 494 497 495
f 502 508 509
f 494 498 497
f 496 498 502
f 494 508 502
f 494 502 498
f 491 492 496
f 491 496 501
f 491 501 499
f 491 499 493
f 491 494 495
f 491 495 497
f 491 497 492
f 491 493 494
f 492 498 496
f 493 499 503
f 493 503 504
f 493 504 500
f 493 500 494
f 494 500 506
f 492 497 498
f 494 506 508
o coacd_part_0025
v 0.06854993471 0.04529889815 -0.003609818835
v 0.07696368971 0.0453493977 -0.00361171992
v 0.06850305574 0.04525426034 0.003609786503
v 0.06940676888 0.05790506156 -0.003619215211
v 0.07699607823 0.04534842608 -0.001348887236
v 0.08308848732 0.05504776237 -0.003620123198
v 0.07696271208 0.04534938839 0.003611740323
v 0.06941293959 0.05790930638 0.003620465886
v 0.06940668915 0.05790744136 -0.003581656609
v 0.07367374728 0.06005423273 -0.003619558545
v 0.07699580982 0.04534843046 0.001348856332
v 0.08392006198 0.05636094764 1.567921918e-07
v 0.08569071279 0.05958724353 -0.003621770923
v 0.08308464132 0.05504263011 0.003620479519
v 0.07365666406 0.06004597001 0.003619773458
v 0.06941298218 0.05791174994 0.003582909597
v 0.07237441091 0.05947590837 3.719076213e-07
v 0.07603147843 0.06096699172 1.36741031e-07
v 0.07842390427 0.06171594302 -0.00362069587
v 0.08569046356 0.05958695705 0.003622094588
v 0.08340351933 0.06275300368 -0.003622085394
v 0.08456092886 0.06118068434 7.54417062e-05
v 0.07841628637 0.06171301111 0.003620980533
v 0.07990268296 0.0620932373 1.234174997e-07
v 0.08340326832 0.06275279565 0.003622385889
f 521 522 524
f 520 528 529
f 520 525 528
f 520 527 525
f 518 525 526
f 519 526 527
f 517 521 524
f 522 523 530
f 519 527 520
f 522 530 524
f 530 532 535
f 523 532 530
f 533 535 534
f 525 533 528
f 525 527 526
f 528 533 529
f 529 533 534
f 529 534 531
f 531 534 535
f 531 535 532
f 516 523 522
f 523 531 532
f 515 522 521
f 511 514 520
f 514 519 520
f 515 516 522
f 511 512 515
f 511 515 521
f 511 521 517
f 511 517 513
f 511 518 526
f 511 526 519
f 511 519 514
f 511 520 529
f 511 529 531
f 511 513 518
f 511 523 516
f 511 516 512
f 512 516 515
f 513 517 524
f 513 524 530
f 513 530 535
f 513 535 533
f 513 533 525
f 511 531 523
f 513 525 518
o coacd_part_0026
v -0.08952120336 0.0436099835 2.738717229e-06
v -0.08798623772 0.04354733804 0.003742860041
v -0.08798585917 0.04354740927 -0.003737358993
v -0.09312304285 0.04352730191 -0.003740199564
v -0.09312304895 0.043527289 0.00374579786
v -0.0828860137 0.04289069722 0.003737832443
v -0.08542473625 0.04330227317 2.600872255e-06
v -0.0828866715 0.04289113165 -0.00373279653
v -0.09470829672 0.03996499318 -0.003741282716
v -0.09393236191 0.04175286642 8.071469908e-05
v -0.09470830134 0.03996492252 0.003746953669
v -0.07802906965 0.04160503846 0.003727301935
v -0.07802906109 0.04160811793 0.003616247363
v -0.08138514738 0.04256670982 2.364379898e-06
v -0.07802945623 0.04160763065 -0.003612115546
v -0.07802948235 0.04160455637 -0.003723169196
v -0.0912806274 0.03612929014 -0.003739148373
v -0.09235492367 0.03722785906 2.869950741e-06
v -0.09128063608 0.03612900476 0.003744907171
v -0.07786586932 0.02997075492 0.003737080592
v -0.07786146324 0.02997332187 -0.003732442812
v -0.08736703715 0.03276882417 -0.003738060694
v -0.08937835974 0.03438391189 2.900055568e-06
v -0.08736915245 0.03276989876 0.003744137653
v -0.08317380231 0.03002842938 0.003745593372
v -0.08317450054 0.03002839447 -0.003741220193
v -0.08611830261 0.03186728504 2.648587759e-06
v -0.08317928488 0.03002764399 0.003593234769
v -0.08318003496 0.03002763931 -0.003588870677
f 552 554 553
f 548 550 549
f 547 550 548
f 547 551 550
f 547 556 551
f 544 552 553
f 546 553 554
f 544 553 546
f 543 550 551
f 552 557 558
f 547 555 556
f 552 558 554
f 561 564 562
f 555 560 563
f 555 563 564
f 555 564 561
f 555 561 556
f 557 561 562
f 557 562 559
f 557 559 558
f 559 562 560
f 560 562 563
f 562 564 563
f 543 549 550
f 554 558 559
f 541 549 543
f 544 546 545
f 541 547 548
f 536 537 538
f 536 539 540
f 536 540 537
f 537 540 546
f 537 546 554
f 537 554 559
f 537 559 560
f 537 560 555
f 537 555 547
f 537 547 541
f 537 541 542
f 537 542 538
f 536 538 539
f 538 543 551
f 541 543 542
f 540 545 546
f 541 548 549
f 538 542 543
f 539 544 545
f 539 545 540
f 538 552 544
f 538 557 552
f 538 561 557
f 538 556 561
f 538 551 556
f 538 544 539
o coacd_part_0027
v 0.08380714195 -0.02916778829 0.002154209707
v 0.08380552463 -0.02916688267 -0.002155587974
v 0.08378881557 -0.0291685966 0.003588206201
v 0.09168443797 -0.03648943514 0.003592538662
v 0.08378630643 -0.02916733717 -0.003589658415
v 0.09168308973 -0.03648838333 -0.003594708538
v 0.07816020282 -0.02911681348 0.003585177809
v 0.09511130078 -0.04031882201 0.00359399872
v 0.09275670395 -0.03758654952 -3.729288437e-07
v 0.0781229357 -0.02910126788 -0.003587154539
v 0.09511122944 -0.04031882321 -0.003596169506
v 0.0783939263 -0.04201924875 0.003587867774
v 0.09353653084 -0.04385697037 0.003594026349
v 0.09433988763 -0.04209466272 7.36403957e-05
v 0.07839377554 -0.04201989968 -0.003591283335
v 0.09353645478 -0.04385690762 -0.003596200273
v 0.07839399125 -0.04202377159 0.003440283815
v 0.08335897276 -0.04322043458 0.003590793706
v 0.08842574774 -0.04387510125 0.003592580615
v 0.08995281522 -0.04393753621 -1.093728491e-06
v 0.07839379032 -0.0420214031 -0.003573004038
v 0.08335290547 -0.04321899433 -0.003593036006
v 0.08842357574 -0.04387469768 -0.003594762982
v 0.07839389315 -0.04202448234 -0.003443693807
v 0.08187852433 -0.04289772649 -1.381820908e-06
v 0.08588185517 -0.04362982015 -1.14072299e-06
f 577 583 584
f 577 580 578
f 576 581 582
f 575 578 580
f 571 588 581
f 572 577 578
f 572 575 573
f 571 581 576
f 577 584 580
f 572 578 575
f 579 586 585
f 582 589 586
f 581 588 589
f 581 589 582
f 582 586 590
f 582 590 583
f 583 587 584
f 583 590 587
f 585 586 588
f 586 587 590
f 586 589 588
f 571 585 588
f 580 584 587
f 571 579 585
f 570 573 575
f 565 570 566
f 571 574 579
f 565 566 569
f 565 569 574
f 565 574 571
f 565 571 567
f 565 567 568
f 565 568 570
f 566 570 569
f 567 571 576
f 567 582 583
f 567 576 582
f 567 577 572
f 567 572 568
f 568 572 573
f 568 573 570
f 569 570 575
f 569 575 580
f 569 580 587
f 569 587 586
f 569 586 579
f 569 579 574
f 567 583 577
o coacd_part_0028
v 0.003357921367 -0.08953438253 -0.003548785187
v 0.003359274922 -0.08954391135 0.003543747681
v 0.003359475154 -0.08953368969 -0.003636248066
v 0.004148246641 -0.09269010511 -3.24218189e-06
v 0.003360892382 -0.08954284503 0.003631199465
v 0.01563063101 -0.08846123849 -0.003627401733
v 0.004576976922 -0.09401657926 -0.003635557092
v 0.00457039931 -0.09399472951 0.003627935093
v 0.01563164848 -0.08845258133 0.003618654044
v 0.01565890629 -0.08845467645 -0.002214802118
v 0.01558138248 -0.09077057403 -4.248041938e-06
v 0.01542289367 -0.0924107115 -0.003632096274
v 0.006488805351 -0.09859401635 -0.003636433814
v 0.005461971181 -0.09634736324 -3.864564743e-06
v 0.006484711489 -0.09858353112 0.003628357061
v 0.01565929862 -0.08845185212 0.002206065411
v 0.0154249072 -0.0923913275 0.003623724799
v 0.01502656682 -0.09499560003 -4.186677795e-06
v 0.01445879869 -0.09758584127 -0.003635388811
v 0.009018365237 -0.1029346579 -0.00363795822
v 0.007189360602 -0.09992949309 -4.046444119e-06
v 0.009018300401 -0.1029341285 0.003629796941
v 0.01446045226 -0.09757665499 0.003627176694
v 0.01404340903 -0.09907030922 -4.14234076e-06
v 0.01284127693 -0.1025198871 -0.003637356342
v 0.01093110748 -0.1027438017 -7.964614651e-05
v 0.01284125142 -0.1025195026 0.003629160812
f 601 607 602
f 602 608 609
f 602 607 608
f 600 606 601
f 597 603 604
f 599 601 606
f 598 604 605
f 597 604 598
f 603 610 611
f 599 607 601
f 603 611 605
f 615 617 616
f 605 611 612
f 607 613 608
f 608 613 609
f 609 614 615
f 609 613 614
f 610 612 611
f 610 616 612
f 612 616 617
f 613 617 614
f 614 617 615
f 603 605 604
f 596 601 602
f 610 615 616
f 595 607 599
f 591 592 595
f 591 595 599
f 591 606 600
f 591 600 596
f 596 600 601
f 591 596 593
f 591 593 594
f 591 594 592
f 592 594 595
f 593 596 602
f 593 602 609
f 591 599 606
f 593 615 610
f 593 609 615
f 595 613 607
f 595 612 617
f 595 605 612
f 595 598 605
f 595 617 613
f 594 597 598
f 593 597 594
f 593 603 597
f 593 610 603
f 594 598 595
o coacd_part_0029
v -0.03896704637 -0.08038467018 0.00204653665
v -0.03896794516 -0.08038518421 -0.002054884791
v -0.03900699371 -0.0803850591 0.003672189512
v -0.04021886011 -0.08198850295 -4.529406814e-06
v -0.0390089712 -0.08038674738 -0.003680696788
v -0.04125347067 -0.08315307566 0.003673556101
v -0.05145215395 -0.08052934262 0.003675063437
v -0.04125624706 -0.08315643413 -0.00368365218
v -0.05145161044 -0.08052910344 -0.003684150585
v -0.04499726494 -0.08669284152 0.003676457511
v -0.04306626255 -0.08498178856 -4.900105933e-06
v -0.05152811258 -0.08053393027 0.0004156529419
v -0.05197411266 -0.08272651466 0.003676181182
v -0.0449977354 -0.08669348244 -0.003686291399
v -0.0519740027 -0.08272708145 -0.003685649184
v -0.05152810365 -0.0805339943 -0.0004274623517
v -0.04619632143 -0.08764257344 -4.894657629e-06
v -0.0491507264 -0.08969249584 0.003678993879
v -0.05219476424 -0.08423040003 -5.421313261e-06
v -0.05248703902 -0.0877720364 0.003678669118
v -0.04915069699 -0.0896925256 -0.003688739874
v -0.05248699639 -0.08777207452 -0.003688308216
v -0.0508275267 -0.08874696306 -4.846480257e-06
f 623 628 625
f 629 633 632
f 624 629 630
f 625 628 631
f 626 632 633
f 627 634 631
f 627 631 628
f 627 635 634
f 629 632 630
f 635 637 640
f 630 636 637
f 631 634 638
f 632 639 636
f 634 635 638
f 635 640 638
f 636 639 637
f 637 639 640
f 638 640 639
f 623 627 628
f 630 632 636
f 622 632 626
f 622 639 632
f 622 638 639
f 618 619 622
f 618 622 626
f 618 626 633
f 618 633 629
f 618 624 620
f 618 620 621
f 618 621 619
f 619 621 622
f 620 623 621
f 618 629 624
f 620 630 637
f 620 637 635
f 620 635 627
f 620 627 623
f 621 623 625
f 621 625 622
f 622 625 631
f 622 631 638
f 620 624 630
o coacd_part_0030
v -0.01484569669 -0.08844377771 -0.002802718593
v -0.01484602108 -0.08844247394 0.002797565378
v -0.01483022511 -0.08844476197 -0.003667720005
v -0.01455236634 -0.09271698474 -0.003665378246
v -0.01471707097 -0.09118363376 -2.512704808e-06
v -0.01483054313 -0.08844328504 0.003662429783
v -0.01455214777 -0.09271666771 0.003659596983
v -0.002575821682 -0.08954734003 -0.003646707197
v -0.01359151143 -0.09766184403 -0.003664903772
v -0.01414909967 -0.09519804707 -2.911060685e-06
v -0.002576310898 -0.08954860922 0.003640583986
v -0.01359105775 -0.09766283721 0.003658930594
v -0.002574188379 -0.08954824383 -0.003545921231
v -0.003765269014 -0.09391297431 -0.003657216916
v -0.01202515775 -0.1023996653 -0.003666745784
v -0.01318488515 -0.09909358548 -2.971076498e-06
v -0.002574657711 -0.08954947831 0.003539797921
v -0.003766088264 -0.09391423209 0.003651068583
v -0.01202504826 -0.1023997157 0.003660742276
v -0.003349462775 -0.09263184304 -3.072187522e-06
v -0.004652992623 -0.09625013802 -3.053460878e-06
v -0.00567229055 -0.09847487825 -0.003662583942
v -0.008200065222 -0.1028141184 -0.003665547354
v -0.01011406456 -0.1026235853 7.322227326e-05
v -0.00567333048 -0.09847657797 0.003656539174
v -0.008200238594 -0.1028142662 0.003659525878
v -0.006374717554 -0.09981629779 -3.022256652e-06
f 654 660 658
f 653 657 660
f 653 660 654
f 652 656 659
f 648 653 654
f 649 652 650
f 649 656 652
f 649 655 656
f 654 658 661
f 651 658 657
f 654 661 662
f 665 666 667
f 655 664 659
f 655 659 656
f 657 658 660
f 658 665 661
f 659 664 666
f 661 665 662
f 662 665 667
f 662 667 663
f 647 650 652
f 663 666 664
f 663 667 666
f 655 663 664
f 646 658 651
f 641 651 657
f 646 666 665
f 646 665 658
f 641 642 646
f 641 646 651
f 641 657 653
f 641 653 648
f 641 648 643
f 641 643 644
f 641 645 642
f 642 645 647
f 642 647 646
f 643 648 654
f 641 644 645
f 643 662 663
f 643 654 662
f 646 652 659
f 646 647 652
f 644 647 645
f 644 650 647
f 646 659 666
f 643 649 644
f 643 655 649
f 643 663 655
f 644 649 650
o coacd_part_0031
v 0.0884486277 -0.01124317121 0.002233901803
v 0.08844780913 -0.0112431326 -0.002236003141
v 0.08843176962 -0.01124489708 0.003589158198
v 0.09743941423 -0.01659204553 0.003593043351
v 0.09525436675 -0.01530521986 -9.352976576e-07
v 0.08843093054 -0.01124469667 -0.003591262451
v 0.09743936823 -0.01659212099 -0.003594846177
v 0.08569032127 -0.01122375687 0.003587722871
v 0.101549964 -0.01959859541 0.003594519904
v 0.09870937896 -0.01743718884 -9.026861955e-07
v 0.08566882689 -0.01122473694 -0.003589810731
v 0.1015499462 -0.01959862502 -0.003596298197
v 0.08536418509 -0.02461085425 0.003588193451
v 0.1007419905 -0.02337593766 0.003594459768
v 0.1011622421 -0.02148942908 7.385131495e-05
v 0.08536241321 -0.02461059902 -0.003590036189
v 0.1007420217 -0.02337587336 -0.003596223718
v 0.08536411049 -0.0246128662 0.003503844281
v 0.08894821564 -0.02486595069 -8.727648256e-07
v 0.09052576645 -0.02487786488 0.003590877008
v 0.09569859911 -0.02446150002 0.003592922647
v 0.09721707682 -0.02420458481 -8.711759545e-07
v 0.08536238764 -0.02461261784 -0.003505687412
v 0.09052355812 -0.02487758276 -0.003592554978
v 0.09569822099 -0.02446135873 -0.003594672835
v 0.09311458402 -0.02475315341 -8.549462588e-07
f 681 684 682
f 675 683 690
f 675 690 685
f 675 685 680
f 676 681 682
f 676 679 677
f 679 682 684
f 680 685 686
f 680 686 687
f 681 688 689
f 675 678 683
f 683 691 686
f 683 686 690
f 684 689 692
f 685 690 686
f 686 691 687
f 687 691 693
f 687 693 688
f 688 692 689
f 688 693 692
f 691 692 693
f 681 689 684
f 674 677 679
f 676 682 679
f 673 691 683
f 668 673 678
f 668 678 675
f 668 675 670
f 668 670 671
f 668 671 672
f 668 672 669
f 669 672 674
f 669 674 673
f 670 675 680
f 670 680 687
f 670 687 688
f 668 669 673
f 670 681 676
f 670 676 671
f 671 676 677
f 671 677 674
f 673 683 678
f 671 674 672
f 673 674 679
f 673 679 684
f 673 684 692
f 673 692 691
f 670 688 681
o coacd_part_0032
v -0.08401277399 -0.05953317373 -0.003703583185
v -0.08174511497 -0.0626724489 -0.003702962211
v -0.08289253437 -0.06111310958 7.260592783e-05
v -0.0840127573 -0.05953318488 0.003694998103
v -0.08225088984 -0.05632562992 -4.281496563e-06
v -0.08142161352 -0.05501677468 -0.003702204644
v -0.08174523459 -0.06267246751 0.003694366328
v -0.07681160401 -0.06164460401 -0.003701016197
v -0.0782808395 -0.062020533 -4.303304295e-06
v -0.08142187605 -0.05501723468 0.003693634589
v -0.07987866052 -0.05286130256 -4.252835919e-06
v -0.07821641871 -0.0508289218 -0.003701632622
v -0.07681271099 -0.06164493748 0.003692404522
v -0.07211227519 -0.05999841544 -0.003697697411
v -0.07445450372 -0.06090760025 -4.339544465e-06
v -0.07821666189 -0.05082932647 0.003693148908
v -0.07711172548 -0.04961839221 -4.176728608e-06
v -0.074381598 -0.04698755566 -0.00370336185
v -0.07211392519 -0.05999912829 0.003689013528
v -0.07035388849 -0.05911360153 -0.003694942135
v -0.07085347579 -0.05944026913 -4.378974179e-06
v -0.0743809126 -0.04698689951 0.003695229872
v -0.06967751056 -0.04696699093 -0.003698263197
v -0.07035468653 -0.0591139544 0.003686179895
v -0.07037608423 -0.05918792026 -0.0006041544902
v -0.07037602171 -0.059187896 0.0005953781932
v -0.06967382277 -0.04697099253 0.003689488152
f 707 712 708
f 706 708 712
f 705 710 711
f 705 709 710
f 701 706 702
f 703 709 704
f 701 708 706
f 701 707 708
f 707 713 714
f 704 709 705
f 707 714 712
f 712 714 717
f 710 715 711
f 711 715 720
f 711 720 716
f 713 718 714
f 713 716 720
f 713 720 717
f 713 717 719
f 713 719 718
f 714 719 717
f 700 702 706
f 709 715 710
f 699 704 705
f 714 718 719
f 698 703 699
f 694 695 696
f 694 696 697
f 694 697 698
f 694 698 699
f 694 699 705
f 694 705 711
f 694 711 716
f 694 716 713
f 694 713 707
f 694 707 701
f 694 701 695
f 699 703 704
f 695 701 702
f 695 702 700
f 696 700 697
f 697 700 706
f 697 706 712
f 697 712 717
f 697 717 720
f 697 720 715
f 697 715 709
f 697 709 703
f 697 703 698
f 695 700 696
o coacd_part_0033
v -0.08439458236 -0.01081807823 0.003777570377
v -0.08412095243 -0.02450225719 0.003749362442
v -0.08442772493 -0.01081528678 -0.003783788656
v -0.08726706917 -0.0108277377 0.00378824646
v -0.0841209174 -0.02451058056 0.003713427811
v -0.08933499722 -0.02475041358 0.003770085999
v -0.08412296045 -0.02450689176 -0.00375882732
v -0.08726843417 -0.01082769227 -0.003794933279
v -0.08728970068 -0.01082575823 0.001935437302
v -0.09620035679 -0.01648834788 0.00378685602
v -0.08412291308 -0.02450965077 -0.003722905726
v -0.08777003417 -0.02474037592 -4.654130988e-06
v -0.09447415166 -0.0243352435 0.003781936459
v -0.0919062268 -0.02462684626 -4.448480862e-06
v -0.08933449836 -0.02475059653 -0.003779528415
v -0.09619868418 -0.01648729186 -0.003794459372
v -0.08729055493 -0.01082567177 -0.001942167796
v -0.09746600906 -0.01732918149 -3.032237699e-06
v -0.1002930257 -0.01948306414 0.003793535609
v -0.09948754043 -0.02325333649 0.003790333506
v -0.09598402945 -0.02408017254 -4.190539993e-06
v -0.09447204591 -0.02433569024 -0.003790306189
v -0.1002929425 -0.01948295979 -0.003801446992
v -0.09990701115 -0.0213710712 -8.345148646e-05
v -0.09948736714 -0.02325344202 -0.003798461128
f 730 738 739
f 730 736 738
f 729 736 730
f 726 734 735
f 728 736 737
f 727 731 735
f 726 735 732
f 731 732 735
f 729 737 736
f 733 740 741
f 739 743 744
f 733 742 734
f 734 742 735
f 736 743 738
f 738 743 739
f 739 744 740
f 740 744 745
f 740 745 741
f 741 745 742
f 726 733 734
f 733 741 742
f 743 745 744
f 725 732 731
f 724 729 730
f 725 726 732
f 721 722 725
f 721 725 731
f 721 731 727
f 721 727 723
f 721 728 737
f 721 737 729
f 721 729 724
f 721 724 730
f 721 730 739
f 721 723 728
f 721 740 733
f 721 733 726
f 721 726 722
f 722 726 725
f 723 727 735
f 723 735 742
f 723 742 745
f 723 745 743
f 723 743 736
f 721 739 740
f 723 736 728
o coacd_part_0034
v 0.07582498607 -0.04655631652 0.002784227245
v 0.07582308848 -0.04655339317 -0.002788046734
v 0.07581395637 -0.04655615007 0.003588199393
v 0.0809667871 -0.0529900999 -1.343144142e-06
v 0.07581177055 -0.04655288218 -0.003592051588
v 0.07930541454 -0.0509598135 0.003591458705
v 0.06803788805 -0.04649051874 0.003584498109
v 0.07930754512 -0.0509620191 -0.003595347834
v 0.08250456143 -0.05513862566 0.003593231821
v 0.08250703869 -0.05514205004 -0.003597463256
v 0.06800341025 -0.0464612978 -0.003588965481
v 0.06882184012 -0.05796313674 0.003588578482
v 0.08509602788 -0.05965165417 0.003594627362
v 0.08333547587 -0.05644839773 -1.414280419e-06
v 0.08509618433 -0.05965187921 -0.00359894312
v 0.0688234158 -0.05796425541 -0.003594352729
v 0.06882094618 -0.05796958393 0.003528812253
v 0.07313720709 -0.0600911081 0.003591254821
v 0.08282889631 -0.062788521 0.003594660382
v 0.08397560514 -0.06122995302 7.257720688e-05
v 0.0828290515 -0.06278860219 -0.003599046709
v 0.06882250546 -0.05797068748 -0.003534584354
v 0.07314891804 -0.06009683312 -0.003596207048
v 0.07185030146 -0.05951683356 -2.613490061e-06
v 0.07549653103 -0.06100820034 -2.407057538e-06
v 0.07787114262 -0.06175332568 0.003593192586
v 0.07934662587 -0.06213089286 -2.26702162e-06
v 0.07787536325 -0.06175490009 -0.003597672289
f 760 765 766
f 758 765 760
f 758 764 765
f 758 760 759
f 757 762 763
f 752 762 757
f 754 759 755
f 754 758 759
f 752 767 762
f 761 768 767
f 755 759 760
f 762 767 769
f 768 773 770
f 763 768 770
f 763 770 771
f 763 769 768
f 764 766 765
f 771 773 772
f 764 771 772
f 764 772 766
f 766 772 773
f 767 768 769
f 770 773 771
f 752 761 767
f 762 769 763
f 752 756 761
f 747 749 750
f 750 768 761
f 750 761 756
f 746 747 750
f 746 750 756
f 746 756 752
f 746 752 748
f 746 748 749
f 746 749 747
f 748 752 757
f 748 757 763
f 748 763 771
f 748 771 764
f 748 751 749
f 748 758 754
f 750 773 768
f 748 764 758
f 750 760 766
f 750 755 760
f 750 753 755
f 750 766 773
f 749 754 755
f 749 751 754
f 749 753 750
f 748 754 751
f 749 755 753
o coacd_part_0035
v 0.0653654387 -0.06296762392 0.002722351689
v 0.06536567658 -0.06296813066 -0.002729190158
v 0.06534133741 -0.06296087957 0.003590265689
v 0.06748477199 -0.06627261562 0.00359302186
v 0.06678657211 -0.06507381693 -3.516237385e-06
v 0.06748912707 -0.06627983524 -0.003600261204
v 0.06534233301 -0.06296264944 -0.003597119591
v 0.05482945668 -0.06215416818 0.003587773817
v 0.06961449627 -0.07075762565 0.003594935443
v 0.06863417158 -0.06850149275 -3.635768238e-06
v 0.06961640115 -0.07076143487 -0.003602244206
v 0.05482882466 -0.06214980484 -0.003594575026
v 0.05478162634 -0.06976616261 0.003592128972
v 0.0711512671 -0.07553936887 0.003596400684
v 0.07014156437 -0.072176868 -3.661657617e-06
v 0.07115139077 -0.07553950069 -0.003603718887
v 0.05478341028 -0.06976718922 -0.003599026079
v 0.05771111109 -0.07223667396 -3.528918731e-06
v 0.05903500038 -0.07321981287 0.003593515842
v 0.06829945308 -0.07809091753 0.003596501102
v 0.06973683789 -0.07682733031 -3.660688244e-06
v 0.06829960022 -0.07809103703 -0.003603815721
v 0.05904326721 -0.07322571315 -0.003600749503
v 0.06123644042 -0.07466764473 -3.631518989e-06
v 0.06354048783 -0.07598174053 0.003595121849
v 0.06492838228 -0.07667080903 -3.658442686e-06
v 0.06354430554 -0.07598404702 -0.003602420654
f 787 793 794
f 781 785 790
f 782 787 788
f 782 788 784
f 782 784 783
f 784 788 789
f 786 791 792
f 786 790 791
f 787 789 788
f 787 794 789
f 798 800 799
f 790 796 791
f 791 796 792
f 792 796 797
f 792 797 798
f 793 795 794
f 793 798 799
f 793 799 795
f 795 799 800
f 796 800 797
f 797 800 798
f 779 785 780
f 789 794 795
f 779 790 785
f 781 790 786
f 779 800 796
f 779 796 790
f 774 775 780
f 774 780 785
f 774 785 781
f 774 781 776
f 774 776 777
f 774 777 778
f 775 778 779
f 775 779 780
f 776 781 786
f 776 786 792
f 774 778 775
f 776 798 793
f 779 795 800
f 776 792 798
f 779 784 789
f 779 783 784
f 777 779 778
f 779 789 795
f 777 782 783
f 776 782 777
f 776 787 782
f 776 793 787
f 777 783 779
o coacd_part_0036
v -0.07037581519 -0.05918777805 -0.0006041544953
v -0.07037575266 -0.05918775378 0.000595378188
v -0.07035380727 -0.05911190944 -0.003694942031
v -0.06399100236 -0.06224822389 -0.003685264672
v -0.07035460712 -0.05911226462 0.003686179779
v -0.06398630529 -0.06224119197 0.003676012997
v -0.06922233787 -0.02950514716 -0.003712285265
v -0.05281808578 -0.06124787078 -0.003673986284
v -0.06918667179 -0.02951388925 0.003703437862
v -0.05287453171 -0.06130915161 0.00366677279
v -0.05167267352 -0.02900126827 -0.003665155341
v -0.05163808774 -0.02901759525 0.003656456292
f 804 808 810
f 808 812 810
f 808 811 812
f 807 812 811
f 807 809 812
f 805 812 809
f 805 810 812
f 805 806 810
f 804 810 806
f 803 808 804
f 801 807 803
f 803 807 811
f 802 806 805
f 801 806 802
f 801 804 806
f 801 803 804
f 801 809 807
f 801 805 809
f 801 802 805
f 803 811 808
o coacd_part_0037
v -0.05111020702 -0.01045484976 0.003655733532
v -0.0516379679 -0.02901447721 0.003656455668
v -0.05115453637 -0.01042190917 -0.003661531073
v -0.08439458236 -0.01081807823 0.003777570377
v -0.05167255689 -0.02899815689 -0.003665154099
v -0.08243676723 -0.02966828474 0.003732229175
v -0.08442772493 -0.01081528678 -0.003783788656
v -0.08412095239 -0.02450169844 0.00374936384
v -0.08243703339 -0.02966838551 -0.003738509391
v -0.08412131728 -0.02450928839 0.003713427429
v -0.08244788693 -0.02966873876 0.003063796437
v -0.08412296098 -0.02450637003 -0.003758828922
v -0.08244796022 -0.02966890655 -0.003070090939
v -0.08412331296 -0.02450835861 -0.003722906108
v -0.08324588067 -0.02734092171 -3.90125053e-06
f 816 824 826
f 816 826 822
f 825 827 826
f 818 820 822
f 818 822 823
f 822 827 823
f 821 826 824
f 822 826 827
f 823 827 825
f 816 819 824
f 821 825 826
f 815 824 819
f 816 822 820
f 815 817 821
f 815 821 824
f 813 817 815
f 813 815 819
f 813 819 816
f 813 816 820
f 813 814 817
f 813 818 814
f 814 818 823
f 814 823 825
f 814 825 821
f 814 821 817
f 813 820 818
o coacd_part_0038
v -0.01969847601 -0.08593319629 -0.002414539933
v -0.01969823599 -0.08593340301 0.002408513473
v -0.01969928792 -0.08591736659 -0.003677273993
v -0.01482926909 -0.08844338166 -0.00366771921
v -0.01484577689 -0.0884424153 -0.002802720095
v -0.01969908571 -0.08591745639 0.003671255379
v -0.01484610139 -0.08844111128 0.002797566963
v -0.01482958657 -0.08844190281 0.003662429005
v -0.01444812557 -0.007222504622 -0.00321345915
v -0.002577151393 -0.08954585876 -0.003646707093
v -0.01567417585 -0.007741114039 0.003488090878
v -0.002577641027 -0.08954712373 0.003640583853
v -0.004802733333 -0.0058469 -0.0025006
v 0.0004075066982 -0.08945318887 -0.003641350224
v 0.0004047044995 -0.08968698634 -2.244957224e-05
v -0.002573980758 -0.08954747038 -0.003545923941
v -0.0047753 -0.005822033333 0.0024994
v -0.002574450043 -0.08954870486 0.003539800636
v 0.0004047124886 -0.08968703738 1.750341806e-05
v 0.0004080476667 -0.08945868126 0.003635788853
v -0.004964933333 -0.005273833333 -0.0013973
v 0.0003338 -0.007470433333 -0.001398666667
v 0.0008235666667 -0.0074544 -0.002225133333
v -0.004963833333 -0.005275 0.001375366667
v 0.000827 -0.007720066667 0.0024994
v 0.0003338 -0.007470433333 0.0013741
f 840 849 850
f 836 844 851
f 836 851 848
f 836 848 840
f 837 841 842
f 837 842 843
f 839 845 846
f 839 846 847
f 840 848 849
f 841 850 849
f 842 845 843
f 841 853 852
f 841 852 847
f 841 847 846
f 841 846 842
f 842 846 845
f 833 844 838
f 844 852 853
f 844 853 851
f 848 851 853
f 848 853 849
f 841 849 853
f 833 852 844
f 836 838 844
f 833 839 847
f 828 829 833
f 828 833 838
f 828 838 836
f 833 847 852
f 828 830 831
f 828 831 832
f 828 832 834
f 828 834 829
f 829 834 835
f 829 835 833
f 830 836 840
f 828 836 830
f 830 850 841
f 830 841 837
f 830 837 831
f 831 837 843
f 831 843 845
f 831 845 839
f 831 839 835
f 831 835 834
f 831 834 832
f 833 835 839
f 830 840 850
o coacd_part_0039
v -0.05285760711 -0.07041320294 -0.002158194818
v -0.05285775518 -0.07041368929 0.002151491709
v -0.05285616914 -0.0703877865 -0.003678288718
v -0.05152809191 -0.08053393007 -0.0004274591182
v -0.05285691048 -0.0703892313 0.003671497357
v -0.05152810084 -0.08053386605 0.0004156497195
v -0.05145129844 -0.08052910137 -0.003684150491
v -0.05121215511 0.00604522799 -0.003663670682
v -0.05145184172 -0.08052934007 0.003675063336
v -0.05112713949 0.006012334464 0.003659056445
v -0.03901037754 -0.08038676899 -0.003680697118
v -0.03243351913 0.005726353221 -0.003579673713
v -0.03900840183 -0.08038507904 0.003672189409
v -0.03232192172 0.005699000452 0.003573593841
v -0.03536453063 -0.08027082895 -0.003681371845
v -0.03536519419 -0.0803235478 -0.000127244725
v -0.03896794516 -0.08038518421 -0.002054884791
v -0.03896704637 -0.08038467018 0.00204653665
v -0.03536514027 -0.08032351695 0.0001188340926
v -0.03536376873 -0.08026985688 0.003673055854
f 861 867 865
f 861 863 867
f 858 862 866
f 858 873 867
f 858 866 873
f 864 868 869
f 858 867 863
f 864 869 870
f 866 871 872
f 865 873 872
f 865 872 869
f 865 869 868
f 866 872 873
f 869 872 871
f 869 871 870
f 858 859 862
f 865 867 873
f 857 862 859
f 854 863 861
f 857 871 866
f 857 866 862
f 854 855 858
f 854 858 863
f 854 856 857
f 854 857 859
f 854 859 855
f 855 859 858
f 854 861 856
f 856 861 865
f 856 865 868
f 856 868 864
f 856 864 860
f 857 860 864
f 857 864 870
f 857 870 871
f 856 860 857
o coacd_part_0040
v 0.05026483046 0.07316770377 0.00364360772
v 0.05512659202 0.06970989749 0.003634254021
v 0.05512646442 0.06971768699 0.003625013668
v 0.05271110758 0.07148103527 7.224583801e-07
v 0.05026569743 0.07316964455 -0.003641928381
v 0.03548175331 0.07273647416 0.003654357563
v 0.05514002424 0.06210986507 0.003627428073
v 0.05512525933 0.06971705938 -0.003623736683
v 0.05512538861 0.06970927092 -0.003632977034
v 0.03547608229 0.07272388609 -0.003651190963
v 0.03532218164 0.06134392013 0.003636111455
v 0.05514865169 0.06211482812 -0.003626452552
v 0.03531163265 0.06131867916 -0.003633193215
f 877 881 878
f 878 881 882
f 878 882 885
f 878 885 886
f 879 886 884
f 879 883 886
f 880 884 886
f 880 886 885
f 876 881 877
f 878 886 883
f 875 881 876
f 874 884 880
f 875 885 882
f 875 880 885
f 874 880 875
f 874 879 884
f 874 883 879
f 874 878 883
f 874 877 878
f 874 876 877
f 874 875 876
f 875 882 881
o coacd_part_0041
v 0.03547608229 0.07272388609 -0.003651190963
v 0.03552013413 0.08076007881 -0.00366094024
v 0.03905295056 0.0727914004 -0.003648300294
v 0.03548175331 0.07273647416 0.003654357563
v 0.03551865955 0.08079452802 -0.001148766859
v 0.03909843413 0.07917231299 -0.003655382576
v 0.03905835504 0.07279898564 0.003651020148
v 0.03551955522 0.0807607652 0.003666366107
v 0.03638620735 0.08042493944 2.552281759e-06
v 0.03551851808 0.08079484883 0.001154211413
v 0.0390976117 0.07917236604 0.003659372118
f 890 893 897
f 890 897 894
f 891 895 892
f 889 897 893
f 892 895 897
f 894 897 896
f 895 896 897
f 891 896 895
f 889 892 897
f 887 889 893
f 887 891 888
f 887 888 892
f 887 892 889
f 887 893 890
f 888 891 892
f 887 894 896
f 887 896 891
f 887 890 894
o coacd_part_0042
v -0.05271130758 0.08774179125 -0.003710000061
v -0.05271130577 0.08774186463 0.003715738701
v -0.05104413217 0.08872287187 -7.429894478e-05
v -0.04935827941 0.08967485328 -0.00371034177
v -0.05219894813 0.08267779424 -0.003708361412
v -0.0524197385 0.08418652668 3.544518016e-06
v -0.04935829251 0.08967493546 0.003716128256
v -0.05219925125 0.0826797383 0.003714016484
v -0.04639052623 0.08761624078 2.888690285e-06
v -0.045186648 0.0866632307 -0.003708941253
v -0.05102603453 0.07773876187 -0.003706039903
v -0.05169407312 0.08019518792 4.135802244e-06
v -0.04518790354 0.08666460373 0.003714753362
v -0.05102617849 0.07774050223 0.003711270686
v -0.04324748486 0.08494542927 2.795943124e-06
v -0.04142704996 0.08310846241 -0.00370785567
v -0.04926542738 0.0730378502 -0.003701946433
v -0.04926697985 0.07303796287 -0.003661348923
v -0.05055838778 0.07632138611 3.793256585e-06
v -0.04143151746 0.08311358175 0.00371363409
v -0.0492662794 0.07303686373 0.003665201809
v -0.04926473325 0.07303675426 0.003705799108
v -0.0403885569 0.08194143248 2.259482855e-06
v -0.03813008726 0.07906358607 -0.003698419814
v -0.03813018439 0.07905543813 -0.00371004669
v -0.0380789055 0.07268099743 -0.003702619436
v -0.03813232588 0.07906486276 0.003712933599
v -0.03809174944 0.07269359506 0.003705438511
f 906 910 907
f 907 912 913
f 911 918 919
f 907 910 912
f 908 911 909
f 908 914 915
f 908 915 916
f 908 916 911
f 910 917 912
f 911 916 918
f 912 917 913
f 914 923 925
f 913 921 922
f 913 917 920
f 905 909 911
f 914 925 919
f 914 919 918
f 914 918 915
f 915 918 916
f 917 924 920
f 920 924 921
f 921 925 923
f 921 923 922
f 913 920 921
f 904 910 906
f 921 924 925
f 902 908 909
f 902 909 905
f 898 900 901
f 898 901 907
f 898 907 913
f 898 913 922
f 898 922 923
f 898 923 914
f 898 914 908
f 898 908 902
f 898 902 903
f 898 903 899
f 899 904 900
f 898 899 900
f 899 905 911
f 899 911 919
f 899 919 925
f 899 925 924
f 899 924 917
f 899 917 910
f 899 910 904
f 900 904 901
f 901 906 907
f 901 904 906
f 899 903 905
f 902 905 903
o coacd_part_0043
v 0.03905330534 0.07279140604 -0.003648299984
v 0.05026518809 0.07316963563 -0.003641928835
v 0.03905870964 0.07279899246 0.003651019846
v 0.0390985379 0.07917255025 -0.003655377521
v 0.05156440419 0.07644914255 1.04718628e-06
v 0.05026432133 0.07316769632 0.003643608221
v 0.05202995194 0.07786211447 -0.003649312042
v 0.03909771487 0.07917260321 0.00365936713
v 0.04136782583 0.08206190546 1.542447838e-06
v 0.04240981849 0.08323503579 -0.003653629161
v 0.05203230838 0.07786832018 0.003651717102
v 0.05320628722 0.08281138739 -0.003652698281
v 0.05270066382 0.0803251621 1.196113761e-06
v 0.0424118094 0.08323723065 0.003656034623
v 0.04423460993 0.08507560272 1.271342933e-06
v 0.04617940787 0.08679858217 -0.003653985225
v 0.05320701922 0.08281393876 0.003655134729
v 0.05372021587 0.08788522431 -0.003654544726
v 0.0534276888 0.08432293121 1.220791847e-06
v 0.04618130012 0.08680028185 0.003656407204
v 0.04738637696 0.08775465135 1.232275962e-06
v 0.05036207425 0.08981979092 -0.003655209888
v 0.0537202817 0.08788531045 0.003656984562
v 0.05205031622 0.08886705222 -7.477931636e-05
v 0.05036218226 0.08981989194 0.003657645437
f 937 944 942
f 937 943 944
f 936 938 942
f 932 938 936
f 935 939 940
f 934 939 935
f 933 939 934
f 937 942 938
f 935 940 941
f 939 945 940
f 943 947 949
f 941 945 946
f 941 946 947
f 942 944 948
f 943 949 948
f 943 948 944
f 945 950 946
f 946 950 947
f 947 950 949
f 948 949 950
f 932 937 938
f 940 945 941
f 930 936 931
f 928 936 942
f 929 934 935
f 926 927 931
f 926 931 928
f 926 928 933
f 926 933 929
f 926 929 935
f 930 932 936
f 926 941 947
f 926 947 943
f 926 943 937
f 926 937 932
f 926 935 941
f 927 930 931
f 927 932 930
f 928 931 936
f 928 942 948
f 928 948 950
f 928 950 945
f 928 945 939
f 928 939 933
f 929 933 934
f 926 932 927
o coacd_part_0044
v -0.03807852077 0.07268179097 -0.003702620609
v -0.03812979008 0.07905448572 -0.003710045745
v -0.03426413476 0.07262724838 -0.003703923287
v -0.03809136346 0.07269438792 0.003705439668
v -0.03812997201 0.07906363937 -0.003698419811
v -0.03430139555 0.08076538978 -0.003716490879
v -0.03427540158 0.07263060859 0.003705838964
v -0.03813209788 0.07906468953 0.003712936955
v -0.03541701219 0.08031948593 1.505322416e-06
v -0.03430061216 0.08079561929 -0.001503407688
v -0.03430208324 0.08076648899 0.003719385678
v -0.03430061129 0.08079601069 0.00150637433
f 954 957 961
f 954 961 958
f 955 959 960
f 953 961 957
f 955 958 959
f 959 962 960
f 958 962 959
f 955 960 956
f 953 962 961
f 958 961 962
f 953 956 960
f 952 955 956
f 951 955 952
f 951 958 955
f 951 954 958
f 951 957 954
f 951 953 957
f 951 956 953
f 951 952 956
f 953 960 962
o coacd_part_0045
v -0.07707234393 -0.02961916613 0.003722350518
v -0.07733729698 -0.04179099923 0.003708732391
v -0.07708082794 -0.02961439602 -0.003729691519
v -0.08243920048 -0.02966922926 0.003732220078
v -0.07733694775 -0.04179223897 0.003681160913
v -0.08222166746 -0.04306801447 0.003719122716
v -0.07733780445 -0.04179149406 -0.003715923433
v -0.08243946024 -0.02966933229 -0.003738500117
v -0.08244774895 -0.02966914128 0.003063796567
v -0.0866088821 -0.03299903119 0.003725332418
v -0.07733745088 -0.0417927296 -0.003688352578
v -0.08075041068 -0.04274933299 -4.507547435e-06
v -0.08726724227 -0.04371996381 0.003724032529
v -0.08473600763 -0.0434770657 -5.372747986e-06
v -0.08221937868 -0.04306747496 -0.003726802712
v -0.08660997362 -0.03299945585 -0.003733667637
v -0.08244782224 -0.02966930906 -0.003070090808
v -0.08861396395 -0.0346080361 -4.041580712e-06
v -0.09051425793 -0.03634848877 0.003726129385
v -0.09236052505 -0.04370156714 0.003727048962
v -0.0887885649 -0.04378250068 -5.454263928e-06
v -0.08726646039 -0.04371990646 -0.003732030068
v -0.09051400433 -0.03634800264 -0.003734288536
v -0.09158431305 -0.03744229136 -4.061284483e-06
v -0.09393160424 -0.04016830695 0.003728314478
v -0.0931614481 -0.0419413927 -8.170677487e-05
v -0.09236047276 -0.04370158963 -0.003735112461
v -0.09393159184 -0.04016821629 -0.003736422926
f 975 983 984
f 975 982 983
f 973 974 977
f 972 978 980
f 968 977 974
f 971 979 978
f 970 978 979
f 969 973 977
f 975 984 976
f 971 978 972
f 976 984 977
f 982 987 988
f 980 985 981
f 981 985 986
f 981 986 987
f 968 976 977
f 982 988 989
f 982 989 983
f 983 989 984
f 985 990 986
f 986 990 987
f 987 990 988
f 988 990 989
f 978 985 980
f 968 975 976
f 972 980 981
f 967 968 974
f 967 974 973
f 963 964 967
f 963 967 973
f 963 973 969
f 963 969 965
f 963 965 970
f 963 970 979
f 963 979 971
f 963 966 972
f 963 972 981
f 963 981 987
f 963 987 982
f 963 971 966
f 963 975 968
f 966 971 972
f 963 982 975
f 965 985 978
f 965 990 985
f 965 989 990
f 965 984 989
f 965 978 970
f 965 969 977
f 964 968 967
f 963 968 964
f 965 977 984
o coacd_part_0046
v 0.09067649838 0.04374959017 -1.511435377e-06
v 0.08913705821 0.04368723884 -0.003611944865
v 0.08913564302 0.04368707116 0.003610327508
v 0.09429199216 0.04366807575 0.003611642982
v 0.09429205149 0.04366810008 -0.003613317523
v 0.08402011674 0.04302754334 -0.003610608092
v 0.08656825429 0.04344014869 -1.43232405e-06
v 0.08401786992 0.04302719363 0.003609287075
v 0.09588169768 0.04009968649 0.003611377997
v 0.09510245848 0.04189077417 -7.593182595e-05
v 0.0958817708 0.04009965889 -0.003613091223
v 0.07905874487 0.04171052646 -0.003609214341
v 0.07905858772 0.0417125582 -0.003592965886
v 0.08251498044 0.04270078677 -1.943402054e-06
v 0.0790570414 0.04171250197 0.003592334898
v 0.07905718702 0.04171047 0.003608583017
v 0.09244009034 0.03625163925 0.003609754552
v 0.09351727892 0.03735386903 -8.964041793e-07
v 0.09244129076 0.03625239416 -0.003611513552
v 0.07891052918 0.03007018569 -0.003602650529
v 0.07886796495 0.0300643302 0.003600222161
v 0.08851219598 0.03287949972 0.003607128616
v 0.09053125445 0.03450167345 -9.76594184e-07
v 0.08851592555 0.03288166664 -0.00360913146
v 0.08430624988 0.03013119913 -0.003605134134
v 0.08430419179 0.03013041196 0.003602530899
v 0.0872596019 0.03197692997 -1.127114333e-06
v 0.08431163023 0.0301307017 -0.003458278943
v 0.08430970382 0.0301299845 0.003455673402
f 998 1005 1006
f 1007 1012 1013
f 999 1001 1000
f 999 1007 1008
f 999 1008 1001
f 1001 1008 1009
f 1002 1010 1011
f 1002 1011 1006
f 1002 1006 1005
f 1002 1005 1003
f 1003 1005 1004
f 1007 1013 1009
f 1017 1019 1018
f 1009 1013 1014
f 1010 1015 1018
f 1010 1018 1019
f 1010 1019 1016
f 1010 1016 1011
f 1012 1016 1017
f 1012 1017 1014
f 1012 1014 1013
f 1014 1017 1015
f 1015 1017 1018
f 1016 1019 1017
f 998 1004 1005
f 1007 1009 1008
f 996 1004 998
f 991 992 993
f 996 1002 1003
f 991 993 994
f 991 994 995
f 991 995 992
f 992 995 1001
f 992 1001 1009
f 992 1009 1014
f 992 1014 1015
f 996 1003 1004
f 992 1010 1002
f 992 1002 996
f 992 996 997
f 992 997 993
f 992 1015 1010
f 993 998 1006
f 993 997 998
f 995 1000 1001
f 994 1000 995
f 994 999 1000
f 993 999 994
f 996 998 997
f 993 1012 1007
f 993 1016 1012
f 993 1011 1016
f 993 1006 1011
f 993 1007 999
o coacd_part_0047
v 0.05482945668 -0.06215416818 0.003587773817
v 0.05478163022 -0.06976496656 0.003592128403
v 0.05482882466 -0.06214980484 -0.003594575026
v 0.03422955125 -0.06128481595 0.003585222005
v 0.05020563953 -0.07383046823 0.002908425875
v 0.05478341228 -0.06976599232 -0.003599025486
v 0.05018969248 -0.07382800918 0.0035952042
v 0.03425197937 -0.06131105376 -0.003593051466
v 0.03440353133 -0.07340522963 0.003596684624
v 0.05020596678 -0.07383124822 -0.002916464237
v 0.05019028056 -0.07382941675 -0.003603244023
v 0.03441601747 -0.07342060488 -0.003604979156
f 1022 1030 1031
f 1024 1030 1029
f 1024 1031 1030
f 1024 1028 1031
f 1024 1026 1028
f 1023 1031 1028
f 1025 1029 1030
f 1022 1031 1027
f 1022 1025 1030
f 1023 1027 1031
f 1021 1029 1025
f 1021 1026 1024
f 1020 1025 1022
f 1020 1022 1027
f 1020 1027 1023
f 1020 1021 1025
f 1020 1028 1026
f 1020 1026 1021
f 1021 1024 1029
f 1020 1023 1028
o coacd_part_0048
v -0.06918740768 -0.02951246381 0.003703441291
v -0.06922307116 -0.02950371395 -0.003712288543
v -0.07707067276 -0.02961944701 0.003722345812
v -0.06967448805 -0.04696945245 0.003689490243
v -0.07707917386 -0.02961467386 -0.003729688322
v -0.06967817828 -0.04696545247 -0.003698265209
v -0.07733634413 -0.0417921716 0.003708735703
v -0.07437944564 -0.04698533326 0.003695229757
v -0.07733685303 -0.04179266634 -0.003715927057
v -0.07438013134 -0.04698598859 -0.003703361726
v -0.07590232102 -0.04440348597 -3.861248764e-06
f 1034 1036 1040
f 1040 1041 1042
f 1039 1042 1041
f 1038 1042 1039
f 1038 1040 1042
f 1035 1039 1041
f 1034 1040 1038
f 1033 1040 1036
f 1035 1041 1037
f 1033 1037 1041
f 1033 1041 1040
f 1032 1036 1034
f 1032 1034 1038
f 1032 1038 1039
f 1032 1033 1036
f 1032 1039 1035
f 1032 1035 1037
f 1032 1037 1033
o coacd_part_0049
v 0.07699595986 0.04534817627 0.001348856305
v 0.07699622827 0.04534817189 -0.001348887262
v 0.07695170621 0.04534845233 0.003611751183
v 0.07905548489 0.04171208064 0.003592325944
v 0.07757214156 0.04437221751 -1.177248556e-07
v 0.07905703111 0.0417121365 -0.003592956714
v 0.07695271176 0.04534850718 -0.003611730901
v 0.07905552942 0.0417103131 0.003608582898
v -0.07585400869 0.04521416762 0.003721436321
v 0.07905708667 0.04171036956 -0.003609213983
v -0.07585383206 0.04521363314 -0.003716876892
v 0.07886624008 0.03006296856 0.003600220398
v -0.0758860609 0.04521605844 0.001389796041
v -0.07802898494 0.04160809617 0.003616247356
v -0.07802904691 0.04160451883 0.003727302001
v 0.07890880638 0.03006882727 -0.003602648914
v -0.07802945975 0.04160403719 -0.003723169216
v -0.07802938008 0.0416076089 -0.003612115553
v -0.07588589843 0.04521585294 -0.001385224835
v -0.07786584471 0.02996941378 0.003737082184
v -0.07786144053 0.02997198092 -0.003732444507
f 1051 1056 1057
f 1049 1052 1058
f 1049 1058 1063
f 1049 1063 1059
f 1049 1059 1053
f 1051 1055 1056
f 1048 1052 1049
f 1053 1059 1060
f 1055 1060 1056
f 1054 1062 1063
f 1054 1063 1058
f 1055 1061 1060
f 1056 1060 1059
f 1056 1059 1063
f 1056 1063 1062
f 1056 1062 1057
f 1046 1048 1047
f 1053 1060 1061
f 1046 1052 1048
f 1044 1047 1048
f 1046 1054 1058
f 1043 1044 1049
f 1043 1049 1053
f 1043 1053 1061
f 1043 1061 1055
f 1046 1058 1052
f 1043 1051 1045
f 1043 1045 1046
f 1043 1046 1047
f 1043 1055 1051
f 1044 1048 1049
f 1045 1050 1046
f 1045 1051 1057
f 1045 1057 1062
f 1045 1062 1054
f 1045 1054 1050
f 1046 1050 1054
f 1043 1047 1044
o coacd_part_0050
v 0.03444322182 -0.08118974343 -0.002293417414
v 0.03618430593 -0.08044698387 -4.354628435e-06
v 0.03444321388 -0.08118943922 0.002284692949
v 0.03444394758 -0.08117149213 -0.003611344968
v 0.03887719552 -0.07920252722 -0.003608269324
v 0.03887781014 -0.0792024418 0.003599605249
v 0.03444405036 -0.08117108476 0.00360262452
v 0.03441447093 -0.07342135045 -0.00360498035
v 0.03884616623 -0.07349483997 -0.003603796595
v 0.038836264 -0.07348776179 0.003595818408
v 0.0344019864 -0.073405976 0.003596685642
f 1067 1071 1072
f 1067 1072 1068
f 1068 1072 1073
f 1068 1073 1069
f 1071 1073 1072
f 1069 1074 1070
f 1071 1074 1073
f 1069 1073 1074
f 1066 1069 1070
f 1064 1065 1066
f 1065 1069 1066
f 1064 1066 1070
f 1064 1070 1074
f 1064 1074 1071
f 1065 1068 1069
f 1064 1067 1068
f 1064 1068 1065
f 1064 1071 1067
o coacd_part_0051
v 0.038876926 -0.0792027939 -0.003608264097
v 0.0421772324 -0.08324778493 -0.003608460102
v 0.04113837247 -0.08207867675 -5.447926042e-06
v 0.03887754082 -0.07920270879 0.003599600012
v 0.03884616051 -0.07349407793 -0.003603796009
v 0.04592836161 -0.08679635326 -0.003609682297
v 0.04399210709 -0.08508017957 -4.547792043e-06
v 0.04217661603 -0.08324716749 0.003600874556
v 0.03883625652 -0.0734869972 0.003595817813
v 0.05019015124 -0.07382941479 -0.003603243998
v 0.05009018996 -0.08980343559 -0.003610933973
v 0.04712938572 -0.08774796911 -4.549720417e-06
v 0.04592723597 -0.08679538309 0.003602023703
v 0.05018956286 -0.07382800694 0.003595204181
v 0.05020593111 -0.07383115994 -0.002916464238
v 0.05174236305 -0.07789155144 -0.003607065141
v 0.05009012703 -0.08980338358 0.003603247279
v 0.05343000581 -0.08788033696 -0.003610733109
v 0.05176828864 -0.08885648653 -3.85063291e-06
v 0.05020560386 -0.07383037995 0.002908425873
v 0.0517405925 -0.07788725943 0.003599136076
v 0.05127369961 -0.07647421429 -3.980005426e-06
v 0.05241000469 -0.08034394474 -3.933463454e-06
v 0.05291579067 -0.08282392948 -0.003609271325
v 0.05342995466 -0.08788028595 0.003603021194
v 0.05313612659 -0.08432995215 -3.883455901e-06
v 0.05291532665 -0.08282258462 0.003601524771
f 1080 1085 1086
f 1086 1091 1087
f 1080 1086 1087
f 1080 1087 1081
f 1081 1087 1082
f 1084 1089 1090
f 1085 1091 1086
f 1085 1092 1093
f 1085 1093 1091
f 1088 1095 1094
f 1090 1096 1095
f 1089 1096 1090
f 1090 1097 1098
f 1079 1089 1084
f 1090 1095 1097
f 1091 1093 1099
f 1092 1100 1099
f 1092 1099 1093
f 1092 1098 1100
f 1094 1095 1096
f 1095 1101 1097
f 1097 1101 1098
f 1089 1094 1096
f 1079 1094 1089
f 1078 1095 1088
f 1079 1083 1088
f 1098 1101 1100
f 1075 1076 1077
f 1075 1077 1078
f 1075 1078 1083
f 1075 1083 1079
f 1075 1079 1084
f 1075 1084 1090
f 1075 1090 1098
f 1075 1098 1092
f 1075 1092 1085
f 1079 1088 1094
f 1075 1085 1080
f 1076 1080 1081
f 1076 1081 1082
f 1076 1082 1077
f 1077 1082 1078
f 1078 1082 1087
f 1078 1087 1091
f 1078 1091 1099
f 1078 1099 1101
f 1078 1101 1095
f 1078 1088 1083
f 1075 1080 1076
f 1099 1100 1101
