# deformed COACD convex decomposition
o coacd_part_0000
v 0.0241321026 0.00747666004 0.001189444188
v 0.02413100632 0.007476732024 -0.001189866058
v 0.02412444208 0.007475489505 0.001889513932
v 0.02686186116 0.007169629878 0.001889386825
v 0.0261870009 0.007246666264 -1.49164027e-07
v 0.02412279145 0.007475517041 -0.001889978541
v 0.02685819569 0.007169934364 -0.001889650648
v -0.02372740754 0.007538256192 0.001799284582
v 0.02823714228 0.006872139578 0.001889070448
v 0.0272839413 0.007102023615 -1.22508027e-07
v -0.02372710098 0.007538347248 -0.001804727082
v 0.0282369599 0.006872122378 -0.001889313578
v -0.02373512229 0.007539458661 0.001130275399
v -0.02649601093 0.007234843344 0.001779829787
v 0.02845812955 0.005809396783 0.001889154791
v 0.02835435278 0.006343057419 -1.16029878e-07
v -0.0264969219 0.007234814074 -0.001785627231
v -0.02373494555 0.00753951154 -0.001135709407
v 0.02845793637 0.005809378402 -0.00188938585
v -0.0258159848 0.007311561817 -2.814202216e-06
v -0.02692484772 0.007166134063 -2.902048388e-06
v -0.02788856514 0.006935068528 0.001775699179
v 0.02762303977 0.00517346225 -4.872739188e-07
v 0.02724900016 0.004931388951 0.001889584447
v -0.02788858269 0.006935101762 -0.001781582812
v 0.02724513264 0.004929501896 -0.00188980606
v -0.02800600151 0.006404429878 -2.960587057e-06
v -0.02811017909 0.005869313736 0.001773946166
v 0.02658165585 0.004542409134 -4.812368693e-07
v 0.02591003775 0.004212313284 0.001890394916
v -0.02811021314 0.005869257335 -0.001779903573
v 0.02590024181 0.004208386302 -0.001890564851
v -0.02726532336 0.005227606851 -3.399004962e-06
v -0.02688543749 0.004981908909 0.001777027303
v 0.02435736202 0.003635622266 0.001891856139
v 0.02543837618 0.004012160359 -5.057911338e-07
v -0.02688644116 0.004982198514 -0.001783099654
v 0.02436192319 0.003636446552 -0.001892106177
v -0.02621210946 0.004590364229 -3.858652559e-06
v -0.02552451887 0.004253185901 0.001778468661
v -0.02395458992 0.003671091392 0.001777223772
v -0.02552992576 0.004255025112 -0.001785089302
v -0.02395556716 0.003671198113 -0.00178309965
v -0.02505310753 0.004054068627 -3.813256257e-06
f 1 2 6
f 24 29 26
f 23 24 26
f 22 27 28
f 22 25 27
f 21 25 22
f 19 23 26
f 17 20 18
f 17 25 21
f 15 24 23
f 15 19 16
f 15 23 19
f 14 21 22
f 14 17 21
f 14 20 17
f 13 20 14
f 13 18 20
f 12 16 19
f 24 30 29
f 25 31 27
f 26 29 32
f 28 31 33
f 42 43 44
f 41 44 43
f 40 42 44
f 40 44 41
f 39 42 40
f 37 42 39
f 35 43 38
f 35 41 43
f 11 17 18
f 35 38 36
f 34 37 39
f 33 37 34
f 32 36 38
f 31 37 33
f 30 36 32
f 30 35 36
f 29 30 32
f 28 33 34
f 34 39 40
f 9 12 10
f 27 31 28
f 9 15 16
f 3 41 35
f 3 40 41
f 3 34 40
f 3 28 34
f 3 22 28
f 3 8 14
f 2 7 6
f 2 5 7
f 1 5 2
f 1 4 5
f 1 3 4
f 1 8 3
f 1 13 8
f 1 18 13
f 1 11 18
f 1 6 11
f 9 16 12
f 3 35 30
f 3 30 24
f 3 14 22
f 6 17 11
f 8 13 14
f 7 10 12
f 3 24 15
f 6 25 17
f 6 31 25
f 6 37 31
f 6 42 37
f 6 38 43
f 6 32 38
f 6 43 42
f 6 19 26
f 3 15 9
f 6 26 32
f 4 9 10
f 4 10 7
f 3 9 4
f 6 7 12
f 6 12 19
f 4 7 5
o coacd_part_0001
v 0.005639550215 0.01866422456 -0.001865084795
v 0.01049445712 0.01837224717 -0.001870781851
v 0.00564039703 0.01864253588 0.001861373897
v 0.005509292219 0.02497497165 -0.001838590333
v 0.01048729607 0.01835936168 0.001867549817
v 0.01036128692 0.02355092835 -0.001857833132
v 0.005509364768 0.02497361266 0.001834158363
v 0.005511131177 0.02498948325 -0.0002055728634
v 0.008911261522 0.02847999799 -0.001846502118
v 0.0103616302 0.02355052739 0.00185315486
v 0.01012321055 0.02667554119 -0.001848369006
v 0.01009885693 0.02711881847 -1.786080663e-06
v 0.01036222969 0.02356407075 -0.0005844076248
v 0.00891126223 0.02847997539 0.001841478963
v 0.005511165229 0.02498933614 0.0002010461969
v 0.009440265555 0.02831538755 -2.511388584e-06
v 0.009965374826 0.02813827685 -0.001847164148
v 0.01036231313 0.02356387825 0.0005797193445
v 0.01012324701 0.0266752183 0.001843347312
v 0.009965384869 0.02813825706 0.001842142772
f 53 58 60
f 50 55 56
f 50 56 57
f 48 52 53
f 51 58 59
f 52 59 58
f 52 58 53
f 53 60 61
f 60 64 61
f 54 56 63
f 55 61 56
f 56 62 57
f 56 61 64
f 56 64 63
f 58 64 60
f 47 58 51
f 54 62 56
f 47 64 58
f 45 47 51
f 47 54 63
f 45 46 49
f 45 49 47
f 47 63 64
f 45 59 52
f 45 52 48
f 45 48 53
f 45 53 61
f 45 51 59
f 45 55 50
f 45 50 46
f 46 50 57
f 46 57 62
f 46 62 54
f 46 54 49
f 47 49 54
f 45 61 55
o coacd_part_0002
v -0.02372522553 0.007538336704 -0.001804736461
v -0.02373509719 0.007539018747 -0.001135682184
v -0.02337552186 0.008787857282 -0.001812826869
v 0.02412090693 0.007475519932 -0.001889979312
v -0.02373527388 0.007538965863 0.001130247832
v -0.02337593443 0.008787785498 0.001808207574
v 0.02376939337 0.008726361157 -0.001888714919
v 0.02413115853 0.007476238579 -0.001189840188
v -0.02372552375 0.007538232948 0.001799295016
v 0.02377051102 0.008726698547 0.001887679384
v 0.02413225494 0.007476166496 0.001189418523
v 0.02412259016 0.007475499865 0.001889514463
f 67 74 71
f 68 71 72
f 69 73 70
f 70 73 76
f 74 76 75
f 71 74 75
f 71 75 72
f 67 70 74
f 70 76 74
f 66 70 67
f 65 68 72
f 65 69 66
f 65 73 69
f 65 76 73
f 65 75 76
f 65 72 75
f 65 71 68
f 65 67 71
f 65 66 67
f 66 69 70
o coacd_part_0003
v 0.01903443212 0.0221314116 0.00187116275
v 0.01986554441 0.02137083797 0.001871390293
v 0.01945417477 0.02175610833 -1.226191582e-06
v 0.01903441742 0.02213140738 -0.001873616831
v 0.01812774851 0.02175982225 -1.595360614e-06
v 0.01774615176 0.02156824687 0.001871404888
v 0.01986553715 0.02137081175 -0.001873842039
v 0.01939416924 0.0199081559 0.001871858392
v 0.01955595982 0.02033451879 -1.592344604e-06
v 0.0177460519 0.02156819612 -0.001873861812
v 0.01716161945 0.02124219593 -1.595091034e-06
v 0.01659060808 0.02086451647 0.001871424938
v 0.01939398015 0.01990771358 -0.001874306975
v 0.01871180917 0.01848373161 0.001872925205
v 0.0190707727 0.01917048734 -1.576822946e-06
v 0.01659070559 0.02086456673 -0.001873894417
v 0.01629952856 0.02065507939 -1.596745638e-06
v 0.01564110593 0.0200939402 0.001865929262
v 0.01564127198 0.02009154231 0.001870688967
v 0.01871139315 0.01848295631 -0.001875356297
v 0.01791678802 0.01727746084 0.001874867427
v 0.01842998593 0.01800893834 -1.949720965e-06
v 0.01564207806 0.02009196346 -0.001873178078
v 0.01564191409 0.02009436309 -0.001868418326
v 0.01563576545 0.01786635144 0.001873651392
v 0.01791676128 0.01727725883 -0.001877249899
v 0.01792156795 0.01727177222 0.001384505147
v 0.01792160419 0.0172717029 -0.001387244007
v 0.0156309622 0.01786283355 -0.001876060703
f 90 98 96
f 90 97 98
f 90 96 91
f 89 91 96
f 88 94 95
f 87 92 88
f 88 92 93
f 92 99 100
f 86 92 87
f 84 91 89
f 88 93 94
f 92 100 93
f 94 105 101
f 94 100 99
f 94 99 105
f 84 90 91
f 94 101 95
f 96 98 102
f 97 103 98
f 97 105 102
f 97 102 104
f 97 104 103
f 98 103 104
f 98 104 102
f 93 100 94
f 84 89 85
f 97 101 105
f 82 87 88
f 77 78 79
f 77 79 80
f 77 80 81
f 77 81 82
f 77 82 88
f 77 88 95
f 77 101 97
f 77 97 90
f 77 90 84
f 77 84 78
f 78 83 79
f 78 84 85
f 77 95 101
f 79 83 80
f 78 85 83
f 82 86 87
f 81 86 82
f 80 86 81
f 80 92 86
f 80 99 92
f 83 85 89
f 80 102 105
f 80 96 102
f 80 89 96
f 80 83 89
f 80 105 99
o coacd_part_0004
v 0.004631466667 -0.006454166667 -0.0025006
v 0.0048932 -0.0059226 -0.001399966667
v 0.007308933333 -0.003427033333 -0.0025006
v 0.02523891951 -0.003056382039 -0.001895473488
v 0.0048931 -0.0059227 0.001373233333
v 0.0073566 -0.0034224 0.0024994
v 0.02535029562 -0.001695856916 -0.001894967798
v 0.02535234731 -0.001695833386 -0.001889773696
v 0.02529956055 -0.002536987484 -2.111185496e-07
v 0.02524557948 -0.003057396587 -0.001180183728
v 0.004666233333 -0.006484566667 0.0024994
v 0.02535086523 -0.00169537681 0.001894546374
v 0.02535297236 -0.001695353362 0.001889352313
v 0.02524507999 -0.003057379761 0.001179772502
v 0.02523837924 -0.003056269529 0.001895065753
f 108 118 113
f 108 113 112
f 109 112 113
f 109 113 114
f 109 114 115
f 110 116 111
f 113 118 114
f 111 120 117
f 114 119 115
f 114 118 120
f 114 120 119
f 111 116 120
f 117 120 118
f 108 117 118
f 107 111 108
f 108 111 117
f 106 108 112
f 106 112 109
f 106 109 115
f 106 115 119
f 106 107 108
f 106 120 116
f 106 116 110
f 106 110 107
f 107 110 111
f 106 119 120
o coacd_part_0005
v -0.008436466693 -0.00424500293 -0.002084773581
v -0.004802733333 -0.0058469 -0.0025006
v -0.007677945224 -0.003926055841 0.001921607391
v -0.009816872307 0.003253875392 -0.002338392535
v -0.004964933333 -0.005273833333 -0.0013973
v -0.0066313 0.003441633333 -0.0025006
v -0.0047753 -0.005822033333 0.0024994
v -0.009453445719 0.002883465202 0.002306971779
v -0.004966 -0.0052727 0.0002601333333
v -0.006673933333 0.0034893 0.0024994
v -0.004963833333 -0.005275 0.001375366667
f 129 130 131
f 127 131 130
f 126 130 129
f 125 126 129
f 124 130 126
f 124 128 130
f 123 130 128
f 123 127 130
f 122 126 125
f 121 124 126
f 121 128 124
f 121 123 128
f 121 127 123
f 121 131 127
f 121 129 131
f 121 125 129
f 121 122 125
f 121 126 122
o coacd_part_0006
v -0.02413992202 0.002018346525 -0.001769353355
v -0.02413897025 0.002023325302 -0.001735663127
v -0.02395474695 0.003671029047 -0.001783109131
v -0.0066313 0.003441633333 -0.0025006
v -0.02413277242 0.002025215821 0.001730558593
v -0.02392303552 0.003103642062 -2.77883702e-06
v -0.02395382922 0.003670933741 0.00177723387
v -0.0029787 0.006735766667 -0.0022251
v -0.006673933333 0.0034893 0.0024994
v -0.02413375613 0.00202027344 0.001764251064
v -0.0029787 0.006735766667 0.002217633333
f 134 142 139
f 135 139 142
f 135 142 140
f 138 140 142
f 136 138 137
f 138 141 140
f 134 138 142
f 136 141 138
f 134 137 138
f 132 141 136
f 133 136 137
f 132 136 133
f 133 137 134
f 132 140 141
f 132 135 140
f 132 139 135
f 132 134 139
f 132 133 134
o coacd_part_0007
v -0.009935404628 0.01840950717 -0.001843861267
v -0.005025325291 0.01866582068 -0.001849051908
v -0.009935703707 0.0184284463 0.001841761038
v -0.009813962092 0.02363809443 -0.001828016702
v -0.005022547389 0.01867464438 0.001846863736
v -0.004906468873 0.02498662562 -0.001802088214
v -0.009813506656 0.02363736173 0.001824749553
v -0.00981468493 0.02364918751 -0.000739703698
v -0.009617388385 0.02722735186 -0.001814405824
v -0.004907198042 0.02498576637 0.001800030128
v -0.008431878843 0.02853284072 -0.001811734375
v -0.004908412497 0.02499958636 -0.0003977700231
v -0.009615374452 0.02723243683 0.001811718693
v -0.009814688204 0.02364893298 0.0007363853883
v -0.009493291601 0.02818848926 -0.001812736088
v -0.004908691796 0.02499930302 0.0003956724358
v -0.008431635829 0.02853285783 0.001808925902
v -0.008964062424 0.02836706258 3.596564853e-05
v -0.009491980228 0.02818928819 0.001809766065
f 145 155 149
f 146 150 151
f 149 155 156
f 150 156 155
f 150 155 151
f 151 155 161
f 151 161 157
f 153 159 158
f 153 157 160
f 153 160 159
f 145 161 155
f 153 158 154
f 157 161 160
f 159 160 161
f 152 158 159
f 145 159 161
f 148 153 154
f 145 147 152
f 145 152 159
f 143 144 147
f 143 147 145
f 143 145 149
f 143 149 156
f 143 150 146
f 143 146 151
f 143 151 157
f 143 156 150
f 143 153 148
f 143 148 144
f 144 148 154
f 144 154 158
f 144 158 152
f 144 152 147
f 143 157 153
o coacd_part_0008
v -0.005025321291 0.01866592298 -0.001849051292
v 0.0003210302245 0.01876645045 -0.001857047782
v -0.005022543408 0.01867474605 0.001846863083
v -0.00490646899 0.02498650658 -0.001802089379
v 0.0003318542233 0.01875295471 0.001854395614
v 0.0003487964706 0.02482211428 -0.001809041885
v -0.004907198165 0.02498564795 0.001800031185
v -0.004908412497 0.02499958636 -0.0003977700231
v -0.003834353441 0.02832228505 -3.641488762e-06
v -0.003943364219 0.02792515147 -0.001772892218
v 0.0003496234906 0.02482551308 0.001807279656
v -0.002363451193 0.02935318491 -0.00175869092
v 0.0003508376998 0.02473299789 -0.0001232805141
v -0.003949245304 0.02790631203 0.001764569019
v -0.004908691796 0.02499930302 0.0003956724358
v -0.003509521826 0.02923774787 0.001749447787
v -0.003507183699 0.02923943586 -0.001758268394
v 0.0003508979595 0.02473316688 0.0001218010219
v -0.002360992778 0.02935195319 0.001749668217
v -0.00293635567 0.02930210178 3.994573603e-05
f 170 175 177
f 165 169 170
f 165 170 171
f 167 173 174
f 168 175 170
f 168 170 176
f 169 176 170
f 170 177 178
f 177 181 178
f 172 179 180
f 173 178 181
f 173 181 180
f 173 180 179
f 173 179 174
f 177 180 181
f 164 175 168
f 170 178 171
f 164 177 175
f 162 178 173
f 164 172 180
f 164 180 177
f 162 163 166
f 162 166 164
f 162 164 168
f 162 176 169
f 162 169 165
f 162 165 171
f 162 171 178
f 162 168 176
f 162 173 167
f 162 167 163
f 163 167 174
f 163 174 179
f 163 179 172
f 163 172 166
f 164 166 172
o coacd_part_0009
v 0.006453386137 -0.02474634478 -0.001881471989
v 0.007151171931 -0.02610274087 -0.001882064485
v 0.006924947716 -0.02570337049 5.598676759e-07
v 0.006454154021 -0.02474827948 0.001884101373
v 0.006889694414 -0.01445852037 -0.001902570168
v 0.007998435171 -0.02734056525 -0.001882001216
v 0.007551840272 -0.02673629393 8.871243947e-07
v 0.007151887842 -0.02610419697 0.001884603615
v 0.006905448218 -0.01447419383 0.001904378014
v 0.01067274893 -0.01404305174 -0.001901169863
v 0.009003404737 -0.02845122888 -0.001881768839
v 0.008282781426 -0.02769028948 8.704714342e-07
v 0.007998716658 -0.02734106913 0.001884497709
v 0.01068914578 -0.01406011428 0.001902806334
v 0.01023072967 -0.02360999594 -0.001885850868
v 0.009003399707 -0.02845125596 0.001884256554
v 0.01006924853 -0.02810625561 -0.001881961469
v 0.00953853912 -0.02828476595 -3.781311775e-05
v 0.01023065342 -0.02361019089 0.001888164036
v 0.01023113603 -0.02361700105 -0.001195906926
v 0.01023526422 -0.02590212888 8.53196131e-07
v 0.01022868443 -0.02663481168 -0.00188236808
v 0.01006925608 -0.02810625989 0.001884442696
v 0.01020402865 -0.02708031195 8.620518577e-07
v 0.01022869885 -0.02663515263 0.001884839742
v 0.01023113682 -0.0236171536 0.001198220637
f 192 198 199
f 192 197 193
f 191 201 196
f 191 207 201
f 191 195 200
f 187 194 188
f 188 194 189
f 192 199 197
f 191 200 207
f 193 197 194
f 201 207 202
f 196 202 203
f 197 199 204
f 198 205 204
f 198 204 199
f 204 205 206
f 200 206 202
f 200 202 207
f 202 206 203
f 203 206 205
f 187 193 194
f 196 201 202
f 187 192 193
f 198 203 205
f 186 190 195
f 186 195 191
f 182 183 184
f 182 184 185
f 182 185 190
f 182 190 186
f 182 186 191
f 182 191 196
f 182 203 198
f 182 198 192
f 182 192 187
f 182 187 183
f 182 196 203
f 183 188 189
f 185 195 190
f 183 187 188
f 185 206 200
f 185 204 206
f 185 197 204
f 185 200 195
f 185 189 194
f 184 189 185
f 183 189 184
f 185 194 197
o coacd_part_0010
v 0.003646166667 0.006735766667 -0.002225166667
v 0.007289433333 0.003478633333 -0.0025006
v 0.003745733333 0.0069946 0.0024994
v 0.02436109812 0.003636288395 -0.001892107049
v 0.007309 0.003464633333 0.0024994
v 0.02453740432 0.001981542472 -0.001893184675
v 0.02435654476 0.003635464271 0.001891856955
v 0.02432717432 0.003064192505 -1.732070456e-07
v 0.02453650218 0.001986433476 -0.001857248931
v 0.02453840104 0.001980942288 0.001893117877
v 0.0245375197 0.001985846545 0.001857178711
f 210 212 217
f 215 218 216
f 214 218 215
f 214 217 218
f 211 216 213
f 211 215 216
f 211 214 215
f 210 217 214
f 209 217 212
f 208 211 213
f 209 216 218
f 209 213 216
f 208 213 209
f 208 214 211
f 208 210 214
f 208 212 210
f 208 209 212
f 209 218 217
o coacd_part_0011
v 0.0003210302245 0.01876645045 -0.001857047782
v 0.005639056563 0.01866434425 -0.001865083549
v 0.0003318542233 0.01875295471 0.001854395614
v 0.0003487964706 0.02482211428 -0.001809041885
v 0.005639904314 0.01864265216 0.001861372634
v 0.005508826736 0.02497493811 -0.0018385875
v 0.0003496234906 0.02482551308 0.001807279656
v 0.0003508376998 0.02473299789 -0.0001232805141
v 0.002917475469 0.02923108335 -0.001812327709
v 0.005508899713 0.02497357737 0.001834155851
v 0.004028769672 0.02912060777 -0.001813887918
v 0.004363388056 0.02818134493 -1.264384984e-06
v 0.005510847091 0.024989539 -0.0002055842904
v 0.002917428801 0.02923102601 0.001809980512
v 0.0003508979595 0.02473316688 0.0001218010219
v 0.003473529083 0.02918243155 3.613394257e-05
v 0.005510881236 0.02498939189 0.0002010578438
v 0.004028798274 0.02912062056 0.001811459334
f 222 226 227
f 224 229 230
f 224 230 231
f 225 232 233
f 226 233 232
f 226 232 227
f 228 230 236
f 227 234 229
f 232 236 234
f 229 234 236
f 229 236 230
f 230 235 231
f 221 232 225
f 227 232 234
f 221 236 232
f 228 235 230
f 221 223 228
f 219 220 223
f 219 223 221
f 219 221 225
f 219 225 233
f 219 233 226
f 219 226 222
f 219 222 227
f 221 228 236
f 219 229 224
f 219 224 220
f 220 224 231
f 220 231 235
f 220 235 228
f 220 228 223
f 219 227 229
o coacd_part_0012
v -0.02352409066 0.01660160636 -0.001829776725
v -0.02352409019 0.01660159838 0.001825829134
v -0.02320300763 0.01704866396 -1.973956758e-06
v -0.02287149024 0.01748831805 -0.001830046742
v -0.02281899301 0.01536895408 -0.001830113148
v -0.02305250636 0.01573161276 -1.976612083e-06
v -0.02287148631 0.01748831601 0.001826098726
v -0.02281894956 0.01536887241 0.001826164626
v -0.02182987595 0.01729154553 -2.337970925e-06
v -0.0213932538 0.01717544179 -0.001830609058
v -0.02131577473 0.01294857636 -0.001827362157
v -0.02132765071 0.01294874597 -0.0006841919831
v -0.0213275446 0.01294856761 0.0006799021294
v -0.02139310948 0.0171753907 0.001826660901
v -0.02131565416 0.0129481221 0.001823084603
v -0.02065270565 0.01693798754 -2.69280201e-06
v -0.01994422492 0.01665577184 -0.001831741719
v -0.01900890655 0.01298763249 -0.001833329417
v -0.01994340024 0.01665540001 0.001827801211
v -0.01901336435 0.0129985972 0.001829182271
v -0.01948174278 0.01644063844 -2.676651731e-06
v -0.01847829515 0.01588926911 -0.001829245424
v -0.01847862587 0.01588685728 -0.001834262076
v -0.01847826363 0.01588930881 0.001825370909
v -0.01847861061 0.01588691584 0.001830387369
f 247 251 249
f 247 256 251
f 247 254 256
f 245 250 246
f 246 250 252
f 247 249 248
f 244 249 251
f 243 250 245
f 246 252 253
f 250 255 252
f 253 257 258
f 253 255 257
f 253 258 259
f 254 259 258
f 254 258 260
f 254 260 261
f 242 249 244
f 255 260 257
f 255 261 260
f 257 260 258
f 252 255 253
f 254 261 256
f 242 248 249
f 241 247 248
f 237 238 239
f 241 248 242
f 237 240 246
f 237 246 253
f 237 253 259
f 237 259 254
f 237 254 247
f 237 247 241
f 237 241 242
f 237 242 238
f 237 239 240
f 238 242 244
f 238 243 239
f 240 243 245
f 239 243 240
f 238 250 243
f 240 245 246
f 238 261 255
f 238 256 261
f 238 251 256
f 238 244 251
f 238 255 250
o coacd_part_0013
v -0.01023085083 -0.02343820221 -6.07103151e-05
v -0.01023088622 -0.02343822301 6.318411419e-05
v -0.01022925165 -0.02342004923 -0.001847865027
v -0.009570107673 -0.0281505847 -0.00182596235
v -0.01022974924 -0.02342066804 0.001850275995
v -0.009568429594 -0.02815171982 0.001826360597
v -0.01184865249 0.002213465953 -0.001889375602
v -0.008478379325 -0.0285050715 -0.001825741445
v -0.009034058906 -0.02833198654 4.827429702e-07
v -0.01189931467 0.00221496884 0.001889959271
v -0.008478493856 -0.02850522439 0.001827197098
v -0.00981588514 0.003253420508 -0.002338122184
v -0.007462710814 -0.02738128536 -0.001833445606
v -0.007748537707 -0.02773229904 8.846853567e-07
v -0.009453445719 0.002883465202 0.002306971779
v -0.007464163178 -0.02738290829 0.001835448176
v -0.005632068863 -0.02478793878 -0.001850304989
v -0.00701064959 -0.02676617756 9.450337602e-07
v -0.005632268498 -0.024788172 0.001851613283
v -0.005633342756 -0.0247940246 -0.001212917527
v -0.005633541597 -0.02479412936 0.001214236135
f 273 280 282
f 268 271 276
f 268 276 273
f 269 272 270
f 269 274 275
f 272 275 277
f 273 276 280
f 273 282 281
f 277 279 280
f 274 279 277
f 274 277 275
f 274 278 279
f 278 281 279
f 279 281 282
f 279 282 280
f 267 270 272
f 273 281 278
f 266 276 271
f 269 275 272
f 266 277 280
f 262 263 266
f 262 266 271
f 262 271 268
f 262 264 265
f 262 265 267
f 262 267 263
f 263 267 266
f 264 268 273
f 262 268 264
f 264 278 274
f 264 274 269
f 266 280 276
f 264 269 265
f 265 269 270
f 265 270 267
f 266 267 272
f 266 272 277
f 264 273 278
o coacd_part_0014
v 0.02453751432 0.00198587418 0.001857178708
v 0.02623716794 0.001703049979 0.001892861946
v 0.0257129225 0.001810759619 -3.175728368e-08
v 0.0245364968 0.001986461111 -0.001857248935
v 0.02453805201 0.001980941882 0.001893118168
v 0.02775002333 0.001255457729 0.0018925219
v 0.02698577726 0.001510533908 7.741015192e-09
v 0.02623006781 0.001704579341 -0.001892849886
v 0.02453705224 0.001981542006 -0.001893184997
v 0.007047066667 0.003338533333 0.0022169
v 0.02915244224 0.0006243686453 0.001892238068
v 0.02817443406 0.00109053567 1.19172683e-08
v 0.02774626966 0.001256557216 -0.00189251696
v 0.007047533333 0.003337566667 -0.002225533333
v 0.0073566 -0.0034224 0.0024994
v 0.02916125409 -0.00051928889 0.001892307946
v 0.02916562594 5.216570753e-05 3.924484458e-05
v 0.02915228654 0.0006243737683 -0.001892235666
v 0.007308933333 -0.003427033333 -0.0025006
v 0.02535161996 -0.001695235037 0.001894545854
v 0.02787310331 -0.001105603476 0.001892634945
v 0.02827150469 -0.0009498589931 3.782001365e-07
v 0.02916103344 -0.0005193309727 -0.001892313695
v 0.02535103032 -0.0016957154 -0.001894967256
v 0.0262136826 -0.001577203453 2.381162645e-07
v 0.02656778613 -0.001498584914 0.001893292905
v 0.02723099928 -0.001326189471 3.537547944e-07
v 0.02786934533 -0.001106708782 -0.00189265665
v 0.02655915558 -0.001500434018 -0.001893387545
f 297 306 302
f 297 301 306
f 294 300 295
f 293 300 294
f 293 299 300
f 290 296 291
f 292 301 297
f 292 296 301
f 290 306 301
f 298 303 304
f 293 298 299
f 298 304 305
f 306 311 307
f 299 305 300
f 302 306 307
f 302 307 308
f 303 309 310
f 303 310 304
f 303 308 309
f 304 310 305
f 290 311 306
f 307 311 308
f 308 311 309
f 309 311 310
f 298 305 299
f 290 310 311
f 290 301 296
f 290 300 305
f 290 305 310
f 283 285 286
f 283 286 291
f 283 291 296
f 283 296 292
f 283 292 287
f 283 287 284
f 284 288 289
f 284 289 290
f 284 290 285
f 284 287 292
f 284 292 297
f 284 297 302
f 283 284 285
f 284 308 303
f 284 302 308
f 289 295 290
f 288 295 289
f 288 294 295
f 288 293 294
f 290 295 300
f 285 290 286
f 284 293 288
f 284 298 293
f 284 303 298
f 286 290 291
o coacd_part_0015
v -0.01863088789 0.0222379002 0.001831962887
v -0.01863105093 0.02223803171 -0.001835724876
v -0.01905206947 0.02186206028 -1.884136078e-06
v -0.01946500043 0.02147584758 0.00183191869
v -0.01732911185 0.02166769777 0.001832305285
v -0.01771612564 0.02186218228 -1.891590608e-06
v -0.01946513999 0.02147604213 -0.001835681163
v -0.01733272238 0.02166990313 -0.001836062051
v -0.01915482952 0.02043843224 -1.89152505e-06
v -0.01899107728 0.02000808696 0.0018322433
v -0.01673969238 0.02133819375 -1.891080269e-06
v -0.01615958314 0.02095417556 0.001832910326
v -0.01899339372 0.02001280804 -0.001835999964
v -0.01616521384 0.02095830881 -0.001836652952
v -0.0186702393 0.01927566494 -1.876879676e-06
v -0.01830722841 0.01858215681 0.001832647649
v -0.01519441077 0.02016925705 0.001833739959
v -0.01519457516 0.02016949343 0.001826548019
v -0.01586528363 0.02074148001 -1.915559943e-06
v -0.01831329116 0.01859220197 -0.001836387037
v -0.0151954625 0.02017017205 -0.0018305552
v -0.01519531371 0.02016994717 -0.001837747154
v -0.01803403964 0.01812176692 -1.768971108e-06
v -0.01752805623 0.01740027806 0.001832956577
v -0.01515404425 0.01790898652 0.00183578323
v -0.01752618745 0.01739757056 -0.00183634061
v -0.01519217956 0.01794258765 -0.001839312173
v -0.01753090535 0.01739200982 -0.001356508245
v -0.01753359971 0.01739611246 0.001353141996
f 326 331 327
f 325 332 333
f 325 330 332
f 324 331 326
f 323 329 330
f 323 328 329
f 322 323 325
f 321 326 327
f 327 331 334
f 321 324 326
f 323 330 325
f 327 334 335
f 331 337 334
f 328 338 333
f 328 333 332
f 328 332 329
f 329 332 330
f 334 339 340
f 334 340 335
f 334 337 339
f 335 340 339
f 335 339 337
f 335 337 338
f 335 338 336
f 320 324 321
f 328 336 338
f 319 322 325
f 312 313 314
f 316 323 322
f 312 314 315
f 318 324 320
f 312 321 327
f 312 327 335
f 312 335 336
f 312 336 328
f 312 328 323
f 312 323 316
f 312 316 317
f 312 317 313
f 313 318 314
f 313 317 319
f 312 315 321
f 313 325 333
f 313 319 325
f 316 322 319
f 315 320 321
f 315 318 320
f 314 318 315
f 316 319 317
f 313 331 324
f 313 337 331
f 313 338 337
f 313 333 338
f 313 324 318
o coacd_part_0016
v -0.01505600193 -0.01760321637 0.001852901655
v -0.01506594772 -0.02027393959 0.001851386236
v -0.01509342771 -0.01764327669 -0.001850937163
v -0.01753746701 -0.01700865795 0.001848428679
v -0.01506643254 -0.02028285176 0.001085819414
v -0.01750273887 -0.02158348836 0.001848689466
v -0.0150664031 -0.02027486173 -0.001849516961
v -0.01753445569 -0.01700413056 -0.00184550228
v -0.01821803403 -0.01800550615 1.332348466e-06
v -0.01849366948 -0.01847089443 0.001848733172
v -0.01506652646 -0.0202831627 -0.001084009144
v -0.01881681362 -0.02215870668 0.001848219291
v -0.01789294136 -0.02177944434 1.192171338e-06
v -0.01750572317 -0.02158530798 -0.001846277014
v -0.01849949248 -0.01848059433 -0.00184629712
v -0.0188591519 -0.01916948372 1.21500505e-06
v -0.01918277762 -0.01990858259 0.0018484696
v -0.01965954329 -0.02138807832 0.00184810505
v -0.01924275313 -0.02177849598 3.949869876e-05
v -0.01881692715 -0.02215880194 -0.001845806313
v -0.01918488979 -0.01991291467 -0.001846049581
v -0.01934743156 -0.02034214897 1.198696393e-06
v -0.0196596813 -0.02138829584 -0.001845689844
f 352 358 359
f 346 352 353
f 346 353 354
f 347 351 354
f 348 355 349
f 349 355 350
f 350 355 356
f 350 356 357
f 352 359 360
f 357 362 358
f 353 360 354
f 355 361 356
f 356 361 357
f 357 361 362
f 358 363 359
f 358 362 363
f 359 363 360
f 361 363 362
f 345 354 351
f 352 360 353
f 345 346 354
f 341 342 345
f 344 348 349
f 344 349 350
f 341 345 351
f 341 351 347
f 341 347 343
f 341 343 348
f 341 344 350
f 341 350 357
f 341 357 358
f 341 358 352
f 341 348 344
f 341 346 342
f 342 346 345
f 343 347 354
f 343 354 360
f 343 360 363
f 343 363 361
f 343 361 355
f 343 355 348
f 341 352 346
o coacd_part_0017
v -0.009830654322 0.02142709889 0.001831338831
v -0.009936199254 0.01842775228 0.001841762968
v -0.009839761042 0.02143122801 -0.001834194386
v -0.01387593678 0.02116297818 0.001832567489
v -0.009935901099 0.01840881612 -0.001843863229
v -0.01515404607 0.01790886062 0.001835783353
v -0.0138755646 0.02116229899 -0.001836516351
v -0.01387651511 0.02116307862 0.001812447033
v -0.01519438084 0.02016918324 0.001833741241
v -0.0151921833 0.01794246297 -0.001839312265
v -0.01519528443 0.02016987403 -0.001837748446
v -0.01387613564 0.02116239422 -0.001816396089
v -0.01453883185 0.02068254626 -1.995077469e-06
f 367 371 372
f 369 372 374
f 369 374 373
f 370 374 375
f 374 376 375
f 371 376 372
f 372 376 374
f 366 373 374
f 371 375 376
f 366 368 373
f 366 374 370
f 365 369 373
f 364 369 365
f 364 372 369
f 364 367 372
f 364 371 367
f 364 375 371
f 364 370 375
f 364 366 370
f 364 368 366
f 364 365 368
f 365 373 368
o coacd_part_0018
v -0.02417348412 0.001999747842 0.001710886009
v -0.02417961143 0.001997878829 -0.001715903946
v -0.02535821386 0.001844442564 -1.603807044e-06
v -0.02417413901 0.001998802628 0.001763613933
v -0.02418012775 0.001996934111 -0.001768623785
v -0.02589896948 0.001736411959 -0.001741676884
v -0.02590794247 0.001735567414 0.001740658324
v -0.0250207866 -0.001748193156 0.001768193879
v -0.02502030841 -0.001747966241 -0.001765573396
v -0.02746218383 0.001277769993 -0.001718244178
v -0.02667458064 0.001538163024 -7.20734956e-07
v -0.02746064528 0.001279760801 0.00171752168
v -0.02587959056 -0.001634543231 -1.494063046e-07
v -0.02502111635 -0.001748830661 0.001715468664
v -0.02624061431 -0.001558055455 0.00174010536
v -0.02502066152 -0.001748619356 -0.00171283267
v -0.02623986073 -0.001557386637 -0.001742424895
v -0.02890230533 0.0006345642089 -0.001699278212
v -0.02789485641 0.001110399569 1.072628993e-07
v -0.02890038979 0.0006362003295 0.001702239955
v -0.02757681108 -0.001159801962 0.001718950183
v -0.02692309798 -0.001380676866 -1.212877874e-06
v -0.0275798833 -0.001157422083 -0.001721732159
v -0.02891300521 4.282682871e-05 -0.001699952002
v -0.0289107767 5.350410126e-05 0.001699040629
v -0.02890997996 -0.0005588042722 0.001696964397
v -0.02799095959 -0.0009974078793 -2.106660257e-06
v -0.02891312138 -0.0005547072292 -0.001703542962
f 389 392 390
f 388 395 396
f 386 395 388
f 386 394 395
f 384 389 390
f 385 389 393
f 385 392 389
f 384 391 389
f 389 391 393
f 383 387 388
f 386 388 387
f 391 397 398
f 394 401 396
f 391 398 393
f 393 398 399
f 394 400 401
f 394 396 395
f 397 399 398
f 397 402 403
f 397 403 399
f 399 403 404
f 400 404 402
f 400 402 401
f 382 387 383
f 402 404 403
f 382 386 387
f 379 383 380
f 381 394 386
f 377 378 379
f 377 379 380
f 377 380 384
f 377 384 390
f 377 390 392
f 381 386 382
f 377 385 381
f 377 381 378
f 378 381 379
f 379 381 382
f 379 382 383
f 377 392 385
f 380 388 396
f 380 383 388
f 381 400 394
f 381 404 400
f 381 393 399
f 381 385 393
f 381 399 404
f 380 397 391
f 380 402 397
f 380 401 402
f 380 396 401
f 380 391 384
o coacd_part_0019
v 0.0227711523 -0.008248385431 0.001896797647
v 0.02261904893 -0.0117913398 0.001896011873
v 0.02279083213 -0.008257173801 -0.001897074857
v 0.0003260397803 -0.01050590074 0.001920667459
v 0.02262091516 -0.01179326646 0.001818103855
v 0.02188902464 -0.01301409111 0.001895866683
v 0.02189443089 -0.01301445897 0.001471281154
v 0.02223289064 -0.01247496195 1.564302238e-07
v 0.02261891707 -0.01179093361 -0.001895727609
v 0.0002835982878 -0.01049977072 -0.001919818799
v 0.0002939423702 -0.01478549893 0.001900949795
v 0.02262074445 -0.01179281532 -0.001817822845
v 0.02189553617 -0.01301624294 -0.00147081525
v 0.02189027861 -0.0130160881 -0.001895382142
v 0.0002857974293 -0.01477475912 -0.00189938629
f 409 412 416
f 408 414 419
f 408 419 415
f 413 417 418
f 410 415 419
f 412 413 416
f 410 418 417
f 410 417 411
f 411 417 412
f 412 417 413
f 407 419 414
f 410 419 418
f 407 418 419
f 405 410 406
f 406 412 409
f 407 413 418
f 405 409 416
f 405 416 413
f 405 413 407
f 405 407 414
f 405 406 409
f 405 408 415
f 405 415 410
f 406 410 411
f 406 411 412
f 405 414 408
o coacd_part_0020
v 0.01967489336 -0.01305891387 0.001896883666
v 0.0191741576 -0.0157278971 0.001895338494
v 0.0196933664 -0.0130772968 -0.001896178713
v 0.01069006511 -0.01406000594 0.001902805871
v 0.01819432988 -0.01723024763 0.001894483148
v 0.01819882881 -0.01722592429 0.001437504789
v 0.01917296436 -0.01572713295 -0.001894149462
v 0.01067367008 -0.01404294535 -0.001901169459
v 0.01036830283 -0.01829934993 0.001894741406
v 0.01819864302 -0.01722561437 -0.001435968268
v 0.018193784 -0.01722933909 -0.001892942121
v 0.01035477938 -0.01828818569 -0.001892904402
f 422 431 427
f 426 429 430
f 424 429 425
f 424 430 429
f 424 431 430
f 424 428 431
f 423 431 428
f 423 427 431
f 422 426 430
f 422 430 431
f 421 425 429
f 421 424 425
f 420 424 421
f 420 428 424
f 420 423 428
f 420 427 423
f 420 422 427
f 420 426 422
f 420 421 426
f 421 429 426
o coacd_part_0021
v -0.01614971571 0.002049457976 0.00185399959
v -0.01614963461 -0.003257481606 0.001855516339
v -0.01609967743 0.002038421064 -0.001853575355
v -0.02413504362 0.002020275088 0.001764232309
v -0.01612838 -0.003268316072 -0.001854482294
v -0.02488899329 -0.0030193405 0.001781808652
v -0.02414130886 0.002018366751 -0.0017693355
v -0.02417229791 0.001999902783 0.001710884746
v -0.02417310015 0.001998445677 0.001763628997
v -0.0248880705 -0.003019320309 -0.001780184421
v -0.02501988272 -0.001747815485 0.001768212071
v -0.02489696651 -0.00302052612 0.0009155220451
v -0.02417905811 0.00199657626 -0.001768641212
v -0.02417842522 0.00199803377 -0.001715905209
v -0.02489642335 -0.003020548281 -0.0009138671893
v -0.02501938459 -0.001747591723 -0.001765588308
v -0.02502025226 -0.001748945513 0.001715470141
v -0.02501979744 -0.001748734209 -0.001712831194
f 435 439 440
f 437 442 443
f 438 444 445
f 439 445 444
f 439 444 447
f 439 447 449
f 443 448 449
f 439 448 442
f 439 442 440
f 442 448 443
f 443 449 446
f 446 449 447
f 435 445 439
f 439 449 448
f 435 438 445
f 441 446 447
f 434 447 444
f 432 433 436
f 432 436 434
f 432 434 438
f 432 438 435
f 432 435 440
f 432 440 442
f 432 442 437
f 434 444 438
f 433 437 443
f 433 443 446
f 433 446 441
f 433 441 436
f 434 436 441
f 434 441 447
f 432 437 433
o coacd_part_0022
v 0.02453659149 -0.003069721144 0.001895503943
v 0.02473833352 -0.006958238443 0.001895811653
v 0.02455005873 -0.003068937752 -0.001895932039
v 0.004666233333 -0.006484566667 0.0024994
v 0.02431003731 -0.008213998463 0.001895896465
v 0.02431771903 -0.008215143523 0.00113826281
v 0.02473836224 -0.006958882169 0.00185128609
v 0.02473927214 -0.006958372414 -0.001896195103
v 0.004631466667 -0.006454166667 -0.0025006
v 0.0048931 -0.0059227 0.001373233333
v 0.0003338 -0.007470433333 0.0013741
v 0.000827 -0.007720066667 0.0024994
v 0.000326290108 -0.0105054735 0.001920670113
v 0.02431863322 -0.008215651677 -0.001138736464
v 0.02447943758 -0.007747901154 -2.603772779e-07
v 0.02473927375 -0.006959012233 -0.001851669399
v 0.0243114488 -0.008214704838 -0.001896326736
v 0.0008184333333 -0.007713933333 -0.0025006
v 0.0003338 -0.007470433333 -0.001398666667
v 0.0048932 -0.0059226 -0.001399966667
v 0.0002838515335 -0.01049932113 -0.001919821078
f 454 470 466
f 454 466 463
f 454 463 455
f 455 463 464
f 455 464 456
f 456 464 465
f 457 465 463
f 457 463 466
f 459 469 468
f 458 468 469
f 459 468 460
f 460 468 467
f 460 467 470
f 460 470 462
f 454 462 470
f 463 465 464
f 458 467 468
f 460 462 461
f 453 460 461
f 452 467 458
f 453 459 460
f 450 456 465
f 450 465 457
f 450 457 452
f 450 452 458
f 450 458 469
f 450 469 459
f 450 459 453
f 450 451 456
f 450 461 462
f 450 462 454
f 450 454 451
f 451 454 455
f 451 455 456
f 452 457 466
f 452 466 470
f 452 470 467
f 450 453 461
o coacd_part_0023
v 0.01792124688 0.01727130399 0.001384493307
v 0.01792128978 0.017271247 -0.001387243997
v 0.01791532582 0.01727705542 0.001874868516
v 0.01886595695 0.01577049431 0.001858625984
v 0.01791530176 0.01727685758 -0.001877250929
v 0.01887011242 0.01577321279 -0.00186125921
v 0.01886588942 0.01577026895 0.001878098471
v -0.01752715133 0.01739979369 0.001832957001
v 0.0188700227 0.01577298064 -0.001880731104
v -0.01752530694 0.01739711097 -0.00183634093
v 0.01944778265 0.01293585694 0.001883057379
v -0.01753211513 0.01739395909 0.00135313092
v -0.01847461861 0.01588884814 0.001825371627
v -0.01847461738 0.01588786904 0.001830393995
v 0.01942013024 0.0129041738 -0.001885158628
v -0.01847465174 0.01588782915 -0.001834268406
v -0.01847465013 0.01588880844 -0.001829244706
v -0.01752942073 0.0173898564 -0.00135649666
v -0.01900982109 0.01299883833 0.001829191088
v -0.01900527744 0.01298778901 -0.001833337754
f 483 489 484
f 475 485 490
f 475 490 486
f 475 486 480
f 478 482 483
f 478 483 484
f 480 486 487
f 482 487 483
f 481 489 490
f 481 490 485
f 482 488 487
f 483 487 486
f 483 486 490
f 483 490 489
f 475 476 479
f 480 487 488
f 474 479 476
f 475 479 485
f 474 481 485
f 471 472 475
f 471 475 480
f 471 480 488
f 471 488 482
f 471 482 478
f 471 478 473
f 471 473 474
f 471 474 476
f 474 485 479
f 472 476 475
f 473 477 474
f 473 478 484
f 473 484 489
f 473 489 481
f 473 481 477
f 474 477 481
f 471 476 472
o coacd_part_0024
v 0.0003027123911 -0.02461384198 -1.007131101e-05
v 0.0003027068248 -0.02461380819 1.044855956e-05
v 0.0003012251256 -0.02471219778 -0.001869172058
v 0.001155760685 -0.02474165884 -0.001872061694
v 0.001154968775 -0.02474130956 -0.001826951855
v 0.0003008949323 -0.02470864231 0.001869919314
v 0.001153929166 -0.02473529989 0.001827382467
v 0.001154829679 -0.02473583166 0.001872496583
v 0.0002833572406 -0.01477477907 -0.001899383425
v 0.004823971686 -0.02541161223 -0.001877308861
v 0.0002915212515 -0.01478552008 0.001900947191
v 0.004823349969 -0.02541692503 0.001879495046
v 0.006889694414 -0.01445852037 -0.001902570168
v 0.006453388031 -0.02474577334 -0.001881472594
v 0.006453478085 -0.02474718963 -0.001842064788
v 0.004832124367 -0.02541637912 -0.001146063432
v 0.006905448218 -0.01447419383 0.001904378014
v 0.004831890282 -0.02541807522 0.001148241588
v 0.006454241762 -0.02474906783 0.001844698139
v 0.006454155875 -0.02474771688 0.001884102019
f 496 502 510
f 496 510 507
f 496 507 501
f 499 501 507
f 499 507 503
f 500 504 505
f 500 505 506
f 503 510 509
f 502 509 510
f 503 507 510
f 503 509 505
f 503 505 504
f 505 509 508
f 505 508 506
f 494 497 495
f 502 508 509
f 494 498 497
f 496 498 502
f 494 508 502
f 494 502 498
f 491 492 496
f 491 496 501
f 491 501 499
f 491 499 493
f 491 494 495
f 491 495 497
f 491 497 492
f 491 493 494
f 492 498 496
f 493 499 503
f 493 503 504
f 493 504 500
f 493 500 494
f 494 500 506
f 492 497 498
f 494 506 508
o coacd_part_0025
v 0.01942376215 0.01290403813 -0.001885158622
v 0.02171683009 0.01286589407 -0.001885080528
v 0.01945135113 0.01293564469 0.001883057702
v 0.01887359872 0.01577440912 -0.001880764472
v 0.02172897213 0.01286634614 -0.0007042067149
v 0.02320720898 0.0152692305 -0.001881384102
v 0.02171726765 0.01286587922 0.001882852441
v 0.01886951262 0.01577172791 0.001878132827
v 0.01887333837 0.01577498842 -0.001861258931
v 0.02034062241 0.01654308821 -0.001881218329
v 0.02172908596 0.01286632976 0.0007020031076
v 0.0234404633 0.01563054828 -1.139035576e-06
v 0.02390704864 0.01649331008 -0.001880964366
v 0.0232094383 0.01527222247 0.00187909017
v 0.02035035489 0.01654781823 0.001878969082
v 0.0188691829 0.01577226994 0.001858626263
v 0.01987579831 0.01632651119 -1.229421542e-06
v 0.02104974528 0.01682616516 -1.126700405e-06
v 0.02178723287 0.01706252179 -0.001881068207
v 0.02390719393 0.01649348245 0.001878682517
v 0.02325879767 0.01737428373 -0.001880790778
v 0.02358850529 0.0169376173 3.784783202e-05
v 0.02179155076 0.01706420501 0.001878799031
v 0.02222302674 0.01717893717 -1.121704716e-06
v 0.02325894055 0.01737440544 0.001878517421
f 521 522 524
f 520 528 529
f 520 525 528
f 520 527 525
f 518 525 526
f 519 526 527
f 517 521 524
f 522 523 530
f 519 527 520
f 522 530 524
f 530 532 535
f 523 532 530
f 533 535 534
f 525 533 528
f 525 527 526
f 528 533 529
f 529 533 534
f 529 534 531
f 531 534 535
f 531 535 532
f 516 523 522
f 523 531 532
f 515 522 521
f 511 514 520
f 514 519 520
f 515 516 522
f 511 512 515
f 511 515 521
f 511 521 517
f 511 517 513
f 511 518 526
f 511 526 519
f 511 519 514
f 511 520 529
f 511 529 531
f 511 513 518
f 511 523 516
f 511 516 512
f 512 516 515
f 513 517 524
f 513 524 530
f 513 530 535
f 513 535 533
f 513 533 525
f 511 531 523
f 513 525 518
o coacd_part_0026
v -0.02519695358 0.0126147835 -2.550038147e-06
v -0.02475363889 0.0125926501 0.001811129464
v -0.02475381808 0.01259261053 -0.001816239453
v -0.02622433866 0.01258955511 -0.001815012874
v -0.02622434006 0.01258956095 0.001809856689
v -0.02330141893 0.01239705558 0.001813599453
v -0.02402468463 0.01252046668 -2.48062814e-06
v -0.02330103467 0.01239682578 -0.001818489715
v -0.02667035941 0.01158833586 -0.0018143582
v -0.02645344887 0.01209145706 3.493400392e-05
v -0.02667035949 0.01158837862 0.001809167808
v -0.02190905386 0.01200829332 0.001819243505
v -0.02190893986 0.01200918736 0.001765155854
v -0.02286762674 0.01229859338 -2.34335806e-06
v -0.02190870347 0.0120095774 -0.001769459582
v -0.02190880722 0.01200868189 -0.001823547957
v -0.02569150859 0.0104964037 -0.001815145349
v -0.02600358593 0.01080994795 -2.610496784e-06
v -0.02569154163 0.01049659672 0.001809910943
v -0.02201020354 0.008825004321 0.00181257661
v -0.02201403726 0.00882513728 -0.001817412206
v -0.02457872938 0.009551546623 -0.001815282366
v -0.02515257185 0.01000487551 -2.634358455e-06
v -0.02457760499 0.009550974019 0.001809885709
v -0.02337788049 0.008788279933 0.00180820839
v -0.02337746451 0.00878835157 -0.00181282833
v -0.02421951288 0.009297591353 -2.52148585e-06
v -0.02337942707 0.008787965714 0.001734435629
v -0.02337898406 0.008788020455 -0.001739051327
f 552 554 553
f 548 550 549
f 547 550 548
f 547 551 550
f 547 556 551
f 544 552 553
f 546 553 554
f 544 553 546
f 543 550 551
f 552 557 558
f 547 555 556
f 552 558 554
f 561 564 562
f 555 560 563
f 555 563 564
f 555 564 561
f 555 561 556
f 557 561 562
f 557 562 559
f 557 559 558
f 559 562 560
f 560 562 563
f 562 564 563
f 543 549 550
f 554 558 559
f 541 549 543
f 544 546 545
f 541 547 548
f 536 537 538
f 536 539 540
f 536 540 537
f 537 540 546
f 537 546 554
f 537 554 559
f 537 559 560
f 537 560 555
f 537 555 547
f 537 547 541
f 537 541 542
f 537 542 538
f 536 538 539
f 538 543 551
f 541 543 542
f 540 545 546
f 541 548 549
f 538 542 543
f 539 544 545
f 539 545 540
f 538 552 544
f 538 557 552
f 538 561 557
f 538 556 561
f 538 551 556
f 538 544 539
o coacd_part_0027
v 0.0243176182 -0.008215435842 0.001138262825
v 0.02431853239 -0.008215943996 -0.001138736449
v 0.02431038073 -0.008214746514 0.001895889386
v 0.02653150983 -0.01024645335 0.00189463322
v 0.02431178637 -0.008215451309 -0.001896319702
v 0.02653222097 -0.01024700428 -0.001894782634
v 0.02277322255 -0.008248731895 0.001896796108
v 0.02751177219 -0.01134217901 0.001894326521
v 0.02684476676 -0.01056144679 2.875693692e-07
v 0.02279291919 -0.008257512335 -0.001897073809
v 0.02751180959 -0.01134217492 -0.001894474329
v 0.0226211442 -0.01179121063 0.001896010899
v 0.02705762868 -0.01235824116 0.001894322282
v 0.02729092704 -0.01185281864 3.921775778e-05
v 0.02262099821 -0.01179079439 -0.001895726791
v 0.02705766789 -0.01235827843 -0.001894467956
v 0.02262137771 -0.01179248385 0.001818071597
v 0.02409461935 -0.01216565418 0.001895115823
v 0.02557056093 -0.01236252138 0.001894620661
v 0.02601791443 -0.01238493572 -7.172898809e-08
v 0.02262101572 -0.0117911954 -0.001886073913
v 0.02409794473 -0.01216646269 -0.001895226689
v 0.02557170299 -0.01236274847 -0.00189476136
v 0.02262120632 -0.01179203154 -0.001817790693
v 0.02364887332 -0.01206618218 3.639944204e-08
v 0.02482843106 -0.01229042872 -5.519059862e-08
f 577 583 584
f 577 580 578
f 576 581 582
f 575 578 580
f 571 588 581
f 572 577 578
f 572 575 573
f 571 581 576
f 577 584 580
f 572 578 575
f 579 586 585
f 582 589 586
f 581 588 589
f 581 589 582
f 582 586 590
f 582 590 583
f 583 587 584
f 583 590 587
f 585 586 588
f 586 587 590
f 586 589 588
f 571 585 588
f 580 584 587
f 571 579 585
f 570 573 575
f 565 570 566
f 571 574 579
f 565 566 569
f 565 569 574
f 565 574 571
f 565 571 567
f 565 567 568
f 565 568 570
f 566 570 569
f 567 571 576
f 567 582 583
f 567 576 582
f 567 577 572
f 567 572 568
f 568 572 573
f 568 573 570
f 569 570 575
f 569 575 580
f 569 580 587
f 569 587 586
f 569 586 579
f 569 579 574
f 567 583 577
o coacd_part_0028
v 0.001155097406 -0.02474182456 -0.001826956237
v 0.001154059356 -0.02473581966 0.001827388288
v 0.001155815106 -0.02474210779 -0.001872061912
v 0.001422770785 -0.02587136087 5.205091193e-07
v 0.001154884682 -0.02473627847 0.001872497032
v 0.004824354327 -0.02541200364 -0.001877308279
v 0.001579493003 -0.02637700055 -0.001873139147
v 0.001583319786 -0.02638968037 0.001874681655
v 0.004823730895 -0.02541731311 0.001879494622
v 0.004832108997 -0.02541671851 -0.001146062234
v 0.00481815882 -0.02596989087 1.01451847e-06
v 0.004779774089 -0.02633860842 -0.00187504725
v 0.002179833352 -0.02783913811 -0.001873158008
v 0.00185169121 -0.02711242368 8.082984155e-07
v 0.002182216949 -0.02784527654 0.001874922775
v 0.004831874704 -0.0254184168 0.001148240304
v 0.004778513747 -0.02635064453 0.00187700077
v 0.004676198654 -0.02703693155 9.714785267e-07
v 0.004525821793 -0.02770262663 -0.001873736232
v 0.002953884236 -0.02917491564 -0.001872832845
v 0.00239046786 -0.02825040371 8.927876019e-07
v 0.00295392271 -0.0291752373 0.001874638424
v 0.004524808077 -0.02770824905 0.001875575605
v 0.00441078962 -0.02812502586 9.4011406e-07
v 0.004075184001 -0.02906455805 -0.001873160849
v 0.003515481644 -0.02912636498 -3.794101071e-05
v 0.004075196747 -0.02906478993 0.00187498495
f 601 607 602
f 602 608 609
f 602 607 608
f 600 606 601
f 597 603 604
f 599 601 606
f 598 604 605
f 597 604 598
f 603 610 611
f 599 607 601
f 603 611 605
f 615 617 616
f 605 611 612
f 607 613 608
f 608 613 609
f 609 614 615
f 609 613 614
f 610 612 611
f 610 616 612
f 612 616 617
f 613 617 614
f 614 617 615
f 603 605 604
f 596 601 602
f 610 615 616
f 595 607 599
f 591 592 595
f 591 595 599
f 591 606 600
f 591 600 596
f 596 600 601
f 591 596 593
f 591 593 594
f 591 594 592
f 592 594 595
f 593 596 602
f 593 602 609
f 591 599 606
f 593 615 610
f 593 609 615
f 595 613 607
f 595 612 617
f 595 605 612
f 595 598 605
f 595 617 613
f 594 597 598
f 593 597 594
f 593 603 597
f 593 610 603
f 594 598 595
o coacd_part_0029
v -0.01122528971 -0.02344819488 0.001033477941
v -0.01122469962 -0.02344784838 -0.001031090731
v -0.01123736731 -0.02344773399 0.001850997896
v -0.01156470244 -0.02389255788 1.350969075e-06
v -0.01123614321 -0.0234467085 -0.001848538902
v -0.01184918298 -0.02421341631 0.001850523803
v -0.01476504961 -0.02335230814 0.001850032317
v -0.01184759606 -0.02421151004 -0.001847373667
v -0.01476550375 -0.02335288425 -0.001847321847
v -0.01290683238 -0.02521784086 0.001849382676
v -0.01236130095 -0.02473581932 1.513477035e-06
v -0.01478892877 -0.02334971583 0.00021226195
v -0.01492465651 -0.02401187907 0.001849575654
v -0.01290668084 -0.02521758307 -0.001846353767
v -0.01492478471 -0.02401180825 -0.00184670543
v -0.01478894447 -0.02334970769 -0.0002110554947
v -0.01325436198 -0.02549711105 1.50925214e-06
v -0.01410472856 -0.02608171217 0.001848423638
v -0.01499437456 -0.02446097407 1.065695513e-06
v -0.01507915569 -0.02551671212 0.001848619352
v -0.01410475087 -0.02608170253 -0.001845434646
v -0.0150791845 -0.02551670138 -0.001845676233
v -0.01459515404 -0.02580490348 1.483000608e-06
f 623 628 625
f 629 633 632
f 624 629 630
f 625 628 631
f 626 632 633
f 627 634 631
f 627 631 628
f 627 635 634
f 629 632 630
f 635 637 640
f 630 636 637
f 631 634 638
f 632 639 636
f 634 635 638
f 635 640 638
f 636 639 637
f 637 639 640
f 638 640 639
f 623 627 628
f 630 632 636
f 622 632 626
f 622 639 632
f 622 638 639
f 618 619 622
f 618 622 626
f 618 626 633
f 618 633 629
f 618 624 620
f 618 620 621
f 618 621 619
f 619 621 622
f 620 623 621
f 618 629 624
f 620 630 637
f 620 637 635
f 620 635 627
f 620 627 623
f 621 623 625
f 621 625 622
f 622 625 631
f 622 631 638
f 620 624 630
o coacd_part_0030
v -0.004271322219 -0.0254322697 -0.001417757724
v -0.00427118366 -0.02543287604 0.001418542503
v -0.004266555576 -0.0254318252 -0.001856274321
v -0.004198755092 -0.0265192757 -0.001857415409
v -0.004243127937 -0.02613192063 3.250138871e-07
v -0.004266434198 -0.02543247215 0.001857131753
v -0.004198935921 -0.02651918209 0.001858429023
v -0.0005642220625 -0.02474614032 -0.001866167753
v -0.003940922332 -0.02784305562 -0.001857753924
v -0.004092759477 -0.0271886469 5.119806695e-07
v -0.0005638576543 -0.02474519927 0.001867250331
v -0.003941212866 -0.02784233258 0.001858833563
v -0.0005633118686 -0.02474547363 -0.001814731791
v -0.001003360947 -0.02644884977 -0.001861225105
v -0.003504233525 -0.02915141174 -0.001857133742
v -0.003829351141 -0.02824478962 5.340960869e-07
v -0.0005629623276 -0.02474456214 0.001815814505
v -0.001002748018 -0.02644772011 0.001862358782
v -0.003504293795 -0.02915138056 0.001858223598
v -0.0008386425556 -0.02591246002 5.616249736e-07
v -0.001275140272 -0.02718212452 5.611743973e-07
v -0.001609008564 -0.02792358873 -0.001858900145
v -0.002384125901 -0.029261532 -0.001857757838
v -0.002945134983 -0.02921284348 3.902672804e-05
v -0.001608338128 -0.02792244711 0.001860002961
v -0.00238401812 -0.02926143406 0.001858853405
v -0.001818182053 -0.02833149194 5.504074723e-07
f 654 660 658
f 653 657 660
f 653 660 654
f 652 656 659
f 648 653 654
f 649 652 650
f 649 656 652
f 649 655 656
f 654 658 661
f 651 658 657
f 654 661 662
f 665 666 667
f 655 664 659
f 655 659 656
f 657 658 660
f 658 665 661
f 659 664 666
f 661 665 662
f 662 665 667
f 662 667 663
f 647 650 652
f 663 666 664
f 663 667 666
f 655 663 664
f 646 658 651
f 641 651 657
f 646 666 665
f 646 665 658
f 641 642 646
f 641 646 651
f 641 657 653
f 641 653 648
f 641 648 643
f 641 643 644
f 641 645 642
f 642 645 647
f 642 647 646
f 643 648 654
f 641 644 645
f 643 662 663
f 643 654 662
f 646 652 659
f 646 647 652
f 644 647 645
f 644 650 647
f 646 659 666
f 643 649 644
f 643 655 649
f 643 663 655
f 644 649 650
o coacd_part_0031
v 0.02524509482 -0.00305723743 0.0011797725
v 0.02524559432 -0.003057254256 -0.00118018373
v 0.02523864362 -0.003056264425 0.001895065378
v 0.02798766985 -0.004635628551 0.00189414074
v 0.02733433652 -0.004251440684 -2.256683859e-07
v 0.02523917681 -0.003056377014 -0.001895473104
v 0.02798778529 -0.004635626829 -0.00189460154
v 0.02453699755 -0.003069711086 0.001895503693
v 0.02919909172 -0.005520781234 0.001893833436
v 0.0283648454 -0.004881977549 -2.314987555e-07
v 0.02455045882 -0.003068927576 -0.001895931784
v 0.02919910726 -0.00552076346 -0.001894299359
v 0.02473875922 -0.006958281446 0.001895811347
v 0.02896910034 -0.00661639315 0.001893867814
v 0.02909044368 -0.006069719757 3.904870508e-05
v 0.02473969791 -0.006958415384 -0.001896194827
v 0.02896908256 -0.006616431142 -0.001894336435
v 0.0247387844 -0.006958908975 0.001851290577
v 0.02569323975 -0.00703597972 -2.213330785e-07
v 0.02611094203 -0.007038356216 0.001894824456
v 0.02754392074 -0.006925253663 0.001894206288
v 0.02797921883 -0.006855032687 -2.370299899e-07
v 0.02473969598 -0.006959039046 -0.001851673915
v 0.02611218217 -0.007038519064 -0.001895302003
v 0.02754415509 -0.006925334502 -0.00189467629
v 0.0268325694 -0.007007799217 -2.387685031e-07
f 681 684 682
f 675 683 690
f 675 690 685
f 675 685 680
f 676 681 682
f 676 679 677
f 679 682 684
f 680 685 686
f 680 686 687
f 681 688 689
f 675 678 683
f 683 691 686
f 683 686 690
f 684 689 692
f 685 690 686
f 686 691 687
f 687 691 693
f 687 693 688
f 688 692 689
f 688 693 692
f 691 692 693
f 681 689 684
f 674 677 679
f 676 682 679
f 673 691 683
f 668 673 678
f 668 678 675
f 668 675 670
f 668 670 671
f 668 671 672
f 668 672 669
f 669 672 674
f 669 674 673
f 670 675 680
f 670 680 687
f 670 687 688
f 668 669 673
f 670 681 676
f 670 676 671
f 671 676 677
f 671 677 674
f 673 683 678
f 671 674 672
f 673 674 679
f 673 679 684
f 673 684 692
f 673 692 691
f 670 688 681
o coacd_part_0032
v -0.023852289 -0.0164941391 -0.001836521338
v -0.02319130921 -0.01739051998 -0.001836881112
v -0.02352717489 -0.016945899 3.936803281e-05
v -0.02385230006 -0.01649413706 0.001839046669
v -0.02337950273 -0.01562072813 1.255883846e-06
v -0.02314508829 -0.01525637724 -0.00183683675
v -0.02319123495 -0.01739050797 0.001839412428
v -0.02169225436 -0.0170732423 -0.001837524516
v -0.02213307224 -0.01719039109 1.269500438e-06
v -0.02314493344 -0.01525611083 0.001839353389
v -0.02274945363 -0.01469944407 1.240099955e-06
v -0.02230427779 -0.01416155204 -0.00183669167
v -0.02169159132 -0.01707304169 0.00184006432
v -0.02021386838 -0.01654328446 -0.001838939334
v -0.02093263371 -0.01682945459 1.276572992e-06
v -0.02230414228 -0.0141613375 0.001839158293
v -0.0220512512 -0.01388293281 1.192801809e-06
v -0.02139220283 -0.01326150919 -0.00183502673
v -0.02021285678 -0.01654284859 0.001841518063
v -0.01956708494 -0.01620506437 -0.001840265985
v -0.01972366995 -0.01631489222 1.309449058e-06
v -0.02139269215 -0.01326205546 0.001837284377
v -0.0200032485 -0.01327760952 -0.001837511242
v -0.01956658501 -0.01620484912 0.001842885842
v -0.01955247121 -0.01622084754 -0.0002985839886
v -0.01955250544 -0.01622086259 0.0003012123067
v -0.02000701944 -0.01327779628 0.001840127769
f 707 712 708
f 706 708 712
f 705 710 711
f 705 709 710
f 701 706 702
f 703 709 704
f 701 708 706
f 701 707 708
f 707 713 714
f 704 709 705
f 707 714 712
f 712 714 717
f 710 715 711
f 711 715 720
f 711 720 716
f 713 718 714
f 713 716 720
f 713 720 717
f 713 717 719
f 713 719 718
f 714 719 717
f 700 702 706
f 709 715 710
f 699 704 705
f 714 718 719
f 698 703 699
f 694 695 696
f 694 696 697
f 694 697 698
f 694 698 699
f 694 699 705
f 694 705 711
f 694 711 716
f 694 716 713
f 694 713 707
f 694 707 701
f 694 701 695
f 699 703 704
f 695 701 702
f 695 702 700
f 696 700 697
f 697 700 706
f 697 706 712
f 697 712 717
f 697 717 720
f 697 720 715
f 697 715 709
f 697 709 703
f 697 703 698
f 695 700 696
o coacd_part_0033
v -0.02415411978 -0.003026383358 0.00178792141
v -0.02432782989 -0.00703687184 0.001805305515
v -0.02413267046 -0.003027741787 -0.001786502105
v -0.02488916557 -0.003019309623 0.00178180257
v -0.0243278533 -0.007039180724 0.001787959753
v -0.02575130505 -0.007115376926 0.001793411417
v -0.0243266929 -0.007038921152 -0.001802192355
v -0.02488824925 -0.003019289335 -0.001780178144
v -0.02489697105 -0.003020482162 0.0009155220659
v -0.02765446109 -0.004698980854 0.001783920105
v -0.02432672333 -0.007039694849 -0.001784838535
v -0.02532571654 -0.007112030622 1.44119555e-06
v -0.02720363295 -0.007001660794 0.001786878745
v -0.02648272094 -0.007084192255 1.285697684e-06
v -0.02575198251 -0.007115249499 -0.001790567256
v -0.02765552384 -0.004699639469 -0.001782050979
v -0.02489642789 -0.003020504323 -0.0009138671684
v -0.02803511178 -0.004947747103 1.257872131e-06
v -0.02887663077 -0.005590682996 0.001780474238
v -0.0286456157 -0.006689965916 0.001782380552
v -0.02764388117 -0.006930248371 1.138375701e-06
v -0.02720504571 -0.007001377277 -0.001784607232
v -0.02887668421 -0.005590747572 -0.001778441214
v -0.02876735855 -0.006141557006 -3.554869763e-05
v -0.02864572761 -0.006689901581 -0.001780235138
f 730 738 739
f 730 736 738
f 729 736 730
f 726 734 735
f 728 736 737
f 727 731 735
f 726 735 732
f 731 732 735
f 729 737 736
f 733 740 741
f 739 743 744
f 733 742 734
f 734 742 735
f 736 743 738
f 738 743 739
f 739 744 740
f 740 744 745
f 740 745 741
f 741 745 742
f 726 733 734
f 733 741 742
f 743 745 744
f 725 732 731
f 724 729 730
f 725 726 732
f 721 722 725
f 721 725 731
f 721 731 727
f 721 727 723
f 721 728 737
f 721 737 729
f 721 729 724
f 721 724 730
f 721 730 739
f 721 723 728
f 721 740 733
f 721 733 726
f 721 726 722
f 722 726 725
f 723 727 735
f 723 735 742
f 723 742 745
f 723 745 743
f 723 743 736
f 721 739 740
f 723 736 728
o coacd_part_0034
v 0.02189436439 -0.01301456532 0.001471281169
v 0.02189546967 -0.01301634929 -0.001470815235
v 0.0218900153 -0.01301419732 0.001895856465
v 0.0231664075 -0.01462327839 6.934424042e-07
v 0.02189126209 -0.0130161894 -0.001895371977
v 0.02272016861 -0.01408394644 0.001894745748
v 0.01967530974 -0.01305931024 0.001896883206
v 0.02271848321 -0.01408216128 -0.001894156776
v 0.02356521394 -0.01518595969 0.001894226887
v 0.02356355601 -0.01518367866 -0.00189351862
v 0.01969377781 -0.01307768831 -0.00189617824
v 0.01917443968 -0.0157275849 0.00189533472
v 0.02427351272 -0.01642624542 0.001893946855
v 0.02379964919 -0.01554984209 7.342171872e-07
v 0.02427340976 -0.01642609839 -0.001893209403
v 0.01917324619 -0.01572682064 -0.00189414577
v 0.01917455272 -0.0157251244 0.001863816289
v 0.02067002072 -0.01649160276 0.001894706673
v 0.02361260149 -0.0173248378 0.001893921024
v 0.02394835045 -0.016879068 3.964974926e-05
v 0.02361250159 -0.01732478631 -0.001893160882
v 0.01917337172 -0.01572437009 -0.001862628087
v 0.02066290768 -0.0164881355 -0.001893771721
v 0.02019756628 -0.01627336005 5.082773031e-07
v 0.02137815398 -0.01677297928 4.518897422e-07
v 0.02212602761 -0.01701162844 0.001894213861
v 0.02256349135 -0.01712768799 4.06372728e-07
v 0.02212341387 -0.01701064584 -0.001893424823
f 760 765 766
f 758 765 760
f 758 764 765
f 758 760 759
f 757 762 763
f 752 762 757
f 754 759 755
f 754 758 759
f 752 767 762
f 761 768 767
f 755 759 760
f 762 767 769
f 768 773 770
f 763 768 770
f 763 770 771
f 763 769 768
f 764 766 765
f 771 773 772
f 764 771 772
f 764 772 766
f 766 772 773
f 767 768 769
f 770 773 771
f 752 761 767
f 762 769 763
f 752 756 761
f 747 749 750
f 750 768 761
f 750 761 756
f 746 747 750
f 746 750 756
f 746 756 752
f 746 752 748
f 746 748 749
f 746 749 747
f 748 752 757
f 748 757 763
f 748 763 771
f 748 771 764
f 748 751 749
f 748 758 754
f 750 773 768
f 748 764 758
f 750 760 766
f 750 755 760
f 750 753 755
f 750 766 773
f 749 754 755
f 749 751 754
f 749 753 750
f 748 754 751
f 749 755 753
o coacd_part_0035
v 0.01819926221 -0.0172265541 0.001437504809
v 0.01819907642 -0.01722624418 -0.001435968249
v 0.01819428764 -0.01723078825 0.001894483016
v 0.01897934226 -0.01842620955 0.001893585199
v 0.01870808428 -0.01796597258 7.913398198e-07
v 0.01897728753 -0.01842279531 -0.001891948354
v 0.01819373687 -0.01722987335 -0.001892941973
v 0.0158139932 -0.01774854412 0.001895057624
v 0.01966128098 -0.01985249543 0.001893027196
v 0.01933946237 -0.01911551804 8.257856285e-07
v 0.01966030925 -0.01985056054 -0.001891365155
v 0.01581401025 -0.01775179908 -0.001893525296
v 0.01584140517 -0.02002499188 0.00189355989
v 0.02013454581 -0.02132361613 0.001892726949
v 0.0198240639 -0.02028165478 8.362358284e-07
v 0.02013447922 -0.02132354808 -0.001891060254
v 0.01584023919 -0.02002436652 -0.001891975976
v 0.01651101567 -0.0205952945 7.975823748e-07
v 0.01680955557 -0.02080989062 0.001893291903
v 0.01929088621 -0.02209474528 0.001892676741
v 0.01971687671 -0.02171427386 8.347403798e-07
v 0.01929080826 -0.02209468039 -0.001891009855
v 0.01680446066 -0.02080625262 -0.001891639605
v 0.01738750928 -0.02119140572 8.329361309e-07
v 0.01798313606 -0.02152341897 0.001892916984
v 0.01836947934 -0.02171716791 8.380428485e-07
v 0.01798102342 -0.02152213047 -0.001891253807
f 787 793 794
f 781 785 790
f 782 787 788
f 782 788 784
f 782 784 783
f 784 788 789
f 786 791 792
f 786 790 791
f 787 789 788
f 787 794 789
f 798 800 799
f 790 796 791
f 791 796 792
f 792 796 797
f 792 797 798
f 793 795 794
f 793 798 799
f 793 799 795
f 795 799 800
f 796 800 797
f 797 800 798
f 779 785 780
f 789 794 795
f 779 790 785
f 781 790 786
f 779 800 796
f 779 796 790
f 774 775 780
f 774 780 785
f 774 785 781
f 774 781 776
f 774 776 777
f 774 777 778
f 775 778 779
f 775 779 780
f 776 781 786
f 776 786 792
f 774 778 775
f 776 798 793
f 779 795 800
f 776 792 798
f 779 784 789
f 779 783 784
f 777 779 778
f 779 789 795
f 777 782 783
f 776 782 777
f 776 787 782
f 776 793 787
f 777 783 779
o coacd_part_0036
v -0.01955237474 -0.01622079455 -0.0002985839859
v -0.01955240897 -0.0162208096 0.0003012123094
v -0.01956713769 -0.01620464908 -0.00184026592
v -0.01753445137 -0.01700413156 -0.001845502292
v -0.0195666365 -0.01620443234 0.001842885784
v -0.01753746258 -0.01700865884 0.001848428691
v -0.02028502428 -0.008568390458 -0.001827816612
v -0.01509342771 -0.01764327669 -0.001850937163
v -0.02030603617 -0.008563374136 0.001830825122
v -0.01505600193 -0.01760321637 0.001852901655
v -0.0158058083 -0.008884271387 -0.001852933582
v -0.01582380639 -0.008877910964 0.001855743872
f 804 808 810
f 808 812 810
f 808 811 812
f 807 812 811
f 807 809 812
f 805 812 809
f 805 810 812
f 805 806 810
f 804 810 806
f 803 808 804
f 801 807 803
f 803 807 811
f 802 806 805
f 801 806 802
f 801 804 806
f 801 803 804
f 801 809 807
f 801 805 809
f 801 802 805
f 803 811 808
o coacd_part_0037
v -0.01614963461 -0.003257481606 0.001855516339
v -0.01582388421 -0.008877029688 0.001855744119
v -0.01612838 -0.003268316072 -0.001854482294
v -0.02415411978 -0.003026383358 0.00178792141
v -0.01580587953 -0.008883382104 -0.001852934048
v -0.02386820811 -0.008462393377 0.001815584609
v -0.02413267046 -0.003027741787 -0.001786502105
v -0.02432782999 -0.007036718089 0.001805304651
v -0.02386818682 -0.00846241374 -0.001814257736
v -0.0243279604 -0.007038823511 0.001787959969
v -0.0238718897 -0.008462838792 0.001492438759
v -0.02432669273 -0.007038777768 -0.001802191385
v -0.02387196392 -0.008462814662 -0.001491104869
v -0.02432683043 -0.007039337635 -0.001784838319
v -0.02409265712 -0.007822004599 1.087604868e-06
f 816 824 826
f 816 826 822
f 825 827 826
f 818 820 822
f 818 822 823
f 822 827 823
f 821 826 824
f 822 826 827
f 823 827 825
f 816 819 824
f 821 825 826
f 815 824 819
f 816 822 820
f 815 817 821
f 815 821 824
f 813 817 815
f 813 815 819
f 813 819 816
f 813 816 820
f 813 814 817
f 813 818 814
f 814 818 823
f 814 823 825
f 814 825 821
f 814 821 817
f 813 820 818
o coacd_part_0038
v -0.005632949769 -0.02479410988 -0.001212917543
v -0.005633148611 -0.02479421464 0.001214236119
v -0.005632066234 -0.0247882798 -0.001850304023
v -0.004266264658 -0.02543145145 -0.001856274584
v -0.004271341228 -0.02543192261 -0.001417757977
v -0.005632265887 -0.02478851289 0.001851612241
v -0.004271202606 -0.0254325291 0.001418542745
v -0.004266143303 -0.0254320992 0.00185713201
v -0.008435716414 -0.004244497827 -0.002084543462
v -0.0005646139322 -0.0247458328 -0.001866167651
v -0.007678233827 -0.003925984024 0.001921605407
v -0.0005642490651 -0.02474489391 0.001867250245
v -0.004802733333 -0.0058469 -0.0025006
v 0.0003006516304 -0.02471205821 -0.001869170347
v 0.0003021260714 -0.02461383058 -1.010093452e-05
v -0.0005632357128 -0.02474517361 -0.001814734667
v -0.0047753 -0.005822033333 0.0024994
v -0.0005628862071 -0.02474426215 0.001815817372
v 0.0003021208843 -0.02461379816 1.047837031e-05
v 0.0003003222524 -0.02470850731 0.001869917911
v -0.004964933333 -0.005273833333 -0.0013973
v 0.0003338 -0.007470433333 -0.001398666667
v 0.0008235666667 -0.0074544 -0.002225133333
v -0.004963833333 -0.005275 0.001375366667
v 0.000827 -0.007720066667 0.0024994
v 0.0003338 -0.007470433333 0.0013741
f 840 849 850
f 836 844 851
f 836 851 848
f 836 848 840
f 837 841 842
f 837 842 843
f 839 845 846
f 839 846 847
f 840 848 849
f 841 850 849
f 842 845 843
f 841 853 852
f 841 852 847
f 841 847 846
f 841 846 842
f 842 846 845
f 833 844 838
f 844 852 853
f 844 853 851
f 848 851 853
f 848 853 849
f 841 849 853
f 833 852 844
f 836 838 844
f 833 839 847
f 828 829 833
f 828 833 838
f 828 838 836
f 833 847 852
f 828 830 831
f 828 831 832
f 828 832 834
f 828 834 829
f 829 834 835
f 829 835 833
f 830 836 840
f 828 836 830
f 830 850 841
f 830 841 837
f 830 837 831
f 831 837 843
f 831 843 845
f 831 845 839
f 831 839 835
f 831 835 834
f 831 834 832
f 833 835 839
f 830 840 850
o coacd_part_0039
v -0.01506625798 -0.02028337414 -0.001084009201
v -0.01506616406 -0.0202830632 0.001085819357
v -0.01506594957 -0.0202744122 -0.001849517926
v -0.01478894085 -0.02334968837 -0.0002110538753
v -0.01506548509 -0.02027348195 0.001851387134
v -0.01478892516 -0.02334969651 0.0002122603279
v -0.01476541404 -0.02335288563 -0.001847321883
v -0.01609927398 0.002038434648 -0.001853578909
v -0.01476496003 -0.02335230981 0.001850032357
v -0.01614930981 0.002049467178 0.001854003277
v -0.01123653692 -0.02344669445 -0.00184853882
v -0.01184902882 0.002213442969 -0.001889372255
v -0.01123775984 -0.02344772065 0.001850998007
v -0.01189968851 0.002214949789 0.001889955811
v -0.01022968739 -0.02341864685 -0.001847870033
v -0.0102317695 -0.02343776938 -6.069874186e-05
v -0.01122469962 -0.02344784838 -0.001031090731
v -0.01122528971 -0.02344819488 0.001033477941
v -0.01023180491 -0.02343779017 6.317212219e-05
v -0.01023018765 -0.02341926473 0.001850280023
f 861 867 865
f 861 863 867
f 858 862 866
f 858 873 867
f 858 866 873
f 864 868 869
f 858 867 863
f 864 869 870
f 866 871 872
f 865 873 872
f 865 872 869
f 865 869 868
f 866 872 873
f 869 872 871
f 869 871 870
f 858 859 862
f 865 867 873
f 857 862 859
f 854 863 861
f 857 871 866
f 857 866 862
f 854 855 858
f 854 858 863
f 854 856 857
f 854 857 859
f 854 859 855
f 855 859 858
f 854 861 856
f 856 861 865
f 856 865 868
f 856 868 864
f 856 864 860
f 857 860 864
f 857 864 870
f 857 870 871
f 856 860 857
o coacd_part_0040
v 0.01433086352 0.02109026283 0.001865476323
v 0.01564089362 0.02009143046 0.00187068873
v 0.01564080903 0.02009369429 0.001865924252
v 0.01499055705 0.02060822196 -1.316224021e-06
v 0.01433032194 0.02108899085 -0.001868294738
v 0.01038625491 0.02137461455 0.001858878955
v 0.01563537879 0.01786628091 0.001873651198
v 0.01564161734 0.02009411721 -0.001868413321
v 0.01564170115 0.02009185268 -0.001873177816
v 0.01039041229 0.02138241075 -0.001862349844
v 0.01048732377 0.01835869749 0.001867551936
v 0.01563057466 0.01786276285 -0.001876060531
v 0.01049449332 0.01837158434 -0.001870783979
f 877 881 878
f 878 881 882
f 878 882 885
f 878 885 886
f 879 886 884
f 879 883 886
f 880 884 886
f 880 886 885
f 876 881 877
f 878 886 883
f 875 881 876
f 874 884 880
f 875 885 882
f 875 880 885
f 874 880 875
f 874 879 884
f 874 883 879
f 874 878 883
f 874 877 878
f 874 876 877
f 874 875 876
f 875 882 881
o coacd_part_0041
v 0.01039041229 0.02138241075 -0.001862349844
v 0.01036127843 0.02355180987 -0.001857831448
v 0.01136486888 0.02133712918 -0.001864155371
v 0.01038625491 0.02137461455 0.001858878955
v 0.01036209437 0.02356412861 -0.0005844024193
v 0.01133660997 0.02311357984 -0.001861077205
v 0.01136094671 0.02133259615 0.001860891023
v 0.01036162597 0.02355140911 0.001853152503
v 0.01059911856 0.02346340824 -2.264162301e-06
v 0.01036217781 0.0235639361 0.0005797140473
v 0.01133711265 0.02311358008 0.00185707557
f 890 893 897
f 890 897 894
f 891 895 892
f 889 897 893
f 892 895 897
f 894 897 896
f 895 896 897
f 891 896 895
f 889 892 897
f 887 889 893
f 887 891 888
f 887 888 892
f 887 892 889
f 887 893 890
f 888 891 892
f 887 894 896
f 887 896 891
f 887 890 894
o coacd_part_0042
v -0.01494602446 0.02557543557 -0.001833291155
v -0.01494602617 0.0255754013 0.001828701767
v -0.01446801982 0.025860599 -4.026373241e-05
v -0.01398333156 0.02613466383 -0.001833089629
v -0.01479273503 0.02408138805 -0.001833762701
v -0.01486181556 0.02452681545 -1.918417054e-06
v -0.01398332433 0.02613461957 0.001828485842
v -0.01479258969 0.0240804159 0.00182919815
v -0.01313981947 0.02555439538 -2.294231793e-06
v -0.01279532823 0.02527754117 -0.001833404287
v -0.01443689933 0.0226136074 -0.00183467775
v -0.0146398628 0.02333845158 -1.508614493e-06
v -0.01279466397 0.02527680564 0.001828794012
v -0.0144369459 0.02261301726 0.001830239189
v -0.01225417657 0.02479883054 -2.255065365e-06
v -0.01174658291 0.02428037942 -0.00183351821
v -0.01387575935 0.02116229067 -0.001836516353
v -0.01387617999 0.02116236207 -0.001816396091
v -0.01428592248 0.02216617337 -1.40461327e-06
v -0.01174386776 0.02427729936 0.001828947266
v -0.01387655947 0.02116304647 0.001812447032
v -0.01387613369 0.02116297238 0.001832567462
v -0.01146399994 0.02396142906 -1.995962083e-06
v -0.01085866583 0.02317196339 -0.001826092873
v -0.01085870295 0.02316974186 -0.001831822502
v -0.01089088171 0.02139469525 -0.001835281838
v -0.01085712418 0.02317094766 0.001828561123
v -0.01088153151 0.0213852269 0.001831892626
f 906 910 907
f 907 912 913
f 911 918 919
f 907 910 912
f 908 911 909
f 908 914 915
f 908 915 916
f 908 916 911
f 910 917 912
f 911 916 918
f 912 917 913
f 914 923 925
f 913 921 922
f 913 917 920
f 905 909 911
f 914 925 919
f 914 919 918
f 914 918 915
f 915 918 916
f 917 924 920
f 920 924 921
f 921 925 923
f 921 923 922
f 913 920 921
f 904 910 906
f 921 924 925
f 902 908 909
f 902 909 905
f 898 900 901
f 898 901 907
f 898 907 913
f 898 913 922
f 898 922 923
f 898 923 914
f 898 914 908
f 898 908 902
f 898 902 903
f 898 903 899
f 899 904 900
f 898 899 900
f 899 905 911
f 899 911 919
f 899 919 925
f 899 925 924
f 899 924 917
f 899 917 910
f 899 910 904
f 900 904 901
f 901 906 907
f 901 904 906
f 899 903 905
f 902 905 903
o coacd_part_0043
v 0.01136496544 0.02133712539 -0.001864155563
v 0.01433018795 0.02108899698 -0.001868294459
v 0.01136104337 0.02133259158 0.001860891207
v 0.01133663722 0.02311364388 -0.001861074508
v 0.01474255031 0.02209213541 -1.486245281e-06
v 0.01433072932 0.02109026802 0.001865476009
v 0.01489452201 0.0225427263 -0.001864838751
v 0.01133714028 0.02311364415 0.001857072834
v 0.01193786861 0.02389523583 -1.764697848e-06
v 0.01221693752 0.02420953069 -0.00186256711
v 0.01489305418 0.02253887073 0.001861754196
v 0.01524856956 0.02400505263 -0.001863473179
v 0.01509603035 0.02326297279 -1.554208418e-06
v 0.01221569921 0.02420817306 0.001859385494
v 0.01272184601 0.02472508799 -1.61257131e-06
v 0.01325991826 0.02520014412 -0.001862783645
v 0.01524811224 0.02400347849 0.001860338759
v 0.01540093549 0.02549380307 -0.001862922431
v 0.01531732812 0.02444841875 -1.570791497e-06
v 0.01325876049 0.02519910252 0.001859634296
v 0.01360198847 0.02547540512 -1.584904921e-06
v 0.01444060807 0.02605168003 -0.001862554616
v 0.01540089425 0.02549374949 0.001859778784
v 0.01492405154 0.02577834952 -4.016751396e-05
v 0.01444053995 0.02605161665 0.001859407095
f 937 944 942
f 937 943 944
f 936 938 942
f 932 938 936
f 935 939 940
f 934 939 935
f 933 939 934
f 937 942 938
f 935 940 941
f 939 945 940
f 943 947 949
f 941 945 946
f 941 946 947
f 942 944 948
f 943 949 948
f 943 948 944
f 945 950 946
f 946 950 947
f 947 950 949
f 948 949 950
f 932 937 938
f 940 945 941
f 930 936 931
f 928 936 942
f 929 934 935
f 926 927 931
f 926 931 928
f 926 928 933
f 926 933 929
f 926 929 935
f 930 932 936
f 926 941 947
f 926 947 943
f 926 943 937
f 926 937 932
f 926 935 941
f 927 930 931
f 927 932 930
f 928 931 936
f 928 942 948
f 928 948 950
f 928 950 945
f 928 945 939
f 928 939 933
f 929 933 934
f 926 932 927
o coacd_part_0044
v -0.01089076999 0.02139492004 -0.00183528125
v -0.01085859783 0.0231694833 -0.001831822911
v -0.009839757126 0.0214314455 -0.00183419372
v -0.01088142102 0.02138545227 0.001831892045
v -0.01085863448 0.02317197819 -0.001826092875
v -0.009814421315 0.02363873111 -0.001828016131
v -0.009830651454 0.02142731615 0.001831338149
v -0.01085706211 0.02317090088 0.00182856282
v -0.01011972818 0.02351996417 -1.67439897e-06
v -0.00981482244 0.02364912931 -0.0007397037048
v -0.009813969039 0.02363799951 0.001824748623
v -0.009814825713 0.02364887479 0.0007363853815
f 954 957 961
f 954 961 958
f 955 959 960
f 953 961 957
f 955 958 959
f 959 962 960
f 958 962 959
f 955 960 956
f 953 962 961
f 958 961 962
f 953 956 960
f 952 955 956
f 951 955 952
f 951 958 955
f 951 954 958
f 951 957 954
f 951 953 957
f 951 956 953
f 951 952 956
f 953 960 962
o coacd_part_0045
v -0.02239579583 -0.00849483502 0.001820775752
v -0.02223098719 -0.0118559477 0.001829495729
v -0.02239382658 -0.008499808567 -0.001818872018
v -0.02386887059 -0.008462647553 0.001815576562
v -0.02223091708 -0.01185628455 0.001815870528
v -0.02370701416 -0.01225853102 0.001824003988
v -0.0222306217 -0.01185560703 -0.001827663163
v -0.02386885191 -0.008462666749 -0.001814249731
v -0.02387185153 -0.008462949596 0.001492438686
v -0.02504634663 -0.009382773875 0.00182025121
v -0.0222305547 -0.01185594707 -0.00181403754
v -0.02325570222 -0.0121573941 6.627949131e-07
v -0.02519498304 -0.01245779952 0.001821563732
v -0.02444650352 -0.01238435864 3.837639027e-07
v -0.02370832233 -0.01225883652 -0.001821844992
v -0.02504564824 -0.009382486393 -0.001817813438
v -0.02387192575 -0.008462925467 -0.001491104941
v -0.02562261408 -0.00983919458 1.16203736e-06
v -0.02616232507 -0.01033308368 0.001820299173
v -0.02669341063 -0.01245428743 0.001820252976
v -0.02564475088 -0.0124800316 4.324049014e-07
v -0.02519540735 -0.01245782927 -0.0018192672
v -0.02616245633 -0.01033335656 -0.001817932163
v -0.02647687783 -0.01064974349 1.175104957e-06
v -0.02714881105 -0.01143499979 0.001819499611
v -0.02692695585 -0.01194706274 -3.648486671e-05
v -0.02669344095 -0.0124542729 -0.001817927693
v -0.02714881772 -0.01143505453 -0.001817155028
f 975 983 984
f 975 982 983
f 973 974 977
f 972 978 980
f 968 977 974
f 971 979 978
f 970 978 979
f 969 973 977
f 975 984 976
f 971 978 972
f 976 984 977
f 982 987 988
f 980 985 981
f 981 985 986
f 981 986 987
f 968 976 977
f 982 988 989
f 982 989 983
f 983 989 984
f 985 990 986
f 986 990 987
f 987 990 988
f 988 990 989
f 978 985 980
f 968 975 976
f 972 980 981
f 967 968 974
f 967 974 973
f 963 964 967
f 963 967 973
f 963 973 969
f 963 969 965
f 963 965 970
f 963 970 979
f 963 979 971
f 963 966 972
f 963 972 981
f 963 981 987
f 963 987 982
f 963 971 966
f 963 975 968
f 966 971 972
f 963 982 975
f 965 985 978
f 965 990 985
f 965 989 990
f 965 984 989
f 965 978 970
f 965 969 977
f 964 968 967
f 963 968 964
f 965 977 984
o coacd_part_0046
v 0.02557250949 0.01252955695 -1.125228494e-06
v 0.02513197904 0.01250732833 -0.001886037951
v 0.02513284774 0.01250744003 0.001884526499
v 0.02659275537 0.01250371746 0.001884267699
v 0.02659271992 0.01250370055 -0.001885755552
v 0.02368890262 0.01231348758 -0.001886318966
v 0.0244083376 0.01243633536 -1.171710749e-06
v 0.02369042567 0.01231376171 0.001884685287
v 0.02703771826 0.01150594892 0.001884400919
v 0.02682118912 0.01200746502 -3.98353984e-05
v 0.02703767491 0.0115059655 -0.00188587306
v 0.02228296452 0.01192204122 -0.001886445776
v 0.02228289254 0.01192260987 -0.001877957949
v 0.02325893112 0.01221671069 -1.624337511e-06
v 0.02228362224 0.0119226593 0.001875996942
v 0.02228370198 0.01192209177 0.001884484978
v 0.02606627136 0.01042169204 0.001884808517
v 0.02637585438 0.01073263126 -7.186064809e-07
v 0.02606558208 0.01042126226 -0.00188626153
v 0.02238107524 0.00876653447 -0.001889399875
v 0.02240389155 0.008768107278 0.001888262865
v 0.02496339109 0.009484212708 0.001885726118
v 0.02553147653 0.009933212587 -6.820291575e-07
v 0.02496135463 0.009483057511 -0.001887076618
v 0.02377146093 0.008726848095 -0.001888712847
v 0.02377257385 0.008727186176 0.001887677089
v 0.02460594036 0.009231139571 -6.050884154e-07
v 0.02377296504 0.008726579368 -0.001811878797
v 0.02377400616 0.00872688124 0.001810844592
f 998 1005 1006
f 1007 1012 1013
f 999 1001 1000
f 999 1007 1008
f 999 1008 1001
f 1001 1008 1009
f 1002 1010 1011
f 1002 1011 1006
f 1002 1006 1005
f 1002 1005 1003
f 1003 1005 1004
f 1007 1013 1009
f 1017 1019 1018
f 1009 1013 1014
f 1010 1015 1018
f 1010 1018 1019
f 1010 1019 1016
f 1010 1016 1011
f 1012 1016 1017
f 1012 1017 1014
f 1012 1014 1013
f 1014 1017 1015
f 1015 1017 1018
f 1016 1019 1017
f 998 1004 1005
f 1007 1009 1008
f 996 1004 998
f 991 992 993
f 996 1002 1003
f 991 993 994
f 991 994 995
f 991 995 992
f 992 995 1001
f 992 1001 1009
f 992 1009 1014
f 992 1014 1015
f 996 1003 1004
f 992 1010 1002
f 992 1002 996
f 992 996 997
f 992 997 993
f 992 1015 1010
f 993 998 1006
f 993 997 998
f 995 1000 1001
f 994 1000 995
f 994 999 1000
f 993 999 994
f 996 998 997
f 993 1012 1007
f 993 1016 1012
f 993 1011 1016
f 993 1006 1011
f 993 1007 999
o coacd_part_0047
v 0.0158139932 -0.01774854412 0.001895057624
v 0.01584140299 -0.02002463358 0.001893560074
v 0.01581401025 -0.01775179908 -0.001893525296
v 0.01036791654 -0.01829980157 0.001894740709
v 0.01457746329 -0.0212335133 0.001531578032
v 0.01584023831 -0.02002400891 -0.001891976169
v 0.01457295287 -0.02123511769 0.001891970855
v 0.01035438942 -0.01828863196 -0.001892903558
v 0.01025820061 -0.02151024748 0.001890359153
v 0.01457722588 -0.02123303888 -0.001529577745
v 0.01457255005 -0.02123425192 -0.001889970826
v 0.01025073116 -0.02150187606 -0.001888271165
f 1022 1030 1031
f 1024 1030 1029
f 1024 1031 1030
f 1024 1028 1031
f 1024 1026 1028
f 1023 1031 1028
f 1025 1029 1030
f 1022 1031 1027
f 1022 1025 1030
f 1023 1027 1031
f 1021 1029 1025
f 1021 1026 1024
f 1020 1025 1022
f 1020 1022 1027
f 1020 1027 1023
f 1020 1021 1025
f 1020 1028 1026
f 1020 1026 1021
f 1021 1024 1029
f 1020 1023 1028
o coacd_part_0048
v -0.02030624607 -0.008562957445 0.00183082313
v -0.02028523584 -0.008567979676 -0.001827814567
v -0.02239534941 -0.008494927903 0.001820778339
v -0.02000727477 -0.01327740257 0.001840126564
v -0.02239337081 -0.008499904037 -0.00181887373
v -0.02000350138 -0.01327721362 -0.00183751009
v -0.02223072277 -0.01185626734 0.001829501231
v -0.02139233856 -0.01326168001 0.001837284182
v -0.02223035636 -0.01185592661 -0.001827668514
v -0.02139184892 -0.01326113397 -0.001835026541
v -0.02182839298 -0.0125631782 1.0465538e-06
f 1034 1036 1040
f 1040 1041 1042
f 1039 1042 1041
f 1038 1042 1039
f 1038 1040 1042
f 1035 1039 1041
f 1034 1040 1038
f 1033 1040 1036
f 1035 1041 1037
f 1033 1037 1041
f 1033 1041 1040
f 1032 1036 1034
f 1032 1034 1038
f 1032 1038 1039
f 1032 1033 1036
f 1032 1039 1035
f 1032 1035 1037
f 1032 1037 1033
o coacd_part_0049
v 0.02172912698 0.01286626393 0.0007020031187
v 0.02172901316 0.01286628031 -0.0007042067037
v 0.02171440849 0.01286571141 0.001882859795
v 0.02228318142 0.01192253395 0.001875992278
v 0.02188659621 0.01261351857 -1.058856652e-06
v 0.02228245193 0.01192248448 -0.001877953376
v 0.02171395963 0.01286569929 -0.001885087771
v 0.02228322957 0.01192203908 0.001884484861
v -0.02131567822 0.01294781875 0.001823088146
v 0.02228249269 0.01192198862 -0.001886445775
v -0.02131580029 0.01294827264 -0.001827365755
v 0.0224034621 0.00876775233 0.001888263548
v -0.02132728614 0.01294898226 0.0006799021386
v -0.02190891811 0.01200918079 0.001765155858
v -0.02190905127 0.01200814881 0.001819243432
v 0.02238064572 0.008766177131 -0.001889400462
v -0.02190880458 0.01200853717 -0.001823547912
v -0.02190868171 0.01200957084 -0.001769459578
v -0.02132739225 0.01294916062 -0.0006841919739
v -0.02201020242 0.008824635554 0.001812575564
v -0.02201403481 0.008824768386 -0.001817411126
f 1051 1056 1057
f 1049 1052 1058
f 1049 1058 1063
f 1049 1063 1059
f 1049 1059 1053
f 1051 1055 1056
f 1048 1052 1049
f 1053 1059 1060
f 1055 1060 1056
f 1054 1062 1063
f 1054 1063 1058
f 1055 1061 1060
f 1056 1060 1059
f 1056 1059 1063
f 1056 1063 1062
f 1056 1062 1057
f 1046 1048 1047
f 1053 1060 1061
f 1046 1052 1048
f 1044 1047 1048
f 1046 1054 1058
f 1043 1044 1049
f 1043 1049 1053
f 1043 1053 1061
f 1043 1061 1055
f 1046 1058 1052
f 1043 1051 1045
f 1043 1045 1046
f 1043 1046 1047
f 1043 1055 1051
f 1044 1048 1049
f 1045 1050 1046
f 1045 1051 1057
f 1045 1057 1062
f 1045 1062 1054
f 1045 1054 1050
f 1046 1050 1054
f 1043 1047 1044
o coacd_part_0050
v 0.01023119011 -0.02361697814 -0.001195906926
v 0.01071612716 -0.02341157615 1.153242307e-06
v 0.0102311909 -0.02361713069 0.001198220637
v 0.01023084704 -0.02361019851 -0.001885850747
v 0.01146321118 -0.02305804737 -0.001887495913
v 0.01146278604 -0.02305803288 0.00188978844
v 0.01023076986 -0.02361039225 0.001888163935
v 0.01025029054 -0.0215020982 -0.001888270561
v 0.01148207414 -0.0214531336 -0.001889089094
v 0.01148782954 -0.02145633619 0.001891056407
v 0.01025775904 -0.02151046921 0.001890358619
f 1067 1071 1072
f 1067 1072 1068
f 1068 1072 1073
f 1068 1073 1069
f 1071 1073 1072
f 1069 1074 1070
f 1071 1074 1073
f 1069 1073 1074
f 1066 1069 1070
f 1064 1065 1066
f 1065 1069 1066
f 1064 1066 1070
f 1064 1070 1074
f 1064 1074 1071
f 1065 1068 1069
f 1064 1067 1068
f 1064 1068 1065
f 1064 1071 1067
o coacd_part_0051
v 0.01146313598 -0.02305812105 -0.001887492874
v 0.01235383331 -0.02416439233 -0.001887829855
v 0.01207123034 -0.02384725765 2.991354213e-07
v 0.01146271072 -0.02305810638 0.001889785406
v 0.01148207776 -0.02145292278 -0.001889089314
v 0.01340776463 -0.02516497569 -0.001887631291
v 0.01286442815 -0.02468585689 6.053497615e-07
v 0.0123543879 -0.02416496564 0.001889733196
v 0.01148783427 -0.02145612688 0.001891056628
v 0.01457251362 -0.02123425319 -0.001889970831
v 0.01460093276 -0.0260251405 -0.001887422373
v 0.01375412012 -0.02544371509 5.930224896e-07
v 0.01340852357 -0.02516563755 0.001889543717
v 0.01457291662 -0.02123511915 0.001891970858
v 0.01457721462 -0.02123301189 -0.001529577745
v 0.01506416997 -0.02248847591 -0.001888551242
v 0.01460097398 -0.02602517618 0.001889341525
v 0.01557361997 -0.02546085013 -0.001887535442
v 0.01509041858 -0.02574879425 9.616780977e-07
v 0.01457745204 -0.0212334863 0.001531578032
v 0.01506527637 -0.02249115841 0.001890520218
v 0.01491438755 -0.02204161182 9.905619617e-07
v 0.01526784834 -0.02321633404 9.833953877e-07
v 0.01542010005 -0.02396038894 -0.001887844706
v 0.01557365262 -0.02546088577 0.00188946031
v 0.01548963278 -0.0244085429 9.708293442e-07
v 0.01542040085 -0.0239612735 0.001889776563
f 1080 1085 1086
f 1086 1091 1087
f 1080 1086 1087
f 1080 1087 1081
f 1081 1087 1082
f 1084 1089 1090
f 1085 1091 1086
f 1085 1092 1093
f 1085 1093 1091
f 1088 1095 1094
f 1090 1096 1095
f 1089 1096 1090
f 1090 1097 1098
f 1079 1089 1084
f 1090 1095 1097
f 1091 1093 1099
f 1092 1100 1099
f 1092 1099 1093
f 1092 1098 1100
f 1094 1095 1096
f 1095 1101 1097
f 1097 1101 1098
f 1089 1094 1096
f 1079 1094 1089
f 1078 1095 1088
f 1079 1083 1088
f 1098 1101 1100
f 1075 1076 1077
f 1075 1077 1078
f 1075 1078 1083
f 1075 1083 1079
f 1075 1079 1084
f 1075 1084 1090
f 1075 1090 1098
f 1075 1098 1092
f 1075 1092 1085
f 1079 1088 1094
f 1075 1085 1080
f 1076 1080 1081
f 1076 1081 1082
f 1076 1082 1077
f 1077 1082 1078
f 1078 1082 1087
f 1078 1087 1091
f 1078 1091 1099
f 1078 1099 1101
f 1078 1101 1095
f 1078 1088 1083
f 1075 1080 1076
f 1099 1100 1101
