# https://github.com/mikedh/trimesh

o geometry_0
v 0.01909575 -0.01903175 -0.03000000 0.54509804 0.71372549 0.60000000
v 0.02559791 -0.01903175 -0.03000000 0.54509804 0.71372549 0.60000000
v 0.01909575 -0.01903175 -0.00001964 0.54509804 0.71372549 0.60000000
v 0.02690212 0.00000059 -0.03000000 0.54509804 0.71372549 0.60000000
v 0.02792001 -0.01559606 -0.03000000 0.54509804 0.71372549 0.60000000
v 0.02559791 -0.01903175 -0.00001964 0.54509804 0.71372549 0.60000000
v 0.02696014 0.00000059 -0.00605328 0.54509804 0.71372549 0.60000000
v 0.02697528 0.00000059 -0.00001964 0.54509804 0.71372549 0.60000000
v 0.03197519 0.00000059 -0.03000000 0.54509804 0.71372549 0.60000000
v 0.03015383 -0.01065305 -0.03000000 0.54509804 0.71372549 0.60000000
v 0.02792001 -0.01559606 -0.00001964 0.54509804 0.71372549 0.60000000
v 0.03196006 0.00000059 -0.00001964 0.54509804 0.71372549 0.60000000
v 0.03198024 -0.00000127 -0.03000000 0.54509804 0.71372549 0.60000000
v 0.03198024 0.00000059 -0.00003432 0.54509804 0.71372549 0.60000000
v 0.03152112 -0.00540635 -0.03000000 0.54509804 0.71372549 0.60000000
v 0.03015383 -0.01065305 -0.00001964 0.54509804 0.71372549 0.60000000
v 0.03198024 -0.00000127 -0.00001964 0.54509804 0.71372549 0.60000000
v 0.03152112 -0.00540635 -0.00001964 0.54509804 0.71372549 0.60000000
f 1 2 6
f 1 6 3
f 1 3 4
f 1 4 9
f 1 9 13
f 1 13 15
f 1 15 10
f 1 10 5
f 1 5 2
f 2 5 11
f 2 11 6
f 3 7 4
f 3 6 11
f 3 11 16
f 3 16 18
f 3 18 17
f 3 17 12
f 3 12 8
f 3 8 7
f 4 7 8
f 4 8 12
f 4 12 14
f 4 14 9
f 5 10 16
f 5 16 11
f 9 14 13
f 10 15 18
f 10 18 16
f 12 17 14
f 13 14 17
f 13 17 18
f 13 18 15

o geometry_1
v 0.04000000 0.01879410 0.01000000 0.54117647 0.42352941 0.64313725
v 0.04000000 -0.00086746 0.01000000 0.54117647 0.42352941 0.64313725
v 0.04000000 0.01879410 0.00000095 0.54117647 0.42352941 0.64313725
v 0.01936789 0.01879410 0.01000000 0.54117647 0.42352941 0.64313725
v 0.04000000 -0.00086746 0.00000095 0.54117647 0.42352941 0.64313725
v 0.02696431 -0.00086746 0.01000000 0.54117647 0.42352941 0.64313725
v 0.03198145 0.00000053 -0.00001867 0.54117647 0.42352941 0.64313725
v 0.03152094 0.00540669 -0.00001867 0.54117647 0.42352941 0.64313725
v 0.03015355 0.01065311 -0.00001867 0.54117647 0.42352941 0.64313725
v 0.02792168 0.01559544 -0.00001867 0.54117647 0.42352941 0.64313725
v 0.02576051 0.01879410 -0.00001867 0.54117647 0.42352941 0.64313725
v 0.01936789 0.01879410 -0.00001867 0.54117647 0.42352941 0.64313725
v 0.03190672 -0.00086746 -0.00001867 0.54117647 0.42352941 0.64313725
v 0.02696431 -0.00086746 -0.00001867 0.54117647 0.42352941 0.64313725
f 19 20 23
f 19 23 21
f 19 21 29
f 19 29 30
f 19 30 22
f 19 22 24
f 19 24 20
f 20 24 32
f 20 32 31
f 20 31 23
f 21 23 25
f 21 25 26
f 21 26 27
f 21 27 28
f 21 28 29
f 22 30 32
f 22 32 24
f 23 31 25
f 25 31 32
f 25 32 30
f 25 30 29
f 25 29 28
f 25 28 27
f 25 27 26

o geometry_2
v 0.00004777 0.03900000 0.01000000 0.43529412 0.89019608 0.96078431
v 0.00004777 0.02692599 0.01000000 0.43529412 0.89019608 0.96078431
v 0.00004777 0.03900000 0.00000095 0.43529412 0.89019608 0.96078431
v -0.03999608 0.03900000 0.01000000 0.43529412 0.89019608 0.96078431
v 0.00004777 0.02692599 -0.00001867 0.43529412 0.89019608 0.96078431
v -0.01925089 0.01879555 0.01000000 0.43529412 0.89019608 0.96078431
v 0.00004777 0.03189600 -0.00001474 0.43529412 0.89019608 0.96078431
v -0.00406834 0.03171999 -0.00001867 0.43529412 0.89019608 0.96078431
v -0.03999608 0.03900000 0.00000095 0.43529412 0.89019608 0.96078431
v -0.03999608 0.01879555 0.01000000 0.43529412 0.89019608 0.96078431
v 0.00004777 0.02934870 -0.00001867 0.43529412 0.89019608 0.96078431
v -0.01925089 0.01879555 -0.00001867 0.43529412 0.89019608 0.96078431
v -0.00936831 0.03057686 -0.00001867 0.43529412 0.89019608 0.96078431
v -0.02308868 0.02212802 -0.00001867 0.43529412 0.89019608 0.96078431
v -0.03999608 0.01879555 0.00000095 0.43529412 0.89019608 0.96078431
v -0.01440173 0.02855563 -0.00001867 0.43529412 0.89019608 0.96078431
v -0.01902353 0.02571165 -0.00001867 0.43529412 0.89019608 0.96078431
v -0.02174408 0.01879555 -0.00001867 0.43529412 0.89019608 0.96078431
f 33 34 37
f 33 37 43
f 33 43 39
f 33 39 35
f 33 35 41
f 33 41 36
f 33 36 42
f 33 42 38
f 33 38 34
f 34 38 44
f 34 44 37
f 35 39 40
f 35 40 41
f 36 41 47
f 36 47 42
f 37 44 50
f 37 50 46
f 37 46 49
f 37 49 48
f 37 48 45
f 37 45 40
f 37 40 43
f 38 42 47
f 38 47 50
f 38 50 44
f 39 43 40
f 40 45 41
f 41 46 47
f 41 45 48
f 41 48 49
f 41 49 46
f 46 50 47

o geometry_3
v -0.01925162 0.01879555 0.01000000 0.38039216 0.78823529 0.52549020
v -0.02692740 -0.00086746 0.01000000 0.38039216 0.78823529 0.52549020
v -0.01925162 0.01879555 -0.00001867 0.38039216 0.78823529 0.52549020
v -0.04000000 0.01879555 0.01000000 0.38039216 0.78823529 0.52549020
v -0.02692740 -0.00086746 -0.00001867 0.38039216 0.78823529 0.52549020
v -0.04000000 -0.00086746 0.01000000 0.38039216 0.78823529 0.52549020
v -0.02174793 0.01879555 -0.00001867 0.38039216 0.78823529 0.52549020
v -0.04000000 0.01879555 0.00000095 0.38039216 0.78823529 0.52549020
v -0.03186517 -0.00086746 -0.00001867 0.38039216 0.78823529 0.52549020
v -0.04000000 -0.00086746 0.00000095 0.38039216 0.78823529 0.52549020
v -0.02649883 0.01790440 -0.00001867 0.38039216 0.78823529 0.52549020
v -0.02914544 0.01316958 -0.00001867 0.38039216 0.78823529 0.52549020
v -0.03094912 0.00805558 -0.00001867 0.38039216 0.78823529 0.52549020
v -0.03186517 0.00271061 -0.00001867 0.38039216 0.78823529 0.52549020
f 51 52 55
f 51 55 53
f 51 53 57
f 51 57 58
f 51 58 54
f 51 54 56
f 51 56 52
f 52 56 60
f 52 60 59
f 52 59 55
f 53 55 59
f 53 59 64
f 53 64 63
f 53 63 62
f 53 62 61
f 53 61 57
f 54 58 60
f 54 60 56
f 57 61 58
f 58 61 62
f 58 62 63
f 58 63 64
f 58 64 59
f 58 59 60

o geometry_4
v 0.01604811 0.02759528 -0.00001964 0.56470588 0.92549020 0.07058824
v 0.01604811 0.02171320 -0.00001964 0.56470588 0.92549020 0.07058824
v 0.01604811 0.02759528 -0.03000000 0.56470588 0.92549020 0.07058824
v 0.01192325 0.02967525 -0.00001964 0.56470588 0.92549020 0.07058824
v 0.00003154 0.02692467 -0.00001964 0.56470588 0.92549020 0.07058824
v 0.01604811 0.02171320 -0.03000000 0.56470588 0.92549020 0.07058824
v 0.01192325 0.02967525 -0.03000000 0.56470588 0.92549020 0.07058824
v 0.00673856 0.03126305 -0.00001964 0.56470588 0.92549020 0.07058824
v 0.00003154 0.03189557 -0.00001964 0.56470588 0.92549020 0.07058824
v 0.00003154 0.02692467 -0.03000000 0.56470588 0.92549020 0.07058824
v 0.00673856 0.03126305 -0.03000000 0.56470588 0.92549020 0.07058824
v 0.00135790 0.03195170 -0.00001964 0.56470588 0.92549020 0.07058824
v 0.00003154 0.03189557 -0.03000000 0.56470588 0.92549020 0.07058824
v 0.00135790 0.03195170 -0.03000000 0.56470588 0.92549020 0.07058824
f 65 66 70
f 65 70 67
f 65 67 71
f 65 71 68
f 65 68 72
f 65 72 76
f 65 76 73
f 65 73 69
f 65 69 66
f 66 69 74
f 66 74 70
f 67 70 74
f 67 74 77
f 67 77 78
f 67 78 75
f 67 75 71
f 68 71 75
f 68 75 72
f 69 73 77
f 69 77 74
f 72 75 78
f 72 78 76
f 73 76 78
f 73 78 77

o geometry_5
v 0.03999609 0.03900000 0.01000000 0.08627451 0.01960784 0.83137255
v 0.03999609 0.01879410 0.01000000 0.08627451 0.01960784 0.83137255
v 0.03999609 0.03900000 0.00000095 0.08627451 0.01960784 0.83137255
v 0.00005168 0.03900000 0.01000000 0.08627451 0.01960784 0.83137255
v 0.03999609 0.01879410 0.00000095 0.08627451 0.01960784 0.83137255
v 0.01936688 0.01879410 0.01000000 0.08627451 0.01960784 0.83137255
v 0.02575705 0.01879410 -0.00001867 0.08627451 0.01960784 0.83137255
v 0.02488104 0.02009159 -0.00001867 0.08627451 0.01960784 0.83137255
v 0.02112672 0.02400776 -0.00001867 0.08627451 0.01960784 0.83137255
v 0.01677014 0.02723366 -0.00001867 0.08627451 0.01960784 0.83137255
v 0.01192472 0.02967435 -0.00001867 0.08627451 0.01960784 0.83137255
v 0.00673907 0.03126258 -0.00001867 0.08627451 0.01960784 0.83137255
v 0.00135787 0.03195088 -0.00001867 0.08627451 0.01960784 0.83137255
v 0.00005168 0.03900000 0.00000095 0.08627451 0.01960784 0.83137255
v 0.00005168 0.02692512 0.01000000 0.08627451 0.01960784 0.83137255
v 0.01936688 0.01879410 -0.00001867 0.08627451 0.01960784 0.83137255
v 0.00005168 0.02934801 -0.00001867 0.08627451 0.01960784 0.83137255
v 0.00005168 0.03189550 -0.00001474 0.08627451 0.01960784 0.83137255
v 0.00005168 0.02692512 -0.00001867 0.08627451 0.01960784 0.83137255
f 79 80 83
f 79 83 81
f 79 81 92
f 79 92 82
f 79 82 93
f 79 93 84
f 79 84 80
f 80 84 94
f 80 94 85
f 80 85 83
f 81 83 85
f 81 85 86
f 81 86 87
f 81 87 88
f 81 88 89
f 81 89 90
f 81 90 91
f 81 91 92
f 82 92 96
f 82 96 95
f 82 95 97
f 82 97 93
f 84 93 97
f 84 97 94
f 85 94 97
f 85 97 95
f 85 95 91
f 85 91 90
f 85 90 89
f 85 89 88
f 85 88 87
f 85 87 86
f 91 95 96
f 91 96 92

o geometry_6
v 0.02690158 0.00000245 -0.03000000 0.77647059 0.86666667 0.97647059
v 0.01604967 0.02171066 -0.03000000 0.77647059 0.86666667 0.97647059
v 0.03197505 0.00000245 -0.03000000 0.77647059 0.86666667 0.97647059
v 0.02697488 0.00000245 -0.00001964 0.77647059 0.86666667 0.97647059
v 0.01604967 0.02171066 -0.00001964 0.77647059 0.86666667 0.97647059
v 0.01604967 0.02759621 -0.03000000 0.77647059 0.86666667 0.97647059
v 0.03152120 0.00540721 -0.03000000 0.77647059 0.86666667 0.97647059
v 0.03197973 0.00000245 -0.00003432 0.77647059 0.86666667 0.97647059
v 0.03195946 0.00000245 -0.00001964 0.77647059 0.86666667 0.97647059
v 0.01604967 0.02759621 -0.00001964 0.77647059 0.86666667 0.97647059
v 0.01676866 0.02723157 -0.03000000 0.77647059 0.86666667 0.97647059
v 0.03015341 0.01065532 -0.03000000 0.77647059 0.86666667 0.97647059
v 0.03152120 0.00540721 -0.00001964 0.77647059 0.86666667 0.97647059
v 0.01676866 0.02723157 -0.00001964 0.77647059 0.86666667 0.97647059
v 0.02113095 0.02400653 -0.03000000 0.77647059 0.86666667 0.97647059
v 0.02792001 0.01559552 -0.03000000 0.77647059 0.86666667 0.97647059
v 0.03015341 0.01065532 -0.00001964 0.77647059 0.86666667 0.97647059
v 0.02113095 0.02400653 -0.00001964 0.77647059 0.86666667 0.97647059
v 0.02488186 0.02009004 -0.03000000 0.77647059 0.86666667 0.97647059
v 0.02792001 0.01559552 -0.00001964 0.77647059 0.86666667 0.97647059
v 0.02488186 0.02009004 -0.00001964 0.77647059 0.86666667 0.97647059
f 98 99 103
f 98 103 108
f 98 108 112
f 98 112 116
f 98 116 113
f 98 113 109
f 98 109 104
f 98 104 100
f 98 100 105
f 98 105 106
f 98 106 101
f 98 101 102
f 98 102 99
f 99 102 107
f 99 107 103
f 100 104 105
f 101 106 110
f 101 110 114
f 101 114 117
f 101 117 118
f 101 118 115
f 101 115 111
f 101 111 107
f 101 107 102
f 103 107 111
f 103 111 108
f 104 109 114
f 104 114 110
f 104 110 105
f 105 110 106
f 108 111 115
f 108 115 112
f 109 113 117
f 109 117 114
f 112 115 118
f 112 118 116
f 113 116 118
f 113 118 117

o geometry_7
v 0.00003154 0.03189493 -0.00001964 0.79607843 0.45882353 0.78039216
v 0.00003154 0.02692501 -0.00001964 0.79607843 0.45882353 0.78039216
v 0.00003154 0.03189493 -0.03000000 0.79607843 0.45882353 0.78039216
v -0.00406336 0.03172239 -0.03000000 0.79607843 0.45882353 0.78039216
v -0.00406601 0.03172093 -0.00001964 0.79607843 0.45882353 0.78039216
v -0.02100715 0.01696033 -0.00001964 0.79607843 0.45882353 0.78039216
v 0.00003154 0.02692501 -0.03000000 0.79607843 0.45882353 0.78039216
v -0.00936608 0.03057897 -0.03000000 0.79607843 0.45882353 0.78039216
v -0.00936873 0.03057751 -0.00001964 0.79607843 0.45882353 0.78039216
v -0.02702502 0.01696033 -0.00001964 0.79607843 0.45882353 0.78039216
v -0.02100715 0.01696033 -0.03000000 0.79607843 0.45882353 0.78039216
v -0.01439598 0.02855679 -0.03000000 0.79607843 0.45882353 0.78039216
v -0.01439862 0.02855387 -0.00001964 0.79607843 0.45882353 0.78039216
v -0.02649793 0.01790635 -0.00001964 0.79607843 0.45882353 0.78039216
v -0.02702767 0.01696033 -0.00601806 0.79607843 0.45882353 0.78039216
v -0.02702767 0.01696033 -0.03000000 0.79607843 0.45882353 0.78039216
v -0.01901532 0.02571288 -0.03000000 0.79607843 0.45882353 0.78039216
v -0.01901797 0.02570995 -0.00001964 0.79607843 0.45882353 0.78039216
v -0.02308904 0.02212763 -0.00001964 0.79607843 0.45882353 0.78039216
v -0.02308904 0.02213056 -0.03000000 0.79607843 0.45882353 0.78039216
v -0.02649528 0.01790928 -0.03000000 0.79607843 0.45882353 0.78039216
f 119 120 125
f 119 125 121
f 119 121 122
f 119 122 123
f 119 123 127
f 119 127 131
f 119 131 136
f 119 136 137
f 119 137 132
f 119 132 128
f 119 128 124
f 119 124 120
f 120 124 129
f 120 129 125
f 121 125 129
f 121 129 134
f 121 134 139
f 121 139 138
f 121 138 135
f 121 135 130
f 121 130 126
f 121 126 122
f 122 126 127
f 122 127 123
f 124 128 133
f 124 133 134
f 124 134 129
f 126 130 127
f 127 130 131
f 128 132 133
f 130 135 136
f 130 136 131
f 132 137 138
f 132 138 139
f 132 139 134
f 132 134 133
f 135 138 136
f 136 138 137

o geometry_8
v -0.04000000 -0.28100000 0.00000095 0.11764706 0.63921569 0.14117647
v -0.02040551 -0.28100000 0.00000095 0.11764706 0.63921569 0.14117647
v -0.04000000 -0.28100000 0.01000000 0.11764706 0.63921569 0.14117647
v -0.04000000 -0.00086746 0.00000095 0.11764706 0.63921569 0.14117647
v -0.03186488 -0.00273208 -0.00001867 0.11764706 0.63921569 0.14117647
v -0.03094798 -0.00807917 -0.00001867 0.11764706 0.63921569 0.14117647
v -0.02914103 -0.01317947 -0.00001867 0.11764706 0.63921569 0.14117647
v -0.02649582 -0.01792330 -0.00001867 0.11764706 0.63921569 0.14117647
v -0.02308717 -0.02214613 -0.00001867 0.11764706 0.63921569 0.14117647
v -0.02040551 -0.02450433 -0.00001867 0.11764706 0.63921569 0.14117647
v -0.02040551 -0.28100000 0.01000000 0.11764706 0.63921569 0.14117647
v -0.04000000 -0.00086746 0.01000000 0.11764706 0.63921569 0.14117647
v -0.03186488 -0.00086746 -0.00001867 0.11764706 0.63921569 0.14117647
v -0.02040551 -0.01759425 -0.00001867 0.11764706 0.63921569 0.14117647
v -0.02040551 -0.01759425 0.01000000 0.11764706 0.63921569 0.14117647
v -0.02692742 -0.00086746 0.01000000 0.11764706 0.63921569 0.14117647
v -0.02692742 -0.00086746 -0.00001867 0.11764706 0.63921569 0.14117647
f 140 141 150
f 140 150 142
f 140 142 151
f 140 151 143
f 140 143 152
f 140 152 144
f 140 144 145
f 140 145 146
f 140 146 147
f 140 147 148
f 140 148 149
f 140 149 141
f 141 149 153
f 141 153 154
f 141 154 150
f 142 150 154
f 142 154 155
f 142 155 151
f 143 151 155
f 143 155 156
f 143 156 152
f 144 152 156
f 144 156 153
f 144 153 149
f 144 149 148
f 144 148 147
f 144 147 146
f 144 146 145
f 153 156 155
f 153 155 154

o geometry_9
v -0.02040360 -0.28100000 0.00000095 0.94117647 0.52156863 0.41176471
v 0.00004777 -0.28100000 0.00000095 0.94117647 0.52156863 0.41176471
v -0.02040360 -0.28100000 0.01000000 0.94117647 0.52156863 0.41176471
v -0.02040360 -0.02450155 -0.00001867 0.94117647 0.52156863 0.41176471
v -0.01901228 -0.02573917 -0.00001867 0.94117647 0.52156863 0.41176471
v -0.01439391 -0.02857542 -0.00001867 0.94117647 0.52156863 0.41176471
v -0.00936314 -0.03058656 -0.00001867 0.94117647 0.52156863 0.41176471
v -0.00406012 -0.03174684 -0.00001867 0.94117647 0.52156863 0.41176471
v 0.00004777 -0.03190153 -0.00001867 0.94117647 0.52156863 0.41176471
v 0.00004777 -0.28100000 0.01000000 0.94117647 0.52156863 0.41176471
v -0.02040360 -0.01759145 0.01000000 0.94117647 0.52156863 0.41176471
v -0.02040360 -0.01759145 -0.00001867 0.94117647 0.52156863 0.41176471
v 0.00004777 -0.02692524 -0.00001867 0.94117647 0.52156863 0.41176471
v 0.00004777 -0.02692524 0.01000000 0.94117647 0.52156863 0.41176471
f 157 158 166
f 157 166 159
f 157 159 167
f 157 167 168
f 157 168 160
f 157 160 161
f 157 161 162
f 157 162 163
f 157 163 164
f 157 164 165
f 157 165 158
f 158 165 169
f 158 169 170
f 158 170 166
f 159 166 170
f 159 170 167
f 160 168 169
f 160 169 165
f 160 165 164
f 160 164 163
f 160 163 162
f 160 162 161
f 167 170 169
f 167 169 168

o geometry_10
v -0.02620554 -0.01826864 -0.03000000 0.26274510 0.77254902 0.45490196
v -0.02649637 -0.01790737 -0.03000000 0.26274510 0.77254902 0.45490196
v -0.01975576 -0.01826864 -0.03000000 0.26274510 0.77254902 0.45490196
v -0.02620554 -0.01826864 -0.00001964 0.26274510 0.77254902 0.45490196
v -0.02649398 -0.01791094 -0.00001964 0.26274510 0.77254902 0.45490196
v -0.02914139 -0.01317148 -0.03000000 0.26274510 0.77254902 0.45490196
v -0.02914020 -0.01317505 -0.00001964 0.26274510 0.77254902 0.45490196
v -0.02699905 0.00000245 -0.03000000 0.26274510 0.77254902 0.45490196
v -0.01975576 -0.01826864 -0.00001964 0.26274510 0.77254902 0.45490196
v -0.03094862 -0.00806001 -0.03000000 0.26274510 0.77254902 0.45490196
v -0.03094743 -0.00806359 -0.00001964 0.26274510 0.77254902 0.45490196
v -0.03197791 0.00000245 -0.03000000 0.26274510 0.77254902 0.45490196
v -0.02699905 0.00000245 -0.00001964 0.26274510 0.77254902 0.45490196
v -0.03186541 -0.00271247 -0.03000000 0.26274510 0.77254902 0.45490196
v -0.03186541 -0.00271604 -0.00001964 0.26274510 0.77254902 0.45490196
v -0.03198150 -0.00000113 -0.03000000 0.26274510 0.77254902 0.45490196
v -0.03198030 0.00000245 -0.02997065 0.26274510 0.77254902 0.45490196
v -0.03186541 0.00000245 -0.00001964 0.26274510 0.77254902 0.45490196
f 171 172 176
f 171 176 180
f 171 180 184
f 171 184 186
f 171 186 182
f 171 182 178
f 171 178 173
f 171 173 179
f 171 179 174
f 171 174 175
f 171 175 172
f 172 175 177
f 172 177 176
f 173 178 183
f 173 183 179
f 174 179 183
f 174 183 188
f 174 188 185
f 174 185 181
f 174 181 177
f 174 177 175
f 176 177 181
f 176 181 180
f 178 182 187
f 178 187 188
f 178 188 183
f 180 181 185
f 180 185 184
f 182 186 187
f 184 185 186
f 185 188 186
f 186 188 187

o geometry_11
v -0.03197818 0.00000245 -0.03000000 0.56470588 0.01568627 0.61568627
v -0.02699898 0.00000245 -0.03000000 0.56470588 0.01568627 0.61568627
v -0.03198140 0.00000245 -0.02997065 0.56470588 0.01568627 0.61568627
v -0.03186540 0.00271288 -0.03000000 0.56470588 0.01568627 0.61568627
v -0.02100912 0.01695887 -0.03000000 0.56470588 0.01568627 0.61568627
v -0.02699898 0.00000245 -0.00001964 0.56470588 0.01568627 0.61568627
v -0.03186540 0.00000245 -0.00001964 0.56470588 0.01568627 0.61568627
v -0.03186540 0.00271122 -0.00001964 0.56470588 0.01568627 0.61568627
v -0.03094925 0.00805907 -0.03000000 0.56470588 0.01568627 0.61568627
v -0.02702690 0.01695887 -0.03000000 0.56470588 0.01568627 0.61568627
v -0.02100912 0.01695887 -0.00001964 0.56470588 0.01568627 0.61568627
v -0.03094925 0.00805575 -0.00001964 0.56470588 0.01568627 0.61568627
v -0.02914166 0.01317289 -0.03000000 0.56470588 0.01568627 0.61568627
v -0.02914274 0.01316957 -0.00001964 0.56470588 0.01568627 0.61568627
v -0.02702690 0.01695887 -0.00001964 0.56470588 0.01568627 0.61568627
f 189 190 194
f 189 194 195
f 189 195 191
f 189 191 192
f 189 192 197
f 189 197 201
f 189 201 198
f 189 198 193
f 189 193 190
f 190 193 199
f 190 199 194
f 191 195 196
f 191 196 192
f 192 196 197
f 193 198 203
f 193 203 199
f 194 199 203
f 194 203 202
f 194 202 200
f 194 200 196
f 194 196 195
f 196 200 197
f 197 200 202
f 197 202 201
f 198 201 203
f 201 202 203

o geometry_12
v 0.00003154 -0.02692471 -0.00001964 0.61176471 0.61568627 0.94117647
v 0.00003154 -0.03189638 -0.00001964 0.61176471 0.61568627 0.94117647
v 0.00003154 -0.02692471 -0.03000000 0.61176471 0.61568627 0.94117647
v -0.01975226 -0.01826996 -0.00001964 0.61176471 0.61568627 0.94117647
v -0.00405980 -0.03172164 -0.00001964 0.61176471 0.61568627 0.94117647
v -0.00406237 -0.03172164 -0.03000000 0.61176471 0.61568627 0.94117647
v 0.00003154 -0.03189638 -0.03000000 0.61176471 0.61568627 0.94117647
v -0.01975226 -0.01826996 -0.03000000 0.61176471 0.61568627 0.94117647
v -0.02620389 -0.01826996 -0.00001964 0.61176471 0.61568627 0.94117647
v -0.00936339 -0.03057976 -0.00001964 0.61176471 0.61568627 0.94117647
v -0.00936596 -0.03057843 -0.03000000 0.61176471 0.61568627 0.94117647
v -0.02620646 -0.01826996 -0.03000000 0.61176471 0.61568627 0.94117647
v -0.02620646 -0.01826996 -0.00255811 0.61176471 0.61568627 0.94117647
v -0.02308595 -0.02213178 -0.00001964 0.61176471 0.61568627 0.94117647
v -0.01439474 -0.02855748 -0.00001964 0.61176471 0.61568627 0.94117647
v -0.01439730 -0.02855614 -0.03000000 0.61176471 0.61568627 0.94117647
v -0.02308851 -0.02213045 -0.03000000 0.61176471 0.61568627 0.94117647
v -0.01901258 -0.02571480 -0.00001964 0.61176471 0.61568627 0.94117647
v -0.01901515 -0.02571213 -0.03000000 0.61176471 0.61568627 0.94117647
f 204 205 210
f 204 210 206
f 204 206 211
f 204 211 207
f 204 207 212
f 204 212 217
f 204 217 221
f 204 221 218
f 204 218 213
f 204 213 208
f 204 208 205
f 205 208 209
f 205 209 210
f 206 210 209
f 206 209 214
f 206 214 219
f 206 219 222
f 206 222 220
f 206 220 215
f 206 215 211
f 207 211 215
f 207 215 216
f 207 216 212
f 208 213 209
f 209 213 214
f 212 216 217
f 213 218 219
f 213 219 214
f 215 220 216
f 216 220 217
f 217 220 221
f 218 221 219
f 219 221 222
f 220 222 221

o geometry_13
v 0.02559898 -0.01903302 -0.00001964 0.67843137 0.35686275 0.43529412
v 0.02488071 -0.02009163 -0.00001964 0.67843137 0.35686275 0.43529412
v 0.02559898 -0.01903302 -0.03000000 0.67843137 0.35686275 0.43529412
v 0.01909450 -0.01903302 -0.00001964 0.67843137 0.35686275 0.43529412
v 0.02112918 -0.02400864 -0.00001964 0.67843137 0.35686275 0.43529412
v 0.02488071 -0.02009163 -0.03000000 0.67843137 0.35686275 0.43529412
v 0.01909450 -0.01903302 -0.03000000 0.67843137 0.35686275 0.43529412
v 0.00003154 -0.02692522 -0.00001964 0.67843137 0.35686275 0.43529412
v 0.01676700 -0.02723256 -0.00001964 0.67843137 0.35686275 0.43529412
v 0.02112918 -0.02400864 -0.03000000 0.67843137 0.35686275 0.43529412
v 0.00003154 -0.02692522 -0.03000000 0.67843137 0.35686275 0.43529412
v 0.00003154 -0.03189579 -0.00001964 0.67843137 0.35686275 0.43529412
v 0.01192681 -0.02967484 -0.00001964 0.67843137 0.35686275 0.43529412
v 0.01676700 -0.02723256 -0.03000000 0.67843137 0.35686275 0.43529412
v 0.00003154 -0.03189579 -0.03000000 0.67843137 0.35686275 0.43529412
v 0.00135797 -0.03195270 -0.00001964 0.67843137 0.35686275 0.43529412
v 0.00673874 -0.03126340 -0.00001964 0.67843137 0.35686275 0.43529412
v 0.01192681 -0.02967484 -0.03000000 0.67843137 0.35686275 0.43529412
v 0.00135797 -0.03195270 -0.03000000 0.67843137 0.35686275 0.43529412
v 0.00673874 -0.03126340 -0.03000000 0.67843137 0.35686275 0.43529412
f 223 224 228
f 223 228 225
f 223 225 229
f 223 229 226
f 223 226 230
f 223 230 234
f 223 234 238
f 223 238 239
f 223 239 235
f 223 235 231
f 223 231 227
f 223 227 224
f 224 227 232
f 224 232 228
f 225 228 232
f 225 232 236
f 225 236 240
f 225 240 242
f 225 242 241
f 225 241 237
f 225 237 233
f 225 233 229
f 226 229 233
f 226 233 230
f 227 231 236
f 227 236 232
f 230 233 237
f 230 237 234
f 231 235 240
f 231 240 236
f 234 237 241
f 234 241 238
f 235 239 242
f 235 242 240
f 238 241 242
f 238 242 239

o geometry_14
v 0.00005212 -0.28097378 0.00000193 0.69411765 0.05882353 0.66666667
v 0.02102974 -0.28100000 0.00000193 0.69411765 0.05882353 0.66666667
v 0.00005212 -0.28097378 0.00999902 0.69411765 0.05882353 0.66666667
v 0.00005212 -0.03191517 -0.00001769 0.69411765 0.05882353 0.66666667
v 0.00135821 -0.03196761 -0.00001769 0.69411765 0.05882353 0.66666667
v 0.02102974 -0.28100000 0.00999902 0.69411765 0.05882353 0.66666667
v 0.02345860 -0.28100000 0.00000193 0.69411765 0.05882353 0.66666667
v 0.00005212 -0.02696022 0.00999902 0.69411765 0.05882353 0.66666667
v 0.00005212 -0.02696022 -0.00001769 0.69411765 0.05882353 0.66666667
v 0.00674067 -0.03131219 -0.00001769 0.69411765 0.05882353 0.66666667
v 0.02345860 -0.28100000 0.00999902 0.69411765 0.05882353 0.66666667
v 0.01192149 -0.02968675 -0.00001769 0.69411765 0.05882353 0.66666667
v 0.01676547 -0.02727482 -0.00001769 0.69411765 0.05882353 0.66666667
v 0.02102974 -0.02410260 -0.00001769 0.69411765 0.05882353 0.66666667
v 0.02112827 -0.02402395 -0.00001769 0.69411765 0.05882353 0.66666667
v 0.02345860 -0.02158579 -0.00001769 0.69411765 0.05882353 0.66666667
v 0.02345860 -0.01317024 0.00999902 0.69411765 0.05882353 0.66666667
v 0.02345860 -0.01317024 -0.00001769 0.69411765 0.05882353 0.66666667
f 243 244 248
f 243 248 245
f 243 245 250
f 243 250 251
f 243 251 246
f 243 246 247
f 243 247 244
f 244 247 249
f 244 249 253
f 244 253 248
f 245 248 253
f 245 253 259
f 245 259 250
f 246 251 260
f 246 260 258
f 246 258 257
f 246 257 256
f 246 256 255
f 246 255 254
f 246 254 252
f 246 252 247
f 247 252 249
f 249 252 254
f 249 254 255
f 249 255 256
f 249 256 257
f 249 257 258
f 249 258 260
f 249 260 259
f 249 259 253
f 250 259 260
f 250 260 251

o geometry_15
v 0.02345860 -0.28100000 0.00000095 0.67058824 0.20784314 0.12549020
v 0.04000000 -0.28100000 0.00000095 0.67058824 0.20784314 0.12549020
v 0.02345860 -0.28100000 0.01000000 0.67058824 0.20784314 0.12549020
v 0.02345860 -0.02159771 -0.00001867 0.67058824 0.20784314 0.12549020
v 0.04000000 -0.28100000 0.01000000 0.67058824 0.20784314 0.12549020
v 0.02488347 -0.02011697 -0.00001867 0.67058824 0.20784314 0.12549020
v 0.02792103 -0.01561994 -0.00001867 0.67058824 0.20784314 0.12549020
v 0.03015547 -0.01065674 -0.00001867 0.67058824 0.20784314 0.12549020
v 0.03152205 -0.00541934 -0.00001867 0.67058824 0.20784314 0.12549020
v 0.03190741 -0.00086746 -0.00001867 0.67058824 0.20784314 0.12549020
v 0.04000000 -0.00086746 0.00000095 0.67058824 0.20784314 0.12549020
v 0.02345860 -0.01317947 0.01000000 0.67058824 0.20784314 0.12549020
v 0.02345860 -0.01317947 -0.00001867 0.67058824 0.20784314 0.12549020
v 0.04000000 -0.00086746 0.01000000 0.67058824 0.20784314 0.12549020
v 0.02696410 -0.00086746 -0.00001867 0.67058824 0.20784314 0.12549020
v 0.02696410 -0.00086746 0.01000000 0.67058824 0.20784314 0.12549020
f 261 262 265
f 261 265 263
f 261 263 272
f 261 272 273
f 261 273 264
f 261 264 262
f 262 264 266
f 262 266 267
f 262 267 268
f 262 268 269
f 262 269 270
f 262 270 271
f 262 271 274
f 262 274 265
f 263 265 274
f 263 274 276
f 263 276 272
f 264 273 275
f 264 275 270
f 264 270 269
f 264 269 268
f 264 268 267
f 264 267 266
f 270 275 276
f 270 276 274
f 270 274 271
f 272 276 275
f 272 275 273

