# https://github.com/mikedh/trimesh

o geometry_0
v 0.05832952 0.02548779 0.00749853 0.54509804 0.71372549 0.60000000
v 0.05371291 0.02285400 0.00749853 0.54509804 0.71372549 0.60000000
v 0.05832952 0.02035243 0.00749853 0.54509804 0.71372549 0.60000000
v 0.05832952 0.02549557 0.00724746 0.54509804 0.71372549 0.60000000
v 0.05625028 0.02445333 0.00262089 0.54509804 0.71372549 0.60000000
v 0.04959782 0.01929269 0.00749853 0.54509804 0.71372549 0.60000000
v 0.05404764 0.02308636 -0.00019528 0.54509804 0.71372549 0.60000000
v 0.05371291 0.02285400 -0.00749853 0.54509804 0.71372549 0.60000000
v 0.05223116 0.02172815 -0.00296006 0.54509804 0.71372549 0.60000000
v 0.05171020 0.02129453 0.00219655 0.54509804 0.71372549 0.60000000
v 0.05537516 0.01556417 0.00749853 0.54509804 0.71372549 0.60000000
v 0.05832952 0.02035243 -0.00749853 0.54509804 0.71372549 0.60000000
v 0.05832952 0.02549557 -0.00724011 0.54509804 0.71372549 0.60000000
v 0.05632453 0.02449416 -0.00265466 0.54509804 0.71372549 0.60000000
v 0.04668802 0.01556417 0.00749853 0.54509804 0.71372549 0.60000000
v 0.04959782 0.01929269 -0.00749853 0.54509804 0.71372549 0.60000000
v 0.04888837 0.01851879 -0.00212314 0.54509804 0.71372549 0.60000000
v 0.04838569 0.01793253 0.00301439 0.54509804 0.71372549 0.60000000
v 0.04665832 0.01556417 0.00663665 0.54509804 0.71372549 0.60000000
v 0.05832952 0.02548779 -0.00749853 0.54509804 0.71372549 0.60000000
v 0.05537516 0.01556417 -0.00749853 0.54509804 0.71372549 0.60000000
v 0.04668802 0.01556417 -0.00749853 0.54509804 0.71372549 0.60000000
v 0.04667088 0.01556417 -0.00663665 0.54509804 0.71372549 0.60000000
v 0.04665832 0.01556417 0.00057997 0.54509804 0.71372549 0.60000000
f 1 2 6
f 1 6 15
f 1 15 11
f 1 11 3
f 1 3 12
f 1 12 20
f 1 20 13
f 1 13 4
f 1 4 5
f 1 5 2
f 2 5 7
f 2 7 8
f 2 8 9
f 2 9 10
f 2 10 6
f 3 11 21
f 3 21 12
f 4 13 14
f 4 14 5
f 5 14 7
f 6 10 16
f 6 16 17
f 6 17 18
f 6 18 19
f 6 19 15
f 7 14 8
f 8 20 12
f 8 12 21
f 8 21 22
f 8 22 16
f 8 16 9
f 8 14 20
f 9 16 10
f 11 15 19
f 11 19 24
f 11 24 23
f 11 23 22
f 11 22 21
f 13 20 14
f 16 22 23
f 16 23 17
f 17 23 18
f 18 24 19
f 18 23 24

o geometry_1
v 0.05833215 0.02035160 -0.00749853 0.54117647 0.42352941 0.64313725
v 0.05833215 0.02035160 0.00749853 0.54117647 0.42352941 0.64313725
v 0.05833215 0.02548797 -0.00749853 0.54117647 0.42352941 0.64313725
v 0.08316957 0.02035160 -0.00749853 0.54117647 0.42352941 0.64313725
v 0.05833215 0.02548797 0.00749853 0.54117647 0.42352941 0.64313725
v 0.08316957 0.02035160 0.00749853 0.54117647 0.42352941 0.64313725
v 0.05833215 0.02549620 -0.00724011 0.54117647 0.42352941 0.64313725
v 0.05844513 0.02555308 -0.00749853 0.54117647 0.42352941 0.64313725
v 0.08342969 0.02036881 -0.00749853 0.54117647 0.42352941 0.64313725
v 0.05844513 0.02555308 0.00749853 0.54117647 0.42352941 0.64313725
v 0.05833215 0.02549620 0.00724746 0.54117647 0.42352941 0.64313725
v 0.08342969 0.02036881 0.00749853 0.54117647 0.42352941 0.64313725
v 0.05948298 0.02599315 0.00018207 0.54117647 0.42352941 0.64313725
v 0.06096224 0.02653724 -0.00327868 0.54117647 0.42352941 0.64313725
v 0.06360547 0.02728491 -0.00749853 0.54117647 0.42352941 0.64313725
v 0.08368455 0.02041971 -0.00749853 0.54117647 0.42352941 0.64313725
v 0.08356369 0.02039127 -0.00721515 0.54117647 0.42352941 0.64313725
v 0.06102267 0.02655820 0.00372357 0.54117647 0.42352941 0.64313725
v 0.06360547 0.02728491 0.00749853 0.54117647 0.42352941 0.64313725
v 0.08364514 0.02040923 0.00712706 0.54117647 0.42352941 0.64313725
v 0.08368455 0.02041971 0.00749853 0.54117647 0.42352941 0.64313725
v 0.06321660 0.02719286 0.00046398 0.54117647 0.42352941 0.64313725
v 0.06521611 0.02760673 -0.00273982 0.54117647 0.42352941 0.64313725
v 0.06736274 0.02788514 -0.00489379 0.54117647 0.42352941 0.64313725
v 0.06853197 0.02796671 -0.00749853 0.54117647 0.42352941 0.64313725
v 0.08384483 0.02046910 -0.00677173 0.54117647 0.42352941 0.64313725
v 0.08393153 0.02050278 -0.00749853 0.54117647 0.42352941 0.64313725
v 0.06853197 0.02796671 0.00749853 0.54117647 0.42352941 0.64313725
v 0.06562862 0.02767334 0.00400695 0.54117647 0.42352941 0.64313725
v 0.08393153 0.02050278 0.00749853 0.54117647 0.42352941 0.64313725
v 0.06734961 0.02788439 0.00074883 0.54117647 0.42352941 0.64313725
v 0.06893134 0.02798318 -0.00210552 0.54117647 0.42352941 0.64313725
v 0.07055249 0.02799216 -0.00465300 0.54117647 0.42352941 0.64313725
v 0.07255987 0.02787167 -0.00749853 0.54117647 0.42352941 0.64313725
v 0.08416538 0.02061729 -0.00749853 0.54117647 0.42352941 0.64313725
v 0.08396569 0.02051700 -0.00725039 0.54117647 0.42352941 0.64313725
v 0.07027135 0.02799665 0.00403044 0.54117647 0.42352941 0.64313725
v 0.07255987 0.02787167 0.00749853 0.54117647 0.42352941 0.64313725
v 0.08399197 0.02052823 -0.00501273 0.54117647 0.42352941 0.64313725
v 0.08401824 0.02054095 0.00719900 0.54117647 0.42352941 0.64313725
v 0.08416538 0.02061729 0.00749853 0.54117647 0.42352941 0.64313725
v 0.07090720 0.02798093 0.00068422 0.54117647 0.42352941 0.64313725
v 0.07214473 0.02790834 -0.00186766 0.54117647 0.42352941 0.64313725
v 0.07287516 0.02784023 0.00260033 0.54117647 0.42352941 0.64313725
v 0.07361611 0.02775043 -0.00417580 0.54117647 0.42352941 0.64313725
v 0.07511376 0.02750794 -0.00571310 0.54117647 0.42352941 0.64313725
v 0.07578902 0.02737098 -0.00749853 0.54117647 0.42352941 0.64313725
v 0.08426785 0.02067941 -0.00729591 0.54117647 0.42352941 0.64313725
v 0.08419691 0.02063600 -0.00642522 0.54117647 0.42352941 0.64313725
v 0.08405240 0.02055667 0.00606255 0.54117647 0.42352941 0.64313725
v 0.08438346 0.02076173 -0.00749853 0.54117647 0.42352941 0.64313725
v 0.07578902 0.02737098 0.00749853 0.54117647 0.42352941 0.64313725
v 0.07402337 0.02769280 0.00492316 0.54117647 0.42352941 0.64313725
v 0.08405240 0.02055667 0.00668363 0.54117647 0.42352941 0.64313725
v 0.08427048 0.02068240 0.00717991 0.54117647 0.42352941 0.64313725
v 0.08438346 0.02076173 0.00749853 0.54117647 0.42352941 0.64313725
v 0.07377901 0.02772797 0.00053886 0.54117647 0.42352941 0.64313725
v 0.07495349 0.02753787 -0.00169000 0.54117647 0.42352941 0.64313725
v 0.07535549 0.02746079 0.00272661 0.54117647 0.42352941 0.64313725
v 0.07622518 0.02727294 -0.00375294 0.54117647 0.42352941 0.64313725
v 0.07729719 0.02700126 -0.00566318 0.54117647 0.42352941 0.64313725
v 0.07834555 0.02669217 -0.00749853 0.54117647 0.42352941 0.64313725
v 0.08434405 0.02073254 -0.00570576 0.54117647 0.42352941 0.64313725
v 0.08430726 0.02070710 0.00527849 0.54117647 0.42352941 0.64313725
v 0.08458052 0.02093237 -0.00749853 0.54117647 0.42352941 0.64313725
v 0.08453060 0.02088672 -0.00725627 0.54117647 0.42352941 0.64313725
v 0.08439134 0.02076697 -0.00391004 0.54117647 0.42352941 0.64313725
v 0.07834555 0.02669217 0.00749853 0.54117647 0.42352941 0.64313725
v 0.07718946 0.02703120 0.00504796 0.54117647 0.42352941 0.64313725
v 0.07635656 0.02724225 0.00051977 0.54117647 0.42352941 0.64313725
v 0.08435981 0.02074377 0.00377937 0.54117647 0.42352941 0.64313725
v 0.08438609 0.02076323 0.00075470 0.54117647 0.42352941 0.64313725
v 0.08448068 0.02083957 0.00726214 0.54117647 0.42352941 0.64313725
v 0.08458052 0.02093237 0.00749853 0.54117647 0.42352941 0.64313725
v 0.07747060 0.02695336 -0.00160190 0.54117647 0.42352941 0.64313725
v 0.07782268 0.02685233 0.00250343 0.54117647 0.42352941 0.64313725
v 0.07866610 0.02658814 0.00041993 0.54117647 0.42352941 0.64313725
v 0.07876857 0.02655371 -0.00373972 0.54117647 0.42352941 0.64313725
v 0.07938865 0.02633891 -0.00585552 0.54117647 0.42352941 0.64313725
v 0.08036081 0.02596770 -0.00749853 0.54117647 0.42352941 0.64313725
v 0.08455425 0.02090767 0.00629013 0.54117647 0.42352941 0.64313725
v 0.08475131 0.02112771 -0.00749853 0.54117647 0.42352941 0.64313725
v 0.08472766 0.02109627 -0.00627839 0.54117647 0.42352941 0.64313725
v 0.08464095 0.02099599 -0.00496134 0.54117647 0.42352941 0.64313725
v 0.08036081 0.02596770 0.00749853 0.54117647 0.42352941 0.64313725
v 0.07951214 0.02629401 0.00589223 0.54117647 0.42352941 0.64313725
v 0.07936500 0.02634715 0.00405834 0.54117647 0.42352941 0.64313725
v 0.08465672 0.02101395 0.00720928 0.54117647 0.42352941 0.64313725
v 0.08475131 0.02112771 0.00749853 0.54117647 0.42352941 0.64313725
v 0.07967767 0.02623264 -0.00152702 0.54117647 0.42352941 0.64313725
v 0.07991940 0.02614133 0.00215838 0.54117647 0.42352941 0.64313725
v 0.08064983 0.02584945 0.00029219 0.54117647 0.42352941 0.64313725
v 0.08075493 0.02580455 -0.00317296 0.54117647 0.42352941 0.64313725
v 0.08108599 0.02566310 -0.00606108 0.54117647 0.42352941 0.64313725
v 0.08194780 0.02526943 -0.00749853 0.54117647 0.42352941 0.64313725
v 0.08489844 0.02134325 -0.00749853 0.54117647 0.42352941 0.64313725
v 0.08479072 0.02117935 -0.00719607 0.54117647 0.42352941 0.64313725
v 0.08475656 0.02113444 0.00685102 0.54117647 0.42352941 0.64313725
v 0.08194780 0.02526943 0.00749853 0.54117647 0.42352941 0.64313725
v 0.08114380 0.02563840 0.00621966 0.54117647 0.42352941 0.64313725
v 0.08060517 0.02586741 0.00497749 0.54117647 0.42352941 0.64313725
v 0.08483801 0.02124820 0.00721956 0.54117647 0.42352941 0.64313725
v 0.08489844 0.02134325 0.00749853 0.54117647 0.42352941 0.64313725
v 0.08163513 0.02541687 -0.00145507 0.54117647 0.42352941 0.64313725
v 0.08189525 0.02529488 0.00504356 0.54117647 0.42352941 0.64313725
v 0.08209757 0.02519833 -0.00304963 0.54117647 0.42352941 0.64313725
v 0.08247592 0.02501048 -0.00623434 0.54117647 0.42352941 0.64313725
v 0.08320110 0.02463328 -0.00749853 0.54117647 0.42352941 0.64313725
v 0.08501405 0.02157601 -0.00749853 0.54117647 0.42352941 0.64313725
v 0.08494574 0.02142857 -0.00724452 0.54117647 0.42352941 0.64313725
v 0.08492735 0.02139414 -0.00559857 0.54117647 0.42352941 0.64313725
v 0.08320110 0.02463328 0.00749853 0.54117647 0.42352941 0.64313725
v 0.08248118 0.02500898 0.00636208 0.54117647 0.42352941 0.64313725
v 0.08495625 0.02144878 0.00698316 0.54117647 0.42352941 0.64313725
v 0.08495888 0.02145551 0.00728269 0.54117647 0.42352941 0.64313725
v 0.08501405 0.02157601 0.00749853 0.54117647 0.42352941 0.64313725
v 0.08282012 0.02483535 0.00366778 0.54117647 0.42352941 0.64313725
v 0.08305659 0.02471036 -0.00224354 0.54117647 0.42352941 0.64313725
v 0.08305134 0.02471336 -0.00069303 0.54117647 0.42352941 0.64313725
v 0.08310914 0.02468267 0.00084280 0.54117647 0.42352941 0.64313725
v 0.08346385 0.02448958 -0.00649863 0.54117647 0.42352941 0.64313725
v 0.08419166 0.02407122 -0.00749853 0.54117647 0.42352941 0.64313725
v 0.08496150 0.02146000 0.00575715 0.54117647 0.42352941 0.64313725
v 0.08509813 0.02182223 -0.00749853 0.54117647 0.42352941 0.64313725
v 0.08505084 0.02167106 -0.00718872 0.54117647 0.42352941 0.64313725
v 0.08505346 0.02167554 0.00721368 0.54117647 0.42352941 0.64313725
v 0.08345596 0.02449332 0.00654415 0.54117647 0.42352941 0.64313725
v 0.08419166 0.02407122 0.00749853 0.54117647 0.42352941 0.64313725
v 0.08509813 0.02182223 0.00749853 0.54117647 0.42352941 0.64313725
v 0.08440711 0.02392378 -0.00749853 0.54117647 0.42352941 0.64313725
v 0.08515068 0.02207744 -0.00749853 0.54117647 0.42352941 0.64313725
v 0.08513491 0.02197416 -0.00721368 0.54117647 0.42352941 0.64313725
v 0.08510864 0.02185891 -0.00683487 0.54117647 0.42352941 0.64313725
v 0.08509550 0.02180652 0.00305844 0.54117647 0.42352941 0.64313725
v 0.08505609 0.02168602 -0.00629601 0.54117647 0.42352941 0.64313725
v 0.08509025 0.02179005 0.00683487 0.54117647 0.42352941 0.64313725
v 0.08440711 0.02392378 0.00749853 0.54117647 0.42352941 0.64313725
v 0.08513491 0.02197791 0.00718872 0.54117647 0.42352941 0.64313725
v 0.08515068 0.02207744 0.00749853 0.54117647 0.42352941 0.64313725
v 0.08455162 0.02379880 0.00713293 0.54117647 0.42352941 0.64313725
v 0.08458578 0.02376437 -0.00711531 0.54117647 0.42352941 0.64313725
v 0.08460154 0.02375015 -0.00749853 0.54117647 0.42352941 0.64313725
v 0.08517170 0.02233714 -0.00749853 0.54117647 0.42352941 0.64313725
v 0.08516644 0.02221141 -0.00728269 0.54117647 0.42352941 0.64313725
v 0.08510864 0.02185741 -0.00305844 0.54117647 0.42352941 0.64313725
v 0.08460154 0.02375015 0.00749853 0.54117647 0.42352941 0.64313725
v 0.08516644 0.02223985 0.00724452 0.54117647 0.42352941 0.64313725
v 0.08517170 0.02233714 0.00749853 0.54117647 0.42352941 0.64313725
v 0.08473029 0.02360346 0.00673943 0.54117647 0.42352941 0.64313725
v 0.08476970 0.02355257 -0.00749853 0.54117647 0.42352941 0.64313725
v 0.08516907 0.02245390 -0.00721956 0.54117647 0.42352941 0.64313725
v 0.08515594 0.02259684 -0.00749853 0.54117647 0.42352941 0.64313725
v 0.08516907 0.02227877 0.00683634 0.54117647 0.42352941 0.64313725
v 0.08476970 0.02355257 0.00749853 0.54117647 0.42352941 0.64313725
v 0.08516119 0.02253098 0.00719460 0.54117647 0.42352941 0.64313725
v 0.08515594 0.02259684 0.00749853 0.54117647 0.42352941 0.64313725
v 0.08480385 0.02350766 0.00501126 0.54117647 0.42352941 0.64313725
v 0.08483801 0.02345602 -0.00603612 0.54117647 0.42352941 0.64313725
v 0.08483276 0.02346276 -0.00659113 0.54117647 0.42352941 0.64313725
v 0.08491158 0.02333478 -0.00749853 0.54117647 0.42352941 0.64313725
v 0.08515594 0.02260133 -0.00684808 0.54117647 0.42352941 0.64313725
v 0.08512966 0.02275626 -0.00720928 0.54117647 0.42352941 0.64313725
v 0.08510601 0.02285280 -0.00749853 0.54117647 0.42352941 0.64313725
v 0.08491158 0.02333478 0.00749853 0.54117647 0.42352941 0.64313725
v 0.08483276 0.02346575 0.00718579 0.54117647 0.42352941 0.64313725
v 0.08515068 0.02264025 0.00627545 0.54117647 0.42352941 0.64313725
v 0.08510601 0.02285280 0.00749853 0.54117647 0.42352941 0.64313725
v 0.08491421 0.02333179 -0.00720194 0.54117647 0.42352941 0.64313725
v 0.08502456 0.02309978 -0.00749853 0.54117647 0.42352941 0.64313725
v 0.08512441 0.02278095 0.00495987 0.54117647 0.42352941 0.64313725
v 0.08505872 0.02301446 -0.00726507 0.54117647 0.42352941 0.64313725
v 0.08509288 0.02290294 -0.00627398 0.54117647 0.42352941 0.64313725
v 0.08497464 0.02321354 0.00727829 0.54117647 0.42352941 0.64313725
v 0.08493260 0.02329661 0.00641641 0.54117647 0.42352941 0.64313725
v 0.08502456 0.02309978 0.00749853 0.54117647 0.42352941 0.64313725
v 0.08511390 0.02282062 0.00682312 0.54117647 0.42352941 0.64313725
v 0.08509025 0.02291118 0.00725186 0.54117647 0.42352941 0.64313725
v 0.08496676 0.02322925 0.00695086 0.54117647 0.42352941 0.64313725
v 0.08498252 0.02319707 -0.00527555 0.54117647 0.42352941 0.64313725
v 0.08500880 0.02314169 -0.00378083 0.54117647 0.42352941 0.64313725
v 0.08502193 0.02311100 -0.00075176 0.54117647 0.42352941 0.64313725
v 0.08502719 0.02309828 0.00228759 0.54117647 0.42352941 0.64313725
v 0.08500354 0.02315067 0.00570429 0.54117647 0.42352941 0.64313725
f 25 26 29
f 25 29 35
f 25 35 31
f 25 31 27
f 25 27 32
f 25 32 39
f 25 39 49
f 25 49 58
f 25 58 71
f 25 71 86
f 25 86 104
f 25 104 119
f 25 119 132
f 25 132 146
f 25 146 154
f 25 154 166
f 25 166 174
f 25 174 184
f 25 184 193
f 25 193 187
f 25 187 176
f 25 176 167
f 25 167 155
f 25 155 148
f 25 148 133
f 25 133 120
f 25 120 106
f 25 106 89
f 25 89 75
f 25 75 59
f 25 59 51
f 25 51 40
f 25 40 33
f 25 33 28
f 25 28 30
f 25 30 26
f 26 30 36
f 26 36 45
f 26 45 54
f 26 54 65
f 26 65 80
f 26 80 98
f 26 98 113
f 26 113 127
f 26 127 140
f 26 140 153
f 26 153 163
f 26 163 172
f 26 172 180
f 26 180 191
f 26 191 199
f 26 199 188
f 26 188 178
f 26 178 170
f 26 170 161
f 26 161 152
f 26 152 136
f 26 136 123
f 26 123 109
f 26 109 92
f 26 92 76
f 26 76 62
f 26 62 52
f 26 52 43
f 26 43 34
f 26 34 29
f 27 31 32
f 28 33 36
f 28 36 30
f 29 34 35
f 31 35 34
f 31 34 32
f 32 34 37
f 32 37 38
f 32 38 39
f 33 40 41
f 33 41 36
f 34 42 37
f 34 43 42
f 36 41 44
f 36 44 45
f 37 42 38
f 38 42 46
f 38 46 39
f 39 46 43
f 39 43 47
f 39 47 48
f 39 48 49
f 40 50 45
f 40 45 44
f 40 44 41
f 40 51 50
f 42 43 46
f 43 52 53
f 43 53 47
f 45 50 54
f 47 53 48
f 48 55 49
f 48 53 55
f 49 55 52
f 49 52 56
f 49 56 57
f 49 57 58
f 50 51 54
f 51 59 60
f 51 60 54
f 52 61 56
f 52 55 53
f 52 62 61
f 54 60 63
f 54 63 64
f 54 64 65
f 56 61 57
f 57 66 67
f 57 67 58
f 57 61 66
f 58 67 62
f 58 62 68
f 58 68 69
f 58 69 70
f 58 70 71
f 59 72 73
f 59 73 65
f 59 65 78
f 59 78 74
f 59 74 63
f 59 63 60
f 59 75 72
f 61 62 66
f 62 76 77
f 62 77 68
f 62 67 66
f 63 74 78
f 63 78 64
f 64 78 65
f 65 73 72
f 65 72 79
f 65 79 80
f 68 77 81
f 68 81 69
f 69 81 77
f 69 77 82
f 69 82 70
f 70 82 83
f 70 83 71
f 71 76 84
f 71 84 85
f 71 85 86
f 71 83 76
f 72 87 88
f 72 88 79
f 72 75 87
f 75 89 90
f 75 90 91
f 75 91 87
f 76 92 93
f 76 93 94
f 76 94 84
f 76 83 77
f 77 83 82
f 79 88 80
f 80 88 95
f 80 95 96
f 80 96 91
f 80 91 97
f 80 97 98
f 84 94 85
f 85 99 86
f 85 94 93
f 85 93 99
f 86 99 100
f 86 100 92
f 86 92 101
f 86 101 102
f 86 102 103
f 86 103 104
f 87 95 88
f 87 91 95
f 89 105 97
f 89 97 90
f 89 106 107
f 89 107 108
f 89 108 98
f 89 98 105
f 90 97 91
f 91 96 95
f 92 100 93
f 92 109 110
f 92 110 111
f 92 111 101
f 93 100 99
f 97 105 98
f 98 108 112
f 98 112 113
f 101 111 102
f 102 111 103
f 103 111 110
f 103 110 114
f 103 114 104
f 104 114 115
f 104 115 109
f 104 109 116
f 104 116 117
f 104 117 118
f 104 118 119
f 106 120 121
f 106 121 107
f 107 121 122
f 107 122 113
f 107 113 112
f 107 112 108
f 109 123 124
f 109 124 125
f 109 125 116
f 109 115 110
f 110 115 114
f 113 122 126
f 113 126 127
f 116 125 124
f 116 124 118
f 116 118 117
f 118 124 128
f 118 128 119
f 119 128 129
f 119 129 130
f 119 130 131
f 119 131 132
f 120 133 134
f 120 134 135
f 120 135 127
f 120 127 126
f 120 126 121
f 121 126 122
f 123 130 129
f 123 129 124
f 123 136 137
f 123 137 130
f 124 129 128
f 127 135 138
f 127 138 139
f 127 139 140
f 130 137 131
f 131 137 141
f 131 141 142
f 131 142 132
f 132 142 143
f 132 143 144
f 132 144 136
f 132 136 145
f 132 145 146
f 133 140 147
f 133 147 134
f 133 148 149
f 133 149 150
f 133 150 140
f 134 147 138
f 134 138 135
f 136 151 145
f 136 144 141
f 136 141 137
f 136 152 151
f 138 147 140
f 138 140 139
f 140 150 153
f 141 144 143
f 141 143 142
f 145 151 152
f 145 152 146
f 146 152 161
f 146 161 154
f 148 155 156
f 148 156 157
f 148 157 158
f 148 158 159
f 148 159 149
f 149 159 150
f 150 159 158
f 150 158 160
f 150 160 153
f 153 160 158
f 153 158 162
f 153 162 163
f 154 161 164
f 154 164 165
f 154 165 166
f 155 167 168
f 155 168 163
f 155 163 156
f 156 163 162
f 156 162 169
f 156 169 157
f 157 169 158
f 158 169 162
f 161 170 164
f 163 168 171
f 163 171 172
f 164 170 166
f 164 166 165
f 166 170 173
f 166 173 174
f 167 175 172
f 167 172 168
f 167 176 175
f 168 172 177
f 168 177 171
f 170 178 173
f 171 177 172
f 172 175 179
f 172 179 180
f 173 178 174
f 174 178 181
f 174 181 182
f 174 182 183
f 174 183 184
f 175 180 179
f 175 176 185
f 175 185 180
f 176 186 185
f 176 187 186
f 178 188 189
f 178 189 181
f 180 185 190
f 180 190 191
f 181 189 182
f 182 189 192
f 182 192 183
f 183 192 184
f 184 192 193
f 185 186 190
f 186 194 190
f 186 187 194
f 187 193 195
f 187 195 196
f 187 196 191
f 187 191 194
f 188 197 198
f 188 198 192
f 188 192 189
f 188 199 197
f 190 194 200
f 190 200 191
f 191 196 201
f 191 201 199
f 191 200 194
f 192 198 202
f 192 202 203
f 192 203 193
f 193 203 204
f 193 204 205
f 193 205 195
f 195 205 206
f 195 206 201
f 195 201 196
f 197 207 204
f 197 204 203
f 197 203 202
f 197 202 198
f 197 199 207
f 199 201 206
f 199 206 207
f 204 207 206
f 204 206 205

o geometry_2
v 0.05815197 -0.02035118 0.00749853 0.43529412 0.89019608 0.96078431
v 0.05505978 -0.01501721 0.00749853 0.43529412 0.89019608 0.96078431
v 0.05815197 -0.02538712 0.00749853 0.43529412 0.89019608 0.96078431
v 0.05815197 -0.02035118 -0.00749853 0.43529412 0.89019608 0.96078431
v 0.04626052 -0.01501721 0.00749853 0.43529412 0.89019608 0.96078431
v 0.05505978 -0.01501721 -0.00749853 0.43529412 0.89019608 0.96078431
v 0.05371392 -0.02285440 0.00749853 0.43529412 0.89019608 0.96078431
v 0.05815197 -0.02540848 0.00683193 0.43529412 0.89019608 0.96078431
v 0.05815197 -0.02538712 -0.00749853 0.43529412 0.89019608 0.96078431
v 0.04888935 -0.01851928 0.00212314 0.43529412 0.89019608 0.96078431
v 0.04959720 -0.01929232 0.00749853 0.43529412 0.89019608 0.96078431
v 0.04625935 -0.01501721 -0.00001762 0.43529412 0.89019608 0.96078431
v 0.04838640 -0.01793238 -0.00301439 0.43529412 0.89019608 0.96078431
v 0.04626052 -0.01501721 -0.00749853 0.43529412 0.89019608 0.96078431
v 0.05223302 -0.02173044 0.00296006 0.43529412 0.89019608 0.96078431
v 0.05371392 -0.02285440 -0.00749853 0.43529412 0.89019608 0.96078431
v 0.05405388 -0.02309140 0.00019528 0.43529412 0.89019608 0.96078431
v 0.05633810 -0.02450117 0.00265613 0.43529412 0.89019608 0.96078431
v 0.05815197 -0.02540746 -0.00685102 0.43529412 0.89019608 0.96078431
v 0.04959720 -0.01929232 -0.00749853 0.43529412 0.89019608 0.96078431
v 0.05171261 -0.02129713 -0.00219655 0.43529412 0.89019608 0.96078431
v 0.04625935 -0.01501721 -0.00747357 0.43529412 0.89019608 0.96078431
v 0.05626359 -0.02446049 -0.00262089 0.43529412 0.89019608 0.96078431
f 208 209 212
f 208 212 218
f 208 218 214
f 208 214 210
f 208 210 215
f 208 215 226
f 208 226 216
f 208 216 211
f 208 211 213
f 208 213 209
f 209 213 221
f 209 221 229
f 209 229 219
f 209 219 212
f 210 214 215
f 211 216 223
f 211 223 227
f 211 227 221
f 211 221 213
f 212 217 218
f 212 219 220
f 212 220 217
f 214 218 222
f 214 222 223
f 214 223 224
f 214 224 225
f 214 225 215
f 215 225 226
f 216 226 223
f 217 220 227
f 217 227 218
f 218 227 228
f 218 228 222
f 219 229 220
f 220 229 227
f 221 227 229
f 222 228 223
f 223 226 230
f 223 230 224
f 223 228 227
f 224 230 225
f 225 230 226

o geometry_3
v 0.05815578 -0.02538715 -0.00749853 0.38039216 0.78823529 0.52549020
v 0.05815578 -0.02035160 -0.00749853 0.38039216 0.78823529 0.52549020
v 0.05844405 -0.02555253 -0.00749853 0.38039216 0.78823529 0.52549020
v 0.05815578 -0.02540736 -0.00685102 0.38039216 0.78823529 0.52549020
v 0.05815578 -0.02035160 0.00749853 0.38039216 0.78823529 0.52549020
v 0.08316964 -0.02035160 -0.00749853 0.38039216 0.78823529 0.52549020
v 0.06105176 -0.02656803 -0.00372357 0.38039216 0.78823529 0.52549020
v 0.05951517 -0.02600603 -0.00018207 0.38039216 0.78823529 0.52549020
v 0.05844405 -0.02555253 0.00749853 0.38039216 0.78823529 0.52549020
v 0.05815578 -0.02540811 0.00683193 0.38039216 0.78823529 0.52549020
v 0.06360657 -0.02728493 -0.00749853 0.38039216 0.78823529 0.52549020
v 0.05815578 -0.02538715 0.00749853 0.38039216 0.78823529 0.52549020
v 0.08316964 -0.02035160 0.00749853 0.38039216 0.78823529 0.52549020
v 0.08343147 -0.02036881 -0.00749853 0.38039216 0.78823529 0.52549020
v 0.06099886 -0.02655007 0.00328015 0.38039216 0.78823529 0.52549020
v 0.06328127 -0.02720785 -0.00046104 0.38039216 0.78823529 0.52549020
v 0.06360657 -0.02728493 0.00749853 0.38039216 0.78823529 0.52549020
v 0.06853370 -0.02796667 -0.00749853 0.38039216 0.78823529 0.52549020
v 0.06567475 -0.02768005 -0.00400548 0.38039216 0.78823529 0.52549020
v 0.06527804 -0.02761719 0.00274422 0.38039216 0.78823529 0.52549020
v 0.08343147 -0.02036881 0.00749853 0.38039216 0.78823529 0.52549020
v 0.08363775 -0.02040773 0.00713733 0.38039216 0.78823529 0.52549020
v 0.08366685 -0.02041446 -0.00711531 0.38039216 0.78823529 0.52549020
v 0.08368536 -0.02041970 -0.00749853 0.38039216 0.78823529 0.52549020
v 0.06740176 -0.02788884 0.00489673 0.38039216 0.78823529 0.52549020
v 0.06853370 -0.02796667 0.00749853 0.38039216 0.78823529 0.52549020
v 0.06899653 -0.02798537 0.00211139 0.38039216 0.78823529 0.52549020
v 0.06742556 -0.02789108 -0.00074442 0.38039216 0.78823529 0.52549020
v 0.07256163 -0.02787163 -0.00749853 0.38039216 0.78823529 0.52549020
v 0.07032683 -0.02799585 -0.00403485 0.38039216 0.78823529 0.52549020
v 0.08368536 -0.02041970 0.00749853 0.38039216 0.78823529 0.52549020
v 0.08389958 -0.02049004 0.00672915 0.38039216 0.78823529 0.52549020
v 0.08393132 -0.02050276 -0.00749853 0.38039216 0.78823529 0.52549020
v 0.07058866 -0.02799061 0.00465740 0.38039216 0.78823529 0.52549020
v 0.07256163 -0.02787163 0.00749853 0.38039216 0.78823529 0.52549020
v 0.07578820 -0.02737099 -0.00749853 0.38039216 0.78823529 0.52549020
v 0.07407177 -0.02768529 -0.00498776 0.38039216 0.78823529 0.52549020
v 0.07301388 -0.02782448 -0.00261942 0.38039216 0.78823529 0.52549020
v 0.07220194 -0.02790381 0.00188087 0.38039216 0.78823529 0.52549020
v 0.07098801 -0.02797789 -0.00067835 0.38039216 0.78823529 0.52549020
v 0.08393132 -0.02050276 0.00749853 0.38039216 0.78823529 0.52549020
v 0.08397893 -0.02052297 0.00501273 0.38039216 0.78823529 0.52549020
v 0.08403447 -0.02054766 -0.00659113 0.38039216 0.78823529 0.52549020
v 0.08416670 -0.02061726 -0.00749853 0.38039216 0.78823529 0.52549020
v 0.07364332 -0.02774666 0.00418314 0.38039216 0.78823529 0.52549020
v 0.07512702 -0.02750494 0.00571603 0.38039216 0.78823529 0.52549020
v 0.07578820 -0.02737099 0.00749853 0.38039216 0.78823529 0.52549020
v 0.07834565 -0.02669225 -0.00749853 0.38039216 0.78823529 0.52549020
v 0.07692543 -0.02710084 -0.00537686 0.38039216 0.78823529 0.52549020
v 0.07645731 -0.02721833 -0.00038175 0.38039216 0.78823529 0.52549020
v 0.07625631 -0.02726548 0.00376615 0.38039216 0.78823529 0.52549020
v 0.07578555 -0.02737174 -0.00280296 0.38039216 0.78823529 0.52549020
v 0.07500271 -0.02752889 0.00172670 0.38039216 0.78823529 0.52549020
v 0.07389722 -0.02771148 -0.00051684 0.38039216 0.78823529 0.52549020
v 0.08416670 -0.02061726 0.00749853 0.38039216 0.78823529 0.52549020
v 0.08412968 -0.02059706 0.00721515 0.38039216 0.78823529 0.52549020
v 0.08416935 -0.02061876 -0.00720194 0.38039216 0.78823529 0.52549020
v 0.08429630 -0.02069958 -0.00527555 0.38039216 0.78823529 0.52549020
v 0.08438357 -0.02076169 -0.00749853 0.38039216 0.78823529 0.52549020
v 0.07731156 -0.02699757 0.00566024 0.38039216 0.78823529 0.52549020
v 0.07834565 -0.02669225 0.00749853 0.38039216 0.78823529 0.52549020
v 0.07784844 -0.02684491 -0.00187353 0.38039216 0.78823529 0.52549020
v 0.08036094 -0.02596786 -0.00749853 0.38039216 0.78823529 0.52549020
v 0.07924486 -0.02639067 -0.00571163 0.38039216 0.78823529 0.52549020
v 0.07871856 -0.02657027 -0.00027310 0.38039216 0.78823529 0.52549020
v 0.07835094 -0.02669075 -0.00370008 0.38039216 0.78823529 0.52549020
v 0.07752049 -0.02693920 0.00165329 0.38039216 0.78823529 0.52549020
v 0.08428042 -0.02068910 0.00687598 0.38039216 0.78823529 0.52549020
v 0.08420373 -0.02063896 0.00639879 0.38039216 0.78823529 0.52549020
v 0.08438357 -0.02076169 0.00749853 0.38039216 0.78823529 0.52549020
v 0.08436506 -0.02074672 -0.00226410 0.38039216 0.78823529 0.52549020
v 0.08445233 -0.02081557 -0.00690388 0.38039216 0.78823529 0.52549020
v 0.08445498 -0.02081856 -0.00726507 0.38039216 0.78823529 0.52549020
v 0.08457928 -0.02093231 -0.00749853 0.38039216 0.78823529 0.52549020
v 0.07880848 -0.02654034 0.00374119 0.38039216 0.78823529 0.52549020
v 0.07940883 -0.02633155 0.00585258 0.38039216 0.78823529 0.52549020
v 0.08036094 -0.02596786 0.00749853 0.38039216 0.78823529 0.52549020
v 0.08194777 -0.02526966 -0.00749853 0.38039216 0.78823529 0.52549020
v 0.08108030 -0.02566553 -0.00598913 0.38039216 0.78823529 0.52549020
v 0.08076294 -0.02580173 -0.00027310 0.38039216 0.78823529 0.52549020
v 0.08037945 -0.02596038 -0.00424041 0.38039216 0.78823529 0.52549020
v 0.07990869 -0.02614522 -0.00216719 0.38039216 0.78823529 0.52549020
v 0.07976058 -0.02620209 0.00155198 0.38039216 0.78823529 0.52549020
v 0.08433068 -0.02072352 0.00570135 0.38039216 0.78823529 0.52549020
v 0.08457928 -0.02093231 0.00749853 0.38039216 0.78823529 0.52549020
v 0.08451581 -0.02087244 0.00722690 0.38039216 0.78823529 0.52549020
v 0.08454225 -0.02089639 -0.00627251 0.38039216 0.78823529 0.52549020
v 0.08458986 -0.02094204 0.00679229 0.38039216 0.78823529 0.52549020
v 0.08464804 -0.02100415 -0.00720928 0.38039216 0.78823529 0.52549020
v 0.08475119 -0.02112763 -0.00749853 0.38039216 0.78823529 0.52549020
v 0.08042705 -0.02594092 0.00467942 0.38039216 0.78823529 0.52549020
v 0.08082641 -0.02577404 0.00316562 0.38039216 0.78823529 0.52549020
v 0.08110675 -0.02565431 0.00605961 0.38039216 0.78823529 0.52549020
v 0.08194777 -0.02526966 0.00749853 0.38039216 0.78823529 0.52549020
v 0.08180496 -0.02533776 0.00145360 0.38039216 0.78823529 0.52549020
v 0.08165685 -0.02540736 -0.00314947 0.38039216 0.78823529 0.52549020
v 0.08320138 -0.02463283 -0.00749853 0.38039216 0.78823529 0.52549020
v 0.08250052 -0.02499877 -0.00626224 0.38039216 0.78823529 0.52549020
v 0.08199538 -0.02524721 -0.00478955 0.38039216 0.78823529 0.52549020
v 0.08475119 -0.02112763 0.00749853 0.38039216 0.78823529 0.52549020
v 0.08470623 -0.02107150 0.00626224 0.38039216 0.78823529 0.52549020
v 0.08462424 -0.02097871 0.00496280 0.38039216 0.78823529 0.52549020
v 0.08474854 -0.02112388 -0.00684808 0.38039216 0.78823529 0.52549020
v 0.08478557 -0.02117253 0.00716964 0.38039216 0.78823529 0.52549020
v 0.08483582 -0.02124437 -0.00721956 0.38039216 0.78823529 0.52549020
v 0.08489665 -0.02134315 -0.00749853 0.38039216 0.78823529 0.52549020
v 0.08217257 -0.02516116 0.00304963 0.38039216 0.78823529 0.52549020
v 0.08249259 -0.02500326 0.00624168 0.38039216 0.78823529 0.52549020
v 0.08320138 -0.02463283 0.00749853 0.38039216 0.78823529 0.52549020
v 0.08347114 -0.02448466 -0.00651331 0.38039216 0.78823529 0.52549020
v 0.08347114 -0.02448541 0.00650304 0.38039216 0.78823529 0.52549020
v 0.08304534 -0.02471664 -0.00382488 0.38039216 0.78823529 0.52549020
v 0.08419315 -0.02407158 -0.00749853 0.38039216 0.78823529 0.52549020
v 0.08291310 -0.02478624 -0.00225969 0.38039216 0.78823529 0.52549020
v 0.08268565 -0.02490448 -0.00047279 0.38039216 0.78823529 0.52549020
v 0.08489665 -0.02134315 0.00749853 0.38039216 0.78823529 0.52549020
v 0.08488871 -0.02132968 0.00677173 0.38039216 0.78823529 0.52549020
v 0.08490987 -0.02136410 0.00560151 0.38039216 0.78823529 0.52549020
v 0.08494161 -0.02142247 -0.00649716 0.38039216 0.78823529 0.52549020
v 0.08495748 -0.02145390 -0.00728269 0.38039216 0.78823529 0.52549020
v 0.08501301 -0.02157588 -0.00749853 0.38039216 0.78823529 0.52549020
v 0.08419315 -0.02407158 0.00749853 0.38039216 0.78823529 0.52549020
v 0.08440737 -0.02392416 -0.00749853 0.38039216 0.78823529 0.52549020
v 0.08501301 -0.02157588 0.00749853 0.38039216 0.78823529 0.52549020
v 0.08496805 -0.02147785 0.00718432 0.38039216 0.78823529 0.52549020
v 0.08495483 -0.02144716 -0.00575421 0.38039216 0.78823529 0.52549020
v 0.08503682 -0.02163051 0.00630335 0.38039216 0.78823529 0.52549020
v 0.08505269 -0.02167316 -0.00721368 0.38039216 0.78823529 0.52549020
v 0.08510029 -0.02182208 -0.00749853 0.38039216 0.78823529 0.52549020
v 0.08440737 -0.02392416 0.00749853 0.38039216 0.78823529 0.52549020
v 0.08460044 -0.02374980 -0.00749853 0.38039216 0.78823529 0.52549020
v 0.08451052 -0.02383660 -0.00721515 0.38039216 0.78823529 0.52549020
v 0.08510029 -0.02182208 0.00749853 0.38039216 0.78823529 0.52549020
v 0.08506591 -0.02171657 0.00726361 0.38039216 0.78823529 0.52549020
v 0.08508971 -0.02178541 -0.00683487 0.38039216 0.78823529 0.52549020
v 0.08511087 -0.02186623 0.00461776 0.38039216 0.78823529 0.52549020
v 0.08513203 -0.02195603 0.00722690 0.38039216 0.78823529 0.52549020
v 0.08513203 -0.02196127 -0.00629601 0.38039216 0.78823529 0.52549020
v 0.08513467 -0.02197624 -0.00718872 0.38039216 0.78823529 0.52549020
v 0.08515054 -0.02207726 -0.00749853 0.38039216 0.78823529 0.52549020
v 0.08457135 -0.02377823 0.00712999 0.38039216 0.78823529 0.52549020
v 0.08460044 -0.02374980 0.00749853 0.38039216 0.78823529 0.52549020
v 0.08471152 -0.02362632 -0.00677173 0.38039216 0.78823529 0.52549020
v 0.08476970 -0.02355223 -0.00749853 0.38039216 0.78823529 0.52549020
v 0.08515054 -0.02207726 0.00749853 0.38039216 0.78823529 0.52549020
v 0.08515848 -0.02212965 0.00696261 0.38039216 0.78823529 0.52549020
v 0.08516377 -0.02217455 0.00577330 0.38039216 0.78823529 0.52549020
v 0.08516641 -0.02223890 -0.00724452 0.38039216 0.78823529 0.52549020
v 0.08516906 -0.02233694 -0.00749853 0.38039216 0.78823529 0.52549020
v 0.08476970 -0.02355223 0.00749853 0.38039216 0.78823529 0.52549020
v 0.08491252 -0.02333447 -0.00749853 0.38039216 0.78823529 0.52549020
v 0.08479086 -0.02352230 -0.00725039 0.38039216 0.78823529 0.52549020
v 0.08480673 -0.02350135 -0.00501273 0.38039216 0.78823529 0.52549020
v 0.08516906 -0.02233694 0.00749853 0.38039216 0.78823529 0.52549020
v 0.08516906 -0.02224863 0.00723277 0.38039216 0.78823529 0.52549020
v 0.08516377 -0.02217604 0.00652946 0.38039216 0.78823529 0.52549020
v 0.08516906 -0.02227632 -0.00683780 0.38039216 0.78823529 0.52549020
v 0.08516641 -0.02248586 0.00727976 0.38039216 0.78823529 0.52549020
v 0.08516112 -0.02253225 -0.00719607 0.38039216 0.78823529 0.52549020
v 0.08515583 -0.02259661 -0.00749853 0.38039216 0.78823529 0.52549020
v 0.08482789 -0.02347216 0.00720341 0.38039216 0.78823529 0.52549020
v 0.08491252 -0.02333447 0.00749853 0.38039216 0.78823529 0.52549020
v 0.08502624 -0.02310024 -0.00749853 0.38039216 0.78823529 0.52549020
v 0.08496805 -0.02322970 -0.00729591 0.38039216 0.78823529 0.52549020
v 0.08493103 -0.02330229 -0.00642522 0.38039216 0.78823529 0.52549020
v 0.08485169 -0.02343624 0.00669391 0.38039216 0.78823529 0.52549020
v 0.08515583 -0.02259661 0.00749853 0.38039216 0.78823529 0.52549020
v 0.08516377 -0.02251504 0.00692884 0.38039216 0.78823529 0.52549020
v 0.08515054 -0.02263627 -0.00627839 0.38039216 0.78823529 0.52549020
v 0.08511352 -0.02282485 -0.00682899 0.38039216 0.78823529 0.52549020
v 0.08510558 -0.02285254 -0.00749853 0.38039216 0.78823529 0.52549020
v 0.08497334 -0.02321922 0.00718726 0.38039216 0.78823529 0.52549020
v 0.08502624 -0.02310024 0.00749853 0.38039216 0.78823529 0.52549020
v 0.08500773 -0.02314439 -0.00570576 0.38039216 0.78823529 0.52549020
v 0.08508971 -0.02291690 -0.00725627 0.38039216 0.78823529 0.52549020
v 0.08507120 -0.02297602 0.00727388 0.38039216 0.78823529 0.52549020
v 0.08499450 -0.02317432 0.00528876 0.38039216 0.78823529 0.52549020
v 0.08510558 -0.02285254 0.00749853 0.38039216 0.78823529 0.52549020
v 0.08513467 -0.02273281 0.00723718 0.38039216 0.78823529 0.52549020
v 0.08512674 -0.02276723 -0.00495987 0.38039216 0.78823529 0.52549020
v 0.08510558 -0.02285703 0.00631656 0.38039216 0.78823529 0.52549020
f 231 232 236
f 231 236 244
f 231 244 254
f 231 254 263
f 231 263 274
f 231 274 289
f 231 289 304
f 231 304 320
f 231 320 336
f 231 336 351
f 231 351 359
f 231 359 370
f 231 370 379
f 231 379 390
f 231 390 401
f 231 401 393
f 231 393 381
f 231 381 374
f 231 374 361
f 231 361 353
f 231 353 343
f 231 343 327
f 231 327 308
f 231 308 293
f 231 293 278
f 231 278 266
f 231 266 259
f 231 259 248
f 231 248 241
f 231 241 233
f 231 233 234
f 231 234 240
f 231 240 242
f 231 242 235
f 231 235 232
f 232 235 243
f 232 243 236
f 233 237 238
f 233 238 239
f 233 239 240
f 233 240 234
f 233 241 237
f 235 242 239
f 235 239 247
f 235 247 256
f 235 256 265
f 235 265 277
f 235 277 291
f 235 291 307
f 235 307 324
f 235 324 339
f 235 339 352
f 235 352 360
f 235 360 372
f 235 372 380
f 235 380 392
f 235 392 403
f 235 403 408
f 235 408 397
f 235 397 384
f 235 384 375
f 235 375 363
f 235 363 354
f 235 354 346
f 235 346 330
f 235 330 315
f 235 315 300
f 235 300 285
f 235 285 271
f 235 271 261
f 235 261 251
f 235 251 243
f 236 243 251
f 236 251 244
f 237 245 238
f 237 241 246
f 237 246 245
f 238 245 239
f 239 242 240
f 239 245 247
f 241 248 249
f 241 249 250
f 241 250 247
f 241 247 246
f 244 251 252
f 244 252 253
f 244 253 254
f 245 246 247
f 247 250 255
f 247 255 256
f 248 257 256
f 248 256 258
f 248 258 249
f 248 259 260
f 248 260 257
f 249 258 255
f 249 255 250
f 251 261 252
f 252 261 253
f 253 261 254
f 254 261 262
f 254 262 263
f 255 258 256
f 256 257 264
f 256 264 265
f 257 260 264
f 259 266 267
f 259 267 268
f 259 268 265
f 259 265 269
f 259 269 270
f 259 270 260
f 260 270 264
f 261 271 262
f 262 271 263
f 263 271 272
f 263 272 273
f 263 273 274
f 264 270 269
f 264 269 265
f 265 268 275
f 265 275 276
f 265 276 277
f 266 278 279
f 266 279 280
f 266 280 281
f 266 281 282
f 266 282 276
f 266 276 283
f 266 283 267
f 267 284 268
f 267 283 284
f 268 284 275
f 271 285 286
f 271 286 272
f 272 286 273
f 273 286 274
f 274 286 285
f 274 285 287
f 274 287 288
f 274 288 289
f 275 284 276
f 276 282 277
f 276 284 283
f 277 282 281
f 277 281 290
f 277 290 291
f 278 292 279
f 278 293 294
f 278 294 295
f 278 295 296
f 278 296 292
f 279 292 297
f 279 297 290
f 279 290 280
f 280 290 281
f 285 298 299
f 285 299 287
f 285 300 298
f 287 299 288
f 288 299 298
f 288 298 301
f 288 301 289
f 289 302 303
f 289 303 304
f 289 301 302
f 290 297 291
f 291 297 292
f 291 292 296
f 291 296 295
f 291 295 305
f 291 305 306
f 291 306 307
f 293 308 309
f 293 309 310
f 293 310 311
f 293 311 307
f 293 307 312
f 293 312 294
f 294 312 313
f 294 313 306
f 294 306 305
f 294 305 295
f 298 314 301
f 298 300 314
f 300 315 316
f 300 316 302
f 300 302 301
f 300 301 314
f 302 316 317
f 302 317 303
f 303 317 304
f 304 318 319
f 304 319 320
f 304 317 318
f 306 313 307
f 307 313 312
f 307 311 321
f 307 321 310
f 307 310 322
f 307 322 323
f 307 323 324
f 308 325 326
f 308 326 309
f 308 327 328
f 308 328 329
f 308 329 325
f 309 326 323
f 309 323 310
f 310 321 311
f 310 323 322
f 315 330 331
f 315 331 318
f 315 318 316
f 316 318 317
f 318 331 332
f 318 332 319
f 319 332 331
f 319 331 333
f 319 333 320
f 320 333 334
f 320 334 335
f 320 335 336
f 323 326 325
f 323 325 324
f 324 325 329
f 324 329 337
f 324 337 338
f 324 338 339
f 327 340 341
f 327 341 339
f 327 339 342
f 327 342 328
f 327 343 340
f 328 342 344
f 328 344 345
f 328 345 338
f 328 338 337
f 328 337 329
f 330 333 331
f 330 346 334
f 330 334 333
f 334 346 347
f 334 347 335
f 335 347 336
f 336 347 348
f 336 348 349
f 336 349 350
f 336 350 351
f 338 345 339
f 339 345 344
f 339 344 342
f 339 341 352
f 340 343 341
f 341 343 352
f 343 353 360
f 343 360 352
f 346 354 355
f 346 355 348
f 346 348 347
f 348 355 356
f 348 356 349
f 349 356 350
f 350 356 351
f 351 356 354
f 351 354 357
f 351 357 358
f 351 358 359
f 353 361 362
f 353 362 360
f 354 356 355
f 354 363 364
f 354 364 357
f 357 364 358
f 358 364 365
f 358 365 359
f 359 365 363
f 359 363 366
f 359 366 367
f 359 367 368
f 359 368 369
f 359 369 370
f 360 362 371
f 360 371 372
f 361 373 372
f 361 372 371
f 361 371 362
f 361 374 373
f 363 375 367
f 363 367 366
f 363 365 364
f 367 375 370
f 367 370 369
f 367 369 368
f 370 375 376
f 370 376 377
f 370 377 378
f 370 378 379
f 372 373 380
f 373 374 380
f 374 381 382
f 374 382 383
f 374 383 380
f 375 384 385
f 375 385 376
f 376 385 386
f 376 386 377
f 377 386 385
f 377 385 387
f 377 387 378
f 378 387 379
f 379 387 385
f 379 385 384
f 379 384 388
f 379 388 389
f 379 389 390
f 380 383 391
f 380 391 392
f 381 393 394
f 381 394 395
f 381 395 392
f 381 392 396
f 381 396 383
f 381 383 382
f 383 396 391
f 384 397 388
f 388 398 390
f 388 390 389
f 388 397 398
f 390 398 397
f 390 397 399
f 390 399 400
f 390 400 401
f 391 396 392
f 392 395 402
f 392 402 403
f 393 404 394
f 393 401 405
f 393 405 406
f 393 406 403
f 393 403 404
f 394 404 407
f 394 407 402
f 394 402 395
f 397 408 409
f 397 409 399
f 399 409 410
f 399 410 400
f 400 410 409
f 400 409 411
f 400 411 405
f 400 405 401
f 402 407 403
f 403 407 404
f 403 406 408
f 405 411 406
f 406 411 408
f 408 411 409

o geometry_4
v 0.00870769 -0.01249943 -0.00749853 0.56470588 0.92549020 0.07058824
v 0.00870769 -0.00138036 -0.00749853 0.56470588 0.92549020 0.07058824
v 0.00874852 -0.01499985 -0.00749853 0.56470588 0.92549020 0.07058824
v 0.00870769 -0.01249943 0.00749853 0.56470588 0.92549020 0.07058824
v 0.00870769 -0.00138036 0.00749853 0.56470588 0.92549020 0.07058824
v 0.04718353 -0.00138036 -0.00749853 0.56470588 0.92549020 0.07058824
v 0.00874852 -0.01499985 0.00749853 0.56470588 0.92549020 0.07058824
v 0.04625793 -0.01501721 -0.00749853 0.56470588 0.92549020 0.07058824
v 0.04718353 -0.00138036 0.00749853 0.56470588 0.92549020 0.07058824
v 0.04883962 -0.00424524 0.00246378 0.56470588 0.92549020 0.07058824
v 0.05030515 -0.00678437 -0.00749853 0.56470588 0.92549020 0.07058824
v 0.04625793 -0.01501721 0.00749853 0.56470588 0.92549020 0.07058824
v 0.05505565 -0.01501721 -0.00749853 0.56470588 0.92549020 0.07058824
v 0.05030515 -0.00678437 0.00749853 0.56470588 0.92549020 0.07058824
v 0.05506018 -0.01501721 -0.00207175 0.56470588 0.92549020 0.07058824
v 0.05422079 -0.01356742 -0.00749853 0.56470588 0.92549020 0.07058824
v 0.05505565 -0.01501721 0.00749853 0.56470588 0.92549020 0.07058824
v 0.05422079 -0.01356742 0.00749853 0.56470588 0.92549020 0.07058824
f 412 413 417
f 412 417 422
f 412 422 427
f 412 427 424
f 412 424 419
f 412 419 414
f 412 414 418
f 412 418 415
f 412 415 416
f 412 416 413
f 413 416 420
f 413 420 417
f 414 419 423
f 414 423 418
f 415 418 423
f 415 423 428
f 415 428 429
f 415 429 425
f 415 425 420
f 415 420 416
f 417 420 421
f 417 421 422
f 419 424 426
f 419 426 428
f 419 428 423
f 420 425 421
f 421 425 426
f 421 426 422
f 422 426 427
f 424 427 426
f 425 429 426
f 426 429 428

o geometry_5
v 0.05537597 0.01556417 -0.00230080 0.08627451 0.01960784 0.83137255
v 0.05537140 0.01556417 -0.00749853 0.08627451 0.01960784 0.83137255
v 0.05537140 0.01556417 0.00749853 0.08627451 0.01960784 0.83137255
v 0.04718541 -0.00137903 0.00749853 0.08627451 0.01960784 0.83137255
v 0.04718541 -0.00137903 -0.00749853 0.08627451 0.01960784 0.83137255
v 0.04668320 0.01556417 -0.00749853 0.08627451 0.01960784 0.83137255
v 0.04668320 0.01556417 0.00749853 0.08627451 0.01960784 0.83137255
v 0.00873452 -0.00137903 0.00749853 0.08627451 0.01960784 0.83137255
v 0.00873452 -0.00137903 -0.00749853 0.08627451 0.01960784 0.83137255
v 0.04666950 0.01556417 -0.00663665 0.08627451 0.01960784 0.83137255
v 0.00874821 0.01499862 -0.00749853 0.08627451 0.01960784 0.83137255
v 0.04665581 0.01556417 0.00663665 0.08627451 0.01960784 0.83137255
v 0.00874821 0.01499862 0.00749853 0.08627451 0.01960784 0.83137255
v 0.00873452 0.01249927 0.00749853 0.08627451 0.01960784 0.83137255
v 0.00873452 0.01249927 -0.00749853 0.08627451 0.01960784 0.83137255
v 0.04665581 0.01556417 0.00057997 0.08627451 0.01960784 0.83137255
f 430 431 435
f 430 435 439
f 430 439 445
f 430 445 441
f 430 441 436
f 430 436 432
f 430 432 433
f 430 433 434
f 430 434 431
f 431 434 438
f 431 438 444
f 431 444 440
f 431 440 435
f 432 436 442
f 432 442 443
f 432 443 437
f 432 437 433
f 433 437 438
f 433 438 434
f 435 440 439
f 436 441 442
f 437 443 444
f 437 444 438
f 439 440 445
f 440 444 443
f 440 443 442
f 440 442 441
f 440 441 445

o geometry_6
v -0.00001329 -0.01250000 0.00250005 0.77647059 0.86666667 0.97647059
v -0.00001329 -0.01250000 0.00750000 0.77647059 0.86666667 0.97647059
v -0.00001329 -0.00931382 0.00238186 0.77647059 0.86666667 0.97647059
v 0.00249758 -0.01250000 0.00000044 0.77647059 0.86666667 0.97647059
v 0.00870626 -0.01250000 0.00750000 0.77647059 0.86666667 0.97647059
v -0.00001329 -0.00137774 0.00750000 0.77647059 0.86666667 0.97647059
v -0.00001329 -0.00474011 0.00237819 0.77647059 0.86666667 0.97647059
v 0.00870626 -0.01250000 0.00000044 0.77647059 0.86666667 0.97647059
v 0.00249673 -0.00865309 0.00000044 0.77647059 0.86666667 0.97647059
v 0.00873452 -0.00137774 0.00749927 0.77647059 0.86666667 0.97647059
v 0.00870626 -0.00137774 0.00750000 0.77647059 0.86666667 0.97647059
v -0.00001329 -0.00137774 0.00239140 0.77647059 0.86666667 0.97647059
v 0.00000898 0.01250000 0.00749927 0.77647059 0.86666667 0.97647059
v -0.00001329 -0.00291699 0.00237819 0.77647059 0.86666667 0.97647059
v 0.00870626 -0.00137774 0.00000044 0.77647059 0.86666667 0.97647059
v 0.00873452 -0.00137774 0.00037043 0.77647059 0.86666667 0.97647059
v 0.00249673 -0.00137774 0.00000044 0.77647059 0.86666667 0.97647059
v 0.00873452 0.01250000 0.00749927 0.77647059 0.86666667 0.97647059
v 0.00000898 0.01250000 0.00250005 0.77647059 0.86666667 0.97647059
v 0.00000898 0.00976165 0.00240168 0.77647059 0.86666667 0.97647059
v 0.00000898 0.00667091 0.00238333 0.77647059 0.86666667 0.97647059
v 0.00873452 0.01250000 0.00037043 0.77647059 0.86666667 0.97647059
v 0.00237170 0.01033428 0.00037043 0.77647059 0.86666667 0.97647059
v 0.00244535 0.01217942 0.00037043 0.77647059 0.86666667 0.97647059
v 0.00246761 0.01250000 0.00037043 0.77647059 0.86666667 0.97647059
f 446 447 451
f 446 451 457
f 446 457 459
f 446 459 452
f 446 452 448
f 446 448 449
f 446 449 453
f 446 453 450
f 446 450 447
f 447 450 456
f 447 456 451
f 448 452 449
f 449 452 454
f 449 454 462
f 449 462 460
f 449 460 453
f 450 453 461
f 450 461 455
f 450 455 463
f 450 463 456
f 451 456 463
f 451 463 458
f 451 458 464
f 451 464 457
f 452 459 462
f 452 462 454
f 453 460 467
f 453 467 461
f 455 461 467
f 455 467 463
f 457 464 465
f 457 465 459
f 458 463 467
f 458 467 470
f 458 470 464
f 459 465 466
f 459 466 462
f 460 462 470
f 460 470 467
f 462 466 465
f 462 465 468
f 462 468 469
f 462 469 470
f 464 470 469
f 464 469 465
f 465 469 468

o geometry_7
v -0.00875234 -0.01250000 -0.00750000 0.79607843 0.45882353 0.78039216
v -0.00001485 -0.01250000 -0.00750000 0.79607843 0.45882353 0.78039216
v -0.00875234 -0.01250000 -0.00000896 0.79607843 0.45882353 0.78039216
v -0.00875234 0.01250000 -0.00750000 0.79607843 0.45882353 0.78039216
v -0.00001485 -0.01250000 -0.00249986 0.79607843 0.45882353 0.78039216
v 0.00000745 -0.00137774 -0.00750000 0.79607843 0.45882353 0.78039216
v -0.00250429 -0.01250000 -0.00000896 0.79607843 0.45882353 0.78039216
v -0.00875234 -0.00137774 -0.00000896 0.79607843 0.45882353 0.78039216
v -0.00875234 0.01250000 -0.00002876 0.79607843 0.45882353 0.78039216
v -0.00000370 0.01250000 -0.00750000 0.79607843 0.45882353 0.78039216
v -0.00250343 -0.01249021 -0.00000896 0.79607843 0.45882353 0.78039216
v 0.00000745 -0.00137774 -0.00232974 0.79607843 0.45882353 0.78039216
v -0.00001485 -0.00978122 -0.00240014 0.79607843 0.45882353 0.78039216
v 0.00000745 0.01249755 -0.00750000 0.79607843 0.45882353 0.78039216
v -0.00250000 -0.00137774 -0.00000896 0.79607843 0.45882353 0.78039216
v -0.00250257 0.01250000 -0.00002876 0.79607843 0.45882353 0.78039216
v 0.00000745 0.01250000 -0.00749047 0.79607843 0.45882353 0.78039216
v -0.00001485 -0.00192101 -0.00223955 0.79607843 0.45882353 0.78039216
v -0.00250172 -0.01057410 -0.00000896 0.79607843 0.45882353 0.78039216
v 0.00000745 0.00932361 -0.00238327 0.79607843 0.45882353 0.78039216
v -0.00250000 -0.00288029 -0.00000896 0.79607843 0.45882353 0.78039216
v -0.00249657 0.01057410 -0.00002876 0.79607843 0.45882353 0.78039216
v -0.00250086 0.01247553 -0.00002876 0.79607843 0.45882353 0.78039216
v 0.00000745 0.01250000 -0.00249986 0.79607843 0.45882353 0.78039216
f 471 472 475
f 471 475 477
f 471 477 473
f 471 473 478
f 471 478 479
f 471 479 474
f 471 474 480
f 471 480 484
f 471 484 476
f 471 476 472
f 472 476 482
f 472 482 475
f 473 477 481
f 473 481 489
f 473 489 491
f 473 491 485
f 473 485 478
f 474 479 486
f 474 486 494
f 474 494 487
f 474 487 480
f 475 481 477
f 475 482 483
f 475 483 481
f 476 484 487
f 476 487 494
f 476 494 490
f 476 490 482
f 478 485 486
f 478 486 479
f 480 487 484
f 481 483 488
f 481 488 489
f 482 490 488
f 482 488 483
f 485 491 488
f 485 488 492
f 485 492 493
f 485 493 486
f 486 493 494
f 488 491 489
f 488 490 493
f 488 493 492
f 490 494 493

o geometry_8
v 0.00000831 -0.00137903 -0.00750000 0.11764706 0.63921569 0.14117647
v 0.00873452 -0.00137903 -0.00750000 0.11764706 0.63921569 0.14117647
v 0.00000831 -0.00137903 -0.00232965 0.11764706 0.63921569 0.14117647
v 0.00000831 0.01249864 -0.00750000 0.11764706 0.63921569 0.14117647
v 0.00873452 -0.00137903 0.00036953 0.11764706 0.63921569 0.14117647
v 0.00873452 0.01250000 -0.00750000 0.11764706 0.63921569 0.14117647
v 0.00237265 -0.00137903 0.00036953 0.11764706 0.63921569 0.14117647
v 0.00235642 -0.00069024 0.00036953 0.11764706 0.63921569 0.14117647
v 0.00235642 0.00080417 0.00036953 0.11764706 0.63921569 0.14117647
v 0.00235728 0.00453749 0.00036953 0.11764706 0.63921569 0.14117647
v 0.00236240 0.00842704 0.00036953 0.11764706 0.63921569 0.14117647
v 0.00000831 0.00932505 -0.00238280 0.11764706 0.63921569 0.14117647
v 0.00000831 0.01250000 -0.00749076 0.11764706 0.63921569 0.14117647
v 0.00873452 0.01250000 0.00036953 0.11764706 0.63921569 0.14117647
v 0.00237095 0.01033446 0.00036953 0.11764706 0.63921569 0.14117647
v 0.00000831 0.01250000 -0.00249989 0.11764706 0.63921569 0.14117647
v 0.00246747 0.01250000 0.00036953 0.11764706 0.63921569 0.14117647
v 0.00244526 0.01218074 0.00036953 0.11764706 0.63921569 0.14117647
f 495 496 499
f 495 499 501
f 495 501 497
f 495 497 506
f 495 506 510
f 495 510 507
f 495 507 498
f 495 498 500
f 495 500 496
f 496 500 508
f 496 508 499
f 497 501 502
f 497 502 503
f 497 503 504
f 497 504 505
f 497 505 506
f 498 507 500
f 499 508 511
f 499 511 512
f 499 512 509
f 499 509 505
f 499 505 504
f 499 504 503
f 499 503 502
f 499 502 501
f 500 507 510
f 500 510 511
f 500 511 508
f 505 509 506
f 506 509 510
f 509 512 510
f 510 512 511

o geometry_9
v -0.00875234 -0.01250000 -0.00000797 0.94117647 0.52156863 0.41176471
v -0.00250429 -0.01250000 -0.00000797 0.94117647 0.52156863 0.41176471
v -0.00875234 -0.01250000 0.00749926 0.94117647 0.52156863 0.41176471
v -0.00875234 -0.00137774 -0.00002860 0.94117647 0.52156863 0.41176471
v -0.00001485 -0.01250000 0.00249985 0.94117647 0.52156863 0.41176471
v -0.00248971 -0.00137774 -0.00002860 0.94117647 0.52156863 0.41176471
v -0.00250343 -0.01249021 -0.00000797 0.94117647 0.52156863 0.41176471
v -0.00001485 -0.01250000 0.00749926 0.94117647 0.52156863 0.41176471
v -0.00875234 -0.00137774 0.00750000 0.94117647 0.52156863 0.41176471
v -0.00875234 0.01250000 -0.00002860 0.94117647 0.52156863 0.41176471
v -0.00001485 -0.00931382 0.00238194 0.94117647 0.52156863 0.41176471
v 0.00000745 -0.00137529 0.00239078 0.94117647 0.52156863 0.41176471
v 0.00000745 -0.00137774 0.00541445 0.94117647 0.52156863 0.41176471
v -0.00248971 -0.00097396 -0.00002860 0.94117647 0.52156863 0.41176471
v 0.00000745 0.00667091 0.00238341 0.94117647 0.52156863 0.41176471
v 0.00000745 -0.00119665 0.00238783 0.94117647 0.52156863 0.41176471
v 0.00000745 -0.00137774 0.00750000 0.94117647 0.52156863 0.41176471
v -0.00875234 0.01250000 0.00750000 0.94117647 0.52156863 0.41176471
v -0.00250257 0.01250000 -0.00002860 0.94117647 0.52156863 0.41176471
v -0.00249657 0.01057410 -0.00002860 0.94117647 0.52156863 0.41176471
v -0.00250086 0.01247553 -0.00002860 0.94117647 0.52156863 0.41176471
v 0.00000745 0.00976165 0.00240110 0.94117647 0.52156863 0.41176471
v 0.00000745 0.01250000 0.00750000 0.94117647 0.52156863 0.41176471
v 0.00000745 0.01250000 0.00249985 0.94117647 0.52156863 0.41176471
f 513 514 517
f 513 517 520
f 513 520 515
f 513 515 521
f 513 521 530
f 513 530 522
f 513 522 516
f 513 516 518
f 513 518 514
f 514 518 519
f 514 519 517
f 515 520 529
f 515 529 521
f 516 522 531
f 516 531 533
f 516 533 532
f 516 532 526
f 516 526 518
f 517 519 523
f 517 523 524
f 517 524 525
f 517 525 529
f 517 529 520
f 518 523 519
f 518 526 527
f 518 527 528
f 518 528 523
f 521 529 535
f 521 535 530
f 522 530 535
f 522 535 536
f 522 536 531
f 523 528 524
f 524 528 527
f 524 527 534
f 524 534 536
f 524 536 535
f 524 535 529
f 524 529 525
f 526 532 527
f 527 532 533
f 527 533 534
f 531 536 533
f 533 536 534

o geometry_10
v -0.00001414 -0.01250000 -0.00749927 0.26274510 0.77254902 0.45490196
v 0.00870684 -0.01250000 -0.00749927 0.26274510 0.77254902 0.45490196
v -0.00001414 -0.01250000 -0.00249946 0.26274510 0.77254902 0.45490196
v -0.00001414 -0.00137903 -0.00749927 0.26274510 0.77254902 0.45490196
v 0.00870684 -0.01250000 -0.00000029 0.26274510 0.77254902 0.45490196
v 0.00870684 -0.00137903 -0.00749927 0.26274510 0.77254902 0.45490196
v 0.00249757 -0.01250000 -0.00000029 0.26274510 0.77254902 0.45490196
v -0.00001414 -0.00978181 -0.00239961 0.26274510 0.77254902 0.45490196
v -0.00001414 -0.00137903 -0.00232546 0.26274510 0.77254902 0.45490196
v 0.00870684 -0.00137903 -0.00000029 0.26274510 0.77254902 0.45490196
v 0.00249671 -0.00865403 -0.00000029 0.26274510 0.77254902 0.45490196
v -0.00001414 -0.00192332 -0.00223956 0.26274510 0.77254902 0.45490196
v 0.00249671 -0.00137903 -0.00000029 0.26274510 0.77254902 0.45490196
f 537 538 541
f 537 541 543
f 537 543 539
f 537 539 544
f 537 544 548
f 537 548 545
f 537 545 540
f 537 540 542
f 537 542 538
f 538 542 546
f 538 546 541
f 539 543 544
f 540 545 549
f 540 549 546
f 540 546 542
f 541 546 549
f 541 549 547
f 541 547 543
f 543 547 548
f 543 548 544
f 545 548 549
f 547 549 548

