# .PCD v0.7 - Point Cloud Data file format
VERSION 0.7
FIELDS x y z
SIZE 4 4 4
TYPE F F F
COUNT 1 1 1
WIDTH 1293
HEIGHT 1
VIEWPOINT 0 0 0 1 0 0 0
POINTS 1293
DATA ascii
0.0024968 0.0125 0
0.0024968 -0.0125 0
-0.0025032 -0.0125 0
-0.0025032 0.0125 0
0.0087468 0.015 -0.0075
0.0087468 0.015 0.0075
0.0462468 0.015 0.0075
0.0462468 0.015 -0.0075
0.0462468 -0.015 0.0075
0.0841935 -0.024071 0.0075
0.0831718 -0.0203516 0.0075
0.05814 -0.0203516 0.0075
0.04639 0 0.0075
0.05814 0.0203516 0.0075
0.0831718 0.0203516 0.0075
0.0841935 0.024071 0.0075
0.0087468 0.0125 0.0075
-0.0087532 0.0125 0.0075
-0.0087532 -0.0125 0.0075
0.0087468 -0.0125 0.0075
0.0087468 -0.015 0.0075
0.05814 -0.0203516 -0.0075
0.0831718 -0.0203516 -0.0075
0.0841935 -0.024071 -0.0075
0.0462468 -0.015 -0.0075
0.0087468 -0.015 -0.0075
0.0087468 -0.0125 -0.0075
-0.0087532 -0.0125 -0.0075
-0.0087532 0.0125 -0.0075
0.0087468 0.0125 -0.0075
0.0841935 0.024071 -0.0075
0.0831718 0.0203516 -0.0075
0.05814 0.0203516 -0.0075
0.04639 0 -0.0075
0.0024968 0.0105769 0
0.0024968 0.0086538 0
0.0024968 0.0067308 0
0.0024968 0.0048077 0
0.0024968 0.0028846 0
0.0024968 0.0009615 0
0.0024968 -0.0009615 0
0.0024968 -0.0028846 0
0.0024968 -0.0048077 0
0.0024968 -0.0067308 0
0.0024968 -0.0086538 0
0.0024968 -0.0105769 0
-0.0024818 -0.0125 -0.0003263
-0.002418 -0.0125 -0.000647
-0.0023129 -0.0125 -0.0009567
-0.0021682 -0.0125 -0.00125
-0.0019866 -0.0125 -0.0015219
-0.001771 -0.0125 -0.0017678
-0.0015251 -0.0125 -0.0019834
-0.0012532 -0.0125 -0.0021651
-0.0009599 -0.0125 -0.0023097
-0.0006502 -0.0125 -0.0024148
-0.0003295 -0.0125 -0.0024786
-3.2e-06 -0.0125 -0.0025
0.0003231 -0.0125 -0.0024786
0.0006439 -0.0125 -0.0024148
0.0009535 -0.0125 -0.0023097
0.0012468 -0.0125 -0.0021651
0.0015187 -0.0125 -0.0019834
0.0017646 -0.0125 -0.0017678
0.0019802 -0.0125 -0.0015219
0.0021619 -0.0125 -0.00125
0.0023065 -0.0125 -0.0009567
0.0024116 -0.0125 -0.000647
0.0024754 -0.0125 -0.0003263
-0.0025032 0.0105769 0
-0.0025032 0.0086538 0
-0.0025032 0.0067308 0
-0.0025032 0.0048077 0
-0.0025032 0.0028846 0
-0.0025032 0.0009615 0
-0.0025032 -0.0009615 0
-0.0025032 -0.0028846 0
-0.0025032 -0.0048077 0
-0.0025032 -0.0067308 0
-0.0025032 -0.0086538 0
-0.0025032 -0.0105769 0
-0.0024818 0.0125 -0.0003263
-0.002418 0.0125 -0.000647
-0.0023129 0.0125 -0.0009567
-0.0021682 0.0125 -0.00125
-0.0019866 0.0125 -0.0015219
-0.001771 0.0125 -0.0017678
-0.0015251 0.0125 -0.0019834
-0.0012532 0.0125 -0.0021651
-0.0009599 0.0125 -0.0023097
-0.0006502 0.0125 -0.0024148
-0.0003295 0.0125 -0.0024786
-3.2e-06 0.0125 -0.0025
0.0003231 0.0125 -0.0024786
0.0006439 0.0125 -0.0024148
0.0009535 0.0125 -0.0023097
0.0012468 0.0125 -0.0021651
0.0015187 0.0125 -0.0019834
0.0017646 0.0125 -0.0017678
0.0019802 0.0125 -0.0015219
0.0021619 0.0125 -0.00125
0.0023065 0.0125 -0.0009567
0.0024116 0.0125 -0.000647
0.0024754 0.0125 -0.0003263
0.0087468 0.015 0
0.0387468 0.015 0.0075
0.0312468 0.015 0.0075
0.0237468 0.015 0.0075
0.0162468 0.015 0.0075
0.0462468 0.015 0
0.0387468 0.015 -0.0075
0.0312468 0.015 -0.0075
0.0237468 0.015 -0.0075
0.0162468 0.015 -0.0075
0.0495968 -0.0192921 0.0075
0.053714 -0.0228547 0.0075
0.0584429 -0.0255532 0.0075
0.0636047 -0.0272854 0.0075
0.0685314 -0.027967 0.0075
0.0725623 -0.0278722 0.0075
0.0757902 -0.0273713 0.0075
0.0783471 -0.0266923 0.0075
0.080362 -0.025968 0.0075
0.0819496 -0.0252698 0.0075
0.0832017 -0.0246333 0.0075
0.0844082 -0.0239237 0.0075
0.0846019 -0.0237497 0.0075
0.0847714 -0.0235521 0.0075
0.0849138 -0.0233341 0.0075
0.0850267 -0.0230995 0.0075
0.0851081 -0.0228522 0.0075
0.0851568 -0.0225965 0.0075
0.0851717 -0.0223365 0.0075
0.0851528 -0.0220769 0.0075
0.0851004 -0.0218218 0.0075
0.0850152 -0.0215758 0.0075
0.0848988 -0.0213429 0.0075
0.0847531 -0.0211271 0.0075
0.0845807 -0.0209321 0.0075
0.0843843 -0.0207611 0.0075
0.0841674 -0.020617 0.0075
0.0839337 -0.0205024 0.0075
0.083687 -0.0204191 0.0075
0.0834316 -0.0203685 0.0075
0.06575 -0.0203516 0.0075
0.0716037 -0.0203516 0.0075
0.0759187 -0.0203516 0.0075
0.0790991 -0.0203516 0.0075
0.0503067 -0.0067839 0.0075
0.0542233 -0.0135677 0.0075
0.0542233 0.0135677 0.0075
0.0503067 0.0067839 0.0075
0.06575 0.0203516 0.0075
0.0716037 0.0203516 0.0075
0.0759187 0.0203516 0.0075
0.0790991 0.0203516 0.0075
0.0834316 0.0203685 0.0075
0.083687 0.0204191 0.0075
0.0839337 0.0205024 0.0075
0.0841674 0.020617 0.0075
0.0843843 0.0207611 0.0075
0.0845807 0.0209321 0.0075
0.0847531 0.0211271 0.0075
0.0848988 0.0213429 0.0075
0.0850152 0.0215758 0.0075
0.0851004 0.0218218 0.0075
0.0851528 0.0220769 0.0075
0.0851717 0.0223365 0.0075
0.0851568 0.0225965 0.0075
0.0851081 0.0228522 0.0075
0.0850267 0.0230995 0.0075
0.0849138 0.0233341 0.0075
0.0847714 0.0235521 0.0075
0.0846019 0.0237497 0.0075
0.0844082 0.0239237 0.0075
0.0832017 0.0246333 0.0075
0.0819496 0.0252698 0.0075
0.080362 0.025968 0.0075
0.0783471 0.0266923 0.0075
0.0757902 0.0273713 0.0075
0.0725623 0.0278722 0.0075
0.0685314 0.027967 0.0075
0.0636047 0.0272854 0.0075
0.0584429 0.0255532 0.0075
0.053714 0.0228547 0.0075
0.0495968 0.0192921 0.0075
-3.2e-06 0.0125 0.0075
-0.0087532 0.0041667 0.0075
-0.0087532 -0.0041667 0.0075
-3.2e-06 -0.0125 0.0075
0.0387468 -0.015 0.0075
0.0312468 -0.015 0.0075
0.0237468 -0.015 0.0075
0.0162468 -0.015 0.0075
0.06575 -0.0203516 -0.0075
0.0716037 -0.0203516 -0.0075
0.0759187 -0.0203516 -0.0075
0.0790991 -0.0203516 -0.0075
0.0834316 -0.0203685 -0.0075
0.083687 -0.0204191 -0.0075
0.0839337 -0.0205024 -0.0075
0.0841674 -0.020617 -0.0075
0.0843843 -0.0207611 -0.0075
0.0845807 -0.0209321 -0.0075
0.0847531 -0.0211271 -0.0075
0.0848988 -0.0213429 -0.0075
0.0850152 -0.0215758 -0.0075
0.0851004 -0.0218218 -0.0075
0.0851528 -0.0220769 -0.0075
0.0851717 -0.0223365 -0.0075
0.0851568 -0.0225965 -0.0075
0.0851081 -0.0228522 -0.0075
0.0850267 -0.0230995 -0.0075
0.0849138 -0.0233341 -0.0075
0.0847714 -0.0235521 -0.0075
0.0846019 -0.0237497 -0.0075
0.0844082 -0.0239237 -0.0075
0.0495968 -0.0192921 -0.0075
0.053714 -0.0228547 -0.0075
0.0584429 -0.0255532 -0.0075
0.0636047 -0.0272854 -0.0075
0.0685314 -0.027967 -0.0075
0.0725623 -0.0278722 -0.0075
0.0757902 -0.0273713 -0.0075
0.0783471 -0.0266923 -0.0075
0.080362 -0.025968 -0.0075
0.0819496 -0.0252698 -0.0075
0.0832017 -0.0246333 -0.0075
0.0387468 -0.015 -0.0075
0.0312468 -0.015 -0.0075
0.0237468 -0.015 -0.0075
0.0162468 -0.015 -0.0075
-3.2e-06 -0.0125 -0.0075
-0.0087532 0.0041667 -0.0075
-0.0087532 -0.0041667 -0.0075
-3.2e-06 0.0125 -0.0075
0.0832017 0.0246333 -0.0075
0.0819496 0.0252698 -0.0075
0.080362 0.025968 -0.0075
0.0783471 0.0266923 -0.0075
0.0757902 0.0273713 -0.0075
0.0725623 0.0278722 -0.0075
0.0685314 0.027967 -0.0075
0.0636047 0.0272854 -0.0075
0.0584429 0.0255532 -0.0075
0.053714 0.0228547 -0.0075
0.0495968 0.0192921 -0.0075
0.0844082 0.0239237 -0.0075
0.0846019 0.0237497 -0.0075
0.0847714 0.0235521 -0.0075
0.0849138 0.0233341 -0.0075
0.0850267 0.0230995 -0.0075
0.0851081 0.0228522 -0.0075
0.0851568 0.0225965 -0.0075
0.0851717 0.0223365 -0.0075
0.0851528 0.0220769 -0.0075
0.0851004 0.0218218 -0.0075
0.0850152 0.0215758 -0.0075
0.0848988 0.0213429 -0.0075
0.0847531 0.0211271 -0.0075
0.0845807 0.0209321 -0.0075
0.0843843 0.0207611 -0.0075
0.0841674 0.020617 -0.0075
0.0839337 0.0205024 -0.0075
0.083687 0.0204191 -0.0075
0.0834316 0.0203685 -0.0075
0.06575 0.0203516 -0.0075
0.0716037 0.0203516 -0.0075
0.0759187 0.0203516 -0.0075
0.0790991 0.0203516 -0.0075
0.0542233 0.0135677 -0.0075
0.0503067 0.0067839 -0.0075
0.0503067 -0.0067839 -0.0075
0.0542233 -0.0135677 -0.0075
0.0831718 0.0203516 -0.006
0.0831718 0.0203516 -0.0045
0.0831718 0.0203516 -0.003
0.0831718 0.0203516 -0.0015
0.0831718 0.0203516 0
0.0831718 0.0203516 0.0015
0.0831718 0.0203516 0.003
0.0831718 0.0203516 0.0045
0.0831718 0.0203516 0.006
0.05814 0.0203516 0
0.0841935 0.024071 0.006
0.0841935 0.024071 0.0045
0.0841935 0.024071 0.003
0.0841935 0.024071 0.0015
0.0841935 0.024071 0
0.0841935 0.024071 -0.0015
0.0841935 0.024071 -0.003
0.0841935 0.024071 -0.0045
0.0841935 0.024071 -0.006
-0.0087532 0.0125 0
-0.0087532 -0.0125 0
0.0087468 -0.015 0
0.0462468 -0.015 0
0.0841935 -0.024071 -0.006
0.0841935 -0.024071 -0.0045
0.0841935 -0.024071 -0.003
0.0841935 -0.024071 -0.0015
0.0841935 -0.024071 0
0.0841935 -0.024071 0.0015
0.0841935 -0.024071 0.003
0.0841935 -0.024071 0.0045
0.0841935 -0.024071 0.006
0.0831718 -0.0203516 0.006
0.0831718 -0.0203516 0.0045
0.0831718 -0.0203516 0.003
0.0831718 -0.0203516 0.0015
0.0831718 -0.0203516 0
0.0831718 -0.0203516 -0.0015
0.0831718 -0.0203516 -0.003
0.0831718 -0.0203516 -0.0045
0.0831718 -0.0203516 -0.006
0.05814 -0.0203516 0
0.04639 0 0
0.0087468 -0.0125 0
0.0024754 -0.0125 0.0003263
0.0024116 -0.0125 0.000647
0.0023065 -0.0125 0.0009567
0.0021619 -0.0125 0.00125
0.0019802 -0.0125 0.0015219
0.0017646 -0.0125 0.0017678
0.0015187 -0.0125 0.0019834
0.0012468 -0.0125 0.0021651
0.0009535 -0.0125 0.0023097
0.0006439 -0.0125 0.0024148
0.0003231 -0.0125 0.0024786
-3.2e-06 -0.0125 0.0025
-0.0003295 -0.0125 0.0024786
-0.0006502 -0.0125 0.0024148
-0.0009599 -0.0125 0.0023097
-0.0012532 -0.0125 0.0021651
-0.0015251 -0.0125 0.0019834
-0.001771 -0.0125 0.0017678
-0.0019866 -0.0125 0.0015219
-0.0021682 -0.0125 0.00125
-0.0023129 -0.0125 0.0009567
-0.002418 -0.0125 0.000647
-0.0024818 -0.0125 0.0003263
0.0087468 0.0125 0
0.0024754 0.0125 0.0003263
0.0024116 0.0125 0.000647
0.0023065 0.0125 0.0009567
0.0021619 0.0125 0.00125
0.0019802 0.0125 0.0015219
0.0017646 0.0125 0.0017678
0.0015187 0.0125 0.0019834
0.0012468 0.0125 0.0021651
0.0009535 0.0125 0.0023097
0.0006439 0.0125 0.0024148
0.0003231 0.0125 0.0024786
-3.2e-06 0.0125 0.0025
-0.0003295 0.0125 0.0024786
-0.0006502 0.0125 0.0024148
-0.0009599 0.0125 0.0023097
-0.0012532 0.0125 0.0021651
-0.0015251 0.0125 0.0019834
-0.001771 0.0125 0.0017678
-0.0019866 0.0125 0.0015219
-0.0021682 0.0125 0.00125
-0.0023129 0.0125 0.0009567
-0.002418 0.0125 0.000647
-0.0024818 0.0125 0.0003263
9.23e-05 -0.0122273 -0.0024982
-0.0006976 -0.0121661 -0.0024016
0.0011062 -0.0121842 -0.0022404
-0.0016472 -0.0121652 -0.0018834
0.0018878 -0.0121772 -0.0016353
9.73e-05 0.0122304 -0.002498
-0.0006913 0.0121674 -0.0024034
0.0011902 0.0121819 -0.0021968
-0.0016549 0.0121574 -0.0018767
0.0019098 0.0121796 -0.0016095
-0.0020752 -0.0121184 -0.0013989
-0.0021559 0.0121332 -0.0012711
-0.0024288 -0.0120339 -0.0006054
-0.0024216 0.0120141 -0.0006336
0.0022406 0.0122203 -0.0011025
0.0022614 -0.0122558 -0.0010592
-0.0021531 0.0094371 -0.0012758
-0.0019864 -0.0095601 -0.0015222
0.0019581 0.0095811 -0.0015503
0.0019765 -0.0095743 -0.0015266
-0.0018787 0.0117896 -0.0016531
-0.0018574 -0.0118281 -0.0016769
0.0021048 0.0117803 -0.001344
0.0021008 -0.0118954 -0.0013502
-0.0013973 0.0117147 -0.0020752
-0.0014051 -0.0117391 -0.0020699
0.0019902 -0.0057162 -0.0015088
-0.0018378 -0.0040853 -0.0016983
0.0021253 -0.0019226 -0.0013114
-0.0018537 0.0002472 -0.001681
0.0019893 0.0018619 -0.00151
-0.0020356 0.0040109 -0.0014557
0.0019658 0.005609 -0.0015405
0.0017171 0.0115903 -0.001814
0.0016864 -0.0117198 -0.0018427
-0.0017604 0.0111052 -0.0017782
-0.001103 0.010983 -0.0022451
-0.0017731 -0.0112139 -0.0017656
-0.001174 -0.0110317 -0.0022089
-0.0022202 -0.0115122 -0.0011553
-0.0022272 0.0113646 -0.0011418
-0.0020892 0.0077597 -0.0013779
-0.0009921 0.0088882 -0.0022961
-0.0009263 0.0069928 -0.0023233
0.0004558 0.0080257 -0.0024575
-0.0020018 -0.0077516 -0.0015019
-0.0008001 -0.008653 -0.0023696
-0.0007385 -0.0070109 -0.0023894
0.0005862 -0.0079942 -0.0024295
0.0021102 0.0110364 -0.0013355
0.0012739 0.0108095 -0.0021492
0.0005775 0.0095744 -0.0024316
0.0002457 0.0107509 -0.0024876
0.0021101 -0.0110808 -0.0013357
0.0012659 -0.0108233 -0.0021539
0.0006018 -0.0095105 -0.0024257
0.0001909 -0.0107173 -0.0024925
0.0006051 -0.0114389 -0.0024249
0.0006301 0.011439 -0.0024184
-0.0019636 -0.0059483 -0.0015514
-0.0005657 -0.005342 -0.0024359
-8.41e-05 -0.0036519 -0.0024987
-8.26e-05 -0.0114358 -0.0024987
-5.09e-05 0.011448 -0.0024995
-0.0015175 -0.0019237 -0.0019892
-0.0001074 -0.0001893 -0.0024978
-0.0006016 0.0015328 -0.0024273
0.001824 -0.003694 -0.0017063
0.0019951 0.0037057 -0.0015023
0.0007043 0.0044402 -0.0023978
0.0007818 0.0026544 -0.0023736
0.0018163 -0.0001501 -0.0017145
-0.0008123 -0.0101357 -0.0023654
-0.0005659 0.0102346 -0.0024359
-0.0020624 0.0058982 -0.0014176
0.0023984 -0.0119 -0.0006946
0.0023967 0.0118731 -0.0007004
0.001872 0.0076628 -0.0016534
-0.0007338 0.0116308 -0.0023908
-0.0007619 -0.0116339 -0.0023821
-0.0019834 0.0021467 -0.001526
-0.0001843 0.0122967 -0.0024934
-0.0001877 -0.0122944 -0.0024932
-0.0010806 0.0121189 -0.0022559
0.000416 -0.012233 -0.0024646
-0.000428 -0.0122854 -0.0024636
0.0004233 0.0122346 -0.0024634
-0.0010867 -0.012123 -0.002253
-0.0004244 0.0122873 -0.0024643
0.0007658 0.0120609 -0.0023788
0.0007417 -0.0120652 -0.0023864
-0.0013897 -0.0122051 -0.0020803
-0.001389 0.0121989 -0.0020808
0.0019171 -0.007684 -0.0016008
0.0011988 0.011687 -0.0021921
0.0011517 -0.0117272 -0.0022173
0.0014032 -0.0121389 -0.0020669
0.0015235 0.0120417 -0.0019797
0.0006147 0.0063066 -0.0024224
-0.0019007 0.0122178 -0.0016277
-0.0021242 -0.0106741 -0.0013233
-0.0021431 0.0105399 -0.0012925
0.0007716 -0.0064466 -0.0023769
0.0002559 -0.0118932 -0.0024865
0.000272 0.0118969 -0.0024848
0.0008615 0.0011377 -0.0023457
-0.0018756 -0.0122226 -0.0016566
0.002087 -0.0122639 -0.0013716
-0.0022576 -0.0121342 -0.0010805
0.0007857 -0.0019224 -0.0023723
0.00088 -0.0049664 -0.0023388
-0.0008524 0.005147 -0.0023514
-0.001624 -0.0105203 -0.0019034
-0.0015262 0.0101994 -0.0019826
-0.0007646 0.0033119 -0.0023812
0.0016583 -0.0122066 -0.001868
0.0016346 0.0123054 -0.0018889
-0.000249 0.0119909 -0.0024879
-0.0002615 -0.0119872 -0.0024866
0.0012899 0.008714 -0.0021396
0.0014264 0.0123057 -0.0020509
0.0013481 -0.0086902 -0.0021034
-0.0004508 0.0110088 -0.0024596
-0.0005357 -0.0109882 -0.0024426
0.0358511 0.015 2.94e-05
0.0191425 0.015 2.94e-05
0.0274968 0.015 1.53e-05
0.0417659 0.015 -0.0024744
0.0132277 0.015 -0.0024744
0.0417683 0.015 0.0025207
0.0132254 0.015 0.0025207
0.0847609 0.0228922 0.0075
0.0848708 -0.0219327 0.0075
0.0839125 0.020777 0.0075
0.0838613 -0.020617 0.0075
0.0845585 -0.0235323 0.0075
0.0847683 0.021554 0.0075
0.0835853 0.0237269 0.0075
0.0845092 -0.0211512 0.0075
0.084826 -0.0228989 0.0075
0.0844478 0.0235194 0.0075
0.0849038 0.0222434 0.0075
0.0832428 -0.0235457 0.0075
0.0041488 -0.006574 0.0075
0.0104203 -0.0064104 0.0075
0.0274076 0.0078729 0.0075
0.0843233 0.0210281 0.0075
0.0847581 -0.0215232 0.0075
0.0849049 -0.0224754 0.0075
0.007294 -0.0011129 0.0075
0.0134901 -0.001447 0.0075
0.0270254 -0.0075928 0.0075
0.0808673 -0.024002 0.0075
0.0810864 0.0240665 0.0075
0.0765499 0.0249873 0.0075
0.0762324 -0.0250407 0.0075
0.0104033 0.003804 0.0075
0.0167075 0.0035408 0.0075
0.0841328 0.0236919 0.0075
0.0840476 0.0232297 0.0075
0.0834215 0.0229192 0.0075
0.084089 0.0223332 0.0075
0.0834636 0.022091 0.0075
0.0823088 0.0224514 0.0075
0.0009372 -0.0006823 0.0075
0.0038933 0.0047185 0.0075
0.0202612 -0.0024609 0.0075
0.0424753 -0.0078378 0.0075
0.0380599 -0.0017612 0.0075
0.0390905 0.0056763 0.0075
0.0835019 0.0211488 0.0075
0.0840245 0.0216239 0.0075
0.0825864 0.0238445 0.0075
0.0714266 0.0248365 0.0075
0.0708284 -0.0253447 0.0075
0.0812789 -0.0221657 0.0075
0.0822737 -0.0241317 0.0075
0.0745243 0.0231314 0.0075
0.0736016 -0.0231849 0.0075
0.0330036 0.0030487 0.0075
0.0193305 -0.0094821 0.0075
0.0270788 0.0002467 0.0075
0.0349647 -0.0083695 0.0075
0.0794198 -0.0227515 0.0075
0.0787278 -0.0245279 0.0075
0.0790344 0.0244553 0.0075
0.0775724 0.0226123 0.0075
0.0843655 0.0218755 0.0075
0.0803724 0.0223833 0.0075
-0.0028274 0.0054722 0.0075
0.0132726 0.0087081 0.0075
0.0199906 0.0089611 0.0075
0.0843323 0.0228183 0.0075
0.0845126 0.0212086 0.0075
0.0842711 0.0212993 0.0075
0.0840318 0.0211216 0.0075
0.0844686 0.0215278 0.0075
0.0841635 0.0208604 0.0075
0.0841366 -0.02084 0.0075
0.0838088 -0.0209538 0.0075
0.0842289 -0.0211271 0.0075
0.0848864 0.0217417 0.0075
0.0846712 -0.0233757 0.0075
0.0843839 -0.0233029 0.0075
0.0847169 -0.0231562 0.0075
0.0849363 -0.022697 0.0075
0.0846719 -0.0226554 0.0075
0.0845912 -0.0223499 0.0075
0.0842798 -0.0225659 0.0075
0.0842146 -0.0221462 0.0075
0.0838274 -0.0223568 0.0075
0.0837216 -0.0217937 0.0075
0.0830344 -0.0223373 0.0075
0.0845797 -0.0220241 0.0075
0.0223278 0.0036316 0.0075
0.0848758 -0.0217192 0.0075
0.0846741 -0.0213169 0.0075
0.0844549 -0.0214347 0.0075
0.084284 -0.0217603 0.0075
0.0840993 -0.0214146 0.0075
0.0539185 -0.0190165 0.0075
0.0539185 0.0190165 0.0075
0.0848834 0.021965 0.0075
0.0845919 0.0221171 0.0075
0.0846523 0.0225036 0.0075
0.0845075 0.02316 0.0075
0.0849631 0.0224683 0.0075
0.084464 -0.0229209 0.0075
0.0738009 -0.0257617 0.0075
0.0741634 0.0256403 0.0075
0.0838918 -0.022935 0.0075
0.0840132 -0.0235075 0.0075
0.0848792 -0.0222004 0.0075
0.0339191 0.0093159 0.0075
0.0771629 -0.0227019 0.0075
0.0625477 -0.0236174 0.0075
0.0626362 0.0235192 0.0075
0.0847784 0.0231655 0.0075
0.0849284 0.0226624 0.0075
0.0441638 0.0084948 0.0075
0.0846836 0.0233456 0.0075
0.0672565 0.0240521 0.0075
0.0668233 -0.0245518 0.0075
0.0072854 0.0084414 0.0075
0.0131605 -0.0107466 0.0075
0.0846368 -0.021734 0.0075
-0.0027911 -0.0061282 0.0075
0.0846607 0.0217958 0.0075
0.0843679 -0.0209624 0.0075
0.083967 0.0228206 0.0075
0.0697163 -0.0227555 0.0075
-0.0044231 -0.0002777 0.0075
0.0320597 -0.0029038 0.0075
0.0846802 0.0213513 0.0075
0.0843596 -0.0236813 0.0075
0.0153575 -0.0061057 0.0075
0.0821346 -0.0232323 0.0075
0.0838924 0.0207891 -0.0075
0.0845204 -0.0234529 -0.0075
0.0843319 0.0236227 -0.0075
0.0849327 0.0222308 -0.0075
0.083904 -0.0208154 -0.0075
0.0848709 -0.0217591 -0.0075
0.084699 0.0213641 -0.0075
0.0848828 -0.022641 -0.0075
0.0848585 0.0229228 -0.0075
0.0845149 -0.0211761 -0.0075
0.0831933 -0.0235004 -0.0075
0.003897 0.0071993 -0.0075
0.0101537 0.0070864 -0.0075
0.028233 0.009328 -0.0075
0.0848055 0.0217727 -0.0075
0.0846766 0.0232962 -0.0075
0.0849319 -0.0221866 -0.0075
0.0821192 0.0238842 -0.0075
0.0843177 0.021002 -0.0075
0.0832295 0.0237268 -0.0075
0.0202442 -0.0088933 -0.0075
0.0069016 0.0017465 -0.0075
0.0350438 -0.0086831 -0.0075
0.0846906 -0.0230877 -0.0075
0.084252 -0.0229957 -0.0075
0.0807003 -0.0243091 -0.0075
0.0787008 0.0245954 -0.0075
0.013289 0.0020838 -0.0075
0.0762758 -0.0250427 -0.0075
0.0827968 0.022775 -0.0075
0.0837414 0.0225596 -0.0075
0.0101951 -0.0034148 -0.0075
-0.0001316 0.0019962 -0.0075
0.0742326 0.0230408 -0.0075
0.0034226 -0.0041658 -0.0075
0.0423754 0.0081008 -0.0075
0.0375867 0.002763 -0.0075
0.081004 0.0226185 -0.0075
0.0840203 -0.0234535 -0.0075
0.0835568 -0.0227614 -0.0075
0.0841546 -0.0224475 -0.0075
0.0835982 -0.0219503 -0.0075
0.0821286 -0.022197 -0.0075
0.0425592 -0.0081301 -0.0075
0.0708424 -0.0253401 -0.0075
0.0834308 -0.0210771 -0.0075
0.0703838 0.0242604 -0.0075
0.0155324 0.0078493 -0.0075
0.0195444 0.0027016 -0.0075
0.0736328 -0.0231818 -0.0075
0.0820589 -0.0238681 -0.0075
0.0275811 -0.0087142 -0.0075
0.0314715 -0.0018239 -0.0075
0.0349781 0.009116 -0.0075
0.0838547 0.0232539 -0.0075
0.0805726 0.0242146 -0.0075
0.0788006 -0.0245969 -0.0075
0.0772638 -0.02273 -0.0075
0.0763657 0.0249953 -0.0075
0.0772696 0.0227134 -0.0075
0.0843128 0.0227781 -0.0075
0.0842376 0.0221669 -0.0075
0.0835086 0.0218289 -0.0075
0.083405 0.0209505 -0.0075
0.084801 0.0215247 -0.0075
0.0845827 0.0215675 -0.0075
0.0839963 0.0211911 -0.0075
0.0842166 0.0216424 -0.0075
0.084936 0.0219958 -0.0075
0.0846837 0.0220759 -0.0075
0.0846744 0.0224479 -0.0075
0.0849689 0.0224559 -0.0075
0.0844509 0.0212604 -0.0075
0.0846679 -0.0213828 -0.0075
0.0844044 -0.0214361 -0.0075
0.0843081 -0.0218782 -0.0075
0.0840187 -0.0213268 -0.0075
0.0846298 -0.0216636 -0.0075
0.0843936 -0.0209993 -0.0075
0.0848186 0.0231344 -0.0075
0.0841534 0.0208717 -0.0075
0.0847218 -0.0219669 -0.0075
0.0846466 -0.0223289 -0.0075
0.0845798 -0.0227342 -0.0075
0.0539185 -0.0190165 -0.0075
0.0539185 0.0190165 -0.0075
0.0821453 0.0215216 -0.0075
0.0845535 0.0234929 -0.0075
0.0843906 0.0232439 -0.0075
0.0836709 0.0206058 -0.0075
0.0849548 -0.0219635 -0.0075
0.0849068 0.0226725 -0.0075
0.0846742 0.0227673 -0.0075
0.0846213 0.023023 -0.0075
0.0738201 -0.0257586 -0.0075
0.0071466 -0.0082372 -0.0075
0.0132504 -0.0085516 -0.0075
0.0167359 -0.0031614 -0.0075
0.0849574 -0.0224195 -0.0075
0.0848573 -0.0228845 -0.0075
0.0625487 -0.023617 -0.0075
0.0624156 0.0236502 -0.0075
0.0841939 -0.0209496 -0.0075
0.0386122 -0.0031922 -0.0075
-0.003813 -0.0045279 -0.0075
0.0843038 -0.0211777 -0.0075
0.0668281 -0.0245501 -0.0075
0.0661374 0.0247039 -0.0075
0.0119092 0.0114767 -0.0075
-0.0027364 0.0076627 -0.0075
0.0798612 -0.0229085 -0.0075
0.023631 -0.0027532 -0.0075
0.0845065 0.0218449 -0.0075
0.0316729 0.0045578 -0.0075
0.0793255 0.0229044 -0.0075
0.0738667 0.0255112 -0.0075
0.0697272 -0.0227528 -0.0075
0.021586 0.0088867 -0.0075
0.084816 -0.0215453 -0.0075
0.0811859 -0.0233163 -0.0075
0.0260406 0.0034737 -0.0075
0.0817878 0.0203516 -0.0006704
0.0818979 0.0203516 0.002245
0.0736973 0.0203516 0.0040814
0.0816092 0.0203516 -0.0038593
0.0736433 0.0203516 -0.0040573
0.0817167 0.0203516 0.0056033
0.0691118 0.0203516 0.0036374
0.0690951 0.0203516 -0.0036073
0.0721181 0.0203516 -1.44e-05
0.0760268 0.0203516 0.001339
0.07729 0.0203516 0.004462
0.0775064 0.0203516 -0.0041851
0.079068 0.0203516 0.0019805
0.0784181 0.0203516 -0.0009198
0.0637632 0.0203516 0.0026744
0.0755463 0.0203516 -0.001567
0.0799412 0.0203516 -0.0028916
0.0637566 0.0203516 -0.0026474
0.0817596 0.0203516 0.0037514
0.0799337 0.0203516 0.0043505
0.0818615 0.0203516 0.0008165
0.0816896 0.0203516 -0.0022096
0.0799714 0.0203516 -0.0048275
0.0816995 0.0203516 -0.0056975
0.0803896 0.0203516 0.0002457
0.0675827 0.0203516 1.51e-05
0.0804456 0.0203516 -0.0012959
0.0807753 0.0203516 0.0016147
0.0806839 0.0203516 0.0027897
0.0705503 0.0279922 -0.004654
0.0522304 0.0217288 -0.0029603
0.0828206 0.0248354 0.0036691
0.083052 0.0247136 -0.0006934
0.077191 0.0270314 0.005049
0.0772989 0.027002 -0.005664
0.0831169 0.0246789 -0.003775
0.06096 0.0265378 -0.0032792
0.0702689 0.0279974 0.0040314
0.0810876 0.0256635 -0.0060619
0.0811441 0.0256387 0.006221
0.0483854 0.0179319 0.0030155
0.0562512 0.0244537 0.0026218
0.065214 0.0276068 -0.0027411
0.0632162 0.027193 0.0004644
0.0673488 0.0278844 0.0007489
0.0736173 0.0277508 -0.0041765
0.0721456 0.027909 -0.001868
0.0749547 0.0275381 -0.0016911
0.07378 0.0277285 0.0005395
0.0763584 0.0272426 0.0005208
0.0774714 0.0269541 -0.0016023
0.0786676 0.0265886 0.0004208
0.0796802 0.0262327 -0.0015274
0.0806504 0.0258499 0.0002932
0.07992 0.0261419 0.0021593
0.0787706 0.0265544 -0.003741
0.0807572 0.0258051 -0.003174
0.075356 0.0274613 0.0027277
0.0824774 0.0250112 -0.0062355
0.0824814 0.0250091 0.0063632
0.0818553 0.0253146 0.001867
0.0810872 0.0256636 0.0036454
0.0793666 0.0263476 0.0040584
0.0793904 0.026339 -0.0058566
0.0563254 0.0244949 -0.0026561
0.0795139 0.0262941 0.0058929
0.0830567 0.0247111 -0.0022443
0.0816354 0.0254174 -0.0014557
0.0656265 0.0276735 0.0040079
0.0488883 0.0185183 -0.0021238
0.0831098 0.0246827 0.0008438
0.0517097 0.021295 0.0021977
0.0778235 0.0268526 0.0025043
0.0709046 0.0279816 0.0006853
0.0818896 0.0252984 -0.0046049
0.0818963 0.0252952 0.0050449
0.0740237 0.0276932 0.004924
0.0610211 0.0265583 0.0037246
0.0689303 0.0279835 -0.0021066
0.083243 0.0246109 0.00218
0.0762274 0.0272734 -0.0037535
0.0803908 0.0259564 -0.0046864
0.0831831 0.0246433 0.0053552
0.0594807 0.0259932 0.0001832
0.0728761 0.0278403 0.0026014
0.0832297 0.0246181 -0.0052666
0.0673626 0.0278857 -0.0048942
0.0820684 0.0252128 0.0001755
0.0834564 0.0244939 0.0065443
0.0834639 0.0244898 -0.0064992
0.0820979 0.0251985 -0.0030499
0.0540477 0.0230873 -0.0001962
0.0806077 0.0258676 0.0049789
0.0751143 0.0275083 -0.0057141
-0.0087532 -0.0011098 9.4e-06
-0.0087532 -0.0075745 -0.0024844
-0.0087532 0.0074477 -3.6e-06
-0.0087532 -0.0075739 0.0025118
0.0358511 -0.015 2.94e-05
0.0191425 -0.015 2.94e-05
0.0274968 -0.015 1.53e-05
0.0417659 -0.015 -0.0024744
0.0132277 -0.015 -0.0024744
0.0417683 -0.015 0.0025207
0.0132254 -0.015 0.0025207
0.0705874 -0.0279913 0.004658
0.0522332 -0.021731 0.0029604
0.0829136 -0.0247868 -0.0022609
0.0831262 -0.0246739 0.0022783
0.0773134 -0.026998 0.0056617
0.0769276 -0.0271012 -0.0053778
0.060997 -0.0265502 0.0032804
0.0810816 -0.0256661 -0.0059896
0.0811073 -0.0256549 0.0060609
0.0703242 -0.0279966 -0.0040356
0.0483857 -0.0179323 -0.0030155
0.0562639 -0.0244608 -0.0026216
0.0832472 -0.0246087 0.0052727
0.0832451 -0.0246098 -0.005308
0.065278 -0.0276176 0.0027444
0.0632802 -0.0272086 -0.000462
0.0736455 -0.027747 0.0041842
0.0722029 -0.0279043 0.0018809
0.0750046 -0.0275289 0.0017269
0.0738989 -0.0277115 -0.0005173
0.0764594 -0.0272184 -0.0003829
0.0775229 -0.0269395 0.0016535
0.0787207 -0.026571 -0.0002734
0.0797606 -0.0262025 0.0015524
0.0807642 -0.0258021 -0.0002732
0.0799104 -0.0261456 -0.0021679
0.078811 -0.0265408 0.0037426
0.080829 -0.0257747 0.0031661
0.0674247 -0.0278913 -0.0007449
0.0757872 -0.0273719 -0.0028033
0.079245 -0.026391 -0.0057123
0.079409 -0.0263323 0.0058528
0.0803804 -0.0259606 -0.004241
0.0783514 -0.0266909 -0.0037004
0.0563382 -0.024502 0.0026564
0.081805 -0.0253384 0.0014537
0.0826858 -0.0249052 -0.0004734
0.0830461 -0.0247168 -0.0038249
0.0816569 -0.0254075 -0.0031495
0.0831508 -0.0246607 0.0037798
0.0656724 -0.0276805 -0.0040069
0.0488889 -0.0185191 0.0021238
0.0517124 -0.0212973 -0.0021977
0.0709857 -0.0279786 -0.0006787
0.0825013 -0.0249991 -0.0062629
0.0824931 -0.0250033 0.0062419
0.0819287 -0.0252798 0.0046028
0.0740736 -0.0276857 -0.0049883
0.0610506 -0.0265681 -0.0037238
0.068996 -0.0279857 0.0021125
0.0804285 -0.0259411 0.0046806
0.0819964 -0.0252475 -0.0047897
0.0762581 -0.0272662 0.0037667
0.0832089 -0.0246294 0.0009485
0.0816007 -0.0254334 -0.0016644
0.0595136 -0.0260063 -0.0001822
0.0730142 -0.0278252 -0.0026203
0.0673997 -0.027889 0.0048969
0.083473 -0.0244847 -0.0065141
0.0834713 -0.0244857 0.0065045
0.0778489 -0.026845 -0.0018747
0.0821738 -0.0251617 0.0030509
0.0751283 -0.0275056 0.0057169
0.0540547 -0.023092 0.0001964
0.0819437 -0.0203516 0.0007093
0.0816897 -0.0203516 -0.0022569
0.07374 -0.0203516 0.0043272
0.0818984 -0.0203516 0.0039588
0.077477 -0.0203516 -0.0050098
0.0682385 -0.0203516 -0.0041963
0.0816706 -0.0203516 -0.0056696
0.0693012 -0.0203516 0.003747
0.0772456 -0.0203516 0.0045843
0.0758272 -0.0203516 0.0016615
0.0787758 -0.0203516 0.0021174
0.0778948 -0.0203516 -0.0006459
0.0748735 -0.0203516 -0.0013836
0.074714 -0.0203516 -0.0045189
0.0639134 -0.0203516 0.0025955
0.0813302 -0.0203516 0.0022951
0.0723098 -0.0203516 0.0008665
0.0637543 -0.0203516 -0.0028262
0.0816376 -0.0203516 -0.0038531
0.0803739 -0.0203516 -0.003044
0.0801084 -0.0203516 -0.0015234
0.0817305 -0.0203516 -0.0006902
0.0817594 -0.0203516 0.0056352
0.0800225 -0.0203516 0.0043504
0.0798162 -0.0203516 -0.0046715
0.0716831 -0.0203516 -0.0028456
0.0787186 -0.0203516 -0.0029635
0.0802975 -0.0203516 0.0003842
0.0682232 -0.0203516 -0.00043
0.0767276 -0.0203516 -0.0029033
0.052265 -0.0101758 -5.07e-05
0.0556891 -0.0161066 0.002464
0.0488409 -0.004245 0.002464
0.0556907 -0.0161093 -0.0025294
0.0488393 -0.0042423 -0.0025294
0.052265 0.0101758 -5.07e-05
0.0488409 0.004245 0.002464
0.0556891 0.0161066 0.002464
0.0488393 0.0042423 -0.0025294
0.0556907 0.0161093 -0.0025294
-0.0048631 -0.0125 -0.0037676
-0.0020917 -0.0125 -0.0018316
0.0048704 -0.0125 0.0037386
0.0020853 -0.0125 0.0018316
0.0042802 -0.0125 -0.0034418
0.0029476 -0.0125 -0.0004759
0.0022501 -0.0125 -0.001848
-0.0042866 -0.0125 0.0034418
-0.0031444 -0.0125 0.0002059
-0.0023497 -0.0125 0.0019002
0.004397 -0.0125 0.0009423
0.0029224 -0.0125 0.000853
0.0044646 -0.0125 -0.0012148
0.0028261 -0.0125 -0.0011491
-0.004374 -0.0125 -0.0010558
-0.0027338 -0.0125 -0.0009959
-0.0043403 -0.0125 0.000995
-0.0025626 -0.0125 0.0011725
0.0023597 -0.0125 0.0027622
-0.0023322 -0.0125 -0.0028019
0.0048704 0.0125 -0.0037386
0.0020853 0.0125 -0.0018316
0.0042802 0.0125 0.0034418
0.0029476 0.0125 0.0004759
0.0022501 0.0125 0.001848
-0.0048768 0.0125 -0.0037386
-0.0020917 0.0125 -0.0018316
-0.0042866 0.0125 0.0034418
-0.0029539 0.0125 0.0004759
-0.0022564 0.0125 0.001848
0.004397 0.0125 -0.0009423
0.0029224 0.0125 -0.000853
0.0044646 0.0125 0.0012148
0.0028261 0.0125 0.0011491
-0.0044034 0.0125 -0.0009423
-0.0029287 0.0125 -0.000853
-0.004471 0.0125 0.0012148
-0.0028325 0.0125 0.0011491
-0.0023661 0.0125 -0.0027622
0.0023597 0.0125 -0.0027622
9.87e-05 -0.0122316 0.0024979
-0.0006905 -0.0121651 0.0024037
-0.0016761 -0.0121171 0.0018578
0.0011819 -0.0121827 0.0022013
0.0018241 -0.0121511 0.0017061
9.17e-05 0.012227 0.0024982
-0.0007017 0.0121645 0.0024004
-0.0017593 0.0121833 0.0017793
0.001106 0.0121842 0.0022405
0.0018877 0.0121773 0.0016355
-0.0020352 -0.012109 0.0014563
-0.0021416 0.012118 0.0012951
-0.0023884 -0.0120699 0.0007489
-0.0024204 0.0120128 0.0006382
0.002257 -0.01225 0.0010684
0.0022613 0.0122558 0.0010593
-0.001988 0.0095498 0.00152
-0.0021503 -0.0094338 0.0012806
0.0019735 0.0095729 0.0015307
0.0019572 -0.0095861 0.0015514
-0.0018976 0.011715 0.0016313
-0.0018356 -0.0116768 0.0017007
0.0021006 0.0118955 0.0013506
0.002087 -0.0118673 0.0013716
-0.0014398 0.0117168 0.002046
-0.001391 -0.0116845 0.0020794
0.0016858 0.01172 0.0018432
0.0016911 -0.0116055 0.0018383
-0.0017876 0.0111586 0.001751
-0.0011856 0.0110136 0.0022027
-0.0017396 -0.0110745 0.0017986
-0.0010956 -0.0109702 0.0022487
-0.002192 -0.0113452 0.001208
-0.0022266 0.0113719 0.0011431
-0.0020071 0.0077399 0.0014947
0.0019883 0.0056656 0.0015113
-0.0019063 0.0039802 0.0016212
0.0021825 0.0019241 0.0012136
-0.0019206 -0.0001337 0.0016043
0.0019889 -0.0018041 0.0015105
-0.0020414 -0.0039926 0.0014476
0.0019642 -0.0056023 0.0015425
-0.0008081 0.0086439 0.0023669
-0.0007598 0.0069728 0.0023828
0.0005726 0.0079775 0.0024328
-0.0020887 -0.0077582 0.0013787
-0.0009895 -0.0088863 0.0022972
-0.0009271 -0.006989 0.002323
0.0004561 -0.008025 0.0024574
0.0021093 0.0110809 0.001337
0.0012637 0.0108231 0.0021552
0.0005954 0.0095065 0.0024273
0.0001876 0.010715 0.0024927
0.002104 -0.0110586 0.0013453
0.0012675 -0.010818 0.002153
0.0005775 -0.0095765 0.0024316
0.0002457 -0.0107531 0.0024876
0.000628 -0.011443 0.002419
0.0006036 0.0114384 0.0024253
-0.0019826 0.005904 0.0015271
-0.0006096 0.0052 0.0024253
-0.0001153 0.0031615 0.0024975
-4.98e-05 -0.0114483 0.0024996
-8.61e-05 0.0114335 0.0024986
-0.0018532 0.0019256 0.0016815
-0.0001277 0.0006884 0.0024969
-0.0006393 -0.0013776 0.0024177
0.0018722 0.0035963 0.0016532
0.0018662 0.0002531 0.0016599
0.0019916 -0.0036816 0.0015069
0.0006952 -0.0044143 0.0024005
0.0007656 -0.0025774 0.0023789
-0.0005623 -0.0102314 0.0024367
-0.0008175 0.0101268 0.0023637
-0.0020639 -0.0058926 0.0014154
0.0023983 0.0119001 0.0006948
0.0023964 -0.0118926 0.0007013
0.0018716 -0.0076623 0.0016538
-0.0020014 -0.0020924 0.0015024
-0.0007727 0.0116268 0.0023786
-0.0007313 -0.0116236 0.0023916
-0.0004233 -0.0122861 0.0024645
-0.0011009 0.0121185 0.0022461
-0.0001885 0.0122941 0.0024931
-0.0010805 -0.0121105 0.002256
0.0004157 0.0122329 0.0024647
-0.0004294 0.0122849 0.0024634
0.0004238 -0.0122359 0.0024633
-0.0001823 -0.0122981 0.0024936
0.0007635 -0.0120631 0.0023795
0.0007413 0.0120652 0.0023866
-0.001424 0.0122042 0.002057
-0.0013931 -0.0121839 0.002078
0.0019112 0.0076678 0.0016078
0.0011509 0.0117273 0.0022177
0.0011865 -0.0116919 0.0021988
0.001403 0.0121389 0.0020671
0.0014931 -0.012039 0.0020028
0.0006119 -0.0062991 0.0024232
-0.002128 0.0106304 0.0013172
-0.0021311 -0.0105281 0.0013123
0.0002724 -0.0118987 0.0024848
0.0002546 0.0118926 0.0024867
0.0007517 0.0063811 0.0023833
0.0020869 0.0122639 0.0013717
0.0008558 -0.0009624 0.0023478
0.0020724 -0.0122528 0.0013936
0.0012558 0.0019251 0.0021598
-0.0008593 -0.0051301 0.0023488
0.0008698 0.0048013 0.0023426
-0.0015171 -0.0101894 0.0019895
-0.0016304 0.0104948 0.0018979
-0.0007831 -0.0032566 0.0023752
0.0016074 -0.0122987 0.0019121
0.0016582 0.0122067 0.0018681
-0.0002474 -0.0119903 0.002488
-0.0002645 0.0119856 0.0024863
0.0012898 -0.0087156 0.0021397
0.0014133 -0.0123041 0.00206
0.0013402 0.0086827 0.0021084
-0.0005422 0.0109813 0.0024412
-0.000448 -0.0110051 0.0024601
0.0850532 -0.0216731 -0.0072148
0.0846494 -0.0210037 -0.0072098
0.0851637 -0.0225319 -0.0071972
0.0851322 -0.0219558 0.0072274
0.0847869 -0.021172 0.0071699
0.0851352 -0.0227326 0.0072383
0.0850904 -0.0229163 -0.0072571
0.0845175 -0.0208721 0.0072278
0.0849739 -0.023219 0.0071887
0.0841703 -0.0206187 -0.0072027
0.0841305 -0.0205964 0.0072159
0.0847934 -0.0235222 -0.007251
0.0845737 -0.0237781 0.0071303
0.0836674 -0.020414 -0.0071163
0.0845121 -0.023836 -0.0072157
0.0836399 -0.0204071 0.0071382
0.0845905 -0.0209419 0.0067925
0.0851151 -0.0228243 -0.0068294
0.0849949 -0.0231741 0.0052894
0.0842988 -0.0206993 -0.0052767
0.0850758 -0.0229637 0.0069418
0.0844526 -0.0208155 -0.0069039
0.0851704 -0.0222762 -0.0068389
0.0851514 -0.0226361 -0.0062793
0.0849316 -0.023302 -0.0064257
0.0848909 -0.0213295 0.0067726
0.0847081 -0.021071 0.0062635
0.0842039 -0.0206385 0.0063988
0.0847504 -0.0211236 -0.0068486
0.0851652 -0.0225143 0.0069291
0.0843767 -0.0207553 0.0039121
0.08503 -0.0230913 -0.0039106
0.0850244 -0.0231051 0.0022662
0.0843653 -0.0207467 -0.0022652
0.085031 -0.0230887 -0.0007563
0.0843808 -0.0207584 0.0007596
0.0843324 -0.0207228 0.0057027
0.0850081 -0.023144 -0.0057067
0.0850372 -0.0216303 0.0063045
0.0851333 -0.0219612 -0.0062964
0.0851069 -0.0228568 0.0063179
0.0845431 -0.0208957 -0.0062739
0.0848524 -0.0234358 0.0066953
0.0840345 -0.0205472 -0.0065922
0.0843486 -0.0207345 -0.0037814
0.085017 -0.0231232 0.0037834
0.0847132 -0.0236259 -0.0067729
0.0839019 -0.0204896 0.0067305
0.085112 -0.0218662 0.0046183
0.0850791 -0.0217499 -0.0046125
0.0850905 -0.0217871 -0.0030591
0.0850325 -0.0230849 -0.0022886
0.0843844 -0.0207611 0.0022893
0.085028 -0.0230963 0.0007554
0.0843749 -0.0207539 -0.0007523
0.0851035 -0.0218333 0.0030616
0.0851002 -0.0218214 0.0015216
0.0850976 -0.0218118 2.5e-06
0.0850949 -0.0218022 -0.0015185
0.0851362 -0.0219761 -0.0071894
0.0850899 -0.0217851 -0.0068355
0.0851691 -0.022248 0.0072336
0.0851594 -0.0221292 0.0069633
0.0850681 -0.021716 0.0072637
0.0849588 -0.0214534 -0.0072835
0.0851686 -0.0222388 -0.0072457
0.0849705 -0.0214772 0.0071855
0.084837 -0.0212438 -0.0072208
0.0851639 -0.0221742 0.0057737
0.0849555 -0.0214469 -0.0057554
0.0851282 -0.0227667 -0.0049613
0.0846261 -0.0209786 0.0049637
0.0851673 -0.0224857 0.0072802
0.0848535 -0.0234341 0.0060752
0.0840417 -0.0205507 -0.0060368
0.0849688 -0.0232296 -0.0072961
0.0844555 -0.0208179 -0.0072651
0.0850719 -0.0229758 0.0072743
0.0848286 -0.0234719 0.007204
0.085164 -0.0221754 0.0065303
0.0848086 -0.0235009 -0.0050129
0.0839809 -0.0205226 0.0050133
0.0849109 -0.0213638 0.0056022
0.0842827 -0.0206885 0.0068767
0.0849427 -0.0214221 -0.0064976
0.0851705 -0.0222785 -0.0055988
0.0849596 -0.023248 -0.0069722
0.0850841 -0.0217659 0.0068936
0.0849536 -0.0214433 -0.0069831
0.0851358 0.0219738 -0.0072148
0.0847921 0.0211791 -0.0071972
0.0851306 0.0227556 -0.0072098
0.0850538 0.0216748 0.0072145
0.0846582 0.0210135 0.0072097
0.0851637 0.0225309 0.0071958
0.085092 0.0229108 0.0072521
0.0845327 0.020886 -0.0072571
0.0849154 0.0233313 -0.0072027
0.0842727 0.0206819 0.0071808
0.0848329 0.0234654 0.0071872
0.0839679 0.0205169 -0.007251
0.0836466 0.0204088 0.0071285
0.0845876 0.0237642 -0.0071164
0.0835657 0.0203908 -0.0072157
0.084553 0.0237981 0.0071339
0.084601 0.0209525 -0.0068294
0.0851161 0.0228204 0.0068243
0.0849845 0.0231967 -0.0052769
0.0843094 0.0207067 0.0052795
0.0850575 0.0230179 -0.0069039
0.0844794 0.0208382 0.006915
0.0849284 0.0213955 -0.0068389
0.0847284 0.0210958 -0.0062794
0.0841992 0.0206356 -0.0064257
0.0851704 0.0222781 0.0068375
0.0851509 0.0226402 0.0062769
0.0849345 0.0232965 0.0064171
0.0851562 0.022601 -0.0068486
0.0847586 0.0211342 0.0068517
0.0843918 0.0207668 -0.0039109
0.0850244 0.0231052 0.0039099
0.0843779 0.0207562 0.0022657
0.0850175 0.023122 -0.0022652
0.0843934 0.020768 -0.0007557
0.0850254 0.0231026 0.00076
0.0850054 0.0231504 0.0057051
0.0843458 0.0207325 -0.0057069
0.0851349 0.0219692 0.0062954
0.0850576 0.0216854 -0.0062966
0.0845553 0.0209073 0.0062908
0.0850943 0.0229028 -0.006274
0.0848351 0.0234622 -0.0065922
0.0840534 0.0205564 0.0066844
0.0850093 0.0231412 -0.0037817
0.0843604 0.0207431 0.0037802
0.083846 0.0204686 -0.0067729
0.084732 0.023603 0.0067398
0.0850845 0.0217673 0.0046114
0.085119 0.0218952 -0.0046129
0.0851098 0.0218574 -0.0030593
0.084397 0.0207708 -0.0022885
0.0850274 0.0230977 0.0022889
0.0843862 0.0207625 0.0007558
0.0850223 0.0231103 -0.0007519
0.0850961 0.0218064 0.0030595
0.0850999 0.0218203 0.0015216
0.0851029 0.021831 3.1e-06
0.0851057 0.0218416 -0.0015182
0.0850524 0.0216709 -0.0071894
0.0851101 0.0218588 -0.0068355
0.0851365 0.0219773 0.007189
0.0850912 0.0217894 0.0068349
0.0849597 0.0214553 0.0072832
0.0851668 0.0222109 -0.0072835
0.084946 0.0214285 -0.0072457
0.0851686 0.0222392 0.0072452
0.0849617 0.0214593 0.0057572
0.0851674 0.0222185 -0.0057555
0.084642 0.0209957 -0.0049615
0.0851253 0.0227804 0.0049604
0.0848399 0.0212482 0.007221
0.0851692 0.0224533 -0.0072209
0.0840531 0.0205563 0.0060632
0.0848395 0.0234556 -0.0060369
0.0849769 0.0232128 0.0072794
0.0842681 0.0206789 -0.0072961
0.0850588 0.0230143 -0.0072651
0.0844808 0.0208395 0.0072622
0.0840207 0.0205407 0.0072001
0.0839921 0.0205276 -0.005013
0.084804 0.0235074 0.0050125
0.0849474 0.0214311 0.0065001
0.0851709 0.0222902 0.0055978
0.085169 0.0222461 -0.0064976
0.0849275 0.0213938 -0.005599
0.0842509 0.0206677 -0.0069722
0.0849692 0.0232286 0.0069513
0.0851676 0.0222223 -0.0069831
0.0849563 0.0214485 0.0069835
