# https://github.com/mikedh/trimesh

o geometry_0
v -0.03197818 0.00000245 -0.03000000 0.54509804 0.71372549 0.60000000
v -0.02699898 0.00000245 -0.03000000 0.54509804 0.71372549 0.60000000
v -0.03198140 0.00000245 -0.02997065 0.54509804 0.71372549 0.60000000
v -0.03186540 0.00271288 -0.03000000 0.54509804 0.71372549 0.60000000
v -0.02100912 0.01695887 -0.03000000 0.54509804 0.71372549 0.60000000
v -0.02699898 0.00000245 -0.00001964 0.54509804 0.71372549 0.60000000
v -0.03186540 0.00000245 -0.00001964 0.54509804 0.71372549 0.60000000
v -0.03186540 0.00271122 -0.00001964 0.54509804 0.71372549 0.60000000
v -0.03094925 0.00805907 -0.03000000 0.54509804 0.71372549 0.60000000
v -0.02702690 0.01695887 -0.03000000 0.54509804 0.71372549 0.60000000
v -0.02100912 0.01695887 -0.00001964 0.54509804 0.71372549 0.60000000
v -0.03094925 0.00805575 -0.00001964 0.54509804 0.71372549 0.60000000
v -0.02914166 0.01317289 -0.03000000 0.54509804 0.71372549 0.60000000
v -0.02914274 0.01316957 -0.00001964 0.54509804 0.71372549 0.60000000
v -0.02702690 0.01695887 -0.00001964 0.54509804 0.71372549 0.60000000
f 1 2 6
f 1 6 7
f 1 7 3
f 1 3 4
f 1 4 9
f 1 9 13
f 1 13 10
f 1 10 5
f 1 5 2
f 2 5 11
f 2 11 6
f 3 7 8
f 3 8 4
f 4 8 9
f 5 10 15
f 5 15 11
f 6 11 15
f 6 15 14
f 6 14 12
f 6 12 8
f 6 8 7
f 8 12 9
f 9 12 14
f 9 14 13
f 10 13 15
f 13 14 15

o geometry_1
v 0.02690158 0.00000245 -0.03000000 0.54117647 0.42352941 0.64313725
v 0.01604967 0.02171066 -0.03000000 0.54117647 0.42352941 0.64313725
v 0.03197505 0.00000245 -0.03000000 0.54117647 0.42352941 0.64313725
v 0.02697488 0.00000245 -0.00001964 0.54117647 0.42352941 0.64313725
v 0.01604967 0.02171066 -0.00001964 0.54117647 0.42352941 0.64313725
v 0.01604967 0.02759621 -0.03000000 0.54117647 0.42352941 0.64313725
v 0.03152120 0.00540721 -0.03000000 0.54117647 0.42352941 0.64313725
v 0.03197973 0.00000245 -0.00003432 0.54117647 0.42352941 0.64313725
v 0.03195946 0.00000245 -0.00001964 0.54117647 0.42352941 0.64313725
v 0.01604967 0.02759621 -0.00001964 0.54117647 0.42352941 0.64313725
v 0.01676866 0.02723157 -0.03000000 0.54117647 0.42352941 0.64313725
v 0.03015341 0.01065532 -0.03000000 0.54117647 0.42352941 0.64313725
v 0.03152120 0.00540721 -0.00001964 0.54117647 0.42352941 0.64313725
v 0.01676866 0.02723157 -0.00001964 0.54117647 0.42352941 0.64313725
v 0.02113095 0.02400653 -0.03000000 0.54117647 0.42352941 0.64313725
v 0.02792001 0.01559552 -0.03000000 0.54117647 0.42352941 0.64313725
v 0.03015341 0.01065532 -0.00001964 0.54117647 0.42352941 0.64313725
v 0.02113095 0.02400653 -0.00001964 0.54117647 0.42352941 0.64313725
v 0.02488186 0.02009004 -0.03000000 0.54117647 0.42352941 0.64313725
v 0.02792001 0.01559552 -0.00001964 0.54117647 0.42352941 0.64313725
v 0.02488186 0.02009004 -0.00001964 0.54117647 0.42352941 0.64313725
f 16 17 21
f 16 21 26
f 16 26 30
f 16 30 34
f 16 34 31
f 16 31 27
f 16 27 22
f 16 22 18
f 16 18 23
f 16 23 24
f 16 24 19
f 16 19 20
f 16 20 17
f 17 20 25
f 17 25 21
f 18 22 23
f 19 24 28
f 19 28 32
f 19 32 35
f 19 35 36
f 19 36 33
f 19 33 29
f 19 29 25
f 19 25 20
f 21 25 29
f 21 29 26
f 22 27 32
f 22 32 28
f 22 28 23
f 23 28 24
f 26 29 33
f 26 33 30
f 27 31 35
f 27 35 32
f 30 33 36
f 30 36 34
f 31 34 36
f 31 36 35

o geometry_2
v -0.01925162 0.01879555 0.01000000 0.43529412 0.89019608 0.96078431
v -0.02692740 -0.00086746 0.01000000 0.43529412 0.89019608 0.96078431
v -0.01925162 0.01879555 -0.00001867 0.43529412 0.89019608 0.96078431
v -0.04000000 0.01879555 0.01000000 0.43529412 0.89019608 0.96078431
v -0.02692740 -0.00086746 -0.00001867 0.43529412 0.89019608 0.96078431
v -0.04000000 -0.00086746 0.01000000 0.43529412 0.89019608 0.96078431
v -0.02174793 0.01879555 -0.00001867 0.43529412 0.89019608 0.96078431
v -0.04000000 0.01879555 0.00000095 0.43529412 0.89019608 0.96078431
v -0.03186517 -0.00086746 -0.00001867 0.43529412 0.89019608 0.96078431
v -0.04000000 -0.00086746 0.00000095 0.43529412 0.89019608 0.96078431
v -0.02649883 0.01790440 -0.00001867 0.43529412 0.89019608 0.96078431
v -0.02914544 0.01316958 -0.00001867 0.43529412 0.89019608 0.96078431
v -0.03094912 0.00805558 -0.00001867 0.43529412 0.89019608 0.96078431
v -0.03186517 0.00271061 -0.00001867 0.43529412 0.89019608 0.96078431
f 37 38 41
f 37 41 39
f 37 39 43
f 37 43 44
f 37 44 40
f 37 40 42
f 37 42 38
f 38 42 46
f 38 46 45
f 38 45 41
f 39 41 45
f 39 45 50
f 39 50 49
f 39 49 48
f 39 48 47
f 39 47 43
f 40 44 46
f 40 46 42
f 43 47 44
f 44 47 48
f 44 48 49
f 44 49 50
f 44 50 45
f 44 45 46

o geometry_3
v 0.02559898 -0.01903302 -0.00001964 0.38039216 0.78823529 0.52549020
v 0.02488071 -0.02009163 -0.00001964 0.38039216 0.78823529 0.52549020
v 0.02559898 -0.01903302 -0.03000000 0.38039216 0.78823529 0.52549020
v 0.01909450 -0.01903302 -0.00001964 0.38039216 0.78823529 0.52549020
v 0.02112918 -0.02400864 -0.00001964 0.38039216 0.78823529 0.52549020
v 0.02488071 -0.02009163 -0.03000000 0.38039216 0.78823529 0.52549020
v 0.01909450 -0.01903302 -0.03000000 0.38039216 0.78823529 0.52549020
v 0.00003154 -0.02692522 -0.00001964 0.38039216 0.78823529 0.52549020
v 0.01676700 -0.02723256 -0.00001964 0.38039216 0.78823529 0.52549020
v 0.02112918 -0.02400864 -0.03000000 0.38039216 0.78823529 0.52549020
v 0.00003154 -0.02692522 -0.03000000 0.38039216 0.78823529 0.52549020
v 0.00003154 -0.03189579 -0.00001964 0.38039216 0.78823529 0.52549020
v 0.01192681 -0.02967484 -0.00001964 0.38039216 0.78823529 0.52549020
v 0.01676700 -0.02723256 -0.03000000 0.38039216 0.78823529 0.52549020
v 0.00003154 -0.03189579 -0.03000000 0.38039216 0.78823529 0.52549020
v 0.00135797 -0.03195270 -0.00001964 0.38039216 0.78823529 0.52549020
v 0.00673874 -0.03126340 -0.00001964 0.38039216 0.78823529 0.52549020
v 0.01192681 -0.02967484 -0.03000000 0.38039216 0.78823529 0.52549020
v 0.00135797 -0.03195270 -0.03000000 0.38039216 0.78823529 0.52549020
v 0.00673874 -0.03126340 -0.03000000 0.38039216 0.78823529 0.52549020
f 51 52 56
f 51 56 53
f 51 53 57
f 51 57 54
f 51 54 58
f 51 58 62
f 51 62 66
f 51 66 67
f 51 67 63
f 51 63 59
f 51 59 55
f 51 55 52
f 52 55 60
f 52 60 56
f 53 56 60
f 53 60 64
f 53 64 68
f 53 68 70
f 53 70 69
f 53 69 65
f 53 65 61
f 53 61 57
f 54 57 61
f 54 61 58
f 55 59 64
f 55 64 60
f 58 61 65
f 58 65 62
f 59 63 68
f 59 68 64
f 62 65 69
f 62 69 66
f 63 67 70
f 63 70 68
f 66 69 70
f 66 70 67

o geometry_4
v 0.04000000 0.01879410 0.01000000 0.56470588 0.92549020 0.07058824
v 0.04000000 -0.00086746 0.01000000 0.56470588 0.92549020 0.07058824
v 0.04000000 0.01879410 0.00000095 0.56470588 0.92549020 0.07058824
v 0.01936789 0.01879410 0.01000000 0.56470588 0.92549020 0.07058824
v 0.04000000 -0.00086746 0.00000095 0.56470588 0.92549020 0.07058824
v 0.02696431 -0.00086746 0.01000000 0.56470588 0.92549020 0.07058824
v 0.03198145 0.00000053 -0.00001867 0.56470588 0.92549020 0.07058824
v 0.03152094 0.00540669 -0.00001867 0.56470588 0.92549020 0.07058824
v 0.03015355 0.01065311 -0.00001867 0.56470588 0.92549020 0.07058824
v 0.02792168 0.01559544 -0.00001867 0.56470588 0.92549020 0.07058824
v 0.02576051 0.01879410 -0.00001867 0.56470588 0.92549020 0.07058824
v 0.01936789 0.01879410 -0.00001867 0.56470588 0.92549020 0.07058824
v 0.03190672 -0.00086746 -0.00001867 0.56470588 0.92549020 0.07058824
v 0.02696431 -0.00086746 -0.00001867 0.56470588 0.92549020 0.07058824
f 71 72 75
f 71 75 73
f 71 73 81
f 71 81 82
f 71 82 74
f 71 74 76
f 71 76 72
f 72 76 84
f 72 84 83
f 72 83 75
f 73 75 77
f 73 77 78
f 73 78 79
f 73 79 80
f 73 80 81
f 74 82 84
f 74 84 76
f 75 83 77
f 77 83 84
f 77 84 82
f 77 82 81
f 77 81 80
f 77 80 79
f 77 79 78

o geometry_5
v 0.01604811 0.02759528 -0.00001964 0.08627451 0.01960784 0.83137255
v 0.01604811 0.02171320 -0.00001964 0.08627451 0.01960784 0.83137255
v 0.01604811 0.02759528 -0.03000000 0.08627451 0.01960784 0.83137255
v 0.01192325 0.02967525 -0.00001964 0.08627451 0.01960784 0.83137255
v 0.00003154 0.02692467 -0.00001964 0.08627451 0.01960784 0.83137255
v 0.01604811 0.02171320 -0.03000000 0.08627451 0.01960784 0.83137255
v 0.01192325 0.02967525 -0.03000000 0.08627451 0.01960784 0.83137255
v 0.00673856 0.03126305 -0.00001964 0.08627451 0.01960784 0.83137255
v 0.00003154 0.03189557 -0.00001964 0.08627451 0.01960784 0.83137255
v 0.00003154 0.02692467 -0.03000000 0.08627451 0.01960784 0.83137255
v 0.00673856 0.03126305 -0.03000000 0.08627451 0.01960784 0.83137255
v 0.00135790 0.03195170 -0.00001964 0.08627451 0.01960784 0.83137255
v 0.00003154 0.03189557 -0.03000000 0.08627451 0.01960784 0.83137255
v 0.00135790 0.03195170 -0.03000000 0.08627451 0.01960784 0.83137255
f 85 86 90
f 85 90 87
f 85 87 91
f 85 91 88
f 85 88 92
f 85 92 96
f 85 96 93
f 85 93 89
f 85 89 86
f 86 89 94
f 86 94 90
f 87 90 94
f 87 94 97
f 87 97 98
f 87 98 95
f 87 95 91
f 88 91 95
f 88 95 92
f 89 93 97
f 89 97 94
f 92 95 98
f 92 98 96
f 93 96 98
f 93 98 97

o geometry_6
v 0.00004777 0.03900000 0.01000000 0.77647059 0.86666667 0.97647059
v 0.00004777 0.02692599 0.01000000 0.77647059 0.86666667 0.97647059
v 0.00004777 0.03900000 0.00000095 0.77647059 0.86666667 0.97647059
v -0.03999608 0.03900000 0.01000000 0.77647059 0.86666667 0.97647059
v 0.00004777 0.02692599 -0.00001867 0.77647059 0.86666667 0.97647059
v -0.01925089 0.01879555 0.01000000 0.77647059 0.86666667 0.97647059
v 0.00004777 0.03189600 -0.00001474 0.77647059 0.86666667 0.97647059
v -0.00406834 0.03171999 -0.00001867 0.77647059 0.86666667 0.97647059
v -0.03999608 0.03900000 0.00000095 0.77647059 0.86666667 0.97647059
v -0.03999608 0.01879555 0.01000000 0.77647059 0.86666667 0.97647059
v 0.00004777 0.02934870 -0.00001867 0.77647059 0.86666667 0.97647059
v -0.01925089 0.01879555 -0.00001867 0.77647059 0.86666667 0.97647059
v -0.00936831 0.03057686 -0.00001867 0.77647059 0.86666667 0.97647059
v -0.02308868 0.02212802 -0.00001867 0.77647059 0.86666667 0.97647059
v -0.03999608 0.01879555 0.00000095 0.77647059 0.86666667 0.97647059
v -0.01440173 0.02855563 -0.00001867 0.77647059 0.86666667 0.97647059
v -0.01902353 0.02571165 -0.00001867 0.77647059 0.86666667 0.97647059
v -0.02174408 0.01879555 -0.00001867 0.77647059 0.86666667 0.97647059
f 99 100 103
f 99 103 109
f 99 109 105
f 99 105 101
f 99 101 107
f 99 107 102
f 99 102 108
f 99 108 104
f 99 104 100
f 100 104 110
f 100 110 103
f 101 105 106
f 101 106 107
f 102 107 113
f 102 113 108
f 103 110 116
f 103 116 112
f 103 112 115
f 103 115 114
f 103 114 111
f 103 111 106
f 103 106 109
f 104 108 113
f 104 113 116
f 104 116 110
f 105 109 106
f 106 111 107
f 107 112 113
f 107 111 114
f 107 114 115
f 107 115 112
f 112 116 113

o geometry_7
v 0.03999609 0.03900000 0.01000000 0.79607843 0.45882353 0.78039216
v 0.03999609 0.01879410 0.01000000 0.79607843 0.45882353 0.78039216
v 0.03999609 0.03900000 0.00000095 0.79607843 0.45882353 0.78039216
v 0.00005168 0.03900000 0.01000000 0.79607843 0.45882353 0.78039216
v 0.03999609 0.01879410 0.00000095 0.79607843 0.45882353 0.78039216
v 0.01936688 0.01879410 0.01000000 0.79607843 0.45882353 0.78039216
v 0.02575705 0.01879410 -0.00001867 0.79607843 0.45882353 0.78039216
v 0.02488104 0.02009159 -0.00001867 0.79607843 0.45882353 0.78039216
v 0.02112672 0.02400776 -0.00001867 0.79607843 0.45882353 0.78039216
v 0.01677014 0.02723366 -0.00001867 0.79607843 0.45882353 0.78039216
v 0.01192472 0.02967435 -0.00001867 0.79607843 0.45882353 0.78039216
v 0.00673907 0.03126258 -0.00001867 0.79607843 0.45882353 0.78039216
v 0.00135787 0.03195088 -0.00001867 0.79607843 0.45882353 0.78039216
v 0.00005168 0.03900000 0.00000095 0.79607843 0.45882353 0.78039216
v 0.00005168 0.02692512 0.01000000 0.79607843 0.45882353 0.78039216
v 0.01936688 0.01879410 -0.00001867 0.79607843 0.45882353 0.78039216
v 0.00005168 0.02934801 -0.00001867 0.79607843 0.45882353 0.78039216
v 0.00005168 0.03189550 -0.00001474 0.79607843 0.45882353 0.78039216
v 0.00005168 0.02692512 -0.00001867 0.79607843 0.45882353 0.78039216
f 117 118 121
f 117 121 119
f 117 119 130
f 117 130 120
f 117 120 131
f 117 131 122
f 117 122 118
f 118 122 132
f 118 132 123
f 118 123 121
f 119 121 123
f 119 123 124
f 119 124 125
f 119 125 126
f 119 126 127
f 119 127 128
f 119 128 129
f 119 129 130
f 120 130 134
f 120 134 133
f 120 133 135
f 120 135 131
f 122 131 135
f 122 135 132
f 123 132 135
f 123 135 133
f 123 133 129
f 123 129 128
f 123 128 127
f 123 127 126
f 123 126 125
f 123 125 124
f 129 133 134
f 129 134 130

o geometry_8
v 0.00003154 0.03189493 -0.00001964 0.11764706 0.63921569 0.14117647
v 0.00003154 0.02692501 -0.00001964 0.11764706 0.63921569 0.14117647
v 0.00003154 0.03189493 -0.03000000 0.11764706 0.63921569 0.14117647
v -0.00406336 0.03172239 -0.03000000 0.11764706 0.63921569 0.14117647
v -0.00406601 0.03172093 -0.00001964 0.11764706 0.63921569 0.14117647
v -0.02100715 0.01696033 -0.00001964 0.11764706 0.63921569 0.14117647
v 0.00003154 0.02692501 -0.03000000 0.11764706 0.63921569 0.14117647
v -0.00936608 0.03057897 -0.03000000 0.11764706 0.63921569 0.14117647
v -0.00936873 0.03057751 -0.00001964 0.11764706 0.63921569 0.14117647
v -0.02702502 0.01696033 -0.00001964 0.11764706 0.63921569 0.14117647
v -0.02100715 0.01696033 -0.03000000 0.11764706 0.63921569 0.14117647
v -0.01439598 0.02855679 -0.03000000 0.11764706 0.63921569 0.14117647
v -0.01439862 0.02855387 -0.00001964 0.11764706 0.63921569 0.14117647
v -0.02649793 0.01790635 -0.00001964 0.11764706 0.63921569 0.14117647
v -0.02702767 0.01696033 -0.00601806 0.11764706 0.63921569 0.14117647
v -0.02702767 0.01696033 -0.03000000 0.11764706 0.63921569 0.14117647
v -0.01901532 0.02571288 -0.03000000 0.11764706 0.63921569 0.14117647
v -0.01901797 0.02570995 -0.00001964 0.11764706 0.63921569 0.14117647
v -0.02308904 0.02212763 -0.00001964 0.11764706 0.63921569 0.14117647
v -0.02308904 0.02213056 -0.03000000 0.11764706 0.63921569 0.14117647
v -0.02649528 0.01790928 -0.03000000 0.11764706 0.63921569 0.14117647
f 136 137 142
f 136 142 138
f 136 138 139
f 136 139 140
f 136 140 144
f 136 144 148
f 136 148 153
f 136 153 154
f 136 154 149
f 136 149 145
f 136 145 141
f 136 141 137
f 137 141 146
f 137 146 142
f 138 142 146
f 138 146 151
f 138 151 156
f 138 156 155
f 138 155 152
f 138 152 147
f 138 147 143
f 138 143 139
f 139 143 144
f 139 144 140
f 141 145 150
f 141 150 151
f 141 151 146
f 143 147 144
f 144 147 148
f 145 149 150
f 147 152 153
f 147 153 148
f 149 154 155
f 149 155 156
f 149 156 151
f 149 151 150
f 152 155 153
f 153 155 154

o geometry_9
v -0.02040360 -0.28100000 0.00000095 0.94117647 0.52156863 0.41176471
v 0.00004777 -0.28100000 0.00000095 0.94117647 0.52156863 0.41176471
v -0.02040360 -0.28100000 0.01000000 0.94117647 0.52156863 0.41176471
v -0.02040360 -0.02450155 -0.00001867 0.94117647 0.52156863 0.41176471
v -0.01901228 -0.02573917 -0.00001867 0.94117647 0.52156863 0.41176471
v -0.01439391 -0.02857542 -0.00001867 0.94117647 0.52156863 0.41176471
v -0.00936314 -0.03058656 -0.00001867 0.94117647 0.52156863 0.41176471
v -0.00406012 -0.03174684 -0.00001867 0.94117647 0.52156863 0.41176471
v 0.00004777 -0.03190153 -0.00001867 0.94117647 0.52156863 0.41176471
v 0.00004777 -0.28100000 0.01000000 0.94117647 0.52156863 0.41176471
v -0.02040360 -0.01759145 0.01000000 0.94117647 0.52156863 0.41176471
v -0.02040360 -0.01759145 -0.00001867 0.94117647 0.52156863 0.41176471
v 0.00004777 -0.02692524 -0.00001867 0.94117647 0.52156863 0.41176471
v 0.00004777 -0.02692524 0.01000000 0.94117647 0.52156863 0.41176471
f 157 158 166
f 157 166 159
f 157 159 167
f 157 167 168
f 157 168 160
f 157 160 161
f 157 161 162
f 157 162 163
f 157 163 164
f 157 164 165
f 157 165 158
f 158 165 169
f 158 169 170
f 158 170 166
f 159 166 170
f 159 170 167
f 160 168 169
f 160 169 165
f 160 165 164
f 160 164 163
f 160 163 162
f 160 162 161
f 167 170 169
f 167 169 168

o geometry_10
v 0.00005212 -0.28097378 0.00000193 0.26274510 0.77254902 0.45490196
v 0.02102974 -0.28100000 0.00000193 0.26274510 0.77254902 0.45490196
v 0.00005212 -0.28097378 0.00999902 0.26274510 0.77254902 0.45490196
v 0.00005212 -0.03191517 -0.00001769 0.26274510 0.77254902 0.45490196
v 0.00135821 -0.03196761 -0.00001769 0.26274510 0.77254902 0.45490196
v 0.02102974 -0.28100000 0.00999902 0.26274510 0.77254902 0.45490196
v 0.02345860 -0.28100000 0.00000193 0.26274510 0.77254902 0.45490196
v 0.00005212 -0.02696022 0.00999902 0.26274510 0.77254902 0.45490196
v 0.00005212 -0.02696022 -0.00001769 0.26274510 0.77254902 0.45490196
v 0.00674067 -0.03131219 -0.00001769 0.26274510 0.77254902 0.45490196
v 0.02345860 -0.28100000 0.00999902 0.26274510 0.77254902 0.45490196
v 0.01192149 -0.02968675 -0.00001769 0.26274510 0.77254902 0.45490196
v 0.01676547 -0.02727482 -0.00001769 0.26274510 0.77254902 0.45490196
v 0.02102974 -0.02410260 -0.00001769 0.26274510 0.77254902 0.45490196
v 0.02112827 -0.02402395 -0.00001769 0.26274510 0.77254902 0.45490196
v 0.02345860 -0.02158579 -0.00001769 0.26274510 0.77254902 0.45490196
v 0.02345860 -0.01317024 0.00999902 0.26274510 0.77254902 0.45490196
v 0.02345860 -0.01317024 -0.00001769 0.26274510 0.77254902 0.45490196
f 171 172 176
f 171 176 173
f 171 173 178
f 171 178 179
f 171 179 174
f 171 174 175
f 171 175 172
f 172 175 177
f 172 177 181
f 172 181 176
f 173 176 181
f 173 181 187
f 173 187 178
f 174 179 188
f 174 188 186
f 174 186 185
f 174 185 184
f 174 184 183
f 174 183 182
f 174 182 180
f 174 180 175
f 175 180 177
f 177 180 182
f 177 182 183
f 177 183 184
f 177 184 185
f 177 185 186
f 177 186 188
f 177 188 187
f 177 187 181
f 178 187 188
f 178 188 179

o geometry_11
v 0.01909575 -0.01903175 -0.03000000 0.56470588 0.01568627 0.61568627
v 0.02559791 -0.01903175 -0.03000000 0.56470588 0.01568627 0.61568627
v 0.01909575 -0.01903175 -0.00001964 0.56470588 0.01568627 0.61568627
v 0.02690212 0.00000059 -0.03000000 0.56470588 0.01568627 0.61568627
v 0.02792001 -0.01559606 -0.03000000 0.56470588 0.01568627 0.61568627
v 0.02559791 -0.01903175 -0.00001964 0.56470588 0.01568627 0.61568627
v 0.02696014 0.00000059 -0.00605328 0.56470588 0.01568627 0.61568627
v 0.02697528 0.00000059 -0.00001964 0.56470588 0.01568627 0.61568627
v 0.03197519 0.00000059 -0.03000000 0.56470588 0.01568627 0.61568627
v 0.03015383 -0.01065305 -0.03000000 0.56470588 0.01568627 0.61568627
v 0.02792001 -0.01559606 -0.00001964 0.56470588 0.01568627 0.61568627
v 0.03196006 0.00000059 -0.00001964 0.56470588 0.01568627 0.61568627
v 0.03198024 -0.00000127 -0.03000000 0.56470588 0.01568627 0.61568627
v 0.03198024 0.00000059 -0.00003432 0.56470588 0.01568627 0.61568627
v 0.03152112 -0.00540635 -0.03000000 0.56470588 0.01568627 0.61568627
v 0.03015383 -0.01065305 -0.00001964 0.56470588 0.01568627 0.61568627
v 0.03198024 -0.00000127 -0.00001964 0.56470588 0.01568627 0.61568627
v 0.03152112 -0.00540635 -0.00001964 0.56470588 0.01568627 0.61568627
f 189 190 194
f 189 194 191
f 189 191 192
f 189 192 197
f 189 197 201
f 189 201 203
f 189 203 198
f 189 198 193
f 189 193 190
f 190 193 199
f 190 199 194
f 191 195 192
f 191 194 199
f 191 199 204
f 191 204 206
f 191 206 205
f 191 205 200
f 191 200 196
f 191 196 195
f 192 195 196
f 192 196 200
f 192 200 202
f 192 202 197
f 193 198 204
f 193 204 199
f 197 202 201
f 198 203 206
f 198 206 204
f 200 205 202
f 201 202 205
f 201 205 206
f 201 206 203

o geometry_12
v -0.02620554 -0.01826864 -0.03000000 0.61176471 0.61568627 0.94117647
v -0.02649637 -0.01790737 -0.03000000 0.61176471 0.61568627 0.94117647
v -0.01975576 -0.01826864 -0.03000000 0.61176471 0.61568627 0.94117647
v -0.02620554 -0.01826864 -0.00001964 0.61176471 0.61568627 0.94117647
v -0.02649398 -0.01791094 -0.00001964 0.61176471 0.61568627 0.94117647
v -0.02914139 -0.01317148 -0.03000000 0.61176471 0.61568627 0.94117647
v -0.02914020 -0.01317505 -0.00001964 0.61176471 0.61568627 0.94117647
v -0.02699905 0.00000245 -0.03000000 0.61176471 0.61568627 0.94117647
v -0.01975576 -0.01826864 -0.00001964 0.61176471 0.61568627 0.94117647
v -0.03094862 -0.00806001 -0.03000000 0.61176471 0.61568627 0.94117647
v -0.03094743 -0.00806359 -0.00001964 0.61176471 0.61568627 0.94117647
v -0.03197791 0.00000245 -0.03000000 0.61176471 0.61568627 0.94117647
v -0.02699905 0.00000245 -0.00001964 0.61176471 0.61568627 0.94117647
v -0.03186541 -0.00271247 -0.03000000 0.61176471 0.61568627 0.94117647
v -0.03186541 -0.00271604 -0.00001964 0.61176471 0.61568627 0.94117647
v -0.03198150 -0.00000113 -0.03000000 0.61176471 0.61568627 0.94117647
v -0.03198030 0.00000245 -0.02997065 0.61176471 0.61568627 0.94117647
v -0.03186541 0.00000245 -0.00001964 0.61176471 0.61568627 0.94117647
f 207 208 212
f 207 212 216
f 207 216 220
f 207 220 222
f 207 222 218
f 207 218 214
f 207 214 209
f 207 209 215
f 207 215 210
f 207 210 211
f 207 211 208
f 208 211 213
f 208 213 212
f 209 214 219
f 209 219 215
f 210 215 219
f 210 219 224
f 210 224 221
f 210 221 217
f 210 217 213
f 210 213 211
f 212 213 217
f 212 217 216
f 214 218 223
f 214 223 224
f 214 224 219
f 216 217 221
f 216 221 220
f 218 222 223
f 220 221 222
f 221 224 222
f 222 224 223

o geometry_13
v 0.00003154 -0.02692471 -0.00001964 0.67843137 0.35686275 0.43529412
v 0.00003154 -0.03189638 -0.00001964 0.67843137 0.35686275 0.43529412
v 0.00003154 -0.02692471 -0.03000000 0.67843137 0.35686275 0.43529412
v -0.01975226 -0.01826996 -0.00001964 0.67843137 0.35686275 0.43529412
v -0.00405980 -0.03172164 -0.00001964 0.67843137 0.35686275 0.43529412
v -0.00406237 -0.03172164 -0.03000000 0.67843137 0.35686275 0.43529412
v 0.00003154 -0.03189638 -0.03000000 0.67843137 0.35686275 0.43529412
v -0.01975226 -0.01826996 -0.03000000 0.67843137 0.35686275 0.43529412
v -0.02620389 -0.01826996 -0.00001964 0.67843137 0.35686275 0.43529412
v -0.00936339 -0.03057976 -0.00001964 0.67843137 0.35686275 0.43529412
v -0.00936596 -0.03057843 -0.03000000 0.67843137 0.35686275 0.43529412
v -0.02620646 -0.01826996 -0.03000000 0.67843137 0.35686275 0.43529412
v -0.02620646 -0.01826996 -0.00255811 0.67843137 0.35686275 0.43529412
v -0.02308595 -0.02213178 -0.00001964 0.67843137 0.35686275 0.43529412
v -0.01439474 -0.02855748 -0.00001964 0.67843137 0.35686275 0.43529412
v -0.01439730 -0.02855614 -0.03000000 0.67843137 0.35686275 0.43529412
v -0.02308851 -0.02213045 -0.03000000 0.67843137 0.35686275 0.43529412
v -0.01901258 -0.02571480 -0.00001964 0.67843137 0.35686275 0.43529412
v -0.01901515 -0.02571213 -0.03000000 0.67843137 0.35686275 0.43529412
f 225 226 231
f 225 231 227
f 225 227 232
f 225 232 228
f 225 228 233
f 225 233 238
f 225 238 242
f 225 242 239
f 225 239 234
f 225 234 229
f 225 229 226
f 226 229 230
f 226 230 231
f 227 231 230
f 227 230 235
f 227 235 240
f 227 240 243
f 227 243 241
f 227 241 236
f 227 236 232
f 228 232 236
f 228 236 237
f 228 237 233
f 229 234 230
f 230 234 235
f 233 237 238
f 234 239 240
f 234 240 235
f 236 241 237
f 237 241 238
f 238 241 242
f 239 242 240
f 240 242 243
f 241 243 242

o geometry_14
v -0.04000000 -0.28100000 0.00000095 0.69411765 0.05882353 0.66666667
v -0.02040551 -0.28100000 0.00000095 0.69411765 0.05882353 0.66666667
v -0.04000000 -0.28100000 0.01000000 0.69411765 0.05882353 0.66666667
v -0.04000000 -0.00086746 0.00000095 0.69411765 0.05882353 0.66666667
v -0.03186488 -0.00273208 -0.00001867 0.69411765 0.05882353 0.66666667
v -0.03094798 -0.00807917 -0.00001867 0.69411765 0.05882353 0.66666667
v -0.02914103 -0.01317947 -0.00001867 0.69411765 0.05882353 0.66666667
v -0.02649582 -0.01792330 -0.00001867 0.69411765 0.05882353 0.66666667
v -0.02308717 -0.02214613 -0.00001867 0.69411765 0.05882353 0.66666667
v -0.02040551 -0.02450433 -0.00001867 0.69411765 0.05882353 0.66666667
v -0.02040551 -0.28100000 0.01000000 0.69411765 0.05882353 0.66666667
v -0.04000000 -0.00086746 0.01000000 0.69411765 0.05882353 0.66666667
v -0.03186488 -0.00086746 -0.00001867 0.69411765 0.05882353 0.66666667
v -0.02040551 -0.01759425 -0.00001867 0.69411765 0.05882353 0.66666667
v -0.02040551 -0.01759425 0.01000000 0.69411765 0.05882353 0.66666667
v -0.02692742 -0.00086746 0.01000000 0.69411765 0.05882353 0.66666667
v -0.02692742 -0.00086746 -0.00001867 0.69411765 0.05882353 0.66666667
f 244 245 254
f 244 254 246
f 244 246 255
f 244 255 247
f 244 247 256
f 244 256 248
f 244 248 249
f 244 249 250
f 244 250 251
f 244 251 252
f 244 252 253
f 244 253 245
f 245 253 257
f 245 257 258
f 245 258 254
f 246 254 258
f 246 258 259
f 246 259 255
f 247 255 259
f 247 259 260
f 247 260 256
f 248 256 260
f 248 260 257
f 248 257 253
f 248 253 252
f 248 252 251
f 248 251 250
f 248 250 249
f 257 260 259
f 257 259 258

o geometry_15
v 0.02345860 -0.28100000 0.00000095 0.67058824 0.20784314 0.12549020
v 0.04000000 -0.28100000 0.00000095 0.67058824 0.20784314 0.12549020
v 0.02345860 -0.28100000 0.01000000 0.67058824 0.20784314 0.12549020
v 0.02345860 -0.02159771 -0.00001867 0.67058824 0.20784314 0.12549020
v 0.04000000 -0.28100000 0.01000000 0.67058824 0.20784314 0.12549020
v 0.02488347 -0.02011697 -0.00001867 0.67058824 0.20784314 0.12549020
v 0.02792103 -0.01561994 -0.00001867 0.67058824 0.20784314 0.12549020
v 0.03015547 -0.01065674 -0.00001867 0.67058824 0.20784314 0.12549020
v 0.03152205 -0.00541934 -0.00001867 0.67058824 0.20784314 0.12549020
v 0.03190741 -0.00086746 -0.00001867 0.67058824 0.20784314 0.12549020
v 0.04000000 -0.00086746 0.00000095 0.67058824 0.20784314 0.12549020
v 0.02345860 -0.01317947 0.01000000 0.67058824 0.20784314 0.12549020
v 0.02345860 -0.01317947 -0.00001867 0.67058824 0.20784314 0.12549020
v 0.04000000 -0.00086746 0.01000000 0.67058824 0.20784314 0.12549020
v 0.02696410 -0.00086746 -0.00001867 0.67058824 0.20784314 0.12549020
v 0.02696410 -0.00086746 0.01000000 0.67058824 0.20784314 0.12549020
f 261 262 265
f 261 265 263
f 261 263 272
f 261 272 273
f 261 273 264
f 261 264 262
f 262 264 266
f 262 266 267
f 262 267 268
f 262 268 269
f 262 269 270
f 262 270 271
f 262 271 274
f 262 274 265
f 263 265 274
f 263 274 276
f 263 276 272
f 264 273 275
f 264 275 270
f 264 270 269
f 264 269 268
f 264 268 267
f 264 267 266
f 270 275 276
f 270 276 274
f 270 274 271
f 272 276 275
f 272 275 273

