####
#
# OBJ File Generated by Meshlab
#
####
# Object clipper.obj
#
# Vertices: 308
# Faces: 624
#
####
mtllib ./clipper.obj.mtl

vn -0.5773498 -0.5773491 -0.5773520
v -0.0400000 -0.2810000 0.0000000
vn 0.5773440 -0.5773440 -0.5773628
v 0.0400000 -0.2810000 0.0000000
vn -0.5773489 -0.5773489 0.5773531
v -0.0400000 -0.2810000 0.0100000
vn 0.5773392 -0.5773385 0.5773731
v 0.0400000 -0.2810000 0.0100000
vn -0.0291441 0.6863322 -0.7267041
v -0.0260695 -0.2759973 0.0000000
vn -0.0291442 0.6863322 -0.7267041
v 0.0263241 -0.2759973 0.0000000
vn -0.0291441 0.6863321 0.7267041
v -0.0260695 -0.2759973 0.0100000
vn -0.0291442 0.6863322 0.7267041
v 0.0263241 -0.2759973 0.0100000
vn 0.0872523 0.6813955 -0.7266961
v -0.0265778 -0.2759757 0.0000000
vn 0.0872524 0.6813954 -0.7266963
v 0.0258157 -0.2759757 0.0000000
vn 0.0872523 0.6813955 0.7266961
v -0.0265778 -0.2759757 0.0100000
vn 0.0872523 0.6813946 0.7266970
v 0.0258157 -0.2759757 0.0100000
vn -0.1447305 0.6715285 -0.7267067
v -0.0255648 -0.2759327 0.0000000
vn -0.1447308 0.6715283 -0.7267068
v 0.0268288 -0.2759327 0.0000000
vn -0.1447305 0.6715285 0.7267067
v -0.0255648 -0.2759327 0.0100000
vn -0.1447308 0.6715283 0.7267068
v 0.0268288 -0.2759327 0.0100000
vn 0.2011505 0.6568347 -0.7267095
v -0.0270753 -0.2758685 0.0000000
vn 0.2011507 0.6568347 -0.7267094
v 0.0253183 -0.2758685 0.0000000
vn 0.2011505 0.6568347 0.7267095
v -0.0270753 -0.2758685 0.0100000
vn 0.2011508 0.6568348 0.7267094
v 0.0253183 -0.2758685 0.0100000
vn -0.2561345 0.6374229 -0.7266961
v -0.0250782 -0.2757837 0.0000000
vn -0.2561345 0.6374233 -0.7266957
v 0.0273154 -0.2757837 0.0000000
vn -0.2561346 0.6374230 0.7266959
v -0.0250782 -0.2757837 0.0100000
vn -0.2561345 0.6374235 0.7266956
v 0.0273154 -0.2757837 0.0100000
vn 0.3092730 0.6134012 -0.7266975
v -0.0275474 -0.2756788 0.0000000
vn 0.3092730 0.6134012 -0.7266976
v 0.0248462 -0.2756788 0.0000000
vn 0.3092730 0.6134012 0.7266975
v -0.0275474 -0.2756788 0.0100000
vn 0.3092730 0.6134012 0.7266975
v 0.0248462 -0.2756788 0.0100000
vn -0.3601617 0.5849633 -0.7267060
v -0.0246239 -0.2755546 0.0000000
vn -0.3601616 0.5849627 -0.7267065
v 0.0277697 -0.2755546 0.0000000
vn -0.3601617 0.5849632 0.7267061
v -0.0246239 -0.2755546 0.0100000
vn -0.3601615 0.5849627 0.7267065
v 0.0277697 -0.2755546 0.0100000
vn 0.4084763 0.5523123 -0.7267037
v -0.0279807 -0.2754120 0.0000000
vn 0.4084768 0.5523116 -0.7267039
v 0.0244129 -0.2754120 0.0000000
vn 0.4084763 0.5523124 0.7267037
v -0.0279807 -0.2754120 0.0100000
vn 0.4084768 0.5523117 0.7267039
v 0.0244129 -0.2754120 0.0100000
vn -0.4538565 0.5156712 -0.7267032
v -0.0242148 -0.2752520 0.0000000
vn -0.4538550 0.5156698 -0.7267052
v 0.0281788 -0.2752520 0.0000000
vn -0.4538547 0.5156692 0.7267058
v -0.0242148 -0.2752520 0.0100000
vn -0.4538549 0.5156697 0.7267052
v 0.0281788 -0.2752520 0.0100000
vn 0.4959494 0.4753230 -0.7267064
v -0.0283627 -0.2750758 0.0000000
vn 0.4959498 0.4753236 -0.7267058
v 0.0240309 -0.2750758 0.0000000
vn 0.4959495 0.4753230 0.7267064
v -0.0283627 -0.2750758 0.0100000
vn 0.4959499 0.4753236 0.7267058
v 0.0240309 -0.2750758 0.0100000
vn -0.5344809 0.4315513 -0.7267005
v -0.0238627 -0.2748847 0.0000000
vn -0.5344804 0.4315507 -0.7267012
v 0.0285309 -0.2748847 0.0000000
vn -0.5344809 0.4315513 0.7267005
v -0.0238627 -0.2748847 0.0100000
vn -0.5344805 0.4315508 0.7267012
v 0.0285309 -0.2748847 0.0100000
vn 0.5691532 0.3846707 -0.7267002
v -0.0286823 -0.2746799 0.0000000
vn 0.5691524 0.3846713 -0.7267005
v 0.0237113 -0.2746799 0.0000000
vn 0.5691531 0.3846707 0.7267002
v -0.0286823 -0.2746799 0.0100000
vn 0.5691522 0.3846713 0.7267006
v 0.0237113 -0.2746799 0.0100000
vn -0.5997194 0.3350270 -0.7267005
v -0.0235778 -0.2744631 0.0000000
vn -0.5997204 0.3350250 -0.7267005
v 0.0288158 -0.2744631 0.0000000
vn -0.5997195 0.3350270 0.7267004
v -0.0235778 -0.2744631 0.0100000
vn -0.5997205 0.3350251 0.7267004
v 0.0288158 -0.2744631 0.0100000
vn 0.6259705 0.2829592 -0.7267014
v -0.0289305 -0.2742357 0.0000000
vn 0.6259705 0.2829592 -0.7267014
v 0.0234631 -0.2742357 0.0000000
vn 0.6259705 0.2829592 0.7267015
v -0.0289305 -0.2742357 0.0100000
vn 0.6259705 0.2829592 0.7267015
v 0.0234631 -0.2742357 0.0100000
vn -0.6477086 0.2288523 -0.7267050
v -0.0233682 -0.2739994 0.0000000
vn -0.6477094 0.2288514 -0.7267046
v 0.0290254 -0.2739994 0.0000000
vn -0.6477086 0.2288522 0.7267051
v -0.0233682 -0.2739994 0.0100000
vn -0.6477093 0.2288513 0.7267047
v 0.0290254 -0.2739994 0.0100000
vn 0.6647845 0.1730991 -0.7267038
v -0.0291000 -0.2737559 0.0000000
vn 0.6647847 0.1731005 -0.7267032
v 0.0232936 -0.2737559 0.0000000
vn 0.6647846 0.1730992 0.7267036
v -0.0291000 -0.2737559 0.0100000
vn 0.6647849 0.1731006 0.7267030
v 0.0232936 -0.2737559 0.0100000
vn -0.6770706 0.1160929 -0.7267035
v -0.0232399 -0.2735070 0.0000000
vn -0.6770726 0.1160945 -0.7267013
v 0.0291536 -0.2735070 0.0000000
vn -0.6770723 0.1160932 0.7267019
v -0.0232399 -0.2735070 0.0100000
vn -0.6770726 0.1160945 0.7267013
v 0.0291536 -0.2735070 0.0100000
vn 0.6844776 0.0582574 -0.7267026
v -0.0291860 -0.2732544 0.0000000
vn 0.6882946 0.0733277 -0.7217157
v 0.0232076 -0.2732544 0.0000000
vn 0.6844776 0.0582574 0.7267026
v -0.0291860 -0.2732544 0.0100000
vn 0.6882947 0.0733277 0.7217156
v 0.0232076 -0.2732544 0.0100000
vn -0.6869526 0.0000009 -0.7267023
v -0.0231968 -0.2730000 0.0000000
vn 0.6972942 -0.0000009 -0.7167851
v 0.0231968 -0.2730000 0.0000000
vn -0.6869516 0.0000009 -0.7267032
v 0.0291968 -0.2730000 0.0000000
vn -0.6869524 0.0000009 0.7267025
v -0.0231968 -0.2730000 0.0100000
vn 0.6972942 -0.0000009 0.7167851
v 0.0231968 -0.2730000 0.0100000
vn -0.6869515 0.0000009 0.7267032
v 0.0291968 -0.2730000 0.0100000
vn 0.6844783 -0.0582557 -0.7267020
v -0.0291860 -0.2727456 0.0000000
vn 0.6882954 -0.0733269 -0.7217152
v 0.0232076 -0.2727456 0.0000000
vn 0.6844783 -0.0582557 0.7267020
v -0.0291860 -0.2727456 0.0100000
vn 0.6882959 -0.0733270 0.7217146
v 0.0232076 -0.2727456 0.0100000
vn -0.6770703 -0.1160946 -0.7267035
v -0.0232399 -0.2724930 0.0000000
vn -0.6770710 -0.1160960 -0.7267025
v 0.0291536 -0.2724930 0.0000000
vn -0.6770709 -0.1160947 0.7267029
v -0.0232399 -0.2724930 0.0100000
vn -0.6770712 -0.1160960 0.7267025
v 0.0291536 -0.2724930 0.0100000
vn 0.6647863 -0.1730944 -0.7267032
v -0.0291000 -0.2722441 0.0000000
vn 0.6647864 -0.1730957 -0.7267028
v 0.0232936 -0.2722441 0.0000000
vn 0.6647863 -0.1730944 0.7267032
v -0.0291000 -0.2722441 0.0100000
vn 0.6647865 -0.1730957 0.7267027
v 0.0232936 -0.2722441 0.0100000
vn -0.6477114 -0.2288516 -0.7267028
v -0.0233682 -0.2720006 0.0000000
vn -0.6477122 -0.2288506 -0.7267024
v 0.0290254 -0.2720006 0.0000000
vn -0.6477113 -0.2288515 0.7267028
v -0.0233682 -0.2720006 0.0100000
vn -0.6477121 -0.2288506 0.7267025
v 0.0290254 -0.2720006 0.0100000
vn 0.6259672 -0.2829595 -0.7267042
v -0.0289305 -0.2717643 0.0000000
vn 0.6259672 -0.2829595 -0.7267042
v 0.0234631 -0.2717643 0.0000000
vn 0.6259670 -0.2829594 0.7267044
v -0.0289305 -0.2717643 0.0100000
vn 0.6259670 -0.2829594 0.7267044
v 0.0234631 -0.2717643 0.0100000
vn -0.5997200 -0.3350226 -0.7267020
v -0.0235778 -0.2715369 0.0000000
vn -0.5997211 -0.3350207 -0.7267020
v 0.0288158 -0.2715369 0.0000000
vn -0.5997200 -0.3350226 0.7267020
v -0.0235778 -0.2715369 0.0100000
vn -0.5997211 -0.3350207 0.7267020
v 0.0288158 -0.2715369 0.0100000
vn 0.5691464 -0.3846797 -0.7267007
v -0.0286823 -0.2713201 0.0000000
vn 0.5691451 -0.3846800 -0.7267016
v 0.0237113 -0.2713201 0.0000000
vn 0.5691466 -0.3846798 0.7267005
v -0.0286823 -0.2713201 0.0100000
vn 0.5691457 -0.3846804 0.7267008
v 0.0237113 -0.2713201 0.0100000
vn -0.5344682 -0.4315589 -0.7267053
v -0.0238627 -0.2711153 0.0000000
vn -0.5344678 -0.4315584 -0.7267059
v 0.0285309 -0.2711153 0.0000000
vn -0.5344684 -0.4315590 0.7267053
v -0.0238627 -0.2711153 0.0100000
vn -0.5344679 -0.4315585 0.7267058
v 0.0285309 -0.2711153 0.0100000
vn 0.4959612 -0.4753220 -0.7266991
v -0.0283627 -0.2709242 0.0000000
vn 0.4959615 -0.4753225 -0.7266985
v 0.0240309 -0.2709242 0.0000000
vn 0.4959612 -0.4753221 0.7266990
v -0.0283627 -0.2709242 0.0100000
vn 0.4959615 -0.4753226 0.7266985
v 0.0240309 -0.2709242 0.0100000
vn -0.4538475 -0.5156820 -0.7267011
v -0.0242148 -0.2707480 0.0000000
vn -0.4538479 -0.5156828 -0.7267003
v 0.0281788 -0.2707480 0.0000000
vn -0.4538485 -0.5156832 0.7266997
v -0.0242148 -0.2707480 0.0100000
vn -0.4538479 -0.5156828 0.7267004
v 0.0281788 -0.2707480 0.0100000
vn 0.4084852 -0.5522990 -0.7267089
v -0.0279807 -0.2705880 0.0000000
vn 0.4084857 -0.5522982 -0.7267091
v 0.0244129 -0.2705880 0.0000000
vn 0.4084851 -0.5522989 0.7267090
v -0.0279807 -0.2705880 0.0100000
vn 0.4084856 -0.5522981 0.7267092
v 0.0244129 -0.2705880 0.0100000
vn -0.3601803 -0.5849593 -0.7266999
v -0.0246239 -0.2704454 0.0000000
vn -0.3601803 -0.5849588 -0.7267004
v 0.0277697 -0.2704454 0.0000000
vn -0.3601809 -0.5849602 0.7266989
v -0.0246239 -0.2704454 0.0100000
vn -0.3601803 -0.5849589 0.7267003
v 0.0277697 -0.2704454 0.0100000
vn 0.3092631 -0.6134022 -0.7267008
v -0.0275474 -0.2703212 0.0000000
vn 0.3092631 -0.6134022 -0.7267008
v 0.0248462 -0.2703212 0.0000000
vn 0.3092631 -0.6134023 0.7267007
v -0.0275474 -0.2703212 0.0100000
vn 0.3092631 -0.6134023 0.7267007
v 0.0248462 -0.2703212 0.0100000
vn -0.2561510 -0.6374159 -0.7266964
v -0.0250782 -0.2702163 0.0000000
vn -0.2561487 -0.6374107 -0.7267018
v 0.0273154 -0.2702163 0.0000000
vn -0.2561455 -0.6374022 0.7267104
v -0.0250782 -0.2702163 0.0100000
vn -0.2561487 -0.6374106 0.7267019
v 0.0273154 -0.2702163 0.0100000
vn 0.2011631 -0.6568407 -0.7267006
v -0.0270753 -0.2701315 0.0000000
vn 0.2011637 -0.6568417 -0.7266995
v 0.0253183 -0.2701315 0.0000000
vn 0.2011634 -0.6568418 0.7266995
v -0.0270753 -0.2701315 0.0100000
vn 0.2011637 -0.6568417 0.7266995
v 0.0253183 -0.2701315 0.0100000
vn -0.1447305 -0.6715285 -0.7267067
v -0.0255648 -0.2700673 0.0000000
vn -0.1447308 -0.6715283 -0.7267068
v 0.0268288 -0.2700673 0.0000000
vn -0.1447305 -0.6715285 0.7267067
v -0.0255648 -0.2700673 0.0100000
vn -0.1447308 -0.6715283 0.7267068
v 0.0268288 -0.2700673 0.0100000
vn 0.0872604 -0.6813836 -0.7267064
v -0.0265778 -0.2700243 0.0000000
vn 0.0872606 -0.6813833 -0.7267065
v 0.0258157 -0.2700243 0.0000000
vn 0.0872604 -0.6813835 0.7267064
v -0.0265778 -0.2700243 0.0100000
vn 0.0872606 -0.6813833 0.7267065
v 0.0258157 -0.2700243 0.0100000
vn -0.0291542 -0.6863343 -0.7267016
v -0.0260695 -0.2700027 0.0000000
vn -0.0291544 -0.6863353 -0.7267007
v 0.0263241 -0.2700027 0.0000000
vn -0.0291544 -0.6863378 0.7266983
v -0.0260695 -0.2700027 0.0100000
vn -0.0291544 -0.6863354 0.7267007
v 0.0263241 -0.2700027 0.0100000
vn 0.0307798 -0.7245756 -0.6885076
v 0.0013573 -0.0319527 -0.0300000
vn 0.0291553 -0.6863330 -0.7267029
v 0.0013573 -0.0319527 0.0000000
vn -0.0921170 -0.7193548 -0.6885079
v -0.0040622 -0.0317225 -0.0300000
vn -0.0872546 -0.6813841 -0.7267066
v -0.0040622 -0.0317225 0.0000000
vn 0.1527908 -0.7089511 -0.6885080
v 0.0067378 -0.0312637 -0.0300000
vn 0.1447267 -0.6715339 -0.7267025
v 0.0067378 -0.0312637 0.0000000
vn -0.2123640 -0.6934400 -0.6885076
v -0.0093649 -0.0305797 -0.0300000
vn -0.2011555 -0.6568404 -0.7267030
v -0.0093649 -0.0305797 0.0000000
vn 0.2704061 -0.6729322 -0.6885077
v 0.0119245 -0.0296753 -0.0300000
vn 0.2561343 -0.6374153 -0.7267028
v 0.0119245 -0.0296753 0.0000000
vn -0.3265006 -0.6475754 -0.6885082
v -0.0143982 -0.0285571 -0.0300000
vn -0.3092685 -0.6133977 -0.7267023
v -0.0143982 -0.0285571 0.0000000
vn 0.3802425 -0.6175537 -0.6885079
v 0.0167681 -0.0272332 -0.0300000
vn 0.3601739 -0.5849600 -0.7267026
v 0.0167681 -0.0272332 0.0000000
vn 0.0291549 0.6863335 -0.7267025
v -0.0011459 -0.0269757 -0.0300000
vn 0.0291551 0.6863378 0.7266984
v -0.0011459 -0.0269757 0.0100000
vn -0.0872550 0.6813880 -0.7267029
v 0.0034295 -0.0267813 -0.0300000
vn -0.0872550 0.6813880 0.7267028
v 0.0034295 -0.0267813 0.0100000
vn 0.1447264 0.6715334 -0.7267030
v -0.0056883 -0.0263940 -0.0300000
vn 0.1447264 0.6715334 0.7267030
v -0.0056883 -0.0263940 0.0100000
vn -0.2011549 0.6568412 -0.7267025
v 0.0079062 -0.0258165 -0.0300000
vn -0.2011549 0.6568413 0.7267024
v 0.0079062 -0.0258165 0.0100000
vn -0.4312452 -0.5830824 -0.6885074
v -0.0190173 -0.0257131 -0.0300000
vn -0.4084842 -0.5523074 -0.7267030
v -0.0190173 -0.0257131 0.0000000
vn 0.2561345 0.6374158 -0.7267024
v -0.0100671 -0.0250530 -0.0300000
vn 0.2561345 0.6374156 0.7267024
v -0.0100671 -0.0250530 0.0100000
vn -0.3092678 0.6133974 -0.7267029
v 0.0121555 -0.0241090 -0.0300000
vn -0.3092678 0.6133974 0.7267030
v 0.0121555 -0.0241090 0.0100000
vn 0.4791407 -0.5444094 -0.6885076
v 0.0211294 -0.0240076 -0.0300000
vn 0.4538518 -0.5156757 -0.7267029
v 0.0211294 -0.0240076 0.0000000
vn 0.3601738 0.5849594 -0.7267030
v -0.0141563 -0.0229913 -0.0300000
vn 0.3601739 0.5849594 0.7267030
v -0.0141563 -0.0229913 0.0100000
vn -0.5235834 -0.5018139 -0.6885080
v -0.0230893 -0.0221293 -0.0300000
vn -0.4959495 -0.4753290 -0.7267025
v -0.0230893 -0.0221293 0.0000000
vn -0.4084847 0.5523074 -0.7267027
v 0.0160551 -0.0217079 -0.0300000
vn -0.4084847 0.5523074 0.7267027
v 0.0160551 -0.0217079 0.0100000
vn 0.4538524 0.5156759 -0.7267025
v -0.0178382 -0.0202681 -0.0300000
vn 0.4538523 0.5156759 0.7267025
v -0.0178382 -0.0202681 0.0100000
vn 0.5642543 -0.4556028 -0.6885079
v 0.0248828 -0.0200914 -0.0300000
vn 0.5344737 -0.4315567 -0.7267026
v 0.0248828 -0.0200914 0.0000000
vn -0.4959493 0.4753290 -0.7267026
v 0.0194928 -0.0186823 -0.0300000
vn -0.4959493 0.4753290 0.7267026
v 0.0194928 -0.0186823 0.0100000
vn -0.6008591 -0.4061103 -0.6885077
v -0.0264970 -0.0179088 -0.0300000
vn -0.5691462 -0.3846761 -0.7267027
v -0.0264970 -0.0179088 0.0000000
vn 0.5344733 0.4315570 -0.7267027
v -0.0210070 -0.0169619 -0.0300000
vn 0.5344732 0.4315571 0.7267028
v -0.0210070 -0.0169619 0.0100000
vn 0.6331350 -0.3536905 -0.6885079
v 0.0279203 -0.0155972 -0.0300000
vn 0.5997190 -0.3350232 -0.7267026
v 0.0279203 -0.0155972 0.0000000
vn -0.5691465 0.3846756 -0.7267029
v 0.0223698 -0.0151193 -0.0300000
vn -0.5691463 0.3846756 0.7267029
v 0.0223698 -0.0151193 0.0100000
vn -0.6608493 -0.2987227 -0.6885078
v -0.0291425 -0.0131732 -0.0300000
vn -0.6259704 -0.2829565 -0.7267027
v -0.0291425 -0.0131732 0.0000000
vn 0.5997190 0.3350232 -0.7267026
v -0.0235714 -0.0131678 -0.0300000
vn 0.5997190 0.3350232 0.7267026
v -0.0235714 -0.0131678 0.0100000
vn -0.6259706 0.2829562 -0.7267025
v 0.0246032 -0.0111213 -0.0300000
vn -0.6259707 0.2829563 0.7267024
v 0.0246032 -0.0111213 0.0100000
vn 0.6838021 -0.2416029 -0.6885077
v 0.0301547 -0.0106543 -0.0300000
vn 0.6477091 -0.2288504 -0.7267051
v 0.0301547 -0.0106543 0.0000000
vn 0.6477116 0.2288510 -0.7267027
v -0.0254577 -0.0089948 -0.0300000
vn 0.6477116 0.2288510 0.7267028
v -0.0254577 -0.0089948 0.0100000
vn -0.7018281 -0.1827416 -0.6885077
v -0.0309496 -0.0080586 -0.0300000
vn -0.6647863 -0.1730966 -0.7267026
v -0.0309496 -0.0080586 0.0000000
vn -0.6647861 0.1730967 -0.7267028
v 0.0261288 -0.0068034 -0.0300000
vn -0.6647861 0.1730968 0.7267028
v 0.0261288 -0.0068034 0.0100000
vn 0.7147973 -0.1225643 -0.6885077
v 0.0315215 -0.0054049 -0.0300000
vn 0.6770676 -0.1160949 -0.7267059
v 0.0315215 -0.0054049 0.0000000
vn 0.6770711 0.1160954 -0.7267026
v -0.0266116 -0.0045630 -0.0300000
vn 0.6770710 0.1160953 0.7267026
v -0.0266116 -0.0045630 0.0100000
vn -0.7168235 -0.0763670 -0.6930601
v -0.0318663 -0.0027122 -0.0300000
vn -0.6850634 -0.0591487 -0.7260783
v -0.0318663 -0.0027122 0.0000000
vn -0.6848576 0.0588232 -0.7262989
v 0.0269027 -0.0022897 -0.0300000
vn -0.6882956 0.0733277 0.7217148
v 0.0269027 -0.0022897 0.0100000
vn -0.7164906 0.0000000 -0.6975967
v -0.0319815 0.0000000 -0.0300000
vn 0.6869521 0.0000000 -0.7267027
v -0.0270000 0.0000000 -0.0300000
vn 0.7252289 -0.0000000 -0.6885079
v 0.0319815 0.0000000 -0.0300000
vn 0.6869523 -0.0000000 -0.7267026
v 0.0319815 0.0000000 0.0000000
vn 0.6869521 -0.0000000 0.7267027
v -0.0270000 0.0000000 0.0100000
vn -0.6972629 0.0000000 0.7168156
v 0.0270000 0.0000000 0.0100000
vn -0.6848576 -0.0588232 -0.7262988
v 0.0269027 0.0022898 -0.0300000
vn -0.6882955 -0.0733277 0.7217149
v 0.0269027 0.0022898 0.0100000
vn -0.7168235 0.0763672 -0.6930600
v -0.0318663 0.0027122 -0.0300000
vn -0.6850634 0.0591489 -0.7260783
v -0.0318663 0.0027122 0.0000000
vn 0.6770712 -0.1160951 -0.7267026
v -0.0266116 0.0045630 -0.0300000
vn 0.6770712 -0.1160951 0.7267025
v -0.0266116 0.0045630 0.0100000
vn 0.7147973 0.1225642 -0.6885077
v 0.0315215 0.0054049 -0.0300000
vn 0.6770710 0.1160954 -0.7267027
v 0.0315215 0.0054049 0.0000000
vn -0.6647862 -0.1730968 -0.7267029
v 0.0261288 0.0068034 -0.0300000
vn -0.6647862 -0.1730968 0.7267028
v 0.0261288 0.0068034 0.0100000
vn -0.7018280 0.1827413 -0.6885079
v -0.0309496 0.0080586 -0.0300000
vn -0.6647865 0.1730965 -0.7267026
v -0.0309496 0.0080586 0.0000000
vn 0.6477112 -0.2288513 -0.7267031
v -0.0254577 0.0089948 -0.0300000
vn 0.6477111 -0.2288513 0.7267032
v -0.0254577 0.0089948 0.0100000
vn 0.6838020 0.2416031 -0.6885076
v 0.0301547 0.0106543 -0.0300000
vn 0.6477114 0.2288515 -0.7267028
v 0.0301547 0.0106543 0.0000000
vn -0.6259707 -0.2829563 -0.7267025
v 0.0246032 0.0111213 -0.0300000
vn -0.6259707 -0.2829563 0.7267025
v 0.0246032 0.0111213 0.0100000
vn 0.5997193 -0.3350235 -0.7267022
v -0.0235714 0.0131678 -0.0300000
vn 0.5997194 -0.3350235 0.7267021
v -0.0235714 0.0131678 0.0100000
vn -0.6608495 0.2987230 -0.6885075
v -0.0291425 0.0131732 -0.0300000
vn -0.6259700 0.2829565 -0.7267030
v -0.0291425 0.0131732 0.0000000
vn -0.5691467 -0.3846754 -0.7267028
v 0.0223698 0.0151193 -0.0300000
vn -0.5691467 -0.3846753 0.7267028
v 0.0223698 0.0151193 0.0100000
vn 0.6331348 0.3536910 -0.6885079
v 0.0279203 0.0155972 -0.0300000
vn 0.5997187 0.3350236 -0.7267026
v 0.0279203 0.0155972 0.0000000
vn 0.5344728 -0.4315569 -0.7267032
v -0.0210070 0.0169620 -0.0300000
vn 0.5344727 -0.4315568 0.7267033
v -0.0210070 0.0169620 0.0100000
vn -0.6008588 0.4061103 -0.6885080
v -0.0264970 0.0179088 -0.0300000
vn -0.5691464 0.3846764 -0.7267025
v -0.0264970 0.0179088 0.0000000
vn -0.4959494 -0.4753287 -0.7267027
v 0.0194928 0.0186824 -0.0300000
vn -0.4959494 -0.4753287 0.7267027
v 0.0194928 0.0186824 0.0100000
vn 0.5642541 0.4556030 -0.6885080
v 0.0248828 0.0200914 -0.0300000
vn 0.5344737 0.4315570 -0.7267025
v 0.0248828 0.0200914 0.0000000
vn 0.4538519 -0.5156766 -0.7267023
v -0.0178382 0.0202681 -0.0300000
vn 0.4538521 -0.5156766 0.7267022
v -0.0178382 0.0202681 0.0100000
vn -0.4084832 -0.5523078 -0.7267032
v 0.0160551 0.0217079 -0.0300000
vn -0.4084832 -0.5523078 0.7267032
v 0.0160551 0.0217079 0.0100000
vn -0.5235833 0.5018145 -0.6885077
v -0.0230893 0.0221293 -0.0300000
vn -0.4959490 0.4753291 -0.7267027
v -0.0230893 0.0221293 0.0000000
vn 0.3601739 -0.5849594 -0.7267030
v -0.0141563 0.0229913 -0.0300000
vn 0.3601738 -0.5849594 0.7267030
v -0.0141563 0.0229913 0.0100000
vn 0.4791407 0.5444094 -0.6885076
v 0.0211294 0.0240077 -0.0300000
vn 0.4538518 0.5156757 -0.7267029
v 0.0211294 0.0240077 0.0000000
vn -0.3092689 -0.6133983 -0.7267017
v 0.0121555 0.0241090 -0.0300000
vn -0.3092689 -0.6133982 0.7267017
v 0.0121555 0.0241090 0.0100000
vn 0.2561339 -0.6374157 -0.7267026
v -0.0100671 0.0250530 -0.0300000
vn 0.2561340 -0.6374157 0.7267026
v -0.0100671 0.0250530 0.0100000
vn -0.4312456 0.5830813 -0.6885082
v -0.0190173 0.0257130 -0.0300000
vn -0.4084854 0.5523075 -0.7267023
v -0.0190173 0.0257130 0.0000000
vn -0.2011549 -0.6568398 -0.7267037
v 0.0079062 0.0258165 -0.0300000
vn -0.2011549 -0.6568398 0.7267036
v 0.0079062 0.0258165 0.0100000
vn 0.1447265 -0.6715338 -0.7267026
v -0.0056883 0.0263940 -0.0300000
vn 0.1447265 -0.6715338 0.7267026
v -0.0056883 0.0263940 0.0100000
vn -0.0872535 -0.6813888 -0.7267023
v 0.0034295 0.0267813 -0.0300000
vn -0.0872535 -0.6813887 0.7267023
v 0.0034295 0.0267813 0.0100000
vn 0.0291555 -0.6863332 -0.7267026
v -0.0011459 0.0269757 -0.0300000
vn 0.0291555 -0.6863332 0.7267026
v -0.0011459 0.0269757 0.0100000
vn 0.3802425 0.6175537 -0.6885079
v 0.0167681 0.0272332 -0.0300000
vn 0.3601739 0.5849600 -0.7267026
v 0.0167681 0.0272332 0.0000000
vn -0.3265023 0.6475750 -0.6885077
v -0.0143982 0.0285571 -0.0300000
vn -0.3092697 0.6133965 -0.7267028
v -0.0143982 0.0285571 0.0000000
vn 0.2704065 0.6729318 -0.6885078
v 0.0119245 0.0296753 -0.0300000
vn 0.2561348 0.6374153 -0.7267026
v 0.0119245 0.0296753 0.0000000
vn -0.2123631 0.6934405 -0.6885072
v -0.0093649 0.0305797 -0.0300000
vn -0.2011545 0.6568404 -0.7267032
v -0.0093649 0.0305797 0.0000000
vn 0.1527908 0.7089514 -0.6885077
v 0.0067378 0.0312637 -0.0300000
vn 0.1447266 0.6715336 -0.7267027
v 0.0067378 0.0312637 0.0000000
vn -0.0921160 0.7193547 -0.6885081
v -0.0040622 0.0317225 -0.0300000
vn -0.0872543 0.6813887 -0.7267022
v -0.0040622 0.0317225 0.0000000
vn 0.0307793 0.7245756 -0.6885077
v 0.0013573 0.0319527 -0.0300000
vn 0.0291548 0.6863332 -0.7267027
v 0.0013573 0.0319527 0.0000000
vn -0.5773413 0.5773413 -0.5773683
v -0.0400000 0.0390000 0.0000000
vn 0.5773115 0.5773107 -0.5774286
v 0.0400000 0.0390000 0.0000000
vn -0.5773763 0.5773757 0.5772989
v -0.0400000 0.0390000 0.0100000
vn 0.5773268 0.5773268 0.5773973
v 0.0400000 0.0390000 0.0100000
# 308 vertices, 0 vertices normals


usemtl material_0
f 91//91 83//83 1//1
f 83//83 73//73 1//1
f 73//73 65//65 1//1
f 305//305 107//107 1//1
f 107//107 99//99 1//1
f 99//99 91//91 1//1
f 13//13 2//2 1//1
f 65//65 57//57 1//1
f 57//57 49//49 1//1
f 49//49 41//41 1//1
f 41//41 33//33 1//1
f 33//33 25//25 1//1
f 25//25 17//17 1//1
f 17//17 9//9 1//1
f 9//9 5//5 1//1
f 5//5 13//13 1//1
f 3//3 307//307 1//1
f 307//307 305//305 1//1
f 2//2 3//3 1//1
f 6//6 14//14 2//2
f 13//13 21//21 2//2
f 21//21 29//29 2//2
f 29//29 37//37 2//2
f 14//14 22//22 2//2
f 22//22 30//30 2//2
f 30//30 38//38 2//2
f 70//70 79//79 2//2
f 62//62 70//70 2//2
f 37//37 18//18 2//2
f 18//18 10//10 2//2
f 10//10 6//6 2//2
f 38//38 46//46 2//2
f 46//46 54//54 2//2
f 54//54 62//62 2//2
f 79//79 88//88 2//2
f 88//88 96//96 2//2
f 96//96 306//306 2//2
f 306//306 4//4 2//2
f 4//4 3//3 2//2
f 19//19 27//27 3//3
f 11//11 19//19 3//3
f 27//27 35//35 3//3
f 35//35 43//43 3//3
f 43//43 51//51 3//3
f 4//4 15//15 3//3
f 15//15 7//7 3//3
f 7//7 11//11 3//3
f 51//51 59//59 3//3
f 59//59 67//67 3//3
f 67//67 75//75 3//3
f 75//75 85//85 3//3
f 85//85 93//93 3//3
f 93//93 307//307 3//3
f 90//90 82//82 4//4
f 98//98 90//90 4//4
f 32//32 24//24 4//4
f 308//308 114//114 4//4
f 114//114 106//106 4//4
f 106//106 98//98 4//4
f 82//82 72//72 4//4
f 72//72 64//64 4//4
f 64//64 56//56 4//4
f 24//24 16//16 4//4
f 16//16 8//8 4//4
f 8//8 12//12 4//4
f 56//56 48//48 4//4
f 48//48 40//40 4//4
f 40//40 32//32 4//4
f 12//12 71//71 4//4
f 71//71 63//63 4//4
f 63//63 55//55 4//4
f 31//31 23//23 4//4
f 23//23 15//15 4//4
f 55//55 47//47 4//4
f 47//47 39//39 4//4
f 39//39 31//31 4//4
f 306//306 308//308 4//4
f 9//9 11//11 5//5
f 11//11 7//7 5//5
f 7//7 13//13 5//5
f 10//10 12//12 6//6
f 12//12 8//8 6//6
f 8//8 14//14 6//6
f 15//15 13//13 7//7
f 16//16 14//14 8//8
f 17//17 19//19 9//9
f 19//19 11//11 9//9
f 18//18 20//20 10//10
f 20//20 12//12 10//10
f 113//113 105//105 12//12
f 105//105 97//97 12//12
f 97//97 89//89 12//12
f 89//89 80//80 12//12
f 80//80 71//71 12//12
f 121//121 113//113 12//12
f 20//20 121//121 12//12
f 15//15 21//21 13//13
f 16//16 22//22 14//14
f 23//23 21//21 15//15
f 24//24 22//22 16//16
f 25//25 27//27 17//17
f 27//27 19//19 17//17
f 37//37 26//26 18//18
f 26//26 28//28 18//18
f 28//28 20//20 18//18
f 28//28 121//121 20//20
f 23//23 29//29 21//21
f 24//24 30//30 22//22
f 31//31 29//29 23//23
f 32//32 30//30 24//24
f 33//33 35//35 25//25
f 35//35 27//27 25//25
f 37//37 34//34 26//26
f 34//34 36//36 26//26
f 36//36 28//28 26//26
f 36//36 121//121 28//28
f 31//31 37//37 29//29
f 32//32 38//38 30//30
f 39//39 37//37 31//31
f 40//40 38//38 32//32
f 41//41 43//43 33//33
f 43//43 35//35 33//33
f 37//37 42//42 34//34
f 42//42 44//44 34//34
f 44//44 36//36 34//34
f 44//44 121//121 36//36
f 58//58 50//50 37//37
f 50//50 42//42 37//37
f 66//66 58//58 37//37
f 45//45 66//66 37//37
f 39//39 45//45 37//37
f 40//40 46//46 38//38
f 47//47 45//45 39//39
f 48//48 46//46 40//40
f 49//49 51//51 41//41
f 51//51 43//43 41//41
f 50//50 52//52 42//42
f 52//52 44//44 42//42
f 52//52 121//121 44//44
f 53//53 66//66 45//45
f 47//47 53//53 45//45
f 48//48 54//54 46//46
f 55//55 53//53 47//47
f 56//56 54//54 48//48
f 57//57 59//59 49//49
f 59//59 51//51 49//49
f 58//58 60//60 50//50
f 60//60 52//52 50//50
f 60//60 121//121 52//52
f 61//61 66//66 53//53
f 55//55 61//61 53//53
f 56//56 62//62 54//54
f 63//63 61//61 55//55
f 64//64 62//62 56//56
f 65//65 67//67 57//57
f 67//67 59//59 57//57
f 66//66 68//68 58//58
f 68//68 60//60 58//58
f 68//68 121//121 60//60
f 69//69 66//66 61//61
f 63//63 69//69 61//61
f 64//64 70//70 62//62
f 71//71 69//69 63//63
f 72//72 70//70 64//64
f 73//73 75//75 65//65
f 75//75 67//67 65//65
f 69//69 74//74 66//66
f 74//74 76//76 66//66
f 76//76 68//68 66//66
f 129//129 121//121 68//68
f 76//76 129//129 68//68
f 77//77 78//78 69//69
f 78//78 74//74 69//69
f 71//71 77//77 69//69
f 72//72 79//79 70//70
f 80//80 77//77 71//71
f 82//82 79//79 72//72
f 83//83 85//85 73//73
f 85//85 75//75 73//73
f 78//78 81//81 74//74
f 81//81 76//76 74//74
f 81//81 129//129 76//76
f 87//87 84//84 77//77
f 84//84 78//78 77//77
f 80//80 87//87 77//77
f 84//84 86//86 78//78
f 86//86 81//81 78//78
f 82//82 88//88 79//79
f 89//89 87//87 80//80
f 137//137 129//129 81//81
f 86//86 137//137 81//81
f 90//90 88//88 82//82
f 91//91 93//93 83//83
f 93//93 85//85 83//83
f 87//87 92//92 84//84
f 92//92 94//94 84//84
f 94//94 86//86 84//84
f 94//94 137//137 86//86
f 108//108 100//100 87//87
f 95//95 108//108 87//87
f 100//100 92//92 87//87
f 89//89 95//95 87//87
f 90//90 96//96 88//88
f 97//97 95//95 89//89
f 98//98 96//96 90//90
f 99//99 101//101 91//91
f 101//101 93//93 91//91
f 100//100 102//102 92//92
f 102//102 94//94 92//92
f 101//101 307//307 93//93
f 102//102 137//137 94//94
f 103//103 108//108 95//95
f 97//97 103//103 95//95
f 104//104 306//306 96//96
f 98//98 104//104 96//96
f 105//105 103//103 97//97
f 106//106 104//104 98//98
f 107//107 109//109 99//99
f 109//109 101//101 99//99
f 108//108 110//110 100//100
f 110//110 102//102 100//100
f 109//109 307//307 101//101
f 110//110 137//137 102//102
f 111//111 108//108 103//103
f 105//105 111//111 103//103
f 112//112 306//306 104//104
f 106//106 112//112 104//104
f 113//113 111//111 105//105
f 114//114 112//112 106//106
f 305//305 115//115 107//107
f 115//115 117//117 107//107
f 117//117 109//109 107//107
f 111//111 119//119 108//108
f 119//119 116//116 108//108
f 116//116 118//118 108//108
f 118//118 110//110 108//108
f 117//117 307//307 109//109
f 118//118 137//137 110//110
f 113//113 119//119 111//111
f 120//120 306//306 112//112
f 114//114 120//120 112//112
f 121//121 119//119 113//113
f 308//308 122//122 114//114
f 122//122 120//120 114//114
f 305//305 123//123 115//115
f 123//123 125//125 115//115
f 125//125 117//117 115//115
f 306//306 124//124 116//116
f 119//119 220//220 116//116
f 220//220 306//306 116//116
f 124//124 126//126 116//116
f 126//126 118//118 116//116
f 125//125 307//307 117//117
f 308//308 137//137 118//118
f 126//126 308//308 118//118
f 127//127 220//220 119//119
f 121//121 127//127 119//119
f 128//128 306//306 120//120
f 122//122 128//128 120//120
f 129//129 127//127 121//121
f 308//308 130//130 122//122
f 130//130 128//128 122//122
f 305//305 131//131 123//123
f 131//131 133//133 123//123
f 133//133 125//125 123//123
f 306//306 132//132 124//124
f 132//132 134//134 124//124
f 134//134 126//126 124//124
f 133//133 307//307 125//125
f 134//134 308//308 126//126
f 135//135 220//220 127//127
f 129//129 135//135 127//127
f 136//136 306//306 128//128
f 130//130 136//136 128//128
f 137//137 135//135 129//129
f 308//308 138//138 130//130
f 138//138 136//136 130//130
f 305//305 139//139 131//131
f 139//139 141//141 131//131
f 141//141 133//133 131//131
f 306//306 140//140 132//132
f 140//140 142//142 132//132
f 142//142 134//134 132//132
f 141//141 307//307 133//133
f 142//142 308//308 134//134
f 212//212 220//220 135//135
f 143//143 212//212 135//135
f 137//137 143//143 135//135
f 144//144 306//306 136//136
f 138//138 144//144 136//136
f 204//204 196//196 137//137
f 196//196 190//190 137//137
f 190//190 182//182 137//137
f 308//308 218//218 137//137
f 218//218 210//210 137//137
f 210//210 204//204 137//137
f 182//182 176//176 137//137
f 176//176 172//172 137//137
f 172//172 170//170 137//137
f 170//170 145//145 137//137
f 145//145 143//143 137//137
f 308//308 146//146 138//138
f 146//146 144//144 138//138
f 305//305 224//224 139//139
f 224//224 216//216 139//139
f 216//216 206//206 139//139
f 206//206 198//198 139//139
f 198//198 188//188 139//139
f 188//188 178//178 139//139
f 178//178 166//166 139//139
f 166//166 162//162 139//139
f 162//162 158//158 139//139
f 158//158 147//147 139//139
f 147//147 149//149 139//139
f 149//149 141//141 139//139
f 306//306 148//148 140//140
f 148//148 150//150 140//140
f 150//150 142//142 140//140
f 149//149 307//307 141//141
f 150//150 308//308 142//142
f 151//151 212//212 143//143
f 145//145 151//151 143//143
f 152//152 306//306 144//144
f 146//146 152//152 144//144
f 170//170 153//153 145//145
f 153//153 151//151 145//145
f 308//308 154//154 146//146
f 154//154 152//152 146//146
f 158//158 151//151 147//147
f 151//151 153//153 147//147
f 153//153 149//149 147//147
f 306//306 152//152 148//148
f 152//152 154//154 148//148
f 154//154 150//150 148//148
f 153//153 307//307 149//149
f 154//154 308//308 150//150
f 156//156 160//160 151//151
f 160//160 164//164 151//151
f 164//164 168//168 151//151
f 168//168 184//184 151//151
f 184//184 194//194 151//151
f 194//194 202//202 151//151
f 202//202 212//212 151//151
f 158//158 156//156 151//151
f 174//174 180//180 153//153
f 180//180 186//186 153//153
f 186//186 192//192 153//153
f 192//192 200//200 153//153
f 200//200 208//208 153//153
f 170//170 174//174 153//153
f 208//208 214//214 153//153
f 214//214 222//222 153//153
f 222//222 307//307 153//153
f 169//169 159//159 155//155
f 173//173 169//169 155//155
f 157//157 173//173 155//155
f 158//158 157//157 155//155
f 156//156 158//158 155//155
f 159//159 156//156 155//155
f 159//159 160//160 156//156
f 161//161 173//173 157//157
f 162//162 161//161 157//157
f 158//158 162//162 157//157
f 171//171 175//175 159//159
f 175//175 163//163 159//159
f 169//169 171//171 159//159
f 163//163 160//160 159//159
f 163//163 164//164 160//160
f 179//179 173//173 161//161
f 185//185 179//179 161//161
f 165//165 185//185 161//161
f 166//166 165//165 161//161
f 162//162 166//166 161//161
f 175//175 167//167 163//163
f 167//167 164//164 163//163
f 167//167 168//168 164//164
f 177//177 185//185 165//165
f 178//178 177//177 165//165
f 166//166 178//178 165//165
f 189//189 183//183 167//167
f 181//181 189//189 167//167
f 175//175 181//181 167//167
f 183//183 168//168 167//167
f 183//183 184//184 168//168
f 173//173 174//174 169//169
f 174//174 170//170 169//169
f 170//170 171//171 169//169
f 172//172 171//171 170//170
f 172//172 175//175 171//171
f 176//176 175//175 172//172
f 179//179 180//180 173//173
f 180//180 174//174 173//173
f 176//176 181//181 175//175
f 182//182 181//181 176//176
f 191//191 185//185 177//177
f 199//199 191//191 177//177
f 187//187 199//199 177//177
f 188//188 187//187 177//177
f 178//178 188//188 177//177
f 185//185 186//186 179//179
f 186//186 180//180 179//179
f 182//182 189//189 181//181
f 190//190 189//189 182//182
f 189//189 193//193 183//183
f 193//193 184//184 183//183
f 193//193 194//194 184//184
f 191//191 192//192 185//185
f 192//192 186//186 185//185
f 197//197 199//199 187//187
f 198//198 197//197 187//187
f 188//188 198//198 187//187
f 190//190 195//195 189//189
f 195//195 193//193 189//189
f 196//196 195//195 190//190
f 199//199 200//200 191//191
f 200//200 192//192 191//191
f 195//195 201//201 193//193
f 201//201 194//194 193//193
f 201//201 202//202 194//194
f 196//196 203//203 195//195
f 203//203 201//201 195//195
f 204//204 203//203 196//196
f 205//205 207//207 197//197
f 207//207 199//199 197//197
f 206//206 205//205 197//197
f 198//198 206//206 197//197
f 207//207 208//208 199//199
f 208//208 200//200 199//199
f 203//203 211//211 201//201
f 211//211 202//202 201//201
f 211//211 212//212 202//202
f 204//204 209//209 203//203
f 209//209 211//211 203//203
f 210//210 209//209 204//204
f 215//215 221//221 205//205
f 221//221 213//213 205//205
f 213//213 207//207 205//205
f 216//216 215//215 205//205
f 206//206 216//216 205//205
f 213//213 214//214 207//207
f 214//214 208//208 207//207
f 210//210 217//217 209//209
f 219//219 211//211 209//209
f 217//217 219//219 209//209
f 218//218 217//217 210//210
f 219//219 212//212 211//211
f 219//219 220//220 212//212
f 221//221 222//222 213//213
f 222//222 214//214 213//213
f 228//228 221//221 215//215
f 223//223 228//228 215//215
f 224//224 223//223 215//215
f 216//216 224//224 215//215
f 218//218 225//225 217//217
f 229//229 219//219 217//217
f 225//225 229//229 217//217
f 308//308 226//226 218//218
f 226//226 225//225 218//218
f 229//229 220//220 219//219
f 230//230 306//306 220//220
f 229//229 230//230 220//220
f 228//228 231//231 221//221
f 231//231 222//222 221//221
f 231//231 307//307 222//222
f 227//227 228//228 223//223
f 224//224 227//227 223//223
f 305//305 236//236 224//224
f 236//236 227//227 224//224
f 226//226 232//232 225//225
f 232//232 233//233 225//225
f 233//233 229//229 225//225
f 308//308 232//232 226//226
f 237//237 228//228 227//227
f 235//235 237//237 227//227
f 236//236 235//235 227//227
f 237//237 238//238 228//228
f 238//238 231//231 228//228
f 233//233 239//239 229//229
f 239//239 230//230 229//229
f 240//240 306//306 230//230
f 239//239 240//240 230//230
f 238//238 307//307 231//231
f 308//308 234//234 232//232
f 234//234 233//233 232//232
f 234//234 241//241 233//233
f 241//241 239//239 233//233
f 308//308 242//242 234//234
f 242//242 241//241 234//234
f 245//245 237//237 235//235
f 243//243 245//245 235//235
f 244//244 243//243 235//235
f 236//236 244//244 235//235
f 305//305 244//244 236//236
f 245//245 246//246 237//237
f 246//246 238//238 237//237
f 246//246 307//307 238//238
f 241//241 247//247 239//239
f 247//247 240//240 239//239
f 248//248 306//306 240//240
f 247//247 248//248 240//240
f 242//242 249//249 241//241
f 249//249 247//247 241//241
f 308//308 250//250 242//242
f 250//250 249//249 242//242
f 253//253 245//245 243//243
f 254//254 253//253 243//243
f 244//244 254//254 243//243
f 305//305 254//254 244//244
f 251//251 252//252 245//245
f 252//252 246//246 245//245
f 253//253 251//251 245//245
f 252//252 307//307 246//246
f 249//249 257//257 247//247
f 257//257 248//248 247//247
f 258//258 306//306 248//248
f 257//257 258//258 248//248
f 250//250 255//255 249//249
f 255//255 265//265 249//249
f 265//265 257//257 249//249
f 308//308 256//256 250//250
f 256//256 255//255 250//250
f 259//259 260//260 251//251
f 260//260 252//252 251//251
f 261//261 259//259 251//251
f 253//253 261//261 251//251
f 260//260 307//307 252//252
f 262//262 261//261 253//253
f 254//254 262//262 253//253
f 305//305 262//262 254//254
f 256//256 263//263 255//255
f 275//275 265//265 255//255
f 263//263 275//275 255//255
f 308//308 264//264 256//256
f 264//264 263//263 256//256
f 265//265 258//258 257//257
f 266//266 306//306 258//258
f 265//265 266//266 258//258
f 267//267 268//268 259//259
f 268//268 260//260 259//259
f 261//261 267//267 259//259
f 268//268 307//307 260//260
f 271//271 267//267 261//261
f 272//272 271//271 261//261
f 262//262 272//272 261//261
f 305//305 272//272 262//262
f 264//264 269//269 263//263
f 269//269 275//275 263//263
f 308//308 270//270 264//264
f 270//270 269//269 264//264
f 275//275 266//266 265//265
f 276//276 306//306 266//266
f 275//275 276//276 266//266
f 273//273 274//274 267//267
f 274//274 268//268 267//267
f 271//271 273//273 267//267
f 274//274 307//307 268//268
f 270//270 277//277 269//269
f 291//291 275//275 269//269
f 277//277 291//291 269//269
f 308//308 278//278 270//270
f 278//278 277//277 270//270
f 281//281 273//273 271//271
f 282//282 281//281 271//271
f 272//272 282//282 271//271
f 305//305 282//282 272//272
f 279//279 280//280 273//273
f 280//280 274//274 273//273
f 281//281 279//279 273//273
f 280//280 307//307 274//274
f 291//291 276//276 275//275
f 292//292 306//306 276//276
f 291//291 292//292 276//276
f 278//278 283//283 277//277
f 295//295 291//291 277//277
f 283//283 295//295 277//277
f 308//308 284//284 278//278
f 284//284 283//283 278//278
f 285//285 286//286 279//279
f 286//286 280//280 279//279
f 293//293 285//285 279//279
f 281//281 293//293 279//279
f 286//286 307//307 280//280
f 294//294 293//293 281//281
f 282//282 294//294 281//281
f 305//305 294//294 282//282
f 284//284 287//287 283//283
f 287//287 303//303 283//283
f 299//299 295//295 283//283
f 303//303 299//299 283//283
f 308//308 288//288 284//284
f 288//288 287//287 284//284
f 289//289 290//290 285//285
f 290//290 286//286 285//285
f 297//297 301//301 285//285
f 301//301 289//289 285//285
f 293//293 297//297 285//285
f 290//290 307//307 286//286
f 288//288 289//289 287//287
f 301//301 303//303 287//287
f 289//289 301//301 287//287
f 308//308 290//290 288//288
f 290//290 289//289 288//288
f 308//308 307//307 290//290
f 295//295 292//292 291//291
f 296//296 306//306 292//292
f 295//295 296//296 292//292
f 298//298 297//297 293//293
f 294//294 298//298 293//293
f 305//305 298//298 294//294
f 299//299 296//296 295//295
f 300//300 306//306 296//296
f 299//299 300//300 296//296
f 302//302 301//301 297//297
f 298//298 302//302 297//297
f 305//305 302//302 298//298
f 303//303 300//300 299//299
f 304//304 306//306 300//300
f 303//303 304//304 300//300
f 304//304 303//303 301//301
f 302//302 304//304 301//301
f 305//305 304//304 302//302
f 305//305 306//306 304//304
f 307//307 308//308 305//305
f 308//308 306//306 305//305
# 624 faces, 0 coords texture

# End of File
