# https://github.com/mikedh/trimesh

o geometry_0
v 0.01050000 0.01818650 0.01500000 0.54509804 0.71372549 0.60000000
v 0.02100000 0.00000000 0.01500000 0.54509804 0.71372549 0.60000000
v 0.01050000 0.01818650 0.00000046 0.54509804 0.71372549 0.60000000
v -0.01050000 0.01818650 0.01500000 0.54509804 0.71372549 0.60000000
v 0.02100000 0.00000000 0.00000046 0.54509804 0.71372549 0.60000000
v 0.01050000 -0.01818650 0.01500000 0.54509804 0.71372549 0.60000000
v 0.01091112 0.00609184 -0.00001865 0.54509804 0.71372549 0.60000000
v 0.00972709 0.00784711 -0.00001865 0.54509804 0.71372549 0.60000000
v 0.00825940 0.00937808 -0.00001865 0.54509804 0.71372549 0.60000000
v 0.00655325 0.01063846 -0.00001865 0.54509804 0.71372549 0.60000000
v 0.00466210 0.01159621 -0.00001865 0.54509804 0.71372549 0.60000000
v 0.00263117 0.01221572 -0.00001865 0.54509804 0.71372549 0.60000000
v 0.00053034 0.01248631 -0.00001865 0.54509804 0.71372549 0.60000000
v -0.01050000 0.01818650 0.00000046 0.54509804 0.71372549 0.60000000
v -0.02100000 0.00000000 0.01500000 0.54509804 0.71372549 0.60000000
v 0.01231715 -0.00211487 -0.00001865 0.54509804 0.71372549 0.60000000
v 0.01249804 -0.00000356 -0.00001865 0.54509804 0.71372549 0.60000000
v 0.01231715 0.00210775 -0.00001865 0.54509804 0.71372549 0.60000000
v 0.01178681 0.00415854 -0.00001865 0.54509804 0.71372549 0.60000000
v 0.01050000 -0.01818650 0.00000046 0.54509804 0.71372549 0.60000000
v 0.01091112 -0.00609540 -0.00001865 0.54509804 0.71372549 0.60000000
v 0.01178269 -0.00416566 -0.00001865 0.54509804 0.71372549 0.60000000
v -0.01050000 -0.01818650 0.01500000 0.54509804 0.71372549 0.60000000
v -0.00158692 0.01239730 -0.00001865 0.54509804 0.71372549 0.60000000
v -0.00365897 0.01194869 -0.00001865 0.54509804 0.71372549 0.60000000
v -0.00562412 0.01115828 -0.00001865 0.54509804 0.71372549 0.60000000
v -0.00743305 0.01004744 -0.00001865 0.54509804 0.71372549 0.60000000
v -0.00902408 0.00864820 -0.00001865 0.54509804 0.71372549 0.60000000
v -0.01035611 0.00699618 -0.00001865 0.54509804 0.71372549 0.60000000
v -0.02100000 0.00000000 0.00000046 0.54509804 0.71372549 0.60000000
v 0.00263117 -0.01221928 -0.00001865 0.54509804 0.71372549 0.60000000
v 0.00464977 -0.01159977 -0.00001865 0.54509804 0.71372549 0.60000000
v 0.00465799 -0.01159621 -0.00001865 0.54509804 0.71372549 0.60000000
v 0.00655325 -0.01064202 -0.00001865 0.54509804 0.71372549 0.60000000
v 0.00825117 -0.00938520 -0.00001865 0.54509804 0.71372549 0.60000000
v 0.00972709 -0.00784711 -0.00001865 0.54509804 0.71372549 0.60000000
v -0.01050000 -0.01818650 0.00000046 0.54509804 0.71372549 0.60000000
v 0.00053034 -0.01248631 -0.00001865 0.54509804 0.71372549 0.60000000
v -0.01138802 0.00514833 -0.00001865 0.54509804 0.71372549 0.60000000
v -0.01209514 0.00314739 -0.00001865 0.54509804 0.71372549 0.60000000
v -0.01245282 0.00105744 -0.00001865 0.54509804 0.71372549 0.60000000
v -0.01245282 -0.00105744 -0.00001865 0.54509804 0.71372549 0.60000000
v -0.01209514 -0.00315095 -0.00001865 0.54509804 0.71372549 0.60000000
v -0.01138802 -0.00514833 -0.00001865 0.54509804 0.71372549 0.60000000
v -0.01035200 -0.00699974 -0.00001865 0.54509804 0.71372549 0.60000000
v -0.00901997 -0.00864820 -0.00001865 0.54509804 0.71372549 0.60000000
v -0.00744949 -0.01003319 -0.00001865 0.54509804 0.71372549 0.60000000
v -0.00742071 -0.01005456 -0.00001865 0.54509804 0.71372549 0.60000000
v -0.00562412 -0.01115828 -0.00001865 0.54509804 0.71372549 0.60000000
v -0.00365486 -0.01195225 -0.00001865 0.54509804 0.71372549 0.60000000
v -0.00159103 -0.01239730 -0.00001865 0.54509804 0.71372549 0.60000000
v 0.00052212 -0.01248631 -0.00001865 0.54509804 0.71372549 0.60000000
f 1 2 5
f 1 5 3
f 1 3 14
f 1 14 4
f 1 4 15
f 1 15 23
f 1 23 6
f 1 6 2
f 2 6 20
f 2 20 5
f 3 5 7
f 3 7 8
f 3 8 9
f 3 9 10
f 3 10 11
f 3 11 12
f 3 12 13
f 3 13 14
f 4 14 30
f 4 30 15
f 5 16 17
f 5 17 18
f 5 18 19
f 5 19 7
f 5 20 21
f 5 21 22
f 5 22 16
f 6 23 37
f 6 37 20
f 7 19 18
f 7 18 17
f 7 17 16
f 7 16 22
f 7 22 21
f 7 21 36
f 7 36 35
f 7 35 34
f 7 34 33
f 7 33 32
f 7 32 31
f 7 31 38
f 7 38 52
f 7 52 51
f 7 51 50
f 7 50 49
f 7 49 48
f 7 48 47
f 7 47 46
f 7 46 45
f 7 45 44
f 7 44 43
f 7 43 42
f 7 42 41
f 7 41 40
f 7 40 39
f 7 39 29
f 7 29 28
f 7 28 27
f 7 27 26
f 7 26 25
f 7 25 24
f 7 24 13
f 7 13 12
f 7 12 11
f 7 11 10
f 7 10 9
f 7 9 8
f 13 24 14
f 14 24 25
f 14 25 26
f 14 26 27
f 14 27 28
f 14 28 29
f 14 29 30
f 15 30 37
f 15 37 23
f 20 31 32
f 20 32 33
f 20 33 34
f 20 34 35
f 20 35 36
f 20 36 21
f 20 37 52
f 20 52 38
f 20 38 31
f 29 39 30
f 30 39 40
f 30 40 41
f 30 41 42
f 30 42 43
f 30 43 44
f 30 44 45
f 30 45 37
f 37 45 46
f 37 46 47
f 37 47 48
f 37 48 49
f 37 49 50
f 37 50 51
f 37 51 52

o geometry_1
v 0.01250000 0.00000150 -0.00864077 0.54117647 0.42352941 0.64313725
v 0.01249511 0.00029022 -0.00871906 0.54117647 0.42352941 0.64313725
v 0.01249755 -0.00000339 -0.00001865 0.54117647 0.42352941 0.64313725
v 0.01245350 -0.00106774 -0.04638823 0.54117647 0.42352941 0.64313725
v 0.01246819 -0.00087444 -0.06542344 0.54117647 0.42352941 0.64313725
v 0.01248042 -0.00068115 -0.08446844 0.54117647 0.42352941 0.64313725
v 0.01250000 0.00000150 -0.10000000 0.54117647 0.42352941 0.64313725
v 0.01233360 0.00202987 -0.00913989 0.54117647 0.42352941 0.64313725
v 0.01231891 0.00210817 -0.00001865 0.54117647 0.42352941 0.64313725
v 0.01249511 0.00029022 -0.01671483 0.54117647 0.42352941 0.64313725
v 0.01249021 0.00048596 -0.02776406 0.54117647 0.42352941 0.64313725
v 0.01231891 -0.00211496 -0.00001865 0.54117647 0.42352941 0.64313725
v 0.01241435 -0.00145433 -0.00828844 0.54117647 0.42352941 0.64313725
v 0.01243393 -0.00126103 -0.02733344 0.54117647 0.42352941 0.64313725
v 0.01245350 -0.00106774 -0.05437421 0.54117647 0.42352941 0.64313725
v 0.01246819 -0.00087444 -0.07341921 0.54117647 0.42352941 0.64313725
v 0.01248042 -0.00068115 -0.09246421 0.54117647 0.42352941 0.64313725
v 0.01231891 -0.00211006 -0.10000000 0.54117647 0.42352941 0.64313725
v 0.01231891 0.00211062 -0.10000000 0.54117647 0.42352941 0.64313725
v 0.01245350 0.00106829 -0.09289483 0.54117647 0.42352941 0.64313725
v 0.01246819 0.00087500 -0.07384983 0.54117647 0.42352941 0.64313725
v 0.01248042 0.00067926 -0.05479504 0.54117647 0.42352941 0.64313725
v 0.01249021 0.00048596 -0.03575983 0.54117647 0.42352941 0.64313725
v 0.01231891 0.00211062 -0.00915946 0.54117647 0.42352941 0.64313725
v 0.01248042 0.00067926 -0.04680906 0.54117647 0.42352941 0.64313725
v 0.01246819 0.00087500 -0.06584427 0.54117647 0.42352941 0.64313725
v 0.01245350 0.00106829 -0.08488927 0.54117647 0.42352941 0.64313725
v 0.01233360 0.00202987 -0.01713566 0.54117647 0.42352941 0.64313725
v 0.01229934 0.00222072 -0.02818489 0.54117647 0.42352941 0.64313725
v 0.01178545 0.00415856 -0.00001865 0.54117647 0.42352941 0.64313725
v 0.01226263 0.00241157 -0.04722989 0.54117647 0.42352941 0.64313725
v 0.01222348 0.00260242 -0.06626510 0.54117647 0.42352941 0.64313725
v 0.01192738 0.00373038 -0.00956072 0.54117647 0.42352941 0.64313725
v 0.01241435 -0.00145433 -0.01629400 0.54117647 0.42352941 0.64313725
v 0.01178300 -0.00416535 -0.00001865 0.54117647 0.42352941 0.64313725
v 0.01208889 -0.00316951 -0.00786761 0.54117647 0.42352941 0.64313725
v 0.01213783 -0.00298111 -0.02691261 0.54117647 0.42352941 0.64313725
v 0.01218188 -0.00279271 -0.04596740 0.54117647 0.42352941 0.64313725
v 0.01222348 -0.00260186 -0.06500261 0.54117647 0.42352941 0.64313725
v 0.01226263 -0.00241346 -0.08404761 0.54117647 0.42352941 0.64313725
v 0.01226263 -0.00241346 -0.09204338 0.54117647 0.42352941 0.64313725
v 0.01243393 -0.00126103 -0.03533900 0.54117647 0.42352941 0.64313725
v 0.01178545 -0.00416290 -0.10000000 0.54117647 0.42352941 0.64313725
v 0.01178545 0.00416346 -0.10000000 0.54117647 0.42352941 0.64313725
v 0.01218188 0.00279326 -0.09331566 0.54117647 0.42352941 0.64313725
v 0.01222348 0.00260242 -0.07427066 0.54117647 0.42352941 0.64313725
v 0.01226263 0.00241157 -0.05522566 0.54117647 0.42352941 0.64313725
v 0.01229934 0.00222072 -0.03618066 0.54117647 0.42352941 0.64313725
v 0.01178300 0.00416590 -0.00001865 0.54117647 0.42352941 0.64313725
v 0.01178545 0.00416346 -0.00966838 0.54117647 0.42352941 0.64313725
v 0.01218188 0.00279326 -0.08531989 0.54117647 0.42352941 0.64313725
v 0.01192738 0.00373038 -0.01755649 0.54117647 0.42352941 0.64313725
v 0.01186865 0.00391633 -0.02860572 0.54117647 0.42352941 0.64313725
v 0.01091183 -0.00609585 -0.00001865 0.54117647 0.42352941 0.64313725
v 0.01152850 -0.00482842 -0.00744678 0.54117647 0.42352941 0.64313725
v 0.01178545 -0.00416290 -0.00761316 0.54117647 0.42352941 0.64313725
v 0.01180747 -0.00410173 -0.08362678 0.54117647 0.42352941 0.64313725
v 0.01208889 -0.00316951 -0.01587317 0.54117647 0.42352941 0.64313725
v 0.01213783 -0.00298111 -0.03491817 0.54117647 0.42352941 0.64313725
v 0.01218188 -0.00279271 -0.05395338 0.54117647 0.42352941 0.64313725
v 0.01222348 -0.00260186 -0.07299838 0.54117647 0.42352941 0.64313725
v 0.01180747 -0.00410173 -0.09162255 0.54117647 0.42352941 0.64313725
v 0.01111983 -0.00570926 -0.09120172 0.54117647 0.42352941 0.64313725
v 0.01091183 -0.00609585 -0.10000000 0.54117647 0.42352941 0.64313725
v 0.01174140 -0.00428524 -0.07257755 0.54117647 0.42352941 0.64313725
v 0.01167288 -0.00446630 -0.05353255 0.54117647 0.42352941 0.64313725
v 0.01091183 0.00609396 -0.10000000 0.54117647 0.42352941 0.64313725
v 0.01167288 0.00446686 -0.09373649 0.54117647 0.42352941 0.64313725
v 0.01174140 0.00428579 -0.07469149 0.54117647 0.42352941 0.64313725
v 0.01180747 0.00410229 -0.05564649 0.54117647 0.42352941 0.64313725
v 0.01186865 0.00391633 -0.03661127 0.54117647 0.42352941 0.64313725
v 0.01091183 0.00609396 -0.00001865 0.54117647 0.42352941 0.64313725
v 0.01167288 0.00446686 -0.08574072 0.54117647 0.42352941 0.64313725
v 0.01129113 0.00535993 -0.00998155 0.54117647 0.42352941 0.64313725
v 0.01180747 0.00410229 -0.04765072 0.54117647 0.42352941 0.64313725
v 0.01174140 0.00428579 -0.06669572 0.54117647 0.42352941 0.64313725
v 0.00972743 -0.00784774 -0.00001865 0.54117647 0.42352941 0.64313725
v 0.01074298 -0.00638702 -0.00702595 0.54117647 0.42352941 0.64313725
v 0.01102929 -0.00588053 -0.06415117 0.54117647 0.42352941 0.64313725
v 0.01111983 -0.00570926 -0.08319616 0.54117647 0.42352941 0.64313725
v 0.01152850 -0.00482842 -0.01544255 0.54117647 0.42352941 0.64313725
v 0.01160191 -0.00464736 -0.02649178 0.54117647 0.42352941 0.64313725
v 0.01167288 -0.00446630 -0.04553678 0.54117647 0.42352941 0.64313725
v 0.01174140 -0.00428524 -0.06457200 0.54117647 0.42352941 0.64313725
v 0.01102929 -0.00588053 -0.07215672 0.54117647 0.42352941 0.64313725
v 0.01160191 -0.00464736 -0.03448755 0.54117647 0.42352941 0.64313725
v 0.01021441 -0.00720424 -0.09078089 0.54117647 0.42352941 0.64313725
v 0.00972499 -0.00785263 -0.10000000 0.54117647 0.42352941 0.64313725
v 0.01074298 -0.00638702 -0.01502172 0.54117647 0.42352941 0.64313725
v 0.01093630 0.00604992 -0.09415732 0.54117647 0.42352941 0.64313725
v 0.01102929 0.00587864 -0.07511232 0.54117647 0.42352941 0.64313725
v 0.00972499 0.00785074 -0.10000000 0.54117647 0.42352941 0.64313725
v 0.00998438 0.00751798 -0.09458793 0.54117647 0.42352941 0.64313725
v 0.01009939 0.00736138 -0.07554293 0.54117647 0.42352941 0.64313725
v 0.01021441 0.00720479 -0.05648815 0.54117647 0.42352941 0.64313725
v 0.01032453 0.00704330 -0.03745293 0.54117647 0.42352941 0.64313725
v 0.01043220 0.00688182 -0.01840793 0.54117647 0.42352941 0.64313725
v 0.01111983 0.00570737 -0.05606732 0.54117647 0.42352941 0.64313725
v 0.01120548 0.00553609 -0.03703210 0.54117647 0.42352941 0.64313725
v 0.01129113 0.00535993 -0.01798710 0.54117647 0.42352941 0.64313725
v 0.01043220 0.00688182 -0.01040238 0.54117647 0.42352941 0.64313725
v 0.00972743 0.00784829 -0.00001865 0.54117647 0.42352941 0.64313725
v 0.01120548 0.00553609 -0.02903634 0.54117647 0.42352941 0.64313725
v 0.01111983 0.00570737 -0.04808134 0.54117647 0.42352941 0.64313725
v 0.01102929 0.00587864 -0.06711655 0.54117647 0.42352941 0.64313725
v 0.01093630 0.00604992 -0.08616155 0.54117647 0.42352941 0.64313725
v 0.00825428 -0.00938431 -0.00001865 0.54117647 0.42352941 0.64313725
v 0.00856016 -0.00910782 -0.00617451 0.54117647 0.42352941 0.64313725
v 0.00869965 -0.00897325 -0.02521951 0.54117647 0.42352941 0.64313725
v 0.00883669 -0.00883868 -0.04426451 0.54117647 0.42352941 0.64313725
v 0.00897372 -0.00869921 -0.06330951 0.54117647 0.42352941 0.64313725
v 0.00910832 -0.00855975 -0.08235451 0.54117647 0.42352941 0.64313725
v 0.00972499 -0.00785263 -0.02559140 0.54117647 0.42352941 0.64313725
v 0.00986447 -0.00767402 -0.02564034 0.54117647 0.42352941 0.64313725
v 0.00998438 -0.00751742 -0.04469512 0.54117647 0.42352941 0.64313725
v 0.01009939 -0.00736083 -0.06373034 0.54117647 0.42352941 0.64313725
v 0.01021441 -0.00720424 -0.08277534 0.54117647 0.42352941 0.64313725
v 0.00998438 -0.00751742 -0.05268110 0.54117647 0.42352941 0.64313725
v 0.00910832 -0.00855975 -0.09035027 0.54117647 0.42352941 0.64313725
v 0.00825672 -0.00938186 -0.10000000 0.54117647 0.42352941 0.64313725
v 0.00986447 -0.00767402 -0.03364589 0.54117647 0.42352941 0.64313725
v 0.00825672 0.00938242 -0.10000000 0.54117647 0.42352941 0.64313725
v 0.00883669 0.00883679 -0.09500876 0.54117647 0.42352941 0.64313725
v 0.00897372 0.00869977 -0.07596376 0.54117647 0.42352941 0.64313725
v 0.00910832 0.00856030 -0.05691876 0.54117647 0.42352941 0.64313725
v 0.00924046 0.00841594 -0.03788355 0.54117647 0.42352941 0.64313725
v 0.00937016 0.00827158 -0.01882876 0.54117647 0.42352941 0.64313725
v 0.00998438 0.00751798 -0.08658238 0.54117647 0.42352941 0.64313725
v 0.01021441 0.00720479 -0.04850217 0.54117647 0.42352941 0.64313725
v 0.01032453 0.00704330 -0.02945717 0.54117647 0.42352941 0.64313725
v 0.00937016 0.00827158 -0.01083299 0.54117647 0.42352941 0.64313725
v 0.00825917 0.00937997 -0.00001865 0.54117647 0.42352941 0.64313725
v 0.01009939 0.00736138 -0.06753738 0.54117647 0.42352941 0.64313725
v 0.00856016 -0.00910782 -0.01418006 0.54117647 0.42352941 0.64313725
v 0.00655354 -0.01064195 -0.00001865 0.54117647 0.42352941 0.64313725
v 0.00720447 -0.01021376 -0.00575368 0.54117647 0.42352941 0.64313725
v 0.00736108 -0.01010121 -0.02479868 0.54117647 0.42352941 0.64313725
v 0.00751770 -0.00998377 -0.04384368 0.54117647 0.42352941 0.64313725
v 0.00767187 -0.00986632 -0.06287889 0.54117647 0.42352941 0.64313725
v 0.00782603 -0.00974398 -0.08193368 0.54117647 0.42352941 0.64313725
v 0.00782603 -0.00974398 -0.08992945 0.54117647 0.42352941 0.64313725
v 0.00869965 -0.00897325 -0.03322506 0.54117647 0.42352941 0.64313725
v 0.00883669 -0.00883868 -0.05226027 0.54117647 0.42352941 0.64313725
v 0.00897372 -0.00869921 -0.07130527 0.54117647 0.42352941 0.64313725
v 0.00655354 -0.01064195 -0.10000000 0.54117647 0.42352941 0.64313725
v 0.00655354 0.01064250 -0.10000000 0.54117647 0.42352941 0.64313725
v 0.00767187 0.00986688 -0.07638459 0.54117647 0.42352941 0.64313725
v 0.00782603 0.00974454 -0.05733959 0.54117647 0.42352941 0.64313725
v 0.00797775 0.00962220 -0.03830438 0.54117647 0.42352941 0.64313725
v 0.00812458 0.00949741 -0.01924959 0.54117647 0.42352941 0.64313725
v 0.00825672 0.00938242 -0.01121468 0.54117647 0.42352941 0.64313725
v 0.00883669 0.00883679 -0.08701300 0.54117647 0.42352941 0.64313725
v 0.00897372 0.00869977 -0.06795821 0.54117647 0.42352941 0.64313725
v 0.00910832 0.00856030 -0.04892300 0.54117647 0.42352941 0.64313725
v 0.00924046 0.00841594 -0.02987800 0.54117647 0.42352941 0.64313725
v 0.00655599 0.01064006 -0.00001865 0.54117647 0.42352941 0.64313725
v 0.00812458 0.00949741 -0.01125383 0.54117647 0.42352941 0.64313725
v 0.00671750 0.01053974 -0.01167466 0.54117647 0.42352941 0.64313725
v 0.00654620 -0.01064684 -0.00001865 0.54117647 0.42352941 0.64313725
v 0.00720447 -0.01021376 -0.01374944 0.54117647 0.42352941 0.64313725
v 0.00736108 -0.01010121 -0.03279444 0.54117647 0.42352941 0.64313725
v 0.00751770 -0.00998377 -0.05183945 0.54117647 0.42352941 0.64313725
v 0.00767187 -0.00986632 -0.07088444 0.54117647 0.42352941 0.64313725
v 0.00638714 -0.01074227 -0.08950861 0.54117647 0.42352941 0.64313725
v 0.00465948 -0.01159619 -0.10000000 0.54117647 0.42352941 0.64313725
v 0.00465948 0.01159674 -0.10000000 0.54117647 0.42352941 0.64313725
v 0.00621829 0.01084069 -0.07680542 0.54117647 0.42352941 0.64313725
v 0.00638714 0.01074282 -0.05776042 0.54117647 0.42352941 0.64313725
v 0.00655354 0.01064250 -0.01172359 0.54117647 0.42352941 0.64313725
v 0.00671750 0.01053974 -0.01968021 0.54117647 0.42352941 0.64313725
v 0.00767187 0.00986688 -0.06838882 0.54117647 0.42352941 0.64313725
v 0.00782603 0.00974454 -0.04934383 0.54117647 0.42352941 0.64313725
v 0.00797775 0.00962220 -0.03029883 0.54117647 0.42352941 0.64313725
v 0.00466193 0.01159674 -0.00001865 0.54117647 0.42352941 0.64313725
v 0.00638714 0.01074282 -0.04977444 0.54117647 0.42352941 0.64313725
v 0.00621829 0.01084069 -0.06880966 0.54117647 0.42352941 0.64313725
v 0.00518561 0.01137164 -0.01209549 0.54117647 0.42352941 0.64313725
v 0.00465704 -0.01159864 -0.00001865 0.54117647 0.42352941 0.64313725
v 0.00570929 -0.01111907 -0.00533285 0.54117647 0.42352941 0.64313725
v 0.00588059 -0.01102854 -0.02437785 0.54117647 0.42352941 0.64313725
v 0.00604944 -0.01093556 -0.04342285 0.54117647 0.42352941 0.64313725
v 0.00621829 -0.01084014 -0.06245806 0.54117647 0.42352941 0.64313725
v 0.00638714 -0.01074227 -0.08150306 0.54117647 0.42352941 0.64313725
v 0.00482833 -0.01152768 -0.08908778 0.54117647 0.42352941 0.64313725
v 0.00621829 -0.01084014 -0.07045383 0.54117647 0.42352941 0.64313725
v 0.00316920 -0.01209044 -0.08865717 0.54117647 0.42352941 0.64313725
v 0.00263328 -0.01221767 -0.10000000 0.54117647 0.42352941 0.64313725
v 0.00465948 -0.01159864 -0.03205065 0.54117647 0.42352941 0.64313725
v 0.00464969 -0.01160108 -0.07003300 0.54117647 0.42352941 0.64313725
v 0.00446616 -0.01167204 -0.05098800 0.54117647 0.42352941 0.64313725
v 0.00428508 -0.01174055 -0.03195278 0.54117647 0.42352941 0.64313725
v 0.00263328 0.01221822 -0.10000000 0.54117647 0.42352941 0.64313725
v 0.00298077 0.01213748 -0.07765687 0.54117647 0.42352941 0.64313725
v 0.00316920 0.01209099 -0.05861187 0.54117647 0.42352941 0.64313725
v 0.00335762 0.01203961 -0.03956687 0.54117647 0.42352941 0.64313725
v 0.00354605 0.01198578 -0.02052187 0.54117647 0.42352941 0.64313725
v 0.00464969 0.01160164 -0.07722625 0.54117647 0.42352941 0.64313725
v 0.00482833 0.01152823 -0.05818125 0.54117647 0.42352941 0.64313725
v 0.00500697 0.01145238 -0.03914604 0.54117647 0.42352941 0.64313725
v 0.00518561 0.01137164 -0.02010104 0.54117647 0.42352941 0.64313725
v 0.00354605 0.01198578 -0.01252610 0.54117647 0.42352941 0.64313725
v 0.00263328 0.01221822 -0.00001865 0.54117647 0.42352941 0.64313725
v 0.00500697 0.01145238 -0.03115027 0.54117647 0.42352941 0.64313725
v 0.00482833 0.01152823 -0.05018549 0.54117647 0.42352941 0.64313725
v 0.00464969 0.01160164 -0.06923048 0.54117647 0.42352941 0.64313725
v 0.00465214 -0.01160108 -0.00001865 0.54117647 0.42352941 0.64313725
v 0.00465948 -0.01159864 -0.00504903 0.54117647 0.42352941 0.64313725
v 0.00482833 -0.01152768 -0.08108223 0.54117647 0.42352941 0.64313725
v 0.00570929 -0.01111907 -0.01332861 0.54117647 0.42352941 0.64313725
v 0.00588059 -0.01102854 -0.03237362 0.54117647 0.42352941 0.64313725
v 0.00604944 -0.01093556 -0.05140883 0.54117647 0.42352941 0.64313725
v 0.00316920 -0.01209044 -0.08066140 0.54117647 0.42352941 0.64313725
v 0.00279234 -0.01218341 -0.05056717 0.54117647 0.42352941 0.64313725
v 0.00410154 -0.01180661 -0.01290779 0.54117647 0.42352941 0.64313725
v 0.00145378 -0.01241341 -0.08823634 0.54117647 0.42352941 0.64313725
v 0.00052877 -0.01248681 -0.10000000 0.54117647 0.42352941 0.64313725
v 0.00260147 -0.01222501 -0.03153196 0.54117647 0.42352941 0.64313725
v 0.00241304 -0.01226416 -0.01247717 0.54117647 0.42352941 0.64313725
v 0.00446616 -0.01167204 -0.04300202 0.54117647 0.42352941 0.64313725
v 0.00428508 -0.01174055 -0.02395702 0.54117647 0.42352941 0.64313725
v 0.00052877 0.01248737 -0.10000000 0.54117647 0.42352941 0.64313725
v 0.00126290 0.01243598 -0.07807770 0.54117647 0.42352941 0.64313725
v 0.00145378 0.01241396 -0.05903270 0.54117647 0.42352941 0.64313725
v 0.00164710 0.01238950 -0.03999749 0.54117647 0.42352941 0.64313725
v 0.00184042 0.01236258 -0.02094270 0.54117647 0.42352941 0.64313725
v 0.00298077 0.01213748 -0.06966110 0.54117647 0.42352941 0.64313725
v 0.00316920 0.01209099 -0.05060632 0.54117647 0.42352941 0.64313725
v 0.00335762 0.01203961 -0.03157110 0.54117647 0.42352941 0.64313725
v 0.00184042 0.01236258 -0.01294693 0.54117647 0.42352941 0.64313725
v 0.00053122 0.01248737 -0.00001865 0.54117647 0.42352941 0.64313725
v 0.00262349 -0.01222011 -0.00001865 0.54117647 0.42352941 0.64313725
v 0.00410154 -0.01180661 -0.00490223 0.54117647 0.42352941 0.64313725
v 0.00279234 -0.01218341 -0.04257140 0.54117647 0.42352941 0.64313725
v 0.00145378 -0.01241341 -0.08024057 0.54117647 0.42352941 0.64313725
v 0.00126290 -0.01243543 -0.06919134 0.54117647 0.42352941 0.64313725
v -0.00029101 -0.01249660 -0.08781551 0.54117647 0.42352941 0.64313725
v -0.00158552 -0.01239873 -0.10000000 0.54117647 0.42352941 0.64313725
v 0.00106714 -0.01245256 -0.05014634 0.54117647 0.42352941 0.64313725
v 0.00087382 -0.01246724 -0.03111112 0.54117647 0.42352941 0.64313725
v 0.00068049 -0.01247947 -0.01205634 0.54117647 0.42352941 0.64313725
v 0.00052877 -0.01248681 -0.00001865 0.54117647 0.42352941 0.64313725
v 0.00260147 -0.01222501 -0.02352640 0.54117647 0.42352941 0.64313725
v 0.00241304 -0.01226416 -0.00448140 0.54117647 0.42352941 0.64313725
v -0.00158552 0.01239684 -0.10000000 0.54117647 0.42352941 0.64313725
v -0.00048677 0.01248981 -0.07849853 0.54117647 0.42352941 0.64313725
v -0.00009524 0.01249960 -0.04041832 0.54117647 0.42352941 0.64313725
v 0.00009564 0.01249960 -0.02137332 0.54117647 0.42352941 0.64313725
v 0.00126290 0.01243598 -0.07008193 0.54117647 0.42352941 0.64313725
v 0.00145378 0.01241396 -0.05102715 0.54117647 0.42352941 0.64313725
v 0.00164710 0.01238950 -0.03199193 0.54117647 0.42352941 0.64313725
v 0.00009564 0.01249960 -0.01336776 0.54117647 0.42352941 0.64313725
v -0.00158552 0.01239684 -0.00001865 0.54117647 0.42352941 0.64313725
v 0.00126290 -0.01243543 -0.06119557 0.54117647 0.42352941 0.64313725
v -0.00029101 -0.01249660 -0.07980995 0.54117647 0.42352941 0.64313725
v -0.00048677 -0.01248926 -0.06877051 0.54117647 0.42352941 0.64313725
v -0.00203090 -0.01233267 -0.08739468 0.54117647 0.42352941 0.64313725
v -0.00365822 -0.01195097 -0.10000000 0.54117647 0.42352941 0.64313725
v -0.00068009 -0.01247947 -0.04972551 0.54117647 0.42352941 0.64313725
v -0.00087342 -0.01246724 -0.03068051 0.54117647 0.42352941 0.64313725
v -0.00106918 -0.01245256 -0.01163551 0.54117647 0.42352941 0.64313725
v -0.00158552 -0.01239873 -0.00001865 0.54117647 0.42352941 0.64313725
v 0.00106714 -0.01245256 -0.04215057 0.54117647 0.42352941 0.64313725
v 0.00087382 -0.01246724 -0.02310557 0.54117647 0.42352941 0.64313725
v 0.00068049 -0.01247947 -0.00406057 0.54117647 0.42352941 0.64313725
v 0.00052143 -0.01248681 -0.00001865 0.54117647 0.42352941 0.64313725
v -0.00365822 0.01195152 -0.10000000 0.54117647 0.42352941 0.64313725
v -0.00222177 0.01229897 -0.07892914 0.54117647 0.42352941 0.64313725
v -0.00203090 0.01233322 -0.05987436 0.54117647 0.42352941 0.64313725
v -0.00184002 0.01236258 -0.04083915 0.54117647 0.42352941 0.64313725
v -0.00164670 0.01238950 -0.02179415 0.54117647 0.42352941 0.64313725
v -0.00048677 0.01248981 -0.07050276 0.54117647 0.42352941 0.64313725
v -0.00009524 0.01249960 -0.03241276 0.54117647 0.42352941 0.64313725
v -0.00164670 0.01238950 -0.01379838 0.54117647 0.42352941 0.64313725
v -0.00184002 0.01236258 -0.03284338 0.54117647 0.42352941 0.64313725
v -0.00335723 0.01203961 -0.01421921 0.54117647 0.42352941 0.64313725
v -0.00366067 0.01194908 -0.00001865 0.54117647 0.42352941 0.64313725
v -0.00048677 -0.01248926 -0.06076495 0.54117647 0.42352941 0.64313725
v -0.00203090 -0.01233267 -0.07938912 0.54117647 0.42352941 0.64313725
v -0.00241264 -0.01226416 -0.04930468 0.54117647 0.42352941 0.64313725
v -0.00373163 -0.01192895 -0.08696406 0.54117647 0.42352941 0.64313725
v -0.00391761 -0.01186778 -0.06791906 0.54117647 0.42352941 0.64313725
v -0.00536140 -0.01129034 -0.08654323 0.54117647 0.42352941 0.64313725
v -0.00562569 -0.01116066 -0.10000000 0.54117647 0.42352941 0.64313725
v -0.00260352 -0.01222501 -0.03025968 0.54117647 0.42352941 0.64313725
v -0.00279194 -0.01218341 -0.01121468 0.54117647 0.42352941 0.64313725
v -0.00365332 -0.01195342 -0.00001865 0.54117647 0.42352941 0.64313725
v -0.00068009 -0.01247947 -0.04172974 0.54117647 0.42352941 0.64313725
v -0.00087342 -0.01246724 -0.02268474 0.54117647 0.42352941 0.64313725
v -0.00106918 -0.01245256 -0.00362996 0.54117647 0.42352941 0.64313725
v -0.00279194 -0.01218341 -0.00320912 0.54117647 0.42352941 0.64313725
v -0.00260352 -0.01222501 -0.02226391 0.54117647 0.42352941 0.64313725
v -0.00241264 -0.01226416 -0.04130891 0.54117647 0.42352941 0.64313725
v -0.00222177 -0.01229841 -0.06034412 0.54117647 0.42352941 0.64313725
v -0.00562569 0.01116122 -0.10000000 0.54117647 0.42352941 0.64313725
v -0.00391761 0.01186833 -0.07934998 0.54117647 0.42352941 0.64313725
v -0.00373163 0.01192950 -0.06030498 0.54117647 0.42352941 0.64313725
v -0.00354565 0.01198578 -0.04125998 0.54117647 0.42352941 0.64313725
v -0.00335723 0.01203961 -0.02221498 0.54117647 0.42352941 0.64313725
v -0.00222177 0.01229897 -0.07092359 0.54117647 0.42352941 0.64313725
v -0.00203090 0.01233322 -0.05187859 0.54117647 0.42352941 0.64313725
v -0.00354565 0.01198578 -0.03326421 0.54117647 0.42352941 0.64313725
v -0.00365822 0.01195152 -0.01428772 0.54117647 0.42352941 0.64313725
v -0.00562569 0.01116122 -0.00001865 0.54117647 0.42352941 0.64313725
v -0.00391761 0.01186833 -0.07134442 0.54117647 0.42352941 0.64313725
v -0.00500657 0.01145238 -0.01464004 0.54117647 0.42352941 0.64313725
v -0.00373163 -0.01192895 -0.07896829 0.54117647 0.42352941 0.64313725
v -0.00391761 -0.01186778 -0.05992329 0.54117647 0.42352941 0.64313725
v -0.00410114 -0.01180661 -0.04888385 0.54117647 0.42352941 0.64313725
v -0.00536140 -0.01129034 -0.07854746 0.54117647 0.42352941 0.64313725
v -0.00428468 -0.01174055 -0.02983885 0.54117647 0.42352941 0.64313725
v -0.00446821 -0.01167204 -0.01078406 0.54117647 0.42352941 0.64313725
v -0.00570889 -0.01111907 -0.04846302 0.54117647 0.42352941 0.64313725
v -0.00588019 -0.01102854 -0.02940823 0.54117647 0.42352941 0.64313725
v -0.00605149 -0.01093556 -0.01036323 0.54117647 0.42352941 0.64313725
v -0.00688105 -0.01043397 -0.08612240 0.54117647 0.42352941 0.64313725
v -0.00743165 -0.01004983 -0.10000000 0.54117647 0.42352941 0.64313725
v -0.00562569 -0.01116066 -0.00001865 0.54117647 0.42352941 0.64313725
v -0.00367290 -0.01194608 -0.00001865 0.54117647 0.42352941 0.64313725
v -0.00446821 -0.01167204 -0.00278829 0.54117647 0.42352941 0.64313725
v -0.00428468 -0.01174055 -0.02183329 0.54117647 0.42352941 0.64313725
v -0.00410114 -0.01180661 -0.04087829 0.54117647 0.42352941 0.64313725
v -0.00536140 0.01129090 -0.06072581 0.54117647 0.42352941 0.64313725
v -0.00743165 0.01004794 -0.10000000 0.54117647 0.42352941 0.64313725
v -0.00704256 0.01032442 -0.08019164 0.54117647 0.42352941 0.64313725
v -0.00671954 0.01053974 -0.04211142 0.54117647 0.42352941 0.64313725
v -0.00655314 0.01064250 -0.02306642 0.54117647 0.42352941 0.64313725
v -0.00518521 0.01137164 -0.04169059 0.54117647 0.42352941 0.64313725
v -0.00500657 0.01145238 -0.02264559 0.54117647 0.42352941 0.64313725
v -0.00373163 0.01192950 -0.05229942 0.54117647 0.42352941 0.64313725
v -0.00655314 0.01064250 -0.01506087 0.54117647 0.42352941 0.64313725
v -0.00743165 0.01004794 -0.00001865 0.54117647 0.42352941 0.64313725
v -0.00518521 0.01137164 -0.03368504 0.54117647 0.42352941 0.64313725
v -0.00536140 0.01129090 -0.05273004 0.54117647 0.42352941 0.64313725
v -0.00570889 -0.01111907 -0.04045746 0.54117647 0.42352941 0.64313725
v -0.00588019 -0.01102854 -0.02141246 0.54117647 0.42352941 0.64313725
v -0.00605149 -0.01093556 -0.00236746 0.54117647 0.42352941 0.64313725
v -0.00688105 -0.01043397 -0.07811684 0.54117647 0.42352941 0.64313725
v -0.00720407 -0.01021376 -0.04803240 0.54117647 0.42352941 0.64313725
v -0.00827101 -0.00936963 -0.08569178 0.54117647 0.42352941 0.64313725
v -0.00902227 -0.00864783 -0.10000000 0.54117647 0.42352941 0.64313725
v -0.00736068 -0.01010121 -0.02898740 0.54117647 0.42352941 0.64313725
v -0.00743165 -0.01004983 -0.00001865 0.54117647 0.42352941 0.64313725
v -0.00751730 -0.00998377 -0.00994240 0.54117647 0.42352941 0.64313725
v -0.00902227 0.00864838 -0.10000000 0.54117647 0.42352941 0.64313725
v -0.00841783 0.00923806 -0.08062225 0.54117647 0.42352941 0.64313725
v -0.00827101 0.00937018 -0.06156747 0.54117647 0.42352941 0.64313725
v -0.00812418 0.00949741 -0.04253225 0.54117647 0.42352941 0.64313725
v -0.00797735 0.00962220 -0.02348725 0.54117647 0.42352941 0.64313725
v -0.00704256 0.01032442 -0.07219587 0.54117647 0.42352941 0.64313725
v -0.00671954 0.01053974 -0.03410587 0.54117647 0.42352941 0.64313725
v -0.00797735 0.00962220 -0.01549149 0.54117647 0.42352941 0.64313725
v -0.00902227 0.00864838 -0.00001865 0.54117647 0.42352941 0.64313725
v -0.00720407 -0.01021376 -0.04003663 0.54117647 0.42352941 0.64313725
v -0.00704256 -0.01032387 -0.05907185 0.54117647 0.42352941 0.64313725
v -0.00827101 -0.00936963 -0.07769602 0.54117647 0.42352941 0.64313725
v -0.00841783 -0.00923995 -0.06664678 0.54117647 0.42352941 0.64313725
v -0.00949701 -0.00812422 -0.08527096 0.54117647 0.42352941 0.64313725
v -0.01035594 -0.00699871 -0.10000000 0.54117647 0.42352941 0.64313725
v -0.00855976 -0.00910782 -0.04761157 0.54117647 0.42352941 0.64313725
v -0.00883873 -0.00883868 -0.00952157 0.54117647 0.42352941 0.64313725
v -0.00902227 -0.00864783 -0.02045336 0.54117647 0.42352941 0.64313725
v -0.00736068 -0.01010121 -0.02099163 0.54117647 0.42352941 0.64313725
v -0.00901982 -0.00865028 -0.00001865 0.54117647 0.42352941 0.64313725
v -0.00883873 -0.00883868 -0.00151602 0.54117647 0.42352941 0.64313725
v -0.00751730 -0.00998377 -0.00194664 0.54117647 0.42352941 0.64313725
v -0.01035594 0.00699926 -0.10000000 0.54117647 0.42352941 0.64313725
v -0.00962181 0.00797552 -0.08104308 0.54117647 0.42352941 0.64313725
v -0.00949701 0.00812478 -0.06199808 0.54117647 0.42352941 0.64313725
v -0.00936976 0.00827158 -0.04295308 0.54117647 0.42352941 0.64313725
v -0.00924006 0.00841594 -0.02390808 0.54117647 0.42352941 0.64313725
v -0.00841783 0.00923806 -0.07261670 0.54117647 0.42352941 0.64313725
v -0.00827101 0.00937018 -0.05357170 0.54117647 0.42352941 0.64313725
v -0.00812418 0.00949741 -0.03453648 0.54117647 0.42352941 0.64313725
v -0.00924006 0.00841594 -0.01591231 0.54117647 0.42352941 0.64313725
v -0.01035594 0.00699681 -0.00001865 0.54117647 0.42352941 0.64313725
v -0.00841783 -0.00923995 -0.05865102 0.54117647 0.42352941 0.64313725
v -0.00949701 -0.00812422 -0.07727519 0.54117647 0.42352941 0.64313725
v -0.00962181 -0.00797742 -0.06622596 0.54117647 0.42352941 0.64313725
v -0.01053947 -0.00671733 -0.08485013 0.54117647 0.42352941 0.64313725
v -0.01138862 -0.00514650 -0.10000000 0.54117647 0.42352941 0.64313725
v -0.00974416 -0.00782572 -0.04719074 0.54117647 0.42352941 0.64313725
v -0.00986652 -0.00767402 -0.02814574 0.54117647 0.42352941 0.64313725
v -0.01035594 -0.00699871 -0.00001865 0.54117647 0.42352941 0.64313725
v -0.00855976 -0.00910782 -0.03961580 0.54117647 0.42352941 0.64313725
v -0.00986652 -0.00767402 -0.02014019 0.54117647 0.42352941 0.64313725
v -0.00962181 -0.00797742 -0.05823019 0.54117647 0.42352941 0.64313725
v -0.00869925 -0.00897325 -0.02056102 0.54117647 0.42352941 0.64313725
v -0.01138862 0.00514706 -0.10000000 0.54117647 0.42352941 0.64313725
v -0.01064225 0.00655395 -0.08146391 0.54117647 0.42352941 0.64313725
v -0.01053947 0.00671788 -0.06241891 0.54117647 0.42352941 0.64313725
v -0.01043425 0.00688182 -0.04338370 0.54117647 0.42352941 0.64313725
v -0.01035594 0.00699926 -0.03534878 0.54117647 0.42352941 0.64313725
v -0.01032413 0.00704330 -0.02433870 0.54117647 0.42352941 0.64313725
v -0.00962181 0.00797552 -0.07303753 0.54117647 0.42352941 0.64313725
v -0.00949701 0.00812478 -0.05399253 0.54117647 0.42352941 0.64313725
v -0.00936976 0.00827158 -0.03495732 0.54117647 0.42352941 0.64313725
v -0.01120508 0.00553609 -0.01675398 0.54117647 0.42352941 0.64313725
v -0.01138862 0.00514706 -0.00001865 0.54117647 0.42352941 0.64313725
v -0.01032413 0.00704330 -0.01633314 0.54117647 0.42352941 0.64313725
v -0.01043425 0.00688182 -0.03537814 0.54117647 0.42352941 0.64313725
v -0.01053947 0.00671788 -0.05442314 0.54117647 0.42352941 0.64313725
v -0.01064225 0.00655395 -0.07346814 0.54117647 0.42352941 0.64313725
v -0.01053947 -0.00671733 -0.07685436 0.54117647 0.42352941 0.64313725
v -0.01064225 -0.00655340 -0.06580512 0.54117647 0.42352941 0.64313725
v -0.01198571 -0.00354632 -0.08400846 0.54117647 0.42352941 0.64313725
v -0.01209583 -0.00314749 -0.10000000 0.54117647 0.42352941 0.64313725
v -0.01074258 -0.00638702 -0.04676991 0.54117647 0.42352941 0.64313725
v -0.01084046 -0.00621819 -0.02771513 0.54117647 0.42352941 0.64313725
v -0.01137149 -0.00518565 -0.08442930 0.54117647 0.42352941 0.64313725
v -0.01145224 -0.00500704 -0.06538430 0.54117647 0.42352941 0.64313725
v -0.01152810 -0.00482842 -0.04634908 0.54117647 0.42352941 0.64313725
v -0.01138862 -0.00514650 -0.00001865 0.54117647 0.42352941 0.64313725
v -0.01084046 -0.00621819 -0.01971936 0.54117647 0.42352941 0.64313725
v -0.01074258 -0.00638702 -0.03876436 0.54117647 0.42352941 0.64313725
v -0.01064225 -0.00655340 -0.05779957 0.54117647 0.42352941 0.64313725
v -0.01209583 0.00314805 -0.10000000 0.54117647 0.42352941 0.64313725
v -0.01203955 0.00335847 -0.08231536 0.54117647 0.42352941 0.64313725
v -0.01145224 0.00500759 -0.08188474 0.54117647 0.42352941 0.64313725
v -0.01129073 0.00535993 -0.04380453 0.54117647 0.42352941 0.64313725
v -0.01120508 0.00553609 -0.02475953 0.54117647 0.42352941 0.64313725
v -0.01129073 0.00535993 -0.03579897 0.54117647 0.42352941 0.64313725
v -0.01186825 0.00391633 -0.01718459 0.54117647 0.42352941 0.64313725
v -0.01209583 0.00314805 -0.00001865 0.54117647 0.42352941 0.64313725
v -0.01145224 0.00500759 -0.07388898 0.54117647 0.42352941 0.64313725
v -0.01198571 -0.00354632 -0.07600291 0.54117647 0.42352941 0.64313725
v -0.01203955 -0.00335791 -0.06495368 0.54117647 0.42352941 0.64313725
v -0.01160151 -0.00464736 -0.02729430 0.54117647 0.42352941 0.64313725
v -0.01236256 -0.00183847 -0.08357785 0.54117647 0.42352941 0.64313725
v -0.01245311 -0.00105795 -0.10000000 0.54117647 0.42352941 0.64313725
v -0.01209093 -0.00316951 -0.04591847 0.54117647 0.42352941 0.64313725
v -0.01213743 -0.00298111 -0.02687347 0.54117647 0.42352941 0.64313725
v -0.01137149 -0.00518565 -0.07642374 0.54117647 0.42352941 0.64313725
v -0.01145224 -0.00500704 -0.05737874 0.54117647 0.42352941 0.64313725
v -0.01152810 -0.00482842 -0.03834353 0.54117647 0.42352941 0.64313725
v -0.01209583 -0.00314994 -0.00001865 0.54117647 0.42352941 0.64313725
v -0.01160151 -0.00464736 -0.01929853 0.54117647 0.42352941 0.64313725
v -0.01245311 0.00105850 -0.10000000 0.54117647 0.42352941 0.64313725
v -0.01238948 0.00164818 -0.08273619 0.54117647 0.42352941 0.64313725
v -0.01236256 0.00183902 -0.06369119 0.54117647 0.42352941 0.64313725
v -0.01233320 0.00202987 -0.04464619 0.54117647 0.42352941 0.64313725
v -0.01229894 0.00222072 -0.02560119 0.54117647 0.42352941 0.64313725
v -0.01203955 0.00335847 -0.07430980 0.54117647 0.42352941 0.64313725
v -0.01198571 0.00354442 -0.06326057 0.54117647 0.42352941 0.64313725
v -0.01192943 0.00373038 -0.04422536 0.54117647 0.42352941 0.64313725
v -0.01186825 0.00391633 -0.02518036 0.54117647 0.42352941 0.64313725
v -0.01192943 0.00373038 -0.03622959 0.54117647 0.42352941 0.64313725
v -0.01229894 0.00222072 -0.01760542 0.54117647 0.42352941 0.64313725
v -0.01245311 0.00105850 -0.00001865 0.54117647 0.42352941 0.64313725
v -0.01198571 0.00354442 -0.05526480 0.54117647 0.42352941 0.64313725
v -0.01203955 -0.00335791 -0.05695791 0.54117647 0.42352941 0.64313725
v -0.01236256 -0.00183847 -0.07558208 0.54117647 0.42352941 0.64313725
v -0.01238948 -0.00164762 -0.06453285 0.54117647 0.42352941 0.64313725
v -0.01249960 -0.00009637 -0.08315702 0.54117647 0.42352941 0.64313725
v -0.01241395 -0.00145433 -0.04549764 0.54117647 0.42352941 0.64313725
v -0.01243598 -0.00126103 -0.02645264 0.54117647 0.42352941 0.64313725
v -0.01245311 -0.00105795 -0.00001865 0.54117647 0.42352941 0.64313725
v -0.01209093 -0.00316951 -0.03792270 0.54117647 0.42352941 0.64313725
v -0.01213743 -0.00298111 -0.01886791 0.54117647 0.42352941 0.64313725
v -0.01243598 -0.00126103 -0.01844708 0.54117647 0.42352941 0.64313725
v -0.01249960 0.00009692 -0.06411202 0.54117647 0.42352941 0.64313725
v -0.01248981 0.00048596 -0.02602202 0.54117647 0.42352941 0.64313725
v -0.01238948 0.00164818 -0.07473063 0.54117647 0.42352941 0.64313725
v -0.01236256 0.00183902 -0.05568563 0.54117647 0.42352941 0.64313725
v -0.01233320 0.00202987 -0.03665042 0.54117647 0.42352941 0.64313725
v -0.01248981 0.00048596 -0.01802625 0.54117647 0.42352941 0.64313725
v -0.01238948 -0.00164762 -0.05653708 0.54117647 0.42352941 0.64313725
v -0.01249960 -0.00009637 -0.07516125 0.54117647 0.42352941 0.64313725
v -0.01241395 -0.00145433 -0.03750187 0.54117647 0.42352941 0.64313725
v -0.01249471 0.00029022 -0.03707125 0.54117647 0.42352941 0.64313725
v -0.01249960 0.00009692 -0.05610646 0.54117647 0.42352941 0.64313725
f 53 54 55
f 53 55 56
f 53 56 57
f 53 57 58
f 53 58 69
f 53 69 59
f 53 59 62
f 53 62 54
f 54 60 61
f 54 61 55
f 54 62 75
f 54 75 63
f 54 63 60
f 55 61 82
f 55 82 101
f 55 101 124
f 55 124 154
f 55 154 184
f 55 184 208
f 55 208 226
f 55 226 254
f 55 254 282
f 55 282 304
f 55 304 328
f 55 328 355
f 55 355 383
f 55 383 404
f 55 404 427
f 55 427 450
f 55 450 475
f 55 475 500
f 55 500 508
f 55 508 487
f 55 487 464
f 55 464 435
f 55 435 415
f 55 415 394
f 55 394 369
f 55 369 370
f 55 370 338
f 55 338 313
f 55 313 317
f 55 317 293
f 55 293 283
f 55 283 258
f 55 258 230
f 55 230 211
f 55 211 187
f 55 187 159
f 55 159 129
f 55 129 106
f 55 106 87
f 55 87 64
f 55 64 65
f 55 65 66
f 55 66 56
f 56 66 65
f 56 65 86
f 56 86 94
f 56 94 67
f 56 67 68
f 56 68 57
f 57 68 69
f 57 69 58
f 59 69 70
f 59 70 95
f 59 95 116
f 59 116 140
f 59 140 172
f 59 172 197
f 59 197 217
f 59 217 239
f 59 239 268
f 59 268 289
f 59 289 309
f 59 309 335
f 59 335 368
f 59 368 392
f 59 392 410
f 59 410 432
f 59 432 458
f 59 458 481
f 59 481 489
f 59 489 468
f 59 468 440
f 59 440 418
f 59 418 396
f 59 396 375
f 59 375 346
f 59 346 318
f 59 318 296
f 59 296 273
f 59 273 244
f 59 244 218
f 59 218 198
f 59 198 174
f 59 174 144
f 59 144 119
f 59 119 96
f 59 96 71
f 59 71 72
f 59 72 73
f 59 73 74
f 59 74 75
f 59 75 62
f 60 76 61
f 60 63 77
f 60 77 78
f 60 78 79
f 60 79 72
f 60 72 80
f 60 80 100
f 60 100 81
f 60 81 76
f 61 76 81
f 61 81 83
f 61 83 84
f 61 84 85
f 61 85 82
f 63 75 74
f 63 74 77
f 64 86 65
f 64 87 88
f 64 88 89
f 64 89 90
f 64 90 91
f 64 91 92
f 64 92 93
f 64 93 70
f 64 70 86
f 67 70 68
f 67 94 70
f 68 70 69
f 70 93 95
f 70 94 86
f 71 96 97
f 71 97 98
f 71 98 99
f 71 99 100
f 71 100 80
f 71 80 72
f 72 79 78
f 72 78 73
f 73 78 77
f 73 77 74
f 81 100 99
f 81 99 83
f 82 85 102
f 82 102 101
f 83 99 98
f 83 98 84
f 84 98 97
f 84 97 103
f 84 103 85
f 85 104 123
f 85 123 105
f 85 105 102
f 85 103 97
f 85 97 104
f 87 106 107
f 87 107 108
f 87 108 88
f 88 108 109
f 88 109 114
f 88 114 110
f 88 110 111
f 88 111 89
f 89 111 112
f 89 112 90
f 90 112 113
f 90 113 91
f 91 113 93
f 91 93 92
f 93 114 95
f 93 113 114
f 95 115 116
f 95 114 109
f 95 109 108
f 95 108 136
f 95 136 117
f 95 117 118
f 95 118 115
f 96 119 120
f 96 120 121
f 96 121 128
f 96 128 102
f 96 102 127
f 96 127 122
f 96 122 123
f 96 123 104
f 96 104 97
f 101 102 125
f 101 125 126
f 101 126 124
f 102 105 127
f 102 128 125
f 105 123 122
f 105 122 127
f 106 129 130
f 106 130 141
f 106 141 116
f 106 116 137
f 106 137 131
f 106 131 132
f 106 132 107
f 107 133 138
f 107 138 134
f 107 134 108
f 107 132 115
f 107 115 133
f 108 134 135
f 108 135 136
f 110 114 111
f 111 114 112
f 112 114 113
f 115 132 131
f 115 131 137
f 115 137 116
f 115 118 138
f 115 138 133
f 116 139 140
f 116 141 139
f 117 136 135
f 117 135 118
f 118 135 134
f 118 134 138
f 119 142 143
f 119 143 120
f 119 144 145
f 119 145 146
f 119 146 147
f 119 147 148
f 119 148 149
f 119 149 153
f 119 153 124
f 119 124 158
f 119 158 142
f 120 125 128
f 120 128 121
f 120 143 150
f 120 150 151
f 120 151 152
f 120 152 126
f 120 126 125
f 124 153 154
f 124 126 155
f 124 155 156
f 124 156 157
f 124 157 158
f 126 152 151
f 126 151 155
f 129 159 160
f 129 160 161
f 129 161 162
f 129 162 163
f 129 163 164
f 129 164 165
f 129 165 166
f 129 166 130
f 130 166 167
f 130 167 168
f 130 168 169
f 130 169 139
f 130 139 141
f 139 169 168
f 139 168 167
f 139 167 170
f 139 170 140
f 140 171 172
f 140 170 173
f 140 173 166
f 140 166 165
f 140 165 164
f 140 164 171
f 142 158 157
f 142 157 143
f 143 157 156
f 143 156 150
f 144 174 175
f 144 175 176
f 144 176 177
f 144 177 178
f 144 178 179
f 144 179 154
f 144 154 145
f 145 154 180
f 145 180 185
f 145 185 181
f 145 181 147
f 145 147 146
f 147 181 182
f 147 182 148
f 148 182 153
f 148 153 149
f 150 156 155
f 150 155 151
f 153 182 154
f 154 179 183
f 154 183 184
f 154 182 181
f 154 181 185
f 154 185 180
f 159 186 160
f 159 187 188
f 159 188 189
f 159 189 190
f 159 190 191
f 159 191 192
f 159 192 193
f 159 193 172
f 159 172 186
f 160 186 194
f 160 194 161
f 161 194 195
f 161 195 162
f 162 195 196
f 162 196 163
f 163 196 171
f 163 171 164
f 166 173 170
f 166 170 167
f 171 196 172
f 172 193 197
f 172 196 195
f 172 195 194
f 172 194 186
f 174 198 199
f 174 199 200
f 174 200 201
f 174 201 202
f 174 202 209
f 174 209 203
f 174 203 204
f 174 204 175
f 175 204 205
f 175 205 176
f 176 205 206
f 176 206 177
f 177 206 207
f 177 207 178
f 178 207 183
f 178 183 179
f 183 207 184
f 184 207 206
f 184 206 205
f 184 205 204
f 184 204 203
f 184 203 209
f 184 209 210
f 184 210 208
f 187 211 188
f 188 211 212
f 188 212 213
f 188 213 189
f 189 213 214
f 189 214 190
f 190 214 215
f 190 215 191
f 191 215 193
f 191 193 192
f 193 215 197
f 197 216 217
f 197 215 214
f 197 214 213
f 197 213 212
f 197 212 211
f 197 211 216
f 198 218 219
f 198 219 220
f 198 220 227
f 198 227 221
f 198 221 210
f 198 210 222
f 198 222 199
f 199 222 210
f 199 210 223
f 199 223 224
f 199 224 200
f 200 224 225
f 200 225 201
f 201 225 209
f 201 209 202
f 208 210 221
f 208 221 227
f 208 227 228
f 208 228 229
f 208 229 226
f 209 225 210
f 210 225 224
f 210 224 223
f 211 230 231
f 211 231 232
f 211 232 233
f 211 233 234
f 211 234 235
f 211 235 216
f 216 236 217
f 216 235 234
f 216 234 237
f 216 237 236
f 217 238 239
f 217 236 240
f 217 240 241
f 217 241 242
f 217 242 243
f 217 243 238
f 218 244 245
f 218 245 246
f 218 246 247
f 218 247 248
f 218 248 249
f 218 249 250
f 218 250 251
f 218 251 219
f 219 228 227
f 219 227 220
f 219 251 252
f 219 252 229
f 219 229 228
f 226 253 254
f 226 229 255
f 226 255 256
f 226 256 250
f 226 250 249
f 226 249 257
f 226 257 253
f 229 252 251
f 229 251 255
f 230 258 231
f 231 258 259
f 231 259 260
f 231 260 236
f 231 236 261
f 231 261 262
f 231 262 232
f 232 262 263
f 232 263 233
f 233 263 237
f 233 237 234
f 236 237 263
f 236 263 262
f 236 262 261
f 236 260 259
f 236 259 240
f 238 264 285
f 238 285 265
f 238 265 239
f 238 243 266
f 238 266 284
f 238 284 264
f 239 267 268
f 239 265 269
f 239 269 270
f 239 270 267
f 240 259 271
f 240 271 242
f 240 242 241
f 242 271 272
f 242 272 243
f 243 272 284
f 243 284 266
f 244 273 274
f 244 274 275
f 244 275 276
f 244 276 277
f 244 277 281
f 244 281 254
f 244 254 278
f 244 278 245
f 245 278 279
f 245 279 246
f 246 279 280
f 246 280 247
f 247 280 253
f 247 253 248
f 248 253 257
f 248 257 249
f 250 256 255
f 250 255 251
f 253 280 254
f 254 281 282
f 254 280 279
f 254 279 278
f 258 283 284
f 258 284 272
f 258 272 259
f 259 272 271
f 264 284 283
f 264 283 285
f 265 285 294
f 265 294 269
f 267 270 295
f 267 295 286
f 267 286 305
f 267 305 287
f 267 287 268
f 268 288 289
f 268 287 290
f 268 290 291
f 268 291 292
f 268 292 316
f 268 316 293
f 268 293 306
f 268 306 288
f 269 294 295
f 269 295 270
f 273 296 297
f 273 297 298
f 273 298 299
f 273 299 282
f 273 282 274
f 274 282 300
f 274 300 301
f 274 301 275
f 275 301 302
f 275 302 276
f 276 302 281
f 276 281 277
f 281 302 282
f 282 299 303
f 282 303 304
f 282 302 301
f 282 301 300
f 283 293 295
f 283 295 294
f 283 294 285
f 286 295 305
f 287 305 314
f 287 314 290
f 288 306 329
f 288 329 307
f 288 307 289
f 289 308 309
f 289 307 310
f 289 310 311
f 289 311 312
f 289 312 341
f 289 341 313
f 289 313 330
f 289 330 308
f 290 314 315
f 290 315 291
f 291 315 316
f 291 316 292
f 293 316 295
f 293 317 306
f 295 316 315
f 295 315 314
f 295 314 305
f 296 318 319
f 296 319 320
f 296 320 321
f 296 321 322
f 296 322 325
f 296 325 304
f 296 304 323
f 296 323 297
f 297 323 324
f 297 324 298
f 298 324 303
f 298 303 299
f 303 324 304
f 304 325 326
f 304 326 327
f 304 327 328
f 304 324 323
f 306 317 329
f 307 329 339
f 307 339 310
f 308 330 345
f 308 345 344
f 308 344 331
f 308 331 309
f 309 332 333
f 309 333 334
f 309 334 335
f 309 331 336
f 309 336 337
f 309 337 338
f 309 338 332
f 310 339 340
f 310 340 311
f 311 340 341
f 311 341 312
f 313 341 317
f 313 338 342
f 313 342 343
f 313 343 344
f 313 344 345
f 313 345 330
f 317 341 340
f 317 340 339
f 317 339 329
f 318 346 347
f 318 347 348
f 318 348 349
f 318 349 350
f 318 350 319
f 319 350 327
f 319 327 351
f 319 351 352
f 319 352 320
f 320 352 326
f 320 326 321
f 321 326 325
f 321 325 322
f 326 352 327
f 327 350 349
f 327 349 353
f 327 353 354
f 327 354 328
f 327 352 351
f 328 354 356
f 328 356 357
f 328 357 355
f 331 344 343
f 331 343 336
f 332 338 358
f 332 358 359
f 332 359 333
f 333 359 373
f 333 373 360
f 333 360 334
f 334 361 369
f 334 369 335
f 334 360 362
f 334 362 363
f 334 363 371
f 334 371 361
f 335 364 365
f 335 365 366
f 335 366 367
f 335 367 368
f 335 369 386
f 335 386 364
f 336 343 342
f 336 342 337
f 337 342 338
f 338 370 371
f 338 371 372
f 338 372 373
f 338 373 359
f 338 359 358
f 346 374 347
f 346 375 376
f 346 376 377
f 346 377 378
f 346 378 382
f 346 382 355
f 346 355 385
f 346 385 374
f 347 356 381
f 347 381 348
f 347 374 379
f 347 379 380
f 347 380 357
f 347 357 356
f 348 381 353
f 348 353 349
f 353 381 354
f 354 381 356
f 355 382 383
f 355 357 384
f 355 384 385
f 357 380 379
f 357 379 384
f 360 373 372
f 360 372 362
f 361 371 369
f 362 372 371
f 362 371 363
f 364 386 387
f 364 387 365
f 365 387 388
f 365 388 366
f 366 388 389
f 366 389 367
f 367 389 406
f 367 406 405
f 367 405 390
f 367 390 368
f 368 391 392
f 368 390 393
f 368 393 414
f 368 414 394
f 368 394 417
f 368 417 395
f 368 395 391
f 369 371 370
f 369 394 388
f 369 388 387
f 369 387 386
f 374 385 384
f 374 384 379
f 375 396 397
f 375 397 398
f 375 398 399
f 375 399 400
f 375 400 403
f 375 403 383
f 375 383 401
f 375 401 376
f 376 401 402
f 376 402 377
f 377 402 382
f 377 382 378
f 382 402 383
f 383 403 404
f 383 402 401
f 388 394 405
f 388 405 406
f 388 406 389
f 390 405 414
f 390 414 393
f 391 395 417
f 391 417 407
f 391 407 428
f 391 428 408
f 391 408 392
f 392 409 410
f 392 408 411
f 392 411 412
f 392 412 416
f 392 416 413
f 392 413 429
f 392 429 409
f 394 414 405
f 394 415 416
f 394 416 417
f 396 418 419
f 396 419 420
f 396 420 421
f 396 421 422
f 396 422 426
f 396 426 404
f 396 404 423
f 396 423 397
f 397 423 424
f 397 424 398
f 398 424 425
f 398 425 399
f 399 425 403
f 399 403 400
f 403 425 404
f 404 426 427
f 404 425 424
f 404 424 423
f 407 417 428
f 408 428 436
f 408 436 411
f 409 429 438
f 409 438 430
f 409 430 410
f 410 431 432
f 410 430 433
f 410 433 434
f 410 434 437
f 410 437 435
f 410 435 455
f 410 455 431
f 411 436 439
f 411 439 416
f 411 416 412
f 413 416 415
f 413 415 429
f 415 435 437
f 415 437 438
f 415 438 429
f 416 439 417
f 417 439 436
f 417 436 428
f 418 440 441
f 418 441 442
f 418 442 443
f 418 443 452
f 418 452 444
f 418 444 451
f 418 451 445
f 418 445 419
f 419 446 447
f 419 447 420
f 419 445 451
f 419 451 446
f 420 447 448
f 420 448 421
f 421 448 426
f 421 426 422
f 426 448 427
f 427 449 450
f 427 448 447
f 427 447 446
f 427 446 451
f 427 451 444
f 427 444 452
f 427 452 453
f 427 453 454
f 427 454 449
f 430 438 437
f 430 437 434
f 430 434 433
f 431 455 467
f 431 467 456
f 431 456 432
f 432 457 458
f 432 456 459
f 432 459 460
f 432 460 461
f 432 461 462
f 432 462 463
f 432 463 457
f 435 464 465
f 435 465 466
f 435 466 467
f 435 467 455
f 440 468 469
f 440 469 470
f 440 470 476
f 440 476 450
f 440 450 473
f 440 473 471
f 440 471 472
f 440 472 441
f 441 454 453
f 441 453 442
f 441 472 449
f 441 449 454
f 442 453 452
f 442 452 443
f 449 472 471
f 449 471 473
f 449 473 450
f 450 474 475
f 450 476 474
f 456 467 466
f 456 466 459
f 457 477 502
f 457 502 478
f 457 478 458
f 457 463 479
f 457 479 488
f 457 488 477
f 458 480 481
f 458 478 482
f 458 482 483
f 458 483 480
f 459 466 465
f 459 465 460
f 460 465 484
f 460 484 461
f 461 484 485
f 461 485 462
f 462 485 486
f 462 486 463
f 463 486 488
f 463 488 479
f 464 487 488
f 464 488 486
f 464 486 485
f 464 485 484
f 464 484 465
f 468 489 490
f 468 490 491
f 468 491 492
f 468 492 493
f 468 493 499
f 468 499 475
f 468 475 494
f 468 494 469
f 469 494 501
f 469 501 495
f 469 495 470
f 470 495 496
f 470 496 497
f 470 497 474
f 470 474 476
f 474 497 496
f 474 496 498
f 474 498 475
f 475 499 500
f 475 498 501
f 475 501 494
f 477 488 487
f 477 487 502
f 478 502 509
f 478 509 482
f 480 483 510
f 480 510 503
f 480 503 518
f 480 518 504
f 480 504 481
f 481 505 489
f 481 504 506
f 481 506 507
f 481 507 511
f 481 511 508
f 481 508 519
f 481 519 505
f 482 509 487
f 482 487 483
f 483 487 510
f 487 508 511
f 487 511 510
f 487 509 502
f 489 505 512
f 489 512 513
f 489 513 517
f 489 517 500
f 489 500 514
f 489 514 490
f 490 514 515
f 490 515 491
f 491 515 516
f 491 516 492
f 492 516 499
f 492 499 493
f 495 501 498
f 495 498 496
f 499 516 500
f 500 517 508
f 500 516 515
f 500 515 514
f 503 510 518
f 504 518 520
f 504 520 506
f 505 519 522
f 505 522 512
f 506 520 511
f 506 511 507
f 508 517 521
f 508 521 522
f 508 522 519
f 510 511 520
f 510 520 518
f 512 522 517
f 512 517 513
f 517 522 521

