# https://github.com/mikedh/trimesh
v -0.01050000 -0.01818650 0.00000000
v 0.01050000 -0.01818650 0.00000000
v -0.01050000 -0.01818650 0.01500000
v 0.01050000 -0.01818650 0.01500000
v -0.00029220 -0.01249660 -0.08781810
v -0.00029220 -0.01249660 -0.08381810
v -0.00029220 -0.01249660 -0.07981810
v -0.00048680 -0.01249050 -0.06877080
v -0.00048680 -0.01249050 -0.06477080
v -0.00048680 -0.01249050 -0.06077080
v 0.00053040 -0.01248870 -0.08801790
v 0.00053040 -0.01248870 -0.08001790
v 0.00053050 -0.01248870 -0.06901790
v 0.00053050 -0.01248870 -0.06101790
v 0.00053050 -0.01248870 -0.05001790
v 0.00053050 -0.01248870 -0.04201790
v 0.00053050 -0.01248870 -0.03101790
v 0.00053050 -0.01248870 -0.02301790
v 0.00053050 -0.01248870 -0.10000000
v 0.00053050 -0.01248870 -0.01201790
v 0.00053050 -0.01248870 -0.00401790
v 0.00053050 -0.01248870 0.00000000
v -0.00068130 -0.01248140 -0.04972360
v -0.00068130 -0.01248140 -0.04572360
v -0.00068130 -0.01248140 -0.04172360
v 0.00068130 -0.01248140 -0.01205460
v 0.00068130 -0.01248140 -0.00805460
v 0.00068130 -0.01248140 -0.00405460
v 0.00087560 -0.01246930 -0.03110170
v -0.00087560 -0.01246930 -0.03067640
v 0.00087560 -0.01246930 -0.02710170
v -0.00087560 -0.01246930 -0.02667640
v 0.00087560 -0.01246930 -0.02310170
v -0.00087560 -0.01246930 -0.02267640
v 0.00106950 -0.01245420 -0.05014890
v 0.00106950 -0.01245420 -0.04614890
v 0.00106950 -0.01245420 -0.04214880
v -0.00106950 -0.01245420 -0.01162930
v -0.00106950 -0.01245420 -0.00762930
v -0.00106950 -0.01245420 -0.00362930
v 0.00126300 -0.01243600 -0.06919590
v 0.00126300 -0.01243600 -0.06519590
v 0.00126300 -0.01243600 -0.06119590
v 0.00145610 -0.01241490 -0.08824280
v 0.00145610 -0.01241490 -0.08424280
v 0.00145610 -0.01241490 -0.08024280
v -0.00158760 -0.01239880 -0.06850340
v -0.00158760 -0.01239880 -0.06050340
v -0.00158760 -0.01239880 -0.08750340
v -0.00158760 -0.01239880 -0.07950340
v -0.00158760 -0.01239880 -0.04950340
v -0.00158760 -0.01239880 -0.04150340
v -0.00158760 -0.01239880 -0.03050340
v -0.00158760 -0.01239880 -0.02250340
v -0.00158770 -0.01239880 -0.01150340
v -0.00158770 -0.01239880 -0.00350340
v -0.00158770 -0.01239880 -0.10000000
v -0.00158770 -0.01239880 0.00000000
v -0.00203190 -0.01233380 -0.08739550
v -0.00203190 -0.01233380 -0.08339550
v -0.00203190 -0.01233380 -0.07939550
v -0.00222290 -0.01230080 -0.06834890
v -0.00222290 -0.01230080 -0.06434890
v -0.00222290 -0.01230080 -0.06034890
v -0.00241350 -0.01226480 -0.04930210
v -0.00241350 -0.01226480 -0.04530210
v -0.00241350 -0.01226480 -0.04130210
v 0.00241350 -0.01226480 -0.01247600
v 0.00241350 -0.01226480 -0.00847600
v 0.00241350 -0.01226480 -0.00447600
v 0.00260380 -0.01222580 -0.03152290
v -0.00260380 -0.01222580 -0.03025530
v 0.00260380 -0.01222580 -0.02752290
v -0.00260380 -0.01222580 -0.02625520
v 0.00260380 -0.01222580 -0.02352290
v -0.00260380 -0.01222580 -0.02225520
v 0.00263350 -0.01221940 -0.10000000
v 0.00263350 -0.01221940 0.00000000
v 0.00263350 -0.01221940 -0.05053020
v 0.00263350 -0.01221940 -0.04253020
v 0.00263350 -0.01221940 -0.01253020
v 0.00263350 -0.01221940 -0.00453020
v 0.00263360 -0.01221940 -0.06953020
v 0.00263360 -0.01221940 -0.06153020
v 0.00263360 -0.01221940 -0.08853020
v 0.00263360 -0.01221940 -0.08053030
v 0.00279350 -0.01218380 -0.05056990
v 0.00279350 -0.01218380 -0.04656990
v 0.00279350 -0.01218380 -0.04256990
v -0.00279350 -0.01218380 -0.01120830
v -0.00279350 -0.01218380 -0.00720830
v -0.00279350 -0.01218380 -0.00320830
v 0.00298280 -0.01213890 -0.06961700
v 0.00298280 -0.01213890 -0.06561700
v 0.00298280 -0.01213890 -0.06161700
v 0.00317140 -0.01209100 -0.08866410
v 0.00317140 -0.01209100 -0.08466410
v 0.00317140 -0.01209100 -0.08066410
v -0.00366030 -0.01195210 -0.10000000
v -0.00366030 -0.01195210 0.00000000
v -0.00366030 -0.01195210 -0.08699060
v -0.00366030 -0.01195210 -0.07899060
v -0.00366030 -0.01195210 -0.01099060
v -0.00366030 -0.01195210 -0.00299060
v -0.00366030 -0.01195210 -0.06799060
v -0.00366030 -0.01195210 -0.05999060
v -0.00366030 -0.01195210 -0.02999060
v -0.00366030 -0.01195210 -0.02199060
v -0.00366030 -0.01195210 -0.04899060
v -0.00366030 -0.01195210 -0.04099060
v -0.00373280 -0.01192960 -0.08697220
v -0.00373280 -0.01192960 -0.08297220
v -0.00373280 -0.01192960 -0.07897220
v -0.00391830 -0.01187000 -0.06792490
v -0.00391830 -0.01187000 -0.06392490
v -0.00391830 -0.01187000 -0.05992490
v -0.00410270 -0.01180750 -0.04887760
v -0.00410270 -0.01180750 -0.04487760
v -0.00410270 -0.01180750 -0.04087760
v 0.00410270 -0.01180750 -0.01290060
v 0.00410270 -0.01180750 -0.00890060
v 0.00410270 -0.01180750 -0.00490060
v 0.00428620 -0.01174220 -0.03194790
v -0.00428620 -0.01174220 -0.02983030
v 0.00428620 -0.01174220 -0.02794790
v -0.00428620 -0.01174220 -0.02583030
v 0.00428620 -0.01174220 -0.02394790
v -0.00428620 -0.01174220 -0.02183030
v 0.00446860 -0.01167400 -0.05099510
v 0.00446860 -0.01167400 -0.04699510
v 0.00446860 -0.01167400 -0.04299510
v -0.00446860 -0.01167400 -0.01078300
v -0.00446860 -0.01167400 -0.00678300
v -0.00446860 -0.01167400 -0.00278300
v 0.00464980 -0.01160300 -0.07004230
v 0.00464980 -0.01160300 -0.06604230
v 0.00464980 -0.01160300 -0.06204230
v 0.00466060 -0.01159870 -0.01304510
v 0.00466060 -0.01159870 -0.00504510
v 0.00466060 -0.01159870 -0.03204510
v 0.00466060 -0.01159870 -0.02404510
v 0.00466070 -0.01159860 -0.05104510
v 0.00466070 -0.01159860 -0.04304510
v 0.00466070 -0.01159860 -0.08904520
v 0.00466070 -0.01159860 -0.08104520
v 0.00466070 -0.01159860 -0.10000000
v 0.00466070 -0.01159860 0.00000000
v 0.00482980 -0.01152920 -0.08908940
v 0.00482980 -0.01152920 -0.08508940
v 0.00482980 -0.01152920 -0.08108940
v -0.00536190 -0.01129160 -0.08654790
v -0.00536190 -0.01129160 -0.08254790
v -0.00536190 -0.01129160 -0.07854790
v -0.00553640 -0.01120710 -0.06750130
v -0.00553640 -0.01120710 -0.06350130
v -0.00553640 -0.01120710 -0.05950130
v -0.00562750 -0.01116160 -0.01047680
v -0.00562750 -0.01116160 -0.00247680
v -0.00562750 -0.01116160 -0.02947680
v -0.00562750 -0.01116160 -0.02147680
v -0.00562750 -0.01116160 -0.04847680
v -0.00562750 -0.01116160 -0.04047680
v -0.00562750 -0.01116160 -0.10000000
v -0.00562750 -0.01116160 0.00000000
v -0.00562760 -0.01116160 -0.06747680
v -0.00562760 -0.01116160 -0.05947680
v -0.00562760 -0.01116150 -0.08647680
v -0.00562760 -0.01116150 -0.07847680
v -0.00570940 -0.01111990 -0.04845480
v -0.00570940 -0.01111990 -0.04445480
v -0.00570940 -0.01111990 -0.04045480
v 0.00570940 -0.01111990 -0.01332340
v 0.00570940 -0.01111990 -0.00932340
v 0.00570940 -0.01111990 -0.00532340
v 0.00588100 -0.01103010 -0.03236990
v -0.00588100 -0.01103010 -0.02940820
v 0.00588100 -0.01103010 -0.02836990
v -0.00588100 -0.01103010 -0.02540820
v 0.00588100 -0.01103010 -0.02436990
v -0.00588100 -0.01103010 -0.02140820
v 0.00605150 -0.01093750 -0.05141660
v 0.00605150 -0.01093750 -0.04741660
v 0.00605150 -0.01093750 -0.04341660
v -0.00605150 -0.01093750 -0.01036150
v -0.00605150 -0.01093750 -0.00636150
v -0.00605150 -0.01093750 -0.00236150
v 0.00622060 -0.01084220 -0.07046350
v 0.00622060 -0.01084220 -0.06646350
v 0.00622060 -0.01084220 -0.06246350
v 0.00638840 -0.01074420 -0.08951050
v 0.00638840 -0.01074420 -0.08551050
v 0.00638840 -0.01074420 -0.08151050
v 0.00655380 -0.01064410 -0.10000000
v 0.00655380 -0.01064410 0.00000000
v 0.00655390 -0.01064410 -0.08955730
v 0.00655390 -0.01064410 -0.08155730
v 0.00655390 -0.01064410 -0.07055730
v 0.00655390 -0.01064410 -0.06255730
v 0.00655390 -0.01064410 -0.05155730
v 0.00655390 -0.01064410 -0.04355730
v 0.00655390 -0.01064410 -0.03255730
v 0.00655390 -0.01064410 -0.02455730
v 0.00655400 -0.01064400 -0.01355730
v 0.00655400 -0.01064400 -0.00555730
v -0.00688300 -0.01043430 -0.08612620
v -0.00688300 -0.01043430 -0.08212620
v -0.00688300 -0.01043430 -0.07812620
v -0.00704470 -0.01032580 -0.06707900
v -0.00704470 -0.01032580 -0.06307900
v -0.00704470 -0.01032580 -0.05907900
v -0.00720480 -0.01021480 -0.04803170
v -0.00720480 -0.01021480 -0.04403160
v -0.00720480 -0.01021480 -0.04003170
v 0.00720480 -0.01021480 -0.01374650
v 0.00720480 -0.01021480 -0.00974650
v 0.00720480 -0.01021480 -0.00574650
v 0.00736310 -0.01010130 -0.03279380
v -0.00736310 -0.01010130 -0.02898430
v 0.00736310 -0.01010130 -0.02879380
v -0.00736310 -0.01010130 -0.02498430
v 0.00736310 -0.01010130 -0.02479380
v -0.00736310 -0.01010130 -0.02098430
v -0.00743290 -0.01005000 -0.06696330
v -0.00743290 -0.01005000 -0.05896330
v -0.00743290 -0.01005000 -0.04796330
v -0.00743290 -0.01005000 -0.03996330
v -0.00743290 -0.01005000 -0.08596330
v -0.00743290 -0.01005000 -0.07796330
v -0.00743290 -0.01005000 -0.02896330
v -0.00743290 -0.01005000 -0.02096330
v -0.00743290 -0.01005000 -0.10000000
v -0.00743290 -0.01005000 0.00000000
v -0.00743290 -0.01005000 -0.00996330
v -0.00743290 -0.01005000 -0.00196330
v 0.00751960 -0.00998530 -0.05184110
v 0.00751960 -0.00998530 -0.04784110
v 0.00751960 -0.00998530 -0.04384110
v -0.00751960 -0.00998530 -0.00993700
v -0.00751960 -0.00998530 -0.00593700
v -0.00751960 -0.00998530 -0.00193700
v 0.00767430 -0.00986690 -0.07088840
v 0.00767430 -0.00986690 -0.06688840
v 0.00767430 -0.00986690 -0.06288840
v 0.00782700 -0.00974620 -0.08993570
v 0.00782700 -0.00974620 -0.08593570
v 0.00782700 -0.00974620 -0.08193570
v 0.00825830 -0.00938350 -0.07107220
v 0.00825830 -0.00938350 -0.06307220
v 0.00825830 -0.00938350 -0.05207220
v 0.00825830 -0.00938350 -0.04407220
v 0.00825830 -0.00938350 -0.09007220
v 0.00825830 -0.00938350 -0.08207220
v 0.00825830 -0.00938350 -0.03307220
v 0.00825830 -0.00938350 -0.02507220
v 0.00825840 -0.00938350 -0.01407220
v 0.00825840 -0.00938350 -0.00607220
v 0.00825840 -0.00938340 -0.10000000
v 0.00825840 -0.00938340 0.00000000
v -0.00827340 -0.00937020 -0.08570110
v -0.00827340 -0.00937020 -0.08170110
v -0.00827340 -0.00937020 -0.07770110
v -0.00841800 -0.00924050 -0.06665410
v -0.00841800 -0.00924050 -0.06265410
v -0.00841800 -0.00924050 -0.05865410
v -0.00856050 -0.00910870 -0.04760730
v -0.00856050 -0.00910870 -0.04360730
v -0.00856050 -0.00910870 -0.03960730
v 0.00856050 -0.00910870 -0.01417080
v 0.00856050 -0.00910870 -0.01017080
v 0.00856050 -0.00910870 -0.00617080
v 0.00870080 -0.00897470 -0.03321750
v 0.00870080 -0.00897470 -0.02921750
v -0.00870080 -0.00897470 -0.02856060
v 0.00870080 -0.00897470 -0.02521750
v -0.00870080 -0.00897470 -0.02456060
v -0.00870080 -0.00897470 -0.02056060
v 0.00883880 -0.00883880 -0.05226410
v 0.00883880 -0.00883880 -0.04826410
v 0.00883880 -0.00883880 -0.04426410
v -0.00883880 -0.00883880 -0.00951410
v -0.00883880 -0.00883880 -0.00551410
v -0.00883880 -0.00883880 -0.00151410
v 0.00897470 -0.00870080 -0.07131060
v 0.00897470 -0.00870080 -0.06731060
v 0.00897470 -0.00870080 -0.06331060
v -0.00902450 -0.00864920 -0.10000000
v -0.00902450 -0.00864920 0.00000000
v -0.00902450 -0.00864920 -0.08545030
v -0.00902450 -0.00864920 -0.07745030
v -0.00902450 -0.00864920 -0.06645030
v -0.00902450 -0.00864920 -0.05845030
v -0.00902450 -0.00864910 -0.02845030
v -0.00902450 -0.00864910 -0.02045030
v -0.00902450 -0.00864910 -0.04745030
v -0.00902450 -0.00864910 -0.03945030
v 0.00910870 -0.00856050 -0.09035730
v 0.00910870 -0.00856050 -0.08635730
v 0.00910870 -0.00856050 -0.08235730
v -0.00949780 -0.00812660 -0.08528000
v -0.00949780 -0.00812660 -0.08128000
v -0.00949780 -0.00812660 -0.07728000
v -0.00962310 -0.00797780 -0.06623290
v -0.00962310 -0.00797780 -0.06223290
v -0.00962310 -0.00797780 -0.05823290
v 0.00972540 -0.00785270 -0.10000000
v 0.00972540 -0.00785270 0.00000000
v 0.00972550 -0.00785270 -0.03358450
v 0.00972550 -0.00785270 -0.02558450
v 0.00972550 -0.00785270 -0.09058450
v 0.00972550 -0.00785270 -0.08258450
v 0.00972550 -0.00785270 -0.05258450
v 0.00972550 -0.00785270 -0.04458450
v 0.00972550 -0.00785270 -0.07158450
v 0.00972550 -0.00785270 -0.06358450
v -0.00974620 -0.00782700 -0.04718570
v -0.00974620 -0.00782700 -0.04318570
v -0.00974620 -0.00782700 -0.03918570
v 0.00974620 -0.00782700 -0.01459250
v 0.00974620 -0.00782700 -0.01059250
v 0.00974620 -0.00782700 -0.00659250
v 0.00986690 -0.00767430 -0.03363970
v 0.00986690 -0.00767430 -0.02963970
v -0.00986690 -0.00767430 -0.02813840
v 0.00986690 -0.00767430 -0.02563970
v -0.00986690 -0.00767430 -0.02413840
v -0.00986690 -0.00767430 -0.02013840
v 0.00998530 -0.00751960 -0.05268700
v 0.00998530 -0.00751960 -0.04868700
v 0.00998530 -0.00751960 -0.04468700
v 0.01010130 -0.00736310 -0.07173430
v 0.01010130 -0.00736310 -0.06773430
v 0.01010130 -0.00736310 -0.06373430
v 0.01021480 -0.00720480 -0.09078170
v 0.01021480 -0.00720480 -0.08678170
v 0.01021480 -0.00720480 -0.08278170
v -0.01035630 -0.00699970 -0.02793600
v -0.01035630 -0.00699970 -0.01993600
v -0.01035630 -0.00699970 -0.04693600
v -0.01035630 -0.00699970 -0.03893600
v -0.01035640 -0.00699970 -0.06593600
v -0.01035640 -0.00699970 -0.05793600
v -0.01035640 -0.00699970 -0.08493600
v -0.01035640 -0.00699970 -0.07693600
v -0.01035640 -0.00699970 -0.10000000
v -0.01035640 -0.00699970 0.00000000
v -0.01054020 -0.00671970 -0.08485470
v -0.01054020 -0.00671970 -0.08085470
v -0.01054020 -0.00671970 -0.07685470
v -0.01064350 -0.00655480 -0.06580750
v -0.01064350 -0.00655480 -0.06180750
v -0.01064350 -0.00655480 -0.05780750
v -0.01074420 -0.00638840 -0.04676050
v -0.01074420 -0.00638840 -0.04276050
v -0.01074420 -0.00638840 -0.03876050
v 0.01074420 -0.00638840 -0.01501770
v 0.01074420 -0.00638840 -0.01101770
v 0.01074420 -0.00638840 -0.00701770
v 0.01084220 -0.00622060 -0.03406460
v 0.01084220 -0.00622060 -0.03006460
v -0.01084220 -0.00622060 -0.02771350
v 0.01084220 -0.00622060 -0.02606460
v -0.01084220 -0.00622060 -0.02371350
v -0.01084220 -0.00622060 -0.01971350
v 0.01091260 -0.00609630 -0.09109910
v 0.01091260 -0.00609630 -0.08309910
v 0.01091260 -0.00609620 -0.07209910
v 0.01091260 -0.00609620 -0.06409910
v 0.01091270 -0.00609620 -0.01509910
v 0.01091270 -0.00609620 -0.00709910
v 0.01091270 -0.00609620 -0.03409920
v 0.01091270 -0.00609620 -0.02609920
v 0.01091270 -0.00609620 -0.10000000
v 0.01091270 -0.00609620 0.00000000
v 0.01093750 -0.00605150 -0.05311150
v 0.01093750 -0.00605150 -0.04911150
v 0.01093750 -0.00605150 -0.04511150
v 0.01103010 -0.00588100 -0.07215820
v 0.01103010 -0.00588100 -0.06815820
v 0.01103010 -0.00588100 -0.06415820
v 0.01111990 -0.00570940 -0.09120480
v 0.01111990 -0.00570940 -0.08720480
v 0.01111990 -0.00570940 -0.08320480
v -0.01137350 -0.00518590 -0.08443340
v -0.01137350 -0.00518590 -0.08043340
v -0.01137350 -0.00518590 -0.07643340
v -0.01139040 -0.00514880 -0.10000000
v -0.01139040 -0.00514880 0.00000000
v -0.01139040 -0.00514870 -0.06542350
v -0.01139040 -0.00514870 -0.05742350
v -0.01139040 -0.00514870 -0.04642350
v -0.01139040 -0.00514870 -0.03842350
v -0.01139040 -0.00514870 -0.02742350
v -0.01139040 -0.00514870 -0.01942350
v -0.01145270 -0.00500850 -0.06538650
v -0.01145270 -0.00500850 -0.06138650
v -0.01145270 -0.00500850 -0.05738650
v -0.01152920 -0.00482980 -0.04633940
v -0.01152920 -0.00482980 -0.04233940
v -0.01152920 -0.00482980 -0.03833940
v 0.01152920 -0.00482980 -0.01543870
v 0.01152920 -0.00482980 -0.01143870
v 0.01152920 -0.00482980 -0.00743870
v 0.01160300 -0.00464980 -0.03448580
v 0.01160300 -0.00464980 -0.03048580
v -0.01160300 -0.00464980 -0.02729230
v 0.01160300 -0.00464980 -0.02648580
v -0.01160300 -0.00464980 -0.02329230
v -0.01160300 -0.00464980 -0.01929230
v 0.01167400 -0.00446860 -0.05353300
v 0.01167400 -0.00446860 -0.04953300
v 0.01167400 -0.00446860 -0.04553300
v 0.01174220 -0.00428620 -0.07258030
v 0.01174220 -0.00428620 -0.06858030
v 0.01174220 -0.00428620 -0.06458030
v 0.01178600 -0.00416430 -0.07261170
v 0.01178600 -0.00416430 -0.06461170
v 0.01178600 -0.00416430 -0.05361170
v 0.01178600 -0.00416430 -0.04561170
v 0.01178600 -0.00416420 -0.10000000
v 0.01178600 -0.00416420 0.00000000
v 0.01178600 -0.00416420 -0.03461170
v 0.01178600 -0.00416420 -0.02661170
v 0.01178600 -0.00416420 -0.01561170
v 0.01178600 -0.00416420 -0.00761170
v 0.01180750 -0.00410270 -0.09162760
v 0.01180750 -0.00410270 -0.08762760
v 0.01180750 -0.00410270 -0.08362760
v -0.01198640 -0.00354650 -0.08400860
v -0.01198640 -0.00354650 -0.08000860
v -0.01198640 -0.00354650 -0.07600860
v -0.01204020 -0.00335930 -0.06496140
v -0.01204020 -0.00335930 -0.06096140
v -0.01204020 -0.00335930 -0.05696140
v -0.01209100 -0.00317140 -0.04591410
v -0.01209100 -0.00317140 -0.04191410
v -0.01209100 -0.00317140 -0.03791410
v 0.01209100 -0.00317140 -0.01586400
v 0.01209100 -0.00317140 -0.01186400
v 0.01209100 -0.00317140 -0.00786400
v -0.01209660 -0.00314980 -0.08390870
v -0.01209660 -0.00314980 -0.07590870
v -0.01209660 -0.00314980 -0.06490870
v -0.01209660 -0.00314980 -0.05690870
v -0.01209670 -0.00314970 -0.02690870
v -0.01209670 -0.00314970 -0.01890870
v -0.01209670 -0.00314970 -0.10000000
v -0.01209670 -0.00314970 0.00000000
v 0.01213890 -0.00298280 -0.03491120
v 0.01213890 -0.00298280 -0.03091120
v 0.01213890 -0.00298280 -0.02691120
v -0.01213890 -0.00298280 -0.02686700
v -0.01213890 -0.00298280 -0.02286690
v -0.01213890 -0.00298280 -0.01886700
v 0.01218380 -0.00279350 -0.05395830
v 0.01218380 -0.00279350 -0.04995830
v 0.01218380 -0.00279350 -0.04595830
v 0.01222580 -0.00260380 -0.07300530
v 0.01222580 -0.00260380 -0.06900530
v 0.01222580 -0.00260380 -0.06500530
v 0.01226480 -0.00241350 -0.09205210
v 0.01226480 -0.00241350 -0.08805210
v 0.01226480 -0.00241350 -0.08405210
v 0.01232020 -0.00211260 -0.01612580
v 0.01232020 -0.00211260 -0.00812580
v 0.01232020 -0.00211260 -0.03512580
v 0.01232020 -0.00211260 -0.02712580
v 0.01232020 -0.00211250 -0.05412580
v 0.01232020 -0.00211250 -0.04612580
v 0.01232020 -0.00211250 -0.10000000
v 0.01232020 -0.00211250 0.00000000
v 0.01232020 -0.00211250 -0.07312580
v 0.01232020 -0.00211250 -0.06512580
v 0.01232020 -0.00211250 -0.09212580
v 0.01232020 -0.00211250 -0.08412580
v -0.01236380 -0.00184060 -0.08358620
v -0.01236380 -0.00184060 -0.07958620
v -0.01236380 -0.00184060 -0.07558620
v -0.01239080 -0.00164860 -0.06453950
v -0.01239080 -0.00164860 -0.06053950
v -0.01239080 -0.00164860 -0.05653950
v -0.01241490 -0.00145610 -0.04549280
v -0.01241490 -0.00145610 -0.04149280
v -0.01241490 -0.00145610 -0.03749280
v 0.01241490 -0.00145610 -0.01628540
v 0.01241490 -0.00145610 -0.01228540
v 0.01241490 -0.00145610 -0.00828540
v 0.01243600 -0.00126300 -0.03533230
v 0.01243600 -0.00126300 -0.03133230
v 0.01243600 -0.00126300 -0.02733230
v -0.01243600 -0.00126300 -0.02644590
v -0.01243600 -0.00126300 -0.02244590
v -0.01243600 -0.00126300 -0.01844590
v 0.01245420 -0.00106950 -0.05437930
v 0.01245420 -0.00106950 -0.05037930
v 0.01245420 -0.00106950 -0.04637930
v -0.01245500 -0.00106010 -0.10000000
v -0.01245500 -0.00106010 0.00000000
v -0.01245500 -0.00106000 -0.02639660
v -0.01245500 -0.00106000 -0.01839660
v -0.01245500 -0.00106000 -0.04539660
v -0.01245500 -0.00106000 -0.03739660
v -0.01245500 -0.00106000 -0.06439650
v -0.01245500 -0.00106000 -0.05639650
v -0.01245500 -0.00105990 -0.08339650
v -0.01245500 -0.00105990 -0.07539650
v 0.01246930 -0.00087560 -0.07342640
v 0.01246930 -0.00087560 -0.06942640
v 0.01246930 -0.00087560 -0.06542640
v 0.01248140 -0.00068130 -0.09247360
v 0.01248140 -0.00068130 -0.08847360
v 0.01248140 -0.00068130 -0.08447360
v -0.01249960 -0.00009740 -0.08316270
v -0.01249960 -0.00009740 -0.07916270
v -0.01249960 -0.00009740 -0.07516270
v 0.01250000 0.00000000 -0.09263910
v 0.01250000 0.00000000 -0.08463910
v 0.01250000 0.00000000 -0.06563910
v 0.01250000 0.00000000 -0.07363910
v 0.01250000 0.00000000 -0.10000000
v -0.02100000 0.00000000 0.00000000
v -0.02100000 0.00000000 0.01500000
v 0.00000000 0.00000000 -0.10000000
v 0.01250000 0.00000000 0.00000000
v 0.02100000 0.00000000 0.00000000
v 0.02100000 0.00000000 0.01500000
v 0.01250000 0.00000000 -0.05463910
v 0.01250000 0.00000000 -0.04663910
v 0.01250000 0.00000000 -0.03563910
v 0.01250000 0.00000000 -0.02763910
v 0.01250000 0.00000000 -0.01663910
v 0.01250000 0.00000000 -0.00863910
v -0.01249960 0.00009740 -0.06411540
v -0.01249960 0.00009740 -0.06011540
v -0.01249960 0.00009740 -0.05611540
v -0.01249660 0.00029220 -0.04506810
v -0.01249660 0.00029220 -0.04106810
v -0.01249660 0.00029220 -0.03706810
v 0.01249660 0.00029220 -0.01671000
v 0.01249660 0.00029220 -0.01271000
v 0.01249660 0.00029220 -0.00871000
v 0.01249050 0.00048680 -0.03575730
v 0.01249050 0.00048680 -0.03175730
v 0.01249050 0.00048680 -0.02775730
v -0.01249050 0.00048680 -0.02602080
v -0.01249050 0.00048680 -0.02202080
v -0.01249050 0.00048680 -0.01802080
v 0.01248140 0.00068130 -0.05480460
v 0.01248140 0.00068130 -0.05080460
v 0.01248140 0.00068130 -0.04680460
v 0.01246930 0.00087560 -0.07385170
v 0.01246930 0.00087560 -0.06985170
v 0.01246930 0.00087560 -0.06585170
v -0.01245500 0.00105990 -0.04488160
v -0.01245500 0.00105990 -0.03688160
v -0.01245500 0.00105990 -0.06388160
v -0.01245500 0.00105990 -0.05588160
v -0.01245500 0.00105990 -0.02588160
v -0.01245500 0.00105990 -0.01788160
v -0.01245500 0.00106000 -0.08288160
v -0.01245500 0.00106000 -0.07488160
v -0.01245500 0.00106010 -0.10000000
v -0.01245500 0.00106010 0.00000000
v 0.01245420 0.00106950 -0.09289890
v 0.01245420 0.00106950 -0.08889890
v 0.01245420 0.00106950 -0.08489890
v -0.01239080 0.00164860 -0.08273860
v -0.01239080 0.00164860 -0.07873860
v -0.01239080 0.00164860 -0.07473860
v -0.01236380 0.00184060 -0.06369200
v -0.01236380 0.00184060 -0.05969200
v -0.01236380 0.00184060 -0.05569200
v -0.01233380 0.00203190 -0.04464550
v -0.01233380 0.00203190 -0.04064550
v -0.01233380 0.00203190 -0.03664550
v 0.01233380 0.00203190 -0.01713270
v 0.01233380 0.00203190 -0.01313270
v 0.01233380 0.00203190 -0.00913270
v 0.01232020 0.00211250 -0.05515230
v 0.01232020 0.00211250 -0.04715230
v 0.01232020 0.00211250 -0.03615230
v 0.01232020 0.00211250 -0.02815230
v 0.01232020 0.00211250 -0.07415230
v 0.01232020 0.00211250 -0.06615230
v 0.01232020 0.00211250 -0.10000000
v 0.01232020 0.00211250 0.00000000
v 0.01232020 0.00211250 -0.09315230
v 0.01232020 0.00211250 -0.08515230
v 0.01232020 0.00211250 -0.01715230
v 0.01232020 0.00211250 -0.00915230
v 0.01230080 0.00222290 -0.03617930
v 0.01230080 0.00222290 -0.03217930
v 0.01230080 0.00222290 -0.02817930
v -0.01230080 0.00222290 -0.02559890
v -0.01230080 0.00222290 -0.02159890
v -0.01230080 0.00222290 -0.01759890
v 0.01226480 0.00241350 -0.05522600
v 0.01226480 0.00241350 -0.05122600
v 0.01226480 0.00241350 -0.04722600
v 0.01222580 0.00260380 -0.07427290
v 0.01222580 0.00260380 -0.07027290
v 0.01222580 0.00260380 -0.06627290
v 0.01218380 0.00279350 -0.09331990
v 0.01218380 0.00279350 -0.08931990
v 0.01218380 0.00279350 -0.08531990
v -0.01209670 0.00314970 -0.10000000
v -0.01209670 0.00314970 0.00000000
v -0.01209660 0.00314980 -0.08236940
v -0.01209660 0.00314980 -0.07436940
v -0.01209660 0.00314980 -0.06336940
v -0.01209660 0.00314980 -0.05536940
v -0.01209660 0.00314980 -0.02536940
v -0.01209660 0.00314980 -0.01736940
v -0.01209660 0.00314980 -0.04436940
v -0.01209660 0.00314980 -0.03636940
v -0.01204020 0.00335930 -0.08231680
v -0.01204020 0.00335930 -0.07831680
v -0.01204020 0.00335930 -0.07431680
v -0.01198640 0.00354650 -0.06326950
v -0.01198640 0.00354650 -0.05926950
v -0.01198640 0.00354650 -0.05526950
v -0.01192960 0.00373280 -0.04422220
v -0.01192960 0.00373280 -0.04022220
v -0.01192960 0.00373280 -0.03622220
v 0.01192960 0.00373280 -0.01755590
v 0.01192960 0.00373280 -0.01355590
v 0.01192960 0.00373280 -0.00955590
v 0.01187000 0.00391830 -0.03660330
v 0.01187000 0.00391830 -0.03260330
v 0.01187000 0.00391830 -0.02860330
v -0.01187000 0.00391830 -0.02517490
v -0.01187000 0.00391830 -0.02117490
v -0.01187000 0.00391830 -0.01717490
v 0.01180750 0.00410270 -0.05565060
v 0.01180750 0.00410270 -0.05165060
v 0.01180750 0.00410270 -0.04765060
v 0.01178600 0.00416420 -0.01766640
v 0.01178600 0.00416420 -0.00966640
v 0.01178600 0.00416420 -0.03666640
v 0.01178600 0.00416420 -0.02866640
v 0.01178600 0.00416420 -0.10000000
v 0.01178600 0.00416420 0.00000000
v 0.01178600 0.00416430 -0.09366640
v 0.01178600 0.00416430 -0.08566640
v 0.01178600 0.00416430 -0.07466640
v 0.01178600 0.00416430 -0.06666640
v 0.01174220 0.00428620 -0.07469790
v 0.01174220 0.00428620 -0.07069790
v 0.01174220 0.00428620 -0.06669790
v 0.01167400 0.00446860 -0.09374510
v 0.01167400 0.00446860 -0.08974510
v 0.01167400 0.00446860 -0.08574510
v -0.01145270 0.00500850 -0.08189170
v -0.01145270 0.00500850 -0.07789170
v -0.01145270 0.00500850 -0.07389170
v -0.01139040 0.00514870 -0.02485460
v -0.01139040 0.00514870 -0.01685460
v -0.01139040 0.00514870 -0.04385460
v -0.01139040 0.00514870 -0.03585460
v -0.01139040 0.00514870 -0.08185460
v -0.01139040 0.00514870 -0.07385460
v -0.01139040 0.00514880 -0.10000000
v -0.01139040 0.00514880 0.00000000
v -0.01137350 0.00518590 -0.06284470
v -0.01137350 0.00518590 -0.05884470
v -0.01137350 0.00518590 -0.05484470
v -0.01129160 0.00536190 -0.04379790
v -0.01129160 0.00536190 -0.03979790
v -0.01129160 0.00536190 -0.03579790
v 0.01129160 0.00536190 -0.01798020
v 0.01129160 0.00536190 -0.01398020
v 0.01129160 0.00536190 -0.00998020
v 0.01120710 0.00553640 -0.03702680
v 0.01120710 0.00553640 -0.03302680
v 0.01120710 0.00553640 -0.02902680
v -0.01120710 0.00553640 -0.02475130
v -0.01120710 0.00553640 -0.02075130
v -0.01120710 0.00553640 -0.01675130
v 0.01111990 0.00570940 -0.05607340
v 0.01111990 0.00570940 -0.05207340
v 0.01111990 0.00570940 -0.04807340
v 0.01103010 0.00588100 -0.07511990
v 0.01103010 0.00588100 -0.07111990
v 0.01103010 0.00588100 -0.06711990
v 0.01093750 0.00605150 -0.09416660
v 0.01093750 0.00605150 -0.09016660
v 0.01093750 0.00605150 -0.08616660
v 0.01091270 0.00609620 -0.10000000
v 0.01091270 0.00609620 0.00000000
v 0.01091260 0.00609620 -0.07517900
v 0.01091260 0.00609620 -0.06717900
v 0.01091260 0.00609630 -0.05617900
v 0.01091260 0.00609630 -0.04817900
v 0.01091260 0.00609630 -0.01817900
v 0.01091260 0.00609630 -0.01017900
v 0.01091260 0.00609630 -0.03717900
v 0.01091260 0.00609630 -0.02917900
v -0.01064350 0.00655480 -0.08147060
v -0.01064350 0.00655480 -0.07747060
v -0.01064350 0.00655480 -0.07347060
v -0.01054020 0.00671970 -0.06242340
v -0.01054020 0.00671970 -0.05842340
v -0.01054020 0.00671970 -0.05442340
v -0.01043430 0.00688300 -0.04337620
v -0.01043430 0.00688300 -0.03937620
v -0.01043430 0.00688300 -0.03537620
v 0.01043430 0.00688300 -0.01840190
v 0.01043430 0.00688300 -0.01440190
v 0.01043430 0.00688300 -0.01040190
v -0.01035640 0.00699970 -0.04334220
v -0.01035640 0.00699970 -0.03534220
v -0.01035640 0.00699970 -0.10000000
v -0.01035640 0.00699970 0.00000000
v -0.01035640 0.00699970 -0.06234220
v -0.01035640 0.00699970 -0.05434220
v -0.01035640 0.00699970 -0.08134220
v -0.01035640 0.00699970 -0.07334220
v 0.01032580 0.00704470 -0.03744920
v 0.01032580 0.00704470 -0.03344920
v 0.01032580 0.00704470 -0.02944920
v -0.01032580 0.00704470 -0.02432900
v -0.01032580 0.00704470 -0.02032900
v -0.01032580 0.00704470 -0.01632900
v 0.01021480 0.00720480 -0.05649650
v 0.01021480 0.00720480 -0.05249650
v 0.01021480 0.00720480 -0.04849650
v 0.01010130 0.00736310 -0.07554380
v 0.01010130 0.00736310 -0.07154380
v 0.01010130 0.00736310 -0.06754380
v 0.00998530 0.00751960 -0.09459110
v 0.00998530 0.00751960 -0.09059110
v 0.00998530 0.00751960 -0.08659110
v 0.00972550 0.00785270 -0.07569370
v 0.00972550 0.00785270 -0.06769370
v 0.00972550 0.00785270 -0.09469370
v 0.00972550 0.00785270 -0.08669370
v 0.00972550 0.00785270 -0.05669370
v 0.00972550 0.00785270 -0.04869370
v 0.00972550 0.00785270 -0.03769370
v 0.00972550 0.00785270 -0.02969370
v 0.00972550 0.00785270 -0.01869370
v 0.00972550 0.00785270 -0.01069370
v 0.00972540 0.00785270 -0.10000000
v 0.00972540 0.00785270 0.00000000
v -0.00962310 0.00797780 -0.08104520
v -0.00962310 0.00797780 -0.07704520
v -0.00962310 0.00797780 -0.07304520
v -0.00949780 0.00812660 -0.06199810
v -0.00949780 0.00812660 -0.05799810
v -0.00949780 0.00812660 -0.05399810
v -0.00937020 0.00827340 -0.04295110
v -0.00937020 0.00827340 -0.03895110
v -0.00937020 0.00827340 -0.03495110
v 0.00937020 0.00827340 -0.01882710
v 0.00937020 0.00827340 -0.01482710
v 0.00937020 0.00827340 -0.01082710
v 0.00924050 0.00841800 -0.03787400
v 0.00924050 0.00841800 -0.03387400
v 0.00924050 0.00841800 -0.02987400
v -0.00924050 0.00841800 -0.02390410
v -0.00924050 0.00841800 -0.01990410
v -0.00924050 0.00841800 -0.01590410
v 0.00910870 0.00856050 -0.05692080
v 0.00910870 0.00856050 -0.05292080
v 0.00910870 0.00856050 -0.04892080
v -0.00902450 0.00864920 -0.08082790
v -0.00902450 0.00864920 -0.07282780
v -0.00902450 0.00864920 -0.06182780
v -0.00902450 0.00864920 -0.05382780
v -0.00902450 0.00864920 -0.04282780
v -0.00902450 0.00864920 -0.03482780
v -0.00902450 0.00864920 -0.10000000
v -0.00902450 0.00864920 0.00000000
v -0.00902440 0.00864920 -0.02382780
v -0.00902440 0.00864920 -0.01582780
v 0.00897470 0.00870080 -0.07596750
v 0.00897470 0.00870080 -0.07196750
v 0.00897470 0.00870080 -0.06796750
v 0.00883880 0.00883880 -0.09501410
v 0.00883880 0.00883880 -0.09101410
v 0.00883880 0.00883880 -0.08701410
v -0.00841800 0.00924050 -0.08062400
v -0.00841800 0.00924050 -0.07662400
v -0.00841800 0.00924050 -0.07262400
v -0.00827340 0.00937020 -0.06157710
v -0.00827340 0.00937020 -0.05757710
v -0.00827340 0.00937020 -0.05357710
v 0.00825840 0.00938340 -0.10000000
v 0.00825840 0.00938340 0.00000000
v 0.00825840 0.00938340 -0.01920590
v 0.00825840 0.00938340 -0.01120590
v 0.00825840 0.00938350 -0.03820590
v 0.00825840 0.00938350 -0.03020590
v 0.00825830 0.00938350 -0.05720590
v 0.00825830 0.00938350 -0.04920590
v 0.00825830 0.00938350 -0.07620590
v 0.00825830 0.00938350 -0.06820590
v -0.00812660 0.00949780 -0.04253000
v -0.00812660 0.00949780 -0.03853000
v -0.00812660 0.00949780 -0.03453000
v 0.00812660 0.00949780 -0.01924810
v 0.00812660 0.00949780 -0.01524810
v 0.00812660 0.00949780 -0.01124810
v 0.00797780 0.00962310 -0.03829520
v 0.00797780 0.00962310 -0.03429520
v 0.00797780 0.00962310 -0.03029520
v -0.00797780 0.00962310 -0.02348290
v -0.00797780 0.00962310 -0.01948290
v -0.00797780 0.00962310 -0.01548290
v 0.00782700 0.00974620 -0.05734250
v 0.00782700 0.00974620 -0.05334250
v 0.00782700 0.00974620 -0.04934240
v 0.00767430 0.00986690 -0.07638970
v 0.00767430 0.00986690 -0.07238970
v 0.00767430 0.00986690 -0.06838970
v -0.00743290 0.01005000 -0.02331480
v -0.00743290 0.01005000 -0.01531480
v -0.00743290 0.01005000 -0.10000000
v -0.00743290 0.01005000 0.00000000
v -0.00743290 0.01005000 -0.04231480
v -0.00743290 0.01005000 -0.03431480
v -0.00743290 0.01005000 -0.06131480
v -0.00743290 0.01005000 -0.05331480
v -0.00743290 0.01005000 -0.08031480
v -0.00743290 0.01005000 -0.07231480
v -0.00704470 0.01032580 -0.08019920
v -0.00704470 0.01032580 -0.07619920
v -0.00704470 0.01032580 -0.07219920
v -0.00688300 0.01043430 -0.06115190
v -0.00688300 0.01043430 -0.05715190
v -0.00688300 0.01043430 -0.05315190
v -0.00671970 0.01054020 -0.04210470
v -0.00671970 0.01054020 -0.03810470
v -0.00671970 0.01054020 -0.03410470
v 0.00671970 0.01054020 -0.01967340
v 0.00671970 0.01054020 -0.01567340
v 0.00671970 0.01054020 -0.01167340
v 0.00655480 0.01064350 -0.03872060
v 0.00655480 0.01064350 -0.03472060
v 0.00655480 0.01064350 -0.03072060
v -0.00655480 0.01064350 -0.02305750
v -0.00655480 0.01064350 -0.01905750
v -0.00655480 0.01064350 -0.01505750
v 0.00655390 0.01064410 -0.07672090
v 0.00655390 0.01064410 -0.06872090
v 0.00655390 0.01064410 -0.01972090
v 0.00655390 0.01064410 -0.01172090
v 0.00655390 0.01064410 -0.05772090
v 0.00655390 0.01064410 -0.04972090
v 0.00655380 0.01064410 -0.10000000
v 0.00655380 0.01064410 0.00000000
v 0.00638840 0.01074420 -0.05776770
v 0.00638840 0.01074420 -0.05376770
v 0.00638840 0.01074420 -0.04976770
v 0.00622060 0.01084220 -0.07681460
v 0.00622060 0.01084220 -0.07281460
v 0.00622060 0.01084220 -0.06881460
v -0.00562760 0.01116150 -0.06080130
v -0.00562760 0.01116150 -0.05280130
v -0.00562760 0.01116160 -0.04180130
v -0.00562760 0.01116160 -0.03380130
v -0.00562760 0.01116160 -0.07980130
v -0.00562760 0.01116160 -0.07180130
v -0.00562760 0.01116160 -0.02280130
v -0.00562760 0.01116160 -0.01480130
v -0.00562750 0.01116160 -0.10000000
v -0.00562750 0.01116160 0.00000000
v -0.00553640 0.01120710 -0.07977690
v -0.00553640 0.01120710 -0.07577690
v -0.00553640 0.01120710 -0.07177690
v -0.00536190 0.01129160 -0.06073020
v -0.00536190 0.01129160 -0.05673020
v -0.00536190 0.01129160 -0.05273020
v -0.00518590 0.01137350 -0.04168340
v -0.00518590 0.01137350 -0.03768340
v -0.00518590 0.01137350 -0.03368340
v 0.00518590 0.01137350 -0.02009470
v 0.00518590 0.01137350 -0.01609470
v 0.00518590 0.01137350 -0.01209470
v 0.00500850 0.01145270 -0.03914170
v 0.00500850 0.01145270 -0.03514170
v 0.00500850 0.01145270 -0.03114170
v -0.00500850 0.01145270 -0.02263650
v -0.00500850 0.01145270 -0.01863650
v -0.00500850 0.01145270 -0.01463650
v 0.00482980 0.01152920 -0.05818870
v 0.00482980 0.01152920 -0.05418870
v 0.00482980 0.01152920 -0.05018870
v 0.00466070 0.01159860 -0.10000000
v 0.00466070 0.01159860 0.00000000
v 0.00466070 0.01159860 -0.05823300
v 0.00466070 0.01159860 -0.05023300
v 0.00466070 0.01159860 -0.03923300
v 0.00466070 0.01159860 -0.03123300
v 0.00466060 0.01159860 -0.02023300
v 0.00466060 0.01159860 -0.01223300
v 0.00464980 0.01160300 -0.07723580
v 0.00464980 0.01160300 -0.07323580
v 0.00464980 0.01160300 -0.06923580
v -0.00391830 0.01187000 -0.07935330
v -0.00391830 0.01187000 -0.07535330
v -0.00391830 0.01187000 -0.07135330
v -0.00373280 0.01192960 -0.06030590
v -0.00373280 0.01192960 -0.05630590
v -0.00373280 0.01192960 -0.05230590
v -0.00366030 0.01195210 -0.07928750
v -0.00366030 0.01195210 -0.07128750
v -0.00366030 0.01195210 -0.06028750
v -0.00366030 0.01195210 -0.05228750
v -0.00366030 0.01195210 -0.10000000
v -0.00366030 0.01195210 0.00000000
v -0.00366030 0.01195210 -0.04128750
v -0.00366030 0.01195210 -0.03328750
v -0.00366030 0.01195210 -0.02228750
v -0.00366030 0.01195210 -0.01428750
v -0.00354650 0.01198640 -0.04125860
v -0.00354650 0.01198640 -0.03725860
v -0.00354650 0.01198640 -0.03325860
v 0.00354650 0.01198640 -0.02051950
v 0.00354650 0.01198640 -0.01651950
v 0.00354650 0.01198640 -0.01251950
v 0.00335930 0.01204020 -0.03956680
v 0.00335930 0.01204020 -0.03556680
v 0.00335930 0.01204020 -0.03156680
v -0.00335930 0.01204020 -0.02221140
v -0.00335930 0.01204020 -0.01821130
v -0.00335930 0.01204020 -0.01421140
v 0.00317140 0.01209100 -0.05861400
v 0.00317140 0.01209100 -0.05461400
v 0.00317140 0.01209100 -0.05061400
v 0.00298280 0.01213890 -0.07766120
v 0.00298280 0.01213890 -0.07366120
v 0.00298280 0.01213890 -0.06966120
v 0.00263360 0.01221940 -0.02074790
v 0.00263360 0.01221940 -0.01274790
v 0.00263360 0.01221940 -0.03974790
v 0.00263360 0.01221940 -0.03174790
v 0.00263360 0.01221940 -0.05874790
v 0.00263360 0.01221940 -0.05074790
v 0.00263360 0.01221940 -0.07774790
v 0.00263360 0.01221940 -0.06974790
v 0.00263350 0.01221940 -0.10000000
v 0.00263350 0.01221940 0.00000000
v -0.00222290 0.01230080 -0.07892930
v -0.00222290 0.01230080 -0.07492930
v -0.00222290 0.01230080 -0.07092930
v -0.00203190 0.01233380 -0.05988270
v -0.00203190 0.01233380 -0.05588270
v -0.00203190 0.01233380 -0.05188270
v -0.00184060 0.01236380 -0.04083620
v -0.00184060 0.01236380 -0.03683620
v -0.00184060 0.01236380 -0.03283620
v 0.00184060 0.01236380 -0.02094200
v 0.00184060 0.01236380 -0.01694200
v 0.00184060 0.01236380 -0.01294200
v 0.00164860 0.01239080 -0.03998860
v 0.00164860 0.01239080 -0.03598860
v 0.00164860 0.01239080 -0.03198860
v -0.00164860 0.01239080 -0.02178950
v -0.00164860 0.01239080 -0.01778950
v -0.00164860 0.01239080 -0.01378950
v -0.00158770 0.01239880 -0.10000000
v -0.00158770 0.01239880 0.00000000
v -0.00158760 0.01239880 -0.04077470
v -0.00158760 0.01239880 -0.03277470
v -0.00158760 0.01239880 -0.05977470
v -0.00158760 0.01239880 -0.05177470
v -0.00158760 0.01239880 -0.07877470
v -0.00158760 0.01239880 -0.07077470
v 0.00145610 0.01241490 -0.05903540
v 0.00145610 0.01241490 -0.05503540
v 0.00145610 0.01241490 -0.05103540
v 0.00126300 0.01243600 -0.07808230
v 0.00126300 0.01243600 -0.07408230
v 0.00126300 0.01243600 -0.07008230
v 0.00053050 0.01248870 -0.10000000
v 0.00053050 0.01248870 0.00000000
v 0.00053050 0.01248870 -0.07826020
v 0.00053050 0.01248870 -0.07026020
v 0.00053040 0.01248870 -0.05926020
v 0.00053040 0.01248870 -0.05126020
v 0.00053040 0.01248870 -0.04026020
v 0.00053040 0.01248870 -0.03226020
v 0.00053040 0.01248870 -0.02126020
v 0.00053040 0.01248870 -0.01326020
v -0.00048680 0.01249050 -0.07850730
v -0.00048680 0.01249050 -0.07450730
v -0.00048680 0.01249050 -0.07050730
v -0.00029220 0.01249660 -0.05946000
v -0.00029220 0.01249660 -0.05546000
v -0.00029220 0.01249660 -0.05146000
v -0.00009740 0.01249960 -0.04041270
v -0.00009740 0.01249960 -0.03641270
v -0.00009740 0.01249960 -0.03241270
v 0.00009740 0.01249960 -0.02136540
v 0.00009740 0.01249960 -0.01736540
v 0.00009740 0.01249960 -0.01336540
v -0.01050000 0.01818650 0.00000000
v 0.01050000 0.01818650 0.00000000
v -0.01050000 0.01818650 0.01500000
v 0.01050000 0.01818650 0.01500000
f 3 521 1
f 521 520 1
f 2 3 1
f 520 387 1
f 387 345 1
f 345 287 1
f 287 232 1
f 232 164 1
f 164 100 1
f 100 58 1
f 58 2 1
f 524 4 2
f 4 3 2
f 78 147 2
f 147 194 2
f 58 22 2
f 22 78 2
f 194 258 2
f 258 306 2
f 306 524 2
f 4 521 3
f 524 525 4
f 525 521 4
f 49 57 5
f 57 19 5
f 19 11 5
f 6 49 5
f 11 6 5
f 11 45 6
f 59 49 6
f 60 59 6
f 45 46 6
f 46 12 6
f 12 7 6
f 7 50 6
f 50 60 6
f 8 50 7
f 13 8 7
f 12 13 7
f 47 50 8
f 13 9 8
f 9 47 8
f 13 42 9
f 63 62 9
f 62 47 9
f 42 43 9
f 43 14 9
f 14 10 9
f 10 48 9
f 48 63 9
f 14 15 10
f 15 23 10
f 23 48 10
f 19 44 11
f 44 45 11
f 41 13 12
f 46 41 12
f 41 42 13
f 43 35 14
f 35 15 14
f 35 36 15
f 36 24 15
f 24 23 15
f 37 29 16
f 29 17 16
f 17 25 16
f 24 37 16
f 25 24 16
f 30 25 17
f 32 30 17
f 31 32 17
f 29 31 17
f 33 68 18
f 68 26 18
f 26 20 18
f 20 34 18
f 32 33 18
f 34 32 18
f 77 85 19
f 85 44 19
f 522 77 19
f 57 522 19
f 38 34 20
f 27 38 20
f 26 27 20
f 22 40 21
f 28 22 21
f 27 28 21
f 39 27 21
f 40 39 21
f 28 78 22
f 56 40 22
f 58 56 22
f 51 48 23
f 24 51 23
f 65 51 24
f 66 65 24
f 36 37 24
f 25 52 24
f 52 66 24
f 30 52 25
f 69 27 26
f 68 69 26
f 70 28 27
f 69 70 27
f 39 38 27
f 70 78 28
f 37 71 29
f 73 31 29
f 71 73 29
f 53 52 30
f 32 53 30
f 73 75 31
f 75 33 31
f 33 32 31
f 72 53 32
f 74 72 32
f 34 54 32
f 54 74 32
f 75 81 33
f 81 68 33
f 38 54 34
f 43 79 35
f 79 88 35
f 88 36 35
f 88 80 36
f 80 37 36
f 80 71 37
f 55 54 38
f 39 55 38
f 90 55 39
f 91 90 39
f 40 56 39
f 56 91 39
f 46 83 41
f 83 94 41
f 94 42 41
f 94 84 42
f 84 43 42
f 84 79 43
f 97 45 44
f 85 97 44
f 97 86 45
f 86 46 45
f 86 83 46
f 62 61 47
f 61 50 47
f 51 64 48
f 64 63 48
f 59 99 49
f 99 57 49
f 61 60 50
f 65 64 51
f 53 67 52
f 67 66 52
f 72 67 53
f 55 76 54
f 76 74 54
f 90 76 55
f 58 92 56
f 92 91 56
f 99 522 57
f 100 92 58
f 101 99 59
f 60 101 59
f 112 101 60
f 61 112 60
f 62 102 61
f 102 112 61
f 105 102 62
f 63 105 62
f 115 105 63
f 64 115 63
f 65 106 64
f 106 115 64
f 109 106 65
f 66 109 65
f 118 109 66
f 67 118 66
f 72 110 67
f 110 118 67
f 121 69 68
f 81 121 68
f 82 70 69
f 121 82 69
f 82 78 70
f 80 123 71
f 125 73 71
f 123 125 71
f 107 110 72
f 74 107 72
f 125 127 73
f 127 75 73
f 126 107 74
f 76 126 74
f 127 120 75
f 120 81 75
f 90 108 76
f 108 126 76
f 146 96 77
f 96 85 77
f 522 146 77
f 82 147 78
f 84 87 79
f 87 88 79
f 89 123 80
f 88 89 80
f 120 121 81
f 122 147 82
f 121 122 82
f 86 93 83
f 93 94 83
f 95 129 84
f 129 87 84
f 94 95 84
f 96 97 85
f 98 93 86
f 97 98 86
f 129 130 87
f 130 88 87
f 130 131 88
f 131 89 88
f 131 140 89
f 140 123 89
f 103 108 90
f 91 103 90
f 133 103 91
f 92 133 91
f 100 104 92
f 104 133 92
f 98 135 93
f 136 94 93
f 135 136 93
f 136 137 94
f 137 95 94
f 137 142 95
f 142 129 95
f 146 144 96
f 144 97 96
f 144 149 97
f 149 150 97
f 150 145 97
f 145 98 97
f 145 135 98
f 101 163 99
f 163 522 99
f 164 158 100
f 158 134 100
f 134 104 100
f 111 163 101
f 112 111 101
f 105 113 102
f 113 112 102
f 128 108 103
f 132 128 103
f 133 132 103
f 134 133 104
f 114 153 105
f 153 113 105
f 115 114 105
f 109 116 106
f 116 115 106
f 119 110 107
f 124 119 107
f 126 124 107
f 128 126 108
f 156 116 109
f 117 156 109
f 118 117 109
f 119 118 110
f 151 163 111
f 112 151 111
f 152 151 112
f 113 152 112
f 153 152 113
f 168 153 114
f 154 168 114
f 115 154 114
f 155 154 115
f 116 155 115
f 156 155 116
f 166 156 117
f 161 166 117
f 118 161 117
f 170 169 118
f 169 161 118
f 119 162 118
f 162 170 118
f 124 162 119
f 127 138 120
f 138 121 120
f 138 173 121
f 173 174 121
f 174 139 121
f 139 122 121
f 139 147 122
f 140 125 123
f 159 162 124
f 126 159 124
f 140 177 125
f 177 179 125
f 179 141 125
f 141 127 125
f 178 176 126
f 176 159 126
f 128 160 126
f 160 178 126
f 141 138 127
f 132 160 128
f 142 130 129
f 142 182 130
f 182 183 130
f 183 143 130
f 143 131 130
f 143 140 131
f 157 160 132
f 133 157 132
f 185 184 133
f 184 157 133
f 134 158 133
f 158 185 133
f 145 187 135
f 188 136 135
f 187 188 135
f 188 189 136
f 189 137 136
f 189 181 137
f 181 142 137
f 141 172 138
f 172 173 138
f 194 147 139
f 174 194 139
f 143 175 140
f 175 177 140
f 179 172 141
f 181 182 142
f 183 175 143
f 146 148 144
f 148 149 144
f 150 187 145
f 190 148 146
f 193 190 146
f 522 193 146
f 190 191 148
f 191 149 148
f 191 192 149
f 192 150 149
f 197 187 150
f 192 197 150
f 167 163 151
f 152 167 151
f 206 167 152
f 153 206 152
f 168 206 153
f 165 168 154
f 155 165 154
f 209 165 155
f 156 209 155
f 166 209 156
f 230 222 157
f 180 160 157
f 222 180 157
f 184 230 157
f 164 186 158
f 186 185 158
f 171 162 159
f 213 171 159
f 176 213 159
f 180 178 160
f 210 166 161
f 169 210 161
f 171 170 162
f 167 231 163
f 231 522 163
f 232 186 164
f 207 168 165
f 208 207 165
f 209 208 165
f 210 209 166
f 205 231 167
f 206 205 167
f 207 206 168
f 224 210 169
f 211 224 169
f 170 211 169
f 212 211 170
f 171 212 170
f 213 212 171
f 179 203 172
f 203 215 172
f 215 173 172
f 215 204 173
f 204 174 173
f 204 194 174
f 183 201 175
f 219 177 175
f 201 219 175
f 226 213 176
f 218 226 176
f 178 218 176
f 219 202 177
f 202 179 177
f 220 218 178
f 180 220 178
f 202 203 179
f 222 220 180
f 189 199 181
f 236 182 181
f 199 236 181
f 236 200 182
f 200 183 182
f 200 201 183
f 233 230 184
f 185 233 184
f 239 233 185
f 186 239 185
f 232 234 186
f 234 239 186
f 242 188 187
f 197 242 187
f 242 198 188
f 198 189 188
f 198 199 189
f 193 195 190
f 195 245 190
f 245 191 190
f 245 196 191
f 196 192 191
f 196 197 192
f 257 251 193
f 251 244 193
f 244 195 193
f 522 257 193
f 216 258 194
f 204 216 194
f 244 245 195
f 246 241 196
f 241 197 196
f 245 246 196
f 241 242 197
f 243 235 198
f 235 199 198
f 242 243 198
f 235 236 199
f 237 217 200
f 217 201 200
f 236 237 200
f 217 219 201
f 221 214 202
f 214 203 202
f 219 221 202
f 214 215 203
f 215 216 204
f 227 231 205
f 206 227 205
f 260 259 206
f 259 227 206
f 207 228 206
f 228 260 206
f 208 228 207
f 223 228 208
f 209 223 208
f 262 223 209
f 263 262 209
f 210 224 209
f 224 263 209
f 225 224 211
f 212 225 211
f 265 225 212
f 266 265 212
f 213 226 212
f 226 266 212
f 221 255 214
f 255 215 214
f 255 269 215
f 269 270 215
f 270 256 215
f 256 216 215
f 256 258 216
f 237 253 217
f 253 219 217
f 229 226 218
f 220 229 218
f 253 272 219
f 272 274 219
f 274 254 219
f 254 221 219
f 275 273 220
f 273 229 220
f 222 230 220
f 230 275 220
f 254 255 221
f 261 228 223
f 262 261 223
f 225 264 224
f 264 263 224
f 265 264 225
f 229 267 226
f 267 266 226
f 259 231 227
f 261 260 228
f 273 267 229
f 233 276 230
f 276 275 230
f 259 286 231
f 286 522 231
f 287 282 232
f 282 240 232
f 240 234 232
f 238 276 233
f 239 238 233
f 240 239 234
f 243 249 235
f 249 236 235
f 249 278 236
f 278 279 236
f 279 250 236
f 250 237 236
f 250 253 237
f 293 276 238
f 280 293 238
f 239 280 238
f 281 280 239
f 240 281 239
f 282 281 240
f 246 247 241
f 247 242 241
f 247 284 242
f 284 285 242
f 285 248 242
f 248 243 242
f 248 249 243
f 251 245 244
f 251 297 245
f 297 298 245
f 298 252 245
f 252 246 245
f 252 247 246
f 252 283 247
f 283 284 247
f 285 277 248
f 277 249 248
f 277 278 249
f 279 271 250
f 271 253 250
f 257 296 251
f 296 297 251
f 298 283 252
f 271 272 253
f 274 268 254
f 268 255 254
f 268 269 255
f 270 258 256
f 305 296 257
f 522 305 257
f 270 306 258
f 288 286 259
f 260 288 259
f 300 288 260
f 261 300 260
f 262 289 261
f 289 300 261
f 290 289 262
f 263 290 262
f 303 290 263
f 264 303 263
f 265 291 264
f 291 303 264
f 294 291 265
f 266 294 265
f 316 294 266
f 267 316 266
f 273 295 267
f 295 316 267
f 274 318 268
f 319 269 268
f 318 319 268
f 319 320 269
f 320 270 269
f 320 306 270
f 279 307 271
f 307 322 271
f 322 272 271
f 322 308 272
f 308 274 272
f 292 295 273
f 275 292 273
f 308 318 274
f 325 292 275
f 276 325 275
f 293 325 276
f 285 311 277
f 311 328 277
f 328 278 277
f 328 312 278
f 312 279 278
f 312 307 279
f 281 287 280
f 287 293 280
f 282 287 281
f 298 313 283
f 313 331 283
f 331 284 283
f 331 314 284
f 314 285 284
f 314 311 285
f 288 344 286
f 344 522 286
f 326 293 287
f 345 326 287
f 299 344 288
f 300 299 288
f 290 301 289
f 301 300 289
f 302 301 290
f 303 302 290
f 294 304 291
f 304 303 291
f 317 295 292
f 323 317 292
f 325 323 292
f 326 325 293
f 315 304 294
f 316 315 294
f 317 316 295
f 305 309 296
f 334 297 296
f 309 334 296
f 334 310 297
f 310 298 297
f 310 313 298
f 342 344 299
f 300 342 299
f 301 347 300
f 347 342 300
f 302 343 301
f 343 347 301
f 340 343 302
f 303 340 302
f 350 349 303
f 349 340 303
f 304 341 303
f 341 350 303
f 315 341 304
f 333 309 305
f 364 333 305
f 372 364 305
f 522 372 305
f 373 524 306
f 357 373 306
f 320 357 306
f 312 321 307
f 321 322 307
f 324 355 308
f 355 318 308
f 322 324 308
f 333 334 309
f 335 330 310
f 330 313 310
f 334 335 310
f 314 327 311
f 327 328 311
f 329 358 312
f 358 321 312
f 328 329 312
f 330 331 313
f 332 327 314
f 331 332 314
f 338 341 315
f 316 338 315
f 353 352 316
f 352 338 316
f 317 339 316
f 339 353 316
f 323 339 317
f 356 319 318
f 355 356 318
f 356 357 319
f 357 320 319
f 358 359 321
f 359 322 321
f 359 361 322
f 361 324 322
f 336 339 323
f 325 336 323
f 361 368 324
f 368 355 324
f 360 336 325
f 362 360 325
f 326 337 325
f 337 362 325
f 345 337 326
f 332 374 327
f 374 375 327
f 375 328 327
f 375 376 328
f 376 329 328
f 376 370 329
f 370 358 329
f 335 366 330
f 366 331 330
f 366 378 331
f 378 379 331
f 379 367 331
f 367 332 331
f 367 374 332
f 364 334 333
f 364 381 334
f 381 382 334
f 382 365 334
f 365 335 334
f 365 366 335
f 354 339 336
f 360 354 336
f 345 363 337
f 363 362 337
f 351 341 338
f 352 351 338
f 354 353 339
f 348 343 340
f 349 348 340
f 351 350 341
f 346 344 342
f 347 346 342
f 348 347 343
f 346 386 344
f 386 522 344
f 387 393 345
f 393 363 345
f 383 386 346
f 347 383 346
f 384 383 347
f 348 384 347
f 349 385 348
f 385 384 348
f 388 385 349
f 350 388 349
f 395 388 350
f 351 395 350
f 352 389 351
f 389 395 351
f 390 389 352
f 353 390 352
f 398 390 353
f 354 398 353
f 360 391 354
f 391 398 354
f 368 356 355
f 368 401 356
f 401 402 356
f 402 369 356
f 369 357 356
f 369 373 357
f 370 359 358
f 370 404 359
f 404 406 359
f 406 371 359
f 371 361 359
f 392 391 360
f 362 392 360
f 371 368 361
f 407 392 362
f 363 407 362
f 393 407 363
f 372 380 364
f 380 381 364
f 382 412 365
f 412 377 365
f 377 366 365
f 377 378 366
f 379 409 367
f 409 374 367
f 371 400 368
f 400 401 368
f 402 420 369
f 420 373 369
f 376 403 370
f 403 404 370
f 406 400 371
f 419 380 372
f 522 419 372
f 420 524 373
f 409 410 374
f 410 375 374
f 410 411 375
f 411 376 375
f 411 403 376
f 413 378 377
f 412 413 377
f 413 414 378
f 414 379 378
f 414 417 379
f 417 409 379
f 419 425 380
f 425 426 380
f 426 381 380
f 426 427 381
f 427 382 381
f 427 415 382
f 415 412 382
f 446 386 383
f 428 446 383
f 384 428 383
f 429 428 384
f 385 429 384
f 388 430 385
f 430 429 385
f 446 522 386
f 520 447 387
f 447 408 387
f 408 393 387
f 394 430 388
f 395 394 388
f 390 396 389
f 396 395 389
f 433 396 390
f 397 433 390
f 398 397 390
f 392 399 391
f 399 398 391
f 405 399 392
f 407 405 392
f 408 407 393
f 441 430 394
f 431 441 394
f 395 431 394
f 396 432 395
f 432 431 395
f 433 432 396
f 443 433 397
f 434 443 397
f 398 434 397
f 435 434 398
f 399 435 398
f 405 436 399
f 436 435 399
f 406 423 400
f 438 401 400
f 423 438 400
f 438 424 401
f 424 402 401
f 424 420 402
f 411 421 403
f 449 404 403
f 421 449 403
f 449 422 404
f 422 406 404
f 444 436 405
f 407 444 405
f 422 423 406
f 452 451 407
f 451 444 407
f 408 445 407
f 445 452 407
f 447 445 408
f 417 410 409
f 455 456 410
f 417 455 410
f 456 418 410
f 418 411 410
f 418 421 411
f 415 413 412
f 415 458 413
f 458 459 413
f 459 416 413
f 416 414 413
f 416 417 414
f 427 457 415
f 457 458 415
f 459 454 416
f 454 417 416
f 454 455 417
f 456 448 418
f 448 421 418
f 469 473 419
f 473 460 419
f 460 425 419
f 522 469 419
f 470 524 420
f 424 439 420
f 439 470 420
f 448 449 421
f 450 437 422
f 437 423 422
f 449 450 422
f 437 438 423
f 438 439 424
f 460 461 425
f 461 426 425
f 461 462 426
f 462 427 426
f 462 457 427
f 440 446 428
f 429 440 428
f 475 440 429
f 476 475 429
f 430 441 429
f 441 476 429
f 442 441 431
f 432 442 431
f 478 442 432
f 479 478 432
f 433 443 432
f 443 479 432
f 480 443 434
f 481 480 434
f 435 481 434
f 482 481 435
f 436 482 435
f 444 483 436
f 483 482 436
f 450 463 437
f 463 438 437
f 463 485 438
f 485 486 438
f 486 464 438
f 464 439 438
f 464 470 439
f 496 446 440
f 475 496 440
f 442 477 441
f 477 476 441
f 478 477 442
f 480 479 443
f 451 483 444
f 447 453 445
f 453 452 445
f 496 522 446
f 520 497 447
f 492 453 447
f 497 492 447
f 456 465 448
f 465 449 448
f 465 488 449
f 488 489 449
f 489 466 449
f 466 450 449
f 466 463 450
f 501 483 451
f 490 501 451
f 452 490 451
f 491 490 452
f 453 491 452
f 492 491 453
f 459 467 454
f 467 455 454
f 467 494 455
f 494 495 455
f 495 468 455
f 468 456 455
f 468 465 456
f 462 471 457
f 507 458 457
f 471 507 457
f 507 472 458
f 472 459 458
f 472 467 459
f 473 510 460
f 510 461 460
f 510 474 461
f 474 462 461
f 474 471 462
f 466 484 463
f 484 485 463
f 523 470 464
f 486 523 464
f 468 487 465
f 487 488 465
f 489 484 466
f 472 493 467
f 493 494 467
f 495 487 468
f 519 509 469
f 509 473 469
f 522 519 469
f 523 524 470
f 474 506 471
f 506 507 471
f 508 493 472
f 507 508 472
f 509 510 473
f 511 506 474
f 510 511 474
f 504 496 475
f 476 504 475
f 513 504 476
f 477 513 476
f 478 505 477
f 505 513 477
f 502 505 478
f 479 502 478
f 533 502 479
f 480 533 479
f 481 503 480
f 503 533 480
f 500 503 481
f 482 500 481
f 536 500 482
f 483 536 482
f 501 536 483
f 489 530 484
f 530 539 484
f 539 485 484
f 539 531 485
f 531 486 485
f 531 523 486
f 495 528 487
f 528 542 487
f 542 488 487
f 542 529 488
f 529 489 488
f 529 530 489
f 498 501 490
f 491 498 490
f 545 498 491
f 492 545 491
f 497 499 492
f 499 545 492
f 508 526 493
f 548 494 493
f 526 548 493
f 548 527 494
f 527 495 494
f 527 528 495
f 504 561 496
f 561 522 496
f 520 562 497
f 562 558 497
f 558 546 497
f 546 499 497
f 537 501 498
f 544 537 498
f 545 544 498
f 546 545 499
f 534 503 500
f 535 534 500
f 536 535 500
f 537 536 501
f 514 505 502
f 532 514 502
f 533 532 502
f 534 533 503
f 512 561 504
f 513 512 504
f 514 513 505
f 511 518 506
f 518 507 506
f 551 517 507
f 518 551 507
f 517 508 507
f 517 526 508
f 519 515 509
f 515 510 509
f 515 564 510
f 564 565 510
f 565 516 510
f 516 511 510
f 516 518 511
f 559 561 512
f 513 559 512
f 567 566 513
f 566 559 513
f 514 560 513
f 560 567 513
f 532 560 514
f 519 563 515
f 563 564 515
f 565 550 516
f 550 518 516
f 552 547 517
f 547 526 517
f 551 552 517
f 550 551 518
f 586 563 519
f 584 586 519
f 522 584 519
f 521 999 520
f 999 997 520
f 606 562 520
f 997 712 520
f 712 662 520
f 662 606 520
f 525 999 521
f 687 640 522
f 640 584 522
f 849 787 522
f 787 742 522
f 742 687 522
f 975 941 522
f 941 888 522
f 888 849 522
f 865 909 522
f 909 961 522
f 961 975 522
f 711 771 522
f 771 817 522
f 817 865 522
f 561 605 522
f 605 661 522
f 661 711 522
f 585 524 523
f 540 585 523
f 531 540 523
f 998 525 524
f 585 641 524
f 641 688 524
f 688 998 524
f 998 1000 525
f 1000 999 525
f 547 548 526
f 549 541 527
f 541 528 527
f 548 549 527
f 541 542 528
f 543 575 529
f 575 538 529
f 538 530 529
f 542 543 529
f 538 539 530
f 539 540 531
f 555 560 532
f 533 555 532
f 570 569 533
f 569 555 533
f 534 556 533
f 556 570 533
f 535 556 534
f 553 556 535
f 536 553 535
f 572 553 536
f 573 572 536
f 537 554 536
f 554 573 536
f 544 554 537
f 576 539 538
f 575 576 538
f 576 577 539
f 577 540 539
f 577 585 540
f 549 580 541
f 580 542 541
f 580 591 542
f 591 592 542
f 592 581 542
f 581 543 542
f 581 588 543
f 588 575 543
f 557 554 544
f 545 557 544
f 593 557 545
f 594 593 545
f 546 558 545
f 558 594 545
f 552 578 547
f 578 548 547
f 578 597 548
f 597 598 548
f 598 579 548
f 579 549 548
f 579 580 549
f 565 582 550
f 582 551 550
f 582 600 551
f 600 601 551
f 601 583 551
f 583 552 551
f 583 578 552
f 571 556 553
f 572 571 553
f 557 574 554
f 574 573 554
f 568 560 555
f 569 568 555
f 571 570 556
f 593 574 557
f 562 595 558
f 595 594 558
f 566 561 559
f 568 567 560
f 566 605 561
f 606 595 562
f 586 603 563
f 603 564 563
f 603 587 564
f 587 565 564
f 587 582 565
f 607 605 566
f 567 607 566
f 616 607 567
f 568 616 567
f 569 608 568
f 608 616 568
f 609 608 569
f 570 609 569
f 619 609 570
f 571 619 570
f 572 610 571
f 610 619 571
f 613 610 572
f 573 613 572
f 622 613 573
f 574 622 573
f 593 614 574
f 614 622 574
f 625 576 575
f 588 625 575
f 625 589 576
f 589 577 576
f 589 585 577
f 583 596 578
f 596 597 578
f 598 627 579
f 627 590 579
f 590 580 579
f 590 591 580
f 592 624 581
f 624 588 581
f 587 599 582
f 599 600 582
f 601 596 583
f 602 586 584
f 640 602 584
f 589 641 585
f 602 603 586
f 604 599 587
f 603 604 587
f 624 625 588
f 626 641 589
f 625 626 589
f 628 591 590
f 627 628 590
f 628 629 591
f 629 592 591
f 629 636 592
f 636 624 592
f 611 614 593
f 594 611 593
f 631 611 594
f 595 631 594
f 606 612 595
f 612 631 595
f 601 633 596
f 633 634 596
f 634 597 596
f 634 635 597
f 635 598 597
f 635 638 598
f 638 627 598
f 604 644 599
f 647 600 599
f 644 647 599
f 647 645 600
f 645 601 600
f 645 633 601
f 640 642 602
f 642 650 602
f 650 603 602
f 650 643 603
f 643 604 603
f 643 644 604
f 615 661 605
f 607 615 605
f 632 612 606
f 656 632 606
f 662 656 606
f 616 615 607
f 609 617 608
f 617 616 608
f 654 617 609
f 618 654 609
f 619 618 609
f 613 620 610
f 620 619 610
f 623 614 611
f 630 623 611
f 631 630 611
f 632 631 612
f 621 620 613
f 622 621 613
f 623 622 614
f 652 661 615
f 616 652 615
f 617 653 616
f 653 652 616
f 654 653 617
f 660 654 618
f 663 660 618
f 619 663 618
f 664 663 619
f 620 664 619
f 621 665 620
f 665 664 620
f 657 665 621
f 622 657 621
f 667 666 622
f 666 657 622
f 658 667 622
f 623 658 622
f 630 658 623
f 636 625 624
f 636 670 625
f 670 671 625
f 671 637 625
f 637 626 625
f 637 641 626
f 638 628 627
f 638 673 628
f 673 674 628
f 674 639 628
f 639 629 628
f 639 636 629
f 655 658 630
f 631 655 630
f 676 675 631
f 675 655 631
f 656 676 631
f 632 656 631
f 645 678 633
f 678 679 633
f 679 634 633
f 679 680 634
f 680 635 634
f 680 672 635
f 672 638 635
f 639 669 636
f 669 670 636
f 671 641 637
f 672 673 638
f 674 669 639
f 687 684 640
f 684 649 640
f 649 642 640
f 671 688 641
f 649 650 642
f 651 681 643
f 681 646 643
f 646 644 643
f 650 651 643
f 646 647 644
f 648 678 645
f 647 648 645
f 682 647 646
f 681 682 646
f 682 683 647
f 683 648 647
f 683 691 648
f 691 678 648
f 685 650 649
f 684 685 649
f 686 651 650
f 685 686 650
f 686 689 651
f 689 681 651
f 659 661 652
f 653 659 652
f 697 659 653
f 698 697 653
f 654 660 653
f 660 698 653
f 668 658 655
f 705 668 655
f 675 705 655
f 662 677 656
f 677 676 656
f 702 665 657
f 666 702 657
f 668 667 658
f 711 661 659
f 697 711 659
f 663 699 660
f 699 698 660
f 712 677 662
f 700 699 663
f 664 700 663
f 701 700 664
f 665 701 664
f 702 701 665
f 714 702 666
f 703 714 666
f 667 703 666
f 704 703 667
f 668 704 667
f 705 704 668
f 674 693 669
f 693 707 669
f 707 670 669
f 707 694 670
f 694 671 670
f 694 688 671
f 680 695 672
f 718 673 672
f 695 718 672
f 718 696 673
f 696 674 673
f 696 693 674
f 710 705 675
f 720 710 675
f 676 720 675
f 721 720 676
f 677 721 676
f 712 722 677
f 722 721 677
f 691 724 678
f 724 679 678
f 724 692 679
f 692 680 679
f 692 695 680
f 727 682 681
f 689 727 681
f 727 690 682
f 690 683 682
f 690 691 683
f 687 729 684
f 730 685 684
f 729 730 684
f 731 686 685
f 730 731 685
f 731 726 686
f 726 689 686
f 742 729 687
f 743 998 688
f 694 743 688
f 726 727 689
f 728 723 690
f 723 691 690
f 727 728 690
f 723 724 691
f 725 717 692
f 717 695 692
f 724 725 692
f 696 706 693
f 706 707 693
f 708 743 694
f 707 708 694
f 717 718 695
f 719 706 696
f 718 719 696
f 715 711 697
f 698 715 697
f 745 715 698
f 699 745 698
f 700 716 699
f 716 745 699
f 713 716 700
f 701 713 700
f 747 713 701
f 702 714 701
f 714 748 701
f 748 747 701
f 709 714 703
f 704 709 703
f 750 709 704
f 705 710 704
f 710 751 704
f 751 750 704
f 719 740 706
f 740 707 706
f 740 754 707
f 754 755 707
f 755 741 707
f 741 708 707
f 741 743 708
f 749 714 709
f 750 749 709
f 720 752 710
f 752 751 710
f 744 771 711
f 715 744 711
f 997 772 712
f 772 774 712
f 774 761 712
f 761 722 712
f 746 716 713
f 747 746 713
f 749 748 714
f 745 744 715
f 746 745 716
f 725 738 717
f 738 718 717
f 738 757 718
f 757 758 718
f 758 739 718
f 739 719 718
f 739 740 719
f 759 752 720
f 721 759 720
f 760 759 721
f 722 760 721
f 761 760 722
f 728 736 723
f 736 724 723
f 736 763 724
f 763 764 724
f 764 737 724
f 737 725 724
f 737 738 725
f 731 732 726
f 732 727 726
f 732 776 727
f 776 777 727
f 777 733 727
f 733 728 727
f 733 736 728
f 742 734 729
f 734 730 729
f 779 780 730
f 734 779 730
f 735 731 730
f 780 735 730
f 735 732 731
f 735 775 732
f 775 776 732
f 777 762 733
f 762 736 733
f 742 778 734
f 778 779 734
f 795 775 735
f 780 795 735
f 762 763 736
f 764 756 737
f 756 738 737
f 756 757 738
f 758 753 739
f 753 740 739
f 753 754 740
f 755 743 741
f 787 778 742
f 788 998 743
f 755 788 743
f 765 771 744
f 745 765 744
f 781 765 745
f 782 781 745
f 746 766 745
f 766 782 745
f 747 766 746
f 767 766 747
f 748 767 747
f 784 767 748
f 785 784 748
f 749 768 748
f 768 785 748
f 750 768 749
f 769 768 750
f 751 769 750
f 797 769 751
f 798 797 751
f 752 770 751
f 770 798 751
f 759 770 752
f 758 789 753
f 789 801 753
f 801 754 753
f 801 790 754
f 790 755 754
f 790 788 755
f 764 791 756
f 791 804 756
f 804 757 756
f 804 792 757
f 792 758 757
f 792 789 758
f 773 770 759
f 760 773 759
f 806 773 760
f 761 774 760
f 774 807 760
f 807 806 760
f 777 793 762
f 810 763 762
f 793 810 762
f 810 794 763
f 794 764 763
f 794 791 764
f 781 817 765
f 817 771 765
f 767 783 766
f 783 782 766
f 784 783 767
f 769 786 768
f 786 785 768
f 797 786 769
f 773 799 770
f 799 798 770
f 997 818 772
f 818 808 772
f 808 774 772
f 806 799 773
f 808 807 774
f 795 813 775
f 813 776 775
f 813 796 776
f 796 777 776
f 796 793 777
f 787 779 778
f 787 780 779
f 787 795 780
f 823 817 781
f 782 823 781
f 826 823 782
f 783 826 782
f 784 824 783
f 824 826 783
f 821 824 784
f 785 821 784
f 829 821 785
f 786 829 785
f 797 822 786
f 822 829 786
f 812 795 787
f 849 812 787
f 850 998 788
f 790 850 788
f 792 800 789
f 800 801 789
f 802 850 790
f 801 802 790
f 794 803 791
f 803 804 791
f 805 834 792
f 834 800 792
f 804 805 792
f 796 809 793
f 809 810 793
f 811 803 794
f 810 811 794
f 812 813 795
f 814 809 796
f 813 814 796
f 819 822 797
f 798 819 797
f 832 819 798
f 799 832 798
f 806 820 799
f 820 832 799
f 834 835 800
f 835 801 800
f 835 836 801
f 836 802 801
f 836 850 802
f 811 837 803
f 838 804 803
f 837 838 803
f 838 839 804
f 839 805 804
f 839 845 805
f 845 834 805
f 815 820 806
f 807 815 806
f 840 815 807
f 808 816 807
f 816 841 807
f 841 840 807
f 818 816 808
f 814 847 809
f 847 810 809
f 847 852 810
f 852 853 810
f 853 848 810
f 848 811 810
f 848 837 811
f 849 843 812
f 843 813 812
f 843 855 813
f 855 856 813
f 856 844 813
f 844 814 813
f 844 847 814
f 833 820 815
f 840 833 815
f 818 842 816
f 842 841 816
f 823 825 817
f 825 865 817
f 997 866 818
f 864 842 818
f 866 864 818
f 830 822 819
f 831 830 819
f 832 831 819
f 833 832 820
f 827 824 821
f 828 827 821
f 829 828 821
f 830 829 822
f 826 825 823
f 827 826 824
f 861 865 825
f 826 861 825
f 868 867 826
f 867 861 826
f 827 862 826
f 862 868 826
f 828 862 827
f 857 862 828
f 829 857 828
f 871 870 829
f 870 857 829
f 830 858 829
f 858 871 829
f 831 858 830
f 859 858 831
f 832 859 831
f 874 873 832
f 873 859 832
f 833 860 832
f 860 874 832
f 840 860 833
f 845 835 834
f 845 877 835
f 877 878 835
f 878 846 835
f 846 836 835
f 846 850 836
f 848 879 837
f 880 838 837
f 879 880 837
f 880 881 838
f 881 839 838
f 881 876 839
f 876 845 839
f 863 860 840
f 841 863 840
f 882 863 841
f 883 882 841
f 842 864 841
f 864 883 841
f 849 854 843
f 854 855 843
f 856 885 844
f 885 851 844
f 851 847 844
f 876 877 845
f 889 850 846
f 878 889 846
f 851 852 847
f 853 879 848
f 888 896 849
f 896 854 849
f 889 998 850
f 885 886 851
f 886 852 851
f 886 887 852
f 887 853 852
f 887 892 853
f 892 879 853
f 897 855 854
f 896 897 854
f 897 898 855
f 898 856 855
f 898 890 856
f 890 885 856
f 869 862 857
f 901 869 857
f 870 901 857
f 859 872 858
f 872 871 858
f 908 904 859
f 904 872 859
f 873 908 859
f 863 875 860
f 875 874 860
f 909 865 861
f 867 909 861
f 869 868 862
f 882 875 863
f 866 884 864
f 884 883 864
f 997 910 866
f 910 884 866
f 899 909 867
f 868 899 867
f 900 899 868
f 869 900 868
f 901 900 869
f 906 901 870
f 902 906 870
f 871 902 870
f 903 902 871
f 872 903 871
f 904 903 872
f 911 908 873
f 874 911 873
f 916 911 874
f 875 916 874
f 882 912 875
f 912 916 875
f 881 894 876
f 919 877 876
f 894 919 876
f 919 895 877
f 895 878 877
f 895 889 878
f 922 880 879
f 892 922 879
f 922 893 880
f 893 881 880
f 893 894 881
f 913 912 882
f 883 913 882
f 925 913 883
f 884 925 883
f 910 914 884
f 914 925 884
f 890 928 885
f 928 886 885
f 928 891 886
f 891 887 886
f 891 892 887
f 930 896 888
f 939 930 888
f 941 939 888
f 942 998 889
f 920 942 889
f 895 920 889
f 898 927 890
f 927 928 890
f 929 921 891
f 921 892 891
f 928 929 891
f 921 922 892
f 923 918 893
f 918 894 893
f 922 923 893
f 918 919 894
f 919 920 895
f 931 897 896
f 930 931 896
f 931 932 897
f 932 898 897
f 932 927 898
f 905 909 899
f 900 905 899
f 943 905 900
f 944 943 900
f 901 906 900
f 906 944 900
f 907 906 902
f 903 907 902
f 946 907 903
f 947 946 903
f 904 908 903
f 908 947 903
f 943 909 905
f 907 945 906
f 945 944 906
f 946 945 907
f 911 948 908
f 948 947 908
f 943 961 909
f 997 962 910
f 962 960 910
f 960 926 910
f 926 914 910
f 915 948 911
f 916 915 911
f 913 917 912
f 917 916 912
f 951 917 913
f 924 951 913
f 925 924 913
f 926 925 914
f 966 948 915
f 949 966 915
f 916 949 915
f 950 949 916
f 917 950 916
f 951 950 917
f 923 933 918
f 933 919 918
f 933 953 919
f 953 954 919
f 954 934 919
f 934 920 919
f 934 942 920
f 929 935 921
f 935 922 921
f 935 956 922
f 956 957 922
f 957 936 922
f 936 923 922
f 936 933 923
f 964 951 924
f 958 964 924
f 925 958 924
f 959 958 925
f 926 959 925
f 960 959 926
f 932 937 927
f 937 928 927
f 937 970 928
f 970 971 928
f 971 938 928
f 938 929 928
f 938 935 929
f 939 931 930
f 939 973 931
f 973 974 931
f 974 940 931
f 940 932 931
f 940 937 932
f 936 952 933
f 952 953 933
f 954 976 934
f 976 942 934
f 938 955 935
f 955 956 935
f 957 952 936
f 940 969 937
f 969 970 937
f 971 955 938
f 941 972 939
f 972 973 939
f 974 969 940
f 975 972 941
f 976 998 942
f 967 961 943
f 944 967 943
f 986 967 944
f 945 986 944
f 946 968 945
f 968 986 945
f 965 968 946
f 947 965 946
f 989 965 947
f 948 989 947
f 966 989 948
f 963 966 949
f 950 963 949
f 992 963 950
f 951 992 950
f 964 992 951
f 957 983 952
f 983 995 952
f 995 953 952
f 995 984 953
f 984 954 953
f 984 976 954
f 971 981 955
f 981 992 955
f 992 956 955
f 992 982 956
f 982 957 956
f 982 983 957
f 993 964 958
f 994 993 958
f 959 994 958
f 995 994 959
f 960 995 959
f 962 996 960
f 996 995 960
f 967 975 961
f 997 976 962
f 976 996 962
f 990 966 963
f 991 990 963
f 992 991 963
f 993 992 964
f 987 968 965
f 988 987 965
f 989 988 965
f 990 989 966
f 985 975 967
f 986 985 967
f 987 986 968
f 974 979 969
f 989 970 969
f 979 989 969
f 989 980 970
f 980 971 970
f 980 981 971
f 975 977 972
f 986 973 972
f 977 986 972
f 986 978 973
f 978 974 973
f 978 979 974
f 985 977 975
f 997 998 976
f 984 996 976
f 985 986 977
f 987 988 978
f 988 979 978
f 986 987 978
f 988 989 979
f 990 991 980
f 991 981 980
f 989 990 980
f 991 992 981
f 993 994 982
f 994 983 982
f 992 993 982
f 994 995 983
f 995 996 984
f 999 1000 997
f 1000 998 997

